<svg width="40" height="42" viewBox="0 0 40 42" fill="none" xmlns="http://www.w3.org/2000/svg">
<path d="M10.1574 20.7147C10.0538 20.0471 10.0001 19.3631 10.0001 18.6667C10.0001 11.3029 16.0089 5.33337 23.4212 5.33337C30.8334 5.33337 36.8422 11.3029 36.8422 18.6667C36.8422 20.3302 36.5356 21.9225 35.9754 23.3909C35.8591 23.6959 35.8009 23.8483 35.7745 23.9674C35.7483 24.0854 35.7382 24.1683 35.7354 24.2891C35.7325 24.411 35.749 24.5453 35.7821 24.8139L36.4531 30.2642C36.5257 30.8543 36.562 31.1493 36.4639 31.3637C36.3779 31.5517 36.2252 31.7009 36.0353 31.7825C35.8186 31.8757 35.5245 31.8326 34.9364 31.7464L29.6276 30.9682C29.3504 30.9276 29.2118 30.9073 29.0856 30.908C28.9607 30.9087 28.8743 30.9179 28.7521 30.9436C28.6286 30.9696 28.4707 31.0287 28.1551 31.1469C26.683 31.6983 25.0875 32 23.4212 32C22.7242 32 22.0396 31.9473 21.3713 31.8455M12.7195 38.6667C17.661 38.6667 21.6668 34.5627 21.6668 29.5C21.6668 24.4374 17.661 20.3334 12.7195 20.3334C7.77797 20.3334 3.77209 24.4374 3.77209 29.5C3.77209 30.5177 3.93396 31.4966 4.23274 32.4113C4.35905 32.7979 4.4222 32.9912 4.44292 33.1233C4.46456 33.2611 4.46835 33.3386 4.4603 33.4779C4.45258 33.6114 4.41919 33.7622 4.3524 34.0639L3.3335 38.6667L8.32483 37.985C8.59727 37.9478 8.73349 37.9292 8.85244 37.93C8.9777 37.9309 9.04417 37.9377 9.16701 37.9622C9.28367 37.9854 9.4571 38.0466 9.80395 38.169C10.7178 38.4916 11.6987 38.6667 12.7195 38.6667Z" stroke="#579AA8" stroke-width="3" stroke-linecap="round" stroke-linejoin="round"/>
</svg>
