<svg width="317" height="331" viewBox="0 0 317 331" fill="none" xmlns="http://www.w3.org/2000/svg">
<path d="M143.12 1.22033C196.5 -1.55967 245.03 8.66033 284.25 46.6203C333.03 93.8303 324.52 163.31 273.64 204.11C249.12 223.78 220.89 235.28 189.44 238.85C186.87 239.14 183.32 243.51 182.72 246.48C178.58 267.05 172.71 287.1 161.24 304.69C155.47 313.54 147.33 321.23 139.06 327.96C132.49 333.31 123.46 330.8 117.13 324.11C111.38 318.04 110.64 308.51 115.28 300.52C119.32 293.58 127.66 290.34 135.71 292.78C143.07 295.02 150.77 300.1 157.62 292.75C164.6 285.26 162.07 276.86 159.18 268C156.69 260.38 156.78 251.95 155.29 243.96C155.03 242.58 152.75 240.83 151.18 240.55C133.01 237.27 114.22 236.11 96.6998 230.78C53.7098 217.68 20.0698 192.5 5.29982 148.17C-7.14018 110.85 7.73983 70.4403 38.9398 42.5303C68.3598 16.2403 103.84 5.02033 143.12 1.22033Z" fill="#E0DBC7"/>
</svg>
