<svg width="341" height="282" viewBox="0 0 341 282" fill="none" xmlns="http://www.w3.org/2000/svg">
<path d="M155.78 0.420549C189.4 -1.23945 220.97 3.41055 250.09 19.3306C279.63 35.4906 299.93 59.8305 305.19 93.1805C310.36 125.951 300.33 155.741 278.08 180.831C272.82 186.761 267.18 192.381 261.43 197.841C258.25 200.861 258.22 202.461 260.54 206.781C265.6 216.231 268.79 226.691 272.65 236.781C273.93 240.131 274.48 243.831 276.12 246.971C281.65 257.571 289.66 259.531 299.21 252.741C301.42 251.171 303.23 249.021 305.12 247.041C313.02 238.721 320.4 237.341 329.5 242.551C337.86 247.341 342.22 257.011 339.95 265.751C337.47 275.321 329.43 281.571 318.98 281.121C300.65 280.341 286.02 270.531 273.01 259.181C260.48 248.251 249.54 235.421 238.44 222.951C235.43 219.571 233.54 218.491 229.56 220.721C209.95 231.671 188.72 238.811 166.65 241.251C114.05 247.071 64.1799 241.061 25.9099 199.021C2.79986 173.631 -4.14016 143.221 3.51984 110.031C13.1298 68.4005 41.4699 42.0206 77.6699 22.7906C101.81 9.98055 128.02 3.93055 155.78 0.420549Z" fill="#7C8C01"/>
</svg>
