<svg width="40" height="42" viewBox="0 0 40 42" fill="none" xmlns="http://www.w3.org/2000/svg">
<path d="M3.3335 9.66667C3.3335 8.73325 3.3335 8.26654 3.51515 7.91002C3.67494 7.59641 3.92991 7.34144 4.24351 7.18166C4.60003 7 5.06674 7 6.00016 7H34.0002C34.9336 7 35.4003 7 35.7568 7.18166C36.0704 7.34144 36.3254 7.59641 36.4852 7.91002C36.6668 8.26654 36.6668 8.73325 36.6668 9.66667V10.7823C36.6668 11.2303 36.6668 11.4543 36.6121 11.6626C36.5636 11.8472 36.4837 12.0221 36.376 12.1796C36.2545 12.3574 36.0852 12.5041 35.7466 12.7975L25.087 22.0358C24.7485 22.3292 24.5792 22.4759 24.4577 22.6537C24.3499 22.8113 24.2701 22.9862 24.2216 23.1707C24.1668 23.379 24.1668 23.603 24.1668 24.051V32.764C24.1668 33.0899 24.1668 33.2529 24.1143 33.3938C24.0678 33.5183 23.9923 33.6299 23.8939 33.7192C23.7826 33.8204 23.6313 33.8809 23.3287 34.0019L17.662 36.2686C17.0494 36.5136 16.7432 36.6361 16.4973 36.585C16.2823 36.5404 16.0936 36.4126 15.9722 36.2296C15.8335 36.0203 15.8335 35.6904 15.8335 35.0306V24.051C15.8335 23.603 15.8335 23.379 15.7788 23.1707C15.7302 22.9862 15.6504 22.8113 15.5427 22.6537C15.4211 22.4759 15.2519 22.3292 14.9133 22.0358L4.25368 12.7975C3.91514 12.5041 3.74586 12.3574 3.62432 12.1796C3.5166 12.0221 3.43675 11.8472 3.38824 11.6626C3.3335 11.4543 3.3335 11.2303 3.3335 10.7823V9.66667Z" stroke="#579AA8" stroke-width="3" stroke-linecap="round" stroke-linejoin="round"/>
</svg>
