<svg width="56" height="57" viewBox="0 0 56 57" fill="none" xmlns="http://www.w3.org/2000/svg">
<rect x="4" y="4.5" width="48" height="48" rx="24" fill="#254147"/>
<rect x="4" y="4.5" width="48" height="48" rx="24" stroke="#CBE0E4" stroke-width="8"/>
<path d="M38 25.5H18M22 34L24.5 31.5L22 29M27 34L31 34M18 24.3L18 32.7C18 34.3802 18 35.2202 18.327 35.862C18.6146 36.4265 19.0735 36.8854 19.638 37.173C20.2798 37.5 21.1198 37.5 22.8 37.5H33.2C34.8802 37.5 35.7202 37.5 36.362 37.173C36.9265 36.8854 37.3854 36.4265 37.673 35.862C38 35.2202 38 34.3802 38 32.7V24.3C38 22.6198 38 21.7798 37.673 21.138C37.3854 20.5735 36.9265 20.1146 36.362 19.827C35.7202 19.5 34.8802 19.5 33.2 19.5L22.8 19.5C21.1198 19.5 20.2798 19.5 19.638 19.827C19.0735 20.1146 18.6146 20.5735 18.327 21.138C18 21.7798 18 22.6198 18 24.3Z" stroke="#E1FF01" stroke-width="2" stroke-linecap="round" stroke-linejoin="round"/>
</svg>
