<svg xmlns="http://www.w3.org/2000/svg" fill="none" viewBox="0 0 99.7 32"><path fill="#fff" d="M56.633 20.367C56.633 27.43 51.408 32 44.959 32c-6.408 0-11.265-4.571-11.265-11.633 0-7.06 5.061-11.591 11.47-11.591 6.407 0 11.469 4.53 11.469 11.591Zm-18.204 0c0 5.102 3.02 7.592 6.53 7.592 3.47 0 6.898-2.49 6.898-7.592 0-5.102-3.306-7.55-6.775-7.55-3.51 0-6.653 2.448-6.653 7.55Zm20.763 11.266V1.429h4.653v30.204h-4.653Zm8.721 0V9.143h4.653v22.49h-4.653Zm2.367-25.47a2.945 2.945 0 0 1-2.98-2.98A2.945 2.945 0 0 1 70.28.205c1.633 0 2.94 1.306 2.94 2.98 0 1.673-1.307 2.98-2.94 2.98Zm11.007 6.327c1.47-2.041 4.286-3.714 7.837-3.714 5.96 0 10.572 4.57 10.572 11.51C99.695 27.224 95.041 32 89.123 32c-3.714 0-6.367-1.674-7.837-3.633v3.266h-4.653V1.429h4.653v11.06Zm13.674 7.796c0-4.857-3.347-7.47-6.857-7.47-3.47 0-6.817 2.735-6.817 7.551 0 4.857 3.347 7.592 6.817 7.592 3.51 0 6.857-2.816 6.857-7.673Z"/><path fill="#E1FF01" d="M0 9.184h4.592v22.449H0V9.183ZM19.133 0c-5.777 0-10.46 4.683-10.46 10.46v21.173h4.592V10.969a5.867 5.867 0 0 1 11.735 0v20.664h4.592V10.459C29.592 4.683 24.909 0 19.132 0Z"/></svg>