<svg width="608" height="480" viewBox="0 0 608 480" fill="none" xmlns="http://www.w3.org/2000/svg">
<path d="M175.028 323.445C170.932 319.61 165.939 317.976 161.67 315.115C140.043 300.631 123.188 282.371 112.344 258.282C100.148 231.194 86.6952 204.67 73.7536 177.916C69.8269 169.798 67.2438 161.234 66.2253 152.349C64.6174 138.332 71.7772 128.62 82.5604 120.727C91.8224 113.953 102.276 111.708 113.792 111.517C115.304 112.545 115.135 113.88 114.802 115.102C113.653 119.306 113.857 123.597 113.809 128.251C113.844 132.36 113.983 136.092 113.588 140.161C109.991 146.398 107.663 152.592 108.483 159.656C109.137 165.273 110.858 170.569 113.163 175.67C123.674 198.892 137.868 219.622 155.512 238.008C159.105 241.752 163.265 244.816 167.491 248.292C171.301 252.002 175.323 254.945 179.722 257.901C183.826 261.113 187.952 263.761 192.382 266.53C207.555 274.756 222.595 282.497 239.198 286.523C245.314 288.006 251.503 289.176 258.099 289.717C260.11 292.257 257.081 291.845 256.535 293.228C260.115 295.889 263.365 299.257 267.561 301.944C272.159 307.773 278.374 311.514 282.968 316.918C284.134 318.288 285.859 319.285 285.82 321.647C277.832 322.331 269.983 323.099 262.134 323.068C249.674 323.021 237.257 323.753 224.398 324.273C222.33 325.716 220.354 325.773 218.33 325.435C207.724 323.662 197.037 323.489 186.318 323.554C182.652 323.575 179.007 325.3 175.028 323.445Z" fill="#5C7A7D"/>
<path d="M179.926 258.924C175.201 256.393 171.24 253.381 167.66 249.493C167.517 247.703 168.206 246.416 168.93 244.829C172.618 241.093 175.609 237.115 179.332 233.834C181.56 231.871 183.696 229.786 186.856 228.59C188.49 228.156 189.846 228.148 191.541 228.122C204.019 227.558 215.66 224.533 227.522 220.931C232.741 219.605 235.67 215.366 240.169 212.935C251.967 210.803 263.326 208.271 274.95 205.285C284.815 203.274 294.285 201.112 304.101 198.871C310.377 197.458 316.189 195.655 322.153 194.424C325.239 193.787 328.272 193.362 331.735 194.086C345.769 194.714 354.784 202.728 363.409 212.428C384.724 236.404 404.648 261.555 425.906 285.565C426.851 286.632 427.532 287.932 428.494 288.976C431.285 292.01 430.743 294.754 428.026 297.48C426.92 298.585 425.993 299.868 424.909 301.368C422.526 306.638 418.053 309.966 415.067 314.426C414.659 315.033 413.832 315.055 412.8 314.76C400.582 302.031 389.379 288.799 377.815 275.896C367.206 264.055 357.449 251.482 346.419 240.001C339.589 232.889 331.857 230.531 321.997 231.732C302.376 234.111 283.111 238.528 263.552 241.15C251.633 242.745 239.797 244.799 227.969 246.918C213.731 249.471 199.68 252.856 186.063 257.827C184.177 258.521 182.357 259.431 179.926 258.924Z" fill="#254147"/>
<path d="M259.161 290.849C237.842 289.583 218.867 281.925 200.547 272.19C197.778 270.721 195.017 269.235 192.074 267.54C192.39 266.131 193.47 265.724 194.557 265.338C206.19 261.208 218.195 258.642 230.327 256.462C241.873 254.386 253.453 252.531 265.034 250.689C277.746 248.669 290.453 246.624 303.135 244.422C309.627 243.295 316.189 242.697 322.655 241.453C329.347 240.17 334.956 241.705 339.766 246.879C350.398 258.326 360.271 270.431 370.547 282.185C381.673 294.91 392.993 307.466 404.028 320.268C404.778 321.135 405.553 321.98 406.316 323.263C407.122 325.586 406.03 327.064 404.661 328.737C401.761 329.175 401.553 331.741 400.322 333.275C397.392 336.933 394.146 340.387 392.161 345.055C388.98 348.171 385.625 347.694 382.839 345.185C377.43 340.309 371.774 335.693 366.911 330.202C361.025 323.558 354.463 317.529 348.595 310.868C341.119 302.382 332.932 294.45 326.318 285.292C321.711 278.908 316.115 278.423 309.463 279.84C294.627 283 279.943 286.783 265.307 290.749C263.357 291.286 261.424 291.82 259.161 290.849Z" fill="#254147"/>
<path d="M203.299 86.3018C210.459 88.1611 216.154 91.9664 221.528 96.3958C229.074 102.611 234.908 110.213 239.922 118.881C245.349 126.821 247.26 135.762 249.626 144.534C250.779 148.808 251.572 153.138 252.027 157.875C252.045 158.928 252.023 159.743 251.525 160.233C245.912 165.758 242.267 172.754 237.491 178.904C236.871 179.701 236.169 180.395 234.773 180.477C233.217 179.818 232.624 178.644 231.852 177.621C229.109 173.98 225.524 172.073 220.878 171.891C215.513 171.683 210.359 172.299 205.345 174.31C202.034 175.636 198.592 176.624 195.195 177.716C188.559 179.849 183.076 177.768 178.105 173.646C173.277 169.642 169.983 164.471 167.621 158.69C162.845 147.014 159.867 134.774 156.292 122.721C155.438 119.839 154.528 116.987 153.436 113.841C150.493 103.829 145.491 95.6027 137.088 89.691C136.273 89.1189 135.445 88.5512 134.938 87.3073C143.905 83.9397 152.92 80.8842 162.273 77.8373C167.084 79.8873 170.525 83.4413 174.677 85.9767C181.438 90.1028 188.399 92.7292 196.529 92.2871C200.226 92.0834 202.216 91.1603 202.346 87.0126C202.649 86.5575 202.81 86.4058 203.299 86.3018Z" fill="#EAE7D9"/>
<path d="M285.985 322.006C282.474 317.027 277.98 313.356 273.689 309.524C271.483 307.552 269.121 305.78 267.483 302.928C270.053 299.174 274.3 299.317 277.876 298.308C286.128 295.976 294.376 293.562 302.771 291.741C311.703 289.804 319.11 291.269 325.282 299.044C333.283 309.121 342.228 318.452 351.169 327.732C364.683 341.757 378.188 355.795 393.279 368.186C394.84 369.469 397.566 370.739 395.048 373.816C392.902 374.535 391.03 374.414 389.171 374.44C371.553 374.691 353.948 374.548 336.408 372.607C332.433 372.169 328.468 371.558 324.298 370.024C322.569 364.55 321.243 359.223 319.825 353.918C319.661 353.294 319.093 352.722 318.594 352.245C307.972 342.034 297.396 331.775 285.985 322.006Z" fill="#254147"/>
<path d="M323.969 370.206C330.652 369.43 337.261 370.995 343.849 371.723C354.983 372.954 366.061 373.032 377.183 373.084C383.19 373.114 389.197 373.006 395.598 372.828C396.669 372.355 397.345 372.351 398.346 372.815C401.089 383.823 404.019 394.542 406.355 405.416C407.452 410.521 404.752 412.42 401.323 414.335C398.883 415.696 396.305 416.814 393.552 418.197C392.746 419.926 391.212 420 389.621 420.598C380.745 423.953 371.999 426.596 363.192 429.041C361.688 429.457 360.15 429.843 358.225 429.791C352.803 429.132 348.153 431.845 343.091 431.65C338.757 431.485 336.412 429.539 335.541 425.223C332.308 409.195 329.434 393.094 325.455 377.218C324.914 375.03 324.74 372.724 323.969 370.206Z" fill="#254147"/>
<path d="M301.219 91.8797C302.784 87.8534 304.877 86.2931 309.255 88.0917C322.673 93.6177 334.271 101.233 341.452 114.356C342.077 115.5 342.536 116.649 342.566 118.24C343.429 120.155 342.74 121.594 341.903 123.297C341.686 123.722 341.595 123.887 341.357 124.29C340.672 125.252 340.131 125.976 339.758 127.107C339.589 127.532 339.515 127.697 339.303 128.104C338.778 128.966 338.388 129.591 338.028 130.544C337.833 130.969 337.742 131.133 337.5 131.532C336.854 132.347 336.572 133.032 336.252 134.016C336.065 134.453 335.974 134.622 335.714 135.025C333.673 137.232 332.841 139.806 331.467 142.389C331.254 142.805 331.163 142.97 330.921 143.364C330.231 144.331 329.733 145.085 329.369 146.225C329.196 146.654 329.118 146.823 328.897 147.23C327.735 149.016 326.491 150.437 326.032 152.596C325.88 153.034 325.806 153.203 325.594 153.614C324.853 154.546 324.454 155.344 324.138 156.492C323.956 156.917 323.869 157.082 323.613 157.472C321.607 159.647 320.788 162.183 319.435 164.727C319.227 165.134 319.136 165.295 318.898 165.685C318.222 166.625 317.71 167.345 317.351 168.454C317.186 168.875 317.112 169.039 316.904 169.442C316.384 170.292 316.003 170.907 315.647 171.844C315.457 172.255 315.374 172.416 315.14 172.797C314.542 173.573 314.204 174.184 313.948 175.129C313.801 175.549 313.736 175.714 313.537 176.104C313.177 176.516 313.108 176.702 313.181 176.893C313.255 177.083 313.324 177.179 313.394 177.469C310.624 183.706 308.058 189.774 302.901 194.485C301.852 194.398 301.158 194.138 300.651 193.627C292.542 185.396 282.47 181.4 270.959 179.693C269.897 175.475 269.923 171.371 269.368 167.323C268.883 163.756 271.851 161.862 275.037 160.206C276.138 159.301 276.996 158.62 278.4 158.299C284.095 157.173 286.197 157.862 299.13 164.957C295.711 159.309 286.774 156.15 278.873 158.005C276.233 158.317 274.278 157.493 272.458 155.573C271.713 153.415 272.857 152.011 273.585 150.485C281.486 134.007 290.089 117.867 297.123 100.973C298.38 97.9561 298.987 94.6622 301.219 91.8797Z" fill="#D4D4D4"/>
<path d="M203.629 85.968C203.629 86.3538 203.325 86.3104 203.187 86.3798C201.28 87.8403 199.55 86.9865 197.769 86.4144C186.977 82.9428 181.022 69.0434 182.448 59.0317C178.877 62.2043 175.093 64.588 169.797 62.5336C169.16 47.6981 165.957 33.543 162.797 19.3445C160.461 8.83439 162.507 1.86953 176.978 0.209576C183.267 -0.514215 189.096 0.51296 193.873 5.24578C196.815 8.16261 200.01 7.56018 202.966 5.12009C211.083 -1.57606 227.544 5.16777 230.214 13.3765C232.086 19.1365 229.161 25.863 223.24 27.7743C220.813 28.5588 218.269 28.9749 215.443 29.6206C212.227 31.5623 208.99 30.7432 205.913 30.7735C193.032 30.8905 189.599 34.8996 191.606 47.7198C192.941 56.2406 193.387 56.5309 202.155 55.3131C204.842 54.9403 207.508 54.4072 210.589 54.2165C212.505 54.1125 214.03 54.1212 215.76 55.1267C216.549 61.4458 217.372 67.5612 217.368 73.6809C217.363 79.4626 212.969 83.1205 206.979 82.9082C204.821 82.8302 203.351 82.9298 203.629 85.968Z" fill="#171717"/>
<path d="M302.636 194.654C307.001 189.258 309.363 182.921 312.969 176.997C312.999 176.559 312.951 176.416 313.06 176.108C313.22 175.944 313.16 175.944 313.168 175.974C313.966 175.116 313.857 173.842 314.728 172.706C314.941 172.515 314.884 172.498 314.897 172.524C315.812 171.726 315.76 170.478 316.466 169.273C316.653 169.061 316.601 169.061 316.618 169.083C317.537 168.285 317.485 167.037 318.191 165.832C318.378 165.62 318.326 165.615 318.343 165.637C320.48 163.219 321.212 159.981 323.34 157.22C323.561 157.021 323.505 157.004 323.514 157.03C324.311 156.176 324.198 154.897 325.07 153.766C325.282 153.575 325.226 153.558 325.234 153.584C326.092 151.369 327.618 149.449 328.52 146.91C328.715 146.68 328.663 146.68 328.68 146.702C329.599 145.904 329.547 144.656 330.249 143.451C330.435 143.239 330.383 143.234 330.4 143.256C332.537 140.842 333.27 137.6 335.398 134.839C335.619 134.64 335.562 134.622 335.571 134.648C336.369 133.79 336.256 132.516 337.127 131.385C337.339 131.194 337.283 131.177 337.292 131.203C337.994 130.31 338.185 129.166 338.861 127.948C339.047 127.74 338.995 127.74 339.008 127.762C339.927 126.964 339.875 125.716 340.581 124.511C340.768 124.299 340.716 124.299 340.729 124.32C342.085 122.99 342.592 121.117 343.858 119.392C347.754 110.152 354.55 104.006 363.274 100.357C376.307 94.9092 389.617 90.1244 402.801 85.0449C403.763 84.6722 404.708 84.5075 405.991 84.9755C396.322 103.993 385.63 122.357 374.461 140.79C373.798 141.063 373.317 141.163 372.974 140.95C367.149 137.305 361.021 137.388 354.429 139.477C353.375 139.78 352.595 139.936 351.59 140.326C349.631 141.158 347.875 141.774 346.415 143.421C344.746 144.998 345.986 146.411 346.12 148.093C345.024 149.601 343.368 149.9 341.99 151.127C341.296 151.946 341.322 152.704 341.184 153.723C340.152 156.258 340.837 158.313 342.289 159.955C345.587 163.687 344.751 167.141 342.033 170.665C341.166 171.787 340.486 173.048 339.398 174.392C328.034 179.879 318.183 187.282 307.794 193.8C306.58 194.563 305.367 195.317 303.564 195.352C303.061 195.191 302.883 195.079 302.636 194.654Z" fill="#A3A3A3"/>
<path d="M504.479 316.103C499.841 321.664 494.094 325.573 489.032 330.232C482.995 335.789 476.663 341.02 470.162 346.442C467.544 346.78 466.746 344.773 465.589 343.477C463.205 340.808 460.791 338.19 457.731 336.283C453.917 333.903 448.5 333.869 445.67 336.123C442.215 338.875 441.401 343.031 442.952 348.093C444.148 351.99 446.654 354.759 449.726 357.19C451.048 358.239 452.726 358.911 453.527 360.905C444.643 370.045 447.044 369.66 437.526 362.604C430.357 357.29 424.242 351.14 421.499 341.956C420.749 339.503 422.066 338.038 423.154 336.591C429.066 328.724 434.869 320.78 441.154 312.818C443.771 311.795 445.15 313.499 446.554 314.82C449.254 317.356 451.906 319.943 454.624 322.461C456.752 324.429 458.217 324.238 459.699 321.811C462.599 317.057 465.255 312.185 467.175 306.941C467.717 305.468 468.19 303.968 469.581 302.65C475.952 301.502 481.534 299.083 486.939 296.171C495.204 291.716 503.647 288.318 513.411 290.329C515.743 290.81 517.797 291.642 519.583 292.955C524.247 296.388 524.368 299.53 520.056 303.309C515.678 307.145 511.171 310.829 506.425 314.604C503.686 314.946 503.127 312.727 502.247 311.375C500.106 308.085 497.648 305.06 494.948 301.645C498.433 306.586 502.49 310.577 504.479 316.103Z" fill="#EAE7D9"/>
<path d="M377.954 476.061C374.062 476.287 369.927 477.271 366.776 475.936C362.906 474.293 365.32 469.491 364.479 466.158C362.741 459.254 364.674 452.298 364.822 444.973C367.973 442.117 371.925 442.832 375.44 441.861C383.827 439.547 391.879 436.487 399.828 432.404C400.153 432.499 400.543 432.53 400.738 432.552C402.559 434.289 402.06 436.313 401.557 438.216C400.509 442.216 400.344 446.377 399.265 450.369C398.502 453.177 399.317 454.3 402.481 453.728C410.33 452.311 418.07 450.516 425.993 448.028C428.997 451.977 433.43 452.891 437.552 453.914C446.541 456.151 454.875 459.371 461.229 466.483C463.054 468.529 464.558 470.73 465.143 473.448C465.923 477.058 463.661 479.936 460.076 479.468C454.091 478.688 448.079 479.199 441.687 478.761C439.645 473.587 441.11 468.316 440.556 464.052C440.105 468.043 441.292 473.023 439.697 478.064C425.659 478.107 411.907 477.99 397.739 477.825C396.031 476.157 396.43 474.228 396.387 472.399C396.266 467.146 394.809 462.205 392.599 457.529C390.631 453.368 386.262 451.058 382.891 451.964C379.042 453 376.741 456.831 376.19 461.46C375.596 466.492 378.127 470.938 377.954 476.061Z" fill="#EAE7D9"/>
<path d="M398.636 372.628C397.99 372.927 397.323 372.875 396.326 372.763C392.43 367.579 386.943 364.55 382.488 360.389C365.576 344.591 349.505 327.983 334.067 310.755C329.976 306.191 325.772 301.723 321.914 296.968C317.169 291.117 310.715 291.412 304.582 292.457C297.197 293.714 290.007 296.141 282.756 298.143C277.841 299.5 272.97 301.008 267.751 302.542C262.169 300.496 259.066 295.508 253.635 292.743C255.638 292.032 257.059 291.525 258.689 290.831C267.725 289.822 275.969 286.536 284.524 284.556C295.459 282.02 306.264 278.947 317.476 277.76C319.903 277.504 321.637 278.553 323.067 280.235C337.53 297.241 352.582 313.711 368.012 329.842C372.966 335.017 378.37 339.689 383.567 344.591C386.15 347.031 388.746 346.087 391.801 345.384C393.591 351.491 395.048 357.602 396.517 363.709C397.206 366.569 397.912 369.421 398.636 372.628Z" fill="#111F22"/>
<path d="M174.439 323.337C182.682 322.635 190.631 321.79 198.597 322.349C205.514 322.834 212.514 322.605 219.314 324.447C220.627 324.802 222.114 324.525 223.743 324.373C225.598 327.593 229.364 326.9 232.034 328.044C247.559 334.705 257.276 346.182 262.442 362.045C268.436 380.46 269.771 399.673 272.866 418.609C275.072 432.109 275.301 446.2 282.249 458.599C286.982 467.051 293.413 473.465 303.378 475.494C307.001 476.23 310.472 476.157 313.879 474.67C316.531 473.513 318.321 471.853 318.347 468.624C318.373 465.525 316.128 464.823 314.022 463.744C311.322 462.357 308.444 462.665 305.592 462.634C304.288 462.621 302.836 462.747 302.84 460.831C302.849 458.816 304.457 459.111 305.653 459.171C309.168 459.345 312.696 458.578 316.159 460.355C319.886 462.266 322.517 464.84 322.33 469.07C322.144 473.34 319.765 476.308 315.708 478.207C308.968 481.362 302.506 479.923 296.3 477.206C285.014 472.26 279.354 462.548 275.189 451.522C270.525 439.174 270.556 426.072 268.436 413.321C266.282 400.397 264.848 387.334 262.204 374.518C258.498 356.549 250.874 340.938 232.957 332.699C224.701 328.902 215.898 327.251 206.975 326.722C198.254 326.206 189.43 326.02 180.745 326.748C166.377 327.949 155.533 334.064 152.183 350.646C149.058 366.106 146.718 381.726 143.385 397.133C139.671 414.305 134.179 430.909 122.85 444.817C117.419 451.483 110.914 456.476 101.466 455.8C96.2561 455.427 91.0162 452.033 90.1798 447.851C89.1309 442.607 92.0651 437.531 97.5217 435.46C98.6702 435.022 100.044 435.13 101.318 435.074C102.263 435.035 103.004 435.438 103.078 436.509C103.147 437.497 102.562 438.385 101.726 438.424C99.8708 438.511 98.5315 439.685 97.0189 440.401C94.9906 441.363 93.6253 443.33 93.79 445.545C93.9591 447.812 95.1553 449.606 97.591 450.711C105.037 454.092 110.836 450.828 116.037 446.165C124.38 438.684 129.087 428.712 133.091 418.561C138.314 405.329 140.572 391.239 143.355 377.361C145.223 368.039 146.146 358.53 148.378 349.242C151.498 336.266 158.988 327.597 172.094 324.152C172.792 323.974 173.459 323.71 174.439 323.337Z" fill="#110C49"/>
<path d="M278.86 158.451C277.993 159.218 277.269 159.769 276.29 160.432C271.565 163.331 266.087 162.612 261.411 164.688C262.091 164.489 262.728 164.168 263.413 163.955C268.531 162.365 269.446 163.128 268.796 168.875C265.459 170.478 261.77 169.512 259.066 171.315C261.606 170.132 264.67 169.867 268.05 169.707C269.983 173.937 269.238 175.194 264.522 176.152C267.01 175.54 268.297 176.992 269.433 179.172C268.219 187.407 264.739 193.787 256.574 197.137C251.494 198.567 247.004 200.782 241.738 201.632C240.967 201.549 240.403 201.541 240.204 201.211C236.429 194.979 233.204 188.573 234.518 180.65C238.904 176.286 241.582 171.102 244.906 166.413C246.761 163.795 248.889 161.615 251.516 159.426C255.066 155.309 259.205 153.532 264.705 154.776C265.649 155.014 266.265 155.11 267.184 155.131C268.93 154.13 270.426 153.974 272.294 154.997C274.426 156.033 276.251 156.822 278.331 157.762C278.721 158.018 278.86 158.122 278.86 158.451Z" fill="#83493B"/>
<path d="M134.569 87.0256C144.633 92.8419 150.831 101.367 154.008 112.527C152.677 115.145 150.124 115.626 148.001 116.614C138.193 121.187 128.194 125.304 117.87 128.589C116.392 129.062 114.88 129.578 112.99 128.971C112.063 123.15 112.882 117.646 114.191 111.856C117.029 103.538 120.774 96.1921 127.856 90.9479C129.902 89.4353 132.038 88.2174 134.569 87.0256Z" fill="#5F6B00"/>
<path d="M353.219 139.386C360.323 136.031 367.219 135.507 373.945 140.811C377.469 146.741 373.247 150.849 370.946 155.283C364.475 167.774 352.873 173.651 340.226 178.622C338.505 177.794 338.054 176.49 338.718 174.535C339.294 173.482 339.576 172.676 340.07 172.03C343.351 167.735 345.171 163.496 340.499 158.863C338.982 157.359 338.687 155.383 340.72 153.428C346.099 152.089 348.972 155.374 351.468 158.395C349.891 153.684 344.512 153.675 340.69 150.962C342.137 150.021 343.264 148.522 345.379 148.357C349.007 148.947 352.119 150.433 355.478 150.997C352.639 150.125 349.618 149.688 347.217 147.755C345.964 146.749 345.136 145.432 345.379 143.416C346.571 141.02 348.82 140.712 351.009 139.745C353.601 140.309 354.043 142.944 355.95 143.91C358.316 145.115 360.769 146.09 362.967 145.861C359.14 145.345 355.057 144.396 353.219 139.386Z" fill="#83493B"/>
<path d="M440.742 312.259C438.57 319.376 433.287 324.221 429.304 329.981C426.747 333.687 424.142 337.358 421.516 341.328C419.357 342.832 418.3 340.916 417.091 339.962C412.83 336.586 408.696 333.045 404.444 329.257C404.019 327.147 405.666 326.158 406.147 324.381C407.287 320.238 410.126 317.594 412.926 314.621C416.926 310.33 420.636 306.144 424.584 301.814C429.92 305.017 435.004 308.367 440.742 312.259Z" fill="#A3A3A3"/>
<path d="M169.472 62.7027C174.608 62.863 179.089 61.7015 182.842 57.0857C183.783 71.0501 186.565 83.2116 202.701 86.4275C202.992 87.7363 202.849 89.0236 202.896 90.3064C202.983 92.7899 201.678 93.1669 199.442 93.3966C184.494 94.9439 173.29 87.5673 162.698 78.119C170.659 75.5966 169.42 69.0608 169.472 62.7027Z" fill="#83493B"/>
<path d="M210.875 55.1787C205.566 55.9762 200.473 56.5786 195.372 57.1421C193.201 57.3804 192.135 56.6263 191.602 54.2166C190.639 49.8565 189.95 45.5311 190.067 41.0583C190.262 33.5517 193.47 30.0367 200.972 29.6683C205.406 29.4516 209.852 29.6033 214.702 29.638C215.344 32.8495 215.582 36.0091 215.764 39.55C214.039 41.3573 214.577 42.9479 215.56 44.7813C215.807 47.3687 215.872 49.7351 215.881 52.4916C213.497 53.1894 213.493 50.8013 212.067 49.6658C211.408 51.4297 212.167 53.4104 210.875 55.1787Z" fill="#83493B"/>
<path d="M469.602 302.295C467.44 309.932 464.107 316.888 459.89 323.493C458.03 326.405 456.795 325.968 454.667 323.991C450.528 320.147 446.81 315.826 441.713 312.753C441.401 312.801 441.427 312.822 441.435 312.835C441.262 312.627 441.067 312.419 440.698 312.081C440.538 311.938 440.577 311.977 440.594 311.995C441.193 306.789 443.529 302.048 444.742 296.999C445.041 295.759 445.947 295.382 447.009 295.681C454.472 297.783 461.909 299.946 469.602 302.295Z" fill="#9F9B8D"/>
<path d="M426.166 447.69C425.287 450.087 423.202 450.052 421.312 450.629C414.924 452.575 408.379 453.784 401.852 455.102C397.505 455.977 396.781 455.288 397.748 450.837C398.775 446.126 399.828 441.423 400.79 436.699C401.016 435.594 400.916 434.424 400.951 432.924C405.207 431.152 409.445 429.639 413.758 428.382C415.7 427.814 417.29 427.836 418.335 430.571C420.536 436.318 423.41 441.805 426.166 447.69Z" fill="#9F9B8D"/>
<path d="M400.075 432.192C389.79 439.846 377.872 442.802 365.221 444.644C363.379 441.38 361.896 438.168 360.306 434.658C361.411 432.647 363.37 432.725 365.125 432.278C373.819 430.064 382.518 427.836 388.603 419.939C390.115 419.307 391.39 418.895 392.993 418.418C395.546 422.865 397.769 427.377 400.075 432.192Z" fill="#A3A3A3"/>
<path d="M338.605 174.245C339.199 175.506 339.485 176.797 339.853 178.414C339.68 184.911 337.855 190.285 332.186 193.978C322.959 195.204 314.074 197.311 304.968 199.907C303.321 198.697 302.29 197.371 302.675 195.191C307.434 193.566 311.019 190.48 314.867 187.914C322.404 182.887 330.006 177.994 338.605 174.245Z" fill="#5F6B00"/>
<path d="M468.311 348.128C464.051 352.089 459.942 355.739 455.53 359.405C454.975 359.57 454.676 359.8 454.446 359.726C448.582 357.932 440.764 350.078 442.22 342.212C443.676 334.35 449.362 332.725 455.322 334.987C461.246 337.241 465.65 341.926 468.311 348.128Z" fill="#9F9B8D"/>
<path d="M395.806 477.162C390.484 477.318 385.478 477.279 380.091 477.245C376.35 471.649 375.401 465.53 376.151 459.167C376.576 455.565 380.177 451.916 383.519 451.639C387.758 451.288 390.909 453.893 392.551 457.182C395.607 463.315 397.687 469.881 395.806 477.162Z" fill="#9F9B8D"/>
<path d="M272.645 154.928C271.136 155.227 269.671 155.214 267.847 155.131C271.492 145.635 276.788 136.841 280.78 127.389C285.196 116.944 289.703 106.551 292.997 95.6807C294.701 90.0594 295.043 89.9034 301.176 91.7237C298.207 102.763 293.054 112.922 288.169 123.185C283.155 133.734 277.858 144.144 272.645 154.928Z" fill="#A3A3A3"/>
<path d="M264.93 154.663C260.314 154.828 256.322 157.077 251.941 159.045C249.587 152.683 249.089 145.839 247.104 139.273C245.093 132.624 242.956 126.08 240.048 119.466C244.053 122.829 246.311 127.749 249.241 132.182C254.233 139.737 259.07 147.395 264.93 154.663Z" fill="#7C8C01"/>
<path d="M388.529 419.723C387.004 425.448 382.132 427.845 377.165 429.795C371.943 431.845 366.547 433.505 360.566 434.311C359.465 433.02 358.728 431.68 357.944 430.042C362.772 427.117 368.345 426.714 373.503 424.915C378.413 423.199 383.406 421.721 388.529 419.723Z" fill="#525252"/>
<path d="M468.489 348.457C465.351 343.79 461.844 339.889 457.237 336.833C453.506 334.359 446.844 335.065 444.994 337.492C442.302 341.029 442.155 346.862 445.08 351.079C447.555 354.646 450.819 357.316 454.914 359.41C455.482 360.337 455.564 361.152 453.909 361.174C448.864 357.672 443.641 354.681 441.951 348.288C440.378 342.338 441.375 337.769 445.371 335.004C449.063 332.447 455.049 332.785 459.335 335.901C463.262 338.753 466.166 342.624 469.594 346.364C469.724 347.261 470.205 348.366 468.489 348.457Z" fill="#CCC7B5"/>
<path d="M395.633 477.596C396.279 470.7 394.965 464.355 392.231 458.339C390.475 454.486 385.95 451.864 383.129 452.549C379.358 453.459 377.2 457.191 376.845 462.08C376.472 467.242 378.448 471.797 379.705 476.907C378.981 477.622 378.635 477.115 378.019 476.486C376.411 471.433 374.591 466.678 375.02 461.373C375.427 456.35 378.244 452.038 382.674 450.815C386.315 449.81 391.212 452.332 393.461 456.766C396.682 463.115 397.912 469.924 397.34 477.414C396.812 477.799 396.296 477.812 395.633 477.596Z" fill="#9F9B8D"/>
<path d="M504.618 316.363C500.912 310.326 496.556 304.999 492.465 299.43C498.511 302.945 501.376 309.264 505.844 314.521C506.004 315.401 506.256 316.433 504.618 316.363Z" fill="#9F9B8D"/>
<path d="M439.554 478.506C439.42 471.433 439.42 464.628 439.42 457.828C440.053 457.815 440.686 457.802 441.318 457.785C441.318 464.511 441.318 471.233 441.301 478.341C440.755 478.943 440.239 479.412 439.554 478.506Z" fill="#9F9B8D"/>
<path d="M211.053 55.3998C210.667 52.717 210.667 50.0429 210.667 47.0393C213.792 48.0405 213.558 51.1177 215.578 52.7213C215.933 53.4971 216.037 54.1039 216.115 55.0227C214.538 55.3564 212.99 55.3824 211.053 55.3998Z" fill="#110C49"/>
<path d="M215.799 44.6469C213.393 43.5937 211.668 42.1028 215.396 39.9357C215.76 41.379 215.807 42.8352 215.799 44.6469Z" fill="#09093E"/>
<path d="M343.749 119.106C343.498 121.096 342.878 122.972 341.032 124.355C341.309 122.639 341.886 120.944 342.48 118.894C342.826 118.712 343.151 118.877 343.749 119.106Z" fill="#110C49"/>
<path d="M112.652 129.161C125.39 125.603 137.226 120.199 149.089 114.868C150.51 114.231 151.953 113.641 153.709 112.939C156.669 117.633 157.471 123.016 159.035 128.147C162.711 140.218 165.393 152.639 171.392 163.886C173.828 168.45 177.351 172.164 181.75 174.999C187.9 178.956 194.011 177.144 200.183 175.042C205.939 173.083 211.486 170.6 217.823 170.474C225.403 170.327 231.12 172.814 234.635 180.096C234.76 187.819 237.66 194.407 241.114 201.073C243.801 204.973 243.507 209.199 240.247 213.472C236.815 216.693 233.972 220.064 229.321 221.447C226.435 219.965 226.209 217.052 225.264 214.582C223.734 210.586 222.928 206.295 220.324 202.745C219.561 201.705 218.937 200.539 217.901 199.751C212.219 195.43 206.246 196.764 200.374 199.135C195.138 201.25 191.407 204.726 191.212 210.898C191.086 214.924 191.333 218.903 192.239 222.843C192.681 224.776 193.283 226.756 192 228.967C190.206 229.335 188.62 229.439 186.643 229.63C179.236 231.537 172.363 230.254 165.133 228.707C162.667 228.113 160.652 227.38 158.749 225.69C157.817 221.716 159.69 218.452 160.418 215.028C161.514 209.879 162.854 204.765 164.54 199.755C165.549 196.76 164.917 194.333 162.498 192.062C157.921 187.758 153.878 182.917 149.912 178.067C147.121 174.656 144.286 174.483 140.494 175.753C134.418 177.79 128.484 180.308 121.827 181.482C118.317 176.516 117.541 170.786 115.994 165.364C113.84 157.831 112.349 150.138 112.422 141.895C112.539 137.552 112.57 133.548 112.652 129.161Z" fill="#7C8C01"/>
<path d="M413.142 314.227C411.443 317.885 409.038 320.81 406.442 323.926C395.139 311.691 383.996 299.387 373.065 286.9C362.962 275.359 352.764 263.873 343.208 251.881C336.546 243.52 328.979 240.976 318.482 243.057C302.16 246.294 285.543 248.015 269.169 251.014C256.704 253.294 244.152 255.058 231.696 257.411C218.417 259.916 205.276 262.707 192.208 267.254C187.861 264.723 183.571 262.499 179.77 259.071C197.968 251.721 217.116 247.499 236.433 244.119C253.978 241.046 271.656 238.801 289.196 235.606C300.968 233.461 312.756 231.285 324.714 230.224C332.212 229.56 338.596 231.376 344.365 236.469C352.409 243.568 358.732 252.154 365.719 260.15C381.265 277.933 396.604 295.894 412.709 313.178C412.891 313.373 412.952 313.681 413.142 314.227Z" fill="#E1FF01"/>
<path d="M112.24 141.678C114.563 147.083 114.204 153.038 115.647 158.724C117.246 165.022 118.646 171.354 120.843 177.486C121.22 178.535 121.268 179.706 121.758 180.984C123.834 181.825 123.851 183.589 124.393 185.006C128.922 196.873 134.543 207.977 144.802 216.133C149.084 219.54 154.194 221.503 158.719 224.971C160.474 225.937 162.073 226.631 163.946 227.45C166.733 232.932 169.272 238.285 169.693 244.595C169.532 246.381 168.973 247.651 167.825 248.99C161.029 245.549 155.789 240.235 150.866 234.77C138.444 220.979 127.527 206.061 118.802 189.6C114.334 181.17 109.761 172.719 107.867 163.344C106.35 155.851 106.788 148.249 112.24 141.678Z" fill="#1A2223"/>
<path d="M192.169 229.283C192.096 223.77 189.79 218.639 189.976 213.121C190.275 204.223 194.726 198.494 203.546 196.647C215.361 194.173 220.857 197.519 224.619 209.307C225.871 213.23 227.401 217.061 228.922 221.239C217.186 225.577 205.098 228.538 192.169 229.283Z" fill="#5F6B00"/>
<path d="M302.779 194.792C303.443 196.383 304.015 197.835 304.613 199.586C295.182 202.017 285.729 204.15 275.934 206.334C267.522 206.603 260.795 203.907 255.906 196.908C260.548 193.917 264.809 191 266.963 185.682C267.734 183.78 266.516 181.248 269.065 179.697C269.567 179.151 269.918 178.986 270.616 179.116C283.376 179.753 293.743 184.724 302.329 194.168C302.567 194.342 302.693 194.654 302.779 194.792Z" fill="#7C8C01"/>
<path d="M255.603 196.582C260.986 202.225 267.5 205.043 275.241 206.265C264.96 208.835 254.329 211.288 243.684 213.693C242.726 213.91 241.691 213.776 240.321 213.771C241.73 209.975 242.124 206.026 241.457 201.593C246.007 199.694 250.653 198.147 255.603 196.582Z" fill="#EAE7D9"/>
<path d="M169.823 244.873C167.76 239.36 165.991 233.816 164.219 227.926C171.283 228.642 178.335 229.916 185.894 229.625C179.826 233.647 175.297 239.594 169.823 244.873Z" fill="#EAE7D9"/>
<path d="M320.046 113.069C317.416 110.079 314.031 108.826 310.888 107.196C309.818 106.637 308.661 105.987 309.09 104.687C309.64 103.031 311.348 103.378 312.384 103.855C319.093 106.928 324.935 110.997 328.034 118.101C328.637 119.488 328.836 120.606 327.362 121.347C325.845 122.11 325.598 120.866 324.979 119.835C323.605 117.524 322.348 115.093 320.046 113.069Z" fill="#262626"/>
<path d="M270.911 178.917C270.53 179.311 270.174 179.363 269.55 179.441C267.383 176.16 264.132 177.066 260.305 177.46C263.391 174.587 269.429 176.802 268.358 170.405C268.211 169.872 268.072 169.689 268.15 169.239C268.51 163.271 268.358 163.128 263.183 164.822C261.697 165.308 260.271 165.901 257.904 165.074C263.924 162.521 269.801 162.061 275.704 160.523C275.57 161.775 274.365 161.849 273.394 162.378C270.937 163.713 269.572 165.914 270.478 168.697C271.548 172 271.886 175.228 270.911 178.917Z" fill="#262626"/>
<path d="M288.551 165.884C291.875 167.834 295.216 169.156 297.717 171.744C298.398 172.446 299.941 173.07 298.567 174.444C297.709 175.298 296.755 175.085 295.858 174.453C290.726 170.847 285.417 167.687 278.985 166.916C277.876 166.781 276.129 166.17 276.485 164.545C276.875 162.755 278.426 163.778 279.618 163.691C282.765 163.47 285.296 165.429 288.551 165.884Z" fill="#262626"/>
<path d="M279.089 158.69C278.721 158.672 278.656 158.291 278.621 158.1C278.951 155.955 280.468 156.106 281.906 156.072C288.98 155.903 294.913 158.616 300.032 163.305C300.894 164.094 302.459 164.926 301.332 166.435C300.088 168.099 299.039 166.547 298.142 165.841C292.646 161.511 286.566 158.785 279.089 158.69Z" fill="#262626"/>
<path d="M304.543 140.625C301.475 138.558 298.593 136.733 295.698 134.921C294.675 134.28 292.924 133.977 293.864 132.226C294.779 130.527 296.075 131.714 297.197 132.174C302.818 134.479 307.473 138.185 311.807 142.341C312.622 143.122 313.714 144.071 312.774 145.241C311.755 146.511 310.719 145.393 309.835 144.742C308.11 143.481 306.424 142.168 304.543 140.625Z" fill="#262626"/>
<path d="M306.715 124.615C305.38 124.299 304.682 123.61 303.989 122.864C303.503 122.34 302.827 121.924 303.256 121.091C303.733 120.155 304.487 120.151 305.432 120.428C308.522 121.338 310.988 123.237 313.324 125.326C315.448 127.224 317.537 129.166 319.548 131.186C320.302 131.944 320.462 133.153 319.687 133.929C318.586 135.026 317.892 133.686 317.281 133.088C314.104 129.989 310.568 127.354 306.715 124.615Z" fill="#262626"/>
<path d="M296.816 154.416C294.878 153.437 293.21 152.631 291.584 151.742C290.657 151.235 290.644 150.359 291.108 149.536C291.506 148.825 292.144 148.717 292.932 149.033C295.672 150.138 298.58 150.849 300.92 152.852C302.03 153.801 303.59 154.724 302.48 156.25C301.345 157.81 300.019 156.765 298.913 155.682C298.415 155.192 297.713 154.919 296.816 154.416Z" fill="#262626"/>
<path d="M335.294 134.644C334.674 137.851 333.066 140.712 330.708 143.308C331.306 140.07 332.516 137.028 335.294 134.644Z" fill="#110C49"/>
<path d="M323.241 157.025C322.599 160.224 321.03 163.102 318.655 165.689C319.258 162.456 320.458 159.405 323.241 157.025Z" fill="#110C49"/>
<path d="M328.42 146.793C329.022 149.475 326.985 151.248 325.512 153.502C324.766 150.754 326.574 148.882 328.42 146.793Z" fill="#110C49"/>
<path d="M340.473 124.416C340.867 125.59 340.941 126.873 339.32 127.74C338.895 126.513 339.034 125.334 340.473 124.416Z" fill="#110C49"/>
<path d="M337.001 131.224C337.396 132.447 336.997 133.526 335.827 134.54C335.61 133.426 335.051 131.987 337.001 131.224Z" fill="#110C49"/>
<path d="M314.62 172.554C315.054 173.79 314.624 174.851 313.437 175.866C313.259 174.769 312.691 173.321 314.62 172.554Z" fill="#110C49"/>
<path d="M330.145 143.356C330.617 144.565 330.626 145.83 329.001 146.697C328.563 145.449 328.723 144.283 330.145 143.356Z" fill="#110C49"/>
<path d="M316.367 169.174C316.705 170.327 316.783 171.601 315.201 172.481C314.789 171.28 314.893 170.088 316.367 169.174Z" fill="#110C49"/>
<path d="M318.092 165.741C318.538 166.937 318.612 168.225 316.948 169.083C316.514 167.835 316.67 166.664 318.092 165.741Z" fill="#110C49"/>
<path d="M324.948 153.606C325.351 154.832 324.914 155.894 323.769 156.921C323.548 155.807 323.002 154.369 324.948 153.606Z" fill="#110C49"/>
<path d="M338.748 127.848C339.147 129.01 338.9 130.158 337.565 131.12C337.166 129.955 337.261 128.758 338.748 127.848Z" fill="#110C49"/>
<path d="M313.064 175.987C313.22 175.939 313.16 176.325 313.103 176.516C312.921 176.555 312.791 176.407 312.678 176.243C312.67 176.23 312.826 176.108 313.064 175.987Z" fill="#110C49"/>
<path d="M180.61 53.6965C176.38 52.0235 175.769 48.7686 176.367 45.1887C176.753 42.8829 178.53 41.7344 180.87 41.4353C181.872 41.3053 183.024 40.7982 183.059 42.3715C183.141 46.0468 183.185 49.7351 182.977 53.4061C182.903 54.624 181.69 53.9912 180.61 53.6965Z" fill="#83493B"/>
<path d="M345.184 143.182C347.455 150.039 354.242 148.765 358.966 151.248C354.325 152.262 350.077 151.161 345.847 148.587C345.167 146.662 342.701 145.306 345.184 143.182Z" fill="#262626"/>
<path d="M353.024 139.013C356.041 143.819 360.938 144.864 365.866 145.856C358.672 147.581 354.91 145.956 351.508 139.906C351.616 139.039 352.127 138.822 353.024 139.013Z" fill="#262626"/>
<path d="M340.395 150.841C346.151 152.206 351.616 153.874 353.115 160.558C353.198 160.922 353.128 161.325 352.838 161.996C350.264 157.459 346.974 153.978 341.27 153.289C340.707 152.479 340.46 151.742 340.395 150.841Z" fill="#262626"/>
<path d="M267.99 168.992C268.362 169.148 268.362 169.33 268.354 169.78C264.267 170.816 260.188 171.579 256.114 172.342C259.751 170.357 263.461 168.814 267.99 168.992Z" fill="#262626"/>
<path d="M440.568 312.185C440.868 312.051 441.197 312.168 441.487 312.567C441.162 312.71 440.881 312.571 440.568 312.185Z" fill="#C2A896"/>
<path d="M200.343 46.6969C198.293 45.8908 197.929 44.6729 199.498 43.5807C200.339 42.9956 202.055 42.9219 202.601 43.8928C203.568 45.6091 202.181 46.3372 200.343 46.6969Z" fill="#09093E"/>
<path d="M158.94 224.901C141.474 218.595 130.989 205.48 124.623 188.538C123.778 186.293 123.006 184.022 122.126 181.456C129.316 177.838 137.035 175.887 144.616 173.512C146.406 172.949 147.572 173.989 148.672 175.198C154.142 181.222 159.616 187.238 165.112 193.232C166.243 194.463 166.715 195.573 166.2 197.415C163.681 206.425 161.384 215.501 158.94 224.901Z" fill="#5F6B00"/>
</svg>
