<svg width="1076" height="1020" viewBox="0 0 1076 1020" fill="none" xmlns="http://www.w3.org/2000/svg">
<path d="M884.23 641.66C941.83 641.13 998.8 641.29 1055.78 640.97C1063.94 640.92 1070.84 643.5 1073.89 650.11C1077.12 657.13 1074.8 664.37 1069.1 670.89C1032.35 712.97 1003.85 760.31 983.43 812.18C971.96 841.33 963.8 871.78 952.79 901.13C933.76 951.86 902.13 991 849.35 1010.25C831.25 1016.85 812.77 1019.1 793.85 1019.1C678.32 1019.08 562.79 1018.94 446.37 1018.71C400.26 1017.62 368.85 992.6 342.95 958.83C320.9 930.08 311.05 896.03 302.62 861.47C288.44 803.3 269.61 746.71 243.45 692.77C233.04 671.3 217.3 654.94 194.05 646.94C191.18 645.95 187.76 645.36 187.29 640.96C189.07 639.43 190.58 638.85 192.16 638.82C219.68 638.26 247.2 638.53 272.28 638.64C232.48 621.23 206.68 588.89 196.31 544.85C188.97 513.68 187.95 481.62 188.28 449.59C188.46 432.05 184.99 414.96 179.41 398.36C174.25 383.03 164.76 370.48 153.46 359.09C149.18 354.78 145.11 349.67 150.72 343.41C155.45 338.13 161.21 338.48 168.18 344.63C184.29 358.83 195.1 376.55 201.16 396.97C206.76 415.86 208.73 435.26 209.13 455.06C209.67 482.19 210.06 509.55 216 536.17C229.47 596.48 273.99 627.87 333.19 630.86C341.09 631.26 349.02 630.99 356.93 630.9C363.38 630.82 369.27 631.62 374.74 635.86C381.01 640.72 388.83 637.87 396.73 638.52C407.87 637.23 413.86 642.57 418.4 651.31C430.55 674.69 440.2 699.09 447.96 724.18C457.12 753.78 465.87 783.52 473.48 813.55C476.54 825.64 482.05 834.44 495.17 838.19C498.51 845.75 494.52 852.18 493.4 858.71C491.75 868.39 491.02 878.55 485.11 887.86C476 890.95 470.04 896.46 465.21 903.98C460.61 911.14 454.83 917.52 449.48 924.18C442.95 932.3 444.51 939.21 453.55 944.57C457.95 947.18 462.74 948.98 467.78 949.66C483.13 951.72 498.5 954.73 513.99 953.88C540.01 952.45 564.68 960.07 589.9 963.95C597.48 965.12 604.95 966.41 612.42 964.07C620.76 961.47 622.56 957.33 618.19 949.81C612.58 940.13 604.55 932.4 596.34 924.95C587.19 916.66 577.38 909.21 566.38 902.11C561.04 893.7 561.07 885.73 564.14 877.15C567.63 867.4 568.72 856.96 572.17 846.4C579.18 842.2 586.29 843.85 593.14 843.75C614.86 843.42 628.24 832.05 631.26 810.79C637.75 765.11 646.11 719.75 654.36 674.37C654.64 672.81 655.17 671.32 656.35 669.28C661.23 665.29 663.71 669.19 666.36 671.49C677.01 680.74 684.64 692.4 691.78 704.38C700.86 719.61 708.95 735.38 716.95 751.18C725.02 767.12 733.45 782.56 751.28 790.92C753.28 806.33 752.94 821.04 751.6 836.53C733.87 845.36 730.79 865.06 718.89 877.74C713.37 883.62 715.88 890.33 723.98 893.41C740.11 899.53 757.11 902.44 774.2 900.39C800.94 897.2 827.7 896.72 854.54 897.03C861.24 897.11 867.79 896.23 874.22 894.54C885.81 891.48 887.64 885.79 879.35 877.36C866.62 864.4 851.58 854.54 835.49 846.24C832.69 844.8 829.7 843.69 826.69 841.06C822.16 834.85 820.74 828.75 822.13 821.87C823.81 813.57 822.13 805.04 823.75 795.9C825.89 791.07 829.91 790.75 833.49 789.7C864.61 780.54 881.55 758.11 881.8 725.36C881.97 701.97 881.8 678.58 881.86 655.2C881.88 650.8 881.31 646.29 884.23 641.66Z" fill="#181E48"/>
<path d="M884.73 640.24C884.71 669.29 884.58 697.47 884.44 725.64C884.27 759.01 867.89 781.69 836.29 792.03C833.06 793.09 829.5 793.12 825.42 794.01C823.14 797.36 820.15 797.79 817.37 797.7C798.46 797.1 779.44 797.49 760.2 792.18C739.65 781.32 733.37 762.86 730.36 742.44C726.22 714.41 718.16 687.53 706.49 661.73C699.89 647.14 681.89 640.19 667.1 646.31C663.34 647.87 663.23 650.92 663 654.07C662.68 658.46 663.08 663 659.4 667.19C655.55 683.96 652 700.22 649.1 716.6C645.48 737.01 642.36 757.51 639.06 777.98C637.26 789.16 634.55 800.32 634.01 811.57C633.1 830.54 613.63 848.23 596.6 846.56C589.39 845.85 582.06 846.36 573.9 846.42C562.79 848.7 553.24 844.9 542.7 842.92C518.92 834.89 507.48 818.82 505.54 794.61C502.43 755.86 496.61 717.35 493.13 678.66C490.58 650.39 486.41 621.98 488.7 593.44C490.1 576.05 480.96 565.59 467.61 557.21C455.72 549.75 442.17 545.93 429.63 539.91C418.53 534.59 406.96 530.05 396.85 521.46C395.17 514.39 400.7 515.05 404.09 513.86C415.63 509.84 427.88 507.97 438.92 502.46C452.3 495.79 464.37 487.47 472.78 474.7C474.17 472.59 475.96 470.8 478.99 469.48C495.38 473.35 511.41 476.17 525.9 484.46C542.23 493.81 559.4 501.65 575.84 510.23C579.11 508.53 577.98 505.4 579.65 502.76C585.47 498.91 589.56 502.77 593.99 504.83C627.81 520.55 646.04 549.11 658.32 583.4C659.44 592.38 661.84 600.31 664.15 608.16C669.61 609.21 673.44 605.4 678.75 605.1C684.7 605.54 687.29 610.06 691.07 612.78C701.78 620.48 707.69 617.91 709.19 604.78C709.48 602.26 709.54 599.72 711.12 596.78C722.08 587.27 725.26 574.94 725.87 562.18C727.22 533.98 726.88 505.84 715.69 479.1C714.48 476.2 713.78 473.05 715.04 469.17C732.45 462.96 749.72 458.23 766.27 451.65C803.71 436.79 827.32 450.49 847.9 481.07C865.89 507.79 874.33 538.42 878.69 569.91C881.84 592.9 882.71 616.2 884.73 640.24Z" fill="#E4B021"/>
<path d="M398.89 640.37C392.43 641.03 386.42 641.21 380.4 641.09C378.29 641.05 375.01 640.96 374.3 639.72C369.81 631.92 362.51 633.38 355.72 633.62C330.3 634.51 305.35 632.54 281.65 622.26C250.04 608.54 229.38 584.82 217.7 552.74C209.81 531.07 209.93 508.33 207.9 485.8C205.25 456.42 208.21 426.48 198.77 397.72C191.83 376.55 180.8 358.23 163.51 344.19C161.3 342.4 155.89 344.55 151.96 344.87C152.43 348.42 151.76 352.75 153.57 355.37C160.87 365.9 169.89 375.32 176.49 386.22C187.34 404.16 189.6 424.76 190.9 445.2C192.63 472.58 191.39 500.33 195.35 527.35C202.83 578.45 228.4 617.68 277.97 638.21C278.79 638.55 279.47 639.25 282.25 641.23C249.78 641.23 219.41 641.23 188.14 641.25C182.02 644.88 176.79 644.57 171.21 640.44C145.92 633.27 123.73 622.74 109.73 599.62C99.81 583.24 95.89 565.25 101.77 547.28C110.37 521.04 121.02 495.44 131.38 469.81C144.8 436.61 135.99 414.39 103.27 399.96C85.03 391.91 66.47 384.45 53.75 367.62C29.32 335.28 49.35 293.2 82.76 281.89C103 275.03 122.88 278.3 142.38 283.03C178.86 291.88 213.7 305.21 245.58 325.63C277.78 346.25 302.79 372.93 311.15 410.96C314.99 428.43 313.41 447.2 313.42 465.38C313.43 481.69 309.21 498.42 316.35 513.95C319.85 521.55 325.2 529.11 331.61 534.37C342.38 543.2 354.68 550.16 366.94 558.24C371.75 559.15 371.64 562.82 372.52 565.67C378.48 584.97 386.07 603.54 396.5 620.91C400.03 626.74 401.92 632.95 398.89 640.37Z" fill="#316158"/>
<path d="M170.14 640.15C175.78 640.19 180.71 640.72 186.45 641.24C196.49 645.77 206.24 649.47 214.83 654.99C236.32 668.81 246.71 690.9 255.6 713.6C266.66 741.85 277.95 770.06 287.45 798.84C295.78 824.08 302.12 849.99 308.76 875.76C323.42 932.66 349.45 981.33 405.57 1007.31C417.53 1012.85 431.37 1014.33 444.91 1018.13C384.44 1018.69 323.38 1019.3 262.35 1018.52C250.59 1018.37 237.9 1014.73 227.36 1009.34C202.23 996.47 185.84 975.14 179.87 947.57C174.64 923.36 171.86 898.62 168.18 874.09C157.59 803.68 127.55 745.14 65.65 706.12C46.95 694.33 28.11 682.73 8.96998 671.66C0.339984 666.67 -1.08002 659.24 1.39998 651.5C3.74998 644.18 10.44 641.08 18.55 641.1C65.38 641.23 112.2 641.17 159.03 641.13C162.49 641.12 165.96 640.8 170.14 640.15Z" fill="#4157BB"/>
<path d="M581.2 501.89C580.58 506.71 580.38 510.98 580.15 515.85C547.47 498.58 516.56 479.58 480.32 470.79C480.43 465.03 478.86 460.85 474.47 456.7C462.16 445.1 453.46 430.88 446.75 415.37C433.89 385.66 425.58 354.69 421.05 322.7C419.73 313.36 421.37 303.86 420.42 293.8C421.4 276.71 423.01 260.48 430.27 244.66C433.24 238.65 435.91 233.38 441.11 229.79C455.16 220.07 467.25 220.73 480.38 232.83C493.15 244.6 501.05 259.72 507.91 275.36C510.18 280.54 512.5 285.71 514.86 291.63C515.31 292.71 515.47 293.15 515.82 294.26C516.59 298.05 517.4 301.09 519.39 304.43C525.04 317.89 529.54 331.07 535 344.6C535.67 348.83 537.52 351.72 540.09 354.99C545.94 366.01 550.72 376.89 558.35 386.89C560.51 390.38 562.2 393.39 565.07 396.39C577.28 410.85 591.41 421.89 607.38 430.63C609.6 431.85 611.79 433.1 613.86 434.59C618.09 437.63 619 440.86 614.59 444.51C610.88 447.58 608.44 451.71 604.97 455.88C595.38 466.32 589.44 477.95 585.85 490.9C584.82 494.52 583.98 498.26 581.2 501.89Z" fill="#181E49"/>
<path d="M399.22 641.02C400.76 628.58 391.88 620.08 387.76 609.89C381.03 593.25 374.75 576.43 367.92 559.13C366.98 553.78 366.4 549 365.81 543.43C371.39 529.05 381.75 521.35 396.5 518.74C415.25 528.12 433.41 537.07 451.53 546.11C458.52 549.6 465.9 552.6 472.26 557.03C484.18 565.32 491.42 575.35 491.77 591.8C492.51 627.35 495.62 662.89 498.74 698.35C501.83 733.46 506.03 768.47 509.93 803.5C512.12 823.13 524.52 833.88 542.74 840.2C540.13 843.72 536.29 843.58 532.58 843.61C520.43 843.71 508.4 842.46 495.72 839.6C482.4 837.5 475.76 831.85 472.43 820.33C460.94 780.6 450.11 740.66 437.48 701.29C431.73 683.37 422.33 666.63 414.65 649.32C411.79 642.88 407.25 639.62 399.22 641.02Z" fill="#E9E3DD"/>
<path d="M577.98 216C603.49 235.07 625.18 257.59 644.79 282.4C677.23 323.44 700.56 369.18 717.67 418.32C721.6 429.6 724.76 441.15 727.55 452.71C721.67 452.81 716.96 455.37 711.14 455.47C694.55 458.22 680.81 464.95 669.71 477.81C664.66 483.68 663.9 490.97 660.51 497.27C652.12 495.2 648.57 488.47 644.69 482.72C640.97 477.21 637.24 474.42 630.08 477.66C623.21 476.47 619.92 472.25 617.89 465.97C618.9 454.86 617.96 444.53 615.66 434.6C612.52 421.02 611.19 407.18 609 393.5C600.3 339 593.91 284.07 575.86 231.47C574.16 226.53 572.55 221.04 577.98 216Z" fill="#181E48"/>
<path d="M577.95 215.42C579.55 224.91 578.67 234.9 581.68 243.53C593.06 276.16 599.07 309.79 603.5 343.89C606.04 363.45 609.93 382.84 613.09 402.32C616.2 421.5 619.24 440.69 622.05 459.92C622.27 461.47 620.38 463.32 618.79 465.11C611.15 465.57 607.25 461.09 603.55 455.44C607.79 449.53 612.12 444.3 616.77 438.68C597.4 427.62 578.03 416.41 563.49 397.9C564.47 392.86 568.98 393.75 572.31 392.62C581.28 389.57 591.15 388.66 598.28 380.86C585.01 383.16 572.48 388.99 558.23 388.89C551.35 378.23 545.09 367.83 538.84 356.74C541.53 352.1 545.77 352.12 549.84 351.77C555.48 351.28 561.01 350.47 566.91 346.01C560.82 343.82 556.28 346.15 551.73 346.95C545.91 347.98 540.16 350.56 533.76 347C528.28 333.17 523.27 319.8 518.16 305.75C521.55 301.21 526.25 302.28 530.53 302.27C545.69 302.23 559.82 297.75 573.82 292.65C576.29 291.75 579.33 290.91 579.8 286.06C558.57 293.53 537.73 300.73 514.64 296.12C514.02 295.31 514.03 294.9 513.94 293.89C507.65 279.54 508.05 264.43 505.06 250.03C502.37 237.04 499.2 224.29 494.54 211.89C493.76 209.8 493.25 207.67 494.52 204.8C498.13 202.32 501.26 200.49 504.99 198.51C508.88 198.91 508.66 201.98 509.49 204.14C513.6 214.85 521.77 220.21 532.76 220.26C542.78 220.31 549.95 214.91 553.91 204.71C554.67 203.25 555.31 202.58 556.78 201.92C560.27 211.91 569.68 212.26 577.95 215.42Z" fill="#E6E0DC"/>
<path d="M397.56 518.7C384.06 522.74 375.14 531.89 366.31 542.23C359.56 543.22 357.08 540.59 358.61 534.35C365.67 505.53 371.73 476.42 379.98 447.95C389.32 415.7 401.66 384.3 410.63 351.96C415.78 333.36 416.83 313.62 420.2 293.76C425.19 319.75 427.97 346.82 434.65 372.89C443.33 406.71 455.67 439.43 484.86 462.98C483.21 465.11 481.58 467.22 479.79 469.97C466.91 488.01 451.25 501.69 430.48 508.57C419.76 512.12 408.83 515.06 397.56 518.7Z" fill="#4157BB"/>
<path d="M506.85 163.44C496.57 165.46 490.17 162.12 486.85 152.25C485.87 149.34 481.98 146.69 478.81 145.38C469.07 141.34 463.58 135.14 464.56 123.98C465.46 113.64 458.61 103.35 464.52 92.8298C466.44 89.3997 467.19 85.3097 468.7 80.7797C469.74 71.4897 475.81 65.9897 481.04 60.2497C489.82 50.6097 499.51 41.9897 513.41 38.6997C524.04 34.5797 534.21 30.9597 543.86 26.2797C552.87 21.9097 560.53 22.6797 568.26 28.8997C570.18 30.4397 574.07 31.5697 576.04 30.6697C592.94 22.8897 596.99 28.7898 601.84 39.7098C613.21 37.7398 619.47 45.4697 618 59.0097C616.01 77.2997 609.93 93.1897 592.85 103.59C585.39 102.01 585.86 93.7797 580.87 90.7797C578.72 90.5697 577.46 91.6397 576.76 93.0498C572.36 101.97 565.53 107.18 555.39 108.11C549.44 108.66 547.24 113.57 545.41 118.39C543.53 123.36 540.63 127.27 535.5 129.18C527.81 132.05 521.84 129.22 519.33 121.41C518.75 119.61 518.46 117.71 517.48 116.06C514.13 110.37 507.13 108.28 501.94 111.39C496.82 114.46 495.26 124.05 500.77 128.96C512.01 139 509.52 150.81 506.85 163.44Z" fill="#1A204A"/>
<path d="M506.38 164.81C506.36 158.52 506.21 153.13 506.51 147.76C506.87 141.27 506.43 136.21 499.57 132.06C492.91 128.04 492.8 119.29 496.05 113.28C497.92 109.84 505.57 106.78 509.41 107.85C514.13 109.17 519.41 114.34 521.08 119.04C522.73 123.68 523.88 128.4 528.69 127.72C533.38 127.05 540.58 124.11 541.52 120.73C544.61 109.62 550.93 104.84 561.95 103.62C565.34 103.25 568.86 99.7097 571.37 96.7897C574.37 93.3097 576.35 88.9397 579.69 83.4697C584.12 90.4997 587.88 96.4697 591.9 103.06C598.7 122.88 600.67 142.01 592.4 161.34C584.94 178.77 578.09 182.01 558.6 176.04C551.85 179.71 546.44 175.34 540.76 174.58C535.46 173.87 530.59 171.53 524.77 170.07C523.37 169.38 522.66 168.87 521.57 167.87C520.09 167.87 521.01 165.46 520.1 166.64C521.12 167.49 521.66 168.06 522.63 169.08C530 181.21 541.44 188.58 550.56 198.17C552.28 199.98 554.71 201.15 555.75 204.39C554.11 217.76 540.81 223.54 531.18 222.92C517.41 222.03 508.29 213.45 505.87 199.04C505.86 187.48 506.15 176.6 506.38 164.81Z" fill="#A95138"/>
<path d="M468.81 78.13C457.94 80.6 447.54 84 437.1 84.1C422.34 84.24 413.87 76.4299 421.51 59.4199C408.61 53.2999 407.58 47.9899 417.97 37.9099C424.75 31.3299 432.32 26.2499 430.97 14.3699C430.13 6.97994 439.71 1.81994 448.46 3.21994C457.15 4.60994 465.34 6.07995 474.01 1.34995C477.23 -0.410051 483.9 1.64994 487.73 4.00994C498.53 10.6799 506.39 20.0299 508.49 33.8899C507.98 35.4399 507.37 36.2699 506.46 36.4999C484.93 41.9399 472.88 55.9399 468.81 78.13Z" fill="#1A204A"/>
<path d="M667.56 477.99C676.75 470.58 685.47 463.45 694.81 457.26C698.52 454.8 703.63 454.45 708.83 453.13C712.83 455.65 714.45 458.91 713.82 463.78C713.88 465.62 714.14 466.78 714.95 468.24C727.2 498.9 731.46 530.41 728.61 562.7C727.46 575.68 725.64 589.13 712.82 597.91C706.42 593.75 707.85 586.74 706.21 580.9C700.41 560.26 691.39 541.5 676.04 526.17C674.7 524.83 673.65 523.25 672.82 520.75C673.14 513.45 672.61 506.66 675.67 500.5C678.66 494.47 677.53 489.65 672.32 485.43C670.13 483.65 667.99 481.63 667.56 477.99Z" fill="#A94F36"/>
<path d="M494.42 203.74C497.62 212.75 500.95 221.19 502.74 229.95C506.91 250.47 510.34 271.15 513.95 292.53C506.26 278.6 498.71 263.89 491.08 249.22C490.21 247.56 488.88 246.14 487.8 244.58C470.31 219.43 449.65 219 431.12 243.73C433.14 225.82 450.85 206.35 468.52 202.23C473.09 201.17 477.6 199.87 482.18 198.85C486.98 197.79 491.49 197.82 494.42 203.74Z" fill="#4157BB"/>
<path d="M556.26 204.48C544.48 193.26 532.95 181.5 521.34 169.07C521.26 168.4 521.42 167.55 521.85 167.49C533.63 170.18 544.99 172.95 557.12 175.85C557.65 184.04 557.41 192.09 557.32 200.99C557.15 202.53 556.83 203.24 556.26 204.48Z" fill="#1A204A"/>
<path d="M468.43 79.05C468.72 55.51 485.8 36.12 507.7 34.77C510.19 35.59 511.91 36.56 513.85 38.09C495.64 48.22 479.66 60.44 469.42 79.73C468.93 80.04 468.5 79.42 468.43 79.05Z" fill="#D8A525"/>
<path d="M714.2 464.23C712.35 461.13 711.1 457.78 709.7 453.79C714.97 452.71 720.39 452.29 726.31 452.37C722.82 456.57 718.81 460.28 714.2 464.23Z" fill="#1A204A"/>
<path d="M566.8 900.78C589.01 912.49 606.18 928.76 620.32 948.18C626.76 957.02 624.38 963.6 613.74 966.42C607.52 968.07 600.28 968.79 594.13 967.31C558.32 958.74 521.93 956.28 485.34 954.38C473.75 953.78 461.86 950.23 451.05 945.76C440.99 941.61 439.58 933.75 445.76 925.02C453.53 914.04 461.73 903.3 470.49 893.11C472.95 890.25 478.06 889.67 482.7 888C485.39 886.64 487.55 886.27 489.78 886.87C511.53 892.73 533.58 896.58 556.13 897.53C559.55 897.68 563.04 898.48 566.8 900.78Z" fill="#F23E2C"/>
<path d="M826.89 840.17C848.97 848.32 866.86 861.39 882.84 877.02C892.03 886.01 889.75 893.2 877.11 896.25C869.5 898.09 861.56 898.96 853.73 899.37C827.84 900.74 801.92 902.86 776.05 902.43C758.02 902.13 739.83 899.15 722.14 895.4C711.67 893.18 710.54 884.13 717.06 875.11C723.26 866.52 728.92 857.52 734.45 848.48C737.64 843.27 740.45 838.07 748.39 838.23C751.65 836.73 754.43 835.64 757.27 836.23C780.04 840.9 803.13 839.26 826.89 840.17Z" fill="#F23E2C"/>
<path d="M659.36 667.94C659.29 664.26 660.01 660.86 660.23 657.44C661.13 643.72 661.07 643.71 675.21 643.68C702.7 643.61 704.95 644.17 713.15 670.5C721.96 698.8 729.3 727.62 735.96 756.51C739.25 770.8 746.81 780.58 758.92 788.51C756.82 791.78 754.02 791.75 750.25 790.25C733.5 787.87 727.64 774.8 720.96 763.14C707.88 740.33 695.99 716.81 682.35 694.34C676.47 684.66 667.49 676.86 659.36 667.94Z" fill="#E9E3DD"/>
<path d="M567.41 900.52C539.53 899.72 511.78 896.84 484.2 888.08C487.28 872.16 491.12 856.36 494.96 839.82C510.4 839.69 525.83 840.29 542.19 840.85C552.6 842.59 562.07 844.37 572.28 846.34C571.34 855.99 570.66 865.77 567.71 874.81C564.89 883.44 562.93 891.39 567.41 900.52Z" fill="#994437"/>
<path d="M749.48 790.67C752.14 789.66 754.82 789.51 758.29 789.25C764.18 790.44 769.22 792.6 774.37 792.9C790.6 793.83 806.87 794.07 823.94 794.49C825 802.83 825.04 811.27 825.55 819.68C825.94 826.19 826.9 832.66 827.63 839.89C806.4 840.43 785.14 840.31 763.89 839.98C759.53 839.91 755.18 839.05 749.96 838.37C749.23 822.62 749.36 807.07 749.48 790.67Z" fill="#994437"/>
<path d="M673.53 519.2C695.58 540.82 707.27 566.89 712.03 597.34C712.13 600.35 712.57 602.71 711.88 604.67C710.13 609.63 709.05 616.9 705.51 618.57C701.79 620.31 695.22 617.26 690.45 615.08C686.68 613.36 683.75 609.78 679.81 606.83C669.99 601.58 664.43 592.8 656.93 585.08C648.76 569.64 642.25 553.88 633.17 539.76C621.2 521.16 602 511.05 581.49 502.44C583.7 484.81 589.9 468.69 602.89 455.08C608.05 458.04 612.64 461.33 617.66 464.9C621.65 468.77 625.2 472.34 629.42 476.04C646.43 488.33 660.12 503.24 673.53 519.2Z" fill="#994435"/>
<path d="M544.44 690.56C546.37 660.56 548.29 631.43 550.22 602.29C550.34 600.41 550 598.12 550.95 596.78C552.25 594.96 554.58 593.87 556.46 592.46C557.53 594.2 559.56 595.97 559.51 597.68C559.29 604.88 558.3 612.05 557.86 619.25C556.48 641.82 555.43 664.42 553.82 686.97C553.11 696.96 551.51 706.89 549.91 716.79C549.67 718.27 547.25 719.4 545.84 720.69C544.75 719.07 542.69 717.41 542.74 715.83C543 707.69 543.81 699.56 544.44 690.56Z" fill="#EE7B31"/>
<path d="M778.39 593.16C774.67 583.13 770.8 573.91 767.74 564.44C767 562.15 768.99 558.99 769.73 556.23C771.77 557.66 774.9 558.65 775.69 560.59C787.03 588.36 798.17 616.23 808.98 644.22C809.98 646.81 808.39 650.39 808.01 653.51C805.58 651.25 802.12 649.44 800.88 646.65C793.15 629.18 785.92 611.49 778.39 593.16Z" fill="#EE7B31"/>
<path d="M840.78 566.93C840.41 570.45 839.73 573.29 839.06 576.13C836.69 573.98 833.27 572.27 832.13 569.59C828.09 560.13 825.35 550.1 821.14 540.72C815.88 529 809.4 517.83 804.03 506.15C802.6 503.05 803.3 498.97 803.03 495.34C806.04 497.5 810.48 499 811.84 501.93C821.74 523.21 831.02 544.78 840.78 566.93Z" fill="#EE7B31"/>
<path d="M618.62 736.63C617.14 745.43 616.02 753.5 613.99 761.33C613.51 763.19 610 764.26 607.89 765.7C607.3 763.51 605.89 761.18 606.24 759.16C609.02 743.14 612.11 727.16 615.17 711.19C615.52 709.35 615.83 707.15 616.99 705.9C618.46 704.32 620.79 703.54 622.75 702.42C623.68 704.49 625.71 706.78 625.34 708.59C623.46 717.73 620.94 726.75 618.62 736.63Z" fill="#EE7B31"/>
<path d="M853 632.85C852.58 630.15 851.98 628.15 852.41 626.41C853.07 623.72 854.43 621.21 855.5 618.62C857.57 621.23 861.34 623.78 861.45 626.47C862.04 641.27 861.96 656.12 861.55 670.93C861.47 673.69 858.83 676.38 857.38 679.1C856.01 678.87 854.65 678.64 853.28 678.41C853.27 663.49 853.27 648.58 853 632.85Z" fill="#EE7B31"/>
<path d="M610.44 604.85C613.48 608.64 618.09 612.86 618.08 617.08C618.05 627.69 616.2 638.33 614.43 648.85C614.11 650.76 610.68 652.14 608.69 653.77C607.69 652.04 605.78 650.28 605.85 648.6C606.4 634.89 607.3 621.19 608.21 607.49C608.24 606.73 609.31 606.02 610.44 604.85Z" fill="#EE7B31"/>
<path d="M827.55 726.26C826.88 731.79 826.61 736.55 825.34 741.02C824.89 742.61 822.02 743.52 820.26 744.75C819.34 742.83 817.61 740.9 817.63 738.98C817.7 728.72 817.99 718.45 818.74 708.22C818.9 706.1 821.38 704.15 822.78 702.11C824.37 703.88 827.15 705.53 827.34 707.44C827.94 713.37 827.56 719.39 827.55 726.26Z" fill="#EE7B31"/>
<path d="M656.45 585.41C661.11 588.59 665.96 592.37 670.49 596.5C673.49 599.23 676.03 602.46 678.98 606.04C673.48 608.77 667.79 610.93 661.77 613.2C659.89 603.56 658.2 594.86 656.45 585.41Z" fill="#E6E0DC"/>
<path d="M514.03 296.39C537.91 296.23 560.92 292.11 582.61 281.26C586.21 288.3 583.47 291.14 578.03 293.6C559.48 301.98 540.13 305.86 518.93 304.99C516.72 302.4 515.38 299.72 514.03 296.39Z" fill="#0F0C89"/>
<path d="M557.73 389.24C570.12 384.82 582.57 380.77 595.19 377.39C597.5 376.77 600.54 378.88 603.24 379.73C601.77 381.82 600.71 385.12 598.76 385.79C587.27 389.69 575.58 392.97 563.44 396.99C561.24 394.96 559.54 392.4 557.73 389.24Z" fill="#0F0C89"/>
<path d="M533.28 347.18C543.39 344.97 553.48 343.22 563.63 341.99C565.91 341.71 568.41 343.26 570.8 343.96C569.15 346.15 567.88 349.7 565.79 350.28C557.44 352.58 548.84 353.95 539.59 355.85C536.99 353.31 535.14 350.57 533.28 347.18Z" fill="#0F0C89"/>
<path d="M674.16 519.28C659.18 505.69 644.72 491.53 630.17 476.76C632.91 474.84 635.74 473.53 639 472.02C645.48 480.07 652.04 488.22 658.59 496.35C661.47 489.71 664.02 483.84 667.18 477.65C668.61 478.26 669.28 479.36 670.25 480.07C679.24 486.63 683.29 493.96 676.61 504.97C674.41 508.6 675.24 514.07 674.16 519.28Z" fill="#D8A525"/>
<path d="M519.91 166.53C520.6 166.09 521.17 166.36 522.01 167.02C522.28 167.42 521.77 167.91 521.52 168.15C520.77 168.01 520.28 167.62 519.91 166.53Z" fill="#1A204A"/>
<path d="M519.67 166.18C519.34 165.89 519.14 165.49 518.94 165.09C519.2 165.13 519.47 165.16 519.88 165.51C520.03 165.82 519.79 166.07 519.67 166.18Z" fill="#1A204A"/>
<ellipse cx="568.267" cy="113.244" rx="4.15311" ry="4.84529" transform="rotate(15.0232 568.267 113.244)" fill="#1A204A"/>
<ellipse cx="584.762" cy="112.756" rx="4.15311" ry="4.84529" transform="rotate(15.0232 584.762 112.756)" fill="#1A204A"/>
<path d="M585.791 136.296C585.058 138.48 583.36 140.211 581.359 139.827C579.359 139.444 578.101 137.241 578.548 134.908C578.995 132.574 584.57 130.483 586.57 130.867C588.57 131.25 586.524 134.113 585.791 136.296Z" fill="#1A204A"/>
</svg>
