<svg width="1280" height="1280" viewBox="0 0 1280 1280" fill="none" xmlns="http://www.w3.org/2000/svg">
<path d="M545.34 1012.12C402.44 1012.12 260.67 1012.1 118.91 1012.13C105.38 1012.13 92.22 1011.18 83.12 999.27C76.27 990.32 76.08 979.65 76.08 969C76.09 729.94 76.08 490.88 76.07 251.82C76.07 223.7 75.94 195.57 76.11 167.45C76.27 141.13 89.7 127.88 115.81 127.88C451.4 127.88 787 128.06 1122.59 127.44C1143.08 127.4 1161.71 144.25 1161.65 166.94C1161.01 436.02 1161.23 705.11 1161.23 974.19C1161.23 997.19 1149.74 1009.83 1126.82 1011.87C1122.67 1012.24 1118.46 1012.07 1114.29 1012.07C925.02 1012.1 735.75 1012.11 545.34 1012.12Z" fill="#5C7A7D"/>
<path d="M499.49 1158.83C505.1 1144.14 506.85 1129.15 510.66 1114.78C512.46 1107.99 516.76 1101.63 516.25 1093.42C522.71 1088.48 529.66 1089.09 536.47 1089.09C601.86 1089.06 667.24 1089.06 732.63 1089.1C741 1089.1 749.35 1088.94 758.8 1088.08C768.2 1104.2 771.98 1121.98 777.97 1138.97C779.81 1144.2 781.06 1149.65 782.55 1155.92C779.43 1164.52 772.54 1162.22 767 1162.23C701.76 1162.4 636.51 1162.34 571.27 1162.34C551.92 1162.34 532.58 1162.36 513.24 1162.32C508.71 1162.31 504.07 1162.73 499.49 1158.83Z" fill="#485F61"/>
<path d="M759.85 1087.13C758.77 1095.25 753.03 1092.61 749.09 1092.61C672.38 1092.73 595.67 1092.67 517.8 1092.68C519.39 1081.84 522.42 1071.03 524.77 1060.08C526.31 1052.94 531.37 1054.16 536.17 1054.16C588.81 1054.16 641.45 1054.17 694.1 1054.19C709.63 1054.19 725.16 1054.36 740.68 1054.14C746.47 1054.06 750.29 1054.42 751.6 1061.83C753.09 1070.19 756.95 1078.12 759.85 1087.13Z" fill="#111F22"/>
<path d="M497.88 1157.81C511.02 1158.06 523.14 1158.47 535.26 1158.48C613.79 1158.53 692.33 1158.51 770.86 1158.48C774.26 1158.48 777.65 1158.14 781.79 1157.4C796.93 1157.13 811.33 1157.67 825.74 1157.69C883.1 1157.75 940.45 1157.65 997.81 1157.62C1000.47 1157.62 1003.15 1157.44 1005.78 1157.71C1009.23 1158.07 1014.87 1156.45 1014.55 1161.9C1014.26 1166.74 1008.86 1165.72 1005.21 1165.72C932.66 1165.76 860.11 1165.77 787.56 1165.77C620.05 1165.76 452.54 1165.75 285.03 1165.74C283.89 1165.74 282.74 1165.86 281.62 1165.72C278.52 1165.33 273.69 1167.36 273.29 1162.43C272.83 1156.77 277.81 1157.58 281.52 1157.57C309.25 1157.56 336.98 1157.57 364.7 1157.6C408.75 1157.64 452.81 1157.72 497.88 1157.81Z" fill="#050E3D"/>
<path d="M1078.53 927.94C1073.74 937.83 1064.92 937.47 1056.23 937.47C934.24 937.46 812.25 937.46 690.26 937.46C543.57 937.46 396.88 937.48 250.19 937.47C246.41 937.47 242.62 937.19 238.27 936.29C239.18 932.46 242.08 931.56 245.03 930.74C288.09 918.79 316.19 891.29 331.36 849.4C342.48 818.68 357.44 789.77 377.41 762.73C378.11 761.59 378.38 761.13 379.1 760.01C379.87 758.93 380.19 758.52 381.55 756.92C382.95 755.36 383.31 754.99 384.22 754.05C386.25 752 387.78 750.56 389.68 748.34C399.82 736.46 410.84 726.44 419.99 714.82C425.46 707.88 433 700.57 428.58 690.46C424.17 680.37 414.57 677.48 404.37 675.93C351.74 667.92 313.15 690.5 283.46 731.74C253.65 773.16 235.56 820.34 218.12 867.75C214.85 876.64 210.99 885.32 208.42 895.32C204.37 907.51 194.2 914.23 187.6 923.64C184.79 927.65 181.61 931.22 180.65 936.98C160.09 937.35 153.65 931.06 153.44 911.23C153.31 898.7 153.38 886.16 153.15 872.58C151.16 864.46 156.88 861.27 160.71 857.55C187.21 831.84 210.6 803.55 231.56 773.21C250.83 745.3 266.11 715.29 277.87 683.5C281.73 673.07 280.43 670.71 269.18 669.71C257.48 668.67 245.7 668.43 234.01 670.2C229.13 670.94 224.27 672.05 218.85 669.07C214.96 661.88 218.44 656.51 221.84 650.26C233.86 635.4 245.66 621.73 261.57 612.07C270.47 606.67 279.83 602.84 289.69 600.18C295.24 598.68 297.82 595.82 298.65 590.15C303.18 559.43 305.91 528.76 303.43 497.55C301.84 477.5 301.15 457.47 294.9 438.21C287.2 414.48 278.24 412.68 261.51 431.25C260.49 432.38 259.57 433.58 258.14 435.48C257.29 436.64 256.95 437.1 256.09 438.25C254.9 439.85 254.25 440.78 253.16 442.44C252.39 443.64 252.08 444.12 251.25 445.29C221.28 487.63 201.14 533.71 185.59 582.05C176.29 610.97 168.14 640.16 162.23 669.97C161.78 672.23 161.03 674.36 159.16 676.96C157.58 678.38 156.46 678.68 154.48 678.03C153.61 656.63 153.36 635.73 153.36 614.83C153.4 498.9 153.51 382.97 153.77 265.99C156.99 259.32 162.11 257.33 168.1 256.82C173.41 256.37 178.73 256.49 184.05 256.49C437.16 256.48 690.27 256.48 943.39 256.5C949.84 256.5 956.32 256.11 963.71 257.62C970.11 261.34 969.25 264.46 963.93 266.69C959.65 268.49 954.95 267.86 950.41 267.94C932.22 268.25 914 267.05 895.88 270.02C889.31 271.1 888.06 273.4 891.62 278.86C897.84 288.39 904.42 297.7 910.44 307.36C914.03 313.12 918.14 318.81 916.48 327.12C915.06 329.65 913.38 330.45 911.61 331.21C897.21 337.37 891.5 344.95 893.45 359.93C896.34 382.11 895.69 404.41 898.65 426.71C907.65 494.3 927.35 557.4 965.4 614.57C996.94 661.96 1031.17 707.35 1065.11 752.97C1071.59 761.69 1079.95 769.34 1082.99 781.31C1083.29 800.36 1083.14 818.66 1082.15 837.56C1073.06 834.86 1071.16 826.38 1066.87 820.01C1027.86 762.05 995.31 700.09 956.82 641.79C934.35 607.76 908.38 576.63 878.66 548.69C870.33 540.86 864.03 542.16 859.93 553.06C853.8 569.34 852.42 586.21 854.84 603.49C861.67 652.17 879.27 697.27 900.35 741.23C903.8 748.42 907.89 755.33 910.93 762.67C914.65 771.65 920.51 773.27 929.13 770.24C941.38 765.93 952.73 759.85 964.09 753.72C967.41 751.93 970.37 749.4 975.13 748.78C981.91 749.97 984.83 754.12 986.63 760.32C980.27 782.77 964.66 797.02 946.8 808.88C942.31 811.87 942.58 812.23 945.35 815.94C969.49 848.36 1000.74 872.93 1033.22 896.17C1048.06 906.79 1064.12 915.55 1078.53 927.94Z" fill="#FCFCFC"/>
<path d="M968.15 260.85C702 260.22 436.68 260.23 171.36 260.05C165.33 260.05 160.48 261.83 154.82 264.86C153.74 252.05 153.26 239.16 153.33 226.27C153.4 214.93 162.72 205.11 177.38 205.14C443.66 205.59 709.93 205.47 977.25 205.48C978.49 205.81 978.91 206.17 978.85 206.43C974.78 224.63 979.5 241.48 986.42 258.88C980.81 264.57 974.99 264.05 968.15 260.85Z" fill="#EAE7D9"/>
<path d="M967.12 261.14C973.14 259.5 979.22 261.73 985.33 257.81C989.16 256.79 991.48 258.85 993.93 260.55C1013.75 274.35 1033.56 275.5 1053.39 260.57C1054.6 259.66 1055.96 259.01 1058.22 258.11C1067.37 257.03 1075.85 255.34 1082.6 264.09C1083.34 280.81 1083.63 296.77 1083.64 312.72C1083.65 416.11 1083.59 519.5 1083.45 623.94C1075.17 621.6 1076.97 613.87 1076.22 607.6C1069.18 548.58 1053.22 492.61 1020.02 441.59C1017.8 438.27 1016.4 435.42 1014.28 432.15C1013.63 431.13 1013.37 430.72 1012.33 429.16C1011.29 427.64 1011.04 427.27 1010.41 426.35C1009.81 425.43 1009.59 425.05 1009.05 424.12C1008.53 423.2 1008.32 422.84 1007.41 421.46C1006.47 420.11 1006.23 419.79 1005.64 418.97C1005.09 418.13 1004.89 417.79 1004.4 416.93C1003.92 416.08 1003.73 415.75 1002.88 414.47C1002.22 413.53 1001.53 412.63 1001.2 412.17C1000.87 411.71 1000.27 410.76 999.98 410.29C999.29 409.19 998.82 408.61 997.87 407.71C996.87 406.81 996.34 406.25 995.47 405.18C994.85 404.39 994.6 404.06 993.58 402.77C992.26 401.14 991.74 400.47 990.87 399.24C989.31 396.83 988.18 394.93 986.46 392.6C985.47 391.35 984.87 390.66 983.75 389.49C981.25 386.93 979.66 384.55 977.64 381.6C976.98 380.62 976.72 380.23 975.66 378.7C974.58 377.18 974.31 376.8 973.62 375.86C972.93 374.91 972.66 374.53 971.95 373.59C970.89 372.3 970.24 371.58 969.03 370.35C956.31 349.33 938.01 336.88 915.3 328.97C915.68 319.16 910.13 312.6 905.63 305.66C899.46 296.13 893.41 286.5 886.75 277.33C881.2 269.69 882.66 267.85 891.99 266.79C914.29 264.24 936.6 265 958.92 264.74C961.8 264.71 965.15 265.62 967.12 261.14Z" fill="#FEFEFE"/>
<path d="M914 328.46C940.47 332.4 957.9 347.66 971.35 369.7C972.3 370.42 972.65 370.63 973.28 371.37C973.57 371.9 974.02 372.94 974.13 373.5C974.67 374.67 975.15 375.24 976.11 376.12C976.56 376.46 976.45 376.54 976.49 376.48C976.84 376.81 977.15 377.19 977.89 378.16C980.4 381.57 982.49 384.38 985.09 387.74C985.96 388.54 986.31 388.8 986.99 389.61C989.03 392.52 990.73 394.87 992.53 397.95C992.88 399.49 993.29 400.2 994.39 401.18C994.91 401.54 994.74 401.59 994.77 401.5C995.11 401.83 995.41 402.25 996.19 403.26C997.22 404.56 997.78 405.25 998.84 406.39C999.35 406.83 1000.37 407.33 1000.61 407.85C1001.02 408.73 1001.2 409.09 1001.48 410.05C1001.92 411.04 1002.26 411.43 1003.06 412.44C1003.52 413.06 1003.84 413.14 1003.8 413.3C1004.1 413.65 1004.45 413.84 1004.98 414.59C1005.41 415.53 1005.65 415.91 1005.99 416.95C1006.46 417.98 1006.83 418.34 1007.7 419.3C1008.21 419.89 1008.35 419.85 1008.37 419.93C1008.73 420.32 1009.07 420.63 1009.81 421.52C1010.2 422.1 1010.56 423.14 1010.65 423.69C1011.17 424.84 1011.64 425.41 1012.57 426.31C1012.99 426.67 1012.95 426.72 1012.98 426.7C1013.32 427.02 1013.62 427.37 1014.28 428.31C1016.32 431.42 1018.02 433.93 1019.79 437.2C1025.24 450.85 1030.48 463.79 1038.83 475.17C1041.87 479.31 1044.31 484.07 1039.12 488.19C1034.01 492.25 1029.18 490.39 1025.12 485.99C1023.06 483.76 1021.3 481.24 1019.95 478.54C1006.81 452.37 988.68 429.45 972.46 405.28C967.77 398.3 962.14 392.24 956.02 386.57C954.38 385.05 952.47 383 950.16 384.19C948.35 385.12 949.13 387.6 949.19 389.45C949.29 392.93 949.01 396.28 945.65 399.37C936.47 398.45 935.46 389.93 930.76 384.94C926.47 380.38 923.51 369.84 916.07 375.16C909.61 379.78 917.55 386.67 920.86 391.54C933.62 410.28 946.64 428.84 958.33 448.27C961.75 453.95 967.12 458.9 966.25 467.19C960.28 473.12 952.56 474.59 946.33 478.74C943.3 480.75 938.73 482.77 941.19 487.24C943.53 491.49 947.81 489.15 951.27 487.85C958.55 485.11 964.8 479.47 974.06 480.31C981.19 485.45 984.17 492.16 985.34 500.66C982.07 508.63 974.94 511.11 969.17 515.17C966.31 517.18 962.88 519.51 964.6 523.25C966.85 528.15 971.03 525.53 974.41 524.19C980.01 521.96 985.02 518.35 991.84 516.93C999.32 518.48 1000.96 523.98 1002.47 530.39C996.95 539.01 988.05 543.1 981.89 550.18C979.26 553.21 974.23 556.3 977.64 560.4C981.59 565.14 985.65 560.31 989.28 557.97C995.45 553.98 999.41 546.56 1008.6 546.18C1016.26 552.85 1019.66 561.16 1021.9 570.89C1015.8 582.61 1008.09 592.47 1002.09 603.39C1000.08 607.05 996.77 611.27 1001.28 614.42C1005.94 617.67 1008.71 612.74 1011.22 609.64C1017 602.49 1018.83 592.2 1029.16 588.41C1039.76 602.49 1044.91 618.5 1051.29 633.85C1060.17 655.21 1068.71 676.72 1078.05 697.88C1080.22 702.8 1080.98 708.05 1083.08 713.82C1083.51 736.4 1083.54 758.23 1083.51 781.07C1037.16 720.27 989.02 659.73 949.14 593.39C927.91 558.07 913.84 519.95 905.2 479.48C896.96 440.88 892.09 402.09 890.71 362.7C889.96 340.77 894.87 332.29 914 328.46Z" fill="#79AEB9"/>
<path d="M156.76 678.34C162.72 655.35 167.39 632.9 173.7 610.92C190.81 551.32 212.68 493.77 250.22 442.78C253.98 445.27 253.52 448.71 252.92 452.09C242.49 510.71 231.26 569.13 216.27 626.82C199.82 690.11 175.42 750.75 156 813.04C152.61 823.91 149.43 834.84 146.44 845.83C145.31 849.98 142.64 856.43 147.75 857.83C152.83 859.23 153.97 852.14 155.19 848.15C161.36 827.81 167.9 807.6 174.69 787.46C175.91 783.86 176.97 780.21 179.85 776.47C190.54 769.26 200.78 762.85 210.73 755.99C213.22 754.28 215.87 752.76 217.85 750.42C219.7 748.24 220.65 745.74 218.72 743.23C216.69 740.59 214.04 741.36 211.55 742.6C208.5 744.13 205.85 746.3 202.91 748.02C199.41 750.06 196.16 753.23 190.98 750.41C187.9 743.77 191.16 738.58 192.97 733.33C199.41 714.69 206.23 696.17 212.2 677.36C213.24 674.07 214.61 670.95 218.48 668.61C238.58 668.13 257.58 664.43 277.15 667.69C287.64 669.43 284.05 674.71 282.6 678.72C272.39 706.95 260.02 734.15 243.85 759.59C219.13 798.5 190.26 833.91 156.45 865.28C155.15 866.49 154.57 868.47 153.3 870.8C150.82 872.22 148.54 872.65 146.58 873.68C140.28 876.97 137.37 874.93 137.05 868.11C136.08 847.44 136.82 826.91 139.92 806.37C142.67 788.19 143.62 769.74 146.3 751.55C148.98 733.38 149.14 714.78 155.05 696.21C153.59 689.76 153.37 684.32 156.76 678.34Z" fill="#254147"/>
<path d="M977.08 749.55C959.58 759.43 943.01 769.36 923.85 774.29C916.45 776.19 913.67 774.31 910.67 768.52C890.8 730.23 872.68 691.04 861.42 649.42C853.28 619.35 845.22 588.5 855.34 556.74C857.61 549.63 860.07 543.01 867.26 540.28C874.95 537.36 878.89 544.14 883.3 548.42C928.87 592.62 964.36 644.47 996.15 698.96C1021.39 742.24 1047.3 785.09 1074.66 827.06C1076.72 830.21 1078.38 833.62 1080.78 837.54C1085.44 848.42 1083.06 859.15 1083.55 870.73C1077.7 872.16 1075.96 867.28 1073.61 863.68C1039.58 811.58 1004.63 760.12 966.78 710.72C937.54 672.55 913.89 631.24 893.41 587.9C891.25 583.32 889.43 574.55 882.39 578.24C876.64 581.26 882.26 587.64 884.03 592.34C887.95 602.76 896.12 611.91 893.09 624.95C889.64 629.1 879.87 626.98 883 634.83C885.44 640.95 892.06 637.6 897.02 636.55C898.11 636.32 899.17 635.92 901.1 635.63C909.31 638.64 910.74 645.5 912.47 652.98C911.7 658.8 907.48 661.03 904.33 664.13C901.93 666.49 899.02 669.13 901.86 672.72C904.04 675.47 907.28 674.61 910.17 673.51C912.97 672.44 915.21 670.28 918.9 669.2C924.66 668.94 926.98 672.58 929.24 676.02C943.06 697.13 958.61 717.01 973.12 737.64C975.49 741.01 978.22 744.26 977.08 749.55Z" fill="#254147"/>
<path d="M1079.58 928.14C1049.75 912.09 1022.75 892.46 996.51 871.71C976.61 855.98 959.01 837.96 943.13 818.25C940.01 814.37 937.16 811.56 944.81 807.22C962.72 797.08 976.24 782.09 985.03 762.39C991.62 761.07 993.44 765.94 996.07 769.37C1023.2 804.81 1047.19 842.39 1071.26 879.92C1075.28 886.19 1081.7 891.12 1083 899.94C1082.89 909.68 1086.2 919.17 1079.58 928.14Z" fill="#254147"/>
<path d="M944.18 400.38C946.7 395.41 947.63 391.08 945.97 386.45C945.08 383.98 943.54 381.18 946.87 379.53C949.94 378.01 952.87 379.16 955.12 381.56C960.82 387.62 967.49 392.73 972.17 399.81C989.26 425.67 1009.02 449.79 1022.66 477.89C1023.48 479.57 1025.05 480.88 1025.92 482.54C1028.63 487.74 1032.75 490.58 1037.76 486.64C1043.22 482.34 1037.91 479.09 1035.52 475.36C1028.49 464.36 1020.86 453.53 1019.83 438.91C1038.42 462.88 1050.94 490.81 1060.88 520.03C1072.38 553.8 1076.31 589.1 1082.59 624.54C1083.38 640.26 1083.44 655.51 1083.48 671.82C1078.74 673.39 1078 669.51 1076.92 666.51C1060.45 620.53 1038.18 577.09 1018.5 532.51C1015.46 525.63 1009.89 519.99 1008.67 511.41C1009.87 505.67 1009.76 501.32 1003.11 499.15C996.6 492.6 993.01 485.19 990.24 476.46C990.53 469.72 992.75 462.99 983.08 460.78C975.53 457.32 973.44 450.26 970.16 444.57C961.73 429.9 949.7 417.41 944.18 400.38Z" fill="#79AEB9"/>
<path d="M381.78 760.05C356.97 793.6 341.45 831.23 325.4 868.63C309.86 904.86 280.19 923.73 243.63 933.78C242.19 934.17 240.84 934.89 238.57 935.49C225.08 935.27 212.23 939.69 199.06 933.28C203.65 918.26 214.04 907.86 227.71 899.58C237.63 902.03 246.94 902.99 256.31 903.46C260.34 903.66 265.82 905 266.45 899.52C267.05 894.29 261.37 893.93 257.49 892.94C252.05 891.55 246.39 891.08 240.41 888.53C238.55 880.25 243.57 876.28 250.03 872.48C260.95 873.95 270.96 875.98 280.87 878.54C285.35 879.69 290.94 880.55 292.04 874.48C293.04 868.96 287.58 868.39 283.53 867.48C277.26 866.08 270.73 865.53 264.67 861.08C263.05 858.17 263.38 855.84 265 854.19C274.61 844.41 282.91 833.21 295.77 825.84C303.97 824.59 310.48 828.63 317.55 829.23C321.76 829.58 327.76 831.54 328.8 825.44C329.77 819.75 324.06 818.69 319.65 817.6C317.83 817.15 315.95 816.92 313.49 815.76C309.63 810.75 313.11 808.27 316.02 805.95C334.71 791.03 354.14 777.06 372.27 761.43C374.89 759.18 377.88 757.35 381.78 760.05Z" fill="#254147"/>
<path d="M1059.34 259.66C1033.62 280.06 1009.82 279.33 986.5 257.5C975.25 241.65 969.45 225.55 978.25 206.35C993.39 170.47 1048.2 163.36 1069.63 206.57C1079.46 224.93 1075.33 246.5 1059.34 259.66Z" fill="#5C7A7D"/>
<path d="M991.6 473.81C995.47 481.99 999.04 489.47 1003.35 497.3C1006.91 500.42 1009.04 503.63 1010.45 508.08C1018.2 525.34 1025.79 541.91 1033.51 558.41C1050.98 595.74 1067.9 633.3 1082.8 672.44C1083.51 686.03 1083.54 699.2 1083.54 713.47C1073.2 698.95 1068.08 680.98 1060.79 664.01C1050.21 639.39 1040.8 614.26 1028.57 589.42C1022.07 585.86 1021.72 579.87 1020.16 573.67C1019.29 563.52 1012.24 556.72 1009 547.68C1004.16 543.58 1001.63 539.04 1001.01 532.75C998.89 527.46 996.64 522.95 993.75 518.01C987.88 514.09 986.14 508.58 984.36 502.19C982.99 493.94 978.34 488.2 974 481.35C968.36 478.05 966.77 472.97 965.03 467.34C951.87 440.19 934.47 416.41 917.9 392.09C915.78 388.98 912.92 386.27 911.34 382.93C909.37 378.77 908.25 373.49 913.09 370.81C916.82 368.75 921.46 368.1 924.87 373.26C930.63 381.95 937.03 390.22 943.8 399.13C956.77 419.1 969.11 438.61 982.12 458.53C987.58 462.49 989.4 467.82 991.6 473.81Z" fill="#050E3D"/>
<path d="M1083.47 899.62C1062.25 874.07 1045.99 844.19 1026.39 816.57C1013.52 798.43 1001.76 779.49 986.49 762.32C983.75 757.94 981.9 753.7 977.34 750.55C972.47 738.19 963.14 729.54 956.06 719.42C944.64 703.08 932.84 687 920.42 670.8C915.49 666.73 912.89 661.74 910.63 655.65C910.03 648.12 905.58 643.15 902 637.02C896.89 634.05 894.58 629.68 892.05 624.78C892.7 612.04 884.63 603.19 880.96 592.77C880.21 590.65 879.09 588.67 878.19 586.6C875.88 581.3 874.81 575.64 881.37 573.19C886.69 571.2 890.12 574.59 892.62 579.81C900.57 596.37 909.07 612.68 917.36 629.08C936.51 666.97 962.36 700.4 987.74 734.1C1021.11 778.43 1050.97 825.17 1082.85 871.4C1083.51 880.74 1083.51 889.68 1083.47 899.62Z" fill="#111F22"/>
<path d="M297.34 827.62C284.01 835.93 275.35 848.03 264.83 859.11C261.94 865.41 258.27 870.1 252.08 873.46C245.95 876.17 244.1 881.92 239.85 886.42C238.32 893.31 233.11 896.44 228.41 900.78C216 909.23 208.53 921.39 198.59 932.25C193.88 938.06 188.03 937.95 181.18 937.61C178.17 933.32 177.98 929.96 181.96 925.78C190.24 917.1 197.54 907.46 205.48 897.48C218.47 877.8 235.21 862.34 250.32 845.46C286.19 805.38 330.1 774.74 372.18 741.98C382.05 734.3 388.4 737 390.65 749.86C389.14 751.92 388.15 753.35 386.61 755.13C385.33 755.76 384.68 756.18 383.97 757.3C383.82 757.86 383.39 757.49 383.59 757.69C382.92 758.09 382.23 758.54 382.06 759.85C382.38 760.41 382.24 760.73 382.09 760.81C379.57 759.38 377.69 760.52 375.84 761.99C354.83 778.81 333.8 795.61 312.6 813.16C309.15 820.04 303.58 823.64 297.34 827.62Z" fill="#111F22"/>
<path d="M1059.52 260.2C1070.73 245.08 1074.69 228.12 1070.04 208.2C1080.06 210.47 1083.85 217.72 1083.68 227.81C1083.48 239.45 1083.6 251.09 1083.38 263.8C1076.22 260.4 1068.54 259.46 1059.52 260.2Z" fill="#EAE7D9"/>
<path d="M156.72 677.58C156.58 682.89 154.16 687.95 155.02 694.38C151.41 690.32 153.91 684.69 153.55 678.46C154.55 677.53 155.34 677.55 156.72 677.58Z" fill="#EAE7D9"/>
<path d="M390.91 750.34C385.72 738.13 382.8 737.29 372.92 745.02C331.68 777.23 288.56 807.2 253.32 846.52C238.22 863.38 222.61 879.79 206.49 896.57C209.73 877.62 217.54 859.74 224.62 841.74C237.74 808.38 251.65 775.27 270.98 744.82C288.69 716.94 309.5 692.32 341.35 679.96C366.97 670.01 393.12 666.84 419.41 677.49C433.04 683.02 436.22 692.03 429.67 705.14C420.65 723.18 403.93 734.81 390.91 750.34Z" fill="#254147"/>
<path d="M665.63 509.15C711.62 527.79 735.83 568.11 727.1 617.57C721.64 648.47 699.72 676.99 659.39 687.29C643.57 691.33 628.13 693.05 611.65 687.83C605.94 675.95 607.55 663.9 608.81 652.53C614.43 601.88 633.23 555.9 660.6 513.21C661.63 511.62 663.05 510.33 665.63 509.15Z" fill="#E1FF01"/>
<path d="M665.88 508.35C648.64 538.2 632.35 568.27 622.51 601.37C614.4 628.66 609.93 656.47 611.12 686.14C576.19 681.3 552.19 660.9 539.05 629.19C517.53 577.24 545.79 521.72 599.69 505.87C621.97 499.33 643.57 500.54 665.88 508.35Z" fill="#485F61"/>
<path d="M254.45 439.14C253.94 438.05 253.81 437.56 254.01 437.31C261.55 427.35 267.04 412.18 282.57 415.89C298.32 419.66 298.15 436.56 300.95 448.94C309.54 486.98 307.23 525.71 305.81 564.3C305.39 575.67 300.77 586.48 301.16 598C301.26 600.83 299.1 601.74 296.67 602.13C265.45 607.08 243.81 626.13 224.9 650.53C221.27 648.46 221.45 645.37 222.22 642.42C228.67 617.56 234.79 592.62 240.63 567.62C240.97 566.16 242.04 564.96 243.64 563.17C252.73 558.07 262.29 556.67 271 552.91C274.49 551.4 277.98 549.89 281.39 548.24C284.78 546.59 289.4 544.78 287.77 540.24C285.98 535.25 281.37 537.87 277.93 538.86C274.28 539.91 270.96 541.86 267.44 543.27C261.49 545.64 255.69 548.71 248.32 547.51C245.51 537.01 247.95 527.78 252.36 518.09C261.32 511.46 271.69 509.28 280.13 503.4C283.4 501.13 289.26 499.13 287.13 494.47C284.62 488.98 279.38 492.31 275.25 493.98C269.45 496.33 264.64 501.72 256.98 499.1C255.54 486.9 258.36 475.88 260.4 464.71C262 455.9 264.54 446.42 254.45 439.14Z" fill="#254147"/>
<path d="M246.13 563.19C241.1 579.73 236.97 595.88 232.92 612.05C229.85 624.31 226.87 636.59 223.98 649.78C223.06 656.18 218.09 660.44 219.25 667.44C209.6 694.99 199.49 721.53 191.86 749.84C191.83 759.53 188.13 767.05 183.27 775.01C173.48 797.55 167.41 820.51 159.97 843.01C158.31 848.02 156.86 853.11 155.04 858.06C153.66 861.84 151.14 864.96 146.66 864.17C141.94 863.34 141.14 859.39 141.51 855.34C142.87 840.53 148.57 826.84 152.91 812.83C170.62 755.7 193.19 700.12 208.99 642.42C218.53 607.58 226.73 572.32 233.59 536.73C239.52 506 245.1 475.2 251 443.51C250.98 442.56 251.04 442.65 251 442.62C252.12 441.78 252.23 440.46 253.14 438.92C253.67 438.57 253.7 438.35 253.81 438.38C262.8 437.99 265.73 442.28 265.16 450.95C264.12 466.76 259.91 482.01 257.82 498.54C260.55 505.61 259 511.35 255.4 517.51C250.39 526.7 251.28 536.44 248.67 546.35C250.03 552.66 250.62 557.95 246.13 563.19Z" fill="#111F22"/>
<path d="M780.71 710.19C790.8 697.71 803.99 697.42 816.33 701.26C824.5 703.8 831.44 710.65 832.91 720.92C834.76 733.87 832.52 744.72 820.7 752.34C810.46 758.94 794.26 758.24 784.8 750.29C775.13 742.16 771.94 729.5 776.72 717.89C777.72 715.46 778.95 713.14 780.71 710.19Z" fill="#111F22"/>
<path d="M624.9 403.35C626.59 421.94 628.13 439.62 629.54 457.32C630.03 463.53 630.38 470.62 621.89 470.99C614.13 471.32 614.36 464.54 613.4 458.81C610.54 441.9 612.03 424.85 611.24 407.88C611.08 404.39 611.55 401.24 615.14 399.18C619.8 396.52 622.04 399.88 624.9 403.35Z" fill="#E1FF01"/>
<path d="M484.91 655.96C492.34 651.41 499.29 647.65 505.8 643.25C509.82 640.53 512.67 641 515.55 644.48C518.46 648 518.56 651.89 515.05 654.52C499.76 665.97 483.43 675.84 466.71 685C462.33 687.4 459.63 683.08 457.56 680.31C455.42 677.45 457.17 674.59 460.03 672.68C468.1 667.28 476.17 661.88 484.91 655.96Z" fill="#E1FF01"/>
<path d="M435.94 575.66C452.73 574.48 468.65 573.64 484.57 572.82C490.15 572.53 496.49 573 496.95 579.63C497.42 586.54 491.67 588.55 485.29 588.81C470.88 589.41 456.48 590.35 442.07 591.13C437.74 591.36 433.64 590.94 431.18 586.66C428.27 581.6 432.66 579.15 435.94 575.66Z" fill="#E1FF01"/>
<path d="M773 628.42C787.9 634.64 802.14 640.21 816.2 646.2C819.83 647.75 821.87 651.32 820.51 655.48C818.88 660.48 814.95 661.29 810.43 659.71C794.92 654.29 779.64 648.32 764.96 640.89C760.25 638.51 758.01 634.8 760.67 630.01C763.38 625.15 767.76 625.07 773 628.42Z" fill="#E1FF01"/>
<path d="M790.11 514.42C794.86 511.99 799.02 510.25 802.88 508.01C807.96 505.06 811.02 508.43 813.32 511.65C815.91 515.28 814.6 518.89 810.39 520.91C795.26 528.19 780.18 535.61 764.89 542.55C761.1 544.27 757.03 542.5 755.74 538.29C754.71 534.91 753.86 530.96 758.81 528.82C769.09 524.37 779.2 519.55 790.11 514.42Z" fill="#E1FF01"/>
<path d="M737.89 452.73C731.84 462.29 726.48 471.29 720.73 480.05C717.63 484.79 713.63 488.38 707.67 483.79C702.57 479.86 705.35 475.94 707.86 472.08C715.81 459.85 723.82 447.65 731.7 435.37C734.55 430.93 737.77 426.53 743.34 430.64C748.09 434.14 747.1 439.12 743.99 443.66C742.08 446.43 740.26 449.26 737.89 452.73Z" fill="#E1FF01"/>
<path d="M535.12 457.39C544.16 466.12 552.78 474.15 561.03 482.53C564.13 485.67 567.33 489.03 562.54 494.1C557.84 499.08 554.63 496.64 551.09 493.36C541 484.01 530.86 474.72 520.99 465.14C517.97 462.21 512.89 459.01 517.19 453.81C521.48 448.63 526.5 449.97 531.16 453.78C532.33 454.73 533.42 455.8 535.12 457.39Z" fill="#E1FF01"/>
<path d="M252.94 438.56C253.2 439.77 252.72 440.96 251.6 442.38C251.37 441.24 251.79 439.89 252.94 438.56Z" fill="#254147"/>
<path d="M382.88 760.16C382.42 759.64 382.45 758.86 383.14 757.99C384.1 758.66 383.95 759.34 382.88 760.16Z" fill="#254147"/>
<path d="M384.43 757.76C384.14 757.14 384.46 756.4 385.42 755.57C385.72 756.2 385.38 756.92 384.43 757.76Z" fill="#254147"/>
<path d="M338.31 230.64C352.54 224.5 366.94 228.61 380.99 228.73C384.57 228.76 383.62 233.54 383.57 236.42C383.49 240.78 380.74 242.48 376.79 242.04C364.63 240.68 352.41 241.84 340.08 240.41C331.04 239.36 320.03 241.48 309.9 242.08C306.88 242.26 303.85 242.07 300.82 242.04C296.09 241.99 295.35 238.02 295.21 234.98C295.06 231.74 296.3 227.92 300.89 228.1C313.17 228.58 325.62 225.67 338.31 230.64Z" fill="#254147"/>
<path d="M263.13 242.11C256.36 242.34 250.9 241.81 251.1 234.23C251.3 226.65 257.4 228.08 262.08 227.92C268.14 227.72 274.21 228 280.28 227.87C285.27 227.76 288.06 229.31 287.91 234.98C287.76 240.45 285.2 242.31 280.1 242.14C274.8 241.96 269.49 242.11 263.13 242.11Z" fill="#254147"/>
<path d="M189.25 242.12C184.85 242.02 181.36 242.4 178.1 241.68C174.15 240.81 173.31 237.39 173.42 233.7C173.53 230.01 175.46 228.16 179.03 228.07C184.3 227.94 189.58 228.02 194.86 227.86C200.01 227.7 204.53 229.39 204.32 234.93C204.14 239.94 200.22 242.64 194.79 242.14C193.29 241.99 191.77 242.12 189.25 242.12Z" fill="#254147"/>
<path d="M214.97 229.69C222.48 226.96 229.65 228.24 236.75 227.94C241.88 227.72 243.5 231.32 243.44 235.05C243.38 238.71 241.85 242.39 236.68 242.13C232.18 241.9 227.64 241.86 223.15 242.17C213.99 242.81 211.71 238.62 214.97 229.69Z" fill="#254147"/>
<path d="M994.71 400.93C994.25 401.01 993.59 400.47 992.78 399.31C993.25 399.23 993.88 399.78 994.71 400.93Z" fill="#79AEB9"/>
<path d="M996.66 403.29C995.98 403.58 995.47 403.11 994.96 401.94C995.43 401.85 996.04 402.28 996.66 403.29Z" fill="#79AEB9"/>
<path d="M1000.84 407.94C1000.37 408.19 999.99 407.89 999.52 407.16C1000.03 406.66 1000.52 406.88 1000.84 407.94Z" fill="#79AEB9"/>
<path d="M1003.44 412.51C1002.85 412.77 1002.32 412.29 1001.77 411.15C1002.35 410.85 1002.94 411.29 1003.44 412.51Z" fill="#79AEB9"/>
<path d="M1005.13 414.75C1004.73 414.91 1004.37 414.57 1003.93 413.8C1004.35 413.53 1004.79 413.82 1005.13 414.75Z" fill="#79AEB9"/>
<path d="M987.36 389.64C986.78 389.93 986.33 389.57 985.8 388.68C986.42 388.12 987.01 388.39 987.36 389.64Z" fill="#79AEB9"/>
<path d="M1007.99 419.4C1007.51 419.64 1006.96 419.21 1006.32 418.1C1006.79 417.88 1007.34 418.32 1007.99 419.4Z" fill="#79AEB9"/>
<path d="M1010.22 421.55C1009.6 421.84 1009.12 421.43 1008.58 420.44C1009.21 419.94 1009.83 420.27 1010.22 421.55Z" fill="#79AEB9"/>
<path d="M1012.84 426.09C1012.38 426.22 1011.76 425.77 1010.94 424.78C1011.39 424.66 1012.04 425.09 1012.84 426.09Z" fill="#79AEB9"/>
<path d="M1014.6 428.4C1014.03 428.62 1013.58 428.18 1013.14 427.14C1013.72 426.83 1014.25 427.23 1014.6 428.4Z" fill="#79AEB9"/>
<path d="M978.27 378.22C977.66 378.48 977.17 378.03 976.69 376.92C977.31 376.56 977.88 376.97 978.27 378.22Z" fill="#79AEB9"/>
<path d="M976.39 375.89C975.93 376.02 975.3 375.58 974.46 374.6C974.89 374.48 975.56 374.89 976.39 375.89Z" fill="#79AEB9"/>
<path d="M973.58 371.42C973.06 371.7 972.64 371.37 972.14 370.57C972.7 370.02 973.24 370.26 973.58 371.42Z" fill="#79AEB9"/>
<path d="M1019.47 573.6C1025.52 575.97 1023.7 583.38 1028.25 587.84C1022.62 596.96 1017.03 605.36 1011.24 613.62C1008.66 617.3 1006.05 621.64 1000.35 618.43C994.64 615.21 994.83 609.49 997.59 605.59C1004.91 595.24 1009.24 582.85 1019.47 573.6Z" fill="#FCFCFC"/>
<path d="M1000.46 532.27C1003.44 536.57 1005.74 541.17 1008.15 546.53C1000.01 549.82 995.3 557.16 988.62 561.85C984.08 565.04 979.34 568.8 974.84 563.62C969.96 558 974.13 553.06 978.7 549.28C985.61 543.57 992.74 538.13 1000.46 532.27Z" fill="#FCFCFC"/>
<path d="M964.36 466.83C969.38 469.85 970.51 475.02 973.36 479.93C965.35 483.07 957.96 487.31 950.42 491.35C946.31 493.56 941 495.4 937.54 489.96C933.62 483.81 937.61 480.26 942.63 477.62C949.52 473.98 956.54 470.58 964.36 466.83Z" fill="#FCFCFC"/>
<path d="M983.62 502.17C989.35 504.88 990.66 510.64 992.92 516.78C986.59 521.15 980.21 525 973.49 528.13C969.45 530.01 964.06 531.44 961.4 526.64C958.94 522.2 959.72 517.44 965.3 514.37C971.48 510.96 977.21 506.75 983.62 502.17Z" fill="#FCFCFC"/>
<path d="M183.54 775.74C184.31 767.42 186.73 759.47 191.45 751.48C198.91 749.76 203.69 744.45 208.92 740.64C214.75 736.4 218.78 737.51 222.36 742.04C226.68 747.5 221.91 751.59 218.23 754.14C207.23 761.77 195.7 768.64 183.54 775.74Z" fill="#FCFCFC"/>
<path d="M910.13 655.69C915.37 658.37 918.13 663.33 919.66 669.94C915.02 672.18 912.71 677.78 907.21 677.6C903.59 677.48 899.3 678.69 897.53 674.1C896.06 670.29 896.97 666.88 900.47 664.26C903.73 661.8 906.79 659.07 910.13 655.69Z" fill="#FCFCFC"/>
<path d="M891.31 624.4C898.55 624.81 897.79 631.47 901.23 635.68C899.87 639.83 896.32 639.33 893.68 640.1C887.65 641.87 880.45 644.09 878.57 634.99C876.63 625.59 883.7 625.01 891.31 624.4Z" fill="#FCFCFC"/>
<path d="M992.12 473.69C987.9 470.51 985.07 465.76 982.89 459.74C994.09 459.91 995.62 462.13 992.12 473.69Z" fill="#EAE7D9"/>
<path d="M1011.15 508.3C1006.37 506.92 1006.36 502.41 1004.28 498.37C1011.45 497.42 1013.05 501.51 1011.15 508.3Z" fill="#EAE7D9"/>
<path d="M252.23 873.94C255.32 869.28 259.25 864.79 263.91 860.08C271.4 862.41 278.21 864.62 285.56 864.69C292.13 864.74 297.27 868.01 296.32 874.66C295.45 880.75 290.16 884.53 283.61 882.01C273.68 878.18 262.49 879.58 252.23 873.94Z" fill="#FCFCFC"/>
<path d="M228.38 901.57C229.25 895.12 235.08 892.56 238.8 887.44C247.7 888.6 255.86 890.39 264.11 891.52C269.37 892.24 271.6 895.57 271.35 899.85C271.02 905.34 266.38 907.88 261.57 907.04C250.78 905.17 239.51 906.45 228.38 901.57Z" fill="#FCFCFC"/>
<path d="M297.73 828.18C299.34 821.37 305.68 818.43 311.66 814.12C317.88 815.03 323.58 814.17 328.83 817.29C333.21 819.89 333.97 823.22 333.5 827.6C332.93 832.97 328.98 832.34 325.17 832.83C315.78 834.05 307.7 828.49 297.73 828.18Z" fill="#FCFCFC"/>
<path d="M1019.36 228.89C1017.64 219.17 1009.29 215.7 1004.45 209.39C1003.34 207.95 1001.13 206.44 1002.4 204.77C1004.48 202.04 1006.39 204.74 1007.82 206.07C1011.62 209.65 1015.3 213.38 1018.8 217.26C1021.26 219.99 1023.61 221.87 1027.91 219.03C1029.25 218.84 1029.85 218.81 1030.42 219.68C1027.64 224.33 1028.54 227.25 1031.95 230.22C1035.63 233.42 1038.98 237.02 1042.21 240.67C1043.43 242.05 1046.54 243.69 1043.79 245.95C1042.2 247.25 1040.47 245.4 1039 244.19C1033.3 239.51 1029.9 232.24 1021.86 229.64C1020.56 229.83 1019.91 229.84 1019.36 228.89Z" fill="#EAE7D9"/>
<path d="M1037.67 210.67C1038.31 205.67 1041.82 203.23 1044.39 205.03C1046.48 206.49 1042.59 209.1 1040.13 211.2C1038.83 211.56 1038.21 211.58 1037.67 210.67Z" fill="#EAE7D9"/>
<path d="M1005.74 242.63C1006.21 239.77 1006.86 238.05 1009.7 237.29C1010.99 237.09 1011.59 237.06 1012.15 237.92C1010.99 240.19 1009.86 241.57 1008.12 243.21C1006.88 243.51 1006.26 243.53 1005.74 242.63Z" fill="#EAE7D9"/>
<path d="M1007.12 243.01C1006.45 245.38 1005.04 247.66 1002.81 245.85C1000.77 244.19 1003.18 243.09 1005.15 241.91C1006.14 241.98 1006.44 242.26 1007.12 243.01Z" fill="#EAE7D9"/>
<path d="M1014.86 233.49C1015.27 230.62 1015.58 228.67 1018.73 228.07C1019.75 228.22 1020.06 228.51 1020.79 229.31C1020.08 231.12 1018.96 232.43 1017.23 234.04C1016.01 234.36 1015.39 234.39 1014.86 233.49Z" fill="#EAE7D9"/>
<path d="M1016.24 233.87C1015.51 235.64 1014.39 236.94 1012.69 238.53C1011.81 238.55 1011.51 238.29 1010.8 237.58C1010.75 235.19 1011.31 233.4 1014.27 232.73C1015.25 232.84 1015.55 233.12 1016.24 233.87Z" fill="#EAE7D9"/>
<path d="M1033.09 215.26C1033.55 212.37 1034.01 210.52 1037.05 209.9C1038.05 210.03 1038.35 210.3 1039.06 211.06C1038.34 212.88 1037.23 214.22 1035.5 215.85C1034.25 216.17 1033.62 216.19 1033.09 215.26Z" fill="#EAE7D9"/>
<path d="M1029.05 219.33C1029.01 216.95 1029.67 215.24 1032.51 214.48C1033.5 214.6 1033.81 214.88 1034.5 215.66C1033.77 217.45 1032.66 218.74 1030.96 220.31C1030.08 220.32 1029.77 220.05 1029.05 219.33Z" fill="#EAE7D9"/>
<path d="M246.17 563.7C245.89 558.56 246.57 553.54 247.97 547.9C258.35 543.41 267.97 539.42 277.7 535.71C282.73 533.8 288.79 530.54 292.03 537.65C295.41 545.04 289.87 548.68 283.98 550.91C271.8 555.51 259.97 561.1 246.17 563.7Z" fill="#FCFCFC"/>
<path d="M255.4 517.79C255.34 512.41 256.16 506.78 257.41 500.32C264.21 496.39 270.5 493.24 276.54 489.43C280.89 486.69 287.17 485.1 290.79 490.74C294.58 496.66 290.51 500.03 285.33 503.13C276.01 508.73 266.68 514.18 255.4 517.79Z" fill="#FCFCFC"/>
</svg>
