<svg width="520" height="612" viewBox="0 0 520 612" fill="none" xmlns="http://www.w3.org/2000/svg">
<path d="M62.0501 159.77C72.2801 138.24 87.3801 121.31 104.77 106.23C109.69 101.96 114.72 97.8298 119.8 93.7598C122.63 91.4898 123.31 88.9798 122.43 85.3998C120.66 78.2298 123.09 76.0598 130.34 77.6998C135.31 78.8298 140.3 79.8298 145.85 80.8998C158.13 80.7498 168.68 85.4598 179.9 89.3298C192.26 94.7098 202.72 102.23 213.09 109.77C216.52 112.27 218.86 116.26 221.89 120.01C222.19 127.47 220.58 128.9 214.03 126.78C200.85 122.52 187.82 120.55 174.41 126.15C157.67 133.14 149.14 146.37 148.33 164.49C146.9 196.54 158.1 224.71 173.2 251.94C186.12 275.23 202.58 295.51 223.38 312.27C229.14 316.91 236.22 319.55 241.6 325.44C241.64 327.96 240.33 329.1 238.81 329.95C221.43 339.71 203.46 347.97 182.98 351.13C179.31 349.95 176.38 350.95 172.83 351.86C134.19 361.07 95.3901 364.63 55.8901 367.72C54.8201 367.45 54.4101 367.29 53.4401 366.77C46.7701 355.59 45.8401 344 47.9901 331.43C49.3701 329.65 50.8201 329.55 52.3201 329.5C67.5701 328.93 75.6901 320.31 76.5801 304.92C77.4201 290.3 75.1801 275.98 72.9301 261.72C70.8301 248.41 68.6801 235.07 65.6101 221.9C63.7501 213.93 61.3701 206.28 56.5001 198.92C55.0701 189.34 59.2601 181.2 60.5401 172.58C60.9301 169.97 62.3401 167.51 61.5801 164.17C61.3701 162.47 61.6101 161.36 62.0501 159.77Z" fill="#579AA8"/>
<path d="M181.6 349.99C201.71 345.76 220.02 338.42 237.43 328.73C238.48 328.14 239.61 327.69 240.97 326.75C241.52 326.05 241.8 325.77 242.65 325.35C273.15 333.82 297.36 349.5 308.96 379.93C313.63 392.18 312.61 405.04 310.43 418.32C306.5 429.71 303.06 440.7 297.34 451.36C290.06 465.27 282.53 478.4 273.77 491.36C269.81 491.64 269.44 495.02 267.98 496.95C257.9 510.26 247.95 523.67 238.26 537.26C236.2 540.15 234.98 537.27 232.89 537.44C226.92 537.23 223.03 533.59 218.67 531.07C212.55 527.53 206.35 524.18 199.72 520.46C197.26 517.74 196.39 515.12 197.95 511.63C199.12 509.92 200.48 508.97 201.06 506.93C201.29 506.22 201.39 505.94 201.68 505.25C202.16 504.34 202.48 503.85 203.04 503.02C203.68 501.92 204.03 501.15 204.43 499.93C204.68 499.25 204.8 498.98 205.13 498.33C206.18 496.71 206.86 495.41 207.45 493.53C207.74 492.8 207.88 492.5 208.24 491.78C212.55 481.76 218.37 472.98 221.78 462.54C222.03 461.76 222.15 461.46 222.5 460.74C223.7 459.12 224.57 457.87 225.07 455.89C225.35 455.16 225.49 454.88 225.88 454.2C226.95 452.83 227.49 451.71 227.98 450.05C228.26 449.32 228.38 449.04 228.76 448.37C229.76 447.03 230.38 446.02 230.8 444.39C231.03 443.66 231.14 443.37 231.45 442.65C231.97 441.68 232.28 441.14 232.81 440.16C234.35 435.58 238.07 431.64 233.84 426.59C231.62 423.35 228.9 422.65 225.87 423.71C215.93 427.22 205.46 427.76 194.61 429.63C188.47 430.42 182.9 429.98 176.69 430.17C154.2 430.22 132.62 426.85 110.93 425.04C105.09 424.55 99.1101 425.09 92.8401 423.09C88.7701 420.01 85.3501 417.02 80.5901 415.17C79.8501 414.84 79.5701 414.69 78.8901 414.29C77.8101 413.44 77.2101 412.76 76.2501 411.84C75.7201 411.35 75.5101 411.16 75.0101 410.64C74.1401 409.69 73.5701 409.05 72.6301 408.14C72.1301 407.57 71.9401 407.32 71.5301 406.65C70.4301 404.02 69.1701 402.07 67.1501 400.03C66.5701 399.44 66.3501 399.19 65.8401 398.54C64.2401 395.92 63.3601 393.45 61.2401 391.16C60.7001 390.54 60.5001 390.27 60.0801 389.56C59.1801 387.23 59.0001 385.19 57.8201 382.92C57.2701 381.79 56.9901 381.12 56.5601 379.89C56.1501 375.43 53.7401 371.6 56.4701 367.25C95.4301 364.36 133.65 360.22 171.86 351.42C175.19 350.29 178.03 349.66 181.6 349.99Z" fill="#9F9B8D"/>
<path d="M243.24 325.8C242.5 326.01 242.25 326.1 241.62 326.26C237.99 324.31 234.74 322.3 231.5 320.26C216 310.53 203.51 297.56 191.96 283.58C179.75 268.8 170.25 252.24 161.9 235.14C156.87 224.85 152.9 213.82 150.2 202.7C148.18 194.36 145.25 185.89 146.42 176.88C146.99 172.53 146.66 168.04 146.49 163.62C145.81 145.21 159.07 129.24 174.71 123.78C185.6 119.98 196.47 119.14 207.52 123.14C210.63 124.26 213.89 124.32 217.04 126.16C220.4 128.13 220.86 123.86 222 121.03C230.97 129.74 236.1 141.24 241.06 152.82C242.19 155.46 243.05 158.22 244.05 161.47C246.36 164.15 247.84 166.76 248.69 170.35C254.35 192.23 258.66 213.84 263.7 235.28C265.07 241.1 268.27 245.5 272.84 249.06C289.47 262.02 307.25 273.32 325.51 284.91C329.86 288.21 333.86 291.07 336.79 295.06C339.27 298.45 341.57 302 338.94 306.99C338.21 308 337.79 308.5 337.33 309.33C337.52 313.5 336.07 316.69 333.13 319.85C330.72 322.39 328.67 324.53 326.48 327.19C323.21 332.05 318.32 332.28 313.15 333.14C310.23 332.66 307.83 332.29 304.89 332.04C304.05 331.88 303.72 331.79 302.91 331.53C297.55 329.31 292.47 327.85 286.95 326.13C286.15 325.9 285.84 325.79 285.08 325.47C281.32 323.19 277.67 321.86 273.59 320.33C272.84 320.05 272.55 319.93 271.84 319.59C269.89 318.33 268.26 317.54 265.99 317.06C265.27 316.81 264.99 316.68 264.33 316.32C262.54 314.91 260.98 313.99 258.96 312.92C256.43 310.35 253.29 309.63 250.51 307.43C248.73 305.57 246.56 305.7 244.55 304.39C241.88 301.84 239.08 300.35 235.86 298.64C234.57 297.43 233.68 296.5 232.4 295.25C225.67 290.2 219.76 285.02 214.95 278.02C213.79 276.61 212.85 275.68 211.55 274.41C208.97 271.58 208.27 268.11 205.55 265.35C203.5 259.93 201.41 255.02 200.08 249.85C199.9 249.16 199.77 248.45 199.44 247.81C199.24 248.61 199.81 249.21 199.99 249.91C201.23 254.85 203.33 259.51 205.16 264.77C207.82 267.57 208.62 270.95 211.04 273.88C212.31 275.17 213.22 276.11 214.48 277.42C219.09 284.37 224.65 289.67 231.47 294.41C232.78 295.65 233.68 296.58 234.96 297.83C237.8 300.11 240.77 301.32 243.62 303.56C245.24 305.54 247.37 305.42 249.42 306.57C252.11 309.29 255.46 310.09 258.41 312.43C259.56 313.41 260.41 313.98 260.58 315.54C254.78 319.09 250.13 323.9 243.24 325.8Z" fill="#F7EFD7"/>
<path d="M243.22 326.14C248.22 322.54 253.71 319.17 259.76 315.8C261.32 314.85 262.47 314.65 264.29 315.39C264.82 315.71 264.74 315.8 264.75 315.74C266.52 317.64 269.26 317 271.75 318.43C272.18 318.71 272.1 318.75 272.11 318.7C275.98 321.14 280.17 322.85 285.04 324.32C285.49 324.6 285.4 324.65 285.41 324.6C290.76 327.19 296.26 329.28 302.72 330.23C303.21 330.5 303.12 330.56 303.14 330.51C305.6 332.16 308.39 332.05 311.63 331.96C316.51 330.53 320.93 329.14 325.84 327.73C332.15 330.59 337.89 333.62 343.79 336.29C373.69 349.84 395.71 370.89 406.85 402.33C411.76 416.18 416.29 430.17 421.56 443.88C425.36 453.76 430.05 463.29 434.41 472.94C436.7 478 439.25 482.94 441.46 488.03C443.48 492.67 442.28 494.92 436.55 498.41C425.3 505.88 414.11 512.8 402.48 519.93C396.81 522.2 392.89 520.22 389.36 516.5C382.63 509.42 375.8 502.43 369.09 495.33C368.52 494.73 368.53 493.59 368.27 492.16C373.37 473.92 375.92 456.01 375.81 437.43C375.72 421.04 365.25 407.6 351.34 404.53C349.04 404.5 347.39 403.77 345.22 403.68C344.38 403.65 343.98 403.64 343.58 403.66C343.17 403.68 343.3 403.71 344.4 403.72C346.86 403.67 348.76 404.52 351.36 404.58C365.54 407.78 375.81 421.35 375.76 437.63C375.7 454.43 374.11 470.79 369.5 486.9C369.07 488.39 368.43 489.61 366.86 491.05C363.84 488.58 361.31 485.7 358.28 482.75C356.18 477.24 336 459.5 331.44 453.25C326.88 446.999 326.66 450.6 325.55 448.41C320.6 438.71 313.46 430.31 309.08 419.72C309.52 414.06 310.28 408.97 310.37 403.86C310.66 387.07 306.27 371.88 295.13 358.83C284.16 345.99 270.22 337.52 255.15 330.63C251.46 328.96 247.53 327.78 243.22 326.14Z" fill="#5E5C54"/>
<path d="M88.8801 419.869C93.1601 420.879 97.21 421.699 101.29 422.149C108.06 422.899 114.86 423.369 121.65 424.019C124.78 424.319 127.89 424.799 131.02 425.129C139.47 426.019 147.92 427.029 156.39 427.699C162.48 428.179 168.61 428.169 175.37 428.519C176.36 428.929 176.71 429.189 177.5 429.919C181.21 434.869 183.14 440.069 183.65 445.389C185.8 467.589 188.68 489.729 190.08 511.999C190.53 519.119 191.75 526.129 192.88 533.809C192.61 545.819 193.74 557.059 195.78 568.879C195.62 579.049 196.69 588.459 197.95 597.859C198.21 599.789 198.55 601.729 198.19 603.669C197.58 606.969 196.18 609.889 192.49 610.369C187.6 611.009 185.83 607.279 183.87 603.079C181.26 586.239 178.46 570.059 178.65 552.989C178.51 546.559 178.27 540.699 177.67 534.879C176.24 520.789 174.66 506.719 173.08 492.649C172.84 490.479 172.09 488.359 171.84 486.189C171.2 480.609 170.58 475.019 170.2 469.419C169.99 466.439 168.93 464.779 165.76 464.919C164.53 464.969 163.3 464.929 162.07 464.929C124.42 464.919 86.7701 464.909 49.1201 464.899C47.1501 464.899 45.13 464.659 43.23 465.039C42.11 465.259 40.5001 466.309 40.2801 467.259C38.1301 476.479 36.2101 485.759 34.2501 495.019C33.2001 499.999 32.2801 505.019 31.1401 509.979C29.6701 516.379 27.9001 522.699 26.5201 529.119C24.0701 540.499 21.8901 551.939 19.4401 563.319C17.9101 570.439 16.0101 577.469 14.4001 584.579C13.0601 590.499 11.57 596.419 10.8 602.429C10.42 605.399 9.36007 607.659 7.26007 609.369C6.10007 610.309 3.85007 611.249 2.89007 610.729C1.73007 610.099 0.700031 607.839 0.850031 606.419C1.41003 601.359 2.42006 596.349 3.38006 591.339C4.75006 584.169 6.28007 577.039 7.64007 569.869C9.14007 561.989 10.5701 554.099 11.9501 546.199C13.5401 537.089 14.9601 527.949 16.6201 518.859C17.9801 511.449 19.6701 504.099 21.0701 496.689C22.6001 488.569 23.9 480.409 25.42 472.289C27.03 463.679 28.4801 455.019 30.6201 446.539C31.5501 442.849 31.1201 439.069 33.3701 435.319C37.7401 428.049 42.6001 421.919 50.8301 418.959C52.3701 418.409 53.95 417.869 51.16 415.779C37.61 405.629 31.7401 391.559 31.2701 374.889C30.8501 359.919 30.23 344.959 29.73 329.999C29.25 315.529 28.8401 301.049 28.3201 286.579C28.0101 278.009 27.53 269.439 27.3 260.249C32.26 257.269 33.7 260.759 34.6 264.109C36.25 270.229 38.7201 276.359 38.8101 282.639C38.9901 294.699 41.95 306.329 43.1 318.839C42.46 322.099 41.8801 324.749 42.3901 327.469C45.6601 344.589 47.2601 361.879 48.3701 379.269C49.3401 394.549 58.96 403.449 73.1 408.929C74.04 409.259 74.39 409.429 75.24 409.949C75.73 410.299 75.62 410.339 75.62 410.279C76.4 411.059 77.5201 411.569 78.37 412.949C78.68 413.249 78.5601 413.289 78.5801 413.229C79.2001 413.909 80.0501 414.289 81.2501 414.929C81.8701 415.329 82.1001 415.509 82.9601 416.259C84.2301 417.359 84.9501 417.729 86.1501 418.049C87.3701 418.499 88.0601 418.929 88.8801 419.869Z" fill="#2D3300"/>
<path d="M41.5301 320.949C40.4501 313.539 39.3001 306.689 38.1301 299.849C37.8501 298.199 37.09 296.499 37.3 294.919C38.8 283.769 33.9701 273.569 32.5801 262.859C32.4201 261.629 29.9101 260.709 28.0001 259.649C27.3501 258.049 27.1901 256.449 27.1401 254.259C27.9301 252.059 27.6201 250.389 27.3301 248.309C26.9701 245.339 26.86 242.809 26.79 239.639C26.78 235.349 27.3601 231.659 26.2101 227.589C26.8101 221.659 26.7701 215.809 28.8101 210.809C30.0601 207.739 34.4601 205.919 37.5301 203.649C38.4701 202.959 39.68 202.639 41.22 201.849C41.97 201.439 42.2701 201.319 42.8701 200.839C43.1801 200.479 43.15 200.569 43.1 200.549C46.19 198.109 49.9501 197.229 54.2601 196.239C55.6401 196.329 56.36 196.609 57.35 197.549C62.99 204.239 65.7401 211.439 67.0101 219.499C68.2101 227.159 70.55 234.639 71.91 242.289C73.44 250.899 74.4401 259.609 75.6501 268.279C75.7801 269.249 75.55 270.309 75.85 271.209C79.84 283.389 78.6 295.959 78.55 308.409C78.51 318.649 68.9701 329.909 58.9001 331.729C56.1801 332.219 53.1801 331.189 49.7601 330.899C43.1901 330.599 41.9701 326.339 41.5301 320.949Z" fill="#CDE801"/>
<path d="M339.29 307.46C340.03 298.9 333.92 294.41 328.68 289.48C327.81 288.66 326.72 288.08 325.54 286.97C327.94 283.46 331.58 284.02 334.94 283.97C344.78 283.82 354.62 284 364.46 283.88C372.33 283.79 373.09 283.16 373.11 275.55C373.21 246.51 373.27 217.47 373.08 188.43C373.01 178.64 369.26 174.85 359.38 173.64C356.2 173.25 352.99 173.35 349.79 173.35C319.53 173.34 289.26 173.37 259 173.32C255.34 173.32 251.59 173.76 247.58 171.53C246.03 168.45 245.04 165.79 244.05 162.59C286.8 162.07 329.54 162.1 372.29 162.13C374.01 162.13 375.74 162.02 377.45 162.16C382.66 162.57 385.81 165.86 385.81 171.21C385.85 213.97 385.85 256.72 385.8 299.48C385.8 304.56 383.45 306.83 378.26 306.92C365.5 307.13 352.73 307.25 339.29 307.46Z" fill="#A3A3A3"/>
<path d="M153.73 68.1896C147.47 64.7796 146.64 58.2896 143.59 53.2596C143.1 52.4596 143.04 51.4096 142.64 50.5396C140.21 45.2996 140.2 45.3096 135.54 48.3696C123.68 56.1596 111.84 52.1196 104.73 39.2796C100.34 31.3396 102.72 17.7596 107.81 12.0796C116.24 2.66955 132.67 2.99957 140.41 13.3796C143.72 17.8196 143.81 17.7196 148.93 15.4596C151.57 14.2896 154.16 12.9296 156.92 12.1396C160.61 11.0796 163.02 9.13957 164.73 5.52957C166.74 1.28957 171.22 0.809578 175.42 0.509578C176.37 0.439578 177.36 0.769569 178.32 0.969569C187.28 2.79957 189.19 6.17955 186.14 15.3596C185.77 18.0596 184.28 19.4696 182.71 20.5596C176.89 24.6196 173.98 29.5096 176.77 36.7796C177.71 39.2196 177.03 41.7396 174.36 42.9996C171.98 44.1196 170.12 43.0296 168.58 41.1896C167.48 39.8696 166.36 38.5196 164.79 37.7796C163.16 37.0096 161.43 37.0396 159.91 38.1096C158.27 39.2596 158.16 40.9396 158.63 42.7096C159.2 44.8696 160.28 46.7696 161.53 48.5996C166.59 56.0396 163.39 64.6796 153.73 68.1896Z" fill="#E6E2D2"/>
<path d="M450.18 522.17C460.47 519.65 470.09 515.93 480.05 514.42C492.25 512.57 504.71 510.04 517.1 513.79C518.15 514.11 519.04 514.92 520.01 515.5C519.39 516.2 518.88 517.04 518.15 517.59C501.18 530.34 484.17 543.03 467.21 555.79C456.66 563.73 446.21 571.83 435.65 579.76C430.43 583.69 430.36 583.59 424.13 579.21C422.89 573.13 427.97 571.96 430.97 569.67C435.18 566.45 437 563.43 435.11 557.87C433 551.64 431.65 545.1 429.9 538.72C428.35 533.04 429.97 529.15 435.12 526.57C439.73 524.27 444.35 522.04 450.18 522.17Z" fill="#CDE801"/>
<path d="M184.41 602.009C186.23 604.419 187.37 606.519 188.82 608.379C190.37 610.369 193.2 610.449 194.37 608.259C195.57 606.019 196.84 603.139 196.44 600.829C194.7 590.999 193.47 581.179 193.87 570.519C200.62 566.159 207.13 567.439 213.96 571.189C231.06 577.249 247.71 582.899 262.93 591.929C266.47 594.029 269.91 596.369 273.11 598.969C274.87 600.399 277.43 602.259 275.95 605.039C274.51 607.759 273.01 610.879 269.26 611.279C268.29 611.379 267.29 611.309 266.31 611.309C232.85 611.309 199.39 611.319 165.93 611.299C160.11 611.299 160.11 611.229 158.5 604.389C166.84 600.989 175.18 599.419 184.41 602.009Z" fill="#CDE801"/>
<path d="M153.34 68.4994C158.05 67.2894 158.35 62.2194 161.23 59.5994C162.05 58.8594 162.16 57.3794 162.89 56.4794C164.23 54.8394 164.39 53.9794 162.37 52.4694C159.5 50.3194 158.26 46.8394 156.63 43.6494C154.92 40.3194 155.43 38.1294 158.2 36.0994C160.31 34.5594 165.18 34.5394 166.99 36.2894C168.3 37.5494 169.02 39.4094 170.32 40.6794C171.15 41.4894 172.87 42.3794 173.63 42.0194C174.64 41.5494 175.71 39.8694 175.65 38.7694C175.53 36.6694 174.96 34.4394 174 32.5594C172.01 28.6894 173.56 26.0594 176.42 23.6594C179.35 21.1994 182.28 18.7294 185.66 16.1094C192.48 22.9694 203.89 40.3694 210.37 47.8394C209.13 50.9794 206.88 52.8994 204.33 55.2394C201.21 55.9994 198.56 55.7294 195.39 55.7894C193.36 55.8494 191.99 55.1794 190.53 55.0994C188.89 54.9994 187.25 55.0994 185.62 54.9194C187.2 55.2994 188.8 54.9994 190.93 55.2094C195.14 56.3194 198.92 55.5594 203.18 56.0094C207.47 58.4294 204.66 51.9194 208.18 55.2394C208.96 59.8294 209.66 63.9594 209.86 68.1194C210.09 72.9894 208.85 74.6294 204.33 76.3194C200.93 77.5894 197.15 78.1694 194.09 79.9794C189.53 82.6794 185.45 86.1894 180.72 89.5894C172.89 88.0494 165.5 86.2594 158.11 84.4894C154.42 83.6094 150.72 82.7594 146.72 81.4094C148.76 76.9294 151.1 72.9494 153.34 68.4994Z" fill="#DBB385"/>
<path d="M450.56 521.96C445.56 524.47 440.35 526.37 435.31 528.66C431.02 530.61 430.33 532.36 431.61 537.02C433.84 545.18 436.18 553.31 438.56 561.43C439.33 564.05 439.03 565.76 436.48 567.55C432.14 570.6 428.27 574.31 424.06 578.24C417.55 576.2 414.84 570.21 412.86 564.7C409.87 556.36 408.58 547.41 406.48 538.74C405.06 532.85 403.49 526.99 401.96 520.57C403.51 518.61 404.93 516.98 406.68 515.84C415.19 510.28 423.76 504.83 432.37 499.42C433.12 498.95 434.25 499.11 435.82 498.93C440.18 505.02 443.94 511.15 447.71 517.28C448.59 518.71 449.52 520.1 450.56 521.96Z" fill="#3E6D77"/>
<path d="M214.72 571.36C207.96 571.12 201.58 570.5 194.55 569.86C191.86 558.54 190.27 547.2 190.9 534.99C192.45 528.99 194.86 524.19 199.33 520.08C201.4 520.18 203.23 520.11 204.58 520.88C213.7 526.03 222.72 531.36 232.07 537.03C228.89 544.46 225.46 551.51 221.9 558.5C219.75 562.71 217.37 566.82 214.72 571.36Z" fill="#3E6D77"/>
<path d="M184.97 601.759C176.59 602.889 168.23 603.359 159.23 603.799C156.58 589.559 161.34 577.309 169.39 565.949C172.43 561.649 175.18 557.149 178.48 552.569C180.59 561.309 182.01 570.189 182.2 579.329C182.37 586.609 184.01 593.849 184.97 601.759Z" fill="#3E6D77"/>
<path d="M366.84 491.529C368.44 483.299 370.76 475.179 372.54 466.939C375.25 454.419 375.68 441.549 373.59 429.089C371.81 418.489 365.26 410.209 354.06 406.989C353.14 406.729 352.27 406.249 350.87 405.629C349.9 404.989 349.71 404.479 350.06 403.569C365.56 405.039 372.62 415.439 376.75 428.629C377.59 431.319 376.87 434.469 377.08 437.399C378.04 450.659 376.19 463.689 373.76 476.629C372.83 481.569 370.69 486.279 368.68 491.359C367.95 491.619 367.63 491.609 366.84 491.529Z" fill="#DEE7F9"/>
<path d="M55.3401 197.05C51.4001 198.55 47.8201 199.57 43.6401 200.55C43.2401 193.66 47.54 188.39 50.16 182.5C53.61 174.73 57.66 167.24 61.92 159.47C62.38 160.41 62.38 161.51 62.41 163.16C61.43 174.91 57.9701 185.62 55.3401 197.05Z" fill="#E0DBC7"/>
<path d="M204.995 71.9172C200.636 70.0509 199.668 66.1673 199.136 61.6726C197.315 58.7202 204.556 62.9234 200.614 58.7034C201.335 55.0791 203.848 54.429 207.132 54.333C208.831 55.9619 210.135 57.3895 211.224 58.9756C214.6 63.9092 214.133 66.4995 209.252 69.7245C208.059 70.5058 206.664 70.984 204.995 71.9172Z" fill="#E1FF01"/>
<path d="M333.41 320.25C333.94 316.91 335.12 313.54 336.79 309.93C342.22 309.65 346.34 311.5 350.03 315.45C350.88 316.22 351.07 316.76 350.69 317.77C348.01 320.21 345.16 320.51 342.14 320.36C339.47 320.22 336.77 320.26 333.41 320.25Z" fill="#DBB385"/>
<path d="M351.07 318.28C350.4 317.62 350.39 317.1 350.37 316.2C359.95 315.78 369.54 315.739 379.13 315.729C380.09 315.729 381.07 315.85 382 316.08C382.29 316.15 382.67 316.75 382.64 317.07C382.6 317.45 382.2 318.059 381.89 318.099C380.46 318.319 379 318.469 377.55 318.469C368.94 318.479 360.33 318.44 351.07 318.28Z" fill="#263471"/>
<path d="M25.8 227.779C26.76 227.829 28.2201 228.499 28.2501 229.219C28.3501 232.289 28.03 235.379 27.35 238.729C26.43 235.469 26.03 231.939 25.8 227.779Z" fill="#2D3300"/>
<path d="M26.9801 248.449C27.3901 249.629 27.7101 251.379 27.6301 253.399C27.1201 252.119 27.0101 250.569 26.9801 248.449Z" fill="#2D3300"/>
<path d="M42.8201 200.5C43.0601 200.95 42.7901 201.33 42.0101 201.57C41.7801 201.08 42.0501 200.75 42.8201 200.5Z" fill="#5579C3"/>
<path d="M41.1101 320.619C42.8901 324.359 44.6401 328.009 48.7201 330.679C48.4201 342.649 49.3701 354.169 53.8301 365.749C55.6801 370.849 55.6001 375.869 58.2001 380.609C58.8301 381.079 58.9901 381.279 59.3201 381.569C58.1301 384.329 60.2101 386.559 60.6101 389.399C60.9001 389.779 60.8901 389.649 60.8301 389.639C63.2801 391.919 63.9101 395.429 66.4901 398.269C66.8401 398.619 66.8101 398.499 66.7501 398.479C68.8401 400.979 70.5301 403.809 72.4001 407.099C72.6901 407.499 72.6901 407.389 72.6301 407.379C73.3801 407.939 74.2101 408.489 74.2901 409.899C56.4801 406.429 47.3001 395.229 46.2101 378.059C45.6401 369.049 44.9201 360.129 43.5501 351.189C42.0201 341.159 41.5401 330.969 41.1101 320.619Z" fill="#F7F8F5"/>
<path d="M131.63 94.1898C129.75 94.1398 128.49 94.2498 127.32 93.9898C126.87 93.8898 126.48 92.9798 126.31 92.3698C126.25 92.1398 126.87 91.4498 127.21 91.4298C128.92 91.3098 130.72 90.9998 132.34 91.3898C140.42 93.3598 148.57 94.5298 156.91 94.2498C157.71 94.2198 158.54 94.9498 159.36 95.3198C158.52 95.9198 157.71 96.9898 156.84 97.0398C148.49 97.5798 140.35 96.1098 131.63 94.1898Z" fill="#254147"/>
<path d="M55.4301 197.629C56.2801 190.499 57.47 183.439 58.92 176.439C59.74 172.489 61.0001 168.629 62.2601 164.219C63.2201 164.069 64.6901 164.589 64.6501 164.769C64.0001 167.579 62.92 170.309 62.42 173.139C61.04 180.999 57.9501 188.529 57.7801 197.329C57.0701 197.919 56.4701 197.829 55.4301 197.629Z" fill="#254147"/>
<path d="M199.76 519.3C197.15 524.56 194.5 529.26 191.4 534.14C189.08 524.74 187.63 515.13 187.78 505.31C187.83 501.71 186.74 498.1 186.4 494.47C184.88 478.49 183.81 462.45 181.78 446.54C181.07 440.99 178.05 435.73 176.05 429.76C181.7 428.43 187.43 429.04 193.78 428.84C204.98 427.58 215.65 426.9 225.73 423.15C228.66 422.06 230.93 422.95 233.66 424.84C238.01 429.81 236.03 434.19 233.69 439.15C233.32 440.47 233.08 441.22 232.48 442.43C232.13 442.9 232.26 442.88 232.27 442.82C230.8 444.25 231.06 446.51 229.54 448.48C229.18 448.83 229.3 448.8 229.31 448.74C227.86 450.17 228.11 452.41 226.6 454.37C226.24 454.71 226.36 454.69 226.37 454.63C224.91 456.06 225.16 458.31 223.64 460.28C223.28 460.62 223.4 460.6 223.41 460.54C219.42 471.42 212.71 481.15 208.87 492.75C208.54 493.19 208.65 493.13 208.66 493.07C206.96 494.36 207.13 496.59 205.88 498.7C205.57 499.09 205.68 499.04 205.68 498.98C204.82 499.72 204.27 500.69 203.9 502.26C203.54 503.2 203.34 503.75 202.88 504.63C202.6 504.97 202.72 504.94 202.73 504.88C201.25 506.31 201.51 508.58 200.04 510.59C197.37 513.55 198.48 516.14 199.76 519.3Z" fill="#FCFCFC"/>
<path d="M329.53 451.19C318.75 451.73 307.91 451.78 296.41 451.73C297.21 448.08 298.74 444.56 300.11 440.98C302.83 433.88 305.45 426.75 308.59 419.42C314.94 428.31 320.81 437.41 326.69 446.51C327.59 447.91 328.54 449.3 329.53 451.19Z" fill="#FCFCFC"/>
<path d="M247.03 171.669C284.17 171.069 321.29 170.949 358.42 171.159C362.39 171.179 366.53 172.769 370.27 174.369C373.28 175.659 374.67 178.809 375.14 182.069C375.38 183.759 375.23 185.509 375.23 187.229C375.24 217.969 375.26 248.709 375.26 279.459C375.26 286.489 376.21 286.429 368.71 286.419C354.69 286.399 340.68 286.409 326 286.479C321.6 284.409 317.73 282.459 314.15 280.089C302.12 272.119 290.02 264.209 278.27 255.829C272.06 251.399 265.2 247.189 262.72 239.209C261.22 234.379 260 229.439 258.87 224.509C257.03 216.509 255.37 208.469 253.63 200.449C252.4 194.789 251.23 189.119 249.92 183.469C249.06 179.699 247.99 175.979 247.03 171.669Z" fill="#E5E5E5"/>
<path d="M182.94 181.049C184.52 185.269 185.95 189.099 186.91 193.049C188.39 199.109 189.61 205.239 190.79 211.369C190.97 212.309 190.34 213.409 190.09 214.429C189.45 213.429 188.52 212.509 188.22 211.409C187.13 207.479 185.76 203.539 185.41 199.519C185 194.859 183.74 190.559 182.14 186.249C181.73 185.159 181.97 183.829 181.88 181.989C182.09 181.149 182.34 180.939 182.94 181.049Z" fill="#254147"/>
<path d="M214.41 277.939C220.39 282.929 226.27 288.499 232.17 294.599C230.45 294.439 228.27 294.209 227.03 293.009C222.43 288.529 216.48 285.159 214.41 277.939Z" fill="#254147"/>
<path d="M205.65 264.93C200.52 260.57 199.93 253.71 198.22 247.3C198.09 246.79 198.63 246.1 198.86 245.5C199.27 246.06 199.84 246.57 200.06 247.19C202.01 252.84 203.9 258.51 205.65 264.93Z" fill="#5E5C54"/>
<path d="M302.99 330.029C296.65 331.449 291.06 328.899 285.56 325.069C291.21 326.219 296.99 327.889 302.99 330.029Z" fill="#254147"/>
<path d="M285.29 324.139C280.26 325.219 276.19 322.769 272.25 319.159C276.45 320.329 280.77 321.999 285.29 324.139Z" fill="#254147"/>
<path d="M235.22 298.579C239.2 297.749 241.65 300.299 244.04 303.449C241.1 302.359 238.18 300.729 235.22 298.579Z" fill="#254147"/>
<path d="M249.89 307.479C252.94 308.519 255.91 310.129 258.83 312.299C255.79 311.259 252.8 309.649 249.89 307.479Z" fill="#254147"/>
<path d="M205.75 265.43C209.93 266.42 209.86 270.52 211.55 273.88C207.07 273.76 207.43 269.41 205.54 266.22C205.5 265.69 205.67 265.52 205.75 265.43Z" fill="#5E5C54"/>
<path d="M311.79 331.439C309.02 335.619 306.32 332.519 303.33 330.949C305.93 330.629 308.71 330.799 311.79 331.439Z" fill="#202844"/>
<path d="M271.95 318.249C269.62 318.669 266.83 319.459 264.9 316.199C267.08 316.389 269.4 317.089 271.95 318.249Z" fill="#254147"/>
<path d="M249.92 306.95C247.81 306.83 245.34 307.84 244.06 304.52C244.02 303.98 244.03 303.97 244.03 303.96C245.89 304.62 247.75 305.29 249.78 306.43C249.96 306.91 249.94 306.94 249.92 306.95Z" fill="#254147"/>
<path d="M264.78 315.17C263.69 315.74 262.57 315.76 260.88 315.8C259.88 315.11 259.43 314.4 258.88 313.28C258.78 312.87 258.8 312.84 258.81 312.82C260.94 312.97 263.43 311.88 264.78 315.17Z" fill="#254147"/>
<path d="M183.21 180.9C183.3 181.38 182.57 181.36 182.21 181.37C180.9 180.24 179.96 179.11 179.11 177.38C182.09 176.29 181.86 179.15 183.21 180.9Z" fill="#373C53"/>
<path d="M211.54 274.409C212.51 275.039 213.47 275.699 214.48 276.849C214.52 277.349 214.48 277.389 214.45 277.419C213.46 276.789 212.49 276.129 211.5 274.959C211.5 274.439 211.54 274.429 211.54 274.409Z" fill="#254147"/>
<path d="M176.09 174.46C177.14 174.53 178.15 175.15 179.19 176.26C179.21 176.75 179.08 176.88 179.01 176.94C177.98 176.35 177.02 175.68 176.09 174.46Z" fill="#373C53"/>
<path d="M232.22 295.109C233.24 295.749 234.25 296.379 235.23 297.529C235.19 298.039 235.17 298.059 235.17 298.069C234.15 297.429 233.14 296.789 232.18 295.629C232.21 295.119 232.22 295.109 232.22 295.109Z" fill="#254147"/>
<path d="M176.06 173.989C175.19 173.749 174.35 173.489 173.5 173.229C174.27 173.159 175.05 173.089 175.97 173.479C176.12 173.919 176.08 173.969 176.06 173.989Z" fill="#373C53"/>
<path d="M349.77 403.1C350.36 403.75 350.36 404.22 350.36 405.04C348.3 405.23 346.24 405.07 343.64 404.9C342.92 404.63 342.74 404.36 342.79 403.66C345.08 403.13 347.12 403.03 349.77 403.1Z" fill="#F7F8F5"/>
<path d="M342.52 403.17C343.04 403.51 343.05 403.79 343.08 404.48C342.93 405.07 342.77 405.39 342.59 405.39C341.48 405.44 340.37 405.43 339.26 405.43C340.17 404.66 341.09 403.88 342.52 403.17Z" fill="#DEE7F9"/>
<path d="M140.55 428.069C154.01 428.209 163.85 433.019 169 445.329C169.46 446.439 169.92 447.589 170.09 448.759C170.52 451.609 169.85 453.639 166.29 453.199C165.32 453.079 164.33 453.189 163.35 453.189C123.81 453.199 84.2701 453.209 44.7401 453.199C38.7201 453.199 38.2401 452.919 40.3501 447.249C43.2201 439.559 48.0801 433.739 56.3101 430.589C61.3301 428.669 66.1601 428.099 71.3101 428.099C94.1601 428.099 117 428.079 140.55 428.069Z" fill="#FEFDFC"/>
<path d="M83.4001 418.09C84.1201 417.88 84.9001 418.13 85.8801 418.75C85.2201 418.94 84.3401 418.74 83.4001 418.09Z" fill="#B97A5C"/>
<path d="M81.6401 416.669C81.9801 416.449 82.4501 416.559 82.9901 417.039C83.0501 417.399 82.3301 417.469 82.3301 417.469C82.3301 417.469 81.7801 417.009 81.6401 416.669Z" fill="#B97A5C"/>
<path d="M199.785 58.0437C200.865 58.409 201.318 58.5667 201.739 58.7873C203.297 59.6047 204.851 60.4316 206.406 61.2584C204.422 61.3304 202.448 61.4057 199.909 61.3376C195.418 59.7005 191.484 58.1941 187.342 56.1916C187.756 54.5461 188.731 55.182 190.03 55.0409C193.352 55.8688 196.245 56.8651 199.785 58.0437Z" fill="#254147"/>
<path d="M189.829 54.675C189.667 55.1694 188.873 55.4752 187.611 55.7243C184.936 54.7404 182.734 53.826 180.568 52.8393C180.184 52.6635 179.96 52.1513 179.667 51.8059C180.13 51.7551 180.651 51.5659 181.051 51.6945C183.772 52.5777 186.485 53.5431 189.829 54.675Z" fill="#254147"/>
<path d="M164.27 44.8192C163.84 45.2192 163.15 45.1191 163.03 44.8091C162.5 43.3791 162.1 41.8991 161.75 40.4091C161.73 40.3291 162.5 40.0491 162.9 39.8691C163.36 41.3291 163.81 42.7792 164.27 44.8192Z" fill="#254147"/>
<path d="M164.26 45.4295C164.62 45.6395 164.98 45.8495 165.34 46.0595C165.03 46.0695 164.72 46.0695 164.34 45.7495C164.27 45.4195 164.27 45.4195 164.26 45.4295Z" fill="#254147"/>
<path fill-rule="evenodd" clip-rule="evenodd" d="M173 173.5C173 172.672 173.672 172 174.5 172C177.314 172 182.746 174.122 184.939 181.577C186.206 185.884 188.97 197.95 191.775 210.228C191.867 210.633 191.96 211.038 192.052 211.442C194.779 223.381 197.507 235.323 198.947 240.605C199.354 242.096 199.749 243.611 200.149 245.143C202.743 255.089 205.517 265.725 212.666 274.556C220.991 284.84 241.799 300.725 260.699 310.673C261.11 310.889 261.524 311.107 261.939 311.326C271.126 316.162 281.191 321.461 289.994 325.446C294.594 327.529 298.81 329.234 302.348 330.324C305.957 331.437 308.615 331.827 310.224 331.526C316.528 330.344 324.056 328.067 327.026 327.077C327.812 326.815 328.661 327.24 328.923 328.026C329.185 328.812 328.76 329.661 327.974 329.923C324.944 330.933 317.272 333.256 310.776 334.474C308.385 334.923 305.105 334.313 301.464 333.191C297.752 332.047 293.406 330.284 288.756 328.179C279.87 324.156 269.732 318.819 260.572 313.996C260.146 313.772 259.723 313.549 259.301 313.327C240.201 303.275 219.009 287.16 210.334 276.444C202.744 267.068 199.8 255.74 197.224 245.828C196.83 244.313 196.445 242.831 196.053 241.395C194.595 236.05 191.859 224.068 189.146 212.193C189.048 211.761 188.949 211.328 188.85 210.897C186.03 198.55 183.294 186.616 182.061 182.423C180.254 176.278 176.019 175 174.5 175C173.672 175 173 174.328 173 173.5Z" fill="#254147"/>
</svg>
