<svg width="606" height="640" viewBox="0 0 606 640" fill="none" xmlns="http://www.w3.org/2000/svg">
<path d="M108 196.54C108 97.383 188.141 17 287 17C385.859 17 466 97.3829 466 196.54V560H108V196.54Z" fill="#E0DBC7"/>
<path d="M371.742 505.12C367.349 504.932 363.758 504.858 360.181 505.061C359.335 505.11 358.118 505.872 357.782 506.629C353.809 515.484 349.975 524.399 345.909 533.576C343.524 534.951 341.179 535.065 338.79 535.065C315.588 535.06 292.391 535.08 269.19 535.035C266.711 535.03 264.075 535.386 261.799 532.962C249.872 525.007 246.527 513.505 246.473 500.51C246.389 481.077 246.409 461.65 246.369 441.778C247.472 440.729 248.561 441.085 249.53 441.61C259.543 447.002 270.209 448.006 281.325 446.71C286.579 446.097 287.954 447.23 289.745 452.291C292.149 459.078 295.35 465.361 301.009 470.09C304.903 473.345 309.315 475.131 314.47 475.151C317.107 475.161 319.966 474.894 319.991 479.153C320.006 481.449 322.44 481.132 324.152 481.186C329.113 481.355 333.764 479.435 338.676 479.059C343.885 478.663 348.362 478.96 351.42 484.095C353.305 487.256 356.461 487.232 359.864 486.371C366.573 484.674 372.786 481.176 379.905 480.949C382.685 480.86 385.559 480.781 387.469 482.913C390.981 486.826 394.781 485.634 398.728 484.169C404.18 482.141 409.464 479.588 415.375 479.039C418.304 478.767 421.183 478.945 423.444 481.008C426.452 483.749 429.578 483.289 433.135 482.28C439.774 480.395 446.349 476.457 453.225 477.649C461.18 479.024 468.759 478.52 476.57 477.521C480.498 477.021 484.491 478.149 487.721 480.781C492.292 484.496 491.857 489.398 486.796 492.372C482.606 494.835 477.941 495.741 473.231 496.354C456.441 498.541 439.552 499.822 422.732 501.697C416.756 502.36 410.715 502.033 404.101 503.156C406.02 503.869 407.356 503.705 408.613 503.532C424.76 501.286 441.065 500.594 457.227 498.481C463.5 497.66 469.778 496.854 476.056 496.072C480.063 495.572 483.739 494.286 487.177 492.263C492.638 489.052 492.698 483.027 487.212 479.791C481.676 476.526 475.561 476.848 469.669 478.164C465.657 479.059 462.125 479.232 458.123 477.882C452.305 475.923 446.527 478.114 440.971 479.826C437.973 480.751 434.852 481.27 431.933 482.596C429.756 483.586 427.08 483.67 425.235 481.755C420.797 477.159 415.519 478.579 410.567 479.856C406.49 480.904 402.478 482.458 398.56 484.159C394.89 485.752 391.461 485.931 388.087 482.774C383.724 478.693 378.376 480.914 373.627 481.928C369.2 482.873 364.861 484.555 360.557 486.094C356.486 487.548 353.31 486.702 351.088 483.135C348.763 479.395 345.493 478.376 341.357 478.762C336.628 479.203 331.968 480.019 327.303 480.899C321.802 481.933 321.04 481.216 320.451 475.69C318.947 474.518 317.127 474.918 315.45 474.943C307.089 475.067 300.881 471.228 296.201 464.614C293.074 460.191 290.63 455.412 289.25 450.119C288.711 448.041 288.741 446.037 291.076 445.459C299.659 443.331 308.034 440.363 317.231 439.245C324.191 443.035 329.974 448.006 337.162 450.811C352.602 456.842 368.546 460.424 385.03 461.873C393.524 462.62 401.959 464.307 410.537 463.703C423.805 462.773 437.019 461.586 449.446 456.194C459.142 451.989 467.166 445.874 472.633 436.683C473.612 435.03 474.611 433.427 476.932 432.582C484.421 431.83 491.52 432.22 499.07 432.215C508.919 431.958 518.319 432.146 527.718 432.126C529.44 432.121 531.176 432.136 533.11 433.279C555.882 438.152 569.659 452.078 577.604 473.098C589.012 503.3 570.139 540.165 543.9 551.667C530.513 557.534 516.562 561.358 502.122 561.616C469.649 562.189 437.157 561.799 404.16 561.799C403.616 558.593 403.072 555.392 402.394 551.811C400.875 550.054 401.044 548.259 400.925 546.537C400.104 534.234 398.842 521.96 398.204 509.647C398.006 505.833 396.512 504.507 392.693 504.413C386.485 504.264 380.395 505.536 373.8 505.427C373.108 505.392 372.831 505.368 371.742 505.12Z" fill="#122023"/>
<path d="M476.951 433.17C474.582 436.391 472.593 439.379 470.362 442.169C459.548 455.704 444.622 461.057 428.109 463.1C422.024 463.852 415.91 464.945 409.82 464.906C393.91 464.807 378.06 463.525 362.6 459.479C353.686 457.144 344.638 454.947 336.163 451.455C329.722 448.798 324.087 444.187 317.79 440.314C303.805 431.216 293.886 419.511 291.417 402.85C288.528 383.324 288.988 363.748 291.214 344.153C293.005 328.392 296.236 312.912 299.377 297.398C299.852 295.058 300.48 292.768 301.316 290.542C301.949 288.855 302.874 287.138 305.076 287.86C307.129 288.533 307.312 290.413 306.896 292.219C305.482 298.378 304.349 304.596 303.102 310.508C310.176 302.306 317.562 294.123 328.767 290.923C336.712 288.652 344.821 289.097 352.785 290.393C358.158 291.269 363.882 291.605 368.7 295.583C373.093 306.308 377.516 316.627 381.32 327.17C384.501 335.99 387.227 345.004 389.631 354.072C390.868 358.732 390.962 363.694 391.6 368.774C395.82 369.131 400.208 369.274 404.522 369.907C429.232 373.548 451.83 381.83 469.496 400.411C472.034 403.077 473.771 406.506 476.165 409.746C481.706 417.394 480.405 425.087 476.951 433.17Z" fill="#79AEB9"/>
<path d="M368.938 295.523C357.574 291.66 345.815 289.77 333.764 291.031C326.853 291.754 320.65 294.925 315.564 299.669C310.35 304.532 305.531 309.815 300.713 314.743C302.286 307.545 304.027 299.931 305.541 292.273C305.774 291.101 304.977 289.72 304.656 288.439C303.904 289.384 302.672 290.235 302.474 291.284C298.615 311.492 293.658 331.592 291.482 351.984C289.562 369.962 289.592 388.355 293.129 406.337C294.92 415.44 300.109 422.964 306.649 429.47C310.122 432.928 313.763 436.218 317.409 439.878C311.131 441.763 304.774 443.366 298.413 444.939C295.39 445.686 292.352 446.374 287.855 447.438C292.387 454.809 295.914 462.081 300.871 468.185C306.377 474.968 315.307 473.741 323.618 474.488C322.544 476.605 321.842 477.995 320.709 480.232C323.469 480.068 325.438 480.083 327.368 479.811C332.359 479.109 337.316 478.124 342.323 477.545C346.349 477.075 349.837 478.277 351.816 482.196C353.844 486.208 356.723 486.45 360.76 485.099C367.271 482.923 373.924 481.013 380.662 479.771C383.235 479.297 387.301 480.083 388.761 481.869C391.927 485.738 395.019 484.407 398.393 483.373C404.354 481.552 410.236 479.47 416.227 477.763C419.769 476.754 422.831 477.525 425.572 480.543C426.709 481.79 429.638 482.28 431.469 481.864C436.623 480.692 441.541 478.238 446.725 477.486C451.504 476.793 456.501 477.718 461.408 477.807C463.545 477.847 465.722 477.788 467.815 477.397C474.528 476.14 481.182 475.225 487.637 478.441C493.915 481.567 494.697 488.567 488.751 492.367C485.149 494.667 480.87 496.671 476.695 497.19C453.666 500.04 430.578 502.409 407.5 504.878C405.224 505.12 402.904 504.912 400.604 504.912C400.485 504.497 400.366 504.076 400.248 503.661C401.296 503.151 402.306 502.281 403.389 502.182C414.718 501.143 426.071 500.336 437.395 499.248C446.671 498.358 455.932 497.249 465.178 496.077C470.318 495.424 475.433 494.509 480.529 493.564C482.176 493.257 484.071 492.861 485.253 491.823C487.064 490.225 489.76 487.825 489.512 486.143C489.196 483.972 486.683 481.602 484.521 480.326C479.762 477.516 474.533 478.535 469.264 479.208C465.262 479.722 461.052 478.441 456.995 478.742C451.277 479.163 445.583 480.138 439.938 481.196C437.054 481.74 434.368 483.378 431.478 483.823C428.204 484.328 425.359 484.1 421.98 481.716C419.126 479.697 413.639 480.494 409.573 481.315C404.116 482.413 398.956 484.916 393.559 486.415C392.021 486.841 389.211 486.475 388.493 485.431C384.674 479.885 379.302 481.998 374.681 482.661C369.947 483.343 365.48 485.733 360.8 487.009C354.008 488.859 352.612 488.36 349.229 483.526C348.036 481.825 345.192 480.306 343.149 480.36C336.406 480.548 329.693 481.686 322.945 482.082C318.537 482.339 317.498 480.588 319.264 476.472C298.981 477.877 292.461 463.629 286.767 447.833C273.187 448.773 259.281 450.035 246.696 441.422C239.028 432.517 231.662 423.751 227.304 412.858C221.476 398.279 221.041 383.324 223.994 368.225C226.161 357.149 228.738 346.117 231.85 335.268C236.619 318.626 245.133 303.874 255.932 290.354C264.03 280.217 273.89 272.208 284.798 265.401C287.005 264.025 289.666 263.377 292.481 262.393C309.425 269.185 327.185 271.599 344.326 276.314C345.231 276.561 346.241 276.497 347.111 276.848C352.083 278.886 356.62 278.5 360.953 274.582C363.857 281.434 366.395 288.301 368.938 295.523Z" fill="#F7EFD7"/>
<path d="M300.871 468.185C295.914 462.081 292.387 454.809 287.855 447.438L286.767 447.833C292.461 463.629 298.981 477.877 319.264 476.472C317.498 480.588 318.537 482.339 322.945 482.082C329.693 481.686 336.406 480.548 343.149 480.36C345.192 480.306 348.036 481.825 349.229 483.526C352.612 488.36 354.007 488.859 360.8 487.009C365.48 485.733 369.947 483.343 374.681 482.661C379.302 481.998 384.674 479.885 388.493 485.431C389.211 486.475 392.021 486.841 393.559 486.415C398.956 484.916 404.116 482.413 409.573 481.315C413.639 480.494 419.126 479.697 421.98 481.716C425.359 484.1 428.203 484.328 431.478 483.823C434.367 483.378 437.054 481.74 439.938 481.196C445.582 480.138 451.276 479.163 456.995 478.743C461.052 478.441 465.262 479.722 469.264 479.208C474.533 478.535 479.762 477.516 484.521 480.326C486.683 481.602 489.196 483.972 489.512 486.143C489.76 487.825 487.063 490.225 485.253 491.823C484.07 492.861 482.176 493.257 480.528 493.564C475.433 494.509 470.318 495.424 465.178 496.077C455.932 497.249 446.671 498.358 437.395 499.248C426.071 500.336 414.718 501.143 403.389 502.182C402.306 502.281 401.296 503.151 400.248 503.661C400.366 504.076 400.485 504.497 400.604 504.912C402.904 504.912 405.224 505.12 407.5 504.878C430.578 502.409 453.666 500.04 476.694 497.19C480.87 496.671 485.149 494.667 488.75 492.367C494.697 488.567 493.915 481.567 487.637 478.441C481.181 475.225 474.528 476.14 467.814 477.397C465.722 477.788 463.545 477.847 461.408 477.808C456.501 477.718 451.504 476.793 446.725 477.486C441.541 478.238 436.623 480.692 431.468 481.864C429.638 482.28 426.709 481.79 425.572 480.543C422.831 477.526 419.769 476.754 416.227 477.763C410.236 479.47 404.354 481.552 398.392 483.373C395.019 484.407 391.927 485.738 388.76 481.869C387.301 480.083 383.235 479.297 380.662 479.771C373.924 481.013 367.27 482.923 360.76 485.099C356.723 486.45 353.844 486.208 351.816 482.196C349.837 478.277 346.349 477.075 342.322 477.545C337.316 478.124 332.359 479.109 327.368 479.811C325.438 480.083 323.469 480.068 320.709 480.232C321.842 477.995 322.544 476.605 323.618 474.488C315.307 473.741 306.377 474.968 300.871 468.185Z" fill="#E1FF01"/>
<path d="M261.398 532.923C263.555 532.873 265.534 533.472 267.523 533.477C293.272 533.586 319.027 533.605 345.246 533.749C342.075 542.104 338.563 550.42 334.679 558.558C333.991 559.998 331.75 561.601 330.222 561.606C298.061 561.784 265.905 561.863 233.744 561.685C222.95 561.625 211.982 554.18 210.889 540.022C210.058 529.232 207.376 518.591 205.788 507.846C203.627 493.208 201.781 478.52 199.679 463.877C198.175 453.433 196.399 443.03 194.86 432.591C192.614 417.33 190.497 402.053 188.281 386.787C186.901 377.278 185.229 367.81 184.125 358.272C183.779 355.313 184.13 351.826 185.431 349.214C188.088 343.876 192.798 342.797 198.17 345.761C203.236 348.551 206.199 352.959 207.367 358.668C209.662 369.887 212.165 381.068 214.421 392.298C216.613 403.211 218.542 414.178 220.704 425.097C222.742 435.406 224.973 445.681 227.036 455.986C229.411 467.834 231.632 479.712 234.031 491.555C236.272 502.632 238.484 513.723 241.036 524.73C242.397 530.583 246.067 533.205 252.227 533.467C255.21 533.59 258.222 533.363 261.398 532.923Z" fill="#6D4F2C"/>
<path d="M494.103 390.289C495.28 383.319 496.754 376.591 498.308 369.878C501.197 357.376 504.076 344.875 507.069 332.399C509.335 322.95 511.888 313.57 514.119 304.116C516.924 292.224 519.466 280.267 522.252 268.369C524.072 260.602 525.769 252.776 528.218 245.197C529.707 240.586 533.966 238.691 538.765 238.672C548.253 238.632 557.742 238.706 567.577 238.929C564.663 254.616 561.022 270.026 557.465 285.451C551.884 309.677 546.502 333.947 540.907 358.168C538.874 366.964 536.811 375.755 534.797 384.555C533.556 389.982 532.175 391.135 526.654 391.199C517.309 391.308 507.96 391.249 498.61 391.219C497.185 391.214 495.75 391.204 494.103 390.289Z" fill="#E0DBC7"/>
<path d="M346.043 130.089C349.199 131.36 352.024 132.636 355.235 134.076C360.276 129.747 364.317 129.614 368.399 134.254C374.677 129.495 377.511 129.925 383.868 136.525C388.484 132.765 392.931 128.798 397.735 125.325C402.776 121.684 406.031 122.535 409.256 127.759C410.315 129.47 411.196 131.296 412.363 133.453C415.208 132.859 418.117 131.662 420.961 131.805C424.32 131.969 428.199 132.468 430.801 134.309C434.214 136.718 433.185 140.799 431.484 144.237C429.44 148.378 427.274 152.459 425.048 156.788C425.701 157.05 426.507 157.495 427.373 157.703C433.631 159.207 435.293 161.735 432.631 167.449C429.836 173.455 424.934 177.383 418.028 177.67C411.592 177.937 406.061 176.007 402.806 169.452C400.134 167.315 400.787 163.546 397.606 161.394C393.342 163.956 388.509 165.579 383.156 164.174C381.825 163.823 381.315 164.956 380.653 165.876C376.176 172.089 372.065 173.247 364.342 170.214C361.977 176.512 356.649 178.214 350.159 178.506C331.142 178.832 323.405 198.615 337.039 212.62C335.555 218.834 329.238 220.937 323.044 217.276C315.732 214.218 313.897 209.227 317.612 202.583C309.257 196.557 308.416 191.694 314.416 184.041C308.45 177.007 308.218 173.321 312.749 168.616C312.324 164.253 311.705 160.493 311.76 156.743C311.775 155.734 313.833 154.755 315.262 153.444C315.426 152.722 315.431 152.306 315.678 151.599C316.306 149.872 316.786 148.408 318.958 148.18C320.091 148.047 320.917 147.997 322.015 147.829C322.678 147.74 323.252 148.175 323.371 147.824C323.524 147.369 322.955 146.924 322.797 146.083C322.752 145.316 322.841 144.89 323.247 144.247C325.161 143.129 327.813 144.049 328.258 140.784C328.476 139.181 331.024 139.81 332.364 138.939C333.176 137.806 332.023 136.535 332.696 135.065C333.596 134.106 334.487 133.977 335.768 134.041C336.545 134.19 336.975 134.318 337.712 134.556C339.013 134.907 339.839 134.798 340.275 133.71C341.259 131.271 343.367 130.489 346.043 130.089Z" fill="#122023"/>
<path d="M314.747 148.061C313.234 147.107 312.031 146.196 311.66 145.914C309.38 148.581 307.732 152.202 305.422 152.692C303.443 153.112 299.867 150.466 298.481 148.249C295.82 143.985 292.664 143.871 288.483 144.876C285.139 145.677 281.656 146.191 278.218 146.261C274.033 146.34 271.683 143.396 272.826 139.419C273.815 135.966 275.567 132.735 277.169 128.966C275.304 127.383 272.415 125.631 270.54 123.118C268.74 120.704 266.558 117.182 267.107 114.718C268.037 110.563 272.208 108.717 276.556 108.272C278.421 108.079 280.291 107.921 282.275 107.738C282.656 103.276 283.155 99.0856 283.324 94.8855C283.482 90.913 285.56 89.9088 288.943 90.8833C291.605 91.6501 294.232 92.6198 296.765 93.7477C301.316 95.776 304.349 94.7717 306.209 90.3194C306.877 88.7264 307.431 87.084 307.955 85.4416C309.296 81.2564 311.002 80.4896 315.069 82.503C318.255 84.0811 321.362 85.8175 324.453 87.455C327.748 83.1165 329.049 76.2252 335.906 77.0711C343.376 77.9913 346.285 84.2147 348.462 91.1455C350.638 91.1455 352.973 91.007 355.288 91.1802C358.786 91.4374 360.339 93.8268 358.925 96.993C357.149 100.965 355.056 104.794 353.651 107.59C354.556 110.978 356.392 113.947 355.758 116.237C354.363 121.303 350.564 124.642 344.632 125.537C342.668 126.626 345.607 129.352 344.954 131.444C344.568 131.786 340.299 130.485 339.784 130.593C338.731 130.455 338.018 130.034 336.935 130.603C339.24 130.816 340.269 132.147 340.571 134.037C340.769 135.288 339.864 135.545 338.523 135.451C337.81 135.253 337.449 135.061 336.871 134.635C335.649 134.358 334.659 134.526 333.472 134.14C333.056 134.081 332.893 134.071 332.512 134.071C331.963 134.135 331.785 134.328 331.77 134.917C331.815 135.352 331.839 135.535 331.884 136.01C331.854 138.444 330.989 139.627 328.332 139.018C327.016 139.048 325.097 136.703 325.349 140.265C326.022 143.208 324.102 143.312 322.084 143.673C320.966 144.025 320.644 144.722 320.253 145.751C319.986 146.196 319.853 146.355 319.427 146.637C317.646 146.83 316.365 147.517 314.747 148.061Z" fill="#122023"/>
<path d="M371.664 504.462C380.895 503.799 389.814 503.24 399.239 502.647C400.327 519.175 401.361 534.877 402.33 550.999C401.445 551.9 400.456 552.211 399.832 552.869C392.07 561.101 382.448 562.872 371.585 561.962C363.57 561.289 355.452 561.828 346.597 561.828C350.035 553.992 353.325 546.557 356.565 539.097C361.403 527.951 366.207 516.785 370.981 505.264C370.936 504.893 370.941 504.977 370.897 504.982C371.025 504.848 371.189 504.71 371.664 504.462Z" fill="#82ACB0"/>
<path d="M493.703 390.433C505.185 390.037 516.593 389.928 528 390.096C531.122 390.146 532.641 389.072 533.284 386.099C536.544 371.05 539.819 356.006 543.208 340.992C546.008 328.584 549.025 316.227 551.86 303.829C554.729 291.274 557.381 278.669 560.334 266.138C562.447 257.198 564.906 248.338 567.562 239.29C576.947 240.809 576.971 246.884 575.101 255.279C570.837 274.414 566.424 293.515 561.987 312.61C558.4 328.04 554.655 343.44 551.054 358.865C550.485 361.309 550.282 363.837 549.812 366.706C549.02 373.998 547.987 380.86 546.102 387.553C544.919 391.758 544.42 396.384 539.547 398.734C536.371 399.53 533.605 401.029 530.786 401.128C521.827 401.445 512.848 401.375 503.884 401.202C496.997 401.069 493.653 397.492 493.703 390.433Z" fill="#6D4F2C"/>
<path d="M296.255 251.267C290.492 240.205 292.352 232.364 301.766 227.313C306.782 224.627 311.991 225.433 317.166 226.913C318.66 227.338 320.134 227.823 321.989 228.342C325.655 227.897 328.48 229.49 331.404 230.489C339.69 233.319 348.194 235.535 356.451 239.438C358.538 240.497 360.428 241.18 362.209 242.085C367.161 244.593 370.011 248.675 369.922 254.23C369.823 260.34 366.968 264.906 360.69 267.29C348.827 264.777 337.286 262.106 325.784 259.276C318.413 257.466 311.012 255.744 303.626 253.993C301.177 253.409 298.61 253.147 296.255 251.267Z" fill="#122023"/>
<path d="M356.733 239.275C349.55 237.509 342.392 235.342 335.258 233.082C331.092 231.761 326.976 230.286 322.603 228.644C322.485 224.86 322.608 221.312 322.816 217.345C328.278 219.24 332.903 218.211 336.836 213.486C338.216 212.536 339.458 213.11 340.497 213.699C349.307 218.686 362.773 210.285 363.941 198.155C364.119 196.285 363.857 194.361 364.861 192.244C369.437 189.528 374.087 190.804 379.015 190.938C381.379 191.729 381.552 193.609 382.067 195.232C383.012 198.205 384.684 200.624 387.212 202.459C390.14 204.586 392.837 203.721 395.558 201.945C400.688 198.601 400.707 198.63 404.17 204.25C404.982 209.682 404.759 209.84 397.314 209.375C396.527 213.313 395.864 217.291 394.914 221.199C393.579 226.675 389.339 230 383.764 230.034C374.943 230.089 366.127 230.049 356.768 230.049C356.768 232.889 356.768 235.862 356.733 239.275Z" fill="#6D4F2C"/>
<path d="M295.781 251.208C305.343 253.117 314.674 255.264 323.994 257.441C333.779 259.726 343.574 261.972 353.325 264.391C355.561 264.945 357.634 266.148 360.078 267.241C360.706 269.556 361.037 271.688 361.349 274.192C357.911 280.158 353.335 279.95 347.547 278.387C333.339 274.548 318.888 271.599 304.631 267.919C300.688 266.9 297.077 264.574 293.08 262.61C291.957 258.292 291.729 254.374 295.781 251.208Z" fill="#E1FF01"/>
<path d="M539.21 399.09C540.956 395.459 543.41 392.441 544.405 389.003C546.428 381.993 547.665 374.76 549.47 367.35C549.797 382.859 550.089 398.635 549.876 414.406C549.752 423.617 542.737 431.196 533.6 433.249C522.296 433.556 511.126 433.526 499.5 433.418C499.104 430.044 500.386 426.863 500.173 423.217C508.766 422.915 517.161 422.959 525.556 422.895C535.089 422.821 539.324 418.507 539.314 409.014C539.314 405.848 539.279 402.681 539.21 399.09Z" fill="#6D4F2C"/>
<path d="M350.138 178.595C350.95 177.759 351.865 176.863 352.829 176.809C359.359 176.443 361.947 174.454 363.782 168.077C372.054 173.227 376.531 171.689 381.384 161.834C387.518 165.252 392.965 163.783 398.595 158.277C400 162.062 401.202 165.297 402.478 168.908C401.86 172.812 401.172 176.334 400.554 180.242C399.292 184.635 397.096 183.398 394.578 181.306C391.555 173.41 389.695 171.956 382.17 171.713C379.524 171.629 376.867 172.079 376.273 175.191C375.675 178.342 378.089 179.144 380.558 179.658C381.794 179.916 383.001 180.282 384.283 181.325C384.674 184.427 383.269 186.584 381.166 188.795C375.66 190.097 370.466 189.592 364.9 189.3C359.869 185.649 355.55 181.617 350.138 178.595Z" fill="#6D4F2C"/>
<path d="M500.178 422.658C501.681 426.358 501.993 429.692 499.198 433.032C491.876 433.398 484.708 433.452 477.114 433.502C477.258 430.622 478.396 427.733 478.287 424.894C478.109 420.14 477.144 415.41 476.476 410.295C486.271 408.108 495.537 413.021 500.178 422.658Z" fill="#8C3C4A"/>
<path d="M394.464 180.42C396.527 181.508 398.155 184.076 400.455 180.915C409.236 178.847 411.24 179.881 415.747 188.711C416.751 190.359 416.964 191.754 416.048 193.624C414.109 199.491 410.899 203.414 404.551 204.517C402.736 203.003 401.277 201.401 399.773 199.753C399.674 199.798 399.337 199.862 399.129 200.06C391.417 207.53 383.972 205.521 381.048 195.167C380.835 194.41 380.667 193.644 380.385 192.531C379.559 190.903 379.856 189.77 380.999 188.42C382.324 186.159 383.428 184.195 384.664 181.914C387.395 177.645 390.749 178.614 394.464 180.42Z" fill="#82ACB0"/>
<path d="M416.241 193.98C415.771 192.62 415.727 191.239 415.761 189.444C418.507 189.087 421.223 188.865 423.82 189.31C424.978 189.508 425.908 191.051 426.937 191.981C425.868 192.639 424.849 193.723 423.716 193.866C421.396 194.163 419.017 193.955 416.241 193.98Z" fill="#E1FF01"/>
<path d="M337.469 134.887C338.169 134.733 338.194 134.658 338.464 134.664C338.706 134.67 338.938 134.555 339.048 134.34C339.174 134.093 339.106 133.796 338.905 133.606C338.072 132.822 337.846 132.125 336.826 131.316C335.654 129.653 336.46 128.417 339.557 129.831C340.749 130.455 340.903 130.391 341.244 130.207C341.298 130.158 342.729 129.218 342.728 128.723C342.723 126.314 341.986 125.577 343.925 125.577C344.895 126.853 345.587 128.105 346.324 129.728C344.351 131.825 340.531 131.647 340.512 135.595C340.512 135.733 339.047 135.862 337.969 135.882C337.538 135.565 337.4 135.372 337.469 134.887Z" fill="#6D4F2C"/>
<path d="M314.347 148.071C315.96 147.458 318.983 145.791 322.693 146.285C323.598 147.018 324.469 147.023 323.682 148.071C319.23 148.759 317.617 150.579 316.717 151.519C315.114 151.341 314.787 150.134 314.382 148.615C314.283 148.324 314.258 148.121 314.347 148.071Z" fill="#6D4F2C"/>
<path d="M371.683 504.309C371.752 504.551 371.524 504.734 371.069 504.942C371.04 504.749 371.218 504.507 371.683 504.309Z" fill="#FEFEFE"/>
<path d="M372.717 372.49C363.209 382.938 353.958 393.158 343.757 404.433C344.182 402.053 343.979 400.173 344.806 399.055C355.293 384.808 365.915 370.649 381.963 361.962C382.379 361.74 382.725 361.191 383.121 361.176C384.362 361.121 385.614 361.25 386.861 361.304C386.277 362.279 385.926 363.58 385.075 364.179C381.117 366.974 377.021 369.581 372.717 372.49Z" fill="#0E1140"/>
<path d="M392.812 379.356C389.8 390.433 386.975 401.192 381.365 410.79C380.653 410.528 379.94 410.265 379.228 410.008C379.915 407.732 380.593 405.452 381.291 403.181C384.17 393.876 386.97 384.551 390.017 375.3C390.532 373.741 392.14 372.544 393.243 371.184C393.317 372.861 393.47 374.543 393.426 376.22C393.401 377.14 393.04 378.05 392.812 379.356Z" fill="#0E1140"/>
<path d="M349.605 178.169C354.324 181.306 358.638 184.353 363.046 187.682C361.458 189.978 359.246 189.444 356.738 189.122C355.294 188.617 354.581 187.742 353.75 187.024C347.086 181.256 338.028 183.67 335.035 192.001C332.592 198.803 335.283 206.318 341.16 209.123C347.012 211.913 353.033 210.043 356.758 204.309C358.173 202.128 358.796 199.709 359.133 197.176C359.36 195.464 359.138 193.678 360.32 191.823C362.19 190.834 363.649 190.908 365.049 192.679C365.222 205.111 360.453 212.472 350.911 215.465C346.028 216.994 341.709 215.801 337.217 213.244C324.582 203.924 327.382 185.54 339.166 180.005C342.149 178.6 345.84 178.679 349.605 178.169Z" fill="#82ACB0"/>
<path d="M320.372 143.718C321.98 142.649 323.499 141.937 324.899 140.898C324.523 141.032 324.919 140.478 324.899 140.898C325.414 140.403 324.404 137.663 324.671 137.133C324.874 136.747 327.783 138.855 328.134 138.617C330.113 138.123 330.9 138.123 330.9 135.303C331.201 134.625 331.558 134.452 332.483 134.714C333.092 135.766 333.558 136.731 333.98 137.718C334.53 139.005 333.547 140.413 332.147 140.413C330.965 140.413 329.809 140.413 328.545 140.413C328.72 141.469 328.877 142.416 329.041 143.407C329.142 144.015 328.672 144.568 328.055 144.569C326.666 144.572 325.345 144.583 323.796 144.633C321.703 145.296 324.424 147.027 321.703 148.017C320.862 147.784 318.735 144.569 320.372 143.718Z" fill="#6D4F2C"/>
<path d="M332.701 133.364C334.002 133.379 338.241 134.605 339.661 134.853C340.082 135.016 340.166 135.219 340.007 135.649C337.534 136.391 334.679 134.967 333.349 135.001C332.988 135.021 332.938 134.967 332.908 134.937C332.562 134.546 332.419 134.126 332.701 133.364Z" fill="#6D4F2C"/>
<path d="M333.719 133.514C333.037 134.572 332.209 135.09 331.171 136.15C330.925 135.757 330.78 135.105 330.662 134.377C330.574 133.833 330.957 133.314 331.506 133.269C332.205 133.212 332.927 133.239 333.719 133.514Z" fill="#6D4F2C"/>
<path d="M355.848 187.801C358.287 187.959 360.325 188.004 362.749 188.009C368.878 188.039 374.617 188.103 380.791 188.142C380.989 189.246 380.751 190.374 380.4 191.843C375.438 192.263 370.59 192.347 365.48 192.733C363.971 192.817 362.719 192.605 361.156 192.343C357.752 193.654 354.473 193.856 350.762 193.767C349.837 193.431 349.392 193.094 348.833 192.283C349.15 187.663 352.281 187.648 355.848 187.801Z" fill="#E1FF01"/>
<path d="M394.746 180.301C391.605 180.89 388.478 181.093 385.075 181.449C383.106 181.276 381.236 181.301 379.757 180.549C377.916 179.609 375.562 178.347 374.924 176.66C373.781 173.633 375.898 171.496 378.881 170.907C385.08 169.69 395.112 171.525 394.746 180.301Z" fill="#122023"/>
<path d="M394.385 184.62C397.937 188.286 399.797 192.13 396.74 196.582C395.483 198.408 393.514 201.109 391.971 201.044C389.858 200.955 387.251 199.714 385.772 197.24C385.52 196.745 384.852 192.926 385.025 192.54C383.61 192.813 386.44 192.268 385.025 192.54C384.956 192.822 385.099 192.258 385.025 192.54C383.279 191.932 386.747 193.144 385.025 192.54C384.466 186.02 388.498 182.716 394.385 184.62Z" fill="#6D4F2C"/>
<path d="M410.656 193.728C408.212 200.495 405.714 201.549 400.589 198.254C401.162 197.042 401.751 195.805 402.419 194.237C404.996 191.952 407.643 192.234 410.656 193.728Z" fill="#E0DBC7"/>
<path d="M411.215 193.837C408.42 193.995 405.878 193.916 402.919 193.871C402.449 192.56 402.395 191.21 402.38 189.453C404.918 187.163 407.525 187.539 410.587 188.84C411.156 190.547 411.314 192.07 411.215 193.837Z" fill="#E1FF01"/>
<path d="M410.869 188.711C408.425 189.077 405.843 189.137 402.84 189.122C402.454 187.574 402.494 186.089 402.528 184.61C404.428 184.793 406.456 184.63 408.173 185.283C409.266 185.694 409.9 187.321 410.869 188.711Z" fill="#E0DBC7"/>
<path d="M349.822 193.085C353.414 192.684 356.699 192.402 360.409 192.204C361.171 197.948 360.241 203.167 356.05 207.431C351.074 212.502 344.826 213.372 339.023 209.667C333.744 206.293 331.449 198.457 333.492 192.13C337.059 181.078 350.168 179.208 356.11 187.608C353.898 189.008 351.554 190.102 349.134 191.526C347.957 192.61 346.933 191.858 345.894 191.645C343.287 191.111 341.066 191.798 339.735 194.099C338.197 196.755 338.958 199.362 340.794 201.584C342.535 203.691 344.692 204.586 347.606 203.107C346.221 202.009 344.87 202.771 343.717 202.316C341.066 201.267 339.404 199.348 339.948 196.503C340.467 193.792 342.684 192.812 345.365 192.996C346.755 193.094 348.091 194.054 349.822 193.085Z" fill="#6D4F2C"/>
<path d="M349.975 192.758C350.069 195.271 349.951 196.904 346.938 194.851C345.775 194.059 343.381 194.282 341.991 194.955C341.234 195.321 340.714 198.279 341.303 198.878C342.52 200.119 344.499 200.698 346.255 201.292C347.373 201.668 348.645 201.574 349.847 201.687C348.758 202.82 347.373 205.081 346.631 204.888C343.95 204.191 340.813 203.256 339.102 201.307C336.801 198.695 336.915 194.935 339.537 192.239C342.105 189.597 345.261 189.013 348.724 191.774C349.317 192.09 349.57 192.323 349.975 192.758Z" fill="#122023"/>
<path d="M124.563 484.559C121.759 504.128 118.568 523.226 115.624 542.354C114.222 551.474 113.086 560.648 112.21 569.835C111.72 574.99 109.931 576.845 104.347 576.754C79.6346 576.374 54.9161 576.519 30.1977 576.634C26.9945 576.646 25.8583 576.072 25.3507 572.464C22.5585 552.58 19.2345 532.769 16.2489 512.91C14.9012 503.953 13.9282 494.942 12.7799 485.52C13.9947 482.673 16.2973 482.963 18.3703 482.951C51.9729 482.855 85.5755 482.854 119.178 482.927C120.967 482.939 122.744 482.981 124.563 484.559Z" fill="#E1FF01"/>
<path d="M60.9292 407.237C58.3969 405.623 55.6229 404.136 54.2268 401.809C46.2311 388.489 41.65 373.833 38.465 358.712C36.4888 349.332 33.6422 339.989 32.9895 330.507C31.8533 314.038 31.261 297.43 32.1011 280.967C32.6148 270.886 35.5097 260.733 38.6161 251.027C42.8225 237.876 50.6671 227.112 63.4071 220.712C73.089 215.853 85.1098 221.769 89.8178 233.017C97.1185 250.477 96.1092 268.33 93.8126 286.509C91.9814 300.965 91.1474 315.549 89.8239 330.561C90.5007 333.849 88.2767 335.275 86.8443 336.895C74.6483 350.632 70.2243 366.792 72.1281 384.809C72.7506 390.695 75.162 396.098 78.3409 401.108C79.2717 402.577 80.837 403.719 80.5227 406.161C76.3888 410.337 72.1825 413.371 65.9213 410.748C63.25 407.424 63.0022 403.719 62.8511 400.244C61.9325 379.581 58.2398 359.069 59.3337 338.309C60.3128 319.61 61.8055 300.959 64.8757 282.454C65.9998 275.679 66.8883 268.861 68.6107 261.506C66.1449 262.872 66.2718 264.57 66.0119 266.015C63.6065 279.359 61.183 292.74 60.2281 306.247C58.9167 324.898 57.5569 343.537 58.9167 362.338C59.8958 375.846 59.8837 389.426 62.0956 402.843C62.3193 404.281 62.1561 405.707 60.9292 407.237Z" fill="#E0DBC7"/>
<path d="M80.3843 406.439C66.8646 388.864 67.4267 370.316 75.9905 351.671C79.2964 344.467 84.9774 338.363 89.6733 331.407C99.4821 322.16 109.116 313.179 118.925 304.404C128.89 295.484 138.711 286.346 149.221 278.108C155.416 273.255 162.94 270.886 170.978 274.675C176.2 277.135 178.853 282.018 179.204 286.986C179.73 294.353 179.512 302.077 177.856 309.239C169.304 346.238 147.771 374.897 118.417 397.742C111.013 403.508 101.301 406.282 92.2358 410.373C90.0118 406.989 91.8732 404.064 93.0154 401.193C106.293 367.808 124.273 337.148 146.477 308.967C147.021 308.278 147.686 307.643 147.898 305.945C142.785 310.629 139.412 315.996 135.696 321.012C118.115 344.769 104.003 370.491 92.7012 397.808C91.154 401.543 90.5436 405.822 86.7844 408.82C83.9439 409.69 81.9556 408.965 80.3843 406.439Z" fill="#82ACB0"/>
<path d="M47.3975 479.512C33.7027 469.957 20.3281 460.578 11.589 445.994C6.0772 436.802 1.82249 427.174 0.26323 416.574C-1.13889 407.061 3.17625 398.485 10.4467 397.524C14.8828 396.938 20.2556 397.796 24.1779 399.918C40.2721 408.614 54.2027 419.922 63.0687 436.923C66.5619 439.377 65.5285 443.081 65.9878 446.049C67.263 454.335 68.0668 462.705 67.6075 471.124C67.4926 473.197 68.1877 476.08 65.8427 476.835C63.5341 477.578 62.283 474.974 61.0743 473.257C49.9903 457.489 38.7612 441.83 27.0547 426.516C24.0691 422.612 21.1803 418.586 17.0404 415.704C24.0933 424.558 30.9166 433.581 37.7338 442.604C45.5965 452.999 52.8187 463.829 60.1013 474.629C61.3644 476.497 63.4192 478.455 62.144 480.884C60.8567 483.338 58.0706 482.534 55.8405 482.655C54.0697 482.752 52.2808 482.728 50.1172 482.305C48.6244 481.779 47.8629 481.023 47.3975 479.512Z" fill="#3B3A33"/>
<path d="M79.7373 452.781C87.3643 442.87 95.1606 434.246 105.374 428.008C119.317 419.493 133.326 410.959 149.638 408.155C155.494 407.146 162.003 407.901 167.835 409.37C174.03 410.929 175.444 417.879 171.57 423.301C163.907 434.028 153.923 442.326 142.839 449.034C129.609 457.036 115.788 464.053 102.298 471.625C98.6418 473.68 95.2513 476.219 91.5102 478.854C91.1718 480.274 90.6098 481.108 89.4373 481.972C86.3006 482.957 83.4299 482.758 80.6075 482.558C76.2863 482.256 75.5067 480.794 77.6643 477.155C79.8521 473.475 82.2574 469.951 85.1705 466.766C98.8472 451.808 114.18 438.881 131.567 428.456C132.722 427.761 134.19 427.35 134.783 425.035C128.25 428.419 122.466 432.003 116.942 436.01C104.057 445.354 92.2839 455.918 81.9069 468.029C80.7224 469.413 79.6345 471.752 77.2533 470.677C75.3677 469.818 75.7303 467.637 75.6397 465.89C75.4704 462.633 75.8693 459.472 77.5797 456.196C78.2566 455.011 78.7461 454.153 79.7373 452.781Z" fill="#3B3A33"/>
<path d="M79.4584 454.727C78.298 459.925 77.2525 464.772 76.4245 468.61C82.855 462.989 89.0739 457.054 95.8065 451.79C107.9 442.332 120.259 433.224 132.655 424.171C133.682 423.415 135.84 424.213 137.471 424.292C136.655 425.476 136.093 427.011 134.993 427.797C125.408 434.693 114.983 440.628 106.262 448.472C96.2295 457.495 87.6657 468.169 78.4975 478.153C75.8746 481.011 78.0079 481.277 80.3287 481.289C83.1753 481.307 86.0218 481.277 89.3639 481.241C92.0957 479.676 94.6401 480.262 97.0515 480.286C106.02 480.383 114.995 479.863 124.423 480.806C125.487 481.555 126.085 482.069 126.762 482.988C126.72 483.592 126.611 483.779 126.272 484.22C125.837 484.535 125.626 484.607 125.13 484.855C97.6075 484.934 70.3688 484.813 43.1362 484.752C33.3455 484.728 23.5488 484.837 13.2685 484.994C12.3015 484.94 11.8181 484.782 11.0082 484.45C10.3192 483.87 10.1923 483.398 10.3253 482.492C10.9236 481.809 11.4433 481.507 12.2834 481.144C17.0941 479.434 21.7538 480.316 26.3228 480.334C33.5812 480.365 40.8698 479.639 48.5754 481.023C52.2379 481.283 55.441 481.211 58.6321 481.338C62.361 481.483 62.0467 479.585 60.4935 477.476C45.8437 457.598 31.1093 437.793 16.4898 417.898C15.5107 416.568 15.2448 414.713 14.6465 413.099C16.2662 413.842 18.4419 414.138 19.4149 415.389C30.1303 429.163 40.7247 443.033 51.2044 456.994C55.9668 463.34 60.3968 469.933 65.7696 477.542C67.1657 463.376 65.3707 450.721 63.34 437.703C62.9895 432.578 63.0499 427.803 62.6511 423.071C62.2461 418.176 61.4001 413.316 60.6386 407.98C59.9012 400.637 58.9584 393.771 58.6925 386.87C57.9975 369.053 56.7585 351.2 57.3266 333.414C57.8947 315.488 60.2517 297.605 62.089 279.734C62.7055 273.751 63.9746 267.81 65.3405 261.941C65.6668 260.539 67.6068 259.512 68.8035 258.315C69.2144 259.814 70.2237 261.44 69.9397 262.794C63.6422 292.891 60.0644 323.309 61.1099 354.034C61.7445 372.691 64.2285 391.293 66.1383 410.283C68.4409 413.371 68.6584 416.671 68.731 419.795C68.9787 429.779 70.7012 439.582 71.8495 449.457C72.4055 454.256 72.0852 459.031 71.4627 464.222C71.2089 465.304 71.082 465.969 71.0638 466.652C71.0517 466.996 70.9188 467.292 70.7435 467.54C71.8978 467.431 70.671 466.615 71.1605 465.902C73.1307 448.291 78.2678 431.828 82.994 415.275C83.5802 413.232 84.3538 411.225 85.9674 409.195C91.5336 397.313 96.0664 385.322 102.189 374.22C111.81 356.772 122.368 339.838 132.824 322.861C136.323 317.18 140.59 311.953 144.796 306.749C145.884 305.407 148.066 304.966 149.752 304.108C149.214 305.728 149.063 307.65 148.084 308.925C131.524 330.44 116.397 352.874 105.114 377.683C100.357 388.139 96.2537 398.884 91.8358 409.914C89.0013 419.07 86.0218 427.773 83.4351 436.584C82.0149 441.425 81.2594 446.46 80.226 451.845C80.2501 452.286 80.2078 452.292 80.1897 452.298C79.5793 452.872 79.6035 453.634 79.4584 454.727Z" fill="#122023"/>
<path d="M48.9928 480.963C37.2259 481.235 25.4226 481.229 13.1057 481.144C14.1815 480.455 15.7649 479.343 17.3665 479.319C27.0182 479.15 36.6699 479.222 46.8413 479.156C47.8929 479.627 48.4247 480.159 48.9928 480.963Z" fill="#E1FF01"/>
<path d="M124.763 480.649C113.546 481.108 102.202 481.18 90.3625 481.229C90.1691 480.594 90.4773 479.99 91.0273 479.277C100.576 479.192 109.877 479.15 119.179 479.271C121.004 479.289 122.817 479.911 124.763 480.649Z" fill="#E1FF01"/>
<path d="M10.1687 482.28C10.4951 482.577 10.5917 483.054 10.6824 483.9C10.4225 483.664 10.1808 483.06 10.1687 482.28Z" fill="#1C2284"/>
<path d="M126.292 484.492C126.147 484.257 126.249 484.051 126.594 483.616C126.878 483.682 126.944 483.973 126.92 484.263C126.908 484.365 126.666 484.438 126.292 484.492Z" fill="#E0DBC7"/>
<path d="M79.5442 454.86C79.514 454.323 79.6893 453.567 80.0217 452.552C80.0338 453.078 79.8887 453.863 79.5442 454.86Z" fill="#E0DBC7"/>
<path d="M70.515 466.639C70.6237 466.259 71.1073 466.464 71.3671 466.416C71.4457 467.286 71.2704 468.199 71.0952 469.117C70.8655 468.416 70.6358 467.721 70.515 466.639Z" fill="#E0DBC7"/>
</svg>
