<svg width="343" height="189" viewBox="0 0 343 189" fill="none" xmlns="http://www.w3.org/2000/svg">
<path d="M33.3313 36.9497C44.5556 42.9969 57.2264 44.1778 69.8473 43.9955C75.819 43.9093 79.3052 43.0682 84.545 41.0674C85.7434 40.6098 84.49 43.6811 84.8645 44.9105C86.3353 49.7402 88.4341 52.5729 92.3503 55.9825C100.054 62.69 110.502 66.3745 120.422 68.061C131.162 69.8871 149.016 71.3756 158.216 63.5773C162.85 59.6489 157.731 56.6014 154.108 56.257C146.221 55.5074 136.654 58.988 132.381 65.9564C127.406 74.071 131.892 84.316 137.95 90.388C149.328 101.793 164.914 101.098 179.852 102.741C182.836 103.069 185.813 103.465 188.798 103.793C190.626 103.994 195.221 103.202 194.23 104.754C189.337 112.417 198.744 121.007 204.683 125.48C218.959 136.231 235.973 135.49 252.701 133.303" stroke="#404040" stroke-width="3" stroke-linecap="round"/>
<path d="M24.4405 150.481C26.7727 149.159 28.784 147.71 30.5113 145.851C32.634 143.569 34.1703 140.898 35.3377 138.077C36.6618 134.88 37.5984 131.521 38.7048 128.236C38.7552 128.087 38.8455 127.949 38.9171 127.805C39.0657 127.925 39.2382 128.023 39.3576 128.17C42.0348 131.441 44.6616 134.75 47.3892 137.978C49.7958 140.827 52.4067 143.457 55.7897 145.194C57.9522 146.305 60.2288 146.858 62.8078 146.981C66.8037 148.116 73.6626 143.569 73.331 139.507C73.4955 137.648 73.7502 135.928 73.9678 134.204C74.3021 131.558 73.3283 129.183 72.0759 127.01C68.6956 121.149 64.827 115.598 60.8576 110.122C58.6845 107.125 56.5671 104.087 54.3755 101.106C51.287 96.9093 47.1717 93.9439 42.6318 91.5476C37.6276 88.9067 32.573 86.3535 27.5396 83.7711C27.0301 83.5104 26.4968 83.295 25.8361 82.9785C25.3718 83.2684 25.3134 83.7205 25.385 84.17C25.7777 86.6274 25.6079 89.045 24.9738 91.5981C25.4328 93.1513 26.5154 94.1247 27.3459 95.2577C28.1896 96.4119 28.9485 97.5928 29.4579 99.0848C29.8851 99.5476 30.315 99.7603 30.8377 100.087C33.5441 101.728 36.4495 102.784 38.596 105.063C39.2222 105.728 39.8007 106.412 40.3764 107.292C41.8597 109.207 41.6447 111.38 41.5837 113.399C41.4962 116.297 41.7084 119.25 40.862 122.093C40.8063 122.276 40.7214 122.452 40.6895 122.643C40.6975 122.462 40.7824 122.3 40.8195 122.127C41.6819 118.295 41.658 114.42 41.4643 110.524C41.4139 109.505 41.2229 108.606 40.5993 107.641C38.3466 103.864 34.6532 102.202 31.0181 100.231C30.567 99.8295 30.0815 99.7337 29.649 99.3029C27.1203 100.093 25.255 99.1566 23.6126 97.4199C22.6733 96.4279 21.8375 95.3322 20.6409 94.3933C14.7053 94.5104 10.0142 91.6912 5.42395 88.6487C2.55038 86.7445 2.22136 86.7099 -0.0605164 89.3269C-1.52251 91.0024 -2.73508 92.8747 -3.7354 94.8561C-5.02757 97.4173 -6.94328 98.6247 -9.89115 98.888C-13.635 99.2204 -17.4028 99.3454 -21.2342 100.005C-19.1725 102.625 -16.2592 104.053 -13.4254 105.579C-12.0297 106.329 -10.5784 106.973 -9.13229 107.803C-6.65938 109.223 -4.00073 110.034 -1.42964 111.417C2.04624 113.266 5.64153 114.492 8.998 116.236C11.8557 117.723 12.6384 119.555 11.8981 122.667C10.9641 126.609 9.65073 130.446 8.73001 134.385C7.40865 140.031 7.43253 145.446 12.2696 149.88C16.2761 151.93 20.2402 152.188 24.4405 150.481Z" fill="#37484A"/>
<path d="M25.3344 92.3485C25.406 91.8166 25.3078 91.3751 25.4617 91.0506C26.6637 88.4895 26.2445 85.8937 25.7005 83.0906C23.7769 79.3911 21.1235 76.4709 18.3614 73.4789C18.0748 73.0534 17.8758 72.721 17.6131 72.2954C17.377 72.0561 17.1674 71.9656 16.9604 71.705C16.9923 71.4497 16.5943 71.58 16.8092 71.463C17.0108 71.814 17.247 71.9843 17.5574 72.2422C17.7538 72.5268 17.905 72.697 18.2393 72.8007C20.699 73.7103 23.0552 73.8858 25.5811 73.5082C29.0889 72.9842 32.3047 71.7688 35.3852 70.1279C37.4442 69.0295 39.2591 67.5853 40.4956 65.5295C41.3022 64.1891 41.8116 62.8008 41.8647 61.1811C41.9629 58.1412 41.2704 55.2477 40.5062 52.3673C39.7128 49.3833 38.8823 46.3993 37.8688 43.4844C36.6111 39.8754 35.3905 36.2132 32.3976 33.5297C31.055 32.3276 29.6673 31.3781 27.5924 31.652C25.3211 31.059 23.0949 31.9579 21.755 33.8621C21.1845 34.6706 21.0068 35.6414 20.4628 36.6201C19.7305 39.9046 20.4469 43.0057 20.7149 46.1174C20.7706 46.7663 20.9564 47.4073 20.8449 48.0642C20.6406 49.2663 19.9534 49.7477 18.7514 49.4631C16.0954 48.8328 10.7304 42.9286 10.4146 40.2876C10.3669 39.8887 10.3616 39.4738 10.5473 39.1334C11.9456 36.5456 10.9134 34.7823 8.55463 33.3196C6.93609 32.4499 5.62534 31.3515 3.96169 30.5962C1.51266 29.5855 0.682159 30.1228 0.0825043 32.2159C0.0108643 32.4659 -0.089962 32.7052 -0.206707 33.0988C0.392948 35.3249 2.42276 35.9366 3.87413 37.144C4.45522 37.6281 5.15835 37.9924 5.82699 38.3754C5.1212 38.0483 4.50298 37.5722 3.83964 37.1733C2.33254 36.269 1.07751 35.0297 -0.456123 33.9472C-3.64544 34.3595 -5.67791 36.3568 -7.43177 38.652C-10.8652 43.144 -13.6379 48.0589 -16.1109 53.128C-18.5254 58.0827 -20.932 63.0508 -23.0467 68.1359C-24.9146 72.6332 -26.427 77.2821 -27.9925 81.8991C-29.0671 85.0666 -30.0223 88.2767 -30.9138 91.5001C-31.3596 93.1118 -31.6594 94.7847 -31.816 96.4495C-31.9725 98.1304 -31.272 98.9974 -29.5898 99.2368C-26.963 99.6091 -24.3123 99.8219 -21.4998 100.106C-18.406 99.9735 -15.482 99.8564 -12.5607 99.6889C-11.0085 99.5985 -9.42973 99.5559 -7.91732 99.2421C-6.53228 98.9548 -5.23479 98.3112 -4.42552 97.0054C-3.13335 94.9256 -1.89954 92.8059 -0.517155 90.79C0.209862 89.7315 1.18629 88.8405 2.08578 87.907C2.55807 87.4177 2.90301 87.5267 3.53451 87.9735C7.15897 90.5294 10.8896 92.9416 15.1933 94.2288C16.8622 94.7288 18.5763 95.0347 20.4761 94.6144C22.7208 95.1171 23.9838 93.7687 25.3344 92.3485Z" fill="#CBE0E4"/>
<path d="M3.50586 12.2158C3.46871 7.27163 0.749036 3.06687 -3.93942 1.27167C-4.94504 0.886031 -6.11251 0.750397 -7.19507 0.784972C-11.6527 0.920609 -15.0755 2.82485 -17.0708 6.95249C-19.1404 11.2397 -18.1826 15.729 -15.0994 18.971C-12.4328 21.7769 -8.99404 22.8274 -5.20506 22.1997C-3.58918 21.9311 -2.03432 21.1652 -0.649277 19.9763C2.17919 18.1466 3.30686 15.4657 3.50586 12.2158Z" fill="#37484A"/>
<path d="M81.1903 145.262C82.6808 144.568 82.6784 144.57 83.3805 145.883C83.5297 146.162 83.724 146.418 83.8993 146.684C83.8758 146.407 83.9116 146.112 83.8254 145.858C83.5138 144.937 83.981 144.459 84.7719 144.277C86.0845 143.974 89.704 139.402 91.0383 139.207C91.6835 139.113 92.4995 138.627 92.9555 139.48C93.5155 140.529 94.2768 141.463 93.4378 142.885C90.6623 147.594 85.7501 156.715 83.0673 161.478C82.3748 162.707 82.2255 162.77 81.2462 161.934C78.4652 159.559 75.7091 157.151 72.9531 154.75C72.8103 154.625 72.7337 154.426 72.5204 154.149C72.0398 153.43 72.3513 152.897 72.6392 152.406C73.9715 150.122 75.2263 147.784 77.0218 145.653C78.1711 144.747 79.2854 144.765 80.5309 145.357C80.7426 145.518 80.8378 145.601 80.9215 145.785C80.9514 145.85 80.8901 145.977 80.9481 145.932C80.9805 145.69 81.0725 145.53 81.1903 145.262Z" fill="#5F6B00"/>
<path d="M35.595 166.293C29.1713 166.418 17.7186 166.299 11.4142 166.293C9.95755 166.293 9.89122 166.269 9.99735 164.775C10.138 162.775 10.4113 160.783 10.589 158.783C10.6819 157.748 10.6925 156.706 10.7403 155.49C11.3877 154.373 12.3933 154.365 13.3644 154.352C15.572 154.317 17.7823 154.293 20.1464 154.387C21.1892 154.527 21.9799 154.91 22.3434 155.73C22.606 156.32 22.9961 156.533 23.5029 156.836C24.2352 157.275 25.8139 157.708 24.1556 158.977C24.1184 159.006 24.0309 158.982 24.0495 159.073C24.1636 159.012 24.283 158.958 24.397 158.894C25.6547 158.203 26.6391 158.426 27.2945 159.894C27.069 160.168 27.3688 160.012 27.1539 160.155C26.6948 160.464 26.2226 160.738 25.6707 160.847C26.2464 160.799 26.7055 160.448 27.3608 160.19C28.7698 159.754 29.7674 160.357 30.8287 161.198C31.0171 162.924 37.3197 160.19 35.595 166.293Z" fill="#5F6B00"/>
<path d="M2.529 165.755C2.529 164.098 2.41491 162.526 2.31939 160.808C2.85802 159.912 2.81026 159.069 2.77842 158.21C2.52104 151.034 2.00895 143.872 1.58176 136.71C1.18906 130.136 1.25805 123.526 0.332036 116.816C-0.907075 115.489 -1.59429 117.042 -2.66359 117.279C-2.73523 120.981 -2.70339 124.577 -2.6291 128.17C-2.45398 136.667 -2.24436 145.165 -2.07455 153.662C-2.00291 157.258 -2.00291 160.856 -1.93922 164.452C-1.91534 165.851 -1.87555 165.861 -0.517037 165.872C0.459394 165.88 1.43583 165.851 2.529 165.755Z" fill="#6D4F2C"/>
<path d="M3.58769 12.1438C3.00396 13.3539 2.57146 14.6039 2.19203 15.8698C1.72239 17.447 0.462058 18.4496 -0.503759 19.8246C-0.824814 22.9975 0.732699 25.0506 3.01192 26.7102C3.62484 27.157 4.29349 27.5267 5.01785 28.0453C7.57832 26.923 7.99224 25.2634 6.32594 23.2554C5.82181 22.6491 5.25665 22.0347 5.79528 21.1757C6.38432 20.2422 7.14848 20.7289 8.01612 20.9895C8.25227 21.0081 8.34779 21.0028 8.58129 20.9549C8.88642 20.806 9.10399 20.6783 9.11991 20.5055C9.31096 18.6092 10.2184 17.2448 11.9829 16.4656C12.2111 16.3645 12.3225 16.0799 12.4711 15.6996C12.7576 13.9629 11.6114 13.2741 10.4652 12.9284C8.30003 12.2768 6.07122 11.7582 3.58769 12.1438Z" fill="#37484A"/>
<path d="M-2.81481 117.218C-1.87818 117.311 -0.763773 117.705 -0.299438 116.282C0.828233 114.37 0.19939 112.795 -1.12198 111.221C-2.80685 110.335 -4.3166 109.468 -5.89534 108.758C-6.80278 108.351 -7.82432 108.194 -8.95199 107.931C-14.0915 107.926 -19.0745 107.915 -24.2326 107.939C-23.219 109.149 -23.5693 110.481 -24.0362 111.968C-21.5023 112.154 -18.9604 112.213 -16.4185 112.234C-13.8713 112.255 -11.3241 112.226 -8.77952 112.247C-7.41836 112.258 -6.10495 112.484 -4.89768 113.197C-3.42242 114.072 -2.62112 115.279 -2.81481 117.218Z" fill="#1A2223"/>
<path d="M71.5827 152.739C72.7422 151.207 73.7585 149.63 74.7827 148.058C75.4725 147 76.173 145.949 76.9902 144.816C75.913 142.957 74.7163 141.178 73.3843 139.383C72.6918 142.502 70.5161 144.263 67.9211 145.659C66.4777 146.439 64.8804 146.667 63.1292 146.957C63.1079 148.335 64.4479 148.207 65.1882 148.752C67.1729 150.207 69.346 151.399 71.5827 152.739Z" fill="#E1FF01"/>
<path d="M20.6463 36.9124C21.0098 36.564 21.3202 36.2023 21.4264 35.7874C21.8721 34.0241 22.8247 32.7688 24.6475 32.306C25.4568 32.0986 26.2714 31.9018 27.2558 31.6704C28.0889 32.5534 26.6402 30.7156 27.2558 31.6704C27.6352 32.8938 26.4173 30.7821 27.2558 31.6704C26.9241 30.5986 25.9375 28.628 24.4304 28.4391C23.0029 28.6439 21.1876 26.7902 20.6463 27.7742C18.8477 26.8434 16.5362 25.9949 15.459 25.4071C15.1326 25.1438 14.8859 25.0188 14.4799 24.8938C14.2411 24.8725 14.1429 24.8832 13.9094 24.9444C11.5533 26.9576 11.609 27.689 14.2385 29.5986C15.9392 30.3725 17.3269 31.6438 19.378 31.2528C19.6168 31.1464 19.7203 31.0746 19.8158 30.9922C19.9113 30.9098 20.0042 30.8273 20.0997 30.7448C20.1846 30.9018 20.1766 30.9496 20.0864 30.8831C19.9882 30.8113 19.9033 30.8459 19.7176 31.0853C18.054 32.564 17.9054 33.4709 19.0649 35.1012C19.5027 35.7156 19.8344 36.4363 20.6463 36.9124Z" fill="#298393"/>
<path d="M14.4668 29.4845C14.2333 29.1095 14.0635 28.8276 13.8194 28.66C12.1292 27.4951 12.0974 27.3276 13.3842 25.8063C13.5461 25.6148 13.7424 25.4473 13.9255 25.0244C13.8778 24.7132 13.8273 24.6441 13.6761 24.4978C13.501 24.3728 13.4267 24.3302 13.233 24.2292C12.1504 23.6787 11.1926 23.1787 10.2029 22.4765C10.0463 22.3356 9.98265 22.2797 9.81814 22.1547C9.51301 21.9632 9.29809 21.8568 9.01418 21.6494C8.87886 21.5138 8.82579 21.4553 8.69577 21.309C8.51269 21.1042 8.40125 20.9952 8.2049 20.8037C7.46197 20.3994 6.93661 19.6308 6.05039 20.0484C5.05804 20.5164 4.67596 21.668 5.21989 22.6388C5.464 23.0749 5.78506 23.4898 6.14856 23.8302C7.40359 25.0005 7.42483 24.9925 6.528 26.3515C6.14326 26.9366 5.71607 27.4925 5.20133 28.1121C4.69188 28.8834 4.29123 29.6041 3.84812 30.4658C4.96783 31.7451 6.26531 32.6839 7.92365 33.2983C9.75976 31.9871 11.6887 31.1201 13.7186 30.4552C14.1033 30.3249 14.3792 30.035 14.4668 29.4845Z" fill="#B97A5C"/>
<path d="M11.9147 154.133C14.5707 154.292 17.1047 154.303 19.636 154.364C20.4028 154.383 21.1669 154.548 22.0823 154.673C22.9871 153.348 23.7433 151.997 24.542 150.521C24.1413 150.457 23.685 150.473 23.2525 150.58C20.3656 151.292 17.4868 151.234 14.6291 150.463C13.9658 150.284 13.3582 149.901 12.5887 149.585C11.538 150.936 11.3018 152.415 11.9147 154.133Z" fill="#E1FF01"/>
<path d="M12.6279 15.6387C11.678 15.9924 11.1261 16.9498 9.97988 16.8674C9.77026 16.8514 9.39615 17.3833 9.31389 17.7184C9.07774 18.6573 8.95303 19.6227 8.6532 20.6493C8.36664 20.8674 8.30827 21.0429 8.43298 21.3753C8.51523 21.4977 8.50993 21.4977 8.50727 21.4924C8.76199 21.8354 9.21306 21.87 9.61637 22.2104C9.70128 22.2982 9.69066 22.2876 9.68536 22.2823C10.89 22.9924 12.0229 23.8594 13.5698 24.2184C15.4405 23.5216 15.6288 24.6759 14.9416 23.4685C14.7638 23.269 14.594 23.1839 14.6046 23.0482C14.6232 22.7876 14.4985 23.0881 14.8567 23.0855C15.1937 23.0908 15.3741 22.9632 15.5625 22.6733C14.3685 21.2105 14.1934 19.0349 13.7556 18.3541C13.4372 18.2583 13.2647 18.511 13.0604 18.3408C13.1745 18.3195 13.2753 18.269 13.4478 18.1227C13.2647 17.269 13.002 16.4924 12.6279 15.6387Z" fill="#B97A5C"/>
<path d="M8.79629 21.3433C8.14091 21.9363 7.63147 22.5667 7.05304 23.3034C6.9416 23.5002 9.77537 25.7154 9.79129 25.9362C10.7279 26.7713 11.5186 27.6356 12.8798 27.6091C13.3096 26.5984 13.5829 25.6436 14.501 24.9176C13.6439 24.3697 9.85497 21.8113 8.79629 21.3433Z" fill="#30555C"/>
<path d="M-0.569598 33.8165C0.879128 35.133 2.32785 36.3909 3.84026 37.5665C4.54605 38.1143 5.36593 38.5106 6.15132 38.9468C6.22826 38.9893 6.4538 38.8617 6.5387 38.7553C6.59177 38.6888 6.55728 38.4627 6.48564 38.3962C6.30256 38.2367 6.07702 38.1223 5.86741 37.9973C3.72085 36.7048 1.63798 35.3271 -0.174253 33.375C-0.344067 33.4069 -0.442238 33.5638 -0.569598 33.8165Z" fill="#373C53"/>
<path d="M13.5567 18.1064C13.1189 18.1596 12.697 18.2474 12.3017 18.4017C12.2088 18.4389 12.2062 18.6995 12.1611 18.8591C12.3229 18.8538 12.4927 18.8751 12.6466 18.8378C12.9491 18.7634 13.2436 18.657 13.5886 18.4256C13.631 18.2926 13.5833 18.1676 13.5567 18.1064Z" fill="#37484A"/>
<path d="M17.6191 72.2554C17.7279 72.5346 17.903 72.9043 18.1975 73.3165C18.3222 73.2687 18.3249 73.1782 18.3408 72.9469C18.1312 72.6517 17.9083 72.4974 17.6191 72.2554Z" fill="#F0EDE7"/>
<path d="M73.9414 155.997C73.7902 155.88 73.615 155.877 73.3046 155.906C73.1746 156.092 73.1719 156.247 73.1666 156.513C73.416 156.454 73.6655 156.279 73.9414 155.997Z" fill="#F0EDE7"/>
<path d="M11.9252 154.324C12.172 152.808 12.3047 151.353 12.4426 149.728C11.315 148.164 10.1395 146.832 9.44966 145.103C8.5263 142.792 8.30076 140.444 8.61386 138.026C9.18167 133.648 10.6092 129.486 11.8536 125.279C12.2383 123.976 12.5302 122.638 12.7557 121.295C13.0874 119.337 11.9677 117.228 9.98033 116.167C8.1734 115.202 6.3081 114.348 4.4481 113.489C2.65179 112.662 0.828944 111.893 -1.12392 111.117C-0.314647 112.577 -0.338525 114.252 -0.168712 116.042C-0.0360441 119.199 0.112549 122.188 0.292976 125.18C0.484016 128.367 0.709545 131.547 0.908545 134.734C0.977532 135.84 1.00938 136.949 1.07306 138.055C1.28798 141.76 1.5082 145.465 1.72843 149.17C1.76027 149.691 1.80803 150.21 1.83191 150.731C1.9805 153.917 2.12378 157.106 2.30421 160.478C3.43984 160.608 4.23319 159.436 5.61293 159.8C5.8305 159.725 5.88357 159.659 5.86234 159.489C6.6212 158.175 7.61355 157.85 8.87123 158.784C9.06493 158.928 9.34884 158.994 9.5956 159.007C9.82644 159.021 10.0626 158.914 10.2987 158.861C10.1528 158.744 10.0095 158.619 9.85828 158.51C9.7548 158.433 9.63539 158.377 9.52395 158.311C9.1286 158.069 8.73061 157.827 8.33526 157.582C8.95614 157.175 9.54783 156.712 10.2112 156.393C10.4845 156.26 10.909 156.436 11.2619 156.473C11.0709 156.247 10.8453 156.039 10.702 155.784C10.6437 155.683 10.718 155.436 10.8161 155.329C11.1266 154.994 11.4768 154.699 11.9252 154.324Z" fill="#FCFCFC"/>
<path d="M25.5096 92.2476C24.2015 92.9284 23.0207 93.6651 21.8188 94.3646C21.564 94.5135 21.2271 94.5188 20.7734 94.6092C22.0284 96.1598 23.3365 97.806 24.8781 99.1943C26.3003 100.479 28.0568 100.407 29.5665 99.3539C29.7841 98.1864 29.3596 97.1678 28.7069 96.2662C27.7225 94.9124 26.6585 93.6146 25.5096 92.2476Z" fill="#B97A5C"/>
<path d="M40.2389 107.074C40.6262 108.539 41.2232 109.832 41.2206 111.287C41.2206 112.13 41.4992 112.994 41.3825 113.811C40.9659 116.704 41.3135 119.68 40.3821 122.523C40.1725 123.164 40.3556 123.933 40.3556 124.643C41.202 124.178 40.8969 123.321 41.08 122.611C42.0193 118.957 41.8309 115.239 41.8733 111.523C41.8919 109.906 41.5443 108.468 40.5838 107.063C40.3901 106.992 40.3158 106.976 40.2389 107.074Z" fill="#DEE7F9"/>
<path d="M40.4062 107.05C39.7164 104.912 37.8856 103.829 36.2113 102.699C34.6485 101.643 32.8601 100.925 30.9763 100.125C31.2363 101.18 32.3427 101.17 33.1042 101.694C34.6273 102.742 36.2538 103.643 37.729 104.749C38.5914 105.396 39.2388 106.327 40.1091 107.159C40.2338 107.186 40.3452 107.093 40.4062 107.05Z" fill="#DEE7F9"/>
<path d="M30.8516 100.093C30.565 99.8564 30.2519 99.649 29.8168 99.3963C29.6974 99.3511 29.6841 99.3139 29.7027 99.3219C29.9919 99.6144 30.2599 99.8963 30.6552 100.186C30.7773 100.189 30.825 100.122 30.8516 100.093Z" fill="#DEE7F9"/>
<path d="M14.5751 29.3457C13.7924 30.5585 12.4047 30.3377 11.3938 30.7686C10.1043 31.3191 8.9925 31.9095 8.13016 33.1808C8.50163 33.7393 8.89698 34.2286 9.3852 34.601C10.8737 35.734 11.3274 36.4973 10.3908 38.0238C9.36928 39.6834 9.84157 41.0903 10.6057 42.3829C12.3065 45.2578 14.5115 47.7312 17.4169 49.4733C18.3694 50.0451 19.4467 50.6568 20.5107 50.0131C21.702 49.2951 21.5189 47.9653 21.3518 46.8084C20.8981 43.6408 20.5213 40.4733 20.7787 37.1063C20.4045 36.2845 20.0649 35.585 19.6191 34.9627C18.3296 33.1569 18.3376 32.8723 19.8765 31.0877C17.8228 31.3617 16.3529 30.0638 14.5751 29.3457Z" fill="#FCFCFC"/>
<path d="M12.6836 66.8988C12.5377 65.4706 12.2909 64.077 11.9592 62.7047C11.2508 59.7659 10.4628 56.8457 9.77819 53.8989C9.40141 52.2713 9.17588 50.6064 8.87074 48.9628C8.82298 48.7128 8.73011 48.4681 8.62133 48.2394C8.57357 48.1383 8.43294 48.0798 8.33477 48C8.25517 48.133 8.09596 48.2713 8.10658 48.3963C8.17822 49.1649 8.23659 49.9415 8.39049 50.6941C9.0777 54.0345 9.77288 57.3723 10.5079 60.7021C10.9085 62.5212 11.3755 64.327 11.8664 66.1249C11.9539 66.4361 12.3148 66.6701 12.6836 66.8988Z" fill="#373C53"/>
<path d="M12.9414 66.8564C12.822 66.8564 12.8247 66.8857 12.8167 66.8937C12.9971 67.2049 13.1829 67.5054 13.4854 67.8405C13.419 67.5346 13.2386 67.1969 12.9414 66.8564Z" fill="#F0EDE7"/>
<path d="M13.6207 67.8564C13.8224 68.1889 14.016 68.5293 14.292 68.9708C14.2018 68.6915 14.0293 68.3086 13.7268 67.9017C13.5995 67.8751 13.6127 67.8618 13.6207 67.8564Z" fill="#F0EDE7"/>
<path d="M17.5317 72.1886C17.3194 71.9891 17.1125 71.7817 16.8365 71.4785C16.9374 71.6647 17.1098 71.9466 17.4176 72.1966C17.5529 72.1647 17.537 72.178 17.5317 72.1886Z" fill="#F0EDE7"/>
<path d="M15.4461 70.1941C15.4806 70.0318 15.401 69.8244 15.263 69.5186C15.2471 69.6595 15.2895 69.9042 15.4461 70.1941Z" fill="#F0EDE7"/>
<path d="M15.1801 69.4359C14.9864 69.2897 14.798 69.1354 14.4902 69.0264C14.3708 69.0716 14.3841 69.0556 14.3894 69.0476C14.5751 69.178 14.7582 69.3163 15.0687 69.4333C15.2013 69.4147 15.1854 69.428 15.1801 69.4359Z" fill="#F0EDE7"/>
<path d="M15.5762 70.2153C15.6558 70.3058 15.7275 70.4042 15.8018 70.5026C15.7885 70.4201 15.7752 70.3377 15.6585 70.2472C15.555 70.2339 15.5709 70.2233 15.5762 70.2153Z" fill="#F0EDE7"/>
<path d="M16.743 71.4072C16.6448 71.3274 16.5546 71.2396 16.4618 71.1519C16.4883 71.2396 16.5122 71.3247 16.6501 71.3992C16.7642 71.3832 16.751 71.3992 16.743 71.4072Z" fill="#F0EDE7"/>
<path d="M73.968 155.882C74.0954 155.888 74.2519 155.941 74.3448 155.888C74.5756 155.755 74.7773 155.571 74.9922 155.409C74.7189 155.372 74.4456 155.31 74.1723 155.313C74.1007 155.313 74.029 155.505 73.9627 155.747C73.9706 155.882 73.968 155.882 73.968 155.882Z" fill="#F0EDE7"/>
<path d="M12.5752 156.781C12.2303 156.728 12.0021 156.755 11.7739 156.784C11.8057 156.867 11.8455 157.021 11.8641 157.018C12.1427 156.976 12.416 156.917 12.5752 156.781Z" fill="#FCFCFC"/>
<path d="M8.39092 21.4658C8.51297 21.3248 8.51297 21.1519 8.51562 20.8488C8.45194 20.7158 8.38826 20.7131 8.22376 20.7104C8.17334 20.9551 8.2211 21.1971 8.39092 21.4658Z" fill="#5C405B"/>
<path d="M15.1363 24.6031C14.6469 24.5287 14.2862 24.3747 13.7709 24.2429C13.6176 24.2607 13.5182 24.0978 13.4785 24.0105C14.0514 23.9288 14.6613 23.936 15.4313 23.8719C15.4826 24.044 15.3723 24.2846 15.1363 24.6031Z" fill="#37484A"/>
<path d="M19.9354 30.9922C20.1796 30.9257 20.3839 30.8114 20.5908 30.6996C20.3759 30.6784 20.1583 30.6598 19.8824 30.7502C19.8213 30.8619 19.8983 30.9497 19.9354 30.9922Z" fill="#FCFCFC"/>
<path d="M13.477 24.6467C13.6202 24.4791 13.6149 24.3089 13.5831 24.0164C12.7154 23.4738 11.877 23.0483 11.0279 22.6467C10.6909 22.4871 10.3301 22.3861 9.8286 22.269C9.71716 22.4632 9.69859 22.7584 9.80737 22.8169C10.9695 23.4472 12.1529 24.0403 13.477 24.6467Z" fill="#111F22"/>
<path d="M9.55495 22.3011C9.75926 21.6256 9.33473 21.4846 8.65017 21.4819C8.4777 22.1282 8.87039 22.3011 9.55495 22.3011Z" fill="#111F22"/>
<path d="M6.87012 22.3594C6.77725 22.0562 6.5756 21.8461 6.3766 21.6333C6.35537 21.8248 6.33149 22.0189 6.41905 22.2503C6.60479 22.3461 6.68438 22.3993 6.87012 22.3594Z" fill="#5C405B"/>
<path d="M7.08208 22.3168C6.9043 22.2743 6.83001 22.2796 6.64162 22.2902C6.68142 22.4312 6.83531 22.5721 6.98655 22.7104C7.05288 22.5934 7.11922 22.479 7.08208 22.3168Z" fill="#373C53"/>
<path d="M13.9095 25.0108C13.9546 24.9018 13.8936 24.7794 13.7237 24.6411C13.676 24.7502 13.7397 24.8725 13.9095 25.0108Z" fill="#5C405B"/>
<path d="M13.4882 20.7504C13.6314 20.7823 13.796 20.7291 13.8809 20.7078C13.7906 20.4339 13.6394 20.1546 13.4218 19.9498C13.3794 19.9099 13.0742 20.144 12.8912 20.253C13.0424 20.4073 13.1936 20.5642 13.4882 20.7504Z" fill="#111F22"/>
<path d="M22.8225 29.9636C23.1688 29.7314 24.4093 28.9962 24.9863 28.6577C24.2651 28.3191 22.6783 27.1486 20.9473 26.9164C18.7835 26.6262 17.4852 26.336 15.8985 25.1752C14.3117 24.0143 13.5904 25.3203 12.7249 26.336C11.8594 27.3517 13.4462 29.2381 14.4559 29.9636C15.2638 30.544 18.6392 31.2695 20.226 31.5597C20.9473 31.1244 22.4763 30.1958 22.8225 29.9636Z" fill="#B97A5C"/>
<path d="M371.859 90.5627C367.981 82.3813 362.256 75.9479 355.664 70.2175C353.798 68.5949 351.892 67.0255 349.966 65.4789C348.893 64.6163 348.635 63.6625 348.969 62.3021C349.64 59.5775 348.718 58.7529 345.97 59.3761C344.086 59.8055 342.194 60.1855 340.09 60.5921C335.434 60.5351 331.435 62.3249 327.181 63.7955C322.495 65.8399 318.53 68.6975 314.598 71.5627C313.298 72.5127 312.411 74.0289 311.262 75.4539C311.148 78.2887 311.759 78.8321 314.242 78.0265C319.239 76.4077 324.178 75.6591 329.262 77.7871C335.609 80.4433 338.843 85.4707 339.15 92.3563C339.692 104.535 335.446 115.24 329.721 125.587C324.823 134.437 318.583 142.144 310.697 148.513C308.514 150.276 305.829 151.279 303.79 153.517C303.775 154.475 304.271 154.908 304.848 155.231C311.437 158.94 318.249 162.079 326.013 163.279C327.405 162.831 328.516 163.211 329.861 163.557C344.51 167.057 359.22 168.409 374.195 169.584C374.6 169.481 374.756 169.42 375.124 169.223C377.652 164.974 378.005 160.57 377.19 155.793C376.667 155.117 376.117 155.079 375.548 155.06C369.767 154.843 366.688 151.568 366.351 145.72C366.032 140.164 366.882 134.722 367.735 129.304C368.531 124.246 369.346 119.177 370.51 114.172C371.215 111.143 372.117 108.236 373.963 105.44C374.506 101.799 372.917 98.7061 372.432 95.4305C372.284 94.4387 371.749 93.5039 372.038 92.2347C372.117 91.5887 372.026 91.1669 371.859 90.5627Z" fill="#79AEB9"/>
<path d="M326.536 162.846C318.912 161.239 311.971 158.45 305.37 154.767C304.972 154.543 304.544 154.372 304.028 154.015C303.82 153.749 303.713 153.643 303.391 153.483C291.828 156.702 282.65 162.66 278.252 174.223C276.482 178.878 276.869 183.765 277.695 188.812C279.185 193.14 280.489 197.316 282.658 201.367C285.418 206.653 288.272 211.642 291.593 216.567C293.095 216.673 293.235 217.958 293.788 218.691C297.61 223.749 301.382 228.845 305.056 234.009C305.836 235.107 306.299 234.013 307.091 234.077C309.355 233.997 310.829 232.614 312.482 231.657C314.802 230.311 317.153 229.038 319.667 227.625C320.599 226.591 320.929 225.596 320.338 224.269C319.894 223.62 319.378 223.259 319.158 222.483C319.071 222.214 319.033 222.107 318.923 221.845C318.741 221.499 318.62 221.313 318.408 220.998C318.165 220.58 318.033 220.287 317.881 219.823C317.786 219.565 317.741 219.462 317.615 219.215C317.217 218.6 316.96 218.106 316.736 217.391C316.626 217.114 316.573 217 316.436 216.726C314.802 212.919 312.596 209.582 311.303 205.615C311.208 205.319 311.163 205.205 311.03 204.931C310.575 204.316 310.246 203.841 310.056 203.088C309.95 202.811 309.897 202.704 309.749 202.446C309.343 201.925 309.139 201.5 308.953 200.869C308.847 200.592 308.801 200.485 308.657 200.231C308.278 199.721 308.043 199.338 307.884 198.718C307.797 198.441 307.755 198.331 307.637 198.057C307.44 197.688 307.323 197.483 307.122 197.111C306.538 195.37 305.128 193.873 306.731 191.954C307.573 190.723 308.604 190.457 309.753 190.86C313.521 192.194 317.49 192.399 321.604 193.109C323.932 193.41 326.043 193.242 328.397 193.315C336.924 193.334 345.105 192.053 353.328 191.365C355.542 191.179 357.809 191.384 360.186 190.624C361.729 189.454 363.026 188.318 364.83 187.615C365.111 187.489 365.217 187.432 365.475 187.28C365.884 186.957 366.111 186.699 366.475 186.349C366.676 186.163 366.756 186.091 366.946 185.893C367.275 185.532 367.491 185.289 367.848 184.943C368.037 184.727 368.109 184.632 368.265 184.377C368.682 183.378 369.16 182.637 369.925 181.861C370.145 181.637 370.229 181.542 370.422 181.295C371.029 180.3 371.362 179.361 372.166 178.491C372.371 178.255 372.446 178.153 372.606 177.883C372.947 176.997 373.015 176.222 373.462 175.36C373.671 174.93 373.777 174.676 373.94 174.208C374.096 172.513 375.009 171.058 373.974 169.405C359.204 168.307 344.714 166.734 330.229 163.39C328.966 162.96 327.889 162.721 326.536 162.846Z" fill="#9F9B8D"/>
<path d="M303.168 153.654C303.448 153.733 303.543 153.768 303.782 153.828C305.158 153.087 306.39 152.324 307.618 151.548C313.495 147.851 318.23 142.922 322.609 137.61C327.237 131.994 330.839 125.701 334.005 119.203C335.912 115.293 337.417 111.101 338.44 106.876C339.206 103.706 340.317 100.488 339.873 97.0641C339.657 95.4111 339.782 93.7049 339.847 92.0253C340.105 85.0295 335.077 78.9609 329.148 76.8861C325.02 75.4421 320.899 75.1229 316.71 76.6429C315.53 77.0685 314.295 77.0913 313.1 77.7905C311.827 78.5391 311.652 76.9165 311.22 75.8411C307.819 79.1509 305.875 83.5209 303.994 87.9213C303.566 88.9245 303.24 89.9733 302.861 91.2083C301.985 92.2267 301.424 93.2185 301.102 94.5827C298.956 102.897 297.322 111.109 295.411 119.256C294.892 121.468 293.678 123.14 291.946 124.492C285.641 129.417 278.901 133.711 271.978 138.115C270.329 139.369 268.813 140.456 267.702 141.972C266.762 143.261 265.89 144.61 266.887 146.506C267.163 146.89 267.323 147.08 267.497 147.395C267.425 148.98 267.975 150.192 269.089 151.393C270.003 152.358 270.78 153.171 271.61 154.182C272.85 156.029 274.704 156.116 276.664 156.443C277.771 156.26 278.681 156.12 279.795 156.025C280.114 155.964 280.239 155.93 280.546 155.831C282.578 154.987 284.504 154.433 286.597 153.779C286.9 153.692 287.017 153.65 287.306 153.528C288.731 152.662 290.115 152.156 291.662 151.575C291.946 151.469 292.056 151.423 292.325 151.294C293.064 150.815 293.682 150.515 294.543 150.332C294.816 150.237 294.922 150.188 295.172 150.051C295.851 149.515 296.442 149.166 297.208 148.759C298.167 147.783 299.358 147.509 300.412 146.673C301.086 145.966 301.909 146.016 302.671 145.518C303.683 144.549 304.745 143.983 305.966 143.333C306.455 142.873 306.792 142.52 307.277 142.045C309.829 140.126 312.069 138.157 313.893 135.497C314.333 134.961 314.689 134.608 315.182 134.125C316.16 133.05 316.425 131.731 317.456 130.683C318.234 128.623 319.026 126.757 319.53 124.793C319.598 124.53 319.648 124.261 319.773 124.017C319.849 124.321 319.632 124.549 319.564 124.815C319.094 126.693 318.298 128.463 317.604 130.462C316.596 131.526 316.293 132.811 315.375 133.924C314.894 134.414 314.549 134.771 314.071 135.269C312.323 137.91 310.215 139.924 307.63 141.725C307.133 142.197 306.792 142.55 306.307 143.025C305.23 143.891 304.104 144.351 303.024 145.202C302.409 145.955 301.602 145.909 300.825 146.346C299.805 147.38 298.535 147.684 297.417 148.573C296.981 148.945 296.658 149.162 296.594 149.755C298.793 151.104 300.556 152.932 303.168 153.654Z" fill="#FAFAFA"/>
<path d="M303.176 153.783C301.28 152.415 299.199 151.134 296.905 149.854C296.314 149.493 295.878 149.417 295.188 149.698C294.987 149.82 295.017 149.854 295.013 149.831C294.342 150.553 293.304 150.31 292.36 150.853C292.197 150.96 292.227 150.975 292.223 150.956C290.756 151.883 289.168 152.533 287.321 153.091C287.151 153.198 287.185 153.217 287.181 153.198C285.153 154.182 283.068 154.976 280.619 155.337C280.433 155.44 280.467 155.463 280.459 155.444C279.527 156.071 278.469 156.029 277.241 155.995C275.391 155.451 273.715 154.923 271.854 154.387C269.461 155.474 267.285 156.625 265.048 157.64C253.713 162.789 245.365 170.788 241.142 182.735C239.28 187.998 237.563 193.314 235.565 198.524C234.124 202.279 232.346 205.9 230.693 209.567C229.825 211.49 228.858 213.367 228.021 215.301C227.255 217.064 227.71 217.919 229.882 219.246C234.147 222.084 238.389 224.714 242.798 227.423C244.948 228.286 246.434 227.533 247.772 226.12C250.324 223.429 252.913 220.773 255.457 218.075C255.673 217.847 255.669 217.414 255.768 216.871C253.834 209.939 252.868 203.134 252.909 196.073C252.943 189.845 256.913 184.738 262.186 183.571C263.058 183.56 263.684 183.282 264.506 183.248C264.825 183.237 264.976 183.233 265.128 183.241C265.284 183.248 265.234 183.26 264.817 183.263C263.885 183.244 263.164 183.567 262.179 183.59C256.803 184.806 252.909 189.963 252.928 196.149C252.951 202.533 253.554 208.75 255.302 214.872C255.465 215.438 255.707 215.902 256.302 216.449C257.447 215.51 258.406 214.416 259.555 213.295C260.351 211.201 268.002 204.46 269.731 202.085C271.459 199.71 271.543 201.078 271.963 200.246C273.84 196.56 276.547 193.368 278.207 189.343C278.041 187.193 277.753 185.258 277.718 183.317C277.608 176.936 279.273 171.164 283.496 166.205C287.655 161.326 292.94 158.107 298.653 155.489C300.052 154.855 301.542 154.406 303.176 153.783Z" fill="#5E5C54"/>
<path d="M361.688 189.401C360.065 189.784 358.53 190.096 356.983 190.267C354.416 190.552 351.838 190.731 349.264 190.978C348.078 191.092 346.898 191.274 345.712 191.399C342.508 191.738 339.305 192.121 336.094 192.376C333.785 192.558 331.461 192.555 328.898 192.688C328.523 192.843 328.39 192.942 328.091 193.22C326.684 195.101 325.953 197.077 325.759 199.098C324.944 207.534 323.852 215.947 323.322 224.41C323.151 227.116 322.688 229.779 322.26 232.698C322.362 237.262 321.934 241.533 321.161 246.024C321.221 249.889 320.816 253.465 320.338 257.037C320.239 257.77 320.11 258.507 320.247 259.245C320.478 260.499 321.009 261.608 322.408 261.791C324.262 262.034 324.933 260.616 325.676 259.02C326.665 252.621 327.727 246.473 327.655 239.986C327.708 237.543 327.799 235.316 328.026 233.104C328.568 227.75 329.167 222.404 329.766 217.057C329.857 216.232 330.142 215.427 330.237 214.602C330.479 212.482 330.714 210.358 330.858 208.23C330.938 207.097 331.34 206.466 332.542 206.52C333.008 206.539 333.474 206.523 333.94 206.523C348.214 206.52 362.488 206.516 376.761 206.512C377.508 206.512 378.274 206.421 378.994 206.565C379.419 206.649 380.029 207.048 380.112 207.409C380.928 210.912 381.655 214.439 382.399 217.958C382.797 219.85 383.145 221.758 383.578 223.642C384.135 226.074 384.806 228.476 385.329 230.916C386.258 235.24 387.084 239.587 388.013 243.912C388.593 246.617 389.314 249.289 389.924 251.99C390.432 254.24 390.997 256.49 391.289 258.773C391.433 259.902 391.835 260.761 392.631 261.411C393.071 261.768 393.924 262.125 394.287 261.927C394.727 261.688 395.118 260.829 395.061 260.29C394.849 258.367 394.466 256.463 394.102 254.559C393.582 251.835 393.002 249.125 392.487 246.401C391.918 243.406 391.376 240.408 390.853 237.406C390.25 233.944 389.712 230.471 389.082 227.017C388.567 224.201 387.926 221.408 387.395 218.592C386.815 215.507 386.322 212.406 385.746 209.32C385.136 206.048 384.586 202.758 383.775 199.535C383.422 198.133 383.585 196.697 382.732 195.272C381.075 192.509 379.233 190.18 376.113 189.055C375.529 188.846 374.93 188.641 375.988 187.846C381.125 183.989 383.35 178.643 383.528 172.308C383.688 166.62 383.923 160.935 384.112 155.25C384.294 149.751 384.45 144.249 384.647 138.75C384.764 135.494 384.946 132.237 385.033 128.745C383.153 127.613 382.607 128.939 382.266 130.212C381.64 132.537 380.704 134.867 380.67 137.253C380.602 141.836 379.479 146.255 379.043 151.009C379.286 152.248 379.506 153.255 379.313 154.289C378.073 160.794 377.466 167.364 377.045 173.973C376.678 179.779 373.031 183.161 367.67 185.243C367.314 185.369 367.181 185.433 366.859 185.631C366.673 185.764 366.715 185.779 366.715 185.756C366.419 186.053 365.994 186.247 365.672 186.771C365.555 186.885 365.6 186.9 365.593 186.877C365.357 187.136 365.035 187.28 364.58 187.523C364.345 187.675 364.258 187.744 363.932 188.029C363.451 188.447 363.178 188.587 362.723 188.709C362.26 188.88 361.999 189.043 361.688 189.401Z" fill="#2D3300"/>
<path d="M266.755 146.685C266.474 143.432 268.791 141.726 270.777 139.852C271.107 139.541 271.52 139.32 271.967 138.899C271.058 137.565 269.678 137.778 268.404 137.759C264.673 137.702 260.943 137.77 257.212 137.724C254.229 137.69 253.941 137.451 253.933 134.559C253.895 123.524 253.873 112.489 253.945 101.453C253.971 97.7333 255.393 96.2931 259.138 95.8333C260.344 95.6851 261.561 95.7231 262.774 95.7231C274.246 95.7193 285.722 95.7307 297.194 95.7117C298.581 95.7117 300.003 95.8789 301.523 95.0315C302.111 93.8611 302.486 92.8503 302.861 91.6343C286.654 91.4367 270.451 91.4481 254.244 91.4595C253.592 91.4595 252.936 91.4177 252.288 91.4709C250.313 91.6267 249.118 92.8769 249.118 94.9099C249.103 111.159 249.103 127.404 249.122 143.652C249.122 145.583 250.013 146.445 251.981 146.48C256.818 146.559 261.659 146.605 266.755 146.685Z" fill="#A3A3A3"/>
<path d="M337.102 55.7621C339.475 54.4663 339.79 52.0001 340.946 50.0887C341.132 49.7847 341.155 49.3857 341.306 49.0551C342.227 47.0639 342.231 47.0677 343.998 48.2305C348.494 51.1907 352.983 49.6555 355.678 44.7763C357.343 41.7591 356.44 36.5987 354.511 34.4403C351.315 30.8645 345.086 30.9899 342.152 34.9343C340.897 36.6215 340.863 36.5835 338.922 35.7247C337.921 35.2801 336.939 34.7633 335.892 34.4631C334.494 34.0603 333.58 33.3231 332.932 31.9513C332.17 30.3401 330.471 30.1577 328.879 30.0437C328.519 30.0171 328.143 30.1425 327.779 30.2185C324.383 30.9139 323.659 32.1983 324.815 35.6867C324.955 36.7127 325.52 37.2485 326.115 37.6627C328.322 39.2055 329.425 41.0637 328.367 43.8263C328.011 44.7535 328.269 45.7111 329.281 46.1899C330.183 46.6155 330.888 46.2013 331.472 45.5021C331.889 45.0005 332.314 44.4875 332.909 44.2063C333.527 43.9137 334.183 43.9251 334.759 44.3317C335.381 44.7687 335.422 45.4071 335.244 46.0797C335.028 46.9005 334.619 47.6225 334.145 48.3179C332.226 51.1451 333.44 54.4283 337.102 55.7621Z" fill="#CCC7B5"/>
<path d="M337.25 55.8799C335.464 55.4201 335.351 53.4935 334.259 52.4979C333.948 52.2167 333.906 51.6543 333.63 51.3123C333.122 50.6891 333.061 50.3623 333.827 49.7885C334.915 48.9715 335.385 47.6491 336.003 46.4369C336.651 45.1715 336.458 44.3393 335.408 43.5679C334.608 42.9827 332.761 42.9751 332.075 43.6401C331.579 44.1189 331.306 44.8257 330.813 45.3083C330.498 45.6161 329.846 45.9543 329.558 45.8175C329.175 45.6389 328.769 45.0005 328.792 44.5825C328.838 43.7845 329.054 42.9371 329.418 42.2227C330.172 40.7521 329.584 39.7527 328.5 38.8407C327.389 37.9059 326.279 36.9673 324.997 35.9717C322.412 38.5785 318.086 45.1905 315.629 48.0291C316.099 49.2223 316.952 49.9519 317.919 50.8411C319.102 51.1299 320.107 51.0273 321.308 51.0501C322.078 51.0729 322.597 50.8183 323.151 50.7879C323.773 50.7499 324.394 50.7879 325.012 50.7195C324.413 50.8639 323.807 50.7499 322.999 50.8297C321.403 51.2515 319.97 50.9627 318.355 51.1337C316.729 52.0533 317.794 49.5795 316.46 50.8411C316.164 52.5853 315.898 54.1547 315.823 55.7355C315.735 57.5861 316.206 58.2093 317.919 58.8515C319.208 59.3341 320.641 59.5545 321.801 60.2423C323.53 61.2683 325.077 62.6021 326.87 63.8941C329.838 63.3089 332.64 62.6287 335.442 61.9561C336.841 61.6217 338.243 61.2987 339.76 60.7857C338.986 59.0833 338.099 57.5709 337.25 55.8799Z" fill="#DBB385"/>
<path d="M256.309 216.631C255.703 213.504 254.823 210.418 254.148 207.287C253.121 202.53 252.958 197.639 253.75 192.904C254.425 188.876 256.908 185.73 261.154 184.506C261.503 184.407 261.833 184.225 262.364 183.989C262.731 183.746 262.803 183.552 262.671 183.207C256.794 183.765 254.118 187.717 252.552 192.729C252.234 193.752 252.507 194.949 252.427 196.062C252.063 201.101 252.765 206.052 253.686 210.969C254.038 212.847 254.85 214.636 255.612 216.567C255.888 216.666 256.01 216.662 256.309 216.631Z" fill="#DEE7F9"/>
<path d="M317.668 57.1785C319.32 56.4694 319.687 54.9936 319.889 53.2856C320.579 52.1637 317.834 53.7609 319.328 52.1573C319.055 50.7801 318.102 50.533 316.857 50.4965C316.213 51.1155 315.719 51.658 315.306 52.2607C314.026 54.1355 314.203 55.1198 316.054 56.3453C316.506 56.6422 317.035 56.8239 317.668 57.1785Z" fill="#E1FF01"/>
<path d="M268.983 151.545C268.782 150.276 268.335 148.995 267.702 147.623C265.643 147.517 264.081 148.22 262.683 149.721C262.36 150.013 262.288 150.219 262.432 150.602C263.448 151.53 264.529 151.644 265.674 151.587C266.686 151.533 267.71 151.549 268.983 151.545Z" fill="#DBB385"/>
<path d="M262.288 150.796C262.542 150.545 262.546 150.348 262.554 150.006C258.922 149.846 255.286 149.831 251.65 149.827C251.287 149.827 250.915 149.873 250.562 149.96C250.452 149.987 250.308 150.215 250.32 150.336C250.335 150.481 250.487 150.713 250.604 150.728C251.146 150.811 251.7 150.868 252.249 150.868C255.514 150.872 258.778 150.857 262.288 150.796Z" fill="#263471"/>
<path d="M345.481 65.6423C346.193 65.6233 346.671 65.6651 347.115 65.5663C347.285 65.5283 347.433 65.1825 347.497 64.9507C347.52 64.8633 347.285 64.6011 347.156 64.5935C346.508 64.5479 345.826 64.4301 345.211 64.5783C342.148 65.3269 339.058 65.7715 335.897 65.6651C335.593 65.6537 335.279 65.9311 334.968 66.0717C335.286 66.2997 335.593 66.7063 335.923 66.7253C339.089 66.9305 342.175 66.3719 345.481 65.6423Z" fill="#254147"/>
<path d="M301.731 95.0847C287.651 94.8567 273.579 94.8111 259.502 94.8909C257.997 94.8985 256.428 95.5027 255.01 96.1107C253.869 96.6009 253.342 97.7979 253.163 99.0367C253.072 99.6789 253.129 100.344 253.129 100.998C253.126 112.679 253.118 124.36 253.118 136.045C253.118 138.716 252.758 138.694 255.601 138.69C260.916 138.682 266.228 138.686 271.793 138.713C273.461 137.926 274.928 137.185 276.285 136.284C280.846 133.256 285.433 130.25 289.888 127.066C292.242 125.382 294.843 123.782 295.783 120.75C296.352 118.915 296.814 117.037 297.243 115.164C297.94 112.124 298.57 109.069 299.229 106.021C299.696 103.87 300.139 101.716 300.636 99.5687C300.962 98.1361 301.367 96.7225 301.731 95.0847Z" fill="#E5E5E5"/>
<path d="M326.029 98.6489C325.43 100.253 324.888 101.708 324.524 103.209C323.963 105.512 323.5 107.841 323.053 110.171C322.985 110.528 323.223 110.946 323.318 111.333C323.561 110.953 323.913 110.604 324.027 110.186C324.44 108.692 324.96 107.195 325.092 105.668C325.248 103.897 325.726 102.263 326.332 100.625C326.488 100.211 326.397 99.7053 326.431 99.0061C326.351 98.6869 326.256 98.6071 326.029 98.6489Z" fill="#254147"/>
<path d="M314.098 135.467C311.831 137.363 309.601 139.48 307.365 141.798C308.017 141.737 308.843 141.65 309.313 141.194C311.057 139.491 313.313 138.211 314.098 135.467Z" fill="#254147"/>
<path d="M317.419 130.523C319.364 128.866 319.587 126.259 320.236 123.824C320.285 123.63 320.08 123.368 319.993 123.14C319.838 123.352 319.621 123.546 319.538 123.782C318.799 125.929 318.082 128.083 317.419 130.523Z" fill="#5E5C54"/>
<path d="M280.516 155.261C282.92 155.801 285.039 154.832 287.124 153.376C284.982 153.813 282.791 154.448 280.516 155.261Z" fill="#254147"/>
<path d="M287.226 153.023C289.133 153.434 290.676 152.503 292.17 151.131C290.578 151.575 288.94 152.21 287.226 153.023Z" fill="#254147"/>
<path d="M306.208 143.31C304.699 142.995 303.77 143.964 302.864 145.161C303.979 144.747 305.086 144.127 306.208 143.31Z" fill="#254147"/>
<path d="M300.646 146.692C299.49 147.088 298.364 147.699 297.257 148.524C298.41 148.129 299.543 147.517 300.646 146.692Z" fill="#254147"/>
<path d="M317.381 130.713C315.796 131.09 315.823 132.648 315.182 133.924C316.881 133.879 316.744 132.226 317.461 131.014C317.476 130.812 317.411 130.748 317.381 130.713Z" fill="#5E5C54"/>
<path d="M277.179 155.797C278.23 157.386 279.253 156.208 280.387 155.611C279.401 155.489 278.347 155.554 277.179 155.797Z" fill="#202844"/>
<path d="M292.283 150.785C293.167 150.944 294.224 151.245 294.956 150.006C294.13 150.078 293.25 150.344 292.283 150.785Z" fill="#254147"/>
<path d="M300.636 146.491C301.436 146.445 302.372 146.829 302.857 145.567C302.873 145.362 302.869 145.358 302.869 145.354C302.164 145.605 301.458 145.86 300.689 146.293C300.621 146.475 300.628 146.487 300.636 146.491Z" fill="#254147"/>
<path d="M295.002 149.614C295.415 149.831 295.84 149.838 296.481 149.854C296.86 149.591 297.03 149.322 297.239 148.896C297.277 148.74 297.269 148.729 297.265 148.721C296.458 148.778 295.514 148.364 295.002 149.614Z" fill="#254147"/>
<path d="M325.926 98.5918C325.892 98.7742 326.169 98.7666 326.305 98.7704C326.802 98.341 327.158 97.9116 327.48 97.2542C326.351 96.84 326.438 97.9268 325.926 98.5918Z" fill="#373C53"/>
<path d="M315.186 134.125C314.818 134.365 314.454 134.616 314.071 135.053C314.056 135.243 314.071 135.258 314.083 135.269C314.458 135.03 314.826 134.779 315.201 134.335C315.201 134.137 315.186 134.133 315.186 134.125Z" fill="#254147"/>
<path d="M328.625 96.1445C328.227 96.1711 327.844 96.4067 327.45 96.8285C327.442 97.0147 327.491 97.0641 327.518 97.0869C327.908 96.8627 328.272 96.6081 328.625 96.1445Z" fill="#373C53"/>
<path d="M307.346 141.992C306.959 142.235 306.577 142.474 306.205 142.911C306.22 143.105 306.228 143.113 306.228 143.117C306.614 142.873 306.997 142.63 307.361 142.189C307.35 141.996 307.346 141.992 307.346 141.992Z" fill="#254147"/>
<path d="M328.637 95.9663C328.967 95.8751 329.285 95.7763 329.607 95.6775C329.316 95.6509 329.02 95.6243 328.671 95.7725C328.614 95.9397 328.629 95.9587 328.637 95.9663Z" fill="#373C53"/>
<path d="M262.782 183.028C262.558 183.275 262.558 183.454 262.558 183.765C263.339 183.837 264.12 183.777 265.105 183.712C265.378 183.609 265.447 183.507 265.428 183.241C264.56 183.039 263.786 183.001 262.782 183.028Z" fill="#F7F8F5"/>
<path d="M265.53 183.055C265.333 183.184 265.329 183.29 265.317 183.552C265.374 183.777 265.435 183.898 265.503 183.898C265.924 183.917 266.345 183.913 266.766 183.913C266.421 183.621 266.072 183.324 265.53 183.055Z" fill="#DEE7F9"/>
<path d="M319.643 51.9069C319.233 52.0457 319.061 52.1056 318.902 52.1894C318.311 52.5 317.722 52.8142 317.132 53.1285C317.884 53.1558 318.633 53.1844 319.595 53.1585C321.298 52.5364 322.789 51.964 324.36 51.203C324.203 50.5778 323.833 50.8194 323.341 50.7658C322.081 51.0804 320.984 51.459 319.643 51.9069Z" fill="#254147"/>
<path d="M323.417 50.6264C323.478 50.8143 323.779 50.9305 324.257 51.0251C325.272 50.6512 326.106 50.3038 326.928 49.9288C327.073 49.862 327.158 49.6674 327.269 49.5362C327.094 49.5168 326.896 49.4449 326.744 49.4938C325.713 49.8294 324.684 50.1963 323.417 50.6264Z" fill="#254147"/>
<path d="M333.106 46.8815C333.269 47.0335 333.531 46.9955 333.576 46.8777C333.777 46.3343 333.929 45.7719 334.061 45.2057C334.069 45.1753 333.777 45.0689 333.625 45.0005C333.451 45.5553 333.28 46.1063 333.106 46.8815Z" fill="#254147"/>
<path d="M333.11 47.1133C332.974 47.1931 332.837 47.2729 332.701 47.3527C332.818 47.3565 332.936 47.3566 333.08 47.235C333.107 47.1096 333.107 47.1095 333.11 47.1133Z" fill="#254147"/>
<path fill-rule="evenodd" clip-rule="evenodd" d="M329.797 95.78C329.797 95.4652 329.542 95.21 329.228 95.21C328.161 95.21 326.102 96.0162 325.271 98.8491C324.79 100.486 323.742 105.071 322.679 109.737C322.644 109.89 322.609 110.044 322.574 110.198C321.54 114.735 320.506 119.273 319.96 121.28C319.806 121.846 319.656 122.422 319.505 123.004C318.521 126.784 317.469 130.826 314.759 134.181C311.603 138.089 303.715 144.126 296.549 147.906C296.393 147.988 296.236 148.071 296.079 148.154C292.596 149.992 288.78 152.005 285.443 153.519C283.699 154.311 282.101 154.959 280.76 155.373C279.391 155.796 278.384 155.944 277.774 155.83C275.384 155.38 272.53 154.515 271.404 154.139C271.106 154.04 270.784 154.201 270.685 154.5C270.585 154.798 270.746 155.121 271.044 155.221C272.193 155.605 275.102 156.487 277.564 156.95C278.471 157.121 279.714 156.889 281.094 156.463C282.502 156.028 284.15 155.358 285.912 154.558C289.281 153.029 293.124 151.001 296.597 149.169C296.759 149.083 296.919 148.999 297.079 148.914C304.32 145.094 312.354 138.971 315.643 134.899C318.52 131.336 319.637 127.031 320.613 123.265C320.763 122.689 320.909 122.126 321.057 121.58C321.61 119.549 322.647 114.996 323.676 110.483C323.713 110.319 323.75 110.155 323.788 109.991C324.857 105.299 325.894 100.764 326.362 99.1708C327.047 96.8357 328.652 96.35 329.228 96.35C329.542 96.35 329.797 96.0948 329.797 95.78Z" fill="#254147"/>
</svg>
