<svg width="913" height="370" viewBox="0 0 913 370" fill="none" xmlns="http://www.w3.org/2000/svg">
<path d="M196 72C218.257 83.9473 243.383 86.2803 268.409 85.9202C280.251 85.7498 287.164 84.088 297.554 80.1352C299.931 79.231 297.445 85.2989 298.188 87.728C301.105 97.2698 305.266 102.866 313.032 109.603C328.309 122.854 349.026 130.134 368.697 133.466C389.994 137.074 425.398 140.014 443.64 124.607C452.83 116.846 442.678 110.825 435.494 110.145C419.855 108.664 400.883 115.54 392.411 129.308C382.545 145.339 391.441 165.58 403.453 177.576C426.017 200.11 456.923 198.735 486.543 201.982C492.462 202.631 498.365 203.413 504.283 204.061C507.907 204.458 517.02 202.893 515.054 205.959C505.352 221.099 524.006 238.07 535.782 246.906C564.091 268.148 597.829 266.684 631 262.363" stroke="#525252" stroke-width="3" stroke-linecap="round"/>
<path d="M178.92 295.713C183.534 293.104 187.513 290.243 190.93 286.574C195.129 282.07 198.168 276.8 200.478 271.231C203.097 264.921 204.95 258.292 207.139 251.809C207.239 251.515 207.417 251.242 207.559 250.959C207.853 251.195 208.194 251.389 208.431 251.678C213.727 258.134 218.924 264.664 224.32 271.037C229.081 276.658 234.246 281.85 240.938 285.277C245.216 287.472 249.72 288.563 254.822 288.805C262.728 291.046 276.297 282.07 275.64 274.055C275.966 270.386 276.47 266.989 276.9 263.588C277.562 258.365 275.635 253.678 273.158 249.389C266.47 237.82 258.817 226.865 250.964 216.057C246.665 210.141 242.476 204.147 238.141 198.263C232.031 189.979 223.889 184.127 214.908 179.397C205.008 174.185 195.009 169.146 185.051 164.049C184.043 163.534 182.988 163.109 181.681 162.484C180.762 163.057 180.647 163.949 180.789 164.836C181.565 169.686 181.23 174.458 179.975 179.497C180.883 182.562 183.025 184.484 184.668 186.72C186.337 188.998 187.838 191.328 188.846 194.273C189.691 195.187 190.541 195.607 191.576 196.252C196.93 199.491 202.677 201.575 206.924 206.073C208.163 207.386 209.307 208.735 210.446 210.472C213.38 214.251 212.955 218.54 212.835 222.524C212.661 228.246 213.081 234.072 211.407 239.683C211.297 240.046 211.129 240.392 211.066 240.77C211.081 240.413 211.249 240.093 211.323 239.752C213.029 232.188 212.982 224.54 212.598 216.85C212.499 214.839 212.121 213.065 210.887 211.16C206.431 203.706 199.124 200.425 191.933 196.536C191.04 195.743 190.08 195.554 189.224 194.704C184.222 196.263 180.531 194.415 177.282 190.987C175.424 189.029 173.771 186.867 171.403 185.014C159.661 185.245 150.38 179.681 141.299 173.676C135.615 169.917 134.964 169.849 130.449 175.014C127.557 178.321 125.158 182.016 123.179 185.927C120.623 190.982 116.833 193.365 111.001 193.885C103.595 194.541 96.1411 194.788 88.5614 196.089C92.64 201.26 98.4035 204.079 104.01 207.092C106.771 208.572 109.642 209.842 112.503 211.48C117.395 214.283 122.654 215.884 127.741 218.613C134.617 222.262 141.73 224.681 148.37 228.125C154.023 231.059 155.572 234.676 154.107 240.817C152.26 248.596 149.661 256.171 147.84 263.945C145.226 275.089 145.273 285.776 154.842 294.526C162.768 298.573 170.611 299.083 178.92 295.713Z" fill="#37484A"/>
<path d="M180.689 180.977C180.831 179.928 180.636 179.056 180.941 178.416C183.319 173.361 182.489 168.238 181.413 162.705C177.608 155.404 172.358 149.64 166.894 143.735C166.327 142.895 165.934 142.239 165.414 141.399C164.947 140.927 164.532 140.748 164.123 140.234C164.186 139.73 163.398 139.987 163.823 139.756C164.222 140.449 164.69 140.785 165.304 141.294C165.692 141.856 165.991 142.192 166.653 142.396C171.519 144.191 176.18 144.538 181.177 143.793C188.116 142.758 194.478 140.36 200.573 137.121C204.646 134.953 208.236 132.103 210.682 128.045C212.278 125.4 213.286 122.66 213.391 119.463C213.585 113.463 212.215 107.752 210.703 102.067C209.134 96.1777 207.491 90.2881 205.486 84.5351C202.998 77.412 200.583 70.184 194.662 64.8876C192.006 62.515 189.261 60.6411 185.156 61.1817C180.663 60.0112 176.259 61.7854 173.608 65.5437C172.479 67.1395 172.128 69.0554 171.051 70.9871C169.603 77.4698 171.02 83.5903 171.55 89.7318C171.66 91.0125 172.028 92.2775 171.807 93.5741C171.403 95.9467 170.044 96.8968 167.666 96.3351C162.411 95.0911 151.798 83.438 151.173 78.2256C151.079 77.4383 151.068 76.6194 151.435 75.9475C154.202 70.8401 152.16 67.36 147.493 64.4729C144.291 62.7565 141.698 60.5886 138.407 59.0978C133.562 57.1031 131.919 58.1635 130.733 62.2945C130.591 62.788 130.392 63.2604 130.161 64.0373C131.347 68.4308 135.363 69.6381 138.234 72.0212C139.383 72.9765 140.774 73.6956 142.097 74.4515C140.701 73.8059 139.478 72.8663 138.166 72.0789C135.184 70.2942 132.701 67.8481 129.667 65.7117C123.358 66.5253 119.337 70.4674 115.867 74.9974C109.075 83.8632 103.59 93.5636 98.6974 103.568C93.9207 113.348 89.1598 123.153 84.9762 133.189C81.2808 142.066 78.2888 151.241 75.1918 160.354C73.0659 166.605 71.1763 172.941 69.4126 179.303C68.5307 182.484 67.9375 185.786 67.6278 189.072C67.3181 192.389 68.7039 194.1 72.0319 194.573C77.2285 195.307 82.4724 195.727 88.0365 196.289C94.157 196.027 99.9415 195.796 105.721 195.465C108.792 195.286 111.915 195.203 114.907 194.583C117.647 194.016 120.214 192.746 121.815 190.169C124.371 186.064 126.812 181.88 129.547 177.901C130.985 175.812 132.917 174.054 134.696 172.211C135.63 171.245 136.313 171.461 137.562 172.343C144.732 177.387 152.113 182.148 160.627 184.688C163.928 185.675 167.319 186.279 171.078 185.45C175.518 186.442 178.017 183.78 180.689 180.977Z" fill="#CCC7B5"/>
<path d="M82.5564 211.979C80.4777 211.774 78.6615 211.574 76.8715 211.711C67.948 212.399 58.8146 204.278 56.5207 197.512C55.1612 193.502 54.1795 189.46 53.5392 185.292C53.156 182.772 52.5418 180.284 51.9697 177.802C51.1928 174.442 50.3057 171.109 49.5603 167.739C49.1194 165.744 48.8674 163.708 48.6522 161.23C48.6102 160.395 48.3425 160.117 47.6916 159.839C45.0198 159.566 42.6315 159.199 39.9859 159.624C39.7655 160.705 39.6342 161.639 39.8284 162.495C41.2247 168.6 42.7575 174.678 44.1117 180.794C45.298 186.158 46.0014 191.644 47.5132 196.908C48.4737 200.247 50.0853 203.617 52.1902 206.367C56.3842 211.853 61.5179 216.33 68.5254 218.073C70.2314 218.498 72.5568 218.839 73.3074 220.031C74.0685 221.233 73.2287 223.443 73.0869 225.212C72.562 231.894 72.0686 238.581 71.4964 245.258C70.7721 253.735 69.8797 262.197 69.2393 270.68C68.5622 279.677 68.1212 288.695 67.5176 297.702C67.3444 300.274 66.9245 302.831 66.7145 305.403C66.2001 311.57 65.7329 317.738 65.2815 323.906C65.2395 324.478 65.4757 325.066 65.5807 325.649C66.1528 325.381 66.8457 325.239 67.2709 324.819C67.9795 324.126 68.6462 323.328 69.1081 322.457C70.7248 319.407 71.8219 316.2 72.2576 312.725C72.9872 306.867 74.0895 301.051 74.7667 295.188C75.6065 287.902 76.1734 280.579 76.8663 273.273C77.071 271.094 77.3387 268.926 77.5382 266.748C78.3571 257.903 79.1444 249.048 79.979 240.203C80.1628 238.282 80.5617 236.377 80.7507 234.455C81.0551 231.379 81.2021 228.293 81.538 225.222C81.7217 223.574 82.1574 221.957 82.7401 220.157C85.4644 216.556 85.4276 214.866 82.5564 211.979Z" fill="#6D4F2C"/>
<path d="M137.504 22.821C137.431 13.0629 132.051 4.76398 122.775 1.22082C120.786 0.459696 118.476 0.191998 116.335 0.260237C107.516 0.527942 100.745 4.28632 96.7973 12.433C92.703 20.8946 94.598 29.7551 100.697 36.1538C105.973 41.6916 112.776 43.765 120.271 42.5262C123.468 41.9961 126.544 40.4843 129.284 38.138C134.88 34.5265 137.111 29.2354 137.504 22.821Z" fill="#37484A"/>
<path d="M48.1222 160.295C48.5263 160.558 48.6418 160.668 48.7573 160.784C51.3451 165.088 53.9539 166.531 57.6913 165.713C62.1531 164.736 64.9141 160.81 64.3 155.949C63.9168 152.91 63.4286 149.834 62.531 146.915C59.623 137.462 56.7307 127.992 53.3923 118.691C51.3084 112.875 48.4318 107.342 45.9123 101.684C44.2693 97.9883 40.9361 96.4713 37.4034 95.5107C34.6844 94.7705 32.4692 96.3086 30.4221 98.3295C29.1885 100.734 29.031 103.027 29.7554 105.3C35.2355 122.449 40.7261 139.598 46.0697 156.789C46.4477 158.007 46.7416 159.288 48.1222 160.295Z" fill="#1A2223"/>
<path d="M291.189 285.412C294.138 284.044 294.133 284.046 295.522 286.638C295.817 287.188 296.201 287.694 296.548 288.219C296.502 287.672 296.573 287.09 296.402 286.588C295.786 284.771 296.71 283.828 298.274 283.469C300.871 282.871 308.032 273.846 310.671 273.462C311.948 273.277 313.562 272.316 314.464 274.001C315.572 276.07 317.078 277.915 315.418 280.721C309.928 290.014 300.21 308.017 294.902 317.418C293.532 319.842 293.237 319.968 291.299 318.317C285.798 313.631 280.346 308.878 274.893 304.138C274.611 303.892 274.459 303.498 274.037 302.953C273.086 301.533 273.703 300.482 274.272 299.513C276.908 295.004 279.39 290.39 282.942 286.184C285.216 284.397 287.42 284.432 289.884 285.6C290.303 285.918 290.492 286.081 290.657 286.445C290.716 286.574 290.595 286.823 290.71 286.736C290.774 286.257 290.956 285.941 291.189 285.412Z" fill="#5F6B00"/>
<path d="M200.987 326.922C188.279 327.168 165.622 326.932 153.15 326.922C150.269 326.922 150.137 326.874 150.347 323.924C150.625 319.977 151.166 316.045 151.518 312.098C151.702 310.056 151.723 307.999 151.817 305.6C153.098 303.395 155.087 303.379 157.008 303.353C161.376 303.285 165.748 303.238 170.425 303.421C172.488 303.699 174.052 304.455 174.771 306.072C175.291 307.237 176.063 307.657 177.065 308.256C178.514 309.122 181.637 309.977 178.357 312.481C178.283 312.539 178.11 312.492 178.147 312.67C178.372 312.549 178.609 312.445 178.834 312.319C181.322 310.954 183.27 311.395 184.566 314.292C184.12 314.833 184.713 314.523 184.288 314.807C183.38 315.416 182.446 315.956 181.354 316.171C182.493 316.077 183.401 315.384 184.698 314.875C187.485 314.014 189.459 315.206 191.558 316.864C191.931 320.271 204.399 314.875 200.987 326.922Z" fill="#5F6B00"/>
<path d="M135.573 325.859C135.573 322.588 135.347 319.486 135.158 316.095C136.224 314.326 136.129 312.662 136.066 310.967C135.557 296.805 134.544 282.669 133.699 268.533C132.922 255.557 133.058 242.513 131.226 229.269C128.775 226.65 127.415 229.715 125.3 230.183C125.158 237.489 125.221 244.586 125.368 251.678C125.715 268.449 126.129 285.22 126.465 301.991C126.607 309.088 126.607 316.19 126.733 323.286C126.78 326.048 126.859 326.069 129.547 326.09C131.478 326.105 133.41 326.048 135.573 325.859Z" fill="#6D4F2C"/>
<path d="M137.667 22.6791C136.512 25.0675 135.657 27.5346 134.906 30.0332C133.977 33.1459 131.484 35.1248 129.573 37.8386C128.938 44.1008 132.019 48.1532 136.528 51.4286C137.741 52.3105 139.063 53.0401 140.496 54.0637C145.562 51.8486 146.381 48.5731 143.084 44.61C142.087 43.4132 140.969 42.2007 142.034 40.5052C143.2 38.6627 144.711 39.6233 146.428 40.1378C146.895 40.1745 147.084 40.164 147.546 40.0695C148.15 39.7756 148.58 39.5236 148.612 39.1824C148.989 35.4398 150.785 32.747 154.275 31.209C154.727 31.0095 154.947 30.4479 155.241 29.6972C155.808 26.2695 153.54 24.91 151.273 24.2276C146.99 22.9416 142.58 21.918 137.667 22.6791Z" fill="#37484A"/>
<path d="M125.001 230.062C126.854 230.246 129.058 231.023 129.977 228.214C132.208 224.44 130.964 221.333 128.35 218.225C125.017 216.477 122.03 214.766 118.907 213.364C117.111 212.561 115.091 212.252 112.86 211.732C102.692 211.721 92.8342 211.7 82.6299 211.748C84.6351 214.136 83.9422 216.766 83.0184 219.7C88.0313 220.068 93.06 220.183 98.0886 220.225C103.128 220.267 108.167 220.209 113.201 220.251C115.894 220.272 118.492 220.718 120.88 222.125C123.799 223.852 125.384 226.235 125.001 230.062Z" fill="#1A2223"/>
<path d="M48.0118 160.532C47.1405 155.839 45.1458 151.467 44.1485 146.727C43.2666 142.554 41.5187 138.565 40.1959 134.481C38.4427 129.074 36.721 123.652 34.994 118.235C34.2644 115.951 33.8025 113.542 32.7684 111.406C31.7133 109.227 31.9495 106.75 30.5217 104.582C29.6871 103.317 30.3537 101.065 30.3432 98.9126C28.0809 100.655 27.5455 103.448 27.8132 106.24C28.1071 109.274 28.9628 112.256 29.5822 115.258C30.3538 119.006 31.1254 122.749 31.9128 126.492C32.4377 128.985 32.9416 131.483 33.54 133.961C34.952 139.782 36.4323 145.588 37.8443 151.414C38.4742 154.018 38.9991 156.643 39.6605 159.535C42.3743 160.07 45.0093 160.333 48.0118 160.532Z" fill="#6D4F2C"/>
<path d="M272.181 300.169C274.475 297.146 276.486 294.033 278.512 290.931C279.876 288.842 281.262 286.768 282.879 284.532C280.748 280.863 278.38 277.351 275.745 273.808C274.375 279.965 270.071 283.44 264.937 286.196C262.082 287.734 258.922 288.185 255.458 288.758C255.416 291.477 258.066 291.225 259.531 292.301C263.457 295.172 267.756 297.524 272.181 300.169Z" fill="#E1FF01"/>
<path d="M171.414 71.5646C172.133 70.8769 172.747 70.1631 172.957 69.3442C173.839 65.864 175.723 63.3864 179.329 62.4731C180.93 62.0637 182.542 61.6752 184.489 61.2186C186.137 62.9613 183.271 59.3341 184.489 61.2186C185.24 63.6332 182.831 59.4654 184.489 61.2186C183.833 59.1032 181.881 55.2138 178.9 54.8411C176.076 55.2453 172.484 51.5866 171.414 53.5288C167.856 51.6916 163.283 50.0169 161.152 48.8569C160.506 48.3372 160.018 48.0905 159.215 47.8438C158.742 47.8018 158.548 47.8228 158.086 47.9435C153.425 51.9171 153.535 53.3606 158.737 57.1295C162.102 58.657 164.847 61.1661 168.905 60.3945C169.377 60.1845 169.582 60.0428 169.771 59.88C169.96 59.7173 170.143 59.5546 170.332 59.3918C170.5 59.7015 170.485 59.796 170.306 59.6648C170.112 59.5231 169.944 59.5913 169.576 60.0638C166.285 62.9823 165.991 64.7722 168.285 67.9899C169.151 69.2025 169.807 70.625 171.414 71.5646Z" fill="#298393"/>
<path d="M159.188 56.9037C158.727 56.1636 158.391 55.6072 157.908 55.2765C154.564 52.9774 154.501 52.6467 157.047 49.6442C157.367 49.2662 157.755 48.9355 158.118 48.1009C158.023 47.4868 157.923 47.3503 157.624 47.0616C157.278 46.8149 157.131 46.7309 156.748 46.5314C154.606 45.4449 152.711 44.458 150.753 43.0723C150.443 42.7941 150.317 42.6838 149.992 42.4371C149.388 42.0592 148.963 41.8492 148.401 41.4398C148.134 41.1721 148.029 41.0566 147.772 40.7679C147.409 40.3637 147.189 40.1485 146.8 39.7706C145.331 38.9727 144.291 37.4557 142.538 38.2798C140.575 39.2037 139.819 41.4765 140.895 43.3925C141.378 44.2533 142.013 45.0722 142.732 45.7441C145.215 48.0537 145.257 48.0379 143.483 50.7202C142.722 51.875 141.877 52.9721 140.858 54.1952C139.851 55.7174 139.058 57.1399 138.181 58.8406C140.397 61.3655 142.963 63.2184 146.244 64.431C149.876 61.8432 153.693 60.1319 157.708 58.8197C158.469 58.5625 159.015 57.9903 159.188 56.9037Z" fill="#B97A5C"/>
<path d="M154.139 302.92C159.393 303.235 164.406 303.256 169.414 303.377C170.931 303.413 172.443 303.739 174.254 303.986C176.043 301.371 177.539 298.705 179.119 295.792C178.327 295.666 177.424 295.697 176.568 295.907C170.857 297.314 165.162 297.198 159.509 295.676C158.196 295.324 156.994 294.569 155.472 293.944C153.393 296.611 152.926 299.529 154.139 302.92Z" fill="#E1FF01"/>
<path d="M155.551 29.5764C153.672 30.2746 152.58 32.1643 150.312 32.0015C149.897 31.97 149.157 33.0198 148.995 33.6812C148.527 35.5342 148.281 37.4396 147.688 39.4658C147.121 39.8962 147.005 40.2427 147.252 40.8988C147.415 41.1403 147.404 41.1403 147.399 41.1298C147.903 41.8069 148.795 41.8751 149.593 42.547C149.761 42.7203 149.74 42.6992 149.73 42.6888C152.113 44.0903 154.354 45.8015 157.414 46.5101C161.115 45.1348 161.488 47.4131 160.128 45.03C159.776 44.6363 159.44 44.4683 159.461 44.2006C159.498 43.6862 159.251 44.2793 159.96 44.2741C160.627 44.2846 160.984 44.0326 161.356 43.4605C158.994 40.5734 158.648 36.2796 157.782 34.9358C157.152 34.7468 156.811 35.2455 156.406 34.9095C156.632 34.8675 156.832 34.7678 157.173 34.4791C156.811 32.7941 156.291 31.2614 155.551 29.5764Z" fill="#B97A5C"/>
<path d="M147.971 40.8359C146.675 42.0065 145.667 43.2505 144.522 44.7045C144.302 45.093 149.908 49.4652 149.939 49.9009C151.792 51.5492 153.357 53.2551 156.049 53.2026C156.9 51.208 157.44 49.3235 159.257 47.8905C157.561 46.8092 150.065 41.7598 147.971 40.8359Z" fill="#30555C"/>
<path d="M129.442 65.4544C132.308 68.0527 135.174 70.5355 138.166 72.8556C139.562 73.937 141.184 74.7191 142.738 75.5799C142.89 75.6639 143.336 75.412 143.504 75.202C143.609 75.0708 143.541 74.6246 143.399 74.4934C143.037 74.1784 142.591 73.9527 142.176 73.706C137.929 71.1549 133.809 68.4359 130.224 64.583C129.888 64.646 129.694 64.9557 129.442 65.4544Z" fill="#373C53"/>
<path d="M157.388 34.4478C156.522 34.5527 155.687 34.726 154.905 35.0304C154.721 35.1039 154.716 35.6183 154.627 35.9333C154.947 35.9228 155.283 35.9648 155.588 35.8913C156.186 35.7443 156.769 35.5343 157.451 35.0777C157.535 34.8152 157.44 34.5685 157.388 34.4478Z" fill="#37484A"/>
<path d="M165.424 141.32C165.64 141.871 165.986 142.601 166.569 143.414C166.815 143.32 166.821 143.141 166.852 142.685C166.438 142.102 165.997 141.797 165.424 141.32Z" fill="#F0EDE7"/>
<path d="M276.848 306.599C276.549 306.368 276.202 306.363 275.588 306.421C275.331 306.788 275.325 307.093 275.315 307.618C275.808 307.502 276.302 307.156 276.848 306.599Z" fill="#F0EDE7"/>
<path d="M154.16 303.298C154.648 300.306 154.91 297.434 155.183 294.227C152.953 291.141 150.627 288.511 149.262 285.099C147.436 280.537 146.989 275.902 147.609 271.131C148.732 262.491 151.556 254.276 154.018 245.972C154.779 243.4 155.357 240.76 155.803 238.109C156.459 234.245 154.244 230.083 150.312 227.988C146.738 226.083 143.047 224.398 139.368 222.702C135.814 221.07 132.208 219.553 128.345 218.02C129.946 220.902 129.898 224.209 130.234 227.742C130.497 233.972 130.791 239.872 131.148 245.778C131.526 252.066 131.972 258.344 132.365 264.633C132.502 266.816 132.565 269.005 132.691 271.189C133.116 278.501 133.552 285.813 133.987 293.125C134.05 294.154 134.145 295.177 134.192 296.206C134.486 302.495 134.77 308.788 135.126 315.444C137.373 315.701 138.943 313.386 141.672 314.106C142.103 313.959 142.208 313.827 142.166 313.491C143.667 310.898 145.63 310.258 148.118 312.1C148.501 312.384 149.063 312.515 149.551 312.541C150.008 312.568 150.475 312.358 150.942 312.253C150.653 312.022 150.37 311.775 150.071 311.56C149.866 311.408 149.63 311.297 149.409 311.166C148.627 310.688 147.84 310.211 147.058 309.728C148.286 308.925 149.457 308.011 150.769 307.381C151.31 307.119 152.149 307.465 152.848 307.539C152.47 307.093 152.023 306.683 151.74 306.179C151.624 305.98 151.771 305.492 151.966 305.282C152.58 304.62 153.273 304.038 154.16 303.298Z" fill="#FCFCFC"/>
<path d="M181.035 180.778C178.448 182.122 176.112 183.576 173.734 184.956C173.23 185.25 172.563 185.261 171.666 185.439C174.148 188.5 176.736 191.749 179.786 194.489C182.6 197.024 186.074 196.882 189.061 194.804C189.492 192.499 188.652 190.489 187.361 188.71C185.413 186.038 183.308 183.476 181.035 180.778Z" fill="#B97A5C"/>
<path d="M210.173 210.042C210.94 212.934 212.121 215.485 212.115 218.356C212.115 220.02 212.667 221.726 212.436 223.338C211.612 229.049 212.299 234.922 210.457 240.534C210.042 241.799 210.404 243.316 210.404 244.717C212.079 243.799 211.475 242.108 211.837 240.707C213.695 233.495 213.323 226.156 213.407 218.823C213.443 215.632 212.756 212.792 210.856 210.021C210.472 209.879 210.326 209.847 210.173 210.042Z" fill="#DEE7F9"/>
<path d="M210.504 209.994C209.139 205.774 205.517 203.638 202.205 201.407C199.113 199.323 195.575 197.906 191.849 196.326C192.363 198.409 194.552 198.388 196.058 199.423C199.071 201.491 202.289 203.27 205.208 205.454C206.914 206.729 208.194 208.567 209.916 210.21C210.163 210.262 210.383 210.078 210.504 209.994Z" fill="#DEE7F9"/>
<path d="M191.602 196.263C191.035 195.796 190.416 195.386 189.555 194.888C189.319 194.798 189.292 194.725 189.329 194.741C189.901 195.318 190.431 195.874 191.213 196.447C191.455 196.452 191.549 196.321 191.602 196.263Z" fill="#DEE7F9"/>
<path d="M159.404 56.6304C157.855 59.024 155.11 58.5883 153.11 59.4387C150.559 60.5252 148.36 61.6905 146.654 64.1996C147.388 65.3019 148.171 66.2678 149.136 67.0026C152.081 69.2388 152.979 70.7453 151.126 73.7583C149.105 77.0337 150.039 79.8105 151.551 82.3616C154.916 88.0359 159.278 92.9176 165.026 96.3558C166.91 97.4844 169.041 98.6917 171.146 97.4214C173.503 96.0041 173.141 93.3795 172.81 91.0962C171.912 84.8444 171.167 78.5927 171.676 71.9473C170.936 70.3254 170.264 68.9448 169.382 67.7165C166.831 64.1524 166.847 63.5907 169.891 60.0686C165.829 60.6092 162.921 58.0476 159.404 56.6304Z" fill="#FCFCFC"/>
<path d="M155.661 130.749C155.372 127.93 154.884 125.179 154.228 122.471C152.827 116.67 151.268 110.907 149.913 105.091C149.168 101.878 148.722 98.5924 148.118 95.3484C148.024 94.855 147.84 94.3721 147.625 93.9207C147.53 93.7212 147.252 93.6057 147.058 93.4482C146.9 93.7107 146.585 93.9836 146.606 94.2304C146.748 95.7474 146.863 97.2801 147.168 98.7656C148.527 105.359 149.903 111.946 151.357 118.518C152.149 122.109 153.073 125.673 154.044 129.221C154.218 129.835 154.931 130.297 155.661 130.749Z" fill="#373C53"/>
<path d="M87.7845 174.626C87.3751 175.76 87.0444 176.61 86.7137 177.466C87.5431 176.809 88.6769 176.332 89.1651 175.476C93.821 167.34 98.3773 159.146 102.907 150.936C103.143 150.506 102.86 149.792 102.818 149.209C102.388 149.54 101.805 149.776 101.553 150.212C98.4665 155.592 95.4378 161.004 92.3828 166.4C90.8815 169.062 89.3645 171.702 87.7845 174.626Z" fill="#373C53"/>
<path d="M156.17 130.664C155.934 130.664 155.939 130.722 155.923 130.738C156.28 131.352 156.648 131.945 157.246 132.606C157.115 132.003 156.758 131.336 156.17 130.664Z" fill="#F0EDE7"/>
<path d="M157.514 132.638C157.913 133.294 158.296 133.966 158.842 134.838C158.664 134.287 158.322 133.531 157.724 132.728C157.472 132.675 157.498 132.649 157.514 132.638Z" fill="#F0EDE7"/>
<path d="M165.251 141.189C164.831 140.795 164.422 140.386 163.876 139.787C164.075 140.155 164.417 140.711 165.026 141.204C165.293 141.141 165.262 141.168 165.251 141.189Z" fill="#F0EDE7"/>
<path d="M161.125 137.252C161.194 136.932 161.036 136.523 160.763 135.919C160.732 136.197 160.816 136.68 161.125 137.252Z" fill="#F0EDE7"/>
<path d="M160.601 135.756C160.217 135.467 159.845 135.163 159.236 134.948C159 135.037 159.026 135.005 159.036 134.99C159.404 135.247 159.766 135.52 160.38 135.751C160.643 135.714 160.611 135.74 160.601 135.756Z" fill="#F0EDE7"/>
<path d="M161.383 137.294C161.54 137.472 161.682 137.667 161.829 137.861C161.803 137.698 161.776 137.535 161.545 137.357C161.341 137.331 161.372 137.31 161.383 137.294Z" fill="#F0EDE7"/>
<path d="M163.692 139.646C163.498 139.488 163.32 139.315 163.136 139.142C163.188 139.315 163.236 139.483 163.508 139.63C163.734 139.599 163.708 139.63 163.692 139.646Z" fill="#F0EDE7"/>
<path d="M276.9 306.374C277.152 306.384 277.462 306.489 277.646 306.384C278.102 306.122 278.501 305.759 278.926 305.439C278.386 305.366 277.845 305.245 277.304 305.25C277.163 305.25 277.021 305.628 276.89 306.106C276.905 306.374 276.9 306.374 276.9 306.374Z" fill="#F0EDE7"/>
<path d="M155.446 308.148C154.763 308.043 154.312 308.096 153.861 308.153C153.924 308.316 154.002 308.621 154.039 308.615C154.59 308.531 155.131 308.416 155.446 308.148Z" fill="#FCFCFC"/>
<path d="M147.168 41.0774C147.409 40.7992 147.409 40.458 147.415 39.8596C147.289 39.5972 147.163 39.5919 146.837 39.5867C146.738 40.0696 146.832 40.5473 147.168 41.0774Z" fill="#5C405B"/>
<path d="M160.513 47.2701C159.545 47.1231 158.832 46.8191 157.812 46.5592C157.509 46.5943 157.312 46.2727 157.234 46.1004C158.367 45.9391 159.574 45.9534 161.097 45.8269C161.199 46.1665 160.98 46.6414 160.513 47.2701Z" fill="#37484A"/>
<path d="M170.007 59.8798C170.49 59.7486 170.894 59.5229 171.303 59.3024C170.878 59.2604 170.448 59.2237 169.902 59.4021C169.781 59.6226 169.933 59.7958 170.007 59.8798Z" fill="#FCFCFC"/>
<path d="M157.231 47.3556C157.514 47.0249 157.504 46.6889 157.441 46.1115C155.724 45.0407 154.065 44.2008 152.386 43.4082C151.719 43.0933 151.005 42.8938 150.013 42.6628C149.793 43.046 149.756 43.6287 149.971 43.7442C152.27 44.9882 154.611 46.1588 157.231 47.3556Z" fill="#111F22"/>
<path d="M149.472 42.7259C149.877 41.3926 149.037 41.1144 147.682 41.1091C147.341 42.3847 148.118 42.7259 149.472 42.7259Z" fill="#111F22"/>
<path d="M144.16 42.841C143.976 42.2426 143.578 41.8279 143.184 41.408C143.142 41.7859 143.095 42.1691 143.268 42.6258C143.635 42.8147 143.793 42.9197 144.16 42.841Z" fill="#5C405B"/>
<path d="M144.58 42.7572C144.228 42.6732 144.081 42.6837 143.709 42.7047C143.787 42.9829 144.092 43.2612 144.391 43.5341C144.522 43.3031 144.654 43.0774 144.58 42.7572Z" fill="#373C53"/>
<path d="M158.086 48.0746C158.175 47.8594 158.055 47.6179 157.719 47.345C157.624 47.5602 157.75 47.8017 158.086 48.0746Z" fill="#5C405B"/>
<path d="M157.252 39.6656C157.535 39.7286 157.86 39.6236 158.028 39.5816C157.85 39.0409 157.551 38.4898 157.12 38.0856C157.036 38.0069 156.433 38.4688 156.07 38.684C156.37 38.9884 156.669 39.2981 157.252 39.6656Z" fill="#111F22"/>
<path d="M175.676 58.733C176.368 58.2579 178.847 56.7531 180 56.0601C178.559 55.3671 175.388 52.9713 171.929 52.4961C167.605 51.9021 165.011 51.3082 161.84 48.9322C158.669 46.5562 157.228 49.2292 155.498 51.3082C153.769 53.3871 156.939 57.2481 158.957 58.733C160.571 59.921 167.317 61.406 170.488 62C171.929 61.109 174.984 59.2082 175.676 58.733Z" fill="#B97A5C"/>
<path d="M866.22 177.452C858.547 161.305 847.222 148.607 834.18 137.297C830.49 134.095 826.717 130.997 822.907 127.945C820.785 126.242 820.275 124.36 820.935 121.675C822.262 116.297 820.44 114.67 815.002 115.9C811.275 116.747 807.532 117.497 803.37 118.3C794.16 118.187 786.247 121.72 777.832 124.622C768.562 128.657 760.717 134.297 752.94 139.952C750.367 141.827 748.612 144.82 746.34 147.632C746.115 153.227 747.322 154.3 752.235 152.71C762.12 149.515 771.892 148.037 781.95 152.237C794.505 157.48 800.902 167.402 801.51 180.992C802.582 205.03 794.182 226.157 782.857 246.58C773.167 264.047 760.822 279.257 745.222 291.827C740.902 295.307 735.592 297.287 731.557 301.705C731.527 303.595 732.51 304.45 733.65 305.087C746.685 312.407 760.162 318.602 775.522 320.972C778.275 320.087 780.472 320.837 783.135 321.52C812.115 328.427 841.215 331.097 870.84 333.415C871.642 333.212 871.95 333.092 872.677 332.702C877.68 324.317 878.377 315.625 876.765 306.197C875.73 304.862 874.642 304.787 873.517 304.75C862.08 304.322 855.99 297.857 855.322 286.315C854.692 275.35 856.372 264.61 858.06 253.915C859.635 243.932 861.247 233.927 863.55 224.05C864.945 218.072 866.73 212.335 870.382 206.815C871.455 199.63 868.312 193.525 867.352 187.06C867.06 185.102 866.002 183.257 866.572 180.752C866.73 179.477 866.55 178.645 866.22 177.452Z" fill="#579AA8"/>
<path d="M776.557 320.117C761.475 316.945 747.742 311.44 734.685 304.172C733.897 303.73 733.05 303.392 732.03 302.687C731.617 302.162 731.407 301.952 730.77 301.637C707.895 307.99 689.737 319.75 681.037 342.572C677.535 351.76 678.3 361.405 679.935 371.365C682.882 379.907 685.462 388.15 689.752 396.145C695.212 406.577 700.86 416.425 707.43 426.145C710.4 426.355 710.677 428.89 711.772 430.337C719.332 440.32 726.795 450.377 734.062 460.57C735.607 462.737 736.522 460.577 738.09 460.705C742.567 460.547 745.485 457.817 748.755 455.927C753.345 453.272 757.995 450.76 762.967 447.97C764.812 445.93 765.465 443.965 764.295 441.347C763.417 440.065 762.397 439.352 761.962 437.822C761.79 437.29 761.715 437.08 761.497 436.562C761.137 435.88 760.897 435.512 760.477 434.89C759.997 434.065 759.735 433.487 759.435 432.572C759.247 432.062 759.157 431.86 758.91 431.372C758.122 430.157 757.612 429.182 757.17 427.772C756.952 427.225 756.847 427 756.577 426.46C753.345 418.945 748.98 412.36 746.422 404.53C746.235 403.945 746.145 403.72 745.882 403.18C744.982 401.965 744.33 401.027 743.955 399.542C743.745 398.995 743.64 398.785 743.347 398.275C742.545 397.247 742.14 396.407 741.772 395.162C741.562 394.615 741.472 394.405 741.187 393.902C740.437 392.897 739.972 392.14 739.657 390.917C739.485 390.37 739.402 390.152 739.17 389.612C738.78 388.885 738.547 388.48 738.15 387.745C736.995 384.31 734.205 381.355 737.377 377.567C739.042 375.137 741.082 374.612 743.355 375.407C750.81 378.04 758.662 378.445 766.8 379.847C771.405 380.44 775.582 380.11 780.24 380.252C797.107 380.29 813.292 377.762 829.56 376.405C833.94 376.037 838.425 376.442 843.127 374.942C846.18 372.632 848.745 370.39 852.315 369.002C852.87 368.755 853.08 368.642 853.59 368.342C854.4 367.705 854.85 367.195 855.57 366.505C855.967 366.137 856.125 365.995 856.5 365.605C857.152 364.892 857.58 364.412 858.285 363.73C858.66 363.302 858.802 363.115 859.11 362.612C859.935 360.64 860.88 359.177 862.395 357.647C862.83 357.205 862.995 357.017 863.377 356.53C864.577 354.565 865.237 352.712 866.827 350.995C867.232 350.53 867.382 350.327 867.697 349.795C868.372 348.047 868.507 346.517 869.392 344.815C869.805 343.967 870.015 343.465 870.337 342.542C870.645 339.197 872.452 336.325 870.405 333.062C841.185 330.895 812.52 327.79 783.862 321.19C781.365 320.342 779.235 319.87 776.557 320.117Z" fill="#9F9B8D"/>
<path d="M730.327 301.975C730.882 302.132 731.07 302.2 731.542 302.32C734.265 300.857 736.702 299.35 739.132 297.82C750.757 290.522 760.125 280.795 768.787 270.31C777.945 259.225 785.07 246.805 791.332 233.98C795.105 226.262 798.082 217.99 800.107 209.65C801.622 203.395 803.82 197.042 802.942 190.285C802.515 187.022 802.762 183.655 802.89 180.34C803.4 166.532 793.455 154.555 781.725 150.46C773.557 147.61 765.405 146.98 757.117 149.98C754.785 150.82 752.34 150.865 749.977 152.245C747.457 153.722 747.112 150.52 746.257 148.397C739.53 154.93 735.682 163.555 731.962 172.24C731.115 174.22 730.47 176.29 729.72 178.727C727.987 180.737 726.877 182.695 726.24 185.387C721.995 201.797 718.762 218.005 714.982 234.085C713.955 238.45 711.555 241.75 708.127 244.42C695.655 254.14 682.32 262.615 668.625 271.307C665.362 273.782 662.362 275.927 660.165 278.92C658.305 281.462 656.58 284.125 658.552 287.867C659.1 288.625 659.415 289 659.76 289.622C659.617 292.75 660.705 295.142 662.91 297.512C664.717 299.417 666.255 301.022 667.897 303.017C670.35 306.662 674.017 306.835 677.895 307.48C680.085 307.12 681.885 306.842 684.09 306.655C684.72 306.535 684.967 306.467 685.575 306.272C689.595 304.607 693.405 303.512 697.545 302.222C698.145 302.05 698.377 301.967 698.947 301.727C701.767 300.017 704.505 299.02 707.565 297.872C708.127 297.662 708.345 297.572 708.877 297.317C710.34 296.372 711.562 295.78 713.265 295.42C713.805 295.232 714.015 295.135 714.51 294.865C715.852 293.807 717.022 293.117 718.537 292.315C720.435 290.387 722.79 289.847 724.875 288.197C726.21 286.802 727.837 286.9 729.345 285.917C731.347 284.005 733.447 282.887 735.862 281.605C736.83 280.697 737.497 280 738.457 279.062C743.505 275.275 747.937 271.39 751.545 266.14C752.415 265.082 753.12 264.385 754.095 263.432C756.03 261.31 756.555 258.707 758.595 256.637C760.132 252.572 761.7 248.89 762.697 245.012C762.832 244.495 762.93 243.962 763.177 243.482C763.327 244.082 762.9 244.532 762.765 245.057C761.835 248.762 760.26 252.257 758.887 256.202C756.892 258.302 756.292 260.837 754.477 263.035C753.525 264.002 752.842 264.707 751.897 265.69C748.44 270.902 744.27 274.877 739.155 278.432C738.172 279.362 737.497 280.06 736.537 280.997C734.407 282.707 732.18 283.615 730.042 285.295C728.827 286.78 727.23 286.69 725.692 287.552C723.675 289.592 721.162 290.192 718.95 291.947C718.087 292.682 717.45 293.11 717.322 294.28C721.672 296.942 725.16 300.55 730.327 301.975Z" fill="#E5D7B0"/>
<path d="M730.342 302.23C726.592 299.53 722.475 297.002 717.937 294.475C716.767 293.762 715.905 293.612 714.54 294.167C714.142 294.407 714.202 294.475 714.195 294.43C712.867 295.855 710.812 295.375 708.945 296.447C708.622 296.657 708.682 296.687 708.675 296.65C705.772 298.48 702.63 299.762 698.977 300.865C698.64 301.075 698.707 301.112 698.7 301.075C694.687 303.017 690.562 304.585 685.717 305.297C685.35 305.5 685.417 305.545 685.402 305.507C683.557 306.745 681.465 306.662 679.035 306.595C675.375 305.522 672.06 304.48 668.377 303.422C663.645 305.567 659.34 307.84 654.915 309.842C632.49 320.005 615.975 335.792 607.62 359.372C603.937 369.76 600.54 380.252 596.587 390.535C593.737 397.945 590.22 405.092 586.95 412.33C585.232 416.125 583.32 419.83 581.662 423.647C580.147 427.127 581.047 428.815 585.345 431.432C593.782 437.035 602.175 442.225 610.897 447.572C615.15 449.275 618.09 447.79 620.737 445C625.785 439.69 630.907 434.447 635.94 429.122C636.367 428.672 636.36 427.817 636.555 426.745C632.73 413.065 630.817 399.632 630.9 385.697C630.967 373.405 638.82 363.325 649.252 361.022C650.977 361 652.215 360.452 653.842 360.385C654.472 360.362 654.772 360.355 655.072 360.37C655.38 360.385 655.282 360.407 654.457 360.415C652.612 360.377 651.187 361.015 649.237 361.06C638.602 363.46 630.9 373.637 630.937 385.847C630.982 398.447 632.175 410.717 635.632 422.8C635.955 423.917 636.435 424.832 637.612 425.912C639.877 424.06 641.775 421.9 644.047 419.687C645.622 415.555 660.757 402.25 664.177 397.562C667.598 392.874 667.762 395.575 668.595 393.932C672.307 386.657 677.662 380.357 680.947 372.415C680.617 368.17 680.047 364.352 679.98 360.52C679.762 347.927 683.055 336.535 691.41 326.747C699.637 317.117 710.092 310.765 721.395 305.597C724.162 304.345 727.11 303.46 730.342 302.23Z" fill="#5E5C54"/>
<path d="M846.097 372.527C842.887 373.285 839.85 373.9 836.79 374.237C831.712 374.8 826.612 375.152 821.52 375.64C819.172 375.865 816.84 376.225 814.492 376.472C808.155 377.14 801.817 377.897 795.465 378.4C790.897 378.76 786.3 378.752 781.23 379.015C780.487 379.322 780.225 379.517 779.632 380.065C776.85 383.777 775.402 387.677 775.02 391.667C773.407 408.317 771.247 424.922 770.197 441.625C769.86 446.965 768.945 452.222 768.097 457.982C768.3 466.99 767.452 475.42 765.922 484.285C766.042 491.912 765.24 498.97 764.295 506.02C764.1 507.467 763.845 508.922 764.115 510.377C764.572 512.852 765.622 515.042 768.39 515.402C772.057 515.882 773.385 513.085 774.855 509.935C776.812 497.305 778.912 485.17 778.77 472.367C778.875 467.545 779.055 463.15 779.505 458.785C780.577 448.217 781.762 437.665 782.947 427.112C783.127 425.485 783.69 423.895 783.877 422.267C784.357 418.082 784.822 413.89 785.107 409.69C785.265 407.455 786.06 406.21 788.437 406.315C789.36 406.352 790.282 406.322 791.205 406.322C819.442 406.315 847.68 406.307 875.917 406.3C877.395 406.3 878.91 406.12 880.335 406.405C881.175 406.57 882.382 407.357 882.547 408.07C884.16 414.985 885.6 421.945 887.07 428.89C887.857 432.625 888.547 436.39 889.402 440.11C890.505 444.91 891.832 449.65 892.867 454.465C894.705 463 896.34 471.58 898.177 480.115C899.325 485.455 900.75 490.727 901.957 496.06C902.962 500.5 904.08 504.94 904.657 509.447C904.942 511.675 905.737 513.37 907.312 514.652C908.182 515.357 909.87 516.062 910.59 515.672C911.46 515.2 912.232 513.505 912.12 512.44C911.7 508.645 910.942 504.887 910.222 501.13C909.195 495.752 908.047 490.405 907.027 485.027C905.902 479.117 904.83 473.2 903.795 467.275C902.602 460.442 901.537 453.587 900.292 446.77C899.272 441.212 898.005 435.7 896.955 430.142C895.807 424.052 894.832 417.932 893.692 411.842C892.485 405.385 891.397 398.89 889.792 392.53C889.095 389.762 889.417 386.927 887.73 384.115C884.452 378.662 880.807 374.065 874.635 371.845C873.48 371.432 872.295 371.027 874.387 369.46C884.55 361.847 888.952 351.295 889.305 338.792C889.62 327.565 890.085 316.345 890.46 305.125C890.82 294.272 891.127 283.412 891.517 272.56C891.75 266.132 892.11 259.705 892.282 252.812C888.562 250.577 887.482 253.195 886.807 255.707C885.57 260.297 883.717 264.895 883.65 269.605C883.515 278.65 881.295 287.372 880.432 296.755C880.912 299.2 881.347 301.187 880.965 303.227C878.512 316.067 877.312 329.035 876.48 342.077C875.752 353.537 868.537 360.212 857.932 364.322C857.227 364.57 856.965 364.697 856.327 365.087C855.96 365.35 856.042 365.38 856.042 365.335C855.457 365.92 854.617 366.302 853.98 367.337C853.747 367.562 853.837 367.592 853.822 367.547C853.357 368.057 852.72 368.342 851.82 368.822C851.355 369.122 851.182 369.257 850.537 369.82C849.585 370.645 849.045 370.922 848.145 371.162C847.23 371.5 846.712 371.822 846.097 372.527Z" fill="#2D3300"/>
<path d="M881.61 298.337C882.42 292.78 883.282 287.642 884.16 282.512C884.37 281.275 884.94 280 884.783 278.815C883.658 270.452 887.28 262.802 888.322 254.77C888.377 254.35 888.797 253.978 889.373 253.623C890.859 252.707 892.162 251.618 892.322 249.88C892.409 248.945 892.184 247.873 892.071 246.941C891.946 245.901 892.107 244.955 892.26 243.857C892.53 241.63 892.613 239.732 892.665 237.355C892.679 231.351 893.284 225.182 892.165 219.283C891.931 218.052 891.611 216.863 891.15 215.732C890.212 213.43 886.912 212.065 884.61 210.362C883.905 209.845 882.998 209.605 881.843 209.012C881.285 208.708 881.059 208.616 880.618 208.265C880.609 208.258 880.578 208.224 880.571 208.216C880.484 208.116 880.302 207.935 880.195 207.855C878.092 206.288 875.59 205.623 872.752 204.964C872.295 204.858 871.821 204.799 871.361 204.889C870.741 205.01 870.3 205.261 869.745 205.787C865.515 210.805 863.452 216.205 862.5 222.25C861.6 227.995 859.845 233.605 858.825 239.342C857.678 245.8 856.927 252.332 856.02 258.835C855.922 259.562 856.095 260.357 855.87 261.032C852.878 270.167 853.808 279.595 853.845 288.932C853.875 296.612 861.03 305.057 868.582 306.422C870.622 306.79 872.872 306.017 875.437 305.8C880.365 305.575 881.28 302.38 881.61 298.337Z" fill="#CDE801"/>
<path d="M658.29 288.22C657.735 281.8 662.317 278.432 666.247 274.735C666.9 274.12 667.717 273.685 668.602 272.852C666.802 270.22 664.073 270.64 661.553 270.602C654.173 270.49 646.792 270.625 639.412 270.535C633.51 270.467 632.94 269.995 632.925 264.287C632.85 242.507 632.805 220.727 632.947 198.947C633 191.605 635.812 188.762 643.222 187.855C645.607 187.562 648.015 187.637 650.415 187.637C673.11 187.63 695.812 187.652 718.507 187.615C721.252 187.615 724.065 187.945 727.072 186.272C728.235 183.962 728.977 181.967 729.72 179.567C697.657 179.177 665.602 179.2 633.54 179.222C632.25 179.222 630.952 179.14 629.67 179.245C625.762 179.552 623.4 182.02 623.4 186.032C623.37 218.102 623.37 250.165 623.407 282.235C623.407 286.045 625.17 287.747 629.062 287.815C638.632 287.972 648.21 288.062 658.29 288.22Z" fill="#A3A3A3"/>
<path d="M797.46 108.767C802.155 106.21 802.777 101.342 805.065 97.5697C805.432 96.9697 805.477 96.1822 805.777 95.5297C807.6 91.5997 807.607 91.6072 811.102 93.9022C819.997 99.7447 828.877 96.7147 834.21 87.0847C837.502 81.1297 835.717 70.9447 831.9 66.6847C825.577 59.6272 813.255 59.8747 807.45 67.6597C804.967 70.9897 804.9 70.9147 801.06 69.2197C799.08 68.3422 797.137 67.3222 795.067 66.7297C792.3 65.9347 790.492 64.4797 789.21 61.7722C787.702 58.5922 784.342 58.2322 781.192 58.0072C780.48 57.9547 779.737 58.2022 779.017 58.3522C772.297 59.7247 770.865 62.2597 773.152 69.1447C773.43 71.1697 774.547 72.2272 775.725 73.0447C780.09 76.0897 782.272 79.7572 780.18 85.2097C779.475 87.0397 779.985 88.9297 781.987 89.8747C783.772 90.7147 785.167 89.8972 786.322 88.5172C787.147 87.5272 787.987 86.5147 789.165 85.9597C790.387 85.3822 791.685 85.4047 792.825 86.2072C794.055 87.0697 794.137 88.3297 793.785 89.6572C793.357 91.2772 792.547 92.7022 791.61 94.0747C787.815 99.6547 790.215 106.135 797.46 108.767Z" fill="#CCC7B5"/>
<path d="M797.752 109C794.22 108.092 793.995 104.29 791.835 102.325C791.22 101.77 791.137 100.66 790.59 99.9848C789.585 98.7548 789.465 98.1098 790.98 96.9773C793.132 95.3648 794.062 92.7548 795.285 90.3623C796.567 87.8648 796.185 86.2223 794.107 84.6998C792.525 83.5448 788.872 83.5298 787.515 84.8423C786.532 85.7873 785.992 87.1823 785.017 88.1348C784.395 88.7423 783.105 89.4098 782.535 89.1398C781.777 88.7873 780.975 87.5273 781.02 86.7023C781.11 85.1273 781.537 83.4548 782.257 82.0448C783.75 79.1423 782.587 77.1698 780.442 75.3698C778.245 73.5248 776.047 71.6723 773.512 69.7073C768.397 74.8523 759.84 87.9023 754.98 93.5048C755.91 95.8598 757.597 97.2998 759.51 99.0548C761.85 99.6248 763.837 99.4223 766.215 99.4673C767.737 99.5123 768.765 99.0098 769.86 98.9498C771.09 98.8748 772.32 98.9498 773.542 98.8148C772.357 99.0998 771.157 98.8748 769.56 99.0323C766.402 99.8648 763.567 99.2948 760.372 99.6323C757.155 101.447 759.262 96.5648 756.622 99.0548C756.037 102.497 755.512 105.595 755.362 108.715C755.19 112.367 756.12 113.597 759.51 114.865C762.06 115.817 764.895 116.252 767.19 117.61C770.61 119.635 773.67 122.267 777.217 124.817C783.09 123.662 788.632 122.32 794.175 120.992C796.942 120.332 799.717 119.695 802.717 118.682C801.187 115.322 799.432 112.337 797.752 109Z" fill="#DBB385"/>
<path d="M637.628 426.272C636.428 420.1 634.687 414.01 633.352 407.83C631.32 398.44 630.998 388.787 632.565 379.442C633.9 371.492 638.812 365.282 647.212 362.867C647.902 362.672 648.555 362.312 649.605 361.847C650.332 361.367 650.475 360.985 650.212 360.302C638.587 361.405 633.292 369.205 630.195 379.097C629.565 381.115 630.105 383.477 629.948 385.675C629.228 395.62 630.615 405.392 632.437 415.097C633.135 418.802 634.74 422.335 636.247 426.145C636.795 426.34 637.035 426.332 637.628 426.272Z" fill="#DEE7F9"/>
<path d="M871.252 205.412C874.207 206.537 876.892 207.302 880.027 208.037C880.327 202.87 877.102 198.917 875.137 194.5C872.55 188.672 869.512 183.055 866.317 177.227C865.972 177.932 865.972 178.757 865.95 179.995C866.685 188.807 869.28 196.84 871.252 205.412Z" fill="#CCC7B5"/>
<path d="M759.012 111.563C762.281 110.163 763.006 107.251 763.406 103.88C764.771 101.665 759.341 104.818 762.297 101.653C761.756 98.9346 759.871 98.447 757.408 98.375C756.134 99.5966 755.156 100.667 754.34 101.857C751.808 105.557 752.158 107.5 755.819 109.919C756.714 110.505 757.76 110.863 759.012 111.563Z" fill="#30555C"/>
<path d="M662.7 297.812C662.302 295.307 661.417 292.78 660.165 290.072C656.092 289.862 653.002 291.25 650.235 294.212C649.597 294.79 649.455 295.195 649.74 295.952C651.75 297.782 653.887 298.007 656.152 297.895C658.155 297.79 660.18 297.82 662.7 297.812Z" fill="#DBB385"/>
<path d="M649.455 296.335C649.958 295.84 649.965 295.45 649.98 294.775C642.795 294.46 635.603 294.43 628.41 294.422C627.69 294.422 626.955 294.512 626.258 294.685C626.04 294.737 625.755 295.187 625.777 295.427C625.807 295.712 626.107 296.17 626.34 296.2C627.412 296.365 628.507 296.477 629.595 296.477C636.052 296.485 642.51 296.455 649.455 296.335Z" fill="#263471"/>
<path d="M880.642 208C880.462 208.337 880.665 208.622 881.25 208.802C881.422 208.435 881.22 208.187 880.642 208Z" fill="#5579C3"/>
<path d="M814.035 128.267C815.445 128.23 816.39 128.312 817.267 128.117C817.605 128.042 817.897 127.36 818.025 126.902C818.07 126.73 817.605 126.212 817.35 126.197C816.067 126.107 814.717 125.875 813.502 126.167C807.442 127.645 801.33 128.522 795.075 128.312C794.475 128.29 793.852 128.837 793.237 129.115C793.867 129.565 794.475 130.367 795.127 130.405C801.39 130.81 807.495 129.707 814.035 128.267Z" fill="#254147"/>
<path d="M871.185 205.847C870.547 200.5 869.655 195.205 868.567 189.955C867.952 186.992 867.007 184.097 866.062 180.79C865.342 180.677 864.24 181.067 864.27 181.202C864.757 183.31 865.567 185.357 865.942 187.48C866.977 193.375 869.295 199.022 869.422 205.622C869.955 206.065 870.405 205.997 871.185 205.847Z" fill="#254147"/>
<path d="M727.485 186.377C699.63 185.927 671.79 185.837 643.942 185.995C640.965 186.01 637.86 187.202 635.055 188.402C632.797 189.37 631.755 191.732 631.402 194.177C631.222 195.445 631.335 196.757 631.335 198.047C631.327 221.102 631.312 244.157 631.312 267.22C631.312 272.492 630.6 272.447 636.225 272.44C646.74 272.425 657.247 272.432 668.257 272.485C671.557 270.932 674.46 269.47 677.145 267.692C686.167 261.715 695.242 255.782 704.055 249.497C708.712 246.175 713.857 243.017 715.717 237.032C716.842 233.41 717.757 229.705 718.605 226.007C719.985 220.007 721.23 213.977 722.535 207.962C723.457 203.717 724.335 199.465 725.317 195.227C725.962 192.4 726.765 189.61 727.485 186.377Z" fill="#E5E5E5"/>
<path d="M775.552 193.412C774.367 196.577 773.295 199.45 772.575 202.412C771.465 206.957 770.55 211.555 769.665 216.152C769.53 216.857 770.002 217.682 770.19 218.447C770.67 217.697 771.367 217.007 771.592 216.182C772.41 213.235 773.437 210.28 773.7 207.265C774.007 203.77 774.952 200.545 776.152 197.312C776.46 196.495 776.28 195.497 776.347 194.117C776.19 193.487 776.002 193.33 775.552 193.412Z" fill="#254147"/>
<path d="M751.95 266.08C747.465 269.822 743.055 274 738.63 278.575C739.92 278.455 741.555 278.282 742.485 277.382C745.935 274.022 750.397 271.495 751.95 266.08Z" fill="#254147"/>
<path d="M758.52 256.322C762.367 253.052 762.81 247.907 764.092 243.1C764.19 242.717 763.785 242.2 763.612 241.75C763.305 242.17 762.877 242.552 762.712 243.017C761.25 247.255 759.832 251.507 758.52 256.322Z" fill="#5E5C54"/>
<path d="M685.515 305.147C690.27 306.212 694.462 304.3 698.587 301.427C694.35 302.29 690.015 303.542 685.515 305.147Z" fill="#254147"/>
<path d="M698.79 300.73C702.562 301.54 705.615 299.702 708.57 296.995C705.42 297.872 702.18 299.125 698.79 300.73Z" fill="#254147"/>
<path d="M736.342 281.56C733.357 280.937 731.52 282.85 729.727 285.212C731.932 284.395 734.122 283.172 736.342 281.56Z" fill="#254147"/>
<path d="M725.34 288.235C723.052 289.015 720.825 290.222 718.635 291.85C720.915 291.07 723.157 289.862 725.34 288.235Z" fill="#254147"/>
<path d="M758.445 256.697C755.31 257.44 755.362 260.515 754.095 263.035C757.455 262.945 757.185 259.682 758.602 257.29C758.632 256.892 758.505 256.765 758.445 256.697Z" fill="#5E5C54"/>
<path d="M678.915 306.205C680.992 309.34 683.017 307.015 685.26 305.837C683.31 305.597 681.225 305.725 678.915 306.205Z" fill="#202844"/>
<path d="M708.795 296.312C710.542 296.627 712.635 297.22 714.082 294.775C712.447 294.917 710.707 295.442 708.795 296.312Z" fill="#254147"/>
<path d="M725.317 287.837C726.9 287.747 728.752 288.505 729.712 286.015C729.742 285.61 729.735 285.602 729.735 285.595C728.34 286.09 726.945 286.592 725.422 287.447C725.287 287.807 725.302 287.83 725.317 287.837Z" fill="#254147"/>
<path d="M714.172 294.002C714.99 294.43 715.83 294.445 717.097 294.475C717.847 293.957 718.185 293.425 718.597 292.585C718.672 292.277 718.657 292.255 718.65 292.24C717.052 292.352 715.185 291.535 714.172 294.002Z" fill="#254147"/>
<path d="M775.35 193.3C775.282 193.66 775.83 193.645 776.1 193.652C777.082 192.805 777.787 191.957 778.425 190.66C776.19 189.842 776.362 191.987 775.35 193.3Z" fill="#373C53"/>
<path d="M754.102 263.432C753.375 263.905 752.655 264.4 751.897 265.262C751.867 265.637 751.897 265.667 751.92 265.69C752.662 265.217 753.39 264.722 754.132 263.845C754.132 263.455 754.102 263.447 754.102 263.432Z" fill="#254147"/>
<path d="M780.69 188.47C779.902 188.522 779.145 188.987 778.365 189.82C778.35 190.187 778.447 190.285 778.5 190.33C779.272 189.887 779.992 189.385 780.69 188.47Z" fill="#373C53"/>
<path d="M738.592 278.957C737.827 279.437 737.07 279.91 736.335 280.772C736.365 281.155 736.38 281.17 736.38 281.177C737.145 280.697 737.902 280.217 738.622 279.347C738.6 278.965 738.592 278.957 738.592 278.957Z" fill="#254147"/>
<path d="M780.712 188.117C781.365 187.937 781.995 187.742 782.632 187.547C782.055 187.495 781.47 187.442 780.78 187.735C780.667 188.065 780.697 188.102 780.712 188.117Z" fill="#373C53"/>
<path d="M650.43 359.95C649.988 360.437 649.988 360.79 649.988 361.405C651.533 361.547 653.078 361.427 655.028 361.3C655.568 361.097 655.702 360.895 655.665 360.37C653.947 359.972 652.418 359.897 650.43 359.95Z" fill="#F7F8F5"/>
<path d="M655.867 360.002C655.477 360.257 655.47 360.467 655.447 360.985C655.56 361.427 655.68 361.667 655.815 361.667C656.647 361.705 657.48 361.697 658.312 361.697C657.63 361.12 656.94 360.535 655.867 360.002Z" fill="#DEE7F9"/>
<path d="M851.527 370.127C851.272 369.962 850.92 370.045 850.515 370.405C850.47 370.675 851.01 370.727 851.01 370.727C851.01 370.727 851.422 370.382 851.527 370.127Z" fill="#B97A5C"/>
<path d="M762.919 101.158C762.109 101.432 761.769 101.55 761.453 101.716C760.285 102.329 759.119 102.949 757.953 103.569C759.441 103.623 760.922 103.68 762.826 103.628C766.194 102.401 769.144 101.271 772.251 99.7689C771.94 98.5348 771.209 99.0117 770.235 98.9059C767.743 99.5269 765.573 100.274 762.919 101.158Z" fill="#254147"/>
<path d="M770.386 98.6312C770.507 99.002 771.103 99.2314 772.049 99.4182C774.056 98.6803 775.707 97.9945 777.332 97.2544C777.619 97.1226 777.787 96.7385 778.007 96.4795C777.66 96.4413 777.269 96.2994 776.969 96.3958C774.929 97.0583 772.894 97.7824 770.386 98.6312Z" fill="#254147"/>
<path d="M789.555 91.2396C789.877 91.5396 790.395 91.4646 790.485 91.2321C790.882 90.1596 791.182 89.0496 791.445 87.9321C791.46 87.8721 790.882 87.6621 790.582 87.5271C790.237 88.6221 789.9 89.7096 789.555 91.2396Z" fill="#254147"/>
<path d="M789.562 91.6971C789.292 91.8546 789.022 92.0121 788.752 92.1696C788.985 92.1771 789.217 92.1771 789.502 91.9371C789.555 91.6896 789.555 91.6896 789.562 91.6971Z" fill="#254147"/>
<path fill-rule="evenodd" clip-rule="evenodd" d="M783.008 187.75C783.008 187.129 782.504 186.625 781.883 186.625C779.772 186.625 775.698 188.216 774.053 193.808C773.103 197.038 771.03 206.088 768.926 215.296C768.857 215.6 768.788 215.903 768.718 216.207C766.673 225.161 764.628 234.118 763.547 238.079C763.242 239.197 762.946 240.333 762.646 241.483C760.7 248.942 758.62 256.919 753.258 263.542C747.014 271.255 731.409 283.169 717.234 290.629C716.925 290.792 716.615 290.955 716.303 291.119C709.413 294.747 701.864 298.721 695.262 301.71C691.812 303.272 688.65 304.551 685.996 305.368C683.29 306.202 681.296 306.495 680.09 306.269C675.361 305.383 669.715 303.675 667.488 302.933C666.899 302.736 666.262 303.055 666.065 303.644C665.869 304.234 666.187 304.871 666.777 305.067C669.05 305.825 674.804 307.567 679.675 308.481C681.469 308.817 683.928 308.36 686.659 307.518C689.443 306.66 692.703 305.338 696.19 303.759C702.855 300.742 710.458 296.739 717.328 293.122C717.648 292.954 717.965 292.787 718.281 292.621C732.606 285.081 748.501 272.995 755.007 264.958C760.699 257.926 762.908 249.43 764.84 241.996C765.135 240.86 765.424 239.749 765.718 238.671C766.811 234.663 768.864 225.676 770.898 216.77C770.972 216.446 771.046 216.121 771.12 215.797C773.235 206.537 775.287 197.587 776.212 194.442C777.567 189.834 780.743 188.875 781.883 188.875C782.504 188.875 783.008 188.371 783.008 187.75Z" fill="#254147"/>
</svg>
