<svg width="1280" height="980" viewBox="0 0 1280 980" fill="none" xmlns="http://www.w3.org/2000/svg">
<path d="M728.84 979.44C423.12 979.44 118.54 979.4 -186.03 979.63C-194.29 979.63 -196.88 978.39 -196.87 969.28C-196.57 649.46 -196.57 329.65 -196.88 9.83982C-196.89 1.12982 -194.59 -0.000169119 -186.67 0.00983088C332.1 0.219831 850.87 0.219828 1369.64 0.0298275C1377.38 0.0298275 1379.93 0.899829 1379.92 9.78983C1379.6 329.99 1379.61 650.19 1379.89 970.39C1379.9 978.58 1377.86 979.66 1370.28 979.65C1156.86 979.39 943.43 979.44 728.84 979.44Z" fill="#FEFEFE"/>
<path d="M960.92 647.17C964.93 683.29 957.12 714.79 929.27 739.4C913.01 753.77 892.71 759.24 872.73 764.92C849.69 771.47 826.38 777.43 802.84 781.78C776.93 786.57 750.71 790.3 724.46 792.56C693.12 795.25 661.57 797.68 630.18 796.93C593.83 796.06 557.52 792.03 521.27 788.61C473.2 784.07 426.86 771.89 381.24 756.3C345.44 744.07 320.79 711.84 320.24 672.85C319.73 636.79 320.07 600.73 320.25 563.61C323.22 559.91 326.27 561.18 329.06 562.23C379.96 581.5 433.23 593.69 483.84 613.81C503.09 621.46 521.92 629.99 541.29 639.57C543.2 640.5 544.25 641.1 546.04 642.25C547.3 643.1 547.79 643.46 548.98 644.42C574.56 660.44 595.49 681.05 619.16 698.02C647.47 718.32 678.92 722.43 712.3 713.27C733.95 707.33 753.45 696.38 773.53 686.81C824.03 662.74 876.85 648.01 933.06 646.86C942.13 646.67 951.15 642.01 960.92 647.17Z" fill="#0B30E0"/>
<path d="M961.74 647.15C885.74 648.43 814.41 666.4 747.68 702.7C728.09 713.36 706.95 720.46 684.49 721.1C655.96 721.92 630.67 712.29 608.31 694.58C588.02 678.52 567.46 662.79 546.67 646.21C553.49 637.39 552.55 630.44 541.11 624.16C528.39 617.17 515.86 609.72 501.85 605.01C487.65 600.24 472.73 597.98 458.94 591.98C440.72 584.05 421.56 578.72 403.05 571.6C392.3 567.46 381.63 563.25 370.08 561.58C366.3 561.03 360.38 560.32 361.56 554.51C362.64 549.21 368.05 548.18 372.79 548.79C381.96 549.96 390.34 554.13 399.3 556.35C451.51 569.25 501.92 588.03 553.34 603.53C574.62 609.94 595.76 618.42 619.43 615.05C631.82 613.29 643.28 609.39 655 606.04C685.25 597.39 715.28 587.51 745.8 580.35C770.97 574.45 795.14 565.91 819.45 558C853.3 546.99 888.3 540.45 922.03 529.2C937.21 524.14 942.41 527.82 944.35 543.53C945.19 550.35 947.39 555.27 954.86 556.49C957.15 556.87 959.08 558.28 960.53 561.37C960.8 589.31 960.6 616.27 961.19 644.25C961.67 645.67 961.77 646.09 961.74 647.15Z" fill="#171E5E"/>
<path d="M960.12 559.22C943.9 561.74 940.85 552.51 941 539.44C941.1 530.13 936.27 528.08 924.61 531.49C904.18 537.45 883.83 543.74 863.29 549.34C855.62 551.43 847.53 551.96 839.63 553.19C837.75 553.48 835.74 553.39 833.99 554.04C811.03 562.59 788.5 572.53 765.09 579.58C727.3 590.96 689.04 600.85 650.77 610.56C634.66 614.65 618.07 617.02 601.59 619.44C596.91 620.13 591.65 618.89 587 617.43C559.14 608.68 531.38 599.62 503.58 590.65C474.98 581.42 446.47 571.93 417.76 563.05C403.73 558.71 389.38 555.38 375.09 551.92C372.33 551.25 369.15 551.86 366.27 552.41C365.1 552.64 364.22 554.31 363.21 555.32C364.3 556.14 365.28 557.36 366.51 557.72C388.31 564 410.27 569.74 431.9 576.55C442.26 579.81 451.8 585.57 462.05 589.26C474.9 593.89 488.35 596.89 501.07 601.8C520.09 609.15 539.88 615.14 553.55 632.33C560.95 641.64 556.86 643.92 547.21 645.43C546.32 645.49 546.4 645.44 546.4 645.47C545.46 644.18 545.17 642.22 542.46 642.42C517.92 632.48 494.33 621.16 469.85 612.24C442.08 602.12 413.42 594.44 385.33 585.13C364.12 578.11 343.2 570.21 321.3 562.61C320.25 560.64 319.65 558.69 319.89 556.87C321.4 545.75 316.95 541.62 305.59 538.7C278.81 531.81 252.72 522.27 226.3 513.93C222.73 512.8 218.94 512.41 214.27 511.45C213.58 508.19 215.37 506.04 218.06 505.3C232.81 501.21 246.95 494.57 263.65 494.71C288.38 499.58 311.08 508.09 334.2 515.21C419.77 541.54 505.11 568.63 590.88 594.3C607.89 599.39 625.15 595.84 641.98 590.94C731.62 564.84 821.51 539.59 911.25 513.83C984.01 492.94 1056.4 470.81 1129.31 450.49C1133.75 449.25 1138.23 448.06 1142.32 445.86C1148.13 442.74 1152.04 438.17 1151.68 431.23C1151.32 424.19 1146.84 420.09 1140.55 418.03C1127.76 413.84 1114.58 411.01 1101.53 407.81C1043.31 393.55 985.29 378.49 927.02 364.44C922.9 363.45 918.86 362.21 914.39 359.66C903.27 350.42 892.02 343.69 877.78 344.03C864.74 344.34 854.34 335.96 842.19 333.14C836.18 331.74 831.25 329.76 826.53 336.53C823.95 337.47 822.36 336.76 820.22 335.04C810.8 321.05 795.84 321.1 782.84 319.57C768.07 317.83 754.92 315.45 742.76 305.65C733.37 298.08 720.83 295.54 708.65 293.17C699.43 291.38 688.61 291.18 684.33 279.32C687.76 276.13 691.21 276.41 694.64 277.14C725.39 283.75 756.11 290.45 786.65 298.08C814.17 304.96 841.34 313.1 869.24 318.74C905.68 326.11 940.88 338.99 977.35 346.2C1005.95 351.85 1034.06 359.53 1062.06 367.04C1085.31 373.27 1108.88 378.67 1132.02 385.68C1154.18 392.39 1173.69 402.93 1192.47 415.67C1197.25 418.91 1201.93 422.27 1205.62 428.05C1210.98 455.51 1193.35 470.79 1168.22 477.17C1145.12 483.04 1122.18 489.54 1099.14 495.64C1072.8 502.62 1046.43 509.47 1020.07 516.38C1001.07 521.36 982.08 526.34 962.41 531.91C959.55 541.02 961.43 549.75 960.12 559.22Z" fill="#161E5C"/>
<path d="M1206.4 427.88C1191.81 419.57 1178.23 408.51 1162.76 401.68C1142.74 392.83 1121.39 386.81 1100.32 380.58C1075.21 373.16 1049.88 366.46 1024.49 360.09C1000.86 354.16 976.98 349.22 953.29 343.54C941.46 340.71 929.87 336.89 918.05 334.04C892.52 327.88 866.82 322.44 841.36 316.01C807.72 307.52 774.35 297.99 740.67 289.66C722.95 285.28 704.84 282.49 685.95 278.99C674.52 282.8 665.78 275.75 656.35 273.81C638.27 270.08 621.61 269.55 603.61 276.38C584.01 283.82 562.98 287.68 542.74 293.63C510.32 303.16 478.06 313.24 445.52 322.33C395.29 336.36 345.42 351.66 294.61 363.66C269.27 369.64 244.42 377.77 219.8 386.41C202.73 392.4 185.21 396.69 167.33 399.44C159.71 400.61 152.15 402.09 144.94 404.79C129.77 410.47 128.27 416.32 138.94 429.72C138.25 450.31 150.5 456.13 167.38 460.36C190.22 466.09 213.12 472.38 234.99 483.58C232.05 491.77 224.03 490.98 218.13 493.14C208.48 496.68 198.81 502.07 186.99 498.88C161.87 489.96 137.59 481.31 113.05 473.54C102.96 470.34 96.89 463.96 94.2 454.51C90.01 439.8 89.75 424.86 97.28 411.08C103.54 399.64 116.01 397.57 127.19 394.29C152.74 386.79 178.36 379.53 204.05 372.55C229.37 365.66 254.85 359.41 280.17 352.53C297.09 347.93 313.82 342.66 330.68 337.82C367.03 327.38 403.42 317.05 439.77 306.61C465.3 299.28 490.75 291.64 516.34 284.51C550.54 274.98 584.54 264.32 619.26 257.23C632.74 254.48 648.1 259.43 662.35 262.2C679.38 265.51 696.14 270.2 713 274.35C727.47 277.92 741.93 281.51 756.36 285.21C777.9 290.73 799.4 296.41 820.94 301.94C843.65 307.77 866.38 313.55 889.13 319.25C927.6 328.89 966.13 338.32 1004.56 348.11C1033.06 355.37 1061.38 363.37 1089.91 370.51C1116.84 377.24 1143.88 383.59 1171 389.49C1186.6 392.87 1202.56 408.97 1206.4 427.88Z" fill="#171E5B"/>
<path d="M108.56 955.35C96.4101 972.04 79.4101 973.58 71.3201 958.81C68.8201 954.24 68.7401 947.82 69.0401 942.34C71.2001 902.23 73.9301 862.16 76.1101 822.05C78.5001 778.13 80.4801 734.19 82.7101 690.26C83.0401 683.77 83.7301 677.3 84.3001 669.91C88.2801 665.96 91.7401 668.86 94.9401 670.28C103.15 673.93 112.11 673.73 121.4 676.43C124.08 679.08 124.52 681.66 124.6 685.35C124.5 687.01 124.42 687.67 124.15 689.31C121.68 699.37 123.06 708.61 122.95 718.79C119.73 761.61 119.08 803.58 115.42 846.4C112.73 854.66 113.64 862.15 113.73 870.6C113.71 881.97 114.24 892.33 113.11 903.67C110.3 912.38 111.57 920.42 110.93 929.27C107.9 938.19 110.58 946.55 108.56 955.35Z" fill="#0B2EE1"/>
<path d="M185.68 498.84C197.96 495.14 209.69 492.03 221.4 488.91C225.44 487.83 229.46 486.71 234.1 485.04C240.32 477.14 249.38 477.72 256.98 475.12C262.27 473.31 267.87 472.25 274.05 470.12C275.5 469.77 276.09 469.65 277.55 469.42C291.71 465.1 305.31 461.97 319.35 457.24C327.06 455.72 333.65 453.45 341.12 451.09C345.97 449.88 349.83 448.47 354.62 446.97C406.76 431.93 458.07 417.24 510.11 401.87C516.05 400.34 521.23 399.38 526.98 397.21C532.32 395.82 536.83 394.72 541.91 392.41C555.38 390.17 566.86 382.99 580.89 384.47C585.42 390.71 583.37 396.28 580.89 402.7C577.38 407.94 572.74 409.55 567.85 410.91C484.44 434.22 401.41 458.84 317.41 483.37C299.66 487.22 284.23 496.34 265.72 497.17C248.1 501.64 231.29 505.75 213.9 510.54C192.31 516.74 171.3 522.25 150.29 527.77C147.34 528.55 144.43 529.48 141.47 530.18C130.53 532.77 123.94 538.82 124.22 550.84C124.4 558.51 124.15 566.2 124.07 574.94C118.87 580.62 113.21 580.03 106.59 576.75C106.07 568.72 106.21 561.49 106.62 554.27C108.31 524.77 118.79 519.53 143.88 511.83C157.6 507.61 171.36 503.55 185.68 498.84Z" fill="#E5A80A"/>
<path d="M104.9 576.06C111.21 576.01 116.62 576.08 123.03 576.07C137.93 581.31 149.46 589.52 156.57 602.95C165.25 619.34 165.01 647.67 143.88 665.71C139.02 672.11 132.98 674.9 125.45 676.68C124.17 676.94 123.65 677 122.36 676.85C108.73 678.85 97.0201 675.66 85.2101 669C66.4101 654.4 56.8401 636.76 63.5201 613C69.3501 592.27 83.2701 580.53 104.9 576.06Z" fill="#D6604D"/>
<path d="M123.7 676.2C130.17 672.71 136.13 669.92 142.69 666.74C141.58 761.66 139.92 856.97 138.13 952.27C137.86 966.57 127 974.44 116 968.15C112.51 966.16 110.63 961.37 107.98 956.97C107.72 948.31 107.5 940.54 107.65 931.93C110.75 923.35 108.35 915.33 109.82 906.61C110.32 894.94 110.33 884.15 110.36 872.29C112.85 864.18 110.81 856.87 112.13 848.87C114.93 805.73 117.24 763.45 119.57 720.12C122.28 709.75 119.92 700.22 121.37 689.94C121.87 689.05 121.85 687.96 121.85 687.41C124.21 683.79 122.48 680.18 123.7 676.2Z" fill="#071CBE"/>
<path d="M959.62 561.17C959.9 551.35 960.19 542.6 961.13 533.17C961.82 569.37 961.86 606.24 961.73 644.18C960.92 639.32 959.78 633.4 959.72 627.47C959.49 605.73 959.63 583.99 959.62 561.17Z" fill="#12174A"/>
<path d="M542.51 643.05C542.69 641.64 543.47 640.53 544.24 639.42C544.98 640.93 545.72 642.44 546.43 644.72C545.3 644.79 544.2 644.07 542.51 643.05Z" fill="#171E5E"/>
<path d="M542.53 393.84C538.03 395.97 534.03 397.42 529.17 398.91C525.75 400.22 525.12 398.44 524.34 396.59C523.34 394.22 526.27 389.53 520.82 389.82C516.5 390.06 513.66 392.39 513.88 397.24C513.97 399.16 513.95 401.08 512.55 403.52C460.38 419.33 408.57 434.42 355.85 449.35C349.68 444.74 345.46 443.63 343.89 453.11C336.42 455.43 329.43 457.13 321.5 458.83C314.28 459.96 309.75 453.94 303.3 454.89C292.75 456.45 283 458.67 279.35 471.49C278.36 472.19 277.93 472.29 276.84 472.3C273.59 470.95 270.27 471.13 267.95 467.6C263.96 454.39 268.05 447.57 282.78 442.7C297.74 437.76 313.14 434.34 328.45 430.69C331.07 430.07 334.04 430.11 336.24 428.72C351.46 419.12 369.29 419.84 385.93 415.95C410.27 410.26 433.79 401.81 457.8 394.99C482.5 387.97 505.81 376.59 531.14 371.49C536.5 370.41 541.56 367.87 545.38 364.18C560.98 349.13 580.08 342.65 601.06 340.12C607.24 339.38 612.51 335.73 618.32 333.73C627.28 330.65 635.75 330.68 643.04 337.65C649.52 343.85 657.72 341.26 665.02 341.35C671.74 341.43 678.44 338.59 685.3 337.57C691.26 336.68 694.75 325.52 690.9 317.94C685.76 307.82 680.78 297.74 668.98 292.41C658.05 287.47 649.17 275.84 635.68 280.08C616.52 286.1 595.7 287.48 578.73 299.94C568.22 307.66 555.12 308.06 543.07 311.02C537.63 312.36 531.69 312.04 526.7 315.24C513.81 323.51 498.3 323.75 484.43 329.24C456.96 340.12 428.03 346.35 399.4 353.27C369.89 360.41 341.5 371.3 312.04 378.34C293.91 382.67 276.83 392.13 257.35 390.33C255.77 390.18 254.06 390.23 253.03 391.41C243.82 401.96 229.6 402.11 218.22 408.17C208.75 413.22 198.63 414.59 188.1 410.84C184.63 409.61 180.2 408 177.7 412.28C175.3 416.38 178.65 419.48 181.08 422.4C184.03 425.94 187.25 429.24 190.72 432.3C192.71 434.06 195.13 435.93 193.99 439.05C192.68 442.63 189.32 442.74 186.25 442.51C183.17 442.28 180.14 442.09 176.25 442.99C168.26 443.65 161.55 442.12 154.42 438.79C151.63 437.26 150.02 435.24 146.7 435.04C143.47 434.96 141.23 434.25 139 431.78C134.57 426.06 126.33 418.94 127.62 416.07C130.35 409.96 137.32 403.68 143.83 401.72C161.25 396.48 179.38 393.59 197.17 389.54C204.56 387.86 211.85 385.7 219.13 383.57C259.16 371.88 299.16 360.07 339.2 348.43C365.51 340.78 391.87 333.32 418.24 325.86C447.96 317.46 477.72 309.19 507.44 300.8C537.87 292.22 569.27 286.01 598.44 274.28C628.59 262.15 655.46 269.19 684.13 278.88C693.57 282.82 701.85 287.76 710.8 290.26C725.37 294.33 739.64 297.46 751.51 308.46C756.72 313.29 766.09 314.13 773.8 315.69C785.15 318 796.94 318.46 808.07 321.49C813.03 322.84 816.82 328.51 821.16 333.07C817.08 338.14 812.62 335.47 808.32 334.52C785.17 329.37 762.25 323.32 739.23 317.69C734.05 316.43 728.88 314.65 722.58 316.88C719.18 317.26 717.38 316.45 716.12 314.04C714.93 311.76 717.16 307.24 713.07 307.45C711.69 307.52 712.8 312.32 713.17 314.92C715.03 328.22 725.03 340.05 739.57 341.51C759.01 343.46 776.57 351.61 795.34 355.43C831.46 362.78 867.38 371.31 902.59 381.9C933.07 391.06 964.62 395.9 994.58 407.21C1010.21 413.11 1027.54 414.47 1043.8 419.12C1050.55 421.05 1059.99 421.14 1060.13 430.59C1060.27 439.96 1052.45 444.62 1044.17 446.28C995.9 455.98 949.94 473.76 902.6 486.74C876.1 494.01 850.1 503.47 823.47 510.67C804.26 515.87 785.25 521.77 765.48 524.77C751.38 526.91 738.59 533.76 724.7 537.04C691.09 544.97 658.25 555.87 624.66 563.94C623.56 564.2 622.61 564.98 620.79 566.03C616.15 567.79 612.34 567.95 607.64 566.25C603.49 556.37 605.07 551.77 613.55 550.77C663.89 544.83 710.82 525.56 759.68 514.03C830.44 497.34 899.08 473.26 969.45 455.28C976.24 453.54 982.32 450.31 988.49 447.18C994.95 443.9 995.57 439.04 991.53 434.04C985.28 426.3 978.87 419.15 966.97 419.52C957.5 419.82 947.73 417.07 938.94 413.9C919.26 406.8 898.3 405.91 878.57 399.74C855.59 392.55 831.38 390.31 808.83 381.05C799.54 377.24 789.13 374.48 778.63 374.45C766.02 374.41 760.46 378.98 757.46 391.17C744.81 442.67 711.56 468.61 658.37 468.81C632.99 468.91 607.79 469.65 583.48 459.48C569.13 453.48 554.64 458.93 540.88 464.13C523.28 470.78 506.06 478.39 487.67 482.95C479.82 484.9 472.15 487.06 463.99 487.5C457.1 487.87 450.14 488.85 443.59 491.05C439.07 492.57 432.05 492.39 431.11 497.52C430.27 502.16 436.91 503.79 440.44 506.5C445.13 510.09 449.1 513.64 442.3 519.79C439.12 520.99 436.79 520.84 433.83 519.38C429.77 514.8 427.33 508.65 419.35 513.27C414.67 514.58 410.85 514.43 406.55 511.92C404.63 511.48 404.99 507.77 401.93 510.3C386.58 507.28 371.48 505.92 358.41 496.29C357.93 493.42 358.23 491.25 359.96 490.28C372.98 483 385.25 473.66 399.88 470.25C415.92 466.52 432.67 464.47 448.11 459.49C473.08 451.43 500.39 450.28 523.08 435.23C525.65 433.53 528.8 433 531.86 432.63C552.06 430.16 571.61 429.78 591.33 438.04C632.46 455.26 673.11 450.92 712.22 430.63C731.74 420.51 735.44 393.06 718.61 380.53C704.25 366.92 687.77 360.2 668.34 358.02C665.52 357.03 663.46 356.64 660.49 357.28C654.08 358.25 648.45 358.19 642 357.57C639.06 357.08 636.96 356.54 633.97 356.98C631.52 357.36 629.87 357.42 627.37 357.27C608.09 355.04 590.13 355.19 574.53 367.49C571.84 369.61 568.9 371.64 565.61 372.55C554.52 375.62 547 382.4 542.53 393.84Z" fill="#171E5D"/>
<path d="M721.14 316.66C723.82 307.64 728.99 312.07 733.34 313.13C762.01 320.13 790.67 327.16 820.24 334.05C822.27 334.45 823.39 334.97 825.13 335.51C835.27 332.63 843.69 337.66 852.49 339.48C869.31 342.95 885.85 347.66 902.57 351.63C905.97 352.43 909.06 353.87 912.69 356.4C937.05 363.2 960.59 369.64 984.24 375.65C1011.94 382.68 1039.72 389.35 1067.48 396.15C1090.05 401.68 1112.63 407.18 1135.21 412.67C1145.36 415.14 1154.95 418.9 1155.4 431.12C1155.81 442.17 1149.04 448.06 1138.46 451.01C1102.53 461.01 1066.69 471.34 1030.89 481.81C999.87 490.89 968.98 500.42 937.98 509.58C919.47 515.05 900.85 520.14 882.3 525.5C857.28 532.73 832.31 540.17 807.27 547.32C789.1 552.5 770.81 557.24 752.64 562.4C727.94 569.41 703.5 577.4 678.59 583.57C652.94 589.93 628.19 602.57 600.84 598.85C586.77 596.94 573.01 592.21 559.32 588.08C526.38 578.13 493.54 567.83 460.69 557.57C434.33 549.33 408.07 540.78 381.67 532.65C353.13 523.86 324.49 515.41 295.9 506.77C286.15 503.82 276.44 500.74 265.79 497.62C280.93 492.25 296.99 486.97 313.91 481.69C330.33 482.64 344.41 488.51 358.82 495.57C373.45 500.38 387.65 504.37 402.71 508.52C403.95 508.64 404.34 508.61 405.21 508.9C409.61 510.26 413.52 511.3 418.3 512.51C423.92 511.38 428.11 512.9 432.75 515.83C434.96 517.23 436.55 518.05 438.84 518.93C456.14 517.32 470.81 525.04 486.07 529.21C523.71 539.49 560.83 551.65 599.01 559.95C601.29 560.45 603.39 561.31 605.79 563.6C610.47 564.51 614.42 564.83 619.35 565.02C631.77 560.39 644.16 560.18 655.87 556.86C701.32 544 746.77 531.15 792.38 519C886.58 493.91 979.55 464.54 1073.86 439.89C1085.38 436.88 1096.56 432.66 1108.25 430.23C1109.34 430 1110.48 429.88 1111.4 429.13C1110.22 428.59 1109 429.25 1107.77 428.93C1066.44 418.4 1025.43 406.69 984.22 395.73C917.4 377.96 850.55 360.31 783.8 342.28C766.37 337.58 748.73 333.68 731.48 328.34C726.16 326.69 719.61 325.69 721.14 316.66Z" fill="#5F81E1"/>
<path d="M913.35 356.14C899.46 353.94 885.39 351.18 871.46 347.84C856.72 344.3 842.12 340.2 826.6 335.94C825.58 328.81 829.74 326.1 835.35 327.64C844.51 330.16 853.33 333.9 862.28 337.16C865.82 338.45 870.13 341.84 872.7 340.82C886.37 335.38 895.29 348.12 907.2 349.03C909.37 349.2 911.24 353.13 913.35 356.14Z" fill="#171E5D"/>
<path d="M151.34 434.89C158.71 437.02 165.55 438.77 173.29 440.55C206.41 446.03 237.38 455.98 268.85 467.32C271.53 468.97 273.49 470.05 275.82 471.68C262.98 476.21 249.76 480.2 235.62 484.33C208.68 476.14 182.69 467.71 156.63 459.5C137.72 453.54 137.68 453.67 138.34 432.29C140.84 432.05 143.19 432.84 146.29 433.73C148.38 433.61 149.65 433.75 151.34 434.89Z" fill="#5D80DF"/>
<path d="M121.21 689.74C121.56 698.6 121.25 708.16 120.26 718.38C119.91 709.51 120.23 699.97 121.21 689.74Z" fill="#1D31BE"/>
<path d="M109.64 906.39C109.99 913.73 109.68 921.73 108.69 930.41C108.33 923.07 108.65 915.07 109.64 906.39Z" fill="#1936C8"/>
<path d="M111.96 848.69C112.31 855.3 112 862.59 111.03 870.55C110.67 863.93 110.99 856.65 111.96 848.69Z" fill="#1936C8"/>
<path d="M123.7 675.49C123.85 678.9 123.49 682.31 122.5 686.29C121.83 684.14 121.8 681.42 121.68 677.68C121.91 675.97 122.43 675.58 123.7 675.49Z" fill="#1D31BE"/>
<path d="M359.45 495.52C344.84 491.96 330.41 487.52 315.38 482.39C328.67 477.13 342.47 472.24 356.48 468.08C385.7 459.41 415.02 451.09 444.32 442.71C468.88 435.69 493.52 428.94 518.05 421.8C537.86 416.03 557.56 409.86 578.09 403.48C579.95 402.39 581.14 402.1 583.3 402.6C599.46 421.27 621.17 423.5 642.62 425.31C659.14 426.7 675.57 424.62 691.48 419.39C712.17 412.59 716.55 406.64 716.31 385.28C716.29 383.36 716.25 381.44 717.19 378.8C727.41 378.16 730.73 383.59 731.29 392.74C732.97 420.59 727.26 426.89 701.65 438.68C680.75 448.31 659.48 452.1 637.32 451.49C617.48 450.95 598.22 446.24 580.36 436.75C577.05 434.99 572.57 434.94 568.63 434.95C556.59 434.96 544.54 435.26 532.51 435.74C529.55 435.86 525.99 436.29 523.82 438C507.18 451.05 486.59 451.76 467.32 456.49C444.19 462.17 420.58 466.32 398.03 473.71C384.38 478.17 372.37 487.5 359.45 495.52Z" fill="#161E5C"/>
<path d="M584.3 403.99C582.39 403.57 581.38 403.47 579.62 403.24C579.62 397.71 580.36 392.32 581.65 385.23C600.96 374.5 621.43 370.81 641.2 364.97C647.6 363.09 652.55 366.6 654.49 372.93C656.59 379.81 654.15 385.31 647.16 387.52C626.74 393.99 606.53 401.25 584.3 403.99Z" fill="#F2B206"/>
<path d="M542.98 394.5C541.76 383.12 547.59 376.41 557.92 372.25C564.87 369.45 571.56 365.73 577.87 361.66C593.07 351.86 609.48 351.94 627.25 355.07C627.02 359.77 623.18 359.57 619.96 360.33C604.8 363.92 591.07 369.78 581.65 384.2C581.02 384.77 580.95 384.93 580.99 385C568.67 388.21 556.3 391.35 542.98 394.5Z" fill="#161E5C"/>
<path d="M279.69 472.22C278.03 464.67 279.44 458.07 287.53 455.69C298.22 452.54 309.34 447.1 319.83 458.45C312.62 461.83 304.7 465 296.65 467.78C291.38 469.59 285.93 470.84 279.69 472.22Z" fill="#161E5C"/>
<path d="M513.07 404.08C512.2 399.37 510.44 393.24 512.75 390.03C514.83 387.14 521.38 387.46 525.95 386.36C526.33 390.25 526.7 394.15 527.69 398.49C523.53 400.6 518.74 402.26 513.07 404.08Z" fill="#161E5C"/>
<path d="M344.22 453.75C344.18 449.75 344.94 445.77 345.69 441.79C348.72 443.74 351.75 445.69 354.87 448.41C351.64 450.71 348.33 452.24 344.22 453.75Z" fill="#161E5C"/>
<path d="M606.54 563.3C576.5 556.58 546.39 549.2 516.43 541.25C491.2 534.55 466.14 527.2 440.28 519.59C444.93 516.17 446.89 513.31 440.09 509.56C436.49 507.57 433.25 504.9 429.89 502.49C427.58 500.84 425.34 499.09 423.07 497.38C426.15 495.29 428.97 492.1 432.36 491.29C453.05 486.33 474.01 482.48 494.58 477.11C508.19 473.56 521.67 468.91 534.55 463.28C555.41 454.16 575.3 451.49 597.64 460.31C623.54 470.53 651.5 467.03 678.41 463.96C709.15 460.45 732.14 443.25 746.9 416.16C750.77 409.06 752.35 400.52 753.99 392.43C757.73 374.01 773.12 366.37 791.02 372.26C812 379.16 833.66 383.96 855.05 389.63C864.15 392.04 873.28 394.33 882.38 396.72C901.67 401.78 920.83 407.44 940.29 411.73C951.07 414.11 962.32 414.61 973.39 415.24C980.8 415.66 999.64 434.62 998.42 442.24C998.01 444.81 994.72 448.07 992.05 448.97C968.59 456.88 945.02 464.51 921.38 471.85C894.76 480.11 868.16 488.47 841.31 495.93C809.69 504.71 777.72 512.24 746.06 520.9C714.05 529.66 682.33 539.48 650.29 548.11C639.7 550.96 628.55 552.06 617.58 553.01C611.04 553.56 605.97 554.21 606.54 563.3Z" fill="#181F5F"/>
<path d="M269.56 467.01C257.47 464.82 245.3 462 233.28 458.63C213.94 453.22 194.7 447.46 174.81 441.21C175.69 440.22 177.16 439.74 178.67 439.55C183.17 438.99 187.69 438.54 192.2 438.05C188.81 434.65 185.41 431.25 182.02 427.85C181.48 427.31 180.99 426.71 180.43 426.18C175.36 421.35 168.71 415.69 174.49 408.98C176.95 406.12 185.4 408.56 191.11 408.28C198.89 407.9 207.86 409.53 214.16 406.21C226.68 399.61 243.89 401.43 251.79 386.22C252.14 385.55 254.03 385.09 254.93 385.38C276 392 293.46 378.58 312.57 374.71C330.09 371.17 347.01 364.74 364.23 359.71C384.17 353.89 404.1 348.03 424.12 342.54C443.47 337.23 463.14 333 482.29 327.1C498.89 321.99 514.93 315.08 531.31 309.25C534.23 308.21 537.7 308.82 540.82 308.19C544.99 307.36 549.07 306.09 553.17 304.96C553.46 304.88 553.71 304.07 553.84 304.1C571.56 308.66 580.12 289.85 595.65 287.84C605.49 286.56 615.1 282.29 624.41 278.41C633.64 274.57 652.51 276.56 660.27 283.08C663.18 285.52 666.15 288.7 669.59 289.55C684.44 293.23 688.2 306.81 694.4 317.57C696.92 321.95 694.6 329.24 694.11 335.18C693.32 344.93 685.59 340.15 680.75 341.16C673.83 342.6 666.81 344.54 659.83 344.53C651.64 344.52 643.38 345.72 636.35 337.14C633.67 333.87 622.32 337.09 615.07 338.29C606.26 339.75 596.72 340.52 589.12 344.61C578.09 350.55 564.62 349.98 555.04 360.59C547.1 369.39 535.96 374.35 522.89 376.41C508.14 378.72 494.23 386.05 479.77 390.6C450.27 399.89 420.78 409.24 391 417.58C379.91 420.68 367.81 420.07 356.6 422.86C346.02 425.49 336.17 430.9 325.7 434.12C312.25 438.25 298.5 441.4 284.89 445.01C272.37 448.3 267.13 455.53 269.56 467.01Z" fill="#171F5E"/>
<path d="M720.85 315.69C724.5 329.25 737.27 326.26 745.58 328.89C773.26 337.64 801.47 344.78 829.58 352.12C849.38 357.29 869.46 361.38 889.21 366.68C915.46 373.72 941.45 381.75 967.69 388.81C987.44 394.13 1007.52 398.24 1027.28 403.53C1047.31 408.89 1067.1 415.14 1087.04 420.79C1094.31 422.85 1101.77 424.21 1109.08 426.16C1111.95 426.93 1114.62 428.45 1117.38 429.62C1114.55 430.98 1111.84 432.8 1108.86 433.63C1089.56 439.04 1070.18 444.15 1050.88 449.53C1021.75 457.64 992.66 465.92 963.53 474.07C929.3 483.65 895.01 493.02 860.83 502.76C825.5 512.83 790.32 523.46 754.96 533.43C730.16 540.42 705.27 547.12 680.22 553.18C661.1 557.8 641.68 561.22 621.37 565.03C621.35 563.41 622.08 560.93 623.38 560.59C659.5 551.04 695.73 541.89 731.83 532.27C751.68 526.98 771.27 520.73 791.1 515.35C808.04 510.76 825.25 507.15 842.15 502.43C856.76 498.36 871.06 493.17 885.59 488.79C911.51 480.98 937.52 473.45 963.47 465.72C977.69 461.49 991.83 456.94 1006.08 452.79C1015.9 449.93 1025.83 447.47 1035.72 444.9C1039.03 444.04 1043.05 444.31 1045.62 442.48C1050.33 439.14 1054.21 434.62 1058.44 430.6C1054.26 427.89 1050.43 423.97 1045.85 422.67C1017.36 414.55 988.76 406.77 960.08 399.37C925.84 390.53 891.52 382.02 857.15 373.69C833.17 367.88 808.87 363.28 785.05 356.89C764.27 351.32 743.73 344.65 723.53 337.24C708.86 331.86 710.36 317.17 708.41 305.02C708.18 303.6 711.89 299.95 712.8 300.25C715.27 301.07 718.22 303.07 719.14 305.34C720.37 308.38 719.86 312.11 720.85 315.69Z" fill="#161E5C"/>
<path d="M581.93 384.83C588.43 362.7 607.95 360.31 627.43 356.08C629.68 355.41 631.24 355.38 633.53 355.08C635.17 354.2 636.17 353.9 638 354.31C645.79 354.74 652.85 354.85 660.95 354.79C662.94 354.11 663.95 353.92 665.73 354.35C675.48 357.04 684.97 358.33 693.43 362.01C701.8 365.65 709.12 371.68 717.28 377.36C724.38 402.06 716.28 414.8 692.29 422.29C668.34 429.78 644.07 430.62 620.2 425.76C606.78 423.03 591.06 420.42 583.49 404.48C603.69 397.52 623.87 390.87 644.38 385.47C651.93 383.48 654.2 379.63 652.28 373.34C650.14 366.34 644.98 366.43 638.44 368.52C620.05 374.4 601.39 379.49 581.93 384.83Z" fill="#D55F4B"/>
<path d="M433.32 515.62C429.07 515.53 424.75 514.63 419.81 513.21C425.44 503.07 429.34 508.99 433.32 515.62Z" fill="#181F5F"/>
<path d="M319.28 450.39C319.55 449.36 320.2 448.72 320.89 448.14C320.91 448.12 321.38 448.65 321.64 448.92C320.98 449.54 320.32 450.17 319.28 450.39Z" fill="#161E5C"/>
<path d="M151.77 434.6C150.56 435.14 149.24 435.01 147.48 434.36C148.59 433.87 150.12 433.9 151.77 434.6Z" fill="#171F5E"/>
<path d="M666.12 354.24C665.46 354.77 664.47 354.84 662.74 354.77C663.27 354.35 664.52 354.07 666.12 354.24Z" fill="#161E5C"/>
<path d="M638.39 354.18C637.76 354.75 636.76 354.88 635.02 354.91C635.52 354.46 636.78 354.09 638.39 354.18Z" fill="#161E5C"/>
<path d="M405.56 508.9C405.71 509.25 404.6 509.16 404.09 508.93C404.18 507.96 404.79 507.92 405.56 508.9Z" fill="#181F5F"/>
</svg>
