<svg width="803" height="981" viewBox="0 0 803 981" fill="none" xmlns="http://www.w3.org/2000/svg">
<path d="M379.503 865.404C370.623 865.024 363.363 864.874 356.133 865.284C354.423 865.384 351.963 866.924 351.283 868.454C343.253 886.354 335.503 904.374 327.283 922.924C322.463 925.704 317.723 925.934 312.893 925.934C265.993 925.924 219.103 925.964 172.203 925.874C167.193 925.864 161.863 926.584 157.263 921.684C133.153 905.604 126.393 882.354 126.283 856.084C126.113 816.804 126.153 777.534 126.073 737.364C128.303 735.244 130.503 735.964 132.463 737.024C152.703 747.924 174.263 749.954 196.733 747.334C207.353 746.094 210.133 748.384 213.753 758.614C218.613 772.334 225.083 785.034 236.523 794.594C244.393 801.174 253.313 804.784 263.733 804.824C269.063 804.844 274.843 804.304 274.893 812.914C274.923 817.554 279.843 816.914 283.303 817.024C293.333 817.364 302.733 813.484 312.663 812.724C323.193 811.924 332.243 812.524 338.423 822.904C342.233 829.294 348.613 829.244 355.493 827.504C369.053 824.074 381.613 817.004 396.003 816.544C401.623 816.364 407.433 816.204 411.293 820.514C418.393 828.424 426.073 826.014 434.053 823.054C445.073 818.954 455.753 813.794 467.703 812.684C473.623 812.134 479.443 812.494 484.013 816.664C490.093 822.204 496.413 821.274 503.603 819.234C517.023 815.424 530.313 807.464 544.213 809.874C560.293 812.654 575.613 811.634 591.403 809.614C599.343 808.604 607.413 810.884 613.943 816.204C623.183 823.714 622.303 833.624 612.073 839.634C603.603 844.614 594.173 846.444 584.653 847.684C550.713 852.104 516.573 854.694 482.573 858.484C470.493 859.824 458.283 859.164 444.913 861.434C448.793 862.874 451.493 862.544 454.033 862.194C486.673 857.654 519.633 856.254 552.303 851.984C564.983 850.324 577.673 848.694 590.363 847.114C598.463 846.104 605.893 843.504 612.843 839.414C623.883 832.924 624.003 820.744 612.913 814.204C601.723 807.604 589.363 808.254 577.453 810.914C569.343 812.724 562.203 813.074 554.113 810.344C542.353 806.384 530.673 810.814 519.443 814.274C513.383 816.144 507.073 817.194 501.173 819.874C496.773 821.874 491.363 822.044 487.633 818.174C478.663 808.884 467.993 811.754 457.983 814.334C449.743 816.454 441.633 819.594 433.713 823.034C426.293 826.254 419.363 826.614 412.543 820.234C403.723 811.984 392.913 816.474 383.313 818.524C374.363 820.434 365.593 823.834 356.893 826.944C348.663 829.884 342.243 828.174 337.753 820.964C333.053 813.404 326.443 811.344 318.083 812.124C308.523 813.014 299.103 814.664 289.673 816.444C278.553 818.534 277.013 817.084 275.823 805.914C272.783 803.544 269.103 804.354 265.713 804.404C248.813 804.654 236.263 796.894 226.803 783.524C220.483 774.584 215.543 764.924 212.753 754.224C211.663 750.024 211.723 745.974 216.443 744.804C233.793 740.504 250.723 734.504 269.313 732.244C283.383 739.904 295.073 749.954 309.603 755.624C340.813 767.814 373.043 775.054 406.363 777.984C423.533 779.494 440.583 782.904 457.923 781.684C484.743 779.804 511.453 777.404 536.573 766.504C556.173 758.004 572.393 745.644 583.443 727.064C585.423 723.724 587.443 720.484 592.133 718.774C607.273 717.254 621.623 718.044 636.883 718.034C656.793 717.514 675.793 717.894 694.793 717.854C698.273 717.844 701.783 717.874 705.693 720.184C751.723 730.034 779.573 758.184 795.633 800.674C818.693 861.724 780.543 936.244 727.503 959.494C700.443 971.354 672.243 979.084 643.053 979.604C577.413 980.764 511.733 979.974 445.033 979.974C443.933 973.494 442.833 967.024 441.463 959.784C438.393 956.234 438.733 952.604 438.493 949.124C436.833 924.254 434.283 899.444 432.993 874.554C432.593 866.844 429.573 864.164 421.853 863.974C409.303 863.674 396.993 866.244 383.663 866.024C382.263 865.954 381.703 865.904 379.503 865.404Z" fill="#122023"/>
<path d="M592.173 719.964C587.383 726.474 583.363 732.514 578.853 738.154C556.993 765.514 526.823 776.334 493.443 780.464C481.143 781.984 468.783 784.194 456.473 784.114C424.313 783.914 392.273 781.324 361.023 773.144C343.003 768.424 324.713 763.984 307.583 756.924C294.563 751.554 283.173 742.234 270.443 734.404C242.173 716.014 222.123 692.354 217.133 658.674C211.293 619.204 212.223 579.634 216.723 540.024C220.343 508.164 226.873 476.874 233.223 445.514C234.183 440.784 235.453 436.154 237.143 431.654C238.423 428.244 240.293 424.774 244.743 426.234C248.893 427.594 249.263 431.394 248.423 435.044C245.563 447.494 243.273 460.064 240.753 472.014C255.053 455.434 269.983 438.894 292.633 432.424C308.693 427.834 325.083 428.734 341.183 431.354C352.043 433.124 363.613 433.804 373.353 441.844C382.233 463.524 391.173 484.384 398.863 505.694C405.293 523.524 410.803 541.744 415.663 560.074C418.163 569.494 418.353 579.524 419.643 589.794C428.173 590.514 437.043 590.804 445.763 592.084C495.713 599.444 541.393 616.184 577.103 653.744C582.233 659.134 585.743 666.064 590.583 672.614C601.783 688.074 599.153 703.624 592.173 719.964Z" fill="#82ACB0"/>
<path d="M373.833 441.724C350.863 433.914 327.093 430.094 302.733 432.644C288.763 434.104 276.223 440.514 265.943 450.104C255.403 459.934 245.663 470.614 235.923 480.574C239.103 466.024 242.623 450.634 245.683 435.154C246.153 432.784 244.543 429.994 243.893 427.404C242.373 429.314 239.883 431.034 239.483 433.154C231.683 474.004 221.663 514.634 217.263 555.854C213.383 592.194 213.443 629.374 220.593 665.724C224.213 684.124 234.703 699.334 247.923 712.484C254.943 719.474 262.303 726.124 269.673 733.524C256.983 737.334 244.133 740.574 231.273 743.754C225.163 745.264 219.023 746.654 209.933 748.804C219.093 763.704 226.223 778.404 236.243 790.744C247.373 804.454 265.423 801.974 282.223 803.484C280.053 807.764 278.633 810.574 276.343 815.094C281.923 814.764 285.903 814.794 289.803 814.244C299.893 812.824 309.913 810.834 320.033 809.664C328.173 808.714 335.223 811.144 339.223 819.064C343.323 827.174 349.143 827.664 357.303 824.934C370.463 820.534 383.913 816.674 397.533 814.164C402.733 813.204 410.953 814.794 413.903 818.404C420.303 826.224 426.553 823.534 433.373 821.444C445.423 817.764 457.313 813.554 469.423 810.104C476.583 808.064 482.773 809.624 488.313 815.724C490.613 818.244 496.533 819.234 500.233 818.394C510.653 816.024 520.593 811.064 531.073 809.544C540.733 808.144 550.833 810.014 560.753 810.194C565.073 810.274 569.473 810.154 573.703 809.364C587.273 806.824 600.723 804.974 613.773 811.474C626.463 817.794 628.043 831.944 616.023 839.624C608.743 844.274 600.093 848.324 591.653 849.374C545.103 855.134 498.433 859.924 451.783 864.914C447.183 865.404 442.493 864.984 437.843 864.984C437.603 864.144 437.363 863.294 437.123 862.454C439.243 861.424 441.283 859.664 443.473 859.464C466.373 857.364 489.323 855.734 512.213 853.534C530.963 851.734 549.683 849.494 568.373 847.124C578.763 845.804 589.103 843.954 599.403 842.044C602.733 841.424 606.563 840.624 608.953 838.524C612.613 835.294 618.063 830.444 617.563 827.044C616.923 822.654 611.843 817.864 607.473 815.284C597.853 809.604 587.283 811.664 576.633 813.024C568.543 814.064 560.033 811.474 551.833 812.084C540.273 812.934 528.763 814.904 517.353 817.044C511.523 818.144 506.093 821.454 500.253 822.354C493.633 823.374 487.883 822.914 481.053 818.094C475.283 814.014 464.193 815.624 455.973 817.284C444.943 819.504 434.513 824.564 423.603 827.594C420.493 828.454 414.813 827.714 413.363 825.604C405.643 814.394 394.783 818.664 385.443 820.004C375.873 821.384 366.843 826.214 357.383 828.794C343.653 832.534 340.833 831.524 333.993 821.754C331.583 818.314 325.833 815.244 321.703 815.354C308.073 815.734 294.503 818.034 280.863 818.834C271.953 819.354 269.853 815.814 273.423 807.494C232.423 810.334 219.243 781.534 207.733 749.604C180.283 751.504 152.173 754.054 126.733 736.644C111.233 718.644 96.3433 700.924 87.5333 678.904C75.7533 649.434 74.8733 619.204 80.8433 588.684C85.2233 566.294 90.4333 543.994 96.7233 522.064C106.363 488.424 123.573 458.604 145.403 431.274C161.773 410.784 181.703 394.594 203.753 380.834C208.213 378.054 213.593 376.744 219.283 374.754C253.533 388.484 289.433 393.364 324.083 402.894C325.913 403.394 327.953 403.264 329.713 403.974C339.763 408.094 348.933 407.314 357.693 399.394C363.563 413.244 368.693 427.124 373.833 441.724Z" fill="#F7EFD7"/>
<path d="M236.243 790.744C226.223 778.404 219.093 763.704 209.933 748.804L207.733 749.604C219.243 781.534 232.423 810.334 273.423 807.494C269.853 815.814 271.953 819.354 280.863 818.834C294.503 818.034 308.073 815.734 321.703 815.354C325.833 815.244 331.583 818.314 333.993 821.754C340.833 831.524 343.653 832.534 357.383 828.794C366.843 826.214 375.873 821.384 385.443 820.004C394.783 818.664 405.643 814.394 413.363 825.604C414.813 827.714 420.493 828.454 423.603 827.594C434.513 824.564 444.943 819.504 455.973 817.284C464.193 815.624 475.283 814.014 481.053 818.094C487.883 822.914 493.633 823.374 500.253 822.354C506.093 821.454 511.523 818.144 517.353 817.044C528.763 814.904 540.273 812.934 551.833 812.084C560.033 811.474 568.543 814.064 576.633 813.024C587.283 811.664 597.853 809.604 607.473 815.284C611.843 817.864 616.923 822.654 617.563 827.044C618.063 830.444 612.613 835.294 608.953 838.524C606.563 840.624 602.733 841.424 599.403 842.044C589.103 843.954 578.763 845.804 568.373 847.124C549.683 849.494 530.963 851.734 512.213 853.534C489.323 855.734 466.373 857.364 443.473 859.464C441.283 859.664 439.243 861.424 437.123 862.454C437.363 863.294 437.603 864.144 437.843 864.984C442.493 864.984 447.183 865.404 451.783 864.914C498.433 859.924 545.103 855.134 591.653 849.374C600.093 848.324 608.743 844.274 616.023 839.624C628.043 831.944 626.463 817.794 613.773 811.474C600.723 804.974 587.273 806.824 573.703 809.364C569.473 810.154 565.073 810.274 560.753 810.194C550.833 810.014 540.733 808.144 531.073 809.544C520.593 811.064 510.653 816.024 500.233 818.394C496.533 819.234 490.613 818.244 488.313 815.724C482.773 809.624 476.583 808.064 469.423 810.104C457.313 813.554 445.423 817.764 433.373 821.444C426.553 823.534 420.303 826.224 413.903 818.404C410.953 814.794 402.733 813.204 397.533 814.164C383.913 816.674 370.463 820.534 357.303 824.934C349.143 827.664 343.323 827.174 339.223 819.064C335.223 811.144 328.173 808.714 320.033 809.664C309.913 810.834 299.893 812.824 289.803 814.244C285.903 814.794 281.923 814.764 276.343 815.094C278.633 810.574 280.053 807.764 282.223 803.484C265.423 801.974 247.373 804.454 236.243 790.744Z" fill="#E1FF01"/>
<path d="M156.453 921.604C160.813 921.504 164.813 922.714 168.833 922.724C220.883 922.944 272.943 922.984 325.943 923.274C319.533 940.164 312.433 956.974 304.583 973.424C303.193 976.334 298.663 979.574 295.573 979.584C230.563 979.944 165.563 980.104 100.553 979.744C78.7333 979.624 56.5633 964.574 54.3533 935.954C52.6733 914.144 47.2533 892.634 44.0433 870.914C39.6733 841.324 35.9433 811.634 31.6933 782.034C28.6533 760.924 25.0633 739.894 21.9533 718.794C17.4133 687.944 13.1333 657.064 8.6533 626.204C5.8633 606.984 2.48332 587.844 0.253321 568.564C-0.446679 562.584 0.26332 555.534 2.89332 550.254C8.26332 539.464 17.7833 537.284 28.6433 543.274C38.8833 548.914 44.8733 557.824 47.2333 569.364C51.8733 592.044 56.9333 614.644 61.4933 637.344C65.9233 659.404 69.8233 681.574 74.1933 703.644C78.3133 724.484 82.8233 745.254 86.9933 766.084C91.7933 790.034 96.2833 814.044 101.133 837.984C105.663 860.374 110.133 882.794 115.293 905.044C118.043 916.874 125.463 922.174 137.913 922.704C143.943 922.954 150.033 922.494 156.453 921.604Z" fill="#3B3A33"/>
<path d="M626.843 633.284C629.223 619.194 632.203 605.594 635.343 592.024C641.183 566.754 647.003 541.484 653.053 516.264C657.633 497.164 662.793 478.204 667.303 459.094C672.973 435.054 678.113 410.884 683.743 386.834C687.423 371.134 690.853 355.314 695.803 339.994C698.813 330.674 707.423 326.844 717.123 326.804C736.303 326.724 755.483 326.874 775.363 327.324C769.473 359.034 762.113 390.184 754.923 421.364C743.643 470.334 732.763 519.394 721.453 568.354C717.343 586.134 713.173 603.904 709.103 621.694C706.593 632.664 703.803 634.994 692.643 635.124C673.753 635.344 654.853 635.224 635.953 635.164C633.073 635.154 630.173 635.134 626.843 633.284Z" fill="#E0DBC7"/>
<path d="M327.553 107.314C333.933 109.884 339.643 112.464 346.133 115.374C356.323 106.624 364.493 106.354 372.743 115.734C385.433 106.114 391.163 106.984 404.013 120.324C413.343 112.724 422.333 104.704 432.043 97.6838C442.233 90.3238 448.813 92.0438 455.333 102.604C457.473 106.064 459.253 109.754 461.613 114.114C467.363 112.914 473.243 110.494 478.993 110.784C485.783 111.114 493.623 112.124 498.883 115.844C505.783 120.714 503.703 128.964 500.263 135.914C496.133 144.284 491.753 152.534 487.253 161.284C488.573 161.814 490.203 162.714 491.953 163.134C504.603 166.174 507.963 171.284 502.583 182.834C496.933 194.974 487.023 202.914 473.063 203.494C460.053 204.034 448.873 200.134 442.293 186.884C436.893 182.564 438.213 174.944 431.783 170.594C423.163 175.774 413.393 179.054 402.573 176.214C399.883 175.504 398.853 177.794 397.513 179.654C388.463 192.214 380.153 194.554 364.543 188.424C359.763 201.154 348.993 204.594 335.873 205.184C297.433 205.844 281.793 245.834 309.353 274.144C306.353 286.704 293.583 290.954 281.063 283.554C266.283 277.374 262.573 267.284 270.083 253.854C253.193 241.674 251.493 231.844 263.623 216.374C251.563 202.154 251.093 194.704 260.253 185.194C259.393 176.374 258.143 168.774 258.253 161.194C258.283 159.154 262.443 157.174 265.333 154.524C265.663 153.064 265.673 152.224 266.173 150.794C267.443 147.304 268.413 144.344 272.803 143.884C275.093 143.614 276.763 143.514 278.983 143.174C280.323 142.994 281.483 143.874 281.723 143.164C282.033 142.244 280.883 141.344 280.563 139.644C280.473 138.094 280.653 137.234 281.473 135.934C285.343 133.674 290.703 135.534 291.603 128.934C292.043 125.694 297.193 126.964 299.903 125.204C301.543 122.914 299.213 120.344 300.573 117.374C302.393 115.434 304.193 115.174 306.783 115.304C308.353 115.604 309.223 115.864 310.713 116.344C313.343 117.054 315.013 116.834 315.893 114.634C317.883 109.704 322.143 108.124 327.553 107.314Z" fill="#122023"/>
<path d="M264.293 143.644C261.233 141.714 258.803 139.874 258.053 139.304C253.443 144.694 250.113 152.014 245.443 153.004C241.443 153.854 234.213 148.504 231.413 144.024C226.033 135.404 219.653 135.174 211.203 137.204C204.443 138.824 197.403 139.864 190.453 140.004C181.993 140.164 177.243 134.214 179.553 126.174C181.553 119.194 185.093 112.664 188.333 105.044C184.563 101.844 178.723 98.3038 174.933 93.2238C171.293 88.3438 166.883 81.2238 167.993 76.2438C169.873 67.8438 178.303 64.1138 187.093 63.2138C190.863 62.8238 194.643 62.5038 198.653 62.1338C199.423 53.1138 200.433 44.6438 200.773 36.1538C201.093 28.1238 205.293 26.0938 212.133 28.0638C217.513 29.6138 222.823 31.5738 227.943 33.8538C237.143 37.9538 243.273 35.9238 247.033 26.9238C248.383 23.7038 249.503 20.3838 250.563 17.0638C253.273 8.60383 256.723 7.05383 264.943 11.1238C271.383 14.3138 277.663 17.8238 283.913 21.1338C290.573 12.3638 293.203 -1.56618 307.063 0.14382C322.163 2.00382 328.043 14.5838 332.443 28.5938C336.843 28.5938 341.563 28.3138 346.243 28.6638C353.313 29.1838 356.453 34.0138 353.593 40.4138C350.003 48.4438 345.773 56.1838 342.933 61.8338C344.763 68.6838 348.473 74.6838 347.193 79.3138C344.373 89.5538 336.693 96.3038 324.703 98.1138C320.733 100.314 326.673 105.824 325.353 110.054C324.573 110.744 315.943 108.114 314.903 108.334C312.773 108.054 311.333 107.204 309.143 108.354C313.803 108.784 315.883 111.474 316.493 115.294C316.893 117.824 315.063 118.344 312.353 118.154C310.913 117.754 310.183 117.364 309.013 116.504C306.543 115.944 304.543 116.284 302.143 115.504C301.303 115.384 300.973 115.364 300.203 115.364C299.093 115.494 298.733 115.884 298.703 117.074C298.793 117.954 298.843 118.324 298.933 119.284C298.873 124.204 297.123 126.594 291.753 125.364C289.093 125.424 285.213 120.684 285.723 127.884C287.083 133.834 283.203 134.044 279.123 134.774C276.863 135.484 276.213 136.894 275.423 138.974C274.883 139.874 274.613 140.194 273.753 140.764C270.153 141.154 267.563 142.544 264.293 143.644Z" fill="#122023"/>
<path d="M379.343 864.074C398.003 862.734 416.033 861.604 435.083 860.404C437.283 893.814 439.373 925.554 441.333 958.144C439.543 959.964 437.543 960.594 436.283 961.924C420.593 978.564 401.143 982.144 379.183 980.304C362.983 978.944 346.573 980.034 328.673 980.034C335.623 964.194 342.273 949.164 348.823 934.084C358.603 911.554 368.313 888.984 377.963 865.694C377.873 864.944 377.883 865.114 377.793 865.124C378.053 864.854 378.383 864.574 379.343 864.074Z" fill="#82ACB0"/>
<path d="M626.033 633.574C649.243 632.774 672.303 632.554 695.363 632.894C701.673 632.994 704.743 630.824 706.043 624.814C712.633 594.394 719.253 563.984 726.103 533.634C731.763 508.554 737.863 483.574 743.593 458.514C749.393 433.134 754.753 407.654 760.723 382.324C764.993 364.254 769.963 346.344 775.333 328.054C794.303 331.124 794.353 343.404 790.573 360.374C781.953 399.054 773.033 437.664 764.063 476.264C756.813 507.454 749.243 538.584 741.963 569.764C740.813 574.704 740.403 579.814 739.453 585.614C737.853 600.354 735.763 614.224 731.953 627.754C729.563 636.254 728.553 645.604 718.703 650.354C712.283 651.964 706.693 654.994 700.993 655.194C682.883 655.834 664.733 655.694 646.613 655.344C632.693 655.074 625.933 647.844 626.033 633.574Z" fill="#3B3A33"/>
<path d="M226.913 352.264C215.263 329.904 219.023 314.054 238.053 303.844C248.193 298.414 258.723 300.044 269.183 303.034C272.203 303.894 275.183 304.874 278.933 305.924C286.343 305.024 292.053 308.244 297.963 310.264C314.713 315.984 331.903 320.464 348.593 328.354C352.813 330.494 356.633 331.874 360.233 333.704C370.243 338.774 376.003 347.024 375.823 358.254C375.623 370.604 369.853 379.834 357.163 384.654C333.183 379.574 309.853 374.174 286.603 368.454C271.703 364.794 256.743 361.314 241.813 357.774C236.863 356.594 231.673 356.064 226.913 352.264Z" fill="#122023"/>
<path d="M349.163 328.024C334.643 324.454 320.173 320.074 305.753 315.504C297.333 312.834 289.013 309.854 280.173 306.534C279.933 298.884 280.183 291.714 280.603 283.694C291.643 287.524 300.993 285.444 308.943 275.894C311.733 273.974 314.243 275.134 316.343 276.324C334.153 286.404 361.373 269.424 363.733 244.904C364.093 241.124 363.563 237.234 365.593 232.954C374.843 227.464 384.243 230.044 394.203 230.314C398.983 231.914 399.333 235.714 400.373 238.994C402.283 245.004 405.663 249.894 410.773 253.604C416.693 257.904 422.143 256.154 427.643 252.564C438.013 245.804 438.053 245.864 445.053 257.224C446.693 268.204 446.243 268.524 431.193 267.584C429.603 275.544 428.263 283.584 426.343 291.484C423.643 302.554 415.073 309.274 403.803 309.344C385.973 309.454 368.153 309.374 349.233 309.374C349.233 315.114 349.233 321.124 349.163 328.024Z" fill="#F56824"/>
<path d="M225.953 352.144C245.283 356.004 264.143 360.344 282.983 364.744C302.763 369.364 322.563 373.904 342.273 378.794C346.793 379.914 350.983 382.344 355.923 384.554C357.193 389.234 357.863 393.544 358.493 398.604C351.543 410.664 342.293 410.244 330.593 407.084C301.873 399.324 272.663 393.364 243.843 385.924C235.873 383.864 228.573 379.164 220.493 375.194C218.223 366.464 217.763 358.544 225.953 352.144Z" fill="#E1FF01"/>
<path d="M718.023 651.074C721.553 643.734 726.513 637.634 728.523 630.684C732.613 616.514 735.113 601.894 738.763 586.914C739.423 618.264 740.013 650.154 739.583 682.034C739.333 700.654 725.153 715.974 706.683 720.124C683.833 720.744 661.253 720.684 637.753 720.464C636.953 713.644 639.543 707.214 639.113 699.844C656.483 699.234 673.453 699.324 690.423 699.194C709.693 699.044 718.253 690.324 718.233 671.134C718.233 664.734 718.163 658.334 718.023 651.074Z" fill="#3B3A33"/>
<path d="M335.833 205.364C337.473 203.674 339.323 201.864 341.273 201.754C354.473 201.014 359.703 196.994 363.413 184.104C380.133 194.514 389.183 191.404 398.993 171.484C411.393 178.394 422.403 175.424 433.783 164.294C436.623 171.944 439.053 178.484 441.633 185.784C440.383 193.674 438.993 200.794 437.743 208.694C435.193 217.574 430.753 215.074 425.663 210.844C419.553 194.884 415.793 191.944 400.583 191.454C395.233 191.284 389.863 192.194 388.663 198.484C387.453 204.854 392.333 206.474 397.323 207.514C399.823 208.034 402.263 208.774 404.853 210.884C405.643 217.154 402.803 221.514 398.553 225.984C387.423 228.614 376.923 227.594 365.673 227.004C355.503 219.624 346.773 211.474 335.833 205.364Z" fill="#F56824"/>
<path d="M639.123 698.714C642.163 706.194 642.793 712.934 637.143 719.684C622.343 720.424 607.853 720.534 592.503 720.634C592.793 714.814 595.093 708.974 594.873 703.234C594.513 693.624 592.563 684.064 591.213 673.724C611.013 669.304 629.743 679.234 639.123 698.714Z" fill="#8C3C4A"/>
<path d="M425.433 209.054C429.603 211.254 432.893 216.444 437.543 210.054C455.293 205.874 459.343 207.964 468.453 225.814C470.483 229.144 470.913 231.964 469.063 235.744C465.143 247.604 458.653 255.534 445.823 257.764C442.153 254.704 439.203 251.464 436.163 248.134C435.963 248.224 435.283 248.354 434.863 248.754C419.273 263.854 404.223 259.794 398.313 238.864C397.883 237.334 397.543 235.784 396.973 233.534C395.303 230.244 395.903 227.954 398.213 225.224C400.893 220.654 403.123 216.684 405.623 212.074C411.143 203.444 417.923 205.404 425.433 209.054Z" fill="#82ACB0"/>
<path d="M469.453 236.464C468.503 233.714 468.413 230.924 468.483 227.294C474.033 226.574 479.523 226.124 484.773 227.024C487.113 227.424 488.993 230.544 491.073 232.424C488.913 233.754 486.853 235.944 484.563 236.234C479.873 236.834 475.063 236.414 469.453 236.464Z" fill="#E1FF01"/>
<path d="M310.223 117.014C311.638 116.701 311.689 116.549 312.234 116.562C312.723 116.574 313.192 116.342 313.415 115.907C313.669 115.409 313.533 114.807 313.125 114.424C311.442 112.84 310.984 111.43 308.923 109.794C306.553 106.434 308.183 103.934 314.443 106.794C316.854 108.054 317.164 107.924 317.854 107.554C317.964 107.454 320.856 105.554 320.854 104.554C320.844 99.6839 319.354 98.1937 323.273 98.1938C325.233 100.774 326.633 103.304 328.123 106.584C324.133 110.824 316.413 110.464 316.373 118.444C316.373 118.724 313.413 118.984 311.233 119.024C310.363 118.384 310.083 117.994 310.223 117.014Z" fill="#F56824"/>
<path d="M263.483 143.664C266.743 142.424 272.854 139.054 280.354 140.054C282.184 141.534 283.944 141.544 282.354 143.664C273.354 145.054 270.093 148.734 268.273 150.634C265.033 150.274 264.373 147.834 263.553 144.764C263.353 144.174 263.303 143.764 263.483 143.664Z" fill="#F56824"/>
<path d="M379.383 863.764C379.523 864.254 379.063 864.624 378.143 865.044C378.083 864.654 378.443 864.164 379.383 863.764Z" fill="#FEFEFE"/>
<path d="M381.473 597.304C362.253 618.424 343.553 639.084 322.933 661.874C323.793 657.064 323.383 653.264 325.053 651.004C346.253 622.204 367.723 593.584 400.163 576.024C401.003 575.574 401.703 574.464 402.503 574.434C405.013 574.324 407.543 574.584 410.063 574.694C408.883 576.664 408.173 579.294 406.453 580.504C398.453 586.154 390.173 591.424 381.473 597.304Z" fill="#0E1140"/>
<path d="M422.093 611.184C416.003 633.574 410.293 655.324 398.953 674.724C397.513 674.194 396.073 673.664 394.633 673.144C396.023 668.544 397.393 663.934 398.803 659.344C404.623 640.534 410.283 621.684 416.443 602.984C417.483 599.834 420.733 597.414 422.963 594.664C423.113 598.054 423.423 601.454 423.333 604.844C423.283 606.704 422.553 608.544 422.093 611.184Z" fill="#0E1140"/>
<path d="M334.753 204.504C344.293 210.844 353.013 217.004 361.923 223.734C358.713 228.374 354.243 227.294 349.173 226.644C346.253 225.624 344.813 223.854 343.133 222.404C329.663 210.744 311.353 215.624 305.303 232.464C300.363 246.214 305.803 261.404 317.683 267.074C329.513 272.714 341.683 268.934 349.213 257.344C352.073 252.934 353.333 248.044 354.013 242.924C354.473 239.464 354.023 235.854 356.413 232.104C360.193 230.104 363.143 230.254 365.973 233.834C366.323 258.964 356.683 273.844 337.393 279.894C327.523 282.984 318.793 280.574 309.713 275.404C284.173 256.564 289.833 219.404 313.653 208.214C319.683 205.374 327.143 205.534 334.753 204.504Z" fill="#82ACB0"/>
<path d="M275.663 134.864C278.913 132.704 281.983 131.264 284.813 129.164C284.053 129.434 284.853 128.314 284.813 129.164C285.854 128.164 283.814 122.624 284.354 121.554C284.764 120.774 290.644 125.034 291.354 124.554C295.354 123.554 296.943 123.554 296.943 117.854C297.553 116.484 298.273 116.134 300.143 116.664C301.928 119.745 303.105 122.458 304.286 125.478C304.795 126.781 303.825 128.184 302.425 128.184C298.937 128.184 295.777 128.184 292.183 128.184C292.607 130.736 292.979 132.974 293.382 135.421C293.482 136.03 293.012 136.584 292.395 136.584C289.134 136.585 286.158 136.598 282.583 136.714C278.354 138.054 283.854 141.554 278.354 143.554C276.654 143.084 272.353 136.584 275.663 134.864Z" fill="#F56824"/>
<path d="M300.583 113.934C303.213 113.964 311.783 116.444 314.653 116.944C315.503 117.274 315.673 117.684 315.353 118.554C310.353 120.054 304.583 117.174 301.893 117.244C301.163 117.284 301.063 117.174 301.003 117.114C300.303 116.324 300.013 115.474 300.583 113.934Z" fill="#F56824"/>
<path d="M302.643 114.237C301.263 116.377 299.59 117.424 297.492 119.566C296.884 118.593 296.58 116.839 296.31 114.975C296.23 114.43 296.61 113.921 297.157 113.851C298.886 113.631 300.656 113.548 302.643 114.237Z" fill="#F56824"/>
<path d="M347.373 223.974C352.303 224.294 356.423 224.384 361.323 224.394C373.713 224.454 385.313 224.584 397.793 224.664C398.193 226.894 397.713 229.174 397.003 232.144C386.973 232.994 377.173 233.164 366.843 233.944C363.793 234.114 361.263 233.684 358.103 233.154C351.223 235.804 344.593 236.214 337.093 236.034C335.223 235.354 334.323 234.674 333.193 233.034C333.833 223.694 340.163 223.664 347.373 223.974Z" fill="#E1FF01"/>
<path d="M426.003 208.814C419.653 210.004 413.333 210.414 406.453 211.134C402.473 210.784 398.693 210.834 395.703 209.314C391.983 207.414 387.223 204.864 385.933 201.454C383.623 195.334 387.903 191.014 393.933 189.824C406.463 187.364 426.743 191.074 426.003 208.814Z" fill="#122023"/>
<path d="M425.273 217.544C432.453 224.954 436.213 232.724 430.033 241.724C427.493 245.414 423.513 250.874 420.393 250.744C416.123 250.564 410.853 248.054 407.863 243.054C407.353 242.054 406.003 234.334 406.353 233.554C403.493 234.104 409.213 233.004 406.353 233.554C406.213 234.124 406.503 232.984 406.353 233.554C402.823 232.324 409.833 234.774 406.353 233.554C405.223 220.374 413.373 213.694 425.273 217.544Z" fill="#F56824"/>
<path d="M458.163 235.954C453.223 249.634 448.173 251.764 437.813 245.104C438.973 242.654 440.163 240.154 441.513 236.984C446.723 232.364 452.073 232.934 458.163 235.954Z" fill="#FEFEFE"/>
<path d="M459.293 236.174C453.643 236.494 448.503 236.334 442.523 236.244C441.573 233.594 441.463 230.864 441.433 227.314C446.563 222.684 451.833 223.444 458.023 226.074C459.173 229.524 459.493 232.604 459.293 236.174Z" fill="#E1FF01"/>
<path d="M458.593 225.814C453.653 226.554 448.433 226.674 442.363 226.644C441.583 223.514 441.663 220.514 441.733 217.524C445.573 217.894 449.673 217.564 453.143 218.884C455.353 219.714 456.633 223.004 458.593 225.814Z" fill="#FEFEFE"/>
<path d="M335.193 234.654C342.453 233.844 349.093 233.274 356.593 232.874C358.133 244.484 356.253 255.034 347.783 263.654C337.723 273.904 325.093 275.664 313.363 268.174C302.693 261.354 298.053 245.514 302.183 232.724C309.393 210.384 335.893 206.604 347.903 223.584C343.433 226.414 338.693 228.624 333.803 231.504C331.423 233.694 329.353 232.174 327.253 231.744C321.983 230.664 317.493 232.054 314.803 236.704C311.693 242.074 313.233 247.344 316.943 251.834C320.463 256.094 324.823 257.904 330.713 254.914C327.913 252.694 325.183 254.234 322.853 253.314C317.493 251.194 314.133 247.314 315.233 241.564C316.283 236.084 320.763 234.104 326.183 234.474C328.993 234.674 331.693 236.614 335.193 234.654Z" fill="#F56824"/>
<path d="M335.503 233.994C335.693 239.074 335.453 242.374 329.363 238.224C327.013 236.624 322.173 237.074 319.363 238.434C317.833 239.174 316.783 245.154 317.973 246.364C320.433 248.874 324.433 250.044 327.983 251.244C330.243 252.004 332.813 251.814 335.243 252.044C333.043 254.334 330.243 258.904 328.743 258.514C323.323 257.104 316.983 255.214 313.523 251.274C308.873 245.994 309.103 238.394 314.403 232.944C319.593 227.604 325.973 226.424 332.973 232.004C334.173 232.644 334.683 233.114 335.503 233.994Z" fill="#122023"/>
</svg>
