<svg width="560" height="512" viewBox="0 0 560 512" fill="none" xmlns="http://www.w3.org/2000/svg">
<path d="M169.912 340.29C118.176 340.29 66.8499 340.283 15.527 340.294C10.6286 340.294 5.86416 339.95 2.56959 335.638C0.0896163 332.398 0.0208282 328.535 0.0208282 324.679C0.0244486 238.13 0.0208274 151.58 0.017207 65.0306C0.017207 54.8501 -0.029858 44.6659 0.0316889 34.4853C0.0896154 24.9564 4.95182 20.1593 14.4047 20.1593C135.902 20.1593 257.403 20.2245 378.9 20C386.318 19.9855 393.063 26.0859 393.041 34.3006C392.81 131.719 392.889 229.14 392.889 326.558C392.889 334.885 388.729 339.461 380.431 340.2C378.929 340.334 377.405 340.272 375.895 340.272C307.372 340.283 238.848 340.286 169.912 340.29Z" fill="#5C7A7D"/>
<rect x="275.875" y="83.3571" width="82.1832" height="179.934" fill="#FCFCFC"/>
<path d="M153.312 393.405C155.343 388.087 155.977 382.66 157.356 377.457C158.008 374.999 159.565 372.696 159.38 369.724C161.719 367.935 164.235 368.156 166.701 368.156C190.374 368.145 214.045 368.145 237.719 368.16C240.749 368.16 243.772 368.102 247.193 367.791C250.596 373.627 251.965 380.064 254.133 386.215C254.8 388.108 255.252 390.082 255.792 392.352C254.662 395.465 252.168 394.632 250.162 394.636C226.542 394.698 202.919 394.676 179.3 394.676C172.294 394.676 165.292 394.683 158.29 394.669C156.65 394.665 154.971 394.817 153.312 393.405Z" fill="#485F61"/>
<path d="M247.573 367.447C247.182 370.387 245.104 369.431 243.678 369.431C215.906 369.474 188.134 369.453 159.941 369.456C160.517 365.532 161.614 361.618 162.465 357.654C163.022 355.069 164.854 355.511 166.592 355.511C185.65 355.511 204.708 355.514 223.769 355.521C229.392 355.521 235.014 355.583 240.633 355.503C242.729 355.474 244.112 355.605 244.587 358.287C245.126 361.314 246.523 364.185 247.573 367.447Z" fill="#111F22"/>
<path d="M152.73 393.036C157.487 393.126 161.875 393.275 166.263 393.278C194.694 393.296 223.128 393.289 251.56 393.278C252.79 393.278 254.018 393.155 255.517 392.887C260.998 392.79 266.211 392.985 271.428 392.992C292.195 393.014 312.958 392.978 333.725 392.967C334.688 392.967 335.658 392.902 336.61 393C337.859 393.13 339.901 392.543 339.785 394.517C339.68 396.269 337.725 395.9 336.404 395.9C310.138 395.914 283.872 395.918 257.606 395.918C196.96 395.914 136.315 395.91 75.6693 395.907C75.2566 395.907 74.8402 395.95 74.4347 395.9C73.3124 395.758 71.5638 396.493 71.419 394.708C71.2524 392.659 73.0554 392.953 74.3985 392.949C84.4379 392.945 94.4773 392.949 104.513 392.96C120.461 392.974 136.412 393.003 152.73 393.036Z" fill="#050E3D"/>
<path d="M362.948 309.814C361.214 313.394 358.021 313.264 354.875 313.264C310.71 313.26 266.544 313.26 222.379 313.26C169.271 313.26 116.163 313.267 63.0557 313.264C61.6872 313.264 60.3151 313.162 58.7402 312.837C59.0696 311.45 60.1196 311.124 61.1876 310.827C76.7771 306.501 86.9504 296.545 92.4425 281.379C96.4684 270.257 101.885 259.79 109.115 250.001C109.368 249.588 109.466 249.422 109.726 249.016C110.005 248.625 110.121 248.477 110.613 247.897C111.12 247.333 111.251 247.199 111.58 246.858C112.315 246.116 112.869 245.595 113.557 244.791C117.228 240.49 121.218 236.862 124.53 232.656C126.511 230.143 129.24 227.496 127.64 223.836C126.044 220.183 122.568 219.137 118.875 218.576C99.8209 215.676 85.8498 223.851 75.1008 238.781C64.3084 253.777 57.7591 270.858 51.4451 288.022C50.2612 291.241 48.8637 294.383 47.9333 298.004C46.467 302.417 42.7851 304.85 40.3956 308.257C39.3783 309.709 38.227 311.001 37.8794 313.086C30.4358 313.22 28.1043 310.943 28.0283 303.764C27.9812 299.228 28.0066 294.688 27.9233 289.771C27.2028 286.831 29.2737 285.676 30.6603 284.33C40.2544 275.022 48.7225 264.779 56.3109 253.795C63.2874 243.691 68.8194 232.826 73.077 221.316C74.4745 217.54 74.0038 216.686 69.9309 216.324C65.695 215.947 61.4301 215.86 57.1979 216.501C55.4311 216.769 53.6716 217.171 51.7094 216.092C50.301 213.489 51.5609 211.545 52.7919 209.282C57.1436 203.902 61.4157 198.953 67.1757 195.456C70.3979 193.501 73.7866 192.114 77.3563 191.151C79.3656 190.608 80.2997 189.573 80.6002 187.52C82.2402 176.398 83.2286 165.294 82.3308 153.995C81.7551 146.736 81.5053 139.484 79.2425 132.511C76.4548 123.92 73.211 123.269 67.154 129.992C66.7847 130.401 66.4517 130.835 65.9339 131.523C65.6262 131.943 65.5031 132.11 65.1917 132.526C64.7609 133.105 64.5256 133.442 64.131 134.043C63.8522 134.477 63.74 134.651 63.4395 135.075C52.5891 150.404 45.2976 167.086 39.6679 184.587C36.3009 195.058 33.3503 205.626 31.2106 216.418C31.0477 217.236 30.7762 218.007 30.0992 218.949C29.5271 219.463 29.1216 219.571 28.4048 219.336C28.0898 211.588 27.9993 204.022 27.9993 196.455C28.0138 154.484 28.0536 112.512 28.1478 70.1608C29.3135 67.746 31.1672 67.0256 33.3358 66.8409C35.2582 66.678 37.1843 66.7214 39.1103 66.7214C130.746 66.7178 222.383 66.7178 314.022 66.7251C316.357 66.7251 318.703 66.5839 321.379 67.1305C323.696 68.4773 323.385 69.6069 321.459 70.4143C319.909 71.0659 318.207 70.8378 316.564 70.8668C309.978 70.979 303.382 70.5446 296.822 71.6198C294.443 72.0109 293.991 72.8435 295.279 74.8203C297.531 78.2705 299.914 81.6411 302.093 85.1384C303.393 87.2238 304.881 89.2838 304.28 92.2924C303.766 93.2083 303.157 93.498 302.517 93.7731C297.303 96.0033 295.236 98.7476 295.942 104.171C296.988 112.201 296.753 120.274 297.825 128.348C301.083 152.818 308.215 175.663 321.991 196.361C333.41 213.518 345.802 229.951 358.09 246.467C360.436 249.624 363.463 252.394 364.563 256.728C364.672 263.624 364.617 270.25 364.259 277.092C360.968 276.115 360.28 273.045 358.727 270.739C344.604 249.755 332.819 227.323 318.884 206.216C310.749 193.895 301.347 182.625 290.587 172.51C287.572 169.675 285.291 170.146 283.806 174.092C281.587 179.986 281.087 186.093 281.964 192.35C284.436 209.974 290.808 226.302 298.44 242.217C299.689 244.82 301.17 247.322 302.27 249.979C303.617 253.23 305.739 253.817 308.86 252.72C313.295 251.159 317.404 248.958 321.517 246.739C322.719 246.091 323.79 245.175 325.513 244.95C327.968 245.381 329.025 246.884 329.677 249.128C327.374 257.256 321.723 262.415 315.257 266.709C313.631 267.792 313.729 267.922 314.732 269.265C323.472 281.002 334.785 289.898 346.544 298.312C351.917 302.156 357.731 305.328 362.948 309.814Z" fill="#FCFCFC"/>
<path d="M322.986 68.2999C226.629 68.0718 130.573 68.0754 34.5161 68.0102C32.333 68.0102 30.5771 68.6547 28.5279 69.7516C28.1369 65.1139 27.9632 60.4472 27.9885 55.7805C28.0138 51.675 31.3881 48.1197 36.6956 48.1306C133.1 48.2935 229.5 48.2501 326.281 48.2537C326.73 48.3731 326.882 48.5035 326.86 48.5976C325.387 55.1867 327.096 61.2871 329.601 67.5866C327.57 69.6467 325.463 69.4584 322.986 68.2999Z" fill="#EAE7D9"/>
<path d="M321.515 68.6478C323.759 67.9856 326.025 68.8861 328.301 67.3032C329.729 66.8914 330.593 67.7232 331.506 68.4096C338.892 73.9818 346.274 74.4461 353.664 68.4177C354.115 68.0502 354.622 67.7878 355.464 67.4244C358.874 66.9883 362.034 66.3059 364.549 69.839C364.825 76.5902 364.933 83.0346 364.937 89.4749C364.94 131.222 364.918 172.969 364.866 215.14C361.78 214.195 362.451 211.074 362.172 208.542C359.548 184.711 353.601 162.111 341.229 141.51C340.401 140.17 339.88 139.019 339.09 137.698C338.847 137.287 338.751 137.121 338.363 136.491C337.975 135.877 337.882 135.728 337.647 135.357C337.424 134.985 337.342 134.832 337.141 134.456C336.947 134.085 336.869 133.939 336.53 133.382C336.179 132.837 336.09 132.708 335.87 132.377C335.665 132.037 335.59 131.9 335.408 131.553C335.229 131.21 335.158 131.076 334.841 130.56C334.595 130.18 334.338 129.817 334.215 129.631C334.092 129.445 333.869 129.062 333.761 128.872C333.504 128.428 333.328 128.193 332.974 127.83C332.602 127.467 332.404 127.241 332.08 126.809C331.849 126.49 331.756 126.356 331.376 125.835C330.884 125.177 330.69 124.907 330.366 124.41C329.785 123.437 329.363 122.67 328.723 121.729C328.354 121.224 328.13 120.946 327.713 120.473C326.781 119.439 326.189 118.478 325.436 117.287C325.19 116.892 325.093 116.734 324.698 116.116C324.295 115.503 324.195 115.349 323.938 114.97C323.681 114.586 323.58 114.433 323.315 114.053C322.92 113.532 322.678 113.241 322.227 112.745C317.487 104.257 310.668 99.2302 302.205 96.0363C302.346 92.0752 300.278 89.4264 298.601 86.6242C296.302 82.7761 294.047 78.8877 291.566 75.185C289.497 72.1002 290.041 71.3572 293.518 70.9292C301.828 69.8996 310.142 70.2064 318.46 70.1014C319.533 70.0893 320.781 70.4568 321.515 68.6478Z" fill="#FEFEFE"/>
<path d="M29.2303 219.448C31.3881 211.125 33.0788 202.997 35.3633 195.039C41.5578 173.462 49.4756 152.626 63.0666 134.166C64.4279 135.067 64.2614 136.313 64.0442 137.536C60.2681 158.759 56.2024 179.91 50.7754 200.796C44.8198 223.709 35.986 245.663 28.9552 268.215C27.7279 272.15 26.5766 276.107 25.4941 280.086C25.085 281.589 24.1183 283.924 25.9683 284.431C27.8075 284.938 28.2202 282.371 28.6619 280.926C30.8957 273.562 33.2635 266.245 35.7217 258.954C36.1634 257.651 36.5472 256.329 37.5898 254.975C41.4601 252.365 45.1674 250.044 48.7697 247.561C49.6711 246.941 50.6305 246.391 51.3474 245.544C52.0172 244.755 52.3611 243.85 51.6624 242.941C50.9274 241.985 49.968 242.264 49.0665 242.713C47.9623 243.267 47.0029 244.052 45.9385 244.675C44.6714 245.414 43.4947 246.561 41.6194 245.54C40.5043 243.136 41.6845 241.257 42.3398 239.357C44.6714 232.608 47.1405 225.903 49.3019 219.093C49.6784 217.902 50.1744 216.773 51.5755 215.925C58.8525 215.752 65.7313 214.412 72.8164 215.592C76.6142 216.222 75.3145 218.134 74.7895 219.586C71.0931 229.806 66.6146 239.654 60.7604 248.864C51.8108 262.951 41.3587 275.771 29.1181 287.128C28.6474 287.566 28.4375 288.283 27.9777 289.126C27.0798 289.641 26.2543 289.796 25.5447 290.169C23.2639 291.36 22.2104 290.622 22.0945 288.153C21.7433 280.669 22.0112 273.236 23.1336 265.8C24.1292 259.218 24.4731 252.539 25.4434 245.953C26.4136 239.375 26.4716 232.641 28.6112 225.918C28.0827 223.583 28.003 221.613 29.2303 219.448Z" fill="#254147"/>
<path d="M363.329 309.886C352.529 304.075 342.754 296.968 333.254 289.456C326.049 283.761 319.677 277.237 313.928 270.101C312.799 268.696 311.767 267.679 314.536 266.108C321.021 262.437 325.915 257.01 329.098 249.878C331.484 249.4 332.142 251.163 333.095 252.405C342.917 265.235 351.602 278.841 360.316 292.428C361.772 294.698 364.096 296.483 364.567 299.676C364.527 303.202 365.725 306.638 363.329 309.886Z" fill="#254147"/>
<path d="M110.697 249.03C101.714 261.177 96.0955 274.801 90.2848 288.341C84.6587 301.458 73.9169 308.289 60.6807 311.928C60.1594 312.069 59.6706 312.33 58.8488 312.547C53.9649 312.467 49.3126 314.067 44.5446 311.747C46.2063 306.309 49.9679 302.544 54.917 299.546C58.5085 300.433 61.8791 300.781 65.2714 300.951C66.7304 301.023 68.7144 301.508 68.9425 299.524C69.1597 297.631 67.1033 297.5 65.6986 297.142C63.7291 296.639 61.6799 296.469 59.5149 295.545C58.8415 292.548 60.659 291.11 62.9978 289.735C66.9513 290.267 70.5753 291.002 74.1631 291.929C75.785 292.345 77.8089 292.656 78.2071 290.459C78.5691 288.46 76.5924 288.254 75.1261 287.924C72.8561 287.418 70.492 287.219 68.298 285.607C67.7115 284.554 67.831 283.71 68.4175 283.113C71.8967 279.572 74.9017 275.517 79.5575 272.849C82.5262 272.397 84.8831 273.859 87.4428 274.076C88.9669 274.203 91.1392 274.913 91.5157 272.704C91.8669 270.644 89.7996 270.261 88.203 269.866C87.5441 269.703 86.8635 269.62 85.9729 269.2C84.5754 267.386 85.8353 266.488 86.8888 265.648C93.6554 260.246 100.69 255.189 107.254 249.53C108.202 248.715 109.285 248.053 110.697 249.03Z" fill="#254147"/>
<path d="M356.001 67.869C346.689 75.2546 338.073 74.9903 329.63 67.087C325.557 61.3486 323.457 55.5198 326.643 48.5686C332.124 35.5786 351.968 33.0045 359.726 48.6483C363.285 55.2953 361.79 63.1045 356.001 67.869Z" fill="#EA580C"/>
<path d="M80.126 273.494C75.3 276.502 72.1647 280.883 68.356 284.894C67.3097 287.175 65.9811 288.873 63.74 290.09C61.5207 291.071 60.8509 293.152 59.3123 294.782C58.7583 297.276 56.8721 298.409 55.1705 299.981C50.6776 303.04 47.9731 307.442 44.3745 311.374C42.6693 313.477 40.5513 313.438 38.0713 313.314C36.9816 311.761 36.9128 310.545 38.3537 309.032C41.3514 305.889 43.9943 302.399 46.8689 298.786C51.5718 291.661 57.6324 286.064 63.1028 279.952C76.0892 265.442 91.9864 254.349 107.221 242.488C110.794 239.708 113.093 240.685 113.908 245.341C113.361 246.087 113.003 246.605 112.445 247.249C111.982 247.477 111.747 247.629 111.49 248.035C111.435 248.238 111.28 248.104 111.352 248.176C111.109 248.321 110.86 248.484 110.798 248.958C110.914 249.161 110.863 249.277 110.809 249.306C109.897 248.788 109.216 249.201 108.546 249.733C100.94 255.822 93.326 261.905 85.6507 268.258C84.4017 270.749 82.3851 272.053 80.126 273.494Z" fill="#111F22"/>
<path d="M356.066 68.0648C360.125 62.5907 361.558 56.4505 359.875 49.2386C363.502 50.0605 364.875 52.6853 364.813 56.3383C364.741 60.5524 364.784 64.7666 364.704 69.3681C362.112 68.1372 359.332 67.7969 356.066 68.0648Z" fill="#EAE7D9"/>
<path d="M29.2158 219.173C29.1651 221.096 28.289 222.927 28.6004 225.255C27.2934 223.786 28.1985 221.747 28.0682 219.492C28.4302 219.155 28.7162 219.162 29.2158 219.173Z" fill="#EAE7D9"/>
<path d="M114.002 245.515C112.123 241.095 111.066 240.791 107.489 243.589C92.5585 255.25 76.9473 266.101 64.189 280.336C58.7222 286.44 53.0707 292.381 47.2346 298.456C48.4076 291.596 51.2352 285.122 53.7984 278.606C58.5484 266.528 63.5844 254.541 70.5826 243.517C76.9944 233.423 84.5284 224.51 96.0594 220.035C105.335 216.432 114.802 215.285 124.32 219.141C129.255 221.143 130.406 224.405 128.035 229.151C124.769 235.682 118.716 239.893 114.002 245.515Z" fill="#254147"/>
<path d="M213.462 158.195C230.112 164.943 238.877 179.541 235.717 197.447C233.74 208.634 225.804 218.959 211.203 222.688C205.475 224.151 199.885 224.774 193.919 222.884C191.852 218.583 192.435 214.22 192.891 210.104C194.925 191.767 201.732 175.12 211.641 159.664C212.014 159.089 212.528 158.622 213.462 158.195Z" fill="#E1FF01"/>
<path d="M213.552 157.905C207.311 168.712 201.413 179.598 197.851 191.582C194.915 201.462 193.296 211.53 193.727 222.272C181.081 220.52 172.392 213.134 167.635 201.654C159.844 182.846 170.075 162.746 189.589 157.007C197.655 154.639 205.475 155.077 213.552 157.905Z" fill="#485F61"/>
<path d="M64.598 132.848C64.4134 132.454 64.3663 132.276 64.4387 132.186C67.1685 128.58 69.1561 123.088 74.7786 124.431C80.4808 125.796 80.4192 131.914 81.4329 136.396C84.5429 150.168 83.7065 164.19 83.1924 178.161C83.0404 182.278 81.3678 186.191 81.509 190.362C81.5452 191.387 80.7632 191.716 79.8834 191.857C68.5805 193.649 60.7459 200.546 53.8997 209.38C52.5855 208.631 52.6507 207.512 52.9295 206.444C55.2646 197.443 57.4803 188.414 59.5946 179.363C59.7177 178.835 60.1051 178.4 60.6844 177.752C63.9753 175.906 67.4364 175.399 70.5898 174.038C71.8533 173.491 73.1169 172.944 74.3514 172.347C75.5787 171.749 77.2514 171.094 76.6612 169.45C76.0132 167.644 74.3442 168.592 73.0987 168.951C71.7773 169.331 70.5753 170.037 69.3009 170.547C67.1468 171.406 65.047 172.517 62.3787 172.083C61.3614 168.281 62.2448 164.939 63.8414 161.431C67.0853 159.031 70.8396 158.242 73.8952 156.113C75.0791 155.291 77.2007 154.567 76.4295 152.88C75.5208 150.892 73.6237 152.098 72.1285 152.703C70.0286 153.553 68.2872 155.505 65.514 154.556C64.9927 150.139 66.0136 146.15 66.7522 142.106C67.3314 138.916 68.251 135.484 64.598 132.848Z" fill="#254147"/>
<path d="M61.5859 177.759C59.7648 183.747 58.2696 189.594 56.8033 195.449C55.6919 199.887 54.613 204.333 53.5667 209.108C53.2336 211.425 51.4343 212.968 51.8542 215.502C48.3605 225.476 44.7003 235.085 41.9379 245.334C41.9271 248.842 40.5875 251.565 38.828 254.447C35.2836 262.607 33.086 270.92 30.3925 279.066C29.7915 280.879 29.2665 282.722 28.6076 284.514C28.108 285.883 27.1956 287.012 25.5737 286.726C23.8649 286.426 23.5752 284.996 23.7092 283.53C24.2016 278.168 26.2652 273.211 27.8365 268.139C34.2482 247.456 42.4195 227.334 48.1397 206.444C51.5936 193.83 54.5623 181.065 57.0459 168.18C59.1928 157.054 61.213 145.903 63.349 134.43C63.3418 134.086 63.3635 134.119 63.349 134.108C63.7545 133.804 63.7943 133.326 64.1238 132.769C64.3157 132.642 64.3265 132.562 64.3664 132.573C67.6211 132.432 68.6819 133.985 68.4755 137.124C68.099 142.848 66.5748 148.369 65.8181 154.353C66.8065 156.913 66.2453 158.991 64.942 161.221C63.1282 164.548 63.4504 168.075 62.5055 171.663C62.9978 173.947 63.2114 175.862 61.5859 177.759Z" fill="#111F22"/>
<path d="M255.126 230.979C258.779 226.461 263.554 226.356 268.022 227.746C270.979 228.666 273.492 231.146 274.024 234.864C274.694 239.552 273.883 243.48 269.604 246.239C265.896 248.629 260.031 248.375 256.606 245.497C253.105 242.554 251.951 237.97 253.681 233.767C254.043 232.887 254.488 232.047 255.126 230.979Z" fill="#111F22"/>
<path d="M198.716 119.891C199.328 126.621 199.885 133.022 200.396 139.43C200.573 141.678 200.7 144.245 197.626 144.379C194.817 144.498 194.9 142.044 194.552 139.969C193.517 133.847 194.056 127.674 193.77 121.531C193.712 120.267 193.883 119.127 195.182 118.381C196.869 117.418 197.68 118.634 198.716 119.891Z" fill="#E1FF01"/>
<path d="M148.034 211.346C150.724 209.699 153.24 208.337 155.597 206.744C157.052 205.76 158.084 205.93 159.127 207.19C160.18 208.464 160.217 209.872 158.946 210.824C153.41 214.97 147.498 218.543 141.445 221.859C139.859 222.728 138.882 221.164 138.132 220.161C137.357 219.126 137.991 218.091 139.026 217.399C141.948 215.444 144.87 213.489 148.034 211.346Z" fill="#E1FF01"/>
<path d="M130.305 182.274C136.383 181.847 142.147 181.543 147.911 181.246C149.931 181.141 152.226 181.311 152.393 183.711C152.563 186.213 150.481 186.941 148.172 187.035C142.955 187.252 137.741 187.592 132.524 187.875C130.956 187.958 129.472 187.806 128.581 186.256C127.528 184.424 129.117 183.537 130.305 182.274Z" fill="#E1FF01"/>
<path d="M252.334 201.375C257.729 203.627 262.884 205.644 267.974 207.812C269.289 208.374 270.027 209.666 269.535 211.172C268.945 212.982 267.522 213.276 265.885 212.704C260.27 210.741 254.738 208.58 249.423 205.89C247.718 205.028 246.907 203.685 247.87 201.951C248.851 200.191 250.437 200.162 252.334 201.375Z" fill="#E1FF01"/>
<path d="M258.529 160.103C260.248 159.223 261.754 158.593 263.152 157.782C264.991 156.714 266.099 157.934 266.932 159.1C267.869 160.414 267.395 161.721 265.871 162.452C260.393 165.088 254.934 167.774 249.398 170.287C248.026 170.909 246.552 170.269 246.085 168.744C245.712 167.521 245.405 166.091 247.197 165.316C250.919 163.705 254.579 161.96 258.529 160.103Z" fill="#E1FF01"/>
<path d="M239.623 137.768C237.433 141.229 235.492 144.488 233.41 147.659C232.288 149.375 230.84 150.675 228.682 149.013C226.836 147.59 227.842 146.171 228.751 144.774C231.629 140.346 234.529 135.929 237.382 131.483C238.414 129.876 239.579 128.283 241.596 129.771C243.316 131.038 242.957 132.841 241.831 134.484C241.14 135.487 240.481 136.512 239.623 137.768Z" fill="#E1FF01"/>
<path d="M166.212 139.455C169.485 142.616 172.606 145.523 175.593 148.557C176.715 149.694 177.873 150.91 176.139 152.746C174.438 154.549 173.275 153.665 171.994 152.478C168.341 149.093 164.67 145.73 161.096 142.261C160.003 141.2 158.164 140.042 159.721 138.159C161.274 136.284 163.091 136.769 164.778 138.148C165.202 138.492 165.597 138.88 166.212 139.455Z" fill="#E1FF01"/>
<path d="M64.0514 132.638C64.1455 133.076 63.9717 133.507 63.5663 134.021C63.483 133.608 63.635 133.12 64.0514 132.638Z" fill="#254147"/>
<path d="M111.095 249.07C110.928 248.882 110.939 248.6 111.189 248.285C111.537 248.527 111.482 248.774 111.095 249.07Z" fill="#254147"/>
<path d="M111.656 248.201C111.551 247.977 111.667 247.709 112.014 247.409C112.123 247.637 112 247.897 111.656 248.201Z" fill="#254147"/>
<path d="M94.9587 57.3626C100.111 55.1397 105.324 56.6277 110.411 56.6711C111.707 56.682 111.363 58.4126 111.345 59.4552C111.316 61.0337 110.32 61.6492 108.89 61.4899C104.488 60.9975 100.063 61.4175 95.5995 60.8998C92.3267 60.5196 88.3406 61.2872 84.6731 61.5044C83.5798 61.5696 82.4828 61.5008 81.3858 61.4899C79.6734 61.4718 79.4054 60.0345 79.3548 58.9339C79.3004 57.7609 79.7494 56.3779 81.4112 56.4431C85.857 56.6168 90.3644 55.5633 94.9587 57.3626Z" fill="#254147"/>
<path d="M67.7406 61.5151C65.2896 61.5984 63.3128 61.4065 63.3852 58.6622C63.4576 55.9179 65.6661 56.4357 67.3604 56.3777C69.5544 56.3053 71.752 56.4067 73.9496 56.3596C75.7562 56.3198 76.7662 56.881 76.7119 58.9337C76.6576 60.9141 75.7308 61.5875 73.8844 61.526C71.9656 61.4608 70.0432 61.5151 67.7406 61.5151Z" fill="#254147"/>
<path d="M40.993 61.5189C39.4 61.4827 38.1365 61.6203 36.9562 61.3596C35.5262 61.0447 35.222 59.8065 35.2619 58.4706C35.3017 57.1346 36.0004 56.4649 37.2929 56.4323C39.2009 56.3852 41.1124 56.4142 43.024 56.3562C44.8885 56.2983 46.525 56.9102 46.4489 58.9159C46.3838 60.7297 44.9646 61.7072 42.9987 61.5262C42.4556 61.4719 41.9053 61.5189 40.993 61.5189Z" fill="#254147"/>
<path d="M50.3047 57.0185C53.0236 56.0302 55.6194 56.4936 58.1899 56.385C60.0472 56.3053 60.6337 57.6087 60.612 58.9591C60.5903 60.2841 60.0363 61.6164 58.1646 61.5223C56.5354 61.439 54.8917 61.4246 53.2662 61.5368C49.9499 61.7685 49.1244 60.2516 50.3047 57.0185Z" fill="#254147"/>
<path d="M332.602 119.014C332.436 119.043 332.197 118.848 331.904 118.428C332.074 118.399 332.302 118.598 332.602 119.014Z" fill="#79AEB9"/>
<path d="M333.308 119.869C333.062 119.974 332.878 119.804 332.693 119.38C332.863 119.348 333.084 119.503 333.308 119.869Z" fill="#79AEB9"/>
<path d="M334.822 121.553C334.651 121.643 334.514 121.535 334.344 121.27C334.528 121.089 334.706 121.169 334.822 121.553Z" fill="#79AEB9"/>
<path d="M335.763 123.207C335.549 123.301 335.357 123.127 335.158 122.714C335.368 122.606 335.582 122.765 335.763 123.207Z" fill="#79AEB9"/>
<path d="M336.375 124.018C336.23 124.076 336.099 123.953 335.94 123.674C336.092 123.576 336.252 123.681 336.375 124.018Z" fill="#79AEB9"/>
<path d="M329.941 114.927C329.731 115.032 329.568 114.902 329.376 114.579C329.601 114.377 329.815 114.474 329.941 114.927Z" fill="#79AEB9"/>
<path d="M337.41 125.701C337.236 125.788 337.037 125.633 336.806 125.231C336.976 125.151 337.175 125.31 337.41 125.701Z" fill="#79AEB9"/>
<path d="M338.218 126.48C337.993 126.585 337.819 126.436 337.624 126.078C337.852 125.897 338.076 126.017 338.218 126.48Z" fill="#79AEB9"/>
<path d="M339.166 128.124C338.999 128.171 338.775 128.008 338.478 127.649C338.641 127.606 338.876 127.762 339.166 128.124Z" fill="#79AEB9"/>
<path d="M339.803 128.96C339.597 129.039 339.434 128.88 339.275 128.504C339.485 128.391 339.677 128.536 339.803 128.96Z" fill="#79AEB9"/>
<path d="M326.65 110.793C326.43 110.887 326.252 110.724 326.078 110.322C326.303 110.192 326.509 110.34 326.65 110.793Z" fill="#79AEB9"/>
<path d="M325.969 109.949C325.803 109.996 325.575 109.837 325.271 109.482C325.426 109.439 325.669 109.587 325.969 109.949Z" fill="#79AEB9"/>
<path d="M324.952 108.331C324.764 108.432 324.612 108.313 324.431 108.023C324.634 107.824 324.829 107.911 324.952 108.331Z" fill="#79AEB9"/>
<path d="M341.566 181.528C343.757 182.386 343.098 185.069 344.745 186.684C342.707 189.985 340.683 193.027 338.587 196.017C337.653 197.349 336.708 198.921 334.644 197.758C332.577 196.593 332.646 194.522 333.645 193.11C336.295 189.363 337.863 184.877 341.566 181.528Z" fill="#FCFCFC"/>
<path d="M334.684 166.565C335.763 168.122 336.595 169.787 337.468 171.728C334.521 172.919 332.816 175.576 330.397 177.274C328.754 178.429 327.038 179.79 325.408 177.915C323.642 175.88 325.151 174.092 326.806 172.723C329.308 170.656 331.889 168.687 334.684 166.565Z" fill="#FCFCFC"/>
<path d="M321.614 142.873C323.432 143.966 323.841 145.838 324.873 147.616C321.973 148.752 319.297 150.288 316.567 151.75C315.079 152.55 313.157 153.216 311.904 151.247C310.485 149.02 311.93 147.735 313.747 146.779C316.242 145.462 318.783 144.231 321.614 142.873Z" fill="#FCFCFC"/>
<path d="M328.587 155.668C330.662 156.649 331.136 158.734 331.954 160.957C329.662 162.539 327.353 163.933 324.92 165.066C323.457 165.747 321.506 166.265 320.543 164.527C319.652 162.919 319.934 161.196 321.955 160.084C324.192 158.85 326.266 157.326 328.587 155.668Z" fill="#FCFCFC"/>
<path d="M38.9257 254.711C39.2044 251.699 40.0806 248.821 41.7894 245.928C44.4902 245.305 46.2208 243.383 48.1143 242.003C50.2249 240.468 51.684 240.87 52.9801 242.51C54.5441 244.487 52.8172 245.968 51.4849 246.891C47.5024 249.653 43.3281 252.141 38.9257 254.711Z" fill="#FCFCFC"/>
<path d="M301.981 211.248C303.878 212.218 304.877 214.014 305.431 216.407C303.751 217.218 302.915 219.246 300.924 219.18C299.613 219.137 298.06 219.575 297.419 217.913C296.887 216.534 297.216 215.299 298.484 214.351C299.664 213.46 300.772 212.472 301.981 211.248Z" fill="#FCFCFC"/>
<path d="M295.167 199.92C297.788 200.068 297.513 202.479 298.759 204.004C298.266 205.506 296.981 205.325 296.025 205.604C293.842 206.245 291.235 207.048 290.555 203.754C289.852 200.351 292.412 200.141 295.167 199.92Z" fill="#FCFCFC"/>
<path d="M331.665 145.357C330.137 144.205 329.112 142.486 328.323 140.306C332.378 140.368 332.932 141.171 331.665 145.357Z" fill="#EAE7D9"/>
<path d="M338.554 157.887C336.824 157.387 336.82 155.754 336.067 154.292C338.663 153.948 339.242 155.429 338.554 157.887Z" fill="#EAE7D9"/>
<path d="M63.7943 290.263C64.913 288.576 66.3358 286.951 68.0229 285.245C70.7346 286.089 73.2001 286.889 75.8611 286.914C78.2397 286.933 80.1006 288.116 79.7567 290.524C79.4417 292.729 77.5265 294.097 75.1551 293.185C71.5601 291.798 67.5088 292.305 63.7943 290.263Z" fill="#FCFCFC"/>
<path d="M55.1597 300.267C55.4746 297.931 57.5853 297.005 58.9321 295.151C62.1543 295.571 65.1085 296.219 68.0954 296.628C69.9997 296.889 70.8071 298.094 70.7166 299.644C70.5971 301.631 68.9172 302.551 67.1758 302.247C63.2694 301.57 59.1892 302.033 55.1597 300.267Z" fill="#FCFCFC"/>
<path d="M80.2672 273.696C80.8501 271.231 83.1454 270.167 85.3104 268.606C87.5623 268.936 89.626 268.624 91.5267 269.754C93.1124 270.695 93.3876 271.901 93.2174 273.487C93.011 275.431 91.581 275.203 90.2016 275.38C86.802 275.822 83.8768 273.809 80.2672 273.696Z" fill="#FCFCFC"/>
<path d="M341.527 56.729C340.904 53.21 337.881 51.9537 336.129 49.6692C335.727 49.1479 334.927 48.6012 335.386 47.9966C336.139 47.0082 336.831 47.9857 337.349 48.4672C338.724 49.7633 340.057 51.1138 341.324 52.5185C342.214 53.5068 343.065 54.1875 344.622 53.1593C345.107 53.0905 345.324 53.0796 345.531 53.3946C344.524 55.0781 344.85 56.1353 346.085 57.2105C347.417 58.3691 348.63 59.6724 349.799 60.9938C350.241 61.4935 351.367 62.0872 350.371 62.9054C349.796 63.3761 349.169 62.7063 348.637 62.2682C346.573 60.5739 345.343 57.9418 342.432 57.0005C341.961 57.0693 341.726 57.0729 341.527 56.729Z" fill="#EAE7D9"/>
<path d="M335.25 62.5396C335.45 60.9759 346.654 50.7733 349.731 47.877C350.274 47.5075 350.462 48.0019 350.589 48.0906C351.345 48.6192 337.226 62.3224 336.336 63.0827C335.865 63.213 335.445 62.8691 335.25 62.5396Z" fill="#EAE7D9"/>
<path d="M336.595 61.7037C336.766 60.6682 337.001 60.0455 338.029 59.7704C338.496 59.6979 338.713 59.6871 338.916 59.9984C338.496 60.8203 338.087 61.3199 337.457 61.9136C337.008 62.0223 336.784 62.0295 336.595 61.7037Z" fill="#EAE7D9"/>
<path d="M337.095 61.8411C336.852 62.6991 336.342 63.5246 335.535 62.8693C334.796 62.2683 335.669 61.8701 336.382 61.4429C336.74 61.4682 336.849 61.5696 337.095 61.8411Z" fill="#EAE7D9"/>
<path d="M339.897 58.3945C340.046 57.3555 340.158 56.6495 341.299 56.4323C341.668 56.4866 341.78 56.5915 342.044 56.8812C341.787 57.5365 341.382 58.0107 340.755 58.5936C340.314 58.7095 340.089 58.7203 339.897 58.3945Z" fill="#EAE7D9"/>
<path d="M340.397 58.5322C340.133 59.173 339.727 59.6436 339.112 60.2193C338.793 60.2265 338.685 60.1324 338.428 59.8753C338.409 59.0101 338.612 58.362 339.684 58.1194C340.039 58.1593 340.147 58.2606 340.397 58.5322Z" fill="#EAE7D9"/>
<path d="M346.498 51.7942C346.664 50.7479 346.831 50.0782 347.931 49.8537C348.293 49.9008 348.402 49.9985 348.659 50.2737C348.398 50.9326 347.996 51.4177 347.37 52.0078C346.918 52.1237 346.689 52.1309 346.498 51.7942Z" fill="#EAE7D9"/>
<path d="M345.035 53.268C345.02 52.4063 345.259 51.7872 346.287 51.5121C346.646 51.5555 346.758 51.6569 347.008 51.9393C346.744 52.5873 346.342 53.0544 345.726 53.6228C345.408 53.6264 345.295 53.5287 345.035 53.268Z" fill="#EAE7D9"/>
<path d="M61.6003 177.944C61.499 176.083 61.7452 174.266 62.252 172.224C66.01 170.598 69.4928 169.154 73.0155 167.811C74.8365 167.119 77.0305 165.939 78.2035 168.513C79.4272 171.188 77.4215 172.506 75.2891 173.314C70.8794 174.979 66.5965 177.003 61.6003 177.944Z" fill="#FCFCFC"/>
<path d="M64.942 161.323C64.9203 159.375 65.2172 157.337 65.6697 154.998C68.1316 153.575 70.4089 152.435 72.5956 151.055C74.1705 150.063 76.4441 149.487 77.7547 151.529C79.1268 153.673 77.6533 154.893 75.7779 156.015C72.4037 158.043 69.0259 160.016 64.942 161.323Z" fill="#FCFCFC"/>
<path d="M406.172 153.555C414.68 156.448 422.684 160.09 430.117 164.952C443.679 173.822 454.642 185.114 462.679 199.23C468.573 209.581 472.566 220.659 473.634 232.455C474.974 247.233 472.689 261.44 460.916 271.903C457.027 275.356 456.531 277.941 457.404 282.843C460.311 299.157 462.324 315.63 461.752 332.287C461.604 336.556 462.462 340.759 462.469 345.046C462.487 357.109 454.508 365.711 442.984 366.424C441.322 366.529 439.718 367.271 437.705 367.054C435.193 368.723 432.615 368.202 430.24 367.905C426.192 367.394 422.148 367.336 418.101 367.42C410.154 367.579 402.978 365.208 396.527 360.729C388.54 355.186 385.365 346.954 385.119 337.696C384.873 328.359 384.949 319.004 384.265 309.689C383.207 295.319 384.058 280.878 382.407 266.534C382.009 263.072 382.281 259.557 382.317 255.756C382.429 248.681 382.063 241.929 381.835 234.891C383.044 231.991 385.506 230.655 387.545 228.939C397.128 220.88 404.358 211.214 408.554 199.317C409.535 196.533 409.282 194.325 407.381 192.163C406.639 191.32 406.023 190.364 405.252 189.546C402.685 186.83 402.026 183.833 402.392 179.991C403.094 172.617 404.057 165.271 404.756 157.896C404.897 156.448 405.169 155 406.172 153.555Z" fill="#F1EEE5"/>
<path d="M323 207.626C327.08 200.595 331.175 193.792 335.82 187.341C340.602 180.701 345.613 174.21 351.348 168.399C354.765 164.934 358.085 161.169 362.799 158.852C364.175 160.126 363.494 161.332 362.871 162.555C361.032 166.176 359.457 169.912 358.321 173.811C356.814 178.97 358.541 182.022 363.744 183.507C364.178 183.63 363.643 183.456 364.073 183.586C365.742 184.1 368.284 184.202 368.208 186.24C368.143 187.92 365.627 187.5 364.182 187.797C357.933 189.068 356.174 191.906 356.854 198.358C358.024 209.414 361.771 219.32 368.932 228.204C368.997 237.324 367.806 246.129 368.081 255.296C368.519 260.694 367.697 265.741 367.303 270.766C366.517 280.762 367.01 290.783 366.148 300.772C365.026 313.776 365.228 326.849 364.566 340.18C363.82 344.662 364.026 349.061 361.532 353.108C355.048 363.318 345.465 367.003 334.183 367.315C330.704 367.412 327.239 367.369 323.767 367.851C318.938 368.52 314.141 367.561 309.347 367.029C308.127 366.895 306.933 366.464 305.865 365.269C301.553 363.079 297.987 360.45 295.778 356.334C294.406 353.774 293.342 351.117 293.367 348.094C293.428 340.889 292.882 333.638 293.519 326.487C294.279 317.925 294.779 309.338 295.796 300.783C296.944 291.12 298.457 281.544 300.155 271.982C300.778 268.47 301.491 264.973 302.172 261.193C302.606 255.571 304.684 250.669 306.317 245.658C310.26 233.555 314.55 221.583 321.038 210.54C321.258 210.164 321.32 209.686 321.642 209.056C321.783 208.835 321.787 208.85 321.78 208.846C322.142 208.495 322.511 208.133 323 207.626Z" fill="#FCFBF9"/>
<path d="M363.447 341.711C363.588 334.84 364.146 328.004 364.327 321.162C364.848 301.155 365.656 281.167 366.988 261.201C367.1 259.521 367.071 257.826 367.155 255.835C368.472 254.278 370.116 254.398 371.658 254.47C375.34 254.637 379.077 253.826 382.943 255.299C383.312 270.15 384.692 284.73 384.786 299.378C384.869 312.531 385.93 325.673 386.154 338.848C386.383 352.153 395.669 362.174 408.608 365.146C417.956 367.293 427.409 366.243 437.104 367.007C447.56 385.757 457.697 404.457 467.889 423.127C468.421 424.101 468.526 424.995 468.461 426.277C467.614 428.637 465.579 429.264 463.801 430.151C457.737 433.174 451.304 435.208 444.552 437.105C436.75 438.604 430.338 436.055 424.705 431.258C417.572 425.187 411.352 418.236 405.69 410.792C397.168 399.587 389.554 387.803 383.197 375.222C381.828 372.51 380.612 369.733 379.373 366.688C375.348 357.265 371.821 347.938 369.66 338.142C369.461 337.229 369.53 335.734 368.414 335.633C367.393 335.542 367.129 337.008 366.528 337.79C365.547 339.076 365.58 341.099 363.447 341.711Z" fill="#579AA8"/>
<path d="M305.651 365.364C315.426 368.169 325.397 366.374 335.291 366.406C340.197 366.421 344.737 365.067 349.129 363.144C353.991 361.016 357.72 357.522 360.743 352.982C362.191 354.14 361.862 355.618 361.644 357.048C361.188 360.038 360.551 363.003 360.623 366.363C359.425 377.268 359.519 387.955 358.386 398.548C358.133 400.902 357.97 403.244 358.013 405.601C358.256 419.413 356.402 433.152 356.594 446.96C356.605 447.634 356.456 448.3 356.065 449.219C354.621 450.787 352.919 451.012 351.247 451.127C343.245 451.689 335.338 450.631 327.439 449.556C326.769 449.466 326.15 449.172 325.371 448.55C317.519 446.091 314.134 440.248 312.305 433.127C308.406 417.95 307.526 402.422 306.889 386.862C306.596 379.791 306.057 372.728 305.651 365.364Z" fill="#579AA8"/>
<path d="M325.049 448.542C332.554 449.107 339.922 450.334 347.409 450.201C349.867 450.157 352.307 450.124 354.968 449.516C356.902 450.374 356.529 451.985 356.554 453.354C356.634 457.716 356.757 462.09 356.536 466.445C356.232 472.459 354.23 477.607 348.053 480.54C346.218 481.115 344.636 481.054 343.064 481.054C324.166 481.061 305.271 481.075 286.372 481.036C284.291 481.032 282.028 481.466 280.225 479.269C277.368 476.322 278.422 473.516 279.631 470.627C281.217 466.847 284.378 465.37 288.067 465.164C292.882 464.896 297.73 465.2 302.556 465.051C309.062 464.852 315.075 463.259 319.68 458.212C322.186 455.475 323.865 452.286 325.049 448.542Z" fill="#CDE801"/>
<path d="M443.965 436.765C448.729 434.361 453.86 433.71 458.519 431.523C461.748 430.01 465.014 428.605 468.272 426.639C469.826 426.697 470.604 427.45 471.241 428.663C473.696 433.329 476.798 437.732 478.656 442.612C480.915 448.553 479.608 455.189 472.125 458.303C455.145 465.366 438.154 472.397 421.026 479.653C419.212 481.452 417.221 480.858 415.02 480.597C408.912 476.202 409.524 468.252 416.081 464.494C419.31 462.644 422.862 461.395 426.37 460.236C436.909 456.753 443.237 450.164 443.331 438.586C443.335 438.021 443.505 437.478 443.965 436.765Z" fill="#CDE801"/>
<path d="M321.581 208.944C321.711 212.611 319.177 215.374 317.718 218.563C312.106 230.833 307.559 243.475 303.993 256.483C303.609 257.884 303.037 259.231 302.364 260.763C294.768 255.35 288.606 248.518 282.701 241.462C279.113 237.176 275.956 232.531 272.43 228.19C270.399 225.688 269.259 223.176 270.529 219.707C277.665 220.945 286.984 214.595 288.382 207.275C288.566 206.301 288.472 205.258 289.261 204.244C295.3 208.198 301.198 212.202 306.958 216.398C311.331 219.584 312.016 219.649 315.68 215.627C317.631 213.48 319.481 211.243 321.581 208.944Z" fill="#F1EEE5"/>
<path d="M358.578 113.17C355.193 112.608 352.369 111.555 350.135 109.173C347.34 106.186 346.572 102.703 348.129 99.7596C350.063 96.1102 354.284 93.833 358.071 94.8069C360.688 95.4803 362.365 95.6504 364.425 93.0256C368.947 87.2728 377.567 88.8658 380.42 95.7482C381.006 97.1601 381.064 97.2941 382.396 96.6497C386.915 94.4666 389.822 95.5672 392.324 100.245C392.877 101.28 392.856 102.424 394.76 101.407C399.785 98.7278 405.592 102.906 406.258 108.774C406.87 114.151 404.34 118.419 400.35 121.583C398.58 122.988 398.138 124.291 398.091 126.268C398.033 128.625 397.7 130.978 397.432 133.625C396.299 133.958 395.709 133.241 395.397 132.394C393.261 126.572 388.768 125.338 383.24 126.069C381.412 126.308 379.547 126.634 379.058 123.774C378.906 122.55 378.961 121.602 378.95 120.367C378.859 119.527 378.838 118.966 378.761 118.416C378.157 114.086 377.936 113.988 373.465 113.836C368.588 113.666 363.668 114.437 358.578 113.17Z" fill="#111F22"/>
<path d="M275.87 183.272C276.156 179.796 277.774 176.95 279.182 174.123C280.272 171.936 279.7 170.857 278.114 169.717C261.287 157.621 263.502 129.907 283.885 121.493C298.016 115.657 314.228 121.044 320.422 136.735C326.226 151.43 319.467 167.262 304.789 173.192C301.035 174.709 297.056 175.571 292.969 175.017C289.848 174.594 288.132 175.607 287.69 178.855C287.517 180.129 286.738 181.324 286.148 182.812C282.814 184.991 279.454 184.358 275.87 183.272Z" fill="#111F22"/>
<path d="M414.535 479.776C416.678 479.884 418.506 479.866 420.61 479.855C445.105 479.899 469.326 479.913 493.546 480.007C495.154 480.015 497.884 479.008 497.996 481.568C498.119 484.381 495.364 484.008 493.369 484.008C412.594 484.011 331.816 484.011 251.041 484.015C250.476 484.015 249.911 483.975 249.354 484.019C247.634 484.156 246.617 482.904 246.588 481.673C246.555 480.272 248.068 479.96 249.408 479.964C256.504 479.975 263.604 480.047 270.7 479.931C273.701 479.884 276.757 480.543 279.895 479.225C281.362 479.728 282.723 479.96 284.225 479.957C305.202 479.91 326.175 479.913 347.441 479.91C349.976 479.106 352.289 478.831 354.679 478.834C372.654 478.867 390.629 478.852 408.604 478.849C410.512 478.849 412.428 478.802 414.535 479.776Z" fill="#DFE3F4"/>
<path d="M275.381 183.054C278.94 183.065 282.223 183.105 285.782 183.105C291.209 185.904 291.484 186.925 290.905 192.609C290.529 196.291 290.043 199.933 289.421 203.836C290.029 213.035 283.755 216.489 277.119 219.831C274.845 220.975 272.955 222.611 270.779 219.523C268.325 217.032 265.073 216.8 262.264 215.747C255.889 213.35 254.596 210.537 257.521 204.389C259.708 199.792 261.743 195.118 263.868 190.491C266.073 185.694 269.816 183.207 275.381 183.054Z" fill="#DBB385"/>
<path d="M379.612 123.376C379.681 125.982 381.231 125.428 382.711 125.244C387.251 124.679 391.715 124.632 394.673 128.973C395.647 130.403 396.208 132.112 397.171 133.806C396.86 139.501 396.675 145.098 396.91 151.014C398.011 153.016 398.047 154.67 396.523 156.473C395.194 157.125 394.068 157.154 392.946 157.158C387.005 157.172 381.064 157.06 375.148 157.806C373.827 157.972 372.455 157.885 370.865 157.27C370.025 156.636 369.881 156.014 370.054 155.011C370.228 154.424 370.286 154.145 370.384 153.66C372.303 150.902 375.445 150.681 378.001 149.392C381.169 147.795 383.645 145.743 384.435 142.126C384.572 141.499 384.844 140.667 383.964 140.453C383.323 140.297 383.142 141.054 382.9 141.55C380.369 146.72 376.216 148.939 369.967 148.237C368.139 147.868 366.68 148.595 365.167 148.961C361.134 149.939 359.7 148.867 359.649 144.722C359.635 143.596 359.667 142.47 359.725 141.05C360.384 140.138 361.622 140.211 361.771 139.15C361.927 138.042 360.833 138.103 359.997 137.647C357.618 136.786 355.352 137.307 353.129 137.111C350.591 136.887 350.16 135.812 351.728 133.9C354.052 131.069 356.438 128.285 358.885 125.276C360.113 124.056 361.029 124.625 361.869 125.504C362.336 125.993 362.607 126.627 362.962 127.199C364.124 129.063 365.475 130.855 367.926 130.66C370.362 130.464 371.426 128.451 372.361 126.493C374.24 122.554 374.764 122.293 379.612 123.376Z" fill="#DBB385"/>
<path d="M396.284 156.263C396.661 154.739 396.762 153.309 396.911 151.6C398.601 151.589 400.241 151.854 402.167 152.151C403.525 153.827 403.333 155.713 403.051 157.425C402.041 163.529 402.055 169.749 400.904 175.828C399.763 181.852 400.122 187.417 404.901 192C407.392 194.39 407.341 197.152 406.172 200.363C402.001 211.818 394.442 220.721 385.532 228.675C384.779 229.348 383.953 229.953 382.61 229.953C379.956 226.608 380.698 222.915 381.466 219.534C385.999 199.516 390.966 179.597 394.746 159.413C394.948 158.312 395.155 157.19 396.284 156.263Z" fill="#F1EEE5"/>
<path d="M369.942 154.725C370.272 155.221 370.366 155.731 370.521 156.502C371.988 158.79 371.687 161.111 371.387 163.291C370.822 167.436 370.797 171.585 370.891 175.737C371.249 191.921 369.088 208.024 369.486 224.207C369.515 225.33 369.399 226.459 368.443 227.618C363.241 222.987 360.489 216.97 358.292 210.566C356.749 206.069 356.539 201.366 355.718 196.772C354.697 191.052 358.031 187.833 365.399 186.573C366.173 186.439 367.107 186.964 367.723 186.077C366.963 185.632 366.239 185.096 365.428 184.774C364.823 184.531 364.099 184.607 363.444 184.47C358.136 183.355 355.515 178.619 357.408 173.511C358.99 169.25 360.192 164.822 362.832 161.006C363.11 160.604 362.977 159.913 363.038 159.094C364.798 156.712 367.136 155.539 369.942 154.725Z" fill="#F1EEE5"/>
<path d="M382.364 230.083C393.015 221.525 401.432 211.674 405.911 198.843C406.628 196.794 406.736 194.922 404.948 193.365C399.228 188.387 398.851 182.218 400.078 175.176C401.364 167.801 401.642 160.253 402.41 152.48C403.927 151.408 405.397 150.626 406.331 153.153C404.865 160.991 404.398 168.721 403.619 176.411C403.587 176.744 403.699 177.117 403.597 177.417C401.69 182.971 403.659 187.486 407.725 191.095C411.733 194.65 409.806 198.267 408.405 201.96C403.384 215.207 394.195 225.131 382.929 233.639C381.618 232.755 381.719 231.568 382.364 230.083Z" fill="#82ACB0"/>
<path d="M358.317 113.307C364.627 112.931 370.923 112.909 377.212 112.753C378.841 112.713 379.384 113.26 379.384 114.846C379.384 116.522 379.645 118.202 379.782 120.179C376.481 122.521 374.24 122.3 371.832 119.694C368.671 116.272 366.094 116.374 363.331 120.034C362.267 121.442 361.452 123.166 359.088 123.039C357.872 119.86 358.444 116.714 358.317 113.307Z" fill="#DBB385"/>
<path d="M358.791 123.122C360.772 122.974 361.485 121.678 362.285 120.229C365.127 115.107 369.301 115.063 372.802 119.856C374.547 122.246 377.074 120.624 379.522 120.537C379.797 121.33 379.822 122.181 379.833 123.285C379.033 123.567 378.247 123.669 377.473 123.607C375.311 123.444 373.838 123.691 373.28 126.435C372.744 129.063 371.017 131.42 367.944 131.695C364.881 131.967 363.548 129.548 362.191 127.351C361.536 126.294 361.456 124.581 359.24 125.055C358.885 124.494 358.795 123.915 358.791 123.122Z" fill="#CDE801"/>
<path d="M369.779 148.385C372.386 147.582 375.076 147.277 377.599 146.463C379.822 145.742 381.741 144.403 382.045 141.651C382.194 140.319 382.769 138.679 384.373 139.103C386.314 139.617 385.492 141.228 385.17 142.698C383.834 148.773 378.338 149.71 373.95 152.024C372.976 152.538 371.93 152.922 370.674 153.41C370.214 151.854 370 150.261 369.779 148.385Z" fill="#111F22"/>
<path d="M359.7 137.734C361.069 137.604 362.908 136.572 363.132 138.849C363.349 141.025 361.619 140.786 359.986 140.768C359.226 139.845 358.534 138.94 359.7 137.734Z" fill="#111F22"/>
<path d="M322.92 207.521C323.087 208.108 322.928 208.651 321.99 208.821C321.838 208.242 322.004 207.706 322.92 207.521Z" fill="#F1EEE5"/>
<path d="M382.461 229.573C382.566 230.956 382.577 232.078 382.661 233.468C382.921 240.785 383.106 247.831 383.243 255.195C378.07 255.513 372.947 255.517 367.513 255.52C366.702 246.433 367.911 237.411 368.204 228.074C368.7 218.484 368.534 209.157 369.026 199.835C369.772 185.697 370.007 171.531 370.521 157.063C379.008 156.433 387.429 155.865 396.215 156.144C394.391 166.621 392.298 177.091 390.017 187.522C388.547 194.252 386.657 200.888 385.224 207.622C383.703 214.769 380.749 221.749 382.461 229.573Z" fill="#111F22"/>
<path d="M433.003 231.586C427.369 238.425 423.278 245.999 418.669 253.221C415.556 258.098 412.898 263.264 410.046 268.308C409.55 269.184 409.198 270.158 408.612 270.965C408.127 271.638 407.551 272.627 406.461 272C405.516 271.457 405.531 270.541 405.987 269.644C407.605 266.458 409.177 263.246 410.882 260.107C412.41 257.287 414.09 254.554 415.701 251.527C415.545 250.376 416.03 249.724 416.74 248.935C420.498 246.31 421.33 241.814 424.165 238.87C429.719 233.106 429.426 226.945 427.127 219.78C424.339 211.087 422.634 202.051 419.98 193.286C419.669 192.25 419.147 190.61 420.773 190.089C422.431 189.557 422.862 191.063 423.162 192.239C424.791 198.593 426.211 205.005 427.995 211.315C429.107 215.24 429.541 219.374 431.696 223.197C432.365 224.258 432.706 225.225 433.267 226.333C433.321 227.198 433.321 227.85 433.321 228.747C433.451 229.808 433.52 230.616 433.003 231.586Z" fill="#FEFEFE"/>
<path d="M454.254 301.662C455.916 304.175 455.091 305.428 452.44 305.435C441.3 305.471 430.16 305.435 419.02 305.446C417.525 305.446 415.979 304.928 415.979 303.483C415.979 301.742 417.655 301.449 419.238 301.456C430.827 301.507 442.415 301.525 454.254 301.662Z" fill="#82ACB0"/>
<path d="M409.567 274.679C413.177 276.207 416.515 277.753 419.969 278.97C422.174 279.744 421.174 280.088 420.034 280.831C416.776 282.948 413.561 285.135 410.331 287.297C410.147 287.42 409.977 287.597 409.774 287.651C409.39 287.756 401.193 281.946 401.197 281.54C401.201 281.247 401.367 280.91 401.559 280.675C403.261 278.618 404.988 276.58 406.7 274.531C407.598 273.456 408.47 273.916 409.567 274.679Z" fill="#DBB385"/>
<path d="M416.768 248.605C416.732 249.572 416.7 250.434 415.805 251.111C411.866 251.1 412.583 247.541 411.903 245.51C409.046 237.006 406.736 228.324 404.083 219.747C403.601 218.19 403.445 217.01 405.165 216.587C406.78 216.188 407.29 217.264 407.732 218.788C410.599 228.69 413.63 238.548 416.768 248.605Z" fill="#82ACB0"/>
<path d="M433.093 231.828C432.861 230.938 432.868 230.094 433.1 229.124C438.074 229.124 442.405 231.144 446.984 232.082C451.774 233.063 456.444 234.62 461.176 235.894C462.262 236.187 463.236 236.767 463.001 237.911C462.755 239.12 461.701 239.674 460.398 239.323C451.369 236.864 442.22 234.848 433.093 231.828Z" fill="#82ACB0"/>
<path d="M433.625 226.495C431.366 226.398 432.032 224.852 431.909 223.541C439.744 222.397 447.513 221.47 455.286 220.543C456.495 220.399 457.596 220.449 457.708 222.05C457.78 223.074 457.484 223.628 456.256 223.766C448.806 224.602 441.366 225.54 433.625 226.495Z" fill="#82ACB0"/>
<path d="M360.008 366.623C359.019 361.997 361.221 357.869 360.978 353.221C361.872 349.372 363.889 346.023 363.118 341.9C365.178 339.956 365.254 337.081 367.104 335.271C367.799 334.59 368.226 333.222 369.294 333.5C370.311 333.768 369.576 335.061 369.801 335.872C371.962 343.695 374.033 351.544 377.143 359.068C378.077 361.323 378.964 363.597 379.931 366.109C379.605 366.786 379.134 367.145 378.57 367.174C372.462 367.467 366.347 368.043 360.008 366.623Z" fill="#F1EEE5"/>
<path d="M335.849 299.454C337.775 299.744 340.494 298.556 340.563 301.083C340.646 304.193 337.692 302.767 336.12 302.785C324.999 302.911 313.877 302.864 302.755 302.832C301.665 302.828 300.079 303.444 300.021 301.398C299.963 299.342 301.484 299.468 302.834 299.465C313.735 299.454 324.633 299.454 335.849 299.454Z" fill="#82ACB0"/>
<path d="M359.407 241.307C355.689 241.245 353.263 239.576 352.883 237.02C352.484 234.352 354.468 231.427 357.224 230.626C359.66 229.917 362.904 231.673 364.019 234.308C365.21 237.129 363.831 239.355 359.407 241.307Z" fill="#DBB385"/>
<path d="M351.406 296.844C349.461 293.516 350.008 290.91 352.832 289.168C355.544 287.496 358.74 288.147 360.478 290.725C361.832 292.734 361.246 296.695 359.124 297.941C356.503 299.479 353.824 299.519 351.406 296.844Z" fill="#DBB385"/>
<path d="M359.707 366.696C366.286 366.395 372.817 366.381 379.67 366.363C390.908 389.812 404.673 411.303 423.615 429.18C429.165 434.419 435.551 437.641 443.802 436.515C444.754 445.291 442.274 452.854 434.523 457.507C430.034 460.2 424.9 461.898 419.94 463.719C413.691 466.014 411.591 468.694 411.646 474.566C411.667 476.948 413.072 478.161 414.73 479.678C392.707 479.917 370.569 479.924 348.079 479.928C353.893 476.445 355.653 470.913 355.348 464.23C355.135 459.548 355.298 454.853 355.265 449.846C356.043 444.839 355.497 440.1 355.739 435.386C356.438 421.788 356.8 408.168 357.658 394.58C358.237 385.377 358.241 376.127 359.707 366.696Z" fill="#FEFEFE"/>
<path d="M273.067 150.5C270.83 134.849 283.617 123.611 297.27 125.081C307.016 126.127 315.817 134.24 316.425 145.163C317.015 155.793 312.653 163.327 303.012 167.671C289.088 173.945 274.208 163.453 273.067 150.5Z" fill="#FEFEFE"/>
<path d="M366.115 119.132C367.871 118.329 369.084 118.995 369.721 120.247C370.333 121.449 369.182 121.804 368.277 122.376C367.1 123.122 367.766 123.832 368.809 124.128C369.634 124.364 371.191 123.582 370.905 125.334C370.652 126.887 369.844 128.343 368.208 128.929C366.955 129.378 366.065 128.712 365.453 127.615C363.86 124.755 363.577 121.956 366.115 119.132Z" fill="#DBB385"/>
<path d="M359.87 234.565C360.826 236.223 360.467 237.389 358.798 237.766C357.589 238.041 356.941 237.284 356.967 236.035C357.01 234.087 358.172 233.979 359.87 234.565Z" fill="#FEFEFE"/>
<path d="M355.475 291.938C357.6 291.898 358.219 292.901 357.481 294.483C357.035 295.439 355.881 296.062 354.946 295.222C353.835 294.223 353.596 292.945 355.475 291.938Z" fill="#EDEBEB"/>
</svg>
