<svg width="942" height="1043" viewBox="0 0 942 1043" fill="none" xmlns="http://www.w3.org/2000/svg">
<path d="M831.51 623C831.13 623.21 830.86 623.52 830.46 625.09C828.68 638.7 827.18 651.15 825.56 663.59C824.63 670.7 823.72 677.82 822.35 684.85C821.72 688.08 820.02 691.09 818.42 693.52C816.98 687.78 815.22 682.75 815.01 677.66C814.4 662.69 815.59 647.57 813.91 632.75C810.83 605.56 816.66 579.35 820.24 552.84C821.44 543.92 822.73 535.01 823.73 526.07C823.89 524.64 822.73 523.07 822.17 521.56C821.1 522.83 819.87 524.01 819.03 525.42C818.59 526.15 818.89 527.3 818.76 528.24C817.02 541.14 815.11 554.02 813.54 566.95C811.46 583.97 807.84 601.05 808.09 618.06C808.6 652.77 811.24 687.45 813.04 722.14C813.5 731.04 815.17 730.53 804.75 731.31C788.86 732.51 772.92 733.07 757.04 734.33C753.35 734.62 749.8 736.66 746.19 737.89C750 738.45 753.83 739.66 757.6 739.47C777.33 738.48 797.04 737.14 816.88 736.73C817.5 741.32 818.23 745.09 818.45 748.89C820.5 784.45 822.45 820.01 824.47 855.56C825.84 879.69 826.94 903.85 828.94 927.93C829.47 934.36 828.75 936.03 821.99 935.93C799.4 935.57 776.81 935.98 753.32 935.98C751.26 935.96 750.09 936.05 748.15 935.91C735.59 935.94 723.8 936.2 711.14 936.32C709.13 936.34 707.99 936.5 706.26 936.35C704.35 935.94 703.02 935.84 701.75 935.62C701.81 935.51 701.59 935.39 701.66 934.76C701.61 933.3 701.49 932.47 701.47 930.95C701.39 929.36 701.2 928.46 701.12 927.02C700.81 925.51 700.39 924.53 700.04 922.7C699.56 914.24 699.26 906.62 698.41 899.05C696.51 881.95 694.18 864.91 692.33 847.81C690.3 829.04 688.73 810.21 686.73 791.43C684.88 774.08 682.87 756.74 680.56 739.44C680.14 736.31 677.93 733.41 676.69 729.66C678.04 724.57 680.66 720.1 680.25 715.93C677.28 685.62 673.69 655.36 670.37 624.62C670.22 623.51 669.8 623.06 669.22 621.92C665.95 587.77 662.64 554.49 659.4 520.43C657.51 502.96 655.57 486.26 653.71 468.76C653.61 464.82 653.18 461.67 653.32 458.55C653.44 455.88 653.36 452.54 654.85 450.71C659.78 444.64 665.39 439.11 670.86 434.18C671.67 443.22 672 451.51 673.2 459.68C673.71 463.15 675.5 466.75 677.65 469.58C681.84 475.09 687.91 473.21 693.58 472.59C714.46 470.3 735.33 467.95 756.23 465.85C781.24 463.34 806.26 460.96 831.31 458.81C835.18 458.48 839.17 459.66 843.27 461C843.47 477.35 843.36 492.84 843.63 508.32C843.71 512.64 844.92 516.94 845.56 522.1C844.1 534.83 842.92 546.74 841.23 558.58C838.13 580.06 834.76 601.52 831.51 623ZM748.42 545.81C742.05 555.88 735.69 565.96 729.3 576.03C719.37 591.66 716.38 587.65 708.39 576.04C698.61 561.83 690.09 546.75 681.03 532.04C676.91 525.36 672.91 518.6 668.61 512.03C668 511.09 666.01 511.05 664.66 510.6C664.56 511.99 663.95 513.62 664.46 514.73C665.76 517.54 667.54 520.13 669.17 522.79C681.09 542.29 692.74 561.95 705.02 581.22C713.34 594.27 722.95 594.19 731.14 581.46C742.52 563.79 753.68 545.98 764.84 528.18C767.65 523.7 770.22 519.07 772.67 514.38C773.14 513.49 772.47 512 772.32 510.79C771.15 511.4 769.48 511.7 768.88 512.67C762.22 523.26 755.73 533.96 748.42 545.81Z" fill="#79AEB9"/>
<path d="M845.59 521.23C844.9 516.92 843.69 512.62 843.61 508.3C843.34 492.82 843.45 477.33 843.6 460.34C845.64 454.27 849.2 449.65 849.07 445.14C848.27 416.81 847.62 388.42 845 360.24C842.98 338.53 838.14 317.09 834.53 295.53C833.07 286.8 831.93 278 830.03 269.37C825.42 248.53 822.05 227.14 807.86 209.88C803.27 204.29 798.28 199.04 793.47 193.63C795.34 188.73 797.22 183.84 799.08 178.94C807.34 157.21 821.74 142.28 844.53 135.31C880.44 124.34 914.18 140.02 930.92 170.47C938.18 183.67 941.05 198.04 941.11 212.49C941.55 310.83 941.34 409.17 941.33 507.51C941.33 517.41 941.28 517.46 931.45 517.47C906.55 517.5 881.64 517.42 856.74 517.56C853.78 517.58 850.82 518.67 847.22 520.2C846.25 521.16 845.92 521.2 845.59 521.23Z" fill="#254147"/>
<path d="M701.01 927.54C701.2 928.44 701.39 929.34 701.07 931.22C700.9 933.26 701.25 934.32 701.59 935.37C701.59 935.37 701.81 935.49 701.8 936.03C701.79 936.57 701.97 937.43 701.85 937.92C701.68 938.74 701.62 939.07 700.68 939.33C667.26 939.15 634.71 939.03 602.13 938.04C602.07 913.56 602.03 889.95 602.14 865.6C602.02 862.86 601.77 860.87 601.46 858.15C597.03 838.05 596.08 836.29 586.85 823.15C578.81 811.7 568.32 803.31 555.77 796.61C555.09 795.78 554.55 795.54 553.22 795.38C544.2 792.24 536.11 788.97 526.81 789.37C522.99 789.53 518.83 784.57 515.18 784.99C511.01 785.48 507.9 791.15 502.39 788.6C503.17 786.64 503.89 784.35 504.7 784.32C511.47 784.07 512.15 779.85 512.01 774.47C511.8 765.85 511.59 757.21 512.07 748.61C512.43 742.04 509.1 738.64 503.49 738.2C489.25 737.09 474.96 736.28 460.69 736.18C449.61 736.11 438.53 737.66 427.45 737.79C420.21 737.88 412.95 736.13 405.71 736.23C390.79 736.43 375.89 737.61 360.97 737.85C342.14 738.15 323.29 738.08 304.46 737.84C297.21 737.75 289.93 735.98 282.73 736.32C268.21 737.01 253.74 739.06 239.21 739.66C231.04 740 222.81 738.12 214.59 738.01C194.48 737.74 174.36 737.89 154.24 737.97C152.09 737.98 149.86 738.47 147.8 739.15C142.47 740.92 137.33 743.31 131.92 744.73C120.5 747.72 118.86 749.22 119.07 761.33C119.22 769.55 120.55 777.74 120.82 785.96C121.14 795.85 120.86 805.75 120.91 815.65C120.96 826.18 122.69 827.96 133.07 827.99C150.95 828.05 168.83 828.11 186.71 827.95C192.32 827.9 196.34 828.95 194.7 835.7C168.92 835.69 144.03 835.75 118.75 835.25C116.17 834.4 113.97 834.1 111.6 832.92C111.34 820.49 111.25 808.95 111.21 796.6C111.21 793.64 111.16 791.49 111.16 788.47C111.2 773.06 111.19 758.51 111.27 743.16C111.31 740.18 111.27 738 111.3 735.09C111.5 732.39 111.63 730.43 112.21 728.91C113.7 732.9 114.76 736.43 119.11 732.03C152.22 732.1 185.33 732.17 218.43 732.2C219.94 732.2 221.45 731.88 222.96 731.7C221.77 730.94 220.1 730.45 219.47 729.36C218.01 726.81 216.04 723.98 216.03 721.26C215.94 693.24 216.22 665.22 216.36 637.2C216.42 625.4 217.02 624.75 228.51 624.75C284.62 624.73 340.73 624.7 398.5 624.76C402.31 624.79 404.44 624.74 407.39 624.83C408.89 627.12 410.16 629.27 410.17 631.42C410.3 661.38 410.3 691.34 410.17 721.29C410.16 723.96 408.77 726.6 408.49 729.3C408.38 730.31 409.42 732.21 410.23 732.39C411.98 732.77 413.91 732.3 415.96 732.22C416.15 732.26 416.36 732.6 416.5 732.65C416.64 732.7 417.19 732.87 418.06 732.68C438.91 732.09 458.89 731.35 478.86 731.36C523.18 731.39 567.5 731.8 612.39 732.12C613.84 732.75 614.72 733.31 615.11 734.51C588.06 736.71 561.51 738.37 534.94 739.79C525.7 740.28 523.62 741.95 523.5 750.98C523.4 758.96 523.66 766.94 523.42 774.92C523.25 780.56 525.03 782.63 531.12 784.3C555.68 791 579.58 798.99 593.65 823.4C596.26 827.92 599.66 838.39 609.94 832.2C610.53 831.84 612.37 832.73 613.04 833.53C614 834.66 613.47 837.78 616.21 834.53C620.94 828.9 627.42 829.28 633.84 830.62C639.71 831.85 645.48 834.32 651.37 834.56C661.74 834.98 672.17 834.12 682.64 834.43C683.94 835.92 685.17 836.78 686.53 837.95C686.84 838.37 687.04 838.47 687.24 838.57C686.97 838.25 686.71 837.93 686.37 836.98C685.07 835.49 683.83 834.64 682.67 832.99C683.33 823.71 684.1 815.23 684.44 806.73C684.67 801.03 686.14 794.32 683.76 789.8C680.15 782.96 680.77 776.33 680.75 769.51C680.72 761.55 680.26 753.94 677.18 746.28C675.31 741.63 673.76 738.18 668.52 737.9C655.89 737.21 643.25 736.77 630.64 735.94C627.41 735.73 624.24 734.46 621.18 733.23C621.84 732.05 622.36 731.32 623.8 730.51C641.99 730.42 659.28 730.41 676.56 730.4C677.94 733.4 680.15 736.3 680.57 739.43C682.88 756.72 684.89 774.06 686.74 791.42C688.74 810.2 690.31 829.03 692.34 847.8C694.19 864.9 696.52 881.95 698.42 899.04C699.26 906.6 699.56 914.23 700.01 923.24C700.26 925.6 700.63 926.57 701.01 927.54ZM383.47 724.72C386.46 727.19 392.29 724.54 393.56 730.27C393.58 730.38 395.02 730.18 395.8 730.13C395.28 727.4 405.6 724.95 395.98 721.8C394.91 721.45 394.6 718.81 393.91 717.25C393.03 715.27 391.99 711.59 391.26 711.65C388.76 711.85 385.46 712.68 384.11 714.5C379 721.36 375.9 721.53 368.02 718.93C359.48 716.12 350.35 711.67 341.2 718.62C339.22 720.12 335.47 720.85 333.18 720.06C328.82 718.57 325.1 718.3 321.67 721.46C321.14 721.94 321.56 724.56 321.8 724.6C325.76 725.27 329.76 725.9 333.77 726.08C338.69 726.29 343.63 726.03 348.56 726.06C351.42 726.07 354.3 726.48 357.15 726.31C365.36 725.83 373.56 725.14 383.47 724.72ZM275.39 726.24C280.05 725.65 284.71 725.12 289.35 724.41C290.43 724.24 291.4 723.42 292.42 722.9C291.61 722.18 290.92 721.16 289.97 720.8C285.09 718.95 280.13 717.31 275.22 715.53C271.18 714.06 266.12 716.14 265.17 720.1C263.87 725.54 268.68 723.93 271.19 724.96C272.08 725.32 272.95 725.7 275.39 726.24ZM254.85 720.94C250.74 720.92 246.63 720.82 242.52 720.95C241.92 720.97 241.24 722.01 240.85 722.71C240.73 722.92 241.47 724.02 241.79 724.01C246.63 723.84 252 727.01 254.85 720.94ZM224.42 702.83C223.95 701.43 223.48 700.04 223.01 698.65C222.22 699.71 221.24 700.69 220.7 701.86C220.34 702.65 220.39 703.79 220.64 704.66C221.18 706.51 221.97 708.29 222.66 710.1C223.25 708.19 223.84 706.29 224.42 702.83ZM310.07 724.07C309.32 723.97 308.57 723.86 307.83 723.76C307.82 724.29 307.82 724.83 307.81 725.36C308.56 725.28 309.31 725.2 310.07 724.07ZM631.74 834.98L631.94 834.63C631.94 834.63 631.54 834.68 631.74 834.98ZM635.58 834.98L635.78 834.63C635.77 834.63 635.38 834.68 635.58 834.98Z" fill="#E0DBC7"/>
<path d="M792.85 193.44C798.28 199.04 803.27 204.3 807.86 209.89C822.05 227.15 825.42 248.54 830.03 269.38C831.94 278.01 833.08 286.81 834.53 295.54C838.13 317.1 842.98 338.54 845 360.25C847.63 388.44 848.28 416.83 849.07 445.15C849.2 449.66 845.63 454.27 843.42 459.48C839.14 459.64 835.14 458.46 831.28 458.79C806.24 460.94 781.21 463.32 756.2 465.83C735.3 467.93 714.43 470.27 693.55 472.57C687.88 473.19 681.81 475.07 677.62 469.56C675.47 466.73 673.68 463.13 673.17 459.66C671.97 451.49 671.64 443.2 671.13 433.54C687.19 412.92 703.51 394.04 718.85 374.39C731.4 358.31 741.28 340.6 742.11 319.44C742.46 310.66 741.83 301.85 741.77 292.24C740.46 280.77 740.41 269.69 737.31 259.54C730.53 237.38 718.47 218.41 698.8 204.99C694.82 202.28 691.52 198.58 687.9 195.34C693.5 192.15 699.15 189.05 704.64 185.68C705.89 184.91 707.19 183.27 707.37 181.89C707.78 178.79 707.5 175.6 707.91 171.26C708.71 169.47 709.09 168.88 710.14 168.01C712.33 167.34 713.84 166.73 715.38 166.58C730.29 165.18 745.21 163.86 760.13 162.52C765.65 169.56 764.28 177.11 756.98 179.96C755.55 180.52 754.14 181.15 752.72 181.75C751.91 182.09 751.09 182.41 750.28 182.74C751.05 183.2 751.78 183.94 752.61 184.08C754.31 184.37 756.52 185.07 757.72 184.33C768.25 177.78 776.51 183.45 784.9 188.95C787.28 190.49 789.79 191.82 792.85 193.44Z" fill="#E1FF01"/>
<path d="M427.67 519.62C427.65 467.63 427.79 415.63 427.56 363.64C427.44 335.52 447.12 314.69 470.4 307.76C493.23 300.96 511.97 306.93 529.8 320.38C530.69 321.05 531.77 321.46 532.76 321.98C532.87 321.04 533.06 320.09 533.06 319.15C533.09 311.04 532.74 302.91 533.15 294.82C534.19 274.08 533.15 252.62 543.25 233.78C548.95 223.14 557.19 213.21 566.27 205.23C574.86 197.68 585.79 192.56 596.2 187.41C602.01 184.53 608.83 182.45 615.25 182.3C632 181.93 649.03 179.99 665.34 185.89C670.34 187.7 675.09 190.21 679.86 193.54C673.55 195.69 667.07 195.9 661.16 197.84C634.86 206.46 616.76 223.68 607.69 250.13C601.76 267.42 600.35 285.41 600.37 303.37C600.39 320.94 600.06 338.19 591.99 354.77C591.17 356.17 590.86 357.27 590.01 358.69C582.92 366.67 576.56 374.5 569.77 381.93C561.68 390.78 552.88 398.99 545.01 408.03C538.37 415.66 529.97 422.69 530.29 434.74C529.24 438.99 527.27 443.97 528.93 446.85C532.57 453.14 538.05 458.37 542.5 464.6C536.61 469.07 531.49 474.28 525.29 476.55C517.72 479.32 509.24 479.53 501.18 481C475.04 485.75 467.17 495.96 465.35 517.73C464.43 518.34 464.13 518.87 463.17 519.78C455.93 519.95 449.53 519.86 442.72 519.13C438.66 518.88 435 519.27 430.75 519.86C429.32 519.91 428.49 519.77 427.67 519.62Z" fill="#254147"/>
<path d="M754.22 936.08C776.81 935.97 799.41 935.55 822 935.91C828.76 936.02 829.48 934.34 828.95 927.91C826.96 903.83 825.86 879.67 824.48 855.54C822.46 819.98 820.51 784.42 818.46 748.87C818.24 745.07 817.51 741.3 816.89 736.13C817.4 733.85 818.02 732.96 819.54 732.13C836.97 732.2 853.5 732.21 870.03 732.26C873.42 732.27 876.41 732.21 876.31 727.44C875.99 711.95 875.74 696.45 875.67 680.95C875.63 672.96 876.13 664.98 876.19 656.99C876.26 646.99 876.14 636.99 876.1 626.99C894.6 626.89 913.1 626.81 931.6 626.69C937.28 626.65 940.97 627.74 940.8 635.06C940.37 654.68 940.74 674.31 940.74 693.94C940.75 726.86 940.71 759.78 940.71 792.7C940.71 804.05 940.79 815.39 940.78 826.74C940.77 835.42 940.72 835.37 931.94 835.68C930.21 835.74 928.5 836.35 926.78 836.71C928.62 836.99 930.52 837.71 932.29 837.46C938.41 836.6 940.63 838.88 940.59 845.16C940.41 876.99 940.57 908.83 940.55 940.67C940.55 941.51 939.8 942.35 938.47 943.17C937.07 943.3 936.6 943.44 936.13 943.59C936.57 944.07 937.01 944.54 937.45 945.02C937.48 945.86 937.51 946.71 936.64 948.08C932.68 948.03 929.64 947.08 926.57 946.94C909.61 946.17 892.63 945.66 875.67 944.88C873.25 944.77 870.87 943.67 868.79 942.46C870.74 940.75 872.61 938.83 869.09 938.64C862.23 938.27 855.32 938.75 848.44 939.1C841.64 939.44 834.85 940.05 827.95 939.82C824.88 938.49 821.92 937.38 818.95 937.35C800.43 937.17 781.91 937.28 763.39 937.16C760.34 937.15 757.28 936.46 754.22 936.08ZM906.37 835.79C905.1 836.21 903.84 836.63 902.57 837.04C903.47 837.19 904.38 837.44 905.28 837.46C907.79 837.52 910.3 837.55 912.81 837.47C913.7 837.44 914.58 837.07 915.46 836.85C914.54 836.47 913.65 835.87 912.71 835.77C911.16 835.61 909.58 835.78 906.37 835.79ZM918.84 836.52C920.39 836.5 921.93 836.48 923.48 836.46C922.3 836.24 921.14 836.02 918.84 836.52Z" fill="#E0DBC7"/>
<path d="M443.12 519.77C449.52 519.87 455.92 519.96 463.64 519.96C465.29 519.84 465.62 519.83 466.2 520.49C466.93 523.94 466.89 526.96 468.02 529.46C469.64 533.07 471.33 537.41 474.33 539.5C487.79 548.84 502.6 545.13 508.15 529.79C509.12 527.11 512.33 523.96 514.99 523.44C522.03 522.03 529.35 522.07 536.53 521.28C541.16 520.77 545.74 519.83 551.22 519.22C562.43 520 572.77 521.08 583.11 521.18C608.51 521.43 633.91 521.23 659.31 521.2C662.62 554.48 665.92 587.76 668.3 621.97C631.4 622.9 595.43 622.99 559.46 622.74C556.08 622.72 552.07 621.25 549.48 619.1C545.48 615.78 544.07 617.64 542.56 620.99C542.62 620.97 542.7 620.87 541.92 621.05C533.67 621.82 526.21 622.85 518.73 622.93C489.01 623.24 459.28 623.25 428.69 623.22C420.73 623.61 413.65 624.16 406.56 624.71C404.42 624.76 402.29 624.81 399.35 624.78C393.14 624.12 387.74 623.28 382.31 623.04C372.22 622.59 369.96 620.65 369.93 610.7C369.86 584.55 369.88 558.4 370 532.24C370.04 523.41 373.28 520.35 382.06 520.32C396.68 520.26 411.31 520.26 426.79 519.93C428.47 519.78 429.3 519.93 431.55 520.06C436.38 519.95 439.75 519.86 443.12 519.77Z" fill="#7B786D"/>
<path d="M306.65 1042.62C270.86 1042.66 235.07 1042.71 198.4 1041.72C197.4 1009.48 197.3 978.27 197.23 946.45C196.71 944.89 196.15 943.93 195.74 942.09C195.97 906.56 196.05 871.9 196.8 836.91C200.27 836.28 203.08 835.72 205.88 835.72C239.51 835.67 273.14 835.7 306.78 836.6C306.73 905.87 306.69 974.24 306.65 1042.62Z" fill="#7B786D"/>
<path d="M195.59 942.97C196.15 943.93 196.7 944.89 196.71 946.99C196 979.56 195.83 1010.99 195.67 1042.42C173.35 1042.53 151.02 1042.71 128.7 1042.74C89.78 1042.8 50.86 1042.78 11.93 1042.76C1.64999 1042.75 0.12 1041.29 0.1 1031.37C0.05 1004.89 0.05 978.41 0.1 951.93C0.12 943.38 2.16 941.27 10.72 940.97C16.78 940.76 22.84 940.92 30.14 941.43C33.8 941.58 36.22 941.22 39.52 940.91C63.97 940.93 87.55 940.9 111.66 941.19C115.03 947.31 117.01 942.39 120.13 940.96C142.2 940.97 163.4 940.87 184.59 941.05C188.28 941.09 191.93 942.3 195.59 942.97Z" fill="#E0DBC7"/>
<path d="M444.66 806.09C444.75 810.63 448.14 811.6 451.61 812.63C470.77 818.34 485.68 829.45 494 847.93C497.99 856.8 500.72 866.02 500.65 876.26C500.27 931.13 500.48 986.01 500.49 1041.77C472.96 1042.66 445.41 1042.67 416.98 1041.77C416.1 983.91 416.16 926.97 416.01 870.03C415.99 864.74 414.59 859.45 413.84 853.63C414.05 852.41 414.24 851.73 415.08 850.94C419.23 848.64 418.73 846.1 416.45 842.82C417.03 840.73 417.52 839.23 418 837.3C417.98 836.87 418 836.02 418.45 835.86C418.9 835.7 419.85 835.68 420.33 835.4C421.12 834.46 421.43 833.8 421.73 832.48C427.77 821.82 434.34 812.29 444.66 806.09Z" fill="#254147"/>
<path d="M592.5 354.47C600.07 338.19 600.4 320.94 600.37 303.37C600.34 285.41 601.75 267.43 607.69 250.13C616.77 223.68 634.86 206.45 661.16 197.84C667.07 195.9 673.55 195.69 680.21 194.11C682.65 194.12 684.65 194.69 687.28 195.3C691.53 198.58 694.83 202.27 698.81 204.98C718.48 218.39 730.54 237.37 737.32 259.53C740.43 269.68 740.48 280.76 741.16 292.36C733.2 302.37 726.12 311.55 718.75 320.48C708.77 332.58 698.57 344.49 687.86 356.22C677.78 345.12 672.95 344.09 659.44 350.53C653.49 353.37 647.57 356.39 641.97 359.86C634.78 364.32 627.27 365.42 619.32 363.07C610.33 360.41 601.44 357.36 592.5 354.47Z" fill="#CBE0E4"/>
<path d="M868.49 943.02C870.89 943.66 873.27 944.76 875.69 944.88C892.65 945.66 909.63 946.17 926.59 946.94C929.67 947.08 932.71 948.03 936.53 948.7C938.33 955.2 940.18 961.61 940.25 968.02C940.49 990.46 939.56 1012.93 940.29 1035.34C940.53 1042.71 937.97 1042.86 932.46 1042.84C894.53 1042.68 856.6 1042.72 817.77 1041.69C816.84 1022.93 816.8 1005.19 817.44 987.32C826.72 988.47 830.58 985.72 830.64 977.56C830.72 966.07 830.37 954.58 831.08 942.9C844.14 942.83 856.31 942.92 868.49 943.02Z" fill="#E0DBC7"/>
<path d="M845.54 522.08C845.92 521.19 846.25 521.16 847.04 520.91C875.81 520.67 904.13 520.76 932.45 520.53C938.34 520.48 940.75 520.62 940.54 528.43C939.71 558.3 940.16 588.22 940.53 618.11C940.6 623.3 938.1 622.85 934.7 622.84C906.36 622.79 878.01 622.82 849.67 622.84C844.25 622.85 838.83 622.98 832.46 623.02C834.76 601.51 838.13 580.05 841.21 558.55C842.9 546.72 844.08 534.81 845.54 522.08Z" fill="#E0DBC7"/>
<path d="M410.45 1042.76C377.21 1042.76 343.98 1042.76 309.78 1041.81C308.82 1011.5 308.76 982.13 308.86 952.77C308.89 943.76 309.79 942.95 318.65 942.58C321.7 942.45 325.14 943.6 326.07 939.18C326.02 939.22 325.94 939.32 326.63 939.3C328.21 937.95 329.1 936.63 329.93 935.34C329.87 935.37 329.78 935.47 330.44 935.57C333.28 936.88 335.46 938.09 337.6 939.27C337.56 939.24 337.48 939.18 337.47 939.95C341.09 941.43 344.72 942.71 348.36 942.75C367.06 942.94 385.77 942.93 404.47 942.72C408.79 942.67 410.79 943.53 410.76 948.39C410.52 979.84 410.52 1011.3 410.45 1042.76Z" fill="#E0DBC7"/>
<path d="M119.28 940.95C117.03 942.4 115.05 947.32 111.75 940.33C111.29 927.02 111.06 914.89 111.4 902.78C111.53 898.06 110.01 896.91 105.49 896.96C85.4701 897.18 65.4401 897.2 45.4201 896.95C40.2801 896.88 38.1601 898.02 38.3801 903.68C38.8501 916.06 38.6101 928.47 38.6601 940.87C36.2401 941.23 33.8201 941.6 31.0301 941.37C30.7201 861.87 30.7801 782.97 30.8101 704.06C30.8301 651.67 30.8301 599.28 30.8301 546.88C30.8301 545.28 30.9001 543.68 30.8201 542.09C30.6501 538.94 30.9901 535.77 35.1301 536.91C36.6201 537.32 38.3801 540.23 38.3901 542.01C38.5901 570.44 38.4801 598.88 38.5401 627.31C38.5601 637.47 37.1001 636.25 47.8301 636.3C66.0401 636.38 84.2501 636.31 102.46 636.33C112.75 636.34 111.28 636.75 111.3 627.8C111.35 600.64 111.34 573.49 111.36 546.33C111.36 544.41 110.87 542.31 111.51 540.63C112.1 539.07 113.9 537.97 115.17 536.68C116.46 537.96 118.79 539.18 118.87 540.53C119.28 547.54 119.16 554.58 119.16 561.61C119.13 617.84 119.08 674.07 119.07 731.18C114.76 736.47 113.71 732.94 112.03 728.05C111.38 717.82 111.22 708.92 111.42 700.03C111.51 695.94 111.06 693.7 105.91 693.77C85.2601 694.08 64.6101 694 43.9601 693.84C39.8901 693.81 38.3701 694.98 38.4801 699.19C38.7801 711.57 38.7301 723.96 39.3101 736.87C57.9601 737.55 76.1101 737.77 94.2701 737.8C98.0001 737.81 101.73 737.09 106.19 736.64C108.36 736.34 109.8 736.1 111.25 735.86C111.29 738.03 111.32 740.21 110.41 743.1C88.0901 743.85 66.7101 744.05 45.3501 743.78C39.9201 743.71 38.2301 745.3 38.4501 750.71C38.8501 760.9 39.0201 771.15 38.4101 781.33C38.0301 787.69 40.3901 789.39 46.2201 789.35C67.8601 789.2 89.5001 789.34 111.13 789.38C111.18 791.53 111.23 793.68 110.36 796.55C88.0901 797.21 66.7501 797.23 45.4101 797.04C40.3501 796.99 38.1501 798.42 38.4201 804.04C38.9001 813.91 38.6101 823.82 38.4701 833.71C38.4201 837.28 38.6201 839.63 43.3901 839.58C64.4501 839.36 85.5101 839.32 106.56 839.64C111.4 839.71 111.43 837.01 111.79 833.84C113.99 834.14 116.2 834.43 118.72 836.17C119.1 872.04 119.19 906.49 119.28 940.95ZM108.01 889.34C109.1 888.17 111.12 887.01 111.14 885.82C111.38 874.34 111.14 862.85 111.35 851.37C111.43 847.06 108.9 846.85 105.87 846.86C85.1601 846.92 64.4401 847.1 43.7301 847C39.4401 846.98 38.3501 848.54 38.4401 852.58C38.6801 862.78 38.8201 873.01 38.3901 883.2C38.1701 888.44 40.0701 889.55 44.9001 889.5C65.3301 889.25 85.7501 889.38 108.01 889.34ZM81.6101 644C69.2001 644 56.7901 644.19 44.3901 643.91C39.8201 643.81 38.3201 645.14 38.4601 649.8C38.7701 660.29 38.6101 670.8 38.4701 681.3C38.4301 684.66 38.9801 686.39 43.1001 686.37C64.3801 686.24 85.6601 686.39 106.94 686.6C110.29 686.63 111.38 685.45 111.35 682.23C111.25 671.1 111.19 659.96 111.39 648.83C111.46 645.07 110.11 643.88 106.44 643.97C98.8001 644.17 91.1601 644.01 81.6101 644Z" fill="#485F61"/>
<path d="M816.77 987.45C816.8 1005.2 816.84 1022.94 816.9 1041.55C765.7 1042.51 714.46 1042.61 662.35 1041.72C661.48 1038.52 661.5 1036.3 661.48 1034.09C661.35 1009.76 681.94 985.06 708.33 987.06C745.08 987.23 780.93 987.34 816.77 987.45Z" fill="#485F61"/>
<path d="M707.43 987.01C681.94 985.07 661.35 1009.77 661.48 1034.1C661.49 1036.32 661.47 1038.53 661.46 1041.6C642.8 1042.56 624.15 1042.67 604.26 1041.95C603.12 1011.53 603.2 981.93 603.32 952.34C603.36 942.84 603.4 942.8 613.28 942.78C642.76 942.73 672.23 942.71 702.06 942.93C702.41 943.18 703.27 943.32 703.34 944.18C704.75 959.02 706.09 973.01 707.43 987.01Z" fill="#E0DBC7"/>
<path d="M684.77 61.3C683.81 60.6 682.81 59.95 681.89 59.2C680.16 57.77 678.48 56.29 676.77 54.82C678.91 54.4 681.53 54.61 683.07 53.42C685.17 51.8 686.91 49.32 687.97 46.86C690.91 40.01 692.44 32.36 696.28 26.11C708.29 6.60997 731.59 -2.26003 751.89 0.779966C777.51 4.60997 793.03 19.42 799.85 44.17C802.26 52.92 803.87 61.44 801.57 70.49C800.75 73.71 801.44 77.3 801.4 80.73C801.35 85.02 798.34 81.86 795.45 82.52C782.65 80.57 771.25 78.62 759.85 76.65C749.41 74.85 738.97 73.04 727.83 71.09C725.68 70.97 724.25 70.99 722.28 70.54C720.25 69.64 718.77 69.15 717.26 68.8C706.44 66.29 695.6 63.8 684.77 61.3Z" fill="#DBB385"/>
<path d="M875.4 626.6C876.14 637 876.26 647 876.19 657C876.13 664.99 875.63 672.97 875.67 680.96C875.74 696.46 875.99 711.95 876.31 727.45C876.41 732.23 873.41 732.28 870.03 732.27C853.5 732.22 836.96 732.21 819.5 731.36C818.65 718.42 818.73 706.31 818.81 694.21C820.02 691.1 821.72 688.08 822.35 684.86C823.72 677.83 824.63 670.71 825.56 663.6C827.18 651.16 828.68 638.71 830.42 625.41C842.96 624.63 855.3 624.64 867.63 624.85C870 624.89 872.34 625.73 875.4 626.6Z" fill="#7B786D"/>
<path d="M728.55 71.23C738.99 73.04 749.43 74.85 759.87 76.65C771.27 78.61 782.67 80.56 794.9 82.66C795.72 90.07 795.67 97.33 795.73 104.6C795.95 132.09 783.46 143.61 759.43 147.59C744.88 146.84 733.08 143.5 725.42 131.85C721.41 125.74 721.76 125.23 729.22 124.48C738.81 123.51 745.42 117.66 745.85 109.76C746.56 96.63 737.66 90.03 723.08 92.12C724.83 84.61 726.69 77.92 728.55 71.23Z" fill="#3B3A35"/>
<path d="M723.15 92.93C737.64 90.03 746.54 96.62 745.83 109.75C745.4 117.64 738.79 123.5 729.2 124.47C721.74 125.22 721.39 125.74 725.4 131.84C733.05 143.49 744.85 146.83 758.68 147.72C759.65 152.19 759.78 156.55 760.03 161.72C745.22 163.87 730.3 165.19 715.39 166.59C713.84 166.74 712.34 167.35 710.19 167.19C708.75 160.29 707.94 153.95 707.24 146.85C712.62 128.36 717.89 110.65 723.15 92.93Z" fill="#DBB385"/>
<path d="M707.13 147.61C707.94 153.95 708.76 160.29 709.53 167.45C709.11 168.88 708.72 169.47 707.93 170.42C701.82 170.68 696.12 170.72 690.42 170.5C666.17 169.56 662.25 154.33 666.4 135.95C668.32 127.44 671.22 119.13 672.84 110.58C674.28 102.97 678.4 105.68 683.39 108.04C683.55 123.55 690.39 134.65 700.48 144.81C700.52 147.72 700.77 149.96 701.02 152.19C702.54 150.96 704.04 149.7 705.58 148.5C706.04 148.12 706.61 147.9 707.13 147.61Z" fill="#3B3A35"/>
<path d="M700.7 144.11C690.4 134.63 683.56 123.54 684.1 108.1C683.92 96.7197 685 86.3197 689.28 75.4897C694.95 76.0997 699.99 76.9797 704.52 78.9997C708.94 80.9697 712.85 84.0897 716.67 87.2897C711.97 91.8797 713.78 97.1297 713.43 101.98C712.32 116.97 708.79 131.24 700.7 144.11Z" fill="#DBB385"/>
<path d="M411.15 1042.79C410.52 1011.3 410.51 979.84 410.75 948.39C410.79 943.53 408.78 942.67 404.46 942.72C385.76 942.93 367.05 942.94 348.35 942.75C344.71 942.71 341.08 941.43 338.34 939.77C360.92 938.91 382.61 938.78 404.29 939.25C410.22 939.38 410.92 936.9 410.89 932.06C410.76 912.31 410.68 892.55 411.07 872.8C411.19 866.57 412.87 860.38 413.83 854.16C414.59 859.45 416 864.74 416.01 870.03C416.17 926.97 416.1 983.91 416.09 1041.73C414.67 1042.67 413.26 1042.75 411.15 1042.79Z" fill="white"/>
<path d="M701.72 942.68C672.24 942.71 642.77 942.73 613.29 942.79C603.41 942.81 603.37 942.85 603.33 952.35C603.21 981.94 603.13 1011.53 603.35 1041.98C602.88 1042.81 602.09 1042.79 600.71 1042.72C600.13 1012.67 600.08 982.67 600.23 952.67C600.25 948.62 601.35 944.57 602.05 939.72C634.7 939.03 667.25 939.15 700.77 939.71C701.74 940.15 701.83 940.93 701.78 941.37C701.74 941.8 701.72 942.68 701.72 942.68Z" fill="white"/>
<path d="M400.58 59.4102C401.88 60.9802 402.6 62.4201 402.68 63.9001C402.93 68.3201 401.31 74.0902 403.52 76.7702C405.47 79.1302 411.69 77.6501 415.84 78.6201C417.68 79.0501 419.08 81.3501 420.68 82.7901C419.13 83.9301 417.58 85.0902 416 86.1902C415.79 86.3402 415.38 86.1902 415.06 86.2202C411.07 86.6002 405.96 85.6801 403.47 87.8102C401.53 89.4701 403.3 95.0401 402.59 98.7001C402.14 101.01 400.49 104.46 398.78 104.87C394.32 105.93 395.2 101.85 394.93 99.1902C394.87 98.5602 394.93 97.9202 394.91 97.2802C394.69 86.3602 394.69 86.3602 383.97 86.2102C382.07 86.1802 379.88 86.6502 378.35 85.8602C377.12 85.2302 376.16 83.1002 376.05 81.5602C375.99 80.6101 377.97 78.5301 378.67 78.6801C393.87 81.9101 397 74.0502 395.27 61.2102C395.21 60.7802 398.16 59.9502 400.58 59.4102Z" fill="#7B786D"/>
<path d="M122.88 425.09C123.08 429.1 122.77 432.26 118.61 431.01C117.07 430.55 115.8 427.95 115.17 426.07C114.59 424.36 115.04 422.31 115.03 420.4C114.99 404.45 114.99 404.45 99.4998 404.4C97.9098 404.4 96.2998 404.2 94.7498 404.43C90.6098 405.04 90.1998 402.63 89.9798 399.38C89.7498 395.96 91.1198 394.96 94.2898 395.02C100.63 395.15 107 394.68 113.31 395.15C121.13 395.73 122.75 397.88 122.85 406.09C122.93 412.13 122.88 418.16 122.88 425.09Z" fill="#7B786D"/>
<path d="M716.97 86.7098C712.84 84.0898 708.93 80.9698 704.51 78.9998C699.97 76.9898 694.93 76.0998 689.42 74.7398C687.32 70.7798 685.91 66.8098 684.63 62.0698C695.59 63.7998 706.43 66.2898 717.25 68.8098C718.76 69.1598 720.25 69.6498 722.28 71.2798C720.87 77.2198 718.92 81.9598 716.97 86.7098Z" fill="#3B3A35"/>
<path d="M326.11 939.13C325.14 943.59 321.69 942.45 318.64 942.57C309.77 942.94 308.88 943.75 308.85 952.76C308.76 982.12 308.81 1011.48 308.9 1041.72C308.6 1042.6 308.21 1042.61 307.23 1042.62C306.69 974.24 306.73 905.87 307.48 836.43C309.13 835.49 310.12 835.49 310.98 835.81C311.19 835.89 311.14 837.05 311 837.66C310.36 840.59 309.07 843.5 309.06 846.43C308.96 871.5 309.09 896.58 309.15 921.65C309.16 927.36 306.99 935.05 309.83 938.21C312.42 941.09 320.47 939.02 326.11 939.13Z" fill="white"/>
<path d="M196.13 1042.53C195.83 1010.99 195.99 979.55 196.67 947.59C197.29 978.27 197.39 1009.48 197.51 1041.57C197.52 1042.44 196.59 1042.64 196.13 1042.53Z" fill="#E0DBC7"/>
<path d="M688.48 356.49C698.58 344.5 708.78 332.59 718.76 320.49C726.13 311.56 733.2 302.38 741.04 293.18C741.85 301.85 742.48 310.66 742.13 319.44C741.3 340.6 731.42 358.3 718.87 374.39C703.53 394.04 687.22 412.92 671.02 432.75C665.37 439.1 659.77 444.63 654.84 450.7C653.35 452.53 653.43 455.87 653.31 458.54C653.17 461.66 653.61 464.81 653.16 469.04C645.36 478.16 638.51 486.48 630.97 494.13C621.93 503.29 610.99 504.93 599.73 498.97C591.67 494.7 584.03 489.62 575.74 484.37C564.45 477.24 553.63 470.64 542.81 464.04C538.08 458.38 532.59 453.15 528.95 446.86C527.29 443.98 529.26 439 531.01 434.98C541.21 438.49 549.86 441.69 559.45 443.36C577.32 446.48 593.51 442.82 608.75 434.73C617.54 430.06 625.15 423.08 633.02 416.8C652.02 401.67 668 383.64 683.19 364.05C685.33 361.34 686.9 358.91 688.48 356.49Z" fill="#8EBBC5"/>
<path d="M676.68 729.63C659.26 730.39 641.97 730.39 623.15 730.17C617.33 727.01 617.23 722.66 617.44 718.1C617.77 710.87 618.01 703.63 618.13 696.39C618.5 674.84 618.93 653.28 619 631.72C619.02 627.02 621.21 626.69 624.82 626.72C636.27 626.83 647.73 626.89 659.18 626.67C662.89 626.6 666.59 625.61 670.29 625.04C673.68 655.31 677.26 685.57 680.24 715.88C680.65 720.07 678.04 724.55 676.68 729.63Z" fill="#7B786D"/>
<path d="M576.19 484.89C584.02 489.61 591.65 494.68 599.71 498.95C610.97 504.91 621.91 503.27 630.95 494.11C638.49 486.46 645.34 478.14 653.05 469.82C655.54 486.22 657.49 502.92 659.38 520.39C633.92 521.19 608.51 521.39 583.12 521.15C572.78 521.05 562.44 519.96 551.22 518.53C552.04 515.56 553.74 513.39 555.44 511.22C562.36 502.46 569.28 493.68 576.19 484.89Z" fill="#254147"/>
<path d="M818.41 693.51C818.72 706.3 818.65 718.41 818.6 731.29C818.01 732.96 817.39 733.85 816.75 735.33C797.02 737.13 777.31 738.47 757.58 739.46C753.81 739.65 749.97 738.44 746.17 737.88C749.78 736.65 753.33 734.61 757.02 734.32C772.9 733.06 788.84 732.5 804.73 731.3C815.15 730.51 813.48 731.03 813.02 722.13C811.22 687.44 808.58 652.76 808.07 618.05C807.82 601.04 811.45 583.96 813.52 566.94C815.1 554.02 817 541.14 818.74 528.23C818.87 527.28 818.57 526.14 819.01 525.41C819.85 524 821.08 522.82 822.15 521.55C822.7 523.06 823.87 524.63 823.71 526.06C822.71 535 821.42 543.91 820.22 552.83C816.64 579.34 810.82 605.56 813.89 632.74C815.57 647.56 814.38 662.69 814.99 677.65C815.21 682.75 816.97 687.77 818.41 693.51Z" fill="#485F61"/>
<path d="M748.8 545.23C755.72 533.97 762.22 523.26 768.87 512.66C769.48 511.69 771.14 511.39 772.31 510.78C772.46 511.99 773.12 513.48 772.66 514.37C770.22 519.06 767.64 523.69 764.83 528.17C753.67 545.97 742.51 563.78 731.13 581.45C722.93 594.18 713.33 594.26 705.01 581.21C692.73 561.95 681.07 542.28 669.16 522.78C667.54 520.12 665.75 517.53 664.45 514.72C663.94 513.61 664.55 511.98 664.65 510.59C666 511.04 667.99 511.08 668.6 512.02C672.9 518.59 676.91 525.34 681.02 532.03C690.08 546.74 698.6 561.81 708.38 576.03C716.37 587.65 719.36 591.66 729.29 576.02C735.69 565.97 742.05 555.89 748.8 545.23Z" fill="#485F61"/>
<path d="M670.36 624.59C666.59 625.62 662.9 626.61 659.18 626.68C647.73 626.9 636.27 626.84 624.82 626.73C621.21 626.7 619.02 627.03 619 631.73C618.93 653.29 618.5 674.84 618.13 696.4C618.01 703.64 617.77 710.87 617.44 718.11C617.23 722.67 617.33 727.02 622.25 730.27C622.36 731.31 621.83 732.05 620.5 733.32C618.33 733.87 616.96 733.87 615.6 733.87C614.72 733.31 613.84 732.75 612.64 731.4C613.37 728.73 615.33 726.85 615.34 724.96C615.52 694.39 615.3 663.81 615.59 633.24C615.65 627.42 613.48 626.54 608.45 626.65C595.09 626.94 581.72 626.83 568.35 626.65C560.5 626.54 551.97 629.12 545.67 621.58C545.14 620.95 543.6 621.17 542.53 621C544.09 617.62 545.51 615.76 549.51 619.08C552.1 621.23 556.11 622.69 559.49 622.72C595.46 622.97 631.43 622.88 668.3 622.82C669.79 623.03 670.21 623.48 670.36 624.59Z" fill="white"/>
<path d="M701.84 940.92C701.84 940.92 701.75 940.15 701.66 939.77C701.62 939.06 701.68 938.73 702.37 937.9C704.29 937.14 705.57 936.89 706.85 936.64C708 936.48 709.14 936.33 711.72 936.68C725.08 936.83 737 936.48 748.93 936.13C750.1 936.04 751.27 935.94 753.33 935.97C757.29 936.47 760.35 937.15 763.42 937.17C781.94 937.29 800.46 937.18 818.98 937.36C821.95 937.39 824.91 938.49 827.12 939.99C784.85 940.89 743.35 940.9 701.84 940.92Z" fill="white"/>
<path d="M748.15 935.89C737 936.47 725.07 936.83 712.57 936.81C723.8 936.18 735.59 935.92 748.15 935.89Z" fill="#E0DBC7"/>
<path d="M706.26 936.33C705.56 936.89 704.28 937.14 702.48 937.41C701.96 937.43 701.79 936.57 701.74 936.14C703.02 935.82 704.35 935.92 706.26 936.33Z" fill="#E0DBC7"/>
<path d="M701.11 926.99C700.63 926.56 700.26 925.59 699.92 924.07C700.39 924.5 700.8 925.48 701.11 926.99Z" fill="#E0DBC7"/>
<path d="M701.66 934.74C701.24 934.31 700.9 933.26 700.96 931.91C701.48 932.44 701.61 933.27 701.66 934.74Z" fill="#E0DBC7"/>
<path d="M326.06 939.17C320.47 939.02 312.42 941.09 309.83 938.22C306.98 935.07 309.16 927.38 309.15 921.66C309.09 896.59 308.96 871.51 309.06 846.44C309.07 843.52 310.36 840.6 311 837.67C311.13 837.05 311.19 835.9 310.98 835.82C310.11 835.5 309.13 835.5 307.47 835.55C273.13 835.71 239.5 835.68 205.87 835.73C203.07 835.74 200.26 836.29 196.59 836.58C195.72 836.57 195.58 835.79 195.58 835.79C196.34 828.96 192.32 827.91 186.71 827.96C168.83 828.12 150.95 828.06 133.07 828C122.69 827.97 120.96 826.18 120.91 815.66C120.86 805.76 121.14 795.86 120.82 785.97C120.55 777.75 119.22 769.56 119.07 761.34C118.86 749.23 120.5 747.73 131.92 744.74C137.33 743.32 142.47 740.92 147.8 739.16C149.85 738.48 152.08 737.99 154.24 737.98C174.35 737.89 194.47 737.75 214.59 738.02C222.8 738.13 231.04 740.01 239.21 739.67C253.74 739.07 268.2 737.02 282.73 736.33C289.93 735.99 297.21 737.76 304.46 737.85C323.3 738.09 342.14 738.16 360.97 737.86C375.89 737.62 390.79 736.44 405.71 736.24C412.95 736.14 420.21 737.89 427.45 737.8C438.54 737.67 449.62 736.11 460.69 736.19C474.97 736.28 489.26 737.1 503.49 738.21C509.1 738.65 512.43 742.05 512.07 748.62C511.6 757.22 511.8 765.86 512.01 774.48C512.14 779.86 511.47 784.09 504.7 784.33C503.89 784.36 503.17 786.65 502.39 788.61C501.52 789.4 500.66 789.47 499.15 788.67C493.92 782.1 483.78 782.84 477.45 789.34C466.77 794.62 456.1 799.9 445.03 805.65C434.33 812.32 427.75 821.85 421.26 832.81C420.49 834.42 420.16 835.06 419.83 835.7C419.83 835.7 418.88 835.72 417.54 835.78C404.75 835.78 393.29 835.7 381.83 835.68C369.11 835.66 356.39 835.56 343.68 835.8C341.25 835.85 336.47 833.57 337.47 839.62C337.51 839.56 337.63 839.49 336.88 839.19C334.04 839.1 331.96 839.3 329.82 838.82C328.1 837.51 326.43 836.89 324.77 836.27C326.19 837.77 327.61 839.26 329.37 841.49C329.73 873.31 329.74 904.4 329.74 935.49C329.74 935.49 329.83 935.39 329.2 935.12C327.68 936.34 326.79 937.84 325.91 939.34C325.93 939.31 326.01 939.21 326.06 939.17Z" fill="#E0DBC7"/>
<path d="M542.57 620.98C543.59 621.18 545.13 620.96 545.66 621.59C551.95 629.14 560.48 626.55 568.34 626.66C581.71 626.84 595.08 626.95 608.44 626.66C613.48 626.55 615.64 627.43 615.58 633.25C615.29 663.82 615.51 694.4 615.33 724.97C615.32 726.86 613.36 728.73 612.06 731.34C567.49 731.81 523.17 731.4 478.85 731.37C458.88 731.36 438.9 732.1 417.82 732.69C416.71 732.89 416.35 732.6 416.35 732.6C416.35 732.6 416.14 732.26 415.48 731.56C414.32 729.38 413.4 727.9 413.4 726.42C413.43 698.13 413.56 669.84 413.72 641.54C413.75 636.53 412.12 629.6 414.71 627.01C417.63 624.09 424.46 625.07 430.46 624.53C447.59 624.74 463.84 624.81 480.1 624.82C498.92 624.82 517.74 624.85 536.56 624.63C538.93 624.6 543.79 627.12 542.72 620.86C542.71 620.86 542.63 620.95 542.57 620.98Z" fill="#7B786D"/>
<path d="M615.1 734.51C616.95 733.87 618.31 733.86 620.35 733.76C624.22 734.44 627.39 735.71 630.62 735.92C643.24 736.75 655.88 737.19 668.5 737.88C673.75 738.17 675.29 741.61 677.16 746.26C680.24 753.92 680.7 761.53 680.73 769.49C680.75 776.31 680.13 782.94 683.74 789.78C686.12 794.3 684.65 801 684.42 806.71C684.08 815.21 683.31 823.7 682.64 832.98C682.56 833.77 682.55 833.78 682.55 833.78C672.15 834.1 661.72 834.96 651.35 834.54C645.46 834.3 639.69 831.83 633.82 830.6C627.4 829.26 620.92 828.88 616.19 834.51C613.45 837.77 613.98 834.65 613.02 833.51C612.34 832.71 610.51 831.82 609.92 832.18C599.64 838.37 596.23 827.9 593.63 823.38C579.55 798.97 555.66 790.98 531.1 784.28C525.01 782.62 523.23 780.54 523.4 774.9C523.64 766.93 523.38 758.94 523.48 750.96C523.6 741.93 525.67 740.27 534.92 739.77C561.5 738.37 588.06 736.71 615.1 734.51Z" fill="#E0DBC7"/>
<path d="M194.71 835.71C195.59 835.78 195.73 836.57 195.93 836.91C196.05 871.91 195.96 906.56 195.74 942.09C191.94 942.3 188.28 941.09 184.62 941.05C163.43 940.87 142.23 940.97 120.16 940.96C119.2 906.49 119.11 872.04 119.09 836.7C144.03 835.76 168.93 835.7 194.71 835.71Z" fill="#FDFDFD"/>
<path d="M111.16 788.49C89.4799 789.33 67.8399 789.19 46.1999 789.33C40.3699 789.37 38.0099 787.67 38.3899 781.31C38.9999 771.14 38.8299 760.89 38.4299 750.69C38.2199 745.28 39.8999 743.69 45.3299 743.76C66.6899 744.03 88.0699 743.83 110.31 743.89C111.19 758.53 111.2 773.07 111.16 788.49Z" fill="#FDFDFD"/>
<path d="M38.8 736.32C38.71 723.94 38.77 711.55 38.47 699.17C38.37 694.96 39.88 693.79 43.95 693.82C64.6 693.98 85.25 694.06 105.9 693.75C111.05 693.67 111.5 695.92 111.41 700.01C111.21 708.9 111.37 717.8 111.57 727.59C111.62 730.44 111.49 732.4 111.29 735.1C109.78 736.08 108.34 736.32 105.31 736.39C82.09 736.26 60.45 736.29 38.8 736.32Z" fill="#FDFDFD"/>
<path d="M111.6 832.94C111.41 836.99 111.38 839.69 106.54 839.62C85.49 839.31 64.42 839.35 43.37 839.56C38.61 839.61 38.41 837.26 38.45 833.69C38.59 823.8 38.88 813.89 38.4 804.02C38.13 798.4 40.33 796.97 45.39 797.02C66.73 797.21 88.07 797.19 110.28 797.33C111.25 808.97 111.34 820.51 111.6 832.94Z" fill="#FDFDFD"/>
<path d="M382.62 724.63C373.56 725.14 365.36 725.83 357.15 726.31C354.3 726.48 351.43 726.07 348.56 726.06C343.63 726.03 338.69 726.29 333.77 726.08C329.76 725.9 325.77 725.27 321.8 724.6C321.55 724.56 321.14 721.94 321.67 721.46C325.1 718.3 328.82 718.57 333.18 720.06C335.47 720.85 339.22 720.12 341.2 718.62C350.35 711.67 359.48 716.11 368.02 718.93C375.9 721.52 379 721.36 384.11 714.5C385.46 712.68 388.77 711.85 391.26 711.65C391.99 711.59 393.03 715.27 393.91 717.25C394.6 718.81 394.91 721.45 395.98 721.8C405.6 724.96 395.28 727.4 395.8 730.13C395.02 730.18 393.59 730.38 393.56 730.27C392.29 724.54 386.46 727.2 382.62 724.63Z" fill="#E0DBC7"/>
<path d="M429.57 624.36C424.44 625.07 417.62 624.09 414.69 627.01C412.1 629.6 413.73 636.53 413.7 641.54C413.54 669.83 413.42 698.12 413.38 726.42C413.38 727.9 414.3 729.38 415.27 731.52C413.88 732.3 411.95 732.77 410.21 732.39C409.41 732.22 408.37 730.31 408.47 729.3C408.76 726.6 410.14 723.96 410.15 721.29C410.28 691.33 410.28 661.38 410.15 631.42C410.14 629.26 408.86 627.11 407.37 624.83C413.65 624.15 420.73 623.6 428.7 623.46C429.59 623.86 429.57 624.36 429.57 624.36Z" fill="#D4D4D4"/>
<path d="M274.61 726.16C272.95 725.7 272.08 725.32 271.2 724.96C268.69 723.94 263.88 725.54 265.18 720.1C266.13 716.14 271.19 714.06 275.23 715.53C280.14 717.31 285.09 718.95 289.98 720.8C290.93 721.16 291.62 722.18 292.43 722.9C291.41 723.42 290.43 724.24 289.36 724.41C284.71 725.13 280.05 725.65 274.61 726.16Z" fill="#E0DBC7"/>
<path d="M255.46 721.39C252 727.01 246.63 723.84 241.79 724C241.47 724.01 240.73 722.92 240.85 722.7C241.24 721.99 241.92 720.95 242.52 720.94C246.63 720.81 250.74 720.91 255.46 721.39Z" fill="#E0DBC7"/>
<path d="M224.42 703.6C223.84 706.28 223.25 708.19 222.66 710.1C221.97 708.29 221.18 706.51 220.64 704.66C220.39 703.79 220.34 702.65 220.7 701.86C221.24 700.68 222.22 699.71 223.01 698.65C223.48 700.04 223.95 701.44 224.42 703.6Z" fill="#E0DBC7"/>
<path d="M602.14 865.59C601.55 864.14 601.1 861.93 601.08 859.3C601.77 860.87 602.03 862.86 602.14 865.59Z" fill="#254147"/>
<path d="M686.4 837.62C685.17 836.76 683.93 835.9 682.63 834.41C682.57 833.78 682.58 833.77 682.58 833.77C683.82 834.62 685.06 835.48 686.35 836.98C686.41 837.61 686.4 837.62 686.4 837.62Z" fill="#E0DBC7"/>
<path d="M310.07 724.59C309.31 725.19 308.57 725.28 307.81 725.36C307.82 724.83 307.82 724.29 307.83 723.76C308.58 723.87 309.32 723.97 310.07 724.59Z" fill="#E0DBC7"/>
<path d="M416.48 732.65C416.34 732.6 416.71 732.88 416.94 732.88C417.17 732.88 416.62 732.7 416.48 732.65Z" fill="#D4D4D4"/>
<path d="M555.78 796.61C555.44 796.81 554.87 796.62 554.12 795.98C554.57 795.54 555.1 795.77 555.78 796.61Z" fill="#E0DBC7"/>
<path d="M631.64 834.83C631.54 834.68 631.94 834.63 631.94 834.63C631.94 834.63 631.74 834.98 631.64 834.83Z" fill="#E0DBC7"/>
<path d="M635.48 834.83C635.38 834.68 635.78 834.63 635.78 834.63C635.78 834.63 635.58 834.98 635.48 834.83Z" fill="#E0DBC7"/>
<path d="M686.42 837.6C686.69 837.92 686.96 838.24 687.23 838.56C687.03 838.46 686.83 838.35 686.52 837.94C686.4 837.62 686.41 837.61 686.42 837.6Z" fill="#E0DBC7"/>
<path d="M682.62 364.35C668 383.64 652.02 401.67 633.02 416.8C625.14 423.07 617.54 430.06 608.75 434.73C593.51 442.82 577.32 446.48 559.45 443.36C549.86 441.69 541.22 438.49 531.74 434.76C529.99 422.7 538.39 415.67 545.03 408.04C552.9 399.01 561.7 390.79 569.79 381.94C576.58 374.51 582.94 366.68 590.66 358.96C599.95 362.31 607.82 366.82 616.28 368.83C624.35 370.75 632.99 371.76 641.17 366.89C649.28 362.07 657.71 357.56 666.48 354.14C676.63 350.18 680.83 353.3 682.62 364.35Z" fill="#CBE0E4"/>
<path d="M575.73 484.36C569.28 493.67 562.36 502.45 555.45 511.24C553.74 513.41 552.05 515.58 550.35 518.4C545.75 519.8 541.17 520.75 536.54 521.25C529.36 522.04 522.04 522 515 523.41C512.34 523.94 509.13 527.09 508.16 529.76C502.6 545.1 487.8 548.81 474.34 539.47C471.33 537.38 469.65 533.04 468.03 529.43C466.91 526.93 466.94 523.91 466.21 519.89C465.9 518.28 465.85 517.9 465.79 517.52C467.18 495.94 475.05 485.73 501.19 480.98C509.25 479.52 517.74 479.3 525.3 476.53C531.5 474.26 536.62 469.05 542.51 464.58C553.62 470.63 564.44 477.23 575.73 484.36Z" fill="#DBB385"/>
<path d="M683.18 364.05C680.83 353.3 676.63 350.18 666.47 354.14C657.7 357.56 649.27 362.06 641.16 366.89C632.97 371.76 624.34 370.75 616.27 368.83C607.81 366.82 599.94 362.3 591.18 358.63C590.86 357.27 591.18 356.17 592 354.77C601.44 357.35 610.33 360.41 619.34 363.07C627.28 365.42 634.8 364.32 641.99 359.86C647.59 356.39 653.5 353.37 659.46 350.53C672.97 344.09 677.8 345.12 687.88 356.22C686.9 358.91 685.33 361.34 683.18 364.05Z" fill="#FDFDFD"/>
<path d="M442.72 519.13C439.75 519.86 436.37 519.95 432.17 519.85C435 519.27 438.66 518.88 442.72 519.13Z" fill="#FDFDFD"/>
<path d="M465.35 517.73C465.83 517.92 465.89 518.29 465.95 519.24C465.62 519.82 465.29 519.83 464.48 519.68C464.13 518.87 464.43 518.34 465.35 517.73Z" fill="#FDFDFD"/>
<path d="M701.79 941.36C743.35 940.91 784.85 940.89 827.22 940.71C834.87 940.06 841.66 939.44 848.46 939.1C855.34 938.75 862.25 938.27 869.11 938.64C872.63 938.83 870.76 940.75 868.81 942.46C856.32 942.92 844.14 942.82 830.2 942.81C801.68 942.87 774.92 942.79 748.16 942.85C733.2 942.88 718.24 943.16 703.29 943.33C703.29 943.33 702.44 943.19 702.08 942.94C701.72 942.68 701.74 941.8 701.79 941.36Z" fill="white"/>
<path d="M907.19 835.8C909.58 835.78 911.16 835.61 912.71 835.77C913.66 835.87 914.55 836.47 915.46 836.85C914.58 837.07 913.7 837.44 912.81 837.47C910.3 837.55 907.79 837.53 905.28 837.46C904.37 837.44 903.47 837.19 902.57 837.04C903.84 836.63 905.11 836.21 907.19 835.8Z" fill="#FDFDFD"/>
<path d="M919.4 836.16C921.13 836.02 922.3 836.24 923.48 836.45C921.93 836.48 920.38 836.5 919.4 836.16Z" fill="#FDFDFD"/>
<path d="M937.76 944.7C937.03 944.54 936.59 944.07 936.15 943.59C936.62 943.45 937.09 943.3 937.99 943.38C938.42 943.61 938.04 944.38 937.76 944.7Z" fill="#FDFDFD"/>
<path d="M430.45 624.53C429.57 624.36 429.59 623.86 429.58 623.62C459.29 623.25 489.02 623.23 518.74 622.92C526.21 622.84 533.68 621.81 541.93 621.04C543.78 627.12 538.92 624.6 536.55 624.63C517.73 624.85 498.91 624.82 480.09 624.82C463.83 624.81 447.58 624.74 430.45 624.53Z" fill="white"/>
<path d="M476 788.996C482.209 782.843 493.771 782.154 499 788.158C491.686 788.94 484.339 789.023 476 788.996Z" fill="#E0DBC7"/>
<path d="M39.5302 940.91C38.6002 928.45 38.8401 916.05 38.3701 903.66C38.1601 898 40.2702 896.87 45.4102 896.93C65.4302 897.19 85.4602 897.17 105.48 896.94C110 896.89 111.52 898.04 111.39 902.76C111.05 914.87 111.27 927 111.2 939.99C87.5602 940.9 63.9902 940.94 39.5302 940.91Z" fill="#FDFDFD"/>
<path d="M413.84 853.63C412.86 860.37 411.19 866.57 411.07 872.8C410.68 892.55 410.76 912.31 410.89 932.06C410.92 936.9 410.22 939.38 404.29 939.25C382.61 938.77 360.92 938.91 338.36 938.99C337.48 939.17 337.55 939.23 337.69 938.51C334.29 933.77 333.46 929.14 333.51 923.81C333.76 899.97 333.74 876.13 333.5 852.3C333.45 847.35 334.17 843.08 337.65 839.47C337.65 839.47 337.53 839.54 338.27 839.47C342.06 838.81 345.09 837.75 348.14 837.74C371.42 837.62 394.71 837.71 417.99 837.74C417.5 839.24 417.01 840.74 415.91 843.28C415 846.57 414.71 848.81 414.41 851.05C414.24 851.72 414.05 852.41 413.84 853.63Z" fill="#E0DBC7"/>
<path d="M417.99 837.3C394.72 837.7 371.43 837.61 348.15 837.73C345.11 837.75 342.07 838.81 338.24 839.51C336.49 833.55 341.27 835.82 343.7 835.77C356.41 835.53 369.13 835.63 381.85 835.65C393.31 835.67 404.77 835.75 417.11 835.91C418 836.02 417.98 836.87 417.99 837.3Z" fill="#FDFDFD"/>
<path d="M415.08 850.93C414.73 848.79 415.02 846.55 415.84 843.85C418.73 846.1 419.23 848.63 415.08 850.93Z" fill="#CBE0E4"/>
<path d="M420.33 835.39C420.18 835.03 420.51 834.38 421.29 833.43C421.43 833.79 421.12 834.45 420.33 835.39Z" fill="#FDFDFD"/>
<path d="M703.35 944.18C718.24 943.16 733.2 942.89 748.16 942.85C774.92 942.79 801.68 942.87 829.33 942.99C830.38 954.58 830.74 966.08 830.65 977.57C830.59 985.72 826.72 988.48 817.45 987.33C780.94 987.35 745.09 987.24 708.35 987.07C706.09 973.01 704.75 959.02 703.35 944.18Z" fill="#79AEB9"/>
<path d="M336.91 839.17C334.18 843.07 333.47 847.35 333.51 852.29C333.74 876.13 333.77 899.97 333.52 923.8C333.46 929.14 334.3 933.76 337.73 938.54C335.45 938.09 333.27 936.87 330.43 935.57C329.77 904.38 329.76 873.3 329.61 841.16C329.47 840.11 329.9 839.48 329.9 839.48C331.99 839.27 334.07 839.07 336.91 839.17Z" fill="#FDFDFD"/>
<path d="M326.62 939.3C326.82 937.82 327.7 936.33 329.28 935.07C329.09 936.62 328.2 937.95 326.62 939.3Z" fill="#FDFDFD"/>
<path d="M107.09 889.36C85.7498 889.38 65.3298 889.25 44.9098 889.49C40.0798 889.55 38.1798 888.44 38.3998 883.19C38.8298 873 38.6898 862.77 38.4498 852.57C38.3598 848.53 39.4398 846.96 43.7398 846.99C64.4498 847.1 85.1698 846.92 105.88 846.85C108.91 846.84 111.44 847.05 111.36 851.36C111.14 862.84 111.38 874.33 111.15 885.81C111.12 887.01 109.11 888.17 107.09 889.36Z" fill="#FDFDFD"/>
<path d="M82.57 644C91.16 644.01 98.8 644.17 106.44 643.97C110.11 643.87 111.45 645.06 111.39 648.83C111.2 659.96 111.25 671.1 111.35 682.23C111.38 685.45 110.29 686.64 106.94 686.6C85.66 686.39 64.38 686.24 43.1 686.37C38.99 686.39 38.43 684.66 38.47 681.3C38.6 670.8 38.77 660.29 38.46 649.8C38.32 645.15 39.83 643.81 44.39 643.91C56.79 644.18 69.2 644 82.57 644Z" fill="#FDFDFD"/>
<path d="M39.2998 736.85C60.4498 736.29 82.0898 736.26 104.59 736.45C101.71 737.06 97.9898 737.78 94.2598 737.77C76.0998 737.75 57.9498 737.53 39.2998 736.85Z" fill="#E0DBC7"/>
<path d="M716.66 87.2901C718.92 81.9601 720.87 77.2101 722.81 71.7401C724.25 71.0001 725.68 70.9801 727.83 71.0901C726.68 77.9101 724.82 84.6001 723.05 92.1101C717.88 110.64 712.61 128.36 707.23 146.84C706.6 147.89 706.03 148.12 705.57 148.48C704.03 149.68 702.53 150.94 701.01 152.17C700.76 149.94 700.51 147.7 700.47 144.79C708.78 131.23 712.31 116.96 713.41 101.98C713.78 97.1401 711.97 91.8801 716.66 87.2901Z" fill="#485F61"/>
<path d="M329.26 840.42C327.63 839.24 326.21 837.74 324.79 836.25C326.46 836.87 328.12 837.49 329.84 838.8C329.9 839.48 329.47 840.1 329.26 840.42Z" fill="#FDFDFD"/>
<path d="M602.01 866.34C602.04 889.95 602.08 913.56 602.03 938.84C601.35 944.56 600.26 948.61 600.24 952.66C600.08 982.66 600.13 1012.66 600.12 1042.66C567.51 1042.67 534.9 1042.68 501.38 1041.79C500.47 986.01 500.27 931.13 500.65 876.26C500.72 866.02 497.99 856.8 494 847.93C485.68 829.45 470.77 818.35 451.61 812.63C448.15 811.6 444.76 810.63 445.05 805.62C456.12 799.87 469.18 791.86 478.34 789.43C487.5 787 499 785.5 515.2 784.99C531.4 784.48 553.42 795.84 553.42 795.84C553.42 795.84 555.44 796.81 556.02 797C568.34 803.32 578.83 811.71 586.87 823.16C596.1 836.3 597.04 838.06 601.04 858.59C601.1 861.94 601.55 864.14 602.01 866.34Z" fill="#7B786D"/>
</svg>
