<svg width="576" height="624" viewBox="0 0 576 624" fill="none" xmlns="http://www.w3.org/2000/svg">
<path d="M102 187.282C102 93.238 178.112 17 272 17C365.888 17 442 93.2379 442 187.282V532H102V187.282Z" fill="#E5E5E5"/>
<path d="M352.547 479.916C348.381 479.738 344.975 479.668 341.583 479.86C340.781 479.907 339.627 480.629 339.308 481.347C335.54 489.745 331.904 498.199 328.048 506.902C325.786 508.207 323.562 508.314 321.296 508.314C299.293 508.31 277.294 508.329 255.29 508.286C252.94 508.282 250.439 508.619 248.281 506.321C236.969 498.776 233.798 487.868 233.746 475.544C233.666 457.115 233.685 438.691 233.648 419.845C234.694 418.85 235.726 419.188 236.646 419.685C246.141 424.799 256.257 425.751 266.799 424.522C271.781 423.941 273.085 425.015 274.784 429.814C277.064 436.251 280.099 442.21 285.467 446.695C289.159 449.782 293.344 451.476 298.232 451.494C300.733 451.504 303.445 451.25 303.468 455.29C303.482 457.467 305.791 457.167 307.414 457.218C312.12 457.378 316.53 455.557 321.189 455.201C326.129 454.825 330.375 455.107 333.274 459.977C335.062 462.975 338.055 462.951 341.283 462.135C347.645 460.526 353.537 457.209 360.288 456.993C362.925 456.908 365.651 456.833 367.462 458.856C370.793 462.567 374.396 461.436 378.14 460.047C383.31 458.124 388.321 455.703 393.927 455.182C396.705 454.924 399.435 455.093 401.579 457.049C404.432 459.648 407.397 459.212 410.77 458.255C417.066 456.467 423.302 452.733 429.823 453.864C437.367 455.168 444.555 454.689 451.963 453.742C455.688 453.268 459.474 454.337 462.538 456.833C466.873 460.357 466.46 465.006 461.66 467.826C457.686 470.162 453.262 471.021 448.796 471.603C432.872 473.676 416.855 474.891 400.904 476.67C395.236 477.298 389.508 476.989 383.235 478.054C385.055 478.729 386.322 478.574 387.514 478.41C402.827 476.28 418.291 475.623 433.618 473.62C439.567 472.841 445.521 472.076 451.475 471.335C455.275 470.861 458.761 469.642 462.021 467.723C467.201 464.678 467.257 458.963 462.054 455.895C456.804 452.799 451.006 453.104 445.418 454.352C441.613 455.201 438.263 455.365 434.468 454.084C428.95 452.226 423.47 454.305 418.202 455.928C415.359 456.805 412.398 457.298 409.63 458.555C407.566 459.494 405.028 459.573 403.278 457.758C399.069 453.399 394.063 454.746 389.367 455.956C385.501 456.951 381.696 458.424 377.981 460.038C374.499 461.548 371.248 461.717 368.048 458.724C363.91 454.854 358.839 456.96 354.335 457.922C350.136 458.818 346.021 460.413 341.94 461.872C338.078 463.252 335.066 462.449 332.96 459.067C330.755 455.52 327.654 454.553 323.731 454.919C319.246 455.337 314.827 456.111 310.403 456.946C305.185 457.927 304.463 457.246 303.905 452.006C302.478 450.894 300.752 451.274 299.161 451.297C291.233 451.415 285.345 447.774 280.906 441.501C277.941 437.307 275.624 432.775 274.315 427.755C273.803 425.784 273.831 423.884 276.046 423.335C284.186 421.318 292.129 418.503 300.85 417.443C307.452 421.036 312.936 425.751 319.753 428.412C334.395 434.131 349.517 437.527 365.149 438.902C373.204 439.61 381.204 441.21 389.339 440.638C401.922 439.756 414.453 438.63 426.239 433.516C435.434 429.528 443.044 423.729 448.228 415.012C449.157 413.445 450.105 411.925 452.305 411.123C459.408 410.41 466.141 410.781 473.3 410.776C482.641 410.532 491.555 410.71 500.469 410.691C502.102 410.687 503.749 410.701 505.583 411.785C527.179 416.406 540.245 429.613 547.779 449.547C558.598 478.19 540.7 513.152 515.816 524.06C503.12 529.624 489.89 533.25 476.195 533.494C445.399 534.039 414.585 533.668 383.291 533.668C382.775 530.628 382.259 527.592 381.617 524.196C380.176 522.53 380.336 520.827 380.223 519.194C379.444 507.526 378.248 495.886 377.643 484.209C377.455 480.592 376.038 479.334 372.416 479.245C366.528 479.105 360.753 480.31 354.499 480.207C353.842 480.174 353.579 480.151 352.547 479.916Z" fill="#122023"/>
<path d="M452.324 411.681C450.077 414.735 448.191 417.569 446.075 420.215C435.819 433.051 421.664 438.128 406.004 440.065C400.233 440.778 394.434 441.815 388.659 441.778C373.57 441.684 358.539 440.469 343.877 436.631C335.423 434.417 326.842 432.333 318.805 429.021C312.697 426.502 307.353 422.129 301.381 418.456C288.117 409.828 278.711 398.727 276.37 382.926C273.63 364.408 274.066 345.844 276.177 327.26C277.876 312.313 280.939 297.632 283.918 282.92C284.369 280.7 284.965 278.528 285.758 276.417C286.358 274.817 287.235 273.189 289.323 273.874C291.27 274.512 291.444 276.295 291.05 278.007C289.708 283.849 288.634 289.746 287.451 295.352C294.16 287.574 301.165 279.814 311.791 276.778C319.326 274.625 327.016 275.047 334.569 276.276C339.664 277.107 345.092 277.426 349.662 281.198C353.828 291.369 358.022 301.156 361.63 311.154C364.647 319.519 367.232 328.067 369.512 336.667C370.685 341.086 370.774 345.792 371.38 350.61C375.381 350.948 379.543 351.084 383.634 351.685C407.069 355.138 428.5 362.991 445.254 380.613C447.66 383.142 449.307 386.393 451.578 389.466C456.833 396.719 455.599 404.015 452.324 411.681Z" fill="#82ACB0"/>
<path d="M349.888 281.142C339.111 277.478 327.959 275.685 316.53 276.882C309.976 277.567 304.093 280.574 299.27 285.073C294.325 289.685 289.755 294.696 285.185 299.369C286.677 292.542 288.329 285.322 289.764 278.059C289.985 276.947 289.23 275.638 288.925 274.423C288.212 275.319 287.043 276.126 286.856 277.121C283.196 296.286 278.495 315.348 276.431 334.687C274.611 351.736 274.639 369.18 277.993 386.234C279.692 394.866 284.613 402.002 290.815 408.172C294.109 411.451 297.562 414.571 301.02 418.043C295.066 419.831 289.037 421.351 283.004 422.843C280.137 423.551 277.257 424.203 272.992 425.212C277.289 432.202 280.635 439.099 285.336 444.888C290.557 451.321 299.026 450.157 306.908 450.866C305.89 452.874 305.223 454.192 304.149 456.312C306.767 456.158 308.634 456.172 310.464 455.914C315.198 455.247 319.899 454.314 324.647 453.765C328.466 453.319 331.773 454.459 333.65 458.175C335.573 461.98 338.304 462.21 342.132 460.929C348.306 458.865 354.617 457.054 361.007 455.876C363.446 455.426 367.303 456.172 368.687 457.865C371.689 461.534 374.622 460.272 377.821 459.292C383.475 457.565 389.053 455.59 394.735 453.971C398.094 453.014 400.998 453.746 403.597 456.608C404.676 457.79 407.454 458.255 409.19 457.861C414.078 456.749 418.742 454.422 423.658 453.709C428.191 453.052 432.929 453.929 437.583 454.014C439.61 454.051 441.674 453.995 443.659 453.624C450.025 452.433 456.336 451.565 462.458 454.614C468.412 457.579 469.153 464.218 463.514 467.821C460.098 470.003 456.04 471.903 452.08 472.395C430.241 475.098 408.345 477.345 386.459 479.686C384.301 479.916 382.1 479.719 379.919 479.719C379.806 479.325 379.693 478.926 379.581 478.532C380.575 478.049 381.532 477.223 382.56 477.129C393.304 476.144 404.071 475.379 414.81 474.347C423.607 473.503 432.39 472.452 441.158 471.34C446.033 470.72 450.884 469.852 455.716 468.956C457.279 468.665 459.075 468.29 460.197 467.305C461.914 465.79 464.471 463.514 464.236 461.919C463.936 459.859 461.553 457.612 459.502 456.402C454.989 453.737 450.03 454.703 445.033 455.341C441.238 455.829 437.245 454.614 433.398 454.9C427.975 455.299 422.575 456.223 417.222 457.227C414.486 457.743 411.939 459.296 409.199 459.719C406.093 460.197 403.395 459.981 400.191 457.72C397.484 455.806 392.281 456.561 388.424 457.34C383.25 458.381 378.356 460.755 373.238 462.177C371.779 462.58 369.114 462.233 368.433 461.243C364.812 455.984 359.716 457.987 355.335 458.616C350.845 459.264 346.608 461.53 342.17 462.74C335.728 464.495 334.405 464.021 331.196 459.437C330.065 457.823 327.368 456.383 325.43 456.434C319.035 456.613 312.669 457.692 306.27 458.067C302.089 458.311 301.104 456.65 302.779 452.747C283.543 454.079 277.36 440.567 271.96 425.587C259.081 426.479 245.893 427.675 233.958 419.507C226.686 411.062 219.7 402.748 215.567 392.417C210.04 378.591 209.627 364.408 212.428 350.09C214.483 339.585 216.927 329.123 219.878 318.834C224.401 303.052 232.475 289.061 242.717 276.239C250.397 266.626 259.748 259.03 270.093 252.574C272.185 251.27 274.709 250.656 277.379 249.722C293.447 256.164 310.29 258.453 326.547 262.924C327.405 263.159 328.362 263.098 329.188 263.431C333.903 265.364 338.205 264.998 342.315 261.282C345.069 267.78 347.476 274.292 349.888 281.142Z" fill="#F7EFD7"/>
<path d="M285.336 444.888C280.635 439.099 277.289 432.202 272.992 425.212L271.96 425.587C277.36 440.567 283.543 454.079 302.779 452.747C301.104 456.65 302.089 458.311 306.27 458.067C312.669 457.692 319.035 456.613 325.43 456.434C327.368 456.383 330.065 457.823 331.196 459.437C334.405 464.021 335.728 464.495 342.17 462.74C346.608 461.529 350.845 459.263 355.334 458.616C359.716 457.987 364.811 455.984 368.433 461.243C369.114 462.233 371.779 462.58 373.238 462.177C378.356 460.755 383.25 458.381 388.424 457.34C392.281 456.561 397.484 455.806 400.191 457.72C403.395 459.981 406.093 460.197 409.199 459.718C411.939 459.296 414.486 457.743 417.221 457.227C422.575 456.223 427.975 455.299 433.398 454.9C437.245 454.614 441.238 455.829 445.033 455.341C450.03 454.703 454.989 453.737 459.502 456.402C461.553 457.612 463.936 459.859 464.236 461.919C464.471 463.514 461.914 465.789 460.197 467.305C459.075 468.29 457.279 468.665 455.716 468.956C450.884 469.852 446.033 470.72 441.158 471.34C432.389 472.452 423.607 473.502 414.81 474.347C404.071 475.379 393.304 476.144 382.56 477.129C381.532 477.223 380.575 478.049 379.581 478.532C379.693 478.926 379.806 479.325 379.918 479.719C382.1 479.719 384.3 479.916 386.459 479.686C408.345 477.345 430.241 475.098 452.08 472.395C456.04 471.903 460.098 470.003 463.514 467.821C469.153 464.218 468.412 457.579 462.458 454.614C456.335 451.564 450.025 452.432 443.659 453.624C441.674 453.995 439.61 454.051 437.583 454.014C432.929 453.929 428.191 453.052 423.658 453.709C418.742 454.422 414.078 456.749 409.189 457.861C407.454 458.255 404.676 457.79 403.597 456.608C400.998 453.746 398.094 453.014 394.735 453.971C389.053 455.59 383.475 457.565 377.821 459.292C374.622 460.272 371.689 461.534 368.687 457.865C367.303 456.172 363.446 455.426 361.007 455.876C354.617 457.054 348.306 458.865 342.132 460.929C338.304 462.21 335.573 461.98 333.65 458.175C331.773 454.459 328.466 453.319 324.647 453.765C319.899 454.314 315.198 455.247 310.464 455.914C308.634 456.172 306.767 456.158 304.149 456.312C305.223 454.192 305.889 452.873 306.908 450.865C299.026 450.157 290.557 451.321 285.336 444.888Z" fill="#E1FF01"/>
<path d="M247.901 506.283C249.947 506.236 251.823 506.804 253.709 506.808C278.129 506.912 302.554 506.93 327.419 507.066C324.412 514.991 321.081 522.877 317.398 530.595C316.746 531.96 314.62 533.48 313.171 533.485C282.671 533.654 252.175 533.729 221.675 533.56C211.438 533.504 201.036 526.443 200 513.015C199.211 502.783 196.669 492.691 195.163 482.501C193.112 468.619 191.362 454.689 189.368 440.802C187.942 430.898 186.258 421.032 184.799 411.132C182.669 396.659 180.661 382.171 178.559 367.693C177.25 358.675 175.664 349.696 174.618 340.65C174.29 337.845 174.623 334.537 175.857 332.06C178.376 326.998 182.842 325.975 187.937 328.785C192.742 331.431 195.552 335.611 196.659 341.025C198.836 351.666 201.21 362.269 203.349 372.919C205.428 383.269 207.258 393.67 209.308 404.024C211.241 413.802 213.357 423.546 215.313 433.319C217.565 444.555 219.672 455.82 221.947 467.052C224.072 477.556 226.169 488.075 228.59 498.514C229.881 504.064 233.362 506.55 239.203 506.799C242.032 506.916 244.889 506.7 247.901 506.283Z" fill="#5E5C54"/>
<path d="M468.59 371.014C469.706 364.404 471.105 358.023 472.578 351.657C475.318 339.801 478.048 327.945 480.887 316.113C483.035 307.152 485.456 298.257 487.572 289.291C490.232 278.012 492.644 266.673 495.285 255.389C497.012 248.024 498.621 240.601 500.943 233.414C502.355 229.041 506.395 227.244 510.946 227.226C519.944 227.188 528.943 227.259 538.27 227.47C535.506 242.347 532.053 256.961 528.68 271.59C523.388 294.564 518.283 317.582 512.977 340.552C511.049 348.893 509.093 357.23 507.183 365.577C506.005 370.723 504.697 371.817 499.461 371.878C490.598 371.981 481.731 371.924 472.864 371.896C471.513 371.892 470.152 371.882 468.59 371.014Z" fill="#E0DBC7"/>
<path d="M328.175 124.249C331.168 125.455 333.847 126.665 336.892 128.031C341.673 123.926 345.506 123.799 349.376 128.2C355.33 123.686 358.018 124.094 364.047 130.353C368.424 126.787 372.642 123.025 377.198 119.731C381.978 116.278 385.065 117.085 388.124 122.04C389.128 123.663 389.964 125.394 391.071 127.44C393.768 126.877 396.527 125.741 399.225 125.877C402.41 126.032 406.089 126.506 408.556 128.251C411.794 130.536 410.818 134.407 409.204 137.667C407.266 141.594 405.211 145.465 403.1 149.57C403.719 149.819 404.484 150.241 405.305 150.438C411.24 151.864 412.816 154.262 410.292 159.68C407.642 165.376 402.992 169.101 396.443 169.373C390.339 169.627 385.094 167.797 382.007 161.58C379.473 159.554 380.092 155.979 377.076 153.938C373.032 156.368 368.448 157.907 363.371 156.575C362.109 156.241 361.626 157.316 360.997 158.188C356.752 164.081 352.853 165.179 345.529 162.303C343.287 168.275 338.234 169.889 332.078 170.166C314.044 170.476 306.706 189.238 319.636 202.519C318.229 208.412 312.238 210.406 306.364 206.934C299.429 204.035 297.689 199.301 301.212 193C293.288 187.286 292.491 182.674 298.181 175.416C292.523 168.745 292.303 165.249 296.6 160.788C296.197 156.65 295.61 153.084 295.662 149.528C295.676 148.571 297.628 147.642 298.984 146.398C299.139 145.713 299.143 145.319 299.378 144.648C299.974 143.011 300.429 141.622 302.488 141.407C303.563 141.28 304.346 141.233 305.388 141.073C306.016 140.989 306.561 141.402 306.673 141.069C306.819 140.637 306.279 140.215 306.129 139.417C306.087 138.69 306.171 138.287 306.556 137.677C308.372 136.616 310.886 137.489 311.309 134.393C311.515 132.872 313.931 133.468 315.203 132.643C315.972 131.568 314.879 130.362 315.517 128.969C316.371 128.059 317.215 127.937 318.43 127.998C319.167 128.139 319.575 128.261 320.274 128.486C321.508 128.819 322.292 128.716 322.705 127.684C323.638 125.371 325.637 124.629 328.175 124.249Z" fill="#122023"/>
<path d="M298.495 141.294C297.06 140.389 295.92 139.525 295.568 139.258C293.405 141.787 291.843 145.221 289.652 145.685C287.775 146.084 284.383 143.574 283.069 141.472C280.545 137.428 277.552 137.32 273.587 138.273C270.416 139.033 267.113 139.521 263.852 139.586C259.883 139.661 257.655 136.87 258.738 133.098C259.677 129.823 261.338 126.759 262.858 123.184C261.089 121.683 258.349 120.022 256.571 117.639C254.863 115.349 252.794 112.009 253.315 109.673C254.197 105.732 258.152 103.982 262.276 103.559C264.045 103.376 265.818 103.226 267.699 103.053C268.061 98.8208 268.535 94.847 268.694 90.8638C268.844 87.0965 270.815 86.1441 274.024 87.0683C276.548 87.7955 279.039 88.7151 281.441 89.7848C285.757 91.7083 288.633 90.7559 290.397 86.5335C291.031 85.0228 291.556 83.4652 292.054 81.9075C293.325 77.9384 294.944 77.2112 298.8 79.1207C301.822 80.6174 304.768 82.2641 307.7 83.817C310.825 79.7025 312.059 73.1671 318.561 73.9693C325.646 74.842 328.404 80.744 330.469 87.317C332.533 87.317 334.747 87.1856 336.943 87.3498C340.26 87.5938 341.733 89.8598 340.391 92.8625C338.707 96.6298 336.723 100.261 335.39 102.912C336.249 106.126 337.989 108.941 337.389 111.113C336.066 115.917 332.463 119.084 326.837 119.933C324.975 120.965 327.761 123.55 327.142 125.535C326.776 125.859 322.727 124.625 322.239 124.728C321.24 124.597 320.565 124.198 319.537 124.737C321.723 124.939 322.699 126.201 322.985 127.993C323.173 129.18 322.315 129.424 321.043 129.335C320.368 129.147 320.025 128.964 319.476 128.561C318.317 128.298 317.379 128.458 316.253 128.092C315.859 128.036 315.704 128.026 315.343 128.026C314.822 128.087 314.653 128.27 314.639 128.828C314.681 129.241 314.705 129.415 314.747 129.865C314.719 132.174 313.898 133.295 311.378 132.718C310.13 132.746 308.31 130.522 308.549 133.9C309.187 136.692 307.367 136.79 305.453 137.133C304.393 137.466 304.088 138.127 303.717 139.103C303.464 139.525 303.337 139.675 302.934 139.943C301.245 140.126 300.029 140.778 298.495 141.294Z" fill="#122023"/>
<path d="M352.473 479.292C361.227 478.663 369.686 478.133 378.624 477.57C379.656 493.245 380.637 508.136 381.556 523.426C380.716 524.28 379.778 524.575 379.187 525.199C371.826 533.006 362.701 534.686 352.398 533.823C344.797 533.185 337.098 533.696 328.7 533.696C331.961 526.264 335.081 519.213 338.154 512.138C342.742 501.568 347.298 490.979 351.825 480.052C351.783 479.7 351.788 479.78 351.746 479.785C351.868 479.658 352.022 479.526 352.473 479.292Z" fill="#82ACB0"/>
<path d="M468.21 371.15C479.099 370.775 489.918 370.672 500.737 370.831C503.697 370.878 505.138 369.86 505.748 367.04C508.839 352.768 511.945 338.501 515.159 324.262C517.814 312.496 520.676 300.776 523.365 289.019C526.086 277.112 528.6 265.157 531.401 253.273C533.405 244.796 535.736 236.393 538.256 227.812C547.156 229.252 547.179 235.014 545.406 242.975C541.362 261.122 537.177 279.237 532.968 297.346C529.567 311.98 526.015 326.585 522.6 341.213C522.06 343.531 521.868 345.928 521.422 348.649C520.672 355.565 519.691 362.072 517.904 368.42C516.782 372.408 516.308 376.794 511.687 379.023C508.675 379.778 506.053 381.2 503.378 381.294C494.882 381.594 486.367 381.528 477.865 381.364C471.335 381.237 468.163 377.845 468.21 371.15Z" fill="#5E5C54"/>
<path d="M280.958 239.17C275.492 228.68 277.256 221.244 286.184 216.454C290.941 213.906 295.882 214.671 300.789 216.074C302.206 216.477 303.604 216.937 305.363 217.43C308.84 217.007 311.519 218.518 314.292 219.466C322.15 222.149 330.215 224.251 338.045 227.953C340.025 228.957 341.817 229.604 343.506 230.463C348.203 232.841 350.905 236.712 350.82 241.981C350.727 247.775 348.02 252.105 342.066 254.367C330.815 251.983 319.87 249.45 308.962 246.766C301.971 245.049 294.953 243.416 287.948 241.756C285.626 241.202 283.191 240.953 280.958 239.17Z" fill="#122023"/>
<path d="M338.313 227.798C331.501 226.123 324.712 224.068 317.947 221.924C313.997 220.671 310.093 219.273 305.946 217.716C305.833 214.127 305.95 210.763 306.147 207C311.327 208.797 315.714 207.821 319.444 203.341C320.752 202.44 321.93 202.984 322.915 203.542C331.271 208.271 344.042 200.305 345.149 188.801C345.318 187.028 345.069 185.203 346.022 183.195C350.361 180.619 354.771 181.829 359.444 181.956C361.687 182.707 361.851 184.49 362.339 186.028C363.235 188.848 364.821 191.142 367.218 192.883C369.996 194.9 372.553 194.079 375.133 192.395C379.998 189.223 380.017 189.252 383.301 194.581C384.071 199.733 383.859 199.883 376.799 199.442C376.053 203.176 375.424 206.948 374.523 210.655C373.256 215.848 369.236 219.001 363.948 219.034C355.583 219.086 347.223 219.048 338.346 219.048C338.346 221.741 338.346 224.561 338.313 227.798Z" fill="#BA5C2E"/>
<path d="M280.508 239.114C289.577 240.925 298.425 242.961 307.264 245.026C316.544 247.193 325.834 249.323 335.081 251.617C337.202 252.143 339.167 253.283 341.485 254.32C342.081 256.515 342.395 258.538 342.691 260.911C339.43 266.57 335.09 266.373 329.601 264.89C316.127 261.249 302.423 258.453 288.901 254.963C285.162 253.996 281.737 251.791 277.946 249.928C276.881 245.833 276.666 242.117 280.508 239.114Z" fill="#E1FF01"/>
<path d="M511.368 379.361C513.024 375.917 515.351 373.055 516.294 369.794C518.213 363.146 519.386 356.287 521.098 349.259C521.408 363.967 521.685 378.929 521.483 393.886C521.366 402.622 514.713 409.809 506.048 411.756C495.327 412.047 484.734 412.019 473.708 411.916C473.333 408.716 474.548 405.699 474.346 402.242C482.496 401.955 490.457 401.998 498.419 401.937C507.46 401.866 511.476 397.775 511.467 388.772C511.467 385.769 511.434 382.767 511.368 379.361Z" fill="#5E5C54"/>
<path d="M332.059 170.251C332.828 169.458 333.696 168.609 334.611 168.557C340.804 168.21 343.258 166.324 344.998 160.276C352.843 165.16 357.089 163.701 361.691 154.355C367.509 157.597 372.674 156.204 378.013 150.982C379.346 154.571 380.486 157.64 381.696 161.064C381.11 164.766 380.458 168.107 379.871 171.813C378.675 175.979 376.592 174.806 374.204 172.822C371.337 165.334 369.573 163.954 362.437 163.725C359.927 163.645 357.408 164.072 356.845 167.023C356.277 170.011 358.566 170.771 360.908 171.259C362.081 171.503 363.225 171.85 364.44 172.84C364.811 175.782 363.479 177.828 361.485 179.925C356.263 181.159 351.337 180.68 346.059 180.403C341.287 176.941 337.191 173.117 332.059 170.251Z" fill="#BA5C2E"/>
<path d="M474.351 401.711C475.777 405.221 476.073 408.383 473.422 411.55C466.478 411.897 459.68 411.949 452.479 411.996C452.615 409.265 453.694 406.525 453.59 403.832C453.422 399.323 452.507 394.838 451.873 389.987C461.163 387.913 469.95 392.572 474.351 401.711Z" fill="#BA5C2E"/>
<path d="M374.096 171.982C376.053 173.014 377.596 175.449 379.778 172.451C388.105 170.49 390.006 171.471 394.28 179.845C395.232 181.407 395.434 182.73 394.566 184.504C392.727 190.068 389.682 193.789 383.663 194.835C381.941 193.399 380.557 191.879 379.13 190.317C379.037 190.359 378.718 190.42 378.521 190.608C371.206 197.692 364.145 195.787 361.373 185.968C361.171 185.25 361.011 184.523 360.744 183.467C359.96 181.924 360.242 180.849 361.326 179.568C362.583 177.424 363.629 175.562 364.802 173.399C367.392 169.35 370.573 170.27 374.096 171.982Z" fill="#82ACB0"/>
<path d="M394.749 184.842C394.303 183.551 394.261 182.242 394.294 180.539C396.897 180.201 399.473 179.99 401.936 180.413C403.034 180.6 403.916 182.064 404.892 182.946C403.879 183.57 402.912 184.598 401.838 184.734C399.637 185.015 397.381 184.818 394.749 184.842Z" fill="#E1FF01"/>
<path d="M320.044 128.8C320.708 128.654 320.732 128.582 320.987 128.588C321.216 128.594 321.437 128.485 321.541 128.281C321.661 128.047 321.596 127.765 321.405 127.585C320.615 126.842 320.401 126.181 319.434 125.413C318.322 123.837 319.087 122.664 322.024 124.005C323.155 124.597 323.3 124.536 323.624 124.362C323.675 124.315 325.032 123.424 325.031 122.955C325.027 120.67 324.328 119.971 326.166 119.971C327.086 121.181 327.743 122.368 328.442 123.907C326.57 125.896 322.948 125.727 322.929 129.471C322.929 129.603 321.54 129.725 320.518 129.743C320.11 129.443 319.978 129.26 320.044 128.8Z" fill="#BA5C2E"/>
<path d="M298.116 141.303C299.645 140.721 302.512 139.14 306.031 139.609C306.889 140.304 307.715 140.309 306.969 141.303C302.746 141.955 301.217 143.682 300.363 144.573C298.843 144.404 298.533 143.26 298.148 141.819C298.055 141.542 298.031 141.35 298.116 141.303Z" fill="#BA5C2E"/>
<path d="M352.491 479.146C352.556 479.376 352.341 479.55 351.909 479.747C351.881 479.564 352.05 479.334 352.491 479.146Z" fill="#FEFEFE"/>
<path d="M353.472 354.134C344.454 364.042 335.681 373.735 326.007 384.428C326.41 382.171 326.218 380.388 327.001 379.328C336.948 365.816 347.021 352.389 362.24 344.15C362.634 343.939 362.963 343.418 363.338 343.404C364.516 343.352 365.703 343.474 366.885 343.526C366.331 344.45 365.998 345.684 365.191 346.252C361.438 348.903 357.553 351.375 353.472 354.134Z" fill="#0E1140"/>
<path d="M372.529 360.646C369.672 371.15 366.993 381.355 361.673 390.456C360.997 390.208 360.322 389.959 359.646 389.715C360.298 387.557 360.941 385.394 361.603 383.241C364.333 374.416 366.989 365.572 369.879 356.799C370.367 355.321 371.891 354.185 372.938 352.895C373.008 354.486 373.153 356.081 373.111 357.671C373.088 358.544 372.745 359.407 372.529 360.646Z" fill="#0E1140"/>
<path d="M331.553 169.847C336.028 172.822 340.119 175.712 344.3 178.869C342.794 181.046 340.697 180.539 338.318 180.234C336.948 179.756 336.272 178.925 335.484 178.245C329.165 172.775 320.574 175.064 317.736 182.965C315.418 189.416 317.97 196.542 323.544 199.203C329.094 201.849 334.804 200.075 338.337 194.638C339.678 192.569 340.27 190.274 340.589 187.872C340.804 186.249 340.593 184.555 341.715 182.796C343.488 181.858 344.872 181.928 346.2 183.608C346.364 195.398 341.841 202.379 332.791 205.217C328.161 206.667 324.065 205.536 319.805 203.111C307.822 194.272 310.478 176.838 321.653 171.588C324.482 170.255 327.982 170.33 331.553 169.847Z" fill="#82ACB0"/>
<path d="M303.83 137.175C305.355 136.161 306.795 135.486 308.123 134.5C307.766 134.627 308.141 134.102 308.123 134.5C308.611 134.031 307.654 131.432 307.907 130.93C308.099 130.564 310.858 132.563 311.191 132.338C313.068 131.869 313.814 131.869 313.814 129.194C314.1 128.552 314.438 128.387 315.315 128.636C315.864 129.584 316.291 130.458 316.676 131.347C317.232 132.632 316.247 134.041 314.847 134.041C313.777 134.041 312.726 134.041 311.58 134.041C311.743 135.021 311.889 135.902 312.041 136.819C312.142 137.428 311.672 137.981 311.055 137.982C309.76 137.985 308.523 137.996 307.076 138.043C305.092 138.671 307.672 140.313 305.092 141.252C304.294 141.031 302.277 137.982 303.83 137.175Z" fill="#BA5C2E"/>
<path d="M315.522 127.355C316.756 127.369 320.776 128.533 322.123 128.767C322.522 128.922 322.601 129.115 322.451 129.523C320.105 130.226 317.398 128.875 316.136 128.908C315.794 128.927 315.747 128.875 315.719 128.847C315.39 128.477 315.254 128.078 315.522 127.355Z" fill="#BA5C2E"/>
<path d="M316.488 127.497C315.84 128.501 315.055 128.993 314.071 129.998C313.844 129.634 313.707 129.037 313.596 128.367C313.507 127.823 313.891 127.303 314.44 127.262C315.087 127.213 315.756 127.243 316.488 127.497Z" fill="#BA5C2E"/>
<path d="M337.474 178.982C339.786 179.132 341.719 179.174 344.018 179.179C349.831 179.207 355.273 179.268 361.129 179.306C361.316 180.352 361.091 181.422 360.758 182.815C356.052 183.214 351.455 183.293 346.608 183.659C345.177 183.739 343.99 183.537 342.508 183.289C339.28 184.532 336.169 184.724 332.651 184.64C331.773 184.321 331.351 184.002 330.821 183.232C331.121 178.851 334.091 178.836 337.474 178.982Z" fill="#E1FF01"/>
<path d="M374.364 171.869C371.385 172.427 368.419 172.62 365.192 172.958C363.324 172.793 361.551 172.817 360.148 172.104C358.403 171.212 356.17 170.016 355.564 168.416C354.481 165.545 356.489 163.518 359.318 162.96C365.196 161.806 374.711 163.546 374.364 171.869Z" fill="#122023"/>
<path d="M374.021 175.965C377.389 179.442 379.154 183.087 376.254 187.309C375.062 189.041 373.195 191.602 371.731 191.541C369.728 191.457 367.255 190.279 365.853 187.933C365.613 187.464 364.98 183.842 365.144 183.476C363.802 183.734 366.486 183.218 365.144 183.476C365.079 183.744 365.215 183.209 365.144 183.476C363.488 182.899 366.777 184.049 365.144 183.476C364.614 177.293 368.438 174.159 374.021 175.965Z" fill="#BA5C2E"/>
<path d="M389.451 184.602C387.134 191.02 384.765 192.02 379.904 188.895C380.448 187.746 381.007 186.573 381.64 185.086C384.084 182.918 386.594 183.185 389.451 184.602Z" fill="#E0DBC7"/>
<path d="M389.982 184.705C387.331 184.855 384.92 184.78 382.114 184.738C381.669 183.495 381.617 182.214 381.603 180.549C384.01 178.376 386.482 178.733 389.386 179.967C389.926 181.585 390.076 183.03 389.982 184.705Z" fill="#E1FF01"/>
<path d="M389.654 179.845C387.336 180.192 384.887 180.249 382.04 180.235C381.674 178.766 381.711 177.359 381.744 175.956C383.546 176.129 385.469 175.975 387.097 176.594C388.134 176.983 388.734 178.527 389.654 179.845Z" fill="#E0DBC7"/>
<path d="M331.759 183.992C335.165 183.612 338.28 183.345 341.799 183.157C342.522 188.604 341.64 193.554 337.666 197.598C332.946 202.407 327.02 203.233 321.517 199.719C316.511 196.519 314.334 189.087 316.272 183.087C319.655 172.606 332.087 170.832 337.722 178.799C335.625 180.126 333.401 181.163 331.107 182.515C329.99 183.542 329.019 182.829 328.034 182.627C325.561 182.12 323.455 182.773 322.193 184.954C320.734 187.474 321.456 189.946 323.197 192.053C324.848 194.051 326.894 194.9 329.657 193.498C328.343 192.456 327.063 193.179 325.97 192.747C323.455 191.752 321.878 189.932 322.395 187.234C322.887 184.663 324.989 183.734 327.532 183.908C328.85 184.002 330.117 184.912 331.759 183.992Z" fill="#BA5C2E"/>
<path d="M331.904 183.683C331.993 186.066 331.881 187.614 329.024 185.667C327.921 184.917 325.65 185.128 324.332 185.766C323.614 186.113 323.122 188.919 323.68 189.486C324.834 190.664 326.711 191.213 328.376 191.776C329.436 192.132 330.642 192.043 331.782 192.151C330.75 193.226 329.436 195.37 328.733 195.187C326.19 194.525 323.215 193.638 321.592 191.79C319.41 189.313 319.518 185.747 322.005 183.19C324.44 180.685 327.433 180.131 330.717 182.749C331.28 183.049 331.52 183.27 331.904 183.683Z" fill="#122023"/>
<path d="M118.131 460.417C115.472 478.975 112.445 497.087 109.654 515.228C108.324 523.877 107.247 532.577 106.416 541.289C105.952 546.178 104.255 547.938 98.959 547.852C75.5226 547.491 52.0805 547.628 28.6384 547.737C25.6007 547.749 24.5231 547.204 24.0417 543.782C21.3937 524.925 18.2413 506.137 15.4099 487.303C14.1318 478.809 13.209 470.263 12.12 461.328C13.272 458.628 15.4558 458.903 17.4217 458.892C49.2892 458.8 81.1568 458.8 113.024 458.869C114.721 458.881 116.406 458.921 118.131 460.417Z" fill="#E1FF01"/>
<path d="M57.7831 387.087C55.3816 385.556 52.7508 384.146 51.4268 381.94C43.8439 369.307 39.4994 355.408 36.4789 341.068C34.6046 332.173 31.9051 323.312 31.2861 314.319C30.2085 298.7 29.6468 282.95 30.4435 267.337C30.9307 257.777 33.6761 248.148 36.6221 238.943C40.6113 226.471 48.0509 216.263 60.133 210.193C69.315 205.585 80.7151 211.196 85.18 221.863C92.1037 238.421 91.1466 255.352 88.9686 272.593C87.2319 286.303 86.441 300.133 85.1857 314.37C85.8277 317.488 83.7185 318.841 82.3601 320.377C70.7938 333.405 66.5982 348.731 68.4037 365.817C68.994 371.399 71.281 376.523 74.2958 381.275C75.1784 382.668 76.6629 383.751 76.3648 386.066C72.4445 390.027 68.4553 392.904 62.5174 390.417C59.984 387.264 59.749 383.751 59.6057 380.455C58.7345 360.859 55.2325 341.406 56.27 321.718C57.1985 303.985 58.6142 286.297 61.5258 268.747C62.5919 262.322 63.4344 255.857 65.0679 248.881C62.7295 250.177 62.8498 251.787 62.6033 253.157C60.3222 265.812 58.0238 278.502 57.1182 291.312C55.8745 309 54.5849 326.676 55.8745 344.507C56.803 357.317 56.7915 370.196 58.8893 382.92C59.1014 384.284 58.9466 385.637 57.7831 387.087Z" fill="#E0DBC7"/>
<path d="M76.2336 386.33C63.4121 369.663 63.9451 352.073 72.0668 334.391C75.202 327.559 80.5896 321.77 85.0431 315.173C94.3454 306.403 103.482 297.886 112.784 289.564C122.235 281.104 131.549 272.438 141.516 264.626C147.391 260.024 154.527 257.777 162.15 261.37C167.102 263.703 169.618 268.334 169.951 273.046C170.449 280.032 170.243 287.357 168.672 294.149C160.562 329.238 140.141 356.417 112.302 378.082C105.281 383.55 96.0706 386.181 87.4733 390.061C85.364 386.852 87.1293 384.078 88.2126 381.355C100.805 349.694 117.856 320.618 138.914 293.891C139.43 293.238 140.06 292.636 140.261 291.026C135.412 295.468 132.214 300.557 128.689 305.314C112.016 327.845 98.6326 352.239 87.9146 378.145C86.4473 381.688 85.8684 385.746 82.3034 388.588C79.6095 389.414 77.7239 388.726 76.2336 386.33Z" fill="#82ACB0"/>
<path d="M44.9502 455.631C31.9624 446.569 19.2785 437.674 10.9906 423.843C5.76341 415.126 1.72838 405.995 0.249638 395.942C-1.08009 386.921 3.01224 378.788 9.90732 377.876C14.1143 377.32 19.2097 378.134 22.9295 380.146C38.1927 388.394 51.4039 399.117 59.8121 415.24C63.125 417.567 62.1449 421.081 62.5805 423.895C63.7899 431.753 64.5522 439.691 64.1166 447.675C64.0077 449.641 64.6668 452.375 62.4429 453.092C60.2535 453.797 59.067 451.326 57.9207 449.699C47.409 434.745 36.7598 419.894 25.6577 405.371C22.8263 401.668 20.0866 397.851 16.1605 395.117C22.8492 403.514 29.3202 412.071 35.7854 420.628C43.2422 430.486 50.0914 440.757 56.9979 451C58.1958 452.771 60.1446 454.628 58.9352 456.932C57.7144 459.259 55.0721 458.497 52.9572 458.611C51.2778 458.703 49.5813 458.68 47.5294 458.279C46.1137 457.78 45.3915 457.064 44.9502 455.631Z" fill="#3B3A33"/>
<path d="M75.62 430.28C82.8533 420.88 90.247 412.701 99.9333 406.786C113.156 398.71 126.442 390.617 141.911 387.958C147.465 387.001 153.638 387.717 159.169 389.11C165.044 390.589 166.385 397.18 162.711 402.321C155.444 412.495 145.975 420.364 135.463 426.726C122.917 434.315 109.809 440.969 97.016 448.151C93.5484 450.1 90.333 452.507 86.7851 455.006C86.4642 456.353 85.9311 457.144 84.8192 457.963C81.8445 458.898 79.122 458.709 76.4454 458.519C72.3473 458.233 71.6079 456.846 73.6541 453.395C75.7289 449.905 78.0101 446.563 80.7727 443.543C93.7433 429.357 108.284 417.097 124.774 407.21C125.869 406.551 127.262 406.161 127.823 403.966C121.627 407.176 116.142 410.575 110.904 414.375C98.6839 423.236 87.5188 433.255 77.6777 444.741C76.5543 446.053 75.5226 448.271 73.2644 447.251C71.4761 446.437 71.82 444.368 71.734 442.712C71.5735 439.622 71.9518 436.625 73.5739 433.518C74.2158 432.395 74.68 431.581 75.62 430.28Z" fill="#3B3A33"/>
<path d="M75.3555 432.125C74.2551 437.055 73.2635 441.651 72.4783 445.291C78.5767 439.96 84.4745 434.332 90.8595 429.34C102.328 420.37 114.049 411.732 125.805 403.147C126.779 402.43 128.825 403.187 130.373 403.261C129.599 404.385 129.066 405.84 128.023 406.585C118.933 413.125 109.046 418.754 100.775 426.193C91.2607 434.75 83.139 444.872 74.4442 454.341C71.9567 457.052 73.98 457.304 76.1809 457.316C78.8804 457.333 81.58 457.304 84.7496 457.27C87.3403 455.785 89.7533 456.341 92.0402 456.364C100.546 456.456 109.057 455.963 117.998 456.857C119.007 457.568 119.575 458.055 120.217 458.926C120.176 459.499 120.073 459.677 119.752 460.095C119.34 460.393 119.139 460.462 118.669 460.697C92.5674 460.772 66.7353 460.657 40.9088 460.6C31.6236 460.577 22.3328 460.68 12.5834 460.829C11.6663 460.777 11.2078 460.628 10.4398 460.313C9.78637 459.763 9.66601 459.316 9.7921 458.456C10.3595 457.809 10.8524 457.522 11.6491 457.178C16.2115 455.556 20.6305 456.393 24.9636 456.41C31.8472 456.439 38.7595 455.751 46.0672 457.063C49.5405 457.31 52.5783 457.241 55.6046 457.361C59.1409 457.499 58.8429 455.699 57.3699 453.699C43.4765 434.848 29.503 416.065 15.6383 397.197C14.7098 395.936 14.4576 394.177 13.8902 392.646C15.4262 393.351 17.4896 393.632 18.4124 394.819C28.5744 407.881 38.6219 421.035 48.5604 434.275C53.0769 440.293 57.2782 446.546 62.3735 453.762C63.6975 440.327 61.9952 428.325 60.0694 415.98C59.737 411.119 59.7943 406.591 59.416 402.103C59.032 397.461 58.2296 392.853 57.5074 387.792C56.8082 380.828 55.914 374.317 55.6619 367.771C55.0027 350.875 53.8277 333.944 54.3665 317.076C54.9053 300.076 57.1406 283.116 58.883 266.168C59.4676 260.493 60.6712 254.859 61.9666 249.294C62.2761 247.964 64.1159 246.99 65.2508 245.855C65.6405 247.276 66.5977 248.818 66.3283 250.102C60.356 278.645 56.9629 307.492 57.9545 336.632C58.5563 354.325 60.912 371.967 62.7232 389.975C64.9069 392.904 65.1132 396.034 65.182 398.997C65.417 408.465 67.0505 417.762 68.1395 427.127C68.6668 431.678 68.363 436.206 67.7727 441.13C67.5319 442.156 67.4116 442.786 67.3944 443.434C67.3829 443.76 67.2568 444.041 67.0906 444.276C68.1853 444.173 67.0218 443.399 67.4861 442.723C69.3546 426.021 74.2264 410.408 78.7085 394.71C79.2645 392.772 79.9981 390.869 81.5284 388.944C86.8072 377.675 91.1059 366.304 96.912 355.775C106.037 339.228 116.05 323.168 125.965 307.068C129.284 301.68 133.33 296.723 137.32 291.788C138.351 290.515 140.42 290.097 142.019 289.283C141.509 290.819 141.366 292.642 140.438 293.851C124.733 314.256 110.387 335.531 99.6861 359.059C95.1753 368.975 91.2836 379.166 87.0938 389.626C84.4057 398.309 81.58 406.563 79.1269 414.919C77.78 419.51 77.0636 424.285 76.0835 429.391C76.1064 429.81 76.0663 429.816 76.0491 429.821C75.4702 430.366 75.4931 431.088 75.3555 432.125Z" fill="#122023"/>
<path d="M46.463 457.006C35.3037 457.264 24.1099 457.258 12.429 457.178C13.4492 456.525 14.9508 455.47 16.4697 455.447C25.623 455.287 34.7764 455.356 44.4226 455.292C45.4199 455.74 45.9243 456.244 46.463 457.006Z" fill="#E1FF01"/>
<path d="M118.321 456.708C107.683 457.144 96.9247 457.212 85.6966 457.258C85.5131 456.656 85.8054 456.083 86.327 455.407C95.3829 455.327 104.204 455.287 113.025 455.401C114.756 455.418 116.475 456.009 118.321 456.708Z" fill="#E1FF01"/>
<path d="M9.64355 458.256C9.95306 458.536 10.0448 458.989 10.1307 459.792C9.88427 459.568 9.65502 458.995 9.64355 458.256Z" fill="#1C2284"/>
<path d="M119.77 460.353C119.633 460.13 119.73 459.935 120.057 459.522C120.326 459.585 120.389 459.86 120.367 460.135C120.355 460.233 120.126 460.302 119.77 460.353Z" fill="#E0DBC7"/>
<path d="M75.437 432.251C75.4084 431.741 75.5746 431.025 75.8898 430.062C75.9013 430.561 75.7637 431.306 75.437 432.251Z" fill="#E0DBC7"/>
<path d="M66.8739 443.422C66.9771 443.061 67.4356 443.256 67.6821 443.21C67.7566 444.036 67.5904 444.901 67.4241 445.772C67.2063 445.107 66.9885 444.448 66.8739 443.422Z" fill="#E0DBC7"/>
</svg>
