<svg width="1055" height="1109" viewBox="0 0 1055 1109" fill="none" xmlns="http://www.w3.org/2000/svg">
<path d="M251.61 747.19C242.16 738.34 230.64 734.57 220.79 727.97C170.89 694.55 132 652.42 106.98 596.84C78.84 534.34 47.8 473.14 17.94 411.41C8.87999 392.68 2.92 372.92 0.569999 352.42C-3.14 320.08 13.38 297.67 38.26 279.46C59.63 263.83 83.75 258.65 110.32 258.21C113.81 260.58 113.42 263.66 112.65 266.48C110 276.18 110.47 286.08 110.36 296.82C110.44 306.3 110.76 314.91 109.85 324.3C101.55 338.69 96.18 352.98 98.07 369.28C99.58 382.24 103.55 394.46 108.87 406.23C133.12 459.81 165.87 507.64 206.58 550.06C214.87 558.7 224.47 565.77 234.22 573.79C243.01 582.35 252.29 589.14 262.44 595.96C271.91 603.37 281.43 609.48 291.65 615.87C326.66 634.85 361.36 652.71 399.67 662C413.78 665.42 428.06 668.12 443.28 669.37C447.92 675.23 440.93 674.28 439.67 677.47C447.93 683.61 455.43 691.38 465.11 697.58C475.72 711.03 490.06 719.66 500.66 732.13C503.35 735.29 507.33 737.59 507.24 743.04C488.81 744.62 470.7 746.39 452.59 746.32C423.84 746.21 395.19 747.9 365.52 749.1C360.75 752.43 356.19 752.56 351.52 751.78C327.05 747.69 302.39 747.29 277.66 747.44C269.2 747.49 260.79 751.47 251.61 747.19Z" fill="#5C7A7D"/>
<path d="M262.91 598.32C252.01 592.48 242.87 585.53 234.61 576.56C234.28 572.43 235.87 569.46 237.54 565.799C246.05 557.179 252.95 548 261.54 540.43C266.68 535.9 271.61 531.09 278.9 528.33C282.67 527.33 285.8 527.31 289.71 527.25C318.5 525.95 345.36 518.969 372.73 510.659C384.77 507.599 391.53 497.82 401.91 492.21C429.13 487.29 455.34 481.45 482.16 474.56C504.92 469.92 526.77 464.93 549.42 459.76C563.9 456.5 577.31 452.34 591.07 449.5C598.19 448.03 605.19 447.049 613.18 448.719C645.56 450.169 666.36 468.659 686.26 491.039C735.44 546.359 781.41 604.389 830.46 659.789C832.64 662.249 834.21 665.249 836.43 667.659C842.87 674.659 841.62 680.99 835.35 687.28C832.8 689.83 830.66 692.79 828.16 696.25C822.66 708.41 812.34 716.09 805.45 726.38C804.51 727.78 802.6 727.83 800.22 727.15C772.03 697.78 746.18 667.249 719.5 637.479C695.02 610.159 672.51 581.149 647.06 554.659C631.3 538.249 613.46 532.81 590.71 535.58C545.44 541.07 500.99 551.26 455.86 557.31C428.36 560.99 401.05 565.73 373.76 570.62C340.91 576.51 308.49 584.319 277.07 595.789C272.72 597.389 268.52 599.49 262.91 598.32Z" fill="#254147"/>
<path d="M445.73 671.98C396.54 669.06 352.76 651.39 310.49 628.93C304.1 625.54 297.73 622.11 290.94 618.2C291.67 614.95 294.16 614.01 296.67 613.12C323.51 603.59 351.21 597.67 379.2 592.64C405.84 587.85 432.56 583.57 459.28 579.32C488.61 574.66 517.93 569.94 547.19 564.86C562.17 562.26 577.31 560.88 592.23 558.01C607.67 555.05 620.61 558.59 631.71 570.53C656.24 596.94 679.02 624.87 702.73 651.99C728.4 681.35 754.52 710.32 779.98 739.86C781.71 741.86 783.5 743.81 785.26 746.77C787.12 752.13 784.6 755.54 781.44 759.4C774.75 760.41 774.27 766.33 771.43 769.87C764.67 778.31 757.18 786.28 752.6 797.05C745.26 804.24 737.52 803.14 731.09 797.35C718.61 786.1 705.56 775.45 694.34 762.78C680.76 747.45 665.62 733.54 652.08 718.17C634.83 698.59 615.94 680.29 600.68 659.16C590.05 644.43 577.14 643.31 561.79 646.58C527.56 653.87 493.68 662.6 459.91 671.75C455.41 672.99 450.95 674.22 445.73 671.98Z" fill="#254147"/>
<path d="M316.84 200.03C333.36 204.32 346.5 213.1 358.9 223.32C376.31 237.66 389.77 255.2 401.34 275.2C413.86 293.52 418.27 314.15 423.73 334.39C426.39 344.25 428.22 354.24 429.27 365.17C429.31 367.6 429.26 369.48 428.11 370.61C415.16 383.36 406.75 399.5 395.73 413.69C394.3 415.53 392.68 417.13 389.46 417.32C385.87 415.8 384.5 413.09 382.72 410.73C376.39 402.33 368.12 397.93 357.4 397.51C345.02 397.03 333.13 398.45 321.56 403.09C313.92 406.15 305.98 408.43 298.14 410.95C282.83 415.87 270.18 411.07 258.71 401.56C247.57 392.32 239.97 380.39 234.52 367.05C223.5 340.11 216.63 311.87 208.38 284.06C206.41 277.41 204.31 270.83 201.79 263.57C195 240.47 183.46 221.49 164.07 207.85C162.19 206.53 160.28 205.22 159.11 202.35C179.8 194.58 200.6 187.53 222.18 180.5C233.28 185.23 241.22 193.43 250.8 199.28C266.4 208.8 282.46 214.86 301.22 213.84C309.75 213.37 314.34 211.24 314.64 201.67C315.34 200.62 315.71 200.27 316.84 200.03Z" fill="#EAE7D9"/>
<path d="M507.62 743.87C499.52 732.38 489.15 723.91 479.25 715.07C474.16 710.52 468.71 706.43 464.93 699.85C470.86 691.19 480.66 691.52 488.91 689.19C507.95 683.81 526.98 678.24 546.35 674.04C566.96 669.57 584.05 672.95 598.29 690.89C616.75 714.14 637.39 735.67 658.02 757.08C689.2 789.44 720.36 821.83 755.18 850.42C758.78 853.38 765.07 856.31 759.26 863.41C754.31 865.07 749.99 864.79 745.7 864.85C705.05 865.43 664.43 865.1 623.96 860.62C614.79 859.61 605.64 858.2 596.02 854.66C592.03 842.03 588.97 829.74 585.7 817.5C585.32 816.06 584.01 814.74 582.86 813.64C558.35 790.08 533.95 766.41 507.62 743.87Z" fill="#254147"/>
<path d="M595.26 855.08C610.68 853.29 625.93 856.9 641.13 858.58C666.82 861.42 692.38 861.599 718.04 861.719C731.9 861.789 745.76 861.539 760.53 861.129C763 860.039 764.56 860.029 766.87 861.099C773.2 886.499 779.96 911.229 785.35 936.319C787.88 948.099 781.65 952.48 773.74 956.9C768.11 960.04 762.16 962.62 755.81 965.81C753.95 969.8 750.41 969.969 746.74 971.349C726.26 979.089 706.08 985.189 685.76 990.829C682.29 991.789 678.74 992.68 674.3 992.56C661.79 991.04 651.06 997.299 639.38 996.849C629.38 996.469 623.97 991.98 621.96 982.02C614.5 945.04 607.87 907.89 598.69 871.26C597.44 866.21 597.04 860.89 595.26 855.08Z" fill="#254147"/>
<path d="M542.77 212.9C546.38 203.61 551.21 200.01 561.31 204.16C592.27 216.91 619.03 234.48 635.6 264.76C637.04 267.4 638.1 270.05 638.17 273.72C640.16 278.14 638.57 281.46 636.64 285.39C636.14 286.37 635.93 286.75 635.38 287.68C633.8 289.9 632.55 291.57 631.69 294.18C631.3 295.16 631.13 295.54 630.64 296.48C629.43 298.47 628.53 299.91 627.7 302.11C627.25 303.09 627.04 303.47 626.48 304.39C624.99 306.27 624.34 307.85 623.6 310.12C623.17 311.13 622.96 311.52 622.36 312.45C617.65 317.54 615.73 323.48 612.56 329.44C612.07 330.4 611.86 330.78 611.3 331.69C609.71 333.92 608.56 335.66 607.72 338.29C607.32 339.28 607.14 339.67 606.63 340.61C603.95 344.73 601.08 348.01 600.02 352.99C599.67 354 599.5 354.39 599.01 355.34C597.3 357.49 596.38 359.33 595.65 361.98C595.23 362.96 595.03 363.34 594.44 364.24C589.81 369.26 587.92 375.11 584.8 380.98C584.32 381.92 584.11 382.29 583.56 383.19C582 385.36 580.82 387.02 579.99 389.58C579.61 390.55 579.44 390.93 578.96 391.86C577.76 393.82 576.88 395.24 576.06 397.4C575.62 398.35 575.43 398.72 574.89 399.6C573.51 401.39 572.73 402.8 572.14 404.98C571.8 405.95 571.65 406.33 571.19 407.23C570.36 408.18 570.2 408.61 570.37 409.05C570.54 409.49 570.7 409.71 570.86 410.38C564.47 424.77 558.55 438.77 546.65 449.64C544.23 449.44 542.63 448.84 541.46 447.66C522.75 428.67 499.51 419.45 472.95 415.51C470.5 405.78 470.56 396.31 469.28 386.97C468.16 378.74 475.01 374.37 482.36 370.55C484.9 368.46 486.88 366.89 490.12 366.15C503.26 363.55 508.11 365.14 537.95 381.51C530.06 368.48 509.44 361.19 491.21 365.47C485.12 366.19 480.61 364.29 476.41 359.86C474.69 354.88 477.33 351.64 479.01 348.12C497.24 310.1 517.09 272.86 533.32 233.88C536.22 226.92 537.62 219.32 542.77 212.9Z" fill="#D4D4D4"/>
<path d="M317.6 199.26C317.6 200.15 316.9 200.05 316.58 200.21C312.18 203.58 308.19 201.61 304.08 200.29C279.18 192.28 265.44 160.21 268.73 137.11C260.49 144.43 251.76 149.93 239.54 145.19C238.07 110.96 230.68 78.2998 223.39 45.5398C218 21.2898 222.72 5.2198 256.11 1.3898C270.62 -0.280195 284.07 2.0898 295.09 13.0098C301.88 19.7398 309.25 18.3498 316.07 12.7198C334.8 -2.73019 372.78 12.8298 378.94 31.7698C383.26 45.0598 376.51 60.5798 362.85 64.9898C357.25 66.7998 351.38 67.7598 344.86 69.2498C337.44 73.7298 329.97 71.8398 322.87 71.9098C293.15 72.1798 285.23 81.4298 289.86 111.01C292.94 130.67 293.97 131.34 314.2 128.53C320.4 127.67 326.55 126.44 333.66 126C338.08 125.76 341.6 125.78 345.59 128.1C347.41 142.68 349.31 156.79 349.3 170.91C349.29 184.25 339.15 192.69 325.33 192.2C320.35 192.02 316.96 192.25 317.6 199.26Z" fill="#171717"/>
<path d="M546.04 450.03C556.11 437.58 561.56 422.96 569.88 409.29C569.95 408.28 569.84 407.95 570.09 407.24C570.46 406.86 570.32 406.86 570.34 406.93C572.18 404.95 571.93 402.01 573.94 399.39C574.43 398.95 574.3 398.91 574.33 398.97C576.44 397.13 576.32 394.25 577.95 391.47C578.38 390.98 578.26 390.98 578.3 391.03C580.42 389.19 580.3 386.31 581.93 383.53C582.36 383.04 582.24 383.03 582.28 383.08C587.21 377.5 588.9 370.03 593.81 363.66C594.32 363.2 594.19 363.16 594.21 363.22C596.05 361.25 595.79 358.3 597.8 355.69C598.29 355.25 598.16 355.21 598.18 355.27C600.16 350.16 603.68 345.73 605.76 339.87C606.21 339.34 606.09 339.34 606.13 339.39C608.25 337.55 608.13 334.67 609.75 331.89C610.18 331.4 610.06 331.39 610.1 331.44C615.03 325.87 616.72 318.39 621.63 312.02C622.14 311.56 622.01 311.52 622.03 311.58C623.87 309.6 623.61 306.66 625.62 304.05C626.11 303.61 625.98 303.57 626 303.63C627.62 301.57 628.06 298.93 629.62 296.12C630.05 295.64 629.93 295.64 629.96 295.69C632.08 293.85 631.96 290.97 633.59 288.19C634.02 287.7 633.9 287.7 633.93 287.75C637.06 284.68 638.23 280.36 641.15 276.38C650.14 255.06 665.82 240.88 685.95 232.46C716.02 219.89 746.73 208.85 777.15 197.13C779.37 196.27 781.55 195.89 784.51 196.97C762.2 240.85 737.53 283.22 711.76 325.75C710.23 326.38 709.12 326.61 708.33 326.12C694.89 317.71 680.75 317.9 665.54 322.72C663.11 323.42 661.31 323.78 658.99 324.68C654.47 326.6 650.42 328.02 647.05 331.82C643.2 335.46 646.06 338.72 646.37 342.6C643.84 346.08 640.02 346.77 636.84 349.6C635.24 351.49 635.3 353.24 634.98 355.59C632.6 361.44 634.18 366.18 637.53 369.97C645.14 378.58 643.21 386.55 636.94 394.68C634.94 397.27 633.37 400.18 630.86 403.28C604.64 415.94 581.91 433.02 557.94 448.06C555.14 449.82 552.34 451.56 548.18 451.64C547.02 451.27 546.61 451.01 546.04 450.03Z" fill="#A3A3A3"/>
<path d="M1011.75 730.25C1001.05 743.08 987.79 752.1 976.11 762.85C962.18 775.67 947.57 787.74 932.57 800.25C926.53 801.03 924.69 796.4 922.02 793.41C916.52 787.25 910.95 781.21 903.89 776.81C895.09 771.32 882.59 771.24 876.06 776.44C868.09 782.79 866.21 792.38 869.79 804.06C872.55 813.05 878.33 819.44 885.42 825.05C888.47 827.47 892.34 829.02 894.19 833.62C873.69 854.71 879.23 853.82 857.27 837.54C840.73 825.28 826.62 811.09 820.29 789.9C818.56 784.24 821.6 780.86 824.11 777.52C837.75 759.37 851.14 741.04 865.64 722.67C871.68 720.31 874.86 724.24 878.1 727.29C884.33 733.14 890.45 739.11 896.72 744.92C901.63 749.46 905.01 749.02 908.43 743.42C915.12 732.45 921.25 721.21 925.68 709.11C926.93 705.71 928.02 702.25 931.23 699.21C945.93 696.56 958.81 690.98 971.28 684.26C990.35 673.98 1009.83 666.14 1032.36 670.78C1037.74 671.89 1042.48 673.81 1046.6 676.84C1057.36 684.76 1057.64 692.01 1047.69 700.73C1037.59 709.58 1027.19 718.08 1016.24 726.79C1009.92 727.58 1008.63 722.46 1006.6 719.34C1001.66 711.75 995.99 704.77 989.76 696.89C997.8 708.29 1007.16 717.5 1011.75 730.25Z" fill="#EAE7D9"/>
<path d="M719.82 1099.32C710.84 1099.84 701.3 1102.11 694.03 1099.03C685.1 1095.24 690.67 1084.16 688.73 1076.47C684.72 1060.54 689.18 1044.49 689.52 1027.59C696.79 1021 705.91 1022.65 714.02 1020.41C733.37 1015.07 751.95 1008.01 770.29 998.59C771.04 998.81 771.94 998.88 772.39 998.93C776.59 1002.94 775.44 1007.61 774.28 1012C771.86 1021.23 771.48 1030.83 768.99 1040.04C767.23 1046.52 769.11 1049.11 776.41 1047.79C794.52 1044.52 812.38 1040.38 830.66 1034.64C837.59 1043.75 847.82 1045.86 857.33 1048.22C878.07 1053.38 897.3 1060.81 911.96 1077.22C916.17 1081.94 919.64 1087.02 920.99 1093.29C922.79 1101.62 917.57 1108.26 909.3 1107.18C895.49 1105.38 881.62 1106.56 866.87 1105.55C862.16 1093.61 865.54 1081.45 864.26 1071.61C863.22 1080.82 865.96 1092.31 862.28 1103.94C829.89 1104.04 798.16 1103.77 765.47 1103.39C761.53 1099.54 762.45 1095.09 762.35 1090.87C762.07 1078.75 758.71 1067.35 753.61 1056.56C749.07 1046.96 738.99 1041.63 731.21 1043.72C722.33 1046.11 717.02 1054.95 715.75 1065.63C714.38 1077.24 720.22 1087.5 719.82 1099.32Z" fill="#EAE7D9"/>
<path d="M767.54 860.67C766.05 861.36 764.51 861.24 762.21 860.98C753.22 849.02 740.56 842.03 730.28 832.43C691.26 795.98 654.18 757.66 618.56 717.91C609.12 707.38 599.42 697.07 590.52 686.1C579.57 672.6 564.68 673.28 550.53 675.69C533.49 678.59 516.9 684.19 500.17 688.81C488.83 691.94 477.59 695.42 465.55 698.96C452.67 694.24 445.51 682.73 432.98 676.35C437.6 674.71 440.88 673.54 444.64 671.94C465.49 669.61 484.51 662.03 504.25 657.46C529.48 651.61 554.41 644.52 580.28 641.78C585.88 641.19 589.88 643.61 593.18 647.49C626.55 686.73 661.28 724.73 696.88 761.95C708.31 773.89 720.78 784.67 732.77 795.98C738.73 801.61 744.72 799.43 751.77 797.81C755.9 811.9 759.26 826 762.65 840.09C764.24 846.69 765.87 853.27 767.54 860.67Z" fill="#111F22"/>
<path d="M250.25 746.94C269.27 745.32 287.61 743.37 305.99 744.66C321.95 745.78 338.1 745.25 353.79 749.5C356.82 750.32 360.25 749.68 364.01 749.33C368.29 756.76 376.98 755.16 383.14 757.8C418.96 773.17 441.38 799.65 453.3 836.25C467.13 878.74 470.21 923.07 477.35 966.76C482.44 997.91 482.97 1030.42 499 1059.03C509.92 1078.53 524.76 1093.33 547.75 1098.01C556.11 1099.71 564.12 1099.54 571.98 1096.11C578.1 1093.44 582.23 1089.61 582.29 1082.16C582.35 1075.01 577.17 1073.39 572.31 1070.9C566.08 1067.7 559.44 1068.41 552.86 1068.34C549.85 1068.31 546.5 1068.6 546.51 1064.18C546.53 1059.53 550.24 1060.21 553 1060.35C561.11 1060.75 569.25 1058.98 577.24 1063.08C585.84 1067.49 591.91 1073.43 591.48 1083.19C591.05 1093.04 585.56 1099.89 576.2 1104.27C560.65 1111.55 545.74 1108.23 531.42 1101.96C505.38 1090.55 492.32 1068.14 482.71 1042.7C471.95 1014.21 472.02 983.98 467.13 954.56C462.16 924.74 458.85 894.6 452.75 865.03C444.2 823.57 426.61 787.55 385.27 768.54C366.22 759.78 345.91 755.97 325.32 754.75C305.2 753.56 284.84 753.13 264.8 754.81C231.65 757.58 206.63 771.69 198.9 809.95C191.69 845.62 186.29 881.66 178.6 917.21C170.03 956.83 157.36 995.14 131.22 1027.23C118.69 1042.61 103.68 1054.13 81.8799 1052.57C69.8599 1051.71 57.7699 1043.88 55.8399 1034.23C53.4199 1022.13 60.1899 1010.42 72.7799 1005.64C75.4299 1004.63 78.5999 1004.88 81.5399 1004.75C83.7199 1004.66 85.4299 1005.59 85.5999 1008.06C85.7599 1010.34 84.4099 1012.39 82.4799 1012.48C78.1999 1012.68 75.1099 1015.39 71.6199 1017.04C66.9399 1019.26 63.7899 1023.8 64.1699 1028.91C64.5599 1034.14 67.3199 1038.28 72.9399 1040.83C90.1199 1048.63 103.5 1041.1 115.5 1030.34C134.75 1013.08 145.61 990.07 154.85 966.65C166.9 936.12 172.11 903.61 178.53 871.59C182.84 850.08 184.97 828.14 190.12 806.71C197.32 776.77 214.6 756.77 244.84 748.82C246.45 748.41 247.99 747.8 250.25 746.94Z" fill="#110C49"/>
<path d="M491.18 366.5C489.18 368.27 487.51 369.54 485.25 371.07C474.35 377.76 461.71 376.1 450.92 380.89C452.49 380.43 453.96 379.69 455.54 379.2C467.35 375.53 469.46 377.29 467.96 390.55C460.26 394.25 451.75 392.02 445.51 396.18C451.37 393.45 458.44 392.84 466.24 392.47C470.7 402.23 468.98 405.13 458.1 407.34C463.84 405.93 466.81 409.28 469.43 414.31C466.63 433.31 458.6 448.03 439.76 455.76C428.04 459.06 417.68 464.17 405.53 466.13C403.75 465.94 402.45 465.92 401.99 465.16C393.28 450.78 385.84 436 388.87 417.72C398.99 407.65 405.17 395.69 412.84 384.87C417.12 378.83 422.03 373.8 428.09 368.75C436.28 359.25 445.83 355.15 458.52 358.02C460.7 358.57 462.12 358.79 464.24 358.84C468.27 356.53 471.72 356.17 476.03 358.53C480.95 360.92 485.16 362.74 489.96 364.91C490.86 365.5 491.18 365.74 491.18 366.5Z" fill="#83493B"/>
<path d="M158.26 201.7C181.48 215.12 195.78 234.79 203.11 260.54C200.04 266.58 194.15 267.69 189.25 269.97C166.62 280.52 143.55 290.02 119.73 297.6C116.32 298.69 112.83 299.88 108.47 298.48C106.33 285.05 108.22 272.35 111.24 258.99C117.79 239.8 126.43 222.85 142.77 210.75C147.49 207.26 152.42 204.45 158.26 201.7Z" fill="#5F6B00"/>
<path d="M662.75 322.51C679.14 314.77 695.05 313.56 710.57 325.8C718.7 339.48 708.96 348.96 703.65 359.19C688.72 388.01 661.95 401.57 632.77 413.04C628.8 411.13 627.76 408.12 629.29 403.61C630.62 401.18 631.27 399.32 632.41 397.83C639.98 387.92 644.18 378.14 633.4 367.45C629.9 363.98 629.22 359.42 633.91 354.91C646.32 351.82 652.95 359.4 658.71 366.37C655.07 355.5 642.66 355.48 633.84 349.22C637.18 347.05 639.78 343.59 644.66 343.21C653.03 344.57 660.21 348 667.96 349.3C661.41 347.29 654.44 346.28 648.9 341.82C646.01 339.5 644.1 336.46 644.66 331.81C647.41 326.28 652.6 325.57 657.65 323.34C663.63 324.64 664.65 330.72 669.05 332.95C674.51 335.73 680.17 337.98 685.24 337.45C676.41 336.26 666.99 334.07 662.75 322.51Z" fill="#83493B"/>
<path d="M864.69 721.38C859.68 737.8 847.49 748.98 838.3 762.27C832.4 770.82 826.39 779.29 820.33 788.45C815.35 791.92 812.91 787.5 810.12 785.3C800.29 777.51 790.75 769.34 780.94 760.6C779.96 755.73 783.76 753.45 784.87 749.35C787.5 739.79 794.05 733.69 800.51 726.83C809.74 716.93 818.3 707.27 827.41 697.28C839.72 704.67 851.45 712.4 864.69 721.38Z" fill="#A3A3A3"/>
<path d="M238.79 145.58C250.64 145.95 260.98 143.27 269.64 132.62C271.81 164.84 278.23 192.9 315.46 200.32C316.13 203.34 315.8 206.31 315.91 209.27C316.11 215 313.1 215.87 307.94 216.4C273.45 219.97 247.6 202.95 223.16 181.15C241.53 175.33 238.67 160.25 238.79 145.58Z" fill="#83493B"/>
<path d="M334.32 128.219C322.07 130.059 310.32 131.449 298.55 132.749C293.54 133.299 291.08 131.559 289.85 125.999C287.63 115.939 286.04 105.959 286.31 95.6394C286.76 78.3194 294.16 70.2094 311.47 69.3594C321.7 68.8594 331.96 69.2094 343.15 69.2894C344.63 76.6994 345.18 83.9894 345.6 92.1594C341.62 96.3294 342.86 99.9994 345.13 104.229C345.7 110.199 345.85 115.659 345.87 122.019C340.37 123.629 340.36 118.119 337.07 115.499C335.55 119.569 337.3 124.139 334.32 128.219Z" fill="#83493B"/>
<path d="M931.28 698.39C926.29 716.01 918.6 732.06 908.87 747.3C904.58 754.02 901.73 753.01 896.82 748.45C887.27 739.58 878.69 729.61 866.93 722.52C866.21 722.63 866.27 722.68 866.29 722.71C865.89 722.23 865.44 721.75 864.59 720.97C864.22 720.64 864.31 720.73 864.35 720.77C865.73 708.76 871.12 697.82 873.92 686.17C874.61 683.31 876.7 682.44 879.15 683.13C896.37 687.98 913.53 692.97 931.28 698.39Z" fill="#9F9B8D"/>
<path d="M831.06 1033.86C829.03 1039.39 824.22 1039.31 819.86 1040.64C805.12 1045.13 790.02 1047.92 774.96 1050.96C764.93 1052.98 763.26 1051.39 765.49 1041.12C767.86 1030.25 770.29 1019.4 772.51 1008.5C773.03 1005.95 772.8 1003.25 772.88 999.79C782.7 995.7 792.48 992.21 802.43 989.31C806.91 988 810.58 988.05 812.99 994.36C818.07 1007.62 824.7 1020.28 831.06 1033.86Z" fill="#9F9B8D"/>
<path d="M770.86 998.099C747.13 1015.76 719.63 1022.58 690.44 1026.83C686.19 1019.3 682.77 1011.89 679.1 1003.79C681.65 999.149 686.17 999.329 690.22 998.299C710.28 993.189 730.35 988.049 744.39 969.829C747.88 968.369 750.82 967.419 754.52 966.319C760.41 976.579 765.54 986.989 770.86 998.099Z" fill="#A3A3A3"/>
<path d="M629.03 402.939C630.4 405.849 631.06 408.829 631.91 412.559C631.51 427.549 627.3 439.949 614.22 448.469C592.93 451.299 572.43 456.159 551.42 462.149C547.62 459.359 545.24 456.299 546.13 451.269C557.11 447.519 565.38 440.399 574.26 434.479C591.65 422.879 609.19 411.589 629.03 402.939Z" fill="#5F6B00"/>
<path d="M928.3 804.14C918.47 813.28 908.99 821.7 898.81 830.16C897.53 830.54 896.84 831.07 896.31 830.9C882.78 826.76 864.74 808.64 868.1 790.49C871.46 772.35 884.58 768.6 898.33 773.82C912 779.02 922.16 789.83 928.3 804.14Z" fill="#9F9B8D"/>
<path d="M761.01 1101.86C748.73 1102.22 737.18 1102.13 724.75 1102.05C716.12 1089.14 713.93 1075.02 715.66 1060.34C716.64 1052.03 724.95 1043.61 732.66 1042.97C742.44 1042.16 749.71 1048.17 753.5 1055.76C760.55 1069.91 765.35 1085.06 761.01 1101.86Z" fill="#9F9B8D"/>
<path d="M476.84 358.369C473.36 359.059 469.98 359.029 465.77 358.839C474.18 336.929 486.4 316.639 495.61 294.829C505.8 270.729 516.2 246.75 523.8 221.669C527.73 208.699 528.52 208.339 542.67 212.539C535.82 238.009 523.93 261.449 512.66 285.129C501.09 309.469 488.87 333.489 476.84 358.369Z" fill="#A3A3A3"/>
<path d="M459.04 357.76C448.39 358.14 439.18 363.33 429.07 367.87C423.64 353.19 422.49 337.4 417.91 322.25C413.27 306.91 408.34 291.81 401.63 276.55C410.87 284.31 416.08 295.66 422.84 305.89C434.36 323.32 445.52 340.99 459.04 357.76Z" fill="#7C8C01"/>
<path d="M744.22 969.33C740.7 982.54 729.46 988.07 718 992.57C705.95 997.3 693.5 1001.13 679.7 1002.99C677.16 1000.01 675.46 996.92 673.65 993.14C684.79 986.39 697.65 985.46 709.55 981.31C720.88 977.35 732.4 973.94 744.22 969.33Z" fill="#525252"/>
<path d="M928.71 804.9C921.47 794.13 913.38 785.13 902.75 778.08C894.14 772.37 878.77 774 874.5 779.6C868.29 787.76 867.95 801.22 874.7 810.95C880.41 819.18 887.94 825.34 897.39 830.17C898.7 832.31 898.89 834.19 895.07 834.24C883.43 826.16 871.38 819.26 867.48 804.51C863.85 790.78 866.15 780.24 875.37 773.86C883.89 767.96 897.7 768.74 907.59 775.93C916.65 782.51 923.35 791.44 931.26 800.07C931.56 802.14 932.67 804.69 928.71 804.9Z" fill="#CCC7B5"/>
<path d="M760.61 1102.86C762.1 1086.95 759.07 1072.31 752.76 1058.43C748.71 1049.54 738.27 1043.49 731.76 1045.07C723.06 1047.17 718.08 1055.78 717.26 1067.06C716.4 1078.97 720.96 1089.48 723.86 1101.27C722.19 1102.92 721.39 1101.75 719.97 1100.3C716.26 1088.64 712.06 1077.67 713.05 1065.43C713.99 1053.84 720.49 1043.89 730.71 1041.07C739.11 1038.75 750.41 1044.57 755.6 1054.8C763.03 1069.45 765.87 1085.16 764.55 1102.44C763.33 1103.33 762.14 1103.36 760.61 1102.86Z" fill="#9F9B8D"/>
<path d="M1012.07 730.85C1003.52 716.92 993.47 704.63 984.03 691.78C997.98 699.89 1004.59 714.47 1014.9 726.6C1015.27 728.63 1015.85 731.01 1012.07 730.85Z" fill="#9F9B8D"/>
<path d="M861.95 1104.96C861.64 1088.64 861.64 1072.94 861.64 1057.25C863.1 1057.22 864.56 1057.19 866.02 1057.15C866.02 1072.67 866.02 1088.18 865.98 1104.58C864.72 1105.97 863.53 1107.05 861.95 1104.96Z" fill="#9F9B8D"/>
<path d="M334.73 128.729C333.84 122.539 333.84 116.369 333.84 109.439C341.05 111.749 340.51 118.849 345.17 122.549C345.99 124.339 346.23 125.739 346.41 127.859C342.77 128.629 339.2 128.689 334.73 128.729Z" fill="#110C49"/>
<path d="M345.68 103.92C340.13 101.49 336.15 98.0498 344.75 93.0498C345.59 96.3798 345.7 99.7398 345.68 103.92Z" fill="#09093E"/>
<path d="M640.9 275.719C640.32 280.309 638.89 284.639 634.63 287.829C635.27 283.869 636.6 279.959 637.97 275.229C638.77 274.809 639.52 275.189 640.9 275.719Z" fill="#110C49"/>
<path d="M107.69 298.92C137.08 290.71 164.39 278.24 191.76 265.94C195.04 264.47 198.37 263.11 202.42 261.49C209.25 272.32 211.1 284.74 214.71 296.58C223.19 324.43 229.38 353.09 243.22 379.04C248.84 389.57 256.97 398.14 267.12 404.68C281.31 413.81 295.41 409.63 309.65 404.78C322.93 400.26 335.73 394.53 350.35 394.24C367.84 393.9 381.03 399.64 389.14 416.44C389.43 434.26 396.12 449.46 404.09 464.84C410.29 473.84 409.61 483.59 402.09 493.45C394.17 500.88 387.61 508.66 376.88 511.85C370.22 508.43 369.7 501.71 367.52 496.01C363.99 486.79 362.13 476.89 356.12 468.7C354.36 466.3 352.92 463.61 350.53 461.79C337.42 451.82 323.64 454.9 310.09 460.37C298.01 465.25 289.4 473.27 288.95 487.51C288.66 496.8 289.23 505.98 291.32 515.07C292.34 519.53 293.73 524.1 290.77 529.2C286.63 530.05 282.97 530.29 278.41 530.73C261.32 535.13 245.46 532.17 228.78 528.6C223.09 527.23 218.44 525.54 214.05 521.64C211.9 512.47 216.22 504.94 217.9 497.04C220.43 485.16 223.52 473.36 227.41 461.8C229.74 454.89 228.28 449.29 222.7 444.05C212.14 434.12 202.81 422.95 193.66 411.76C187.22 403.89 180.68 403.49 171.93 406.42C157.91 411.12 144.22 416.93 128.86 419.64C120.76 408.18 118.97 394.96 115.4 382.45C110.43 365.07 106.99 347.32 107.16 328.3C107.43 318.28 107.5 309.04 107.69 298.92Z" fill="#7C8C01"/>
<path d="M801.01 725.92C797.09 734.36 791.54 741.11 785.55 748.3C759.47 720.07 733.76 691.68 708.54 662.87C685.23 636.24 661.7 609.74 639.65 582.07C624.28 562.78 606.82 556.91 582.6 561.71C544.94 569.18 506.6 573.15 468.82 580.07C440.06 585.33 411.1 589.4 382.36 594.83C351.72 600.61 321.4 607.05 291.25 617.54C281.22 611.7 271.32 606.57 262.55 598.66C304.54 581.7 348.72 571.96 393.29 564.16C433.77 557.07 474.56 551.89 515.03 544.52C542.19 539.57 569.39 534.55 596.98 532.1C614.28 530.57 629.01 534.76 642.32 546.51C660.88 562.89 675.47 582.7 691.59 601.15C727.46 642.18 762.85 683.62 800.01 723.5C800.43 723.95 800.57 724.66 801.01 725.92Z" fill="#E1FF01"/>
<path d="M106.74 327.8C112.1 340.27 111.27 354.01 114.6 367.13C118.29 381.66 121.52 396.27 126.59 410.42C127.46 412.84 127.57 415.54 128.7 418.49C133.49 420.43 133.53 424.5 134.78 427.77C145.23 455.15 158.2 480.77 181.87 499.59C191.75 507.45 203.54 511.98 213.98 519.98C218.03 522.21 221.72 523.81 226.04 525.7C232.47 538.35 238.33 550.7 239.3 565.26C238.93 569.38 237.64 572.31 234.99 575.4C219.31 567.46 207.22 555.2 195.86 542.59C167.2 510.77 142.01 476.35 121.88 438.37C111.57 418.92 101.02 399.42 96.65 377.79C93.15 360.5 94.16 342.96 106.74 327.8Z" fill="#1A2223"/>
<path d="M291.16 529.93C290.99 517.21 285.67 505.37 286.1 492.64C286.79 472.11 297.06 458.89 317.41 454.63C344.67 448.92 357.35 456.64 366.03 483.84C368.92 492.89 372.45 501.73 375.96 511.37C348.88 521.38 320.99 528.21 291.16 529.93Z" fill="#5F6B00"/>
<path d="M546.37 450.35C547.9 454.02 549.22 457.37 550.6 461.41C528.84 467.02 507.03 471.94 484.43 476.98C465.02 477.6 449.5 471.38 438.22 455.23C448.93 448.33 458.76 441.6 463.73 429.33C465.51 424.94 462.7 419.1 468.58 415.52C469.74 414.26 470.55 413.88 472.16 414.18C501.6 415.65 525.52 427.12 545.33 448.91C545.88 449.31 546.17 450.03 546.37 450.35Z" fill="#7C8C01"/>
<path d="M437.52 454.479C449.94 467.499 464.97 474 482.83 476.82C459.11 482.75 434.58 488.41 410.02 493.96C407.81 494.46 405.42 494.15 402.26 494.14C405.51 485.38 406.42 476.269 404.88 466.039C415.38 461.659 426.1 458.089 437.52 454.479Z" fill="#EAE7D9"/>
<path d="M239.6 565.9C234.84 553.18 230.76 540.39 226.67 526.8C242.97 528.45 259.24 531.39 276.68 530.72C262.68 540 252.23 553.72 239.6 565.9Z" fill="#EAE7D9"/>
<path d="M586.21 261.79C580.14 254.89 572.33 252 565.08 248.24C562.61 246.95 559.94 245.45 560.93 242.45C562.2 238.63 566.14 239.43 568.53 240.53C584.01 247.62 597.49 257.01 604.64 273.4C606.03 276.6 606.49 279.18 603.09 280.89C599.59 282.65 599.02 279.78 597.59 277.4C594.42 272.07 591.52 266.46 586.21 261.79Z" fill="#262626"/>
<path d="M472.84 413.719C471.96 414.629 471.14 414.749 469.7 414.929C464.7 407.359 457.2 409.449 448.37 410.359C455.49 403.729 469.42 408.839 466.95 394.079C466.61 392.849 466.29 392.429 466.47 391.389C467.3 377.619 466.95 377.289 455.01 381.199C451.58 382.319 448.29 383.689 442.83 381.779C456.72 375.889 470.28 374.829 483.9 371.279C483.59 374.169 480.81 374.339 478.57 375.559C472.9 378.639 469.75 383.719 471.84 390.139C474.31 397.759 475.09 405.209 472.84 413.719Z" fill="#262626"/>
<path d="M513.54 383.65C521.21 388.15 528.92 391.2 534.69 397.17C536.26 398.79 539.82 400.23 536.65 403.4C534.67 405.37 532.47 404.88 530.4 403.42C518.56 395.1 506.31 387.81 491.47 386.03C488.91 385.72 484.88 384.31 485.7 380.56C486.6 376.43 490.18 378.79 492.93 378.59C500.19 378.08 506.03 382.6 513.54 383.65Z" fill="#262626"/>
<path d="M491.71 367.049C490.86 367.009 490.71 366.129 490.63 365.689C491.39 360.739 494.89 361.089 498.21 361.009C514.53 360.619 528.22 366.879 540.03 377.699C542.02 379.519 545.63 381.439 543.03 384.919C540.16 388.759 537.74 385.179 535.67 383.549C522.99 373.559 508.96 367.269 491.71 367.049Z" fill="#262626"/>
<path d="M550.44 325.369C543.36 320.599 536.71 316.389 530.03 312.209C527.67 310.729 523.63 310.029 525.8 305.989C527.91 302.069 530.9 304.809 533.49 305.869C546.46 311.189 557.2 319.739 567.2 329.329C569.08 331.129 571.6 333.319 569.43 336.019C567.08 338.949 564.69 336.369 562.65 334.869C558.67 331.959 554.78 328.929 550.44 325.369Z" fill="#262626"/>
<path d="M555.45 288.43C552.37 287.7 550.76 286.11 549.16 284.39C548.04 283.18 546.48 282.22 547.47 280.3C548.57 278.14 550.31 278.13 552.49 278.77C559.62 280.87 565.31 285.25 570.7 290.07C575.6 294.45 580.42 298.93 585.06 303.59C586.8 305.34 587.17 308.13 585.38 309.92C582.84 312.45 581.24 309.36 579.83 307.98C572.5 300.83 564.34 294.75 555.45 288.43Z" fill="#262626"/>
<path d="M532.61 357.19C528.14 354.93 524.29 353.07 520.54 351.02C518.4 349.85 518.37 347.83 519.44 345.93C520.36 344.29 521.83 344.04 523.65 344.77C529.97 347.32 536.68 348.96 542.08 353.58C544.64 355.77 548.24 357.9 545.68 361.42C543.06 365.02 540 362.61 537.45 360.11C536.3 358.98 534.68 358.35 532.61 357.19Z" fill="#262626"/>
<path d="M621.39 311.57C619.96 318.97 616.25 325.57 610.81 331.56C612.19 324.09 614.98 317.07 621.39 311.57Z" fill="#110C49"/>
<path d="M593.58 363.21C592.1 370.59 588.48 377.23 583 383.2C584.39 375.74 587.16 368.7 593.58 363.21Z" fill="#110C49"/>
<path d="M605.53 339.6C606.92 345.79 602.22 349.88 598.82 355.08C597.1 348.74 601.27 344.42 605.53 339.6Z" fill="#110C49"/>
<path d="M633.34 287.97C634.25 290.68 634.42 293.64 630.68 295.64C629.7 292.81 630.02 290.09 633.34 287.97Z" fill="#110C49"/>
<path d="M625.33 303.68C626.24 306.5 625.32 308.99 622.62 311.33C622.12 308.76 620.83 305.44 625.33 303.68Z" fill="#110C49"/>
<path d="M573.69 399.04C574.69 401.89 573.7 404.34 570.96 406.68C570.55 404.15 569.24 400.81 573.69 399.04Z" fill="#110C49"/>
<path d="M609.51 331.67C610.6 334.46 610.62 337.38 606.87 339.38C605.86 336.5 606.23 333.81 609.51 331.67Z" fill="#110C49"/>
<path d="M577.72 391.24C578.5 393.9 578.68 396.84 575.03 398.87C574.08 396.1 574.32 393.35 577.72 391.24Z" fill="#110C49"/>
<path d="M581.7 383.32C582.73 386.08 582.9 389.05 579.06 391.03C578.06 388.15 578.42 385.45 581.7 383.32Z" fill="#110C49"/>
<path d="M597.52 355.32C598.45 358.15 597.44 360.6 594.8 362.97C594.29 360.4 593.03 357.08 597.52 355.32Z" fill="#110C49"/>
<path d="M629.36 295.89C630.28 298.57 629.71 301.22 626.63 303.44C625.71 300.75 625.93 297.99 629.36 295.89Z" fill="#110C49"/>
<path d="M570.1 406.96C570.46 406.85 570.32 407.739 570.19 408.179C569.77 408.269 569.47 407.929 569.21 407.549C569.19 407.519 569.55 407.24 570.1 406.96Z" fill="#110C49"/>
<path d="M264.49 124.8C254.73 120.94 253.32 113.43 254.7 105.17C255.59 99.8496 259.69 97.1996 265.09 96.5096C267.4 96.2096 270.06 95.0396 270.14 98.6696C270.33 107.15 270.43 115.66 269.95 124.13C269.78 126.94 266.98 125.48 264.49 124.8Z" fill="#83493B"/>
<path d="M644.21 331.27C649.45 347.09 665.11 344.15 676.01 349.88C665.3 352.22 655.5 349.68 645.74 343.74C644.17 339.3 638.48 336.17 644.21 331.27Z" fill="#262626"/>
<path d="M662.3 321.65C669.26 332.74 680.56 335.15 691.93 337.44C675.33 341.42 666.65 337.67 658.8 323.71C659.05 321.71 660.23 321.21 662.3 321.65Z" fill="#262626"/>
<path d="M633.16 348.939C646.44 352.089 659.05 355.939 662.51 371.359C662.7 372.199 662.54 373.129 661.87 374.679C655.93 364.209 648.34 356.179 635.18 354.589C633.88 352.719 633.31 351.019 633.16 348.939Z" fill="#262626"/>
<path d="M466.1 390.82C466.96 391.18 466.96 391.6 466.94 392.64C457.51 395.03 448.1 396.79 438.7 398.55C447.09 393.97 455.65 390.41 466.1 390.82Z" fill="#262626"/>
<path d="M864.29 721.21C864.98 720.9 865.74 721.17 866.41 722.09C865.66 722.42 865.01 722.1 864.29 721.21Z" fill="#C2A896"/>
<path d="M310.02 108.65C305.29 106.79 304.45 103.98 308.07 101.46C310.01 100.11 313.97 99.94 315.23 102.18C317.46 106.14 314.26 107.82 310.02 108.65Z" fill="#09093E"/>
<path d="M214.49 519.82C174.19 505.27 150 475.01 135.31 435.92C133.36 430.74 131.58 425.5 129.55 419.58C146.14 411.23 163.95 406.73 181.44 401.25C185.57 399.95 188.26 402.35 190.8 405.14C203.42 419.04 216.05 432.92 228.73 446.75C231.34 449.59 232.43 452.15 231.24 456.4C225.43 477.19 220.13 498.13 214.49 519.82Z" fill="#5F6B00"/>
</svg>
