<svg width="695" height="1091" viewBox="0 0 695 1091" fill="none" xmlns="http://www.w3.org/2000/svg">
<path d="M440.84 177.44C464.34 185.43 486.45 195.49 506.98 208.92C544.44 233.42 574.72 264.61 596.92 303.6C613.2 332.19 624.23 362.79 627.18 395.37C630.88 436.19 624.57 475.43 592.05 504.33C581.31 513.87 579.94 521.01 582.35 534.55C590.38 579.61 595.94 625.11 594.36 671.12C593.95 682.91 596.32 694.52 596.34 706.36C596.39 739.68 574.35 763.44 542.52 765.41C537.93 765.7 533.5 767.75 527.94 767.15C521 771.76 513.88 770.32 507.32 769.5C496.14 768.09 484.97 767.93 473.79 768.16C451.84 768.6 432.02 762.05 414.2 749.68C392.14 734.37 383.37 711.63 382.69 686.06C382.01 660.27 382.22 634.43 380.33 608.7C377.41 569.01 379.76 529.12 375.2 489.5C374.1 479.94 374.85 470.23 374.95 459.73C375.26 440.19 374.25 421.54 373.62 402.1C376.96 394.09 383.76 390.4 389.39 385.66C415.86 363.4 435.83 336.7 447.42 303.84C450.13 296.15 449.43 290.05 444.18 284.08C442.13 281.75 440.43 279.11 438.3 276.85C431.21 269.35 429.39 261.07 430.4 250.46C432.34 230.09 435 209.8 436.93 189.43C437.32 185.43 438.07 181.43 440.84 177.44Z" fill="#F1EEE5"/>
<path d="M211.11 326.79C222.38 307.37 233.69 288.58 246.52 270.76C259.73 252.42 273.57 234.49 289.41 218.44C298.85 208.87 308.02 198.47 321.04 192.07C324.84 195.59 322.96 198.92 321.24 202.3C316.16 212.3 311.81 222.62 308.67 233.39C304.51 247.64 309.28 256.07 323.65 260.17C324.85 260.51 323.37 260.03 324.56 260.39C329.17 261.81 336.19 262.09 335.98 267.72C335.8 272.36 328.85 271.2 324.86 272.02C307.6 275.53 302.74 283.37 304.62 301.19C307.85 331.73 318.2 359.09 337.98 383.63C338.16 408.82 334.87 433.14 335.63 458.46C336.84 473.37 334.57 487.31 333.48 501.19C331.31 528.8 332.67 556.48 330.29 584.07C327.19 619.99 327.75 656.1 325.92 692.92C323.86 705.3 324.43 717.45 317.54 728.63C299.63 756.83 273.16 767.01 242 767.87C232.39 768.14 222.82 768.02 213.23 769.35C199.89 771.2 186.64 768.55 173.4 767.08C170.03 766.71 166.73 765.52 163.78 762.22C151.87 756.17 142.02 748.91 135.92 737.54C132.13 730.47 129.19 723.13 129.26 714.78C129.43 694.88 127.92 674.85 129.68 655.1C131.78 631.45 133.16 607.73 135.97 584.1C139.14 557.41 143.32 530.96 148.01 504.55C149.73 494.85 151.7 485.19 153.58 474.75C154.78 459.22 160.52 445.68 165.03 431.84C175.92 398.41 187.77 365.34 205.69 334.84C206.3 333.8 206.47 332.48 207.36 330.74C207.75 330.13 207.76 330.17 207.74 330.16C208.74 329.19 209.76 328.19 211.11 326.79Z" fill="#FCFBF9"/>
<path d="M322.83 697.15C323.22 678.17 324.76 659.29 325.26 640.39C326.7 585.13 328.93 529.92 332.61 474.77C332.92 470.13 332.84 465.45 333.07 459.95C336.71 455.65 341.25 455.98 345.51 456.18C355.68 456.64 366 454.4 376.68 458.47C377.7 499.49 381.51 539.76 381.77 580.22C382 616.55 384.93 652.85 385.55 689.24C386.18 725.99 411.83 753.67 447.57 761.88C473.39 767.81 499.5 764.91 526.28 767.02C555.16 818.81 583.16 870.46 611.31 922.03C612.78 924.72 613.07 927.19 612.89 930.73C610.55 937.25 604.93 938.98 600.02 941.43C583.27 949.78 565.5 955.4 546.85 960.64C525.3 964.78 507.59 957.74 492.03 944.49C472.33 927.72 455.15 908.52 439.51 887.96C415.97 857.01 394.94 824.46 377.38 789.71C373.6 782.22 370.24 774.55 366.82 766.14C355.7 740.11 345.96 714.35 339.99 687.29C339.44 684.77 339.63 680.64 336.55 680.36C333.73 680.11 333 684.16 331.34 686.32C328.63 689.87 328.72 695.46 322.83 697.15Z" fill="#579AA8"/>
<path d="M163.19 762.48C190.19 770.23 217.73 765.27 245.06 765.36C258.61 765.4 271.15 761.66 283.28 756.35C296.71 750.47 307.01 740.82 315.36 728.28C319.36 731.48 318.45 735.56 317.85 739.51C316.59 747.77 314.83 755.96 315.03 765.24C311.72 795.36 311.98 824.88 308.85 854.14C308.15 860.64 307.7 867.11 307.82 873.62C308.49 911.77 303.37 949.72 303.9 987.86C303.93 989.72 303.52 991.56 302.44 994.1C298.45 998.43 293.75 999.05 289.13 999.37C267.03 1000.92 245.19 998 223.37 995.03C221.52 994.78 219.81 993.97 217.66 992.25C195.97 985.46 186.62 969.32 181.57 949.65C170.8 907.73 168.37 864.84 166.61 821.86C165.8 802.33 164.31 782.82 163.19 762.48Z" fill="#579AA8"/>
<path d="M216.77 992.23C237.5 993.79 257.85 997.18 278.53 996.81C285.32 996.69 292.06 996.6 299.41 994.92C304.75 997.29 303.72 1001.74 303.79 1005.52C304.01 1017.57 304.35 1029.65 303.74 1041.68C302.9 1058.29 297.37 1072.51 280.31 1080.61C275.24 1082.2 270.87 1082.03 266.53 1082.03C214.33 1082.05 162.14 1082.09 109.94 1081.98C104.19 1081.97 97.94 1083.17 92.96 1077.1C85.07 1068.96 87.98 1061.21 91.32 1053.23C95.7 1042.79 104.43 1038.71 114.62 1038.14C127.92 1037.4 141.31 1038.24 154.64 1037.83C172.61 1037.28 189.22 1032.88 201.94 1018.94C208.86 1011.38 213.5 1002.57 216.77 992.23Z" fill="#CDE801"/>
<path d="M545.23 959.7C558.39 953.06 572.56 951.26 585.43 945.22C594.35 941.04 603.37 937.16 612.37 931.73C616.66 931.89 618.81 933.97 620.57 937.32C627.35 950.21 635.92 962.37 641.05 975.85C647.29 992.26 643.68 1010.59 623.01 1019.19C576.11 1038.7 529.18 1058.12 481.87 1078.16C476.86 1083.13 471.36 1081.49 465.28 1080.77C448.41 1068.63 450.1 1046.67 468.21 1036.29C477.13 1031.18 486.94 1027.73 496.63 1024.53C525.74 1014.91 543.22 996.71 543.48 964.73C543.49 963.17 543.96 961.67 545.23 959.7Z" fill="#CDE801"/>
<path d="M207.19 330.43C207.55 340.56 200.55 348.19 196.52 357C181.02 390.89 168.46 425.81 158.61 461.74C157.55 465.61 155.97 469.33 154.11 473.56C133.13 458.61 116.11 439.74 99.8 420.25C89.89 408.41 81.17 395.58 71.43 383.59C65.82 376.68 62.67 369.74 66.18 360.16C85.89 363.58 111.63 346.04 115.49 325.82C116 323.13 115.74 320.25 117.92 317.45C134.6 328.37 150.89 339.43 166.8 351.02C178.88 359.82 180.77 360 190.89 348.89C196.28 342.96 201.39 336.78 207.19 330.43Z" fill="#F1EEE5"/>
<path d="M309.38 65.89C300.03 64.34 292.23 61.43 286.06 54.85C278.34 46.6 276.22 36.98 280.52 28.85C285.86 18.77 297.52 12.48 307.98 15.17C315.21 17.03 319.84 17.5 325.53 10.25C338.02 -5.63997 361.83 -1.23997 369.71 17.77C371.33 21.67 371.49 22.04 375.17 20.26C387.65 14.23 395.68 17.27 402.59 30.19C404.12 33.05 404.06 36.21 409.32 33.4C423.2 26 439.24 37.54 441.08 53.75C442.77 68.6 435.78 80.39 424.76 89.13C419.87 93.01 418.65 96.61 418.52 102.07C418.36 108.58 417.44 115.08 416.7 122.39C413.57 123.31 411.94 121.33 411.08 118.99C405.18 102.91 392.77 99.5 377.5 101.52C372.45 102.18 367.3 103.08 365.95 95.18C365.53 91.8 365.68 89.18 365.65 85.77C365.4 83.45 365.34 81.9 365.13 80.38C363.46 68.42 362.85 68.15 350.5 67.73C337.03 67.26 323.44 69.39 309.38 65.89Z" fill="#111F22"/>
<path d="M80.93 259.52C81.72 249.92 86.19 242.06 90.08 234.25C93.09 228.21 91.51 225.23 87.13 222.08C40.65 188.67 46.77 112.12 103.07 88.88C142.1 72.76 186.88 87.64 203.99 130.98C220.02 171.57 201.35 215.3 160.81 231.68C150.44 235.87 139.45 238.25 128.16 236.72C119.54 235.55 114.8 238.35 113.58 247.32C113.1 250.84 110.95 254.14 109.32 258.25C100.11 264.27 90.83 262.52 80.93 259.52Z" fill="#111F22"/>
<path d="M463.94 1078.5C469.86 1078.8 474.91 1078.75 480.72 1078.72C548.38 1078.84 615.28 1078.88 682.18 1079.14C686.62 1079.16 694.16 1076.38 694.47 1083.45C694.81 1091.22 687.2 1090.19 681.69 1090.19C458.58 1090.2 235.46 1090.2 12.35 1090.21C10.79 1090.21 9.23 1090.1 7.69 1090.22C2.94 1090.6 0.129982 1087.14 0.0499818 1083.74C-0.0400182 1079.87 4.13999 1079.01 7.83999 1079.02C27.44 1079.05 47.05 1079.25 66.65 1078.93C74.94 1078.8 83.38 1080.62 92.05 1076.98C96.1 1078.37 99.86 1079.01 104.01 1079C161.95 1078.87 219.88 1078.88 278.62 1078.87C285.62 1076.65 292.01 1075.89 298.61 1075.9C348.26 1075.99 397.91 1075.95 447.56 1075.94C452.83 1075.94 458.12 1075.81 463.94 1078.5Z" fill="#DFE3F4"/>
<path d="M79.58 258.92C89.41 258.95 98.48 259.06 108.31 259.06C123.3 266.79 124.06 269.61 122.46 285.31C121.42 295.48 120.08 305.54 118.36 316.32C120.04 341.73 102.71 351.27 84.38 360.5C78.1 363.66 72.88 368.18 66.87 359.65C60.09 352.77 51.11 352.13 43.35 349.22C25.74 342.6 22.17 334.83 30.25 317.85C36.29 305.15 41.91 292.24 47.78 279.46C53.87 266.21 64.21 259.34 79.58 258.92Z" fill="#DBB385"/>
<path d="M367.48 94.08C367.67 101.28 371.95 99.75 376.04 99.24C388.58 97.68 400.91 97.55 409.08 109.54C411.77 113.49 413.32 118.21 415.98 122.89C415.12 138.62 414.61 154.08 415.26 170.42C418.3 175.95 418.4 180.52 414.19 185.5C410.52 187.3 407.41 187.38 404.31 187.39C387.9 187.43 371.49 187.12 355.15 189.18C351.5 189.64 347.71 189.4 343.32 187.7C341 185.95 340.6 184.23 341.08 181.46C341.56 179.84 341.72 179.07 341.99 177.73C347.29 170.11 355.97 169.5 363.03 165.94C371.78 161.53 378.62 155.86 380.8 145.87C381.18 144.14 381.93 141.84 379.5 141.25C377.73 140.82 377.23 142.91 376.56 144.28C369.57 158.56 358.1 164.69 340.84 162.75C335.79 161.73 331.76 163.74 327.58 164.75C316.44 167.45 312.48 164.49 312.34 153.04C312.3 149.93 312.39 146.82 312.55 142.9C314.37 140.38 317.79 140.58 318.2 137.65C318.63 134.59 315.61 134.76 313.3 133.5C306.73 131.12 300.47 132.56 294.33 132.02C287.32 131.4 286.13 128.43 290.46 123.15C296.88 115.33 303.47 107.64 310.23 99.33C313.62 95.96 316.15 97.53 318.47 99.96C319.76 101.31 320.51 103.06 321.49 104.64C324.7 109.79 328.43 114.74 335.2 114.2C341.93 113.66 344.87 108.1 347.45 102.69C352.64 91.81 354.09 91.09 367.48 94.08Z" fill="#DBB385"/>
<path d="M413.53 184.92C414.57 180.71 414.85 176.76 415.26 172.04C419.93 172.01 424.46 172.74 429.78 173.56C433.53 178.19 433 183.4 432.22 188.13C429.43 204.99 429.47 222.17 426.29 238.96C423.14 255.6 424.13 270.97 437.33 283.63C444.21 290.23 444.07 297.86 440.84 306.73C429.32 338.37 408.44 362.96 383.83 384.93C381.75 386.79 379.47 388.46 375.76 388.46C368.43 379.22 370.48 369.02 372.6 359.68C385.12 304.39 398.84 249.37 409.28 193.62C409.84 190.58 410.41 187.48 413.53 184.92Z" fill="#F1EEE5"/>
<path d="M340.77 180.67C341.68 182.04 341.94 183.45 342.37 185.58C346.42 191.9 345.59 198.31 344.76 204.33C343.2 215.78 343.13 227.24 343.39 238.71C344.38 283.41 338.41 327.89 339.51 372.59C339.59 375.69 339.27 378.81 336.63 382.01C322.26 369.22 314.66 352.6 308.59 334.91C304.33 322.49 303.75 309.5 301.48 296.81C298.66 281.01 307.87 272.12 328.22 268.64C330.36 268.27 332.94 269.72 334.64 267.27C332.54 266.04 330.54 264.56 328.3 263.67C326.63 263 324.63 263.21 322.82 262.83C308.16 259.75 300.92 246.67 306.15 232.56C310.52 220.79 313.84 208.56 321.13 198.02C321.9 196.91 321.53 195 321.7 192.74C326.56 186.16 333.02 182.92 340.77 180.67Z" fill="#F1EEE5"/>
<path d="M375.08 388.82C404.5 365.18 427.75 337.97 440.12 302.53C442.1 296.87 442.4 291.7 437.46 287.4C421.66 273.65 420.62 256.61 424.01 237.16C427.56 216.79 428.33 195.94 430.45 174.47C434.64 171.51 438.7 169.35 441.28 176.33C437.23 197.98 435.94 219.33 433.79 240.57C433.7 241.49 434.01 242.52 433.73 243.35C428.46 258.69 433.9 271.16 445.13 281.13C456.2 290.95 450.88 300.94 447.01 311.14C433.14 347.73 407.76 375.14 376.64 398.64C373.02 396.2 373.3 392.92 375.08 388.82Z" fill="#82ACB0"/>
<path d="M308.66 66.27C326.09 65.23 343.48 65.1701 360.85 64.7401C365.35 64.6301 366.85 66.14 366.85 70.52C366.85 75.15 367.57 79.79 367.95 85.25C358.83 91.72 352.64 91.1101 345.99 83.91C337.26 74.46 330.14 74.7401 322.51 84.8501C319.57 88.7401 317.32 93.5 310.79 93.15C307.43 84.37 309.01 75.68 308.66 66.27Z" fill="#DBB385"/>
<path d="M309.97 93.38C315.44 92.97 317.41 89.39 319.62 85.39C327.47 71.24 339 71.12 348.67 84.36C353.49 90.96 360.47 86.48 367.23 86.24C367.99 88.43 368.06 90.78 368.09 93.83C365.88 94.61 363.71 94.89 361.57 94.72C355.6 94.27 351.53 94.95 349.99 102.53C348.51 109.79 343.74 116.3 335.25 117.06C326.79 117.81 323.11 111.13 319.36 105.06C317.55 102.14 317.33 97.41 311.21 98.72C310.23 97.17 309.98 95.57 309.97 93.38Z" fill="#CDE801"/>
<path d="M340.32 163.16C347.52 160.94 354.95 160.1 361.92 157.85C368.06 155.86 373.36 152.16 374.2 144.56C374.61 140.88 376.2 136.35 380.63 137.52C385.99 138.94 383.72 143.39 382.83 147.45C379.14 164.23 363.96 166.82 351.84 173.21C349.15 174.63 346.26 175.69 342.79 177.04C341.52 172.74 340.93 168.34 340.32 163.16Z" fill="#111F22"/>
<path d="M312.48 133.74C316.26 133.38 321.34 130.53 321.96 136.82C322.56 142.83 317.78 142.17 313.27 142.12C311.17 139.57 309.26 137.07 312.48 133.74Z" fill="#111F22"/>
<path d="M210.89 326.5C211.35 328.12 210.91 329.62 208.32 330.09C207.9 328.49 208.36 327.01 210.89 326.5Z" fill="#F1EEE5"/>
<path d="M375.35 387.41C375.64 391.23 375.67 394.33 375.9 398.17C376.62 418.38 377.13 437.84 377.51 458.18C363.22 459.06 349.07 459.07 334.06 459.08C331.82 433.98 335.16 409.06 335.97 383.27C337.34 356.78 336.88 331.02 338.24 305.27C340.3 266.22 340.95 227.09 342.37 187.13C365.81 185.39 389.07 183.82 413.34 184.59C408.3 213.53 402.52 242.45 396.22 271.26C392.16 289.85 386.94 308.18 382.98 326.78C378.78 346.52 370.62 365.8 375.35 387.41Z" fill="#111F22"/>
<path d="M514.95 392.97C499.39 411.86 488.09 432.78 475.36 452.73C466.76 466.2 459.42 480.47 451.54 494.4C450.17 496.82 449.2 499.51 447.58 501.74C446.24 503.6 444.65 506.33 441.64 504.6C439.03 503.1 439.07 500.57 440.33 498.09C444.8 489.29 449.14 480.42 453.85 471.75C458.07 463.96 462.71 456.41 467.16 448.05C466.73 444.87 468.07 443.07 470.03 440.89C480.41 433.64 482.71 421.22 490.54 413.09C505.88 397.17 505.07 380.15 498.72 360.36C491.02 336.35 486.31 311.39 478.98 287.18C478.12 284.32 476.68 279.79 481.17 278.35C485.75 276.88 486.94 281.04 487.77 284.29C492.27 301.84 496.19 319.55 501.12 336.98C504.19 347.82 505.39 359.24 511.34 369.8C513.19 372.73 514.13 375.4 515.68 378.46C515.83 380.85 515.83 382.65 515.83 385.13C516.19 388.06 516.38 390.29 514.95 392.97Z" fill="#FEFEFE"/>
<path d="M573.65 586.53C578.24 593.47 575.96 596.93 568.64 596.95C537.87 597.05 507.1 596.95 476.33 596.98C472.2 596.98 467.93 595.55 467.93 591.56C467.93 586.75 472.56 585.94 476.93 585.96C508.94 586.1 540.95 586.15 573.65 586.53Z" fill="#82ACB0"/>
<path d="M450.22 512C460.19 516.22 469.41 520.49 478.95 523.85C485.04 525.99 482.28 526.94 479.13 528.99C470.13 534.84 461.25 540.88 452.33 546.85C451.82 547.19 451.35 547.68 450.79 547.83C449.73 548.12 427.09 532.07 427.1 530.95C427.11 530.14 427.57 529.21 428.1 528.56C432.8 522.88 437.57 517.25 442.3 511.59C444.78 508.62 447.19 509.89 450.22 512Z" fill="#DBB385"/>
<path d="M470.11 439.98C470.01 442.65 469.92 445.03 467.45 446.9C456.57 446.87 458.55 437.04 456.67 431.43C448.78 407.94 442.4 383.96 435.07 360.27C433.74 355.97 433.31 352.71 438.06 351.54C442.52 350.44 443.93 353.41 445.15 357.62C453.07 384.97 461.44 412.2 470.11 439.98Z" fill="#82ACB0"/>
<path d="M515.2 393.64C514.56 391.18 514.58 388.85 515.22 386.17C528.96 386.17 540.92 391.75 553.57 394.34C566.8 397.05 579.7 401.35 592.77 404.87C595.77 405.68 598.46 407.28 597.81 410.44C597.13 413.78 594.22 415.31 590.62 414.34C565.68 407.55 540.41 401.98 515.2 393.64Z" fill="#82ACB0"/>
<path d="M516.67 378.91C510.43 378.64 512.27 374.37 511.93 370.75C533.57 367.59 555.03 365.03 576.5 362.47C579.84 362.07 582.88 362.21 583.19 366.63C583.39 369.46 582.57 370.99 579.18 371.37C558.6 373.68 538.05 376.27 516.67 378.91Z" fill="#82ACB0"/>
<path d="M313.33 765.96C310.6 753.18 316.68 741.78 316.01 728.94C318.48 718.31 324.05 709.06 321.92 697.67C327.61 692.3 327.82 684.36 332.93 679.36C334.85 677.48 336.03 673.7 338.98 674.47C341.79 675.21 339.76 678.78 340.38 681.02C346.35 702.63 352.07 724.31 360.66 745.09C363.24 751.32 365.69 757.6 368.36 764.54C367.46 766.41 366.16 767.4 364.6 767.48C347.73 768.29 330.84 769.88 313.33 765.96Z" fill="#F1EEE5"/>
<path d="M246.6 580.43C251.92 581.23 259.43 577.95 259.62 584.93C259.85 593.52 251.69 589.58 247.35 589.63C216.63 589.98 185.91 589.85 155.19 589.76C152.18 589.75 147.8 591.45 147.64 585.8C147.48 580.12 151.68 580.47 155.41 580.46C185.52 580.43 215.62 580.43 246.6 580.43Z" fill="#82ACB0"/>
<path d="M311.67 419.82C301.4 419.65 294.7 415.04 293.65 407.98C292.55 400.61 298.03 392.53 305.64 390.32C312.37 388.36 321.33 393.21 324.41 400.49C327.7 408.28 323.89 414.43 311.67 419.82Z" fill="#DBB385"/>
<path d="M289.57 573.22C284.2 564.03 285.71 556.83 293.51 552.02C301 547.4 309.83 549.2 314.63 556.32C318.37 561.87 316.75 572.81 310.89 576.25C303.65 580.5 296.25 580.61 289.57 573.22Z" fill="#DBB385"/>
<path d="M312.5 766.16C330.67 765.33 348.71 765.29 367.64 765.24C398.68 830.01 436.7 889.37 489.02 938.75C504.35 953.22 521.99 962.12 544.78 959.01C547.41 983.25 540.56 1004.14 519.15 1016.99C506.75 1024.43 492.57 1029.12 478.87 1034.15C461.61 1040.49 455.81 1047.89 455.96 1064.11C456.02 1070.69 459.9 1074.04 464.48 1078.23C403.65 1078.89 342.5 1078.91 280.38 1078.92C296.44 1069.3 301.3 1054.02 300.46 1035.56C299.87 1022.63 300.32 1009.66 300.23 995.83C302.38 982 300.87 968.91 301.54 955.89C303.47 918.33 304.47 880.71 306.84 843.18C308.44 817.76 308.45 792.21 312.5 766.16Z" fill="#FEFEFE"/>
<path d="M73.19 169C67.01 125.77 102.33 94.73 140.04 98.79C166.96 101.68 191.27 124.09 192.95 154.26C194.58 183.62 182.53 204.43 155.9 216.43C117.44 233.76 76.34 204.78 73.19 169Z" fill="#FEFEFE"/>
<path d="M330.2 82.36C335.05 80.14 338.4 81.98 340.16 85.44C341.85 88.76 338.67 89.74 336.17 91.32C332.92 93.38 334.76 95.34 337.64 96.16C339.92 96.81 344.22 94.65 343.43 99.49C342.73 103.78 340.5 107.8 335.98 109.42C332.52 110.66 330.06 108.82 328.37 105.79C323.97 97.89 323.19 90.16 330.2 82.36Z" fill="#DBB385"/>
<path d="M312.95 401.2C315.59 405.78 314.6 409 309.99 410.04C306.65 410.8 304.86 408.71 304.93 405.26C305.05 399.88 308.26 399.58 312.95 401.2Z" fill="#FEFEFE"/>
<path d="M300.81 559.67C306.68 559.56 308.39 562.33 306.35 566.7C305.12 569.34 301.93 571.06 299.35 568.74C296.28 565.98 295.62 562.45 300.81 559.67Z" fill="#EDEBEB"/>
</svg>
