<svg width="608" height="235" viewBox="0 0 608 235" fill="none" xmlns="http://www.w3.org/2000/svg">
<path d="M371.425 77.4572C381.577 80.9364 391.129 85.317 399.998 91.1651C416.181 101.834 429.262 115.415 438.853 132.393C445.886 144.843 450.651 158.168 451.926 172.354C453.524 190.13 450.798 207.217 436.749 219.801C432.109 223.955 431.518 227.064 432.559 232.96C436.028 252.582 438.43 272.395 437.747 292.43C437.57 297.563 438.594 302.619 438.602 307.775C438.624 322.284 429.103 332.63 415.352 333.488C413.369 333.614 411.455 334.507 409.053 334.246C406.055 336.253 402.979 335.626 400.145 335.269C395.315 334.655 390.49 334.585 385.66 334.685C376.177 334.877 367.615 332.025 359.917 326.638C350.387 319.972 346.598 310.07 346.304 298.935C346.01 287.705 346.101 276.453 345.285 265.249C344.023 247.966 345.038 230.596 343.068 213.343C342.593 209.18 342.917 204.952 342.96 200.38C343.094 191.871 342.658 183.75 342.386 175.285C343.829 171.797 346.766 170.19 349.199 168.126C360.634 158.433 369.261 146.807 374.268 132.498C375.439 129.149 375.136 126.493 372.868 123.893C371.983 122.879 371.248 121.729 370.328 120.745C367.265 117.479 366.479 113.874 366.915 109.254C367.753 100.384 368.902 91.5483 369.736 82.6782C369.905 80.9364 370.229 79.1946 371.425 77.4572Z" fill="#F1EEE5"/>
<path d="M272.18 142.491C277.049 134.035 281.935 125.853 287.477 118.093C293.184 110.107 299.163 102.299 306.006 95.3104C310.084 91.1432 314.046 86.6145 319.671 83.8277C321.312 85.3604 320.5 86.8105 319.757 88.2823C317.562 92.6368 315.683 97.1306 314.327 101.82C312.529 108.026 314.59 111.696 320.798 113.482C321.316 113.63 320.677 113.421 321.191 113.578C323.183 114.196 326.215 114.318 326.125 116.769C326.047 118.79 323.045 118.285 321.321 118.642C313.864 120.17 311.765 123.584 312.577 131.344C313.972 144.642 318.444 156.556 326.989 167.242C327.066 178.211 325.645 188.801 325.974 199.827C326.496 206.319 325.516 212.39 325.045 218.434C324.107 230.456 324.695 242.51 323.667 254.524C322.327 270.165 322.569 285.889 321.779 301.922C320.889 307.313 321.135 312.604 318.158 317.472C310.421 329.752 298.986 334.185 285.525 334.559C281.373 334.677 277.239 334.624 273.096 335.203C267.333 336.009 261.609 334.855 255.889 334.215C254.433 334.054 253.007 333.536 251.733 332.099C246.588 329.464 242.333 326.303 239.697 321.352C238.06 318.273 236.79 315.077 236.82 311.441C236.894 302.776 236.241 294.054 237.002 285.453C237.909 275.155 238.505 264.826 239.719 254.537C241.088 242.914 242.894 231.397 244.92 219.897C245.663 215.673 246.514 211.466 247.327 206.92C247.845 200.158 250.325 194.262 252.273 188.235C256.978 173.678 262.097 159.278 269.838 145.997C270.102 145.544 270.175 144.969 270.56 144.211C270.728 143.946 270.733 143.963 270.724 143.959C271.156 143.536 271.597 143.101 272.18 142.491Z" fill="#F5F4EE"/>
<path d="M320.444 303.764C320.613 295.499 321.278 287.278 321.494 279.048C322.116 254.985 323.079 230.944 324.669 206.929C324.803 204.909 324.768 202.871 324.868 200.476C326.44 198.603 328.402 198.747 330.242 198.834C334.636 199.034 339.094 198.059 343.708 199.831C344.148 217.693 345.794 235.229 345.907 252.847C346.006 268.667 347.272 284.474 347.54 300.32C347.812 316.323 358.893 328.376 374.333 331.951C385.487 334.533 396.767 333.27 408.336 334.189C420.812 356.741 432.909 379.232 445.07 401.688C445.705 402.859 445.83 403.935 445.752 405.476C444.741 408.315 442.313 409.069 440.192 410.136C432.956 413.772 425.279 416.219 417.222 418.501C407.913 420.303 400.262 417.238 393.54 411.468C385.029 404.166 377.607 395.805 370.851 386.852C360.681 373.375 351.596 359.201 344.01 344.069C342.377 340.808 340.926 337.468 339.448 333.806C334.644 322.471 330.436 311.254 327.857 299.471C327.62 298.373 327.702 296.575 326.371 296.453C325.153 296.344 324.838 298.108 324.12 299.048C322.95 300.594 322.989 303.028 320.444 303.764Z" fill="#579AA8"/>
<path d="M270.487 144.076C270.642 148.487 267.618 151.81 265.877 155.646C259.181 170.404 253.755 185.61 249.5 201.255C249.042 202.94 248.359 204.56 247.556 206.402C238.492 199.892 231.139 191.675 224.093 183.188C219.812 178.033 216.045 172.446 211.837 167.225C209.414 164.216 208.053 161.194 209.569 157.022C218.084 158.512 229.204 150.874 230.871 142.069C231.092 140.898 230.98 139.644 231.921 138.424C239.127 143.179 246.165 147.995 253.038 153.042C258.256 156.874 259.073 156.953 263.445 152.115C265.773 149.533 267.981 146.842 270.487 144.076Z" fill="#F1EEE5"/>
<path d="M314.633 28.8829C310.594 28.208 307.224 26.9408 304.559 24.0756C301.224 20.4831 300.308 16.2941 302.166 12.7539C304.473 8.36459 309.51 5.62561 314.029 6.79697C317.152 7.60691 319.152 7.81157 321.61 4.65456C327.006 -2.26472 337.292 -0.348743 340.696 7.92914C341.396 9.62739 341.465 9.78851 343.055 9.01341C348.447 6.38765 351.916 7.71142 354.901 13.3374C355.562 14.5828 355.536 15.9588 357.808 14.7352C363.804 11.5129 370.734 16.538 371.529 23.5966C372.259 30.063 369.239 35.1969 364.478 39.0028C362.366 40.6923 361.839 42.2599 361.783 44.6375C361.714 47.4722 361.316 50.3027 360.996 53.4858C359.644 53.8864 358.94 53.0242 358.569 52.0053C356.02 45.0033 350.658 43.5184 344.062 44.398C341.88 44.6854 339.655 45.0773 339.072 41.6372C338.891 40.1654 338.955 39.0245 338.942 37.5397C338.834 36.5294 338.809 35.8545 338.718 35.1926C337.996 29.9846 337.733 29.867 332.398 29.6842C326.578 29.4795 320.707 30.407 314.633 28.8829Z" fill="#111F22"/>
<path d="M215.941 113.199C216.283 109.019 218.214 105.596 219.894 102.195C221.195 99.5653 220.512 98.2676 218.62 96.8959C198.54 82.3476 201.184 49.014 225.506 38.8942C242.367 31.8747 261.713 38.3542 269.104 57.2266C276.029 74.9014 267.964 93.9436 250.45 101.076C245.97 102.901 241.222 103.937 236.345 103.271C232.621 102.761 230.573 103.981 230.046 107.887C229.839 109.419 228.91 110.856 228.206 112.646C224.227 115.268 220.218 114.505 215.941 113.199Z" fill="#111F22"/>
<path d="M215.358 112.938C219.605 112.951 223.523 112.999 227.77 112.999C234.246 116.365 234.574 117.593 233.883 124.429C233.433 128.858 232.854 133.238 232.111 137.933C232.837 148.997 225.351 153.151 217.432 157.171C214.719 158.547 212.464 160.515 209.867 156.8C206.938 153.805 203.059 153.526 199.707 152.259C192.099 149.376 190.557 145.993 194.047 138.599C196.657 133.069 199.084 127.447 201.62 121.882C204.251 116.112 208.718 113.121 215.358 112.938Z" fill="#DBB385"/>
<path d="M339.733 41.1584C339.815 44.2936 341.664 43.6274 343.431 43.4053C348.849 42.726 354.175 42.6694 357.705 47.8904C358.867 49.6105 359.536 51.6658 360.686 53.7037C360.314 60.5533 360.094 67.2853 360.375 74.4006C361.688 76.8086 361.731 78.7986 359.912 80.9671C358.327 81.7509 356.983 81.7858 355.644 81.7901C348.555 81.8076 341.466 81.6726 334.407 82.5696C332.83 82.7699 331.192 82.6654 329.296 81.9251C328.294 81.1631 328.121 80.4141 328.328 79.2079C328.536 78.5025 328.605 78.1672 328.721 77.5837C331.011 74.2656 334.761 74 337.811 72.4498C341.591 70.5294 344.546 68.0604 345.488 63.7103C345.652 62.957 345.976 61.9554 344.926 61.6985C344.161 61.5113 343.945 62.4214 343.656 63.0179C340.636 69.2361 335.681 71.9055 328.225 71.0607C326.043 70.6165 324.302 71.4918 322.496 71.9316C317.684 73.1073 315.973 71.8184 315.912 66.8325C315.895 65.4782 315.934 64.124 316.003 62.417C316.789 61.3197 318.267 61.4068 318.444 60.1309C318.63 58.7984 317.325 58.8725 316.327 58.3238C313.489 57.2874 310.784 57.9145 308.132 57.6793C305.103 57.4094 304.589 56.1161 306.46 53.8169C309.233 50.4117 312.08 47.0631 315.001 43.4445C316.465 41.9771 317.558 42.6607 318.561 43.7189C319.118 44.3067 319.442 45.0687 319.865 45.7567C321.252 47.9993 322.863 50.1548 325.788 49.9196C328.695 49.6845 329.966 47.2634 331.08 44.9076C333.322 40.1699 333.949 39.8564 339.733 41.1584Z" fill="#DBB385"/>
<path d="M359.627 80.7144C360.076 78.8812 360.197 77.1612 360.375 75.1059C362.392 75.0928 364.349 75.4107 366.647 75.7677C368.267 77.7839 368.038 80.0526 367.701 82.1122C366.496 89.4539 366.513 96.9349 365.14 104.246C363.779 111.492 364.206 118.185 369.909 123.698C372.881 126.572 372.821 129.894 371.425 133.756C366.449 147.534 357.428 158.242 346.797 167.809C345.898 168.618 344.913 169.346 343.31 169.346C340.144 165.322 341.029 160.881 341.945 156.813C347.354 132.738 353.281 108.779 357.791 84.5028C358.033 83.1791 358.279 81.8292 359.627 80.7144Z" fill="#F1EEE5"/>
<path d="M328.194 78.8638C328.587 79.4604 328.7 80.0744 328.885 81.0019C330.635 83.7539 330.277 86.5451 329.918 89.1665C329.244 94.1524 329.214 99.1427 329.326 104.137C329.754 123.602 327.175 142.971 327.65 162.435C327.684 163.785 327.546 165.144 326.406 166.537C320.198 160.968 316.915 153.731 314.292 146.027C312.452 140.619 312.201 134.963 311.221 129.437C310.002 122.557 313.981 118.686 322.773 117.17C323.697 117.009 324.812 117.641 325.546 116.574C324.639 116.038 323.775 115.394 322.807 115.006C322.086 114.714 321.222 114.806 320.44 114.64C314.106 113.299 310.979 107.603 313.238 101.459C315.126 96.334 316.56 91.0085 319.71 86.4189C320.042 85.9355 319.882 85.1038 319.956 84.1197C322.055 81.2544 324.846 79.8436 328.194 78.8638Z" fill="#F1EEE5"/>
<path d="M343.016 169.502C355.726 159.208 365.77 147.36 371.114 131.927C371.97 129.463 372.099 127.212 369.965 125.339C363.139 119.352 362.69 111.932 364.155 103.462C365.688 94.5921 366.021 85.513 366.937 76.1639C368.747 74.875 370.501 73.9344 371.615 76.9738C369.866 86.4013 369.308 95.6981 368.38 104.947C368.341 105.348 368.475 105.796 368.354 106.158C366.077 112.837 368.427 118.267 373.279 122.609C378.061 126.885 375.763 131.235 374.091 135.677C368.099 151.61 357.134 163.545 343.69 173.778C342.126 172.716 342.247 171.288 343.016 169.502Z" fill="#82ACB0"/>
<path d="M314.323 29.0484C321.853 28.5955 329.365 28.5694 336.869 28.3821C338.813 28.3342 339.461 28.9917 339.461 30.899C339.461 32.9151 339.772 34.9356 339.936 37.3132C335.997 40.1305 333.322 39.8649 330.45 36.7297C326.678 32.6147 323.602 32.7366 320.306 37.139C319.036 38.8329 318.064 40.9056 315.243 40.7532C313.791 36.93 314.474 33.1459 314.323 29.0484Z" fill="#DBB385"/>
<path d="M314.888 40.8535C317.252 40.6749 318.103 39.116 319.057 37.3742C322.449 31.2126 327.43 31.1604 331.607 36.9257C333.689 39.7997 336.705 37.8489 339.625 37.7444C339.954 38.698 339.984 39.7213 339.997 41.0494C339.042 41.3891 338.105 41.511 337.18 41.437C334.601 41.241 332.843 41.5371 332.177 44.8378C331.538 47.9992 329.477 50.834 325.81 51.1649C322.155 51.4915 320.565 48.5827 318.945 45.9395C318.163 44.668 318.068 42.6083 315.424 43.1788C315.001 42.5038 314.893 41.8071 314.888 40.8535Z" fill="#CDE801"/>
<path d="M328 71.2391C331.11 70.2724 334.32 69.9067 337.331 68.9269C339.984 68.0604 342.273 66.4492 342.636 63.1398C342.813 61.5373 343.5 59.5648 345.414 60.0742C347.73 60.6926 346.749 62.6303 346.364 64.3982C344.77 71.7051 338.212 72.8329 332.976 75.6154C331.814 76.2337 330.566 76.6953 329.067 77.2832C328.518 75.4107 328.263 73.4948 328 71.2391Z" fill="#111F22"/>
<path d="M315.973 58.4283C317.606 58.2715 319.801 57.0305 320.068 59.7695C320.328 62.3865 318.263 62.0991 316.314 62.0773C315.407 60.9669 314.582 59.8783 315.973 58.4283Z" fill="#111F22"/>
<path d="M272.085 142.365C272.284 143.071 272.094 143.724 270.975 143.929C270.794 143.232 270.992 142.588 272.085 142.365Z" fill="#F1EEE5"/>
<path d="M343.133 168.888C343.258 170.552 343.271 171.902 343.371 173.574C343.682 182.374 343.902 190.848 344.066 199.705C337.893 200.088 331.78 200.093 325.295 200.097C324.328 189.167 325.771 178.316 326.121 167.086C326.712 155.551 326.514 144.334 327.101 133.121C327.991 116.116 328.272 99.0773 328.885 81.6768C339.012 80.9191 349.06 80.2354 359.545 80.5707C357.368 93.1726 354.871 105.766 352.149 118.311C350.395 126.406 348.14 134.388 346.429 142.487C344.615 151.083 341.09 159.478 343.133 168.888Z" fill="#111F22"/>
<path d="M403.441 171.31C396.719 179.535 391.838 188.645 386.338 197.332C382.623 203.198 379.452 209.411 376.048 215.477C375.456 216.531 375.037 217.702 374.337 218.673C373.758 219.483 373.071 220.672 371.771 219.919C370.643 219.266 370.661 218.164 371.205 217.084C373.136 213.252 375.011 209.39 377.046 205.614C378.869 202.222 380.873 198.935 382.796 195.294C382.61 193.909 383.189 193.126 384.036 192.176C388.52 189.019 389.513 183.611 392.896 180.071C399.523 173.139 399.173 165.727 396.43 157.11C393.103 146.655 391.069 135.786 387.902 125.244C387.531 123.998 386.908 122.026 388.848 121.399C390.827 120.758 391.341 122.57 391.699 123.985C393.643 131.627 395.337 139.339 397.467 146.929C398.793 151.649 399.311 156.622 401.882 161.22C402.681 162.496 403.087 163.659 403.757 164.991C403.822 166.032 403.822 166.816 403.822 167.896C403.977 169.172 404.059 170.143 403.441 171.31Z" fill="#FEFEFE"/>
<path d="M375.478 223.141C379.785 224.978 383.768 226.838 387.889 228.301C390.52 229.233 389.328 229.646 387.967 230.539C384.079 233.087 380.243 235.717 376.389 238.316C376.169 238.464 375.966 238.678 375.724 238.743C375.266 238.869 365.485 231.88 365.49 231.393C365.494 231.04 365.693 230.635 365.922 230.352C367.952 227.879 370.013 225.427 372.056 222.962C373.127 221.669 374.169 222.222 375.478 223.141Z" fill="#DBB385"/>
<path d="M384.07 191.78C384.027 192.943 383.988 193.979 382.921 194.793C378.221 194.78 379.076 190.5 378.264 188.057C374.856 177.828 372.099 167.386 368.933 157.07C368.358 155.198 368.172 153.778 370.225 153.269C372.151 152.79 372.76 154.083 373.287 155.916C376.709 167.826 380.325 179.683 384.07 191.78Z" fill="#82ACB0"/>
<path d="M403.549 171.601C403.273 170.53 403.281 169.515 403.558 168.348C409.493 168.348 414.66 170.778 420.125 171.906C425.841 173.086 431.414 174.958 437.06 176.491C438.356 176.844 439.518 177.541 439.237 178.917C438.943 180.371 437.686 181.037 436.131 180.615C425.357 177.658 414.44 175.233 403.549 171.601Z" fill="#82ACB0"/>
<path d="M404.184 165.187C401.489 165.069 402.284 163.21 402.137 161.634C411.485 160.258 420.756 159.143 430.031 158.028C431.474 157.854 432.788 157.915 432.921 159.84C433.008 161.072 432.654 161.738 431.189 161.904C422.298 162.91 413.421 164.037 404.184 165.187Z" fill="#82ACB0"/>
<path d="M315.623 183.001C311.186 182.927 308.291 180.92 307.838 177.846C307.363 174.636 309.73 171.118 313.018 170.156C315.925 169.302 319.796 171.414 321.126 174.584C322.548 177.976 320.902 180.654 315.623 183.001Z" fill="#DBB385"/>
<path d="M212.598 73.7821C209.928 54.9576 225.186 41.4413 241.477 43.2092C253.107 44.4677 263.609 54.2261 264.335 67.3636C265.039 80.1483 259.833 89.21 248.329 94.4354C231.714 101.982 213.958 89.3624 212.598 73.7821Z" fill="#FEFEFE"/>
<path d="M323.628 36.0547C325.723 35.088 327.17 35.8892 327.931 37.3959C328.661 38.8415 327.287 39.2683 326.207 39.9563C324.803 40.8533 325.598 41.7068 326.842 42.0639C327.827 42.3469 329.685 41.4063 329.343 43.5139C329.041 45.382 328.077 47.1325 326.125 47.8379C324.63 48.3779 323.567 47.5766 322.837 46.2572C320.936 42.8172 320.599 39.4512 323.628 36.0547Z" fill="#DBB385"/>
<path d="M316.176 174.893C317.316 176.887 316.889 178.29 314.897 178.742C313.454 179.073 312.681 178.163 312.711 176.661C312.763 174.318 314.15 174.188 316.176 174.893Z" fill="#FEFEFE"/>
</svg>
