<svg width="854" height="1183" viewBox="0 0 854 1183" fill="none" xmlns="http://www.w3.org/2000/svg">
<path d="M809.92 1131.86C783.75 1145.65 755.65 1149.43 725.69 1146.33C734.85 1172.79 744.92 1198.82 754.2 1225.14C759.19 1239.29 757.31 1252.93 748.38 1265.59C741.26 1275.68 734.66 1286.17 728.42 1296.83C726.22 1300.58 724.96 1305.29 724.65 1309.66C723.91 1320.24 728.2 1323.96 738.6 1325.97C745.99 1327.4 753.57 1329.93 760 1333.76C771.34 1340.51 774.36 1340.42 785.63 1328.21C783.53 1320.25 783.63 1312.82 787.7 1305.82C789.86 1302.11 789.28 1299.11 786.94 1295.75C781.8 1288.38 780.9 1279.97 781.79 1271.29C781.93 1269.96 781.56 1267.86 783.44 1267.7C784.13 1267.65 783.91 1269.82 783.8 1270.96C783.01 1279.72 784.45 1287.95 789.31 1295.42C792.12 1299.74 791.64 1303.8 789.11 1308.22C786.16 1313.37 783.69 1319.34 789.53 1323.91C795.49 1328.58 801.82 1326.15 807.2 1322.19C812.16 1318.55 815.72 1313.54 818.36 1307.94C818.87 1306.86 819.94 1304.89 820.36 1305.2C821.78 1306.25 820.61 1307.84 820.17 1309.11C818.63 1313.53 815.78 1317.03 812.4 1320.22C809.53 1322.92 806 1324.93 803.78 1329.03C808.33 1353.33 812.96 1377 817.61 1400.66C817.9 1402.15 817.9 1404.05 818.82 1405.02C821.74 1408.1 825.02 1410.82 828.16 1413.68C830.63 1410.23 834.99 1406.9 835.22 1403.3C835.96 1391.92 835.82 1380.38 834.84 1369.01C830.04 1313.12 825.21 1257.23 819.65 1201.41C817.34 1178.33 813.18 1155.45 809.92 1131.86Z" fill="#E28E69"/>
<path d="M661.77 745.93C690.7 769.4 716.96 794.62 740.9 822.35C771.85 858.2 799.22 896.4 820.05 939.07C837.02 973.82 848.54 1010.01 845.75 1049.24C842.06 1101.19 809.39 1155.71 749.11 1168.07C744.7 1168.97 740 1168.46 734.59 1168.57C732.2 1164.63 728.44 1163.76 725.13 1162.3C688.01 1145.99 670.49 1116.46 667.07 1077.08C665.86 1063.15 663.62 1049.71 656 1037.02C635.53 1002.91 623.04 965.66 615.36 926.66C608.09 889.69 603.72 852.511 604.78 814.781C604.84 812.701 605.27 810.49 603.95 808.56C602 810.13 602.64 812.37 602.65 814.32C602.81 878.05 610.98 940.401 635.44 999.801C638.7 1007.71 639.81 1015.7 639.21 1023.98C637.34 1050.02 628.35 1073.25 610.44 1093.52C604.95 1096.5 599.71 1096.35 594.54 1096.35C509.45 1096.39 424.36 1096.39 339.27 1096.35C334.7 1096.35 330.1 1096.38 325.01 1094.22C306.4 1076.45 296.42 1055.04 291.04 1030.88C286.18 1009.05 288.7 988.02 293.98 966.67C306.5 916 317.77 865.03 330.31 814.36C330.6 813.17 330.95 811.98 331 810.76C331.04 809.71 331.8 807.961 330.42 807.841C329.34 807.741 329.36 809.711 329.08 810.831C323.04 834.811 317.2 858.84 311.7 882.94C305.19 911.51 298.38 940.01 291.5 968.49C284.64 996.89 285.48 1024.73 295.05 1052.31C295.95 1054.91 297.02 1057.46 296.78 1061.01C289.32 1069.77 282.8 1078.69 274.62 1085.67C246.62 1109.59 215.17 1116.23 179.8 1103.62C144.72 1091.11 124 1065.05 110.97 1031.99C98.2898 999.8 92.0198 965.971 88.1198 931.641C86.1098 913.921 83.2899 896.29 80.8499 877.81C96.4999 862.27 115.71 854.87 136.3 850.76C144.58 849.111 153.1 847.041 162.31 850.401C168.56 862.961 174.12 875.251 179.57 888.26C170.35 891.921 160.79 889.771 151.45 891.591C134.05 894.981 119.53 903.05 107.2 915.48C106.17 916.52 104.37 918.69 104.66 918.81C106.65 919.65 107.52 917.51 108.74 916.49C123.73 903.99 140.09 894.67 159.93 892.11C166.74 891.23 173.24 891.59 180.47 892.94C183.7 897.16 186.28 901.16 188.94 905.11C193.75 912.25 198.46 919.74 208.67 919.06C218.56 918.4 224.67 912.01 228.72 903.88C237.19 886.88 244.38 869.21 253.38 852.51C276.49 809.6 298.87 766.081 333.57 730.841C351.88 712.241 373.31 698.37 398.71 691.18C401.32 690.44 403.77 689.111 406.99 687.951C407.99 687.551 408.29 687.25 409.04 686.48C409.85 685.76 410.21 685.51 411.16 684.951C412.18 684.471 412.6 684.31 413.68 683.93C437.96 678.6 461.05 671.321 485.42 666.271C547.15 667.881 601.8 685.72 646.04 729.69C651.21 734.86 657.37 739.05 661.77 745.93Z" fill="#CBE0E4"/>
<path d="M680.12 1.22033C733.5 -1.55967 782.03 8.66033 821.25 46.6203C870.03 93.8303 861.52 163.31 810.64 204.11C786.12 223.78 757.89 235.28 726.44 238.85C723.87 239.14 720.32 243.51 719.72 246.48C715.58 267.05 709.71 287.1 698.24 304.69C692.47 313.54 684.33 321.23 676.06 327.96C669.49 333.31 660.46 330.8 654.13 324.11C648.38 318.04 647.64 308.51 652.28 300.52C656.32 293.58 664.66 290.34 672.71 292.78C680.07 295.02 687.77 300.1 694.62 292.75C701.6 285.26 699.07 276.86 696.18 268C693.69 260.38 693.78 251.95 692.29 243.96C692.03 242.58 689.75 240.83 688.18 240.55C670.01 237.27 651.22 236.11 633.7 230.78C590.71 217.68 557.07 192.5 542.3 148.17C529.86 110.85 544.74 70.4403 575.94 42.5303C605.36 16.2403 640.84 5.02033 680.12 1.22033Z" fill="#E0DBC7"/>
<path d="M209.78 29.4205C243.4 27.7605 274.97 32.4106 304.09 48.3306C333.63 64.4906 353.93 88.8305 359.19 122.181C364.36 154.951 354.33 184.741 332.08 209.831C326.82 215.761 321.18 221.381 315.43 226.841C312.25 229.861 312.22 231.461 314.54 235.781C319.6 245.231 322.79 255.691 326.65 265.781C327.93 269.131 328.48 272.831 330.12 275.971C335.65 286.571 343.66 288.531 353.21 281.741C355.42 280.171 357.23 278.021 359.12 276.041C367.02 267.721 374.4 266.341 383.5 271.551C391.86 276.341 396.22 286.011 393.95 294.751C391.47 304.321 383.43 310.571 372.98 310.121C354.65 309.341 340.02 299.531 327.01 288.181C314.48 277.251 303.54 264.421 292.44 251.951C289.43 248.571 287.54 247.491 283.56 249.721C263.95 260.671 242.72 267.811 220.65 270.251C168.05 276.071 118.18 270.061 79.9099 228.021C56.7999 202.631 49.8598 172.221 57.5198 139.031C67.1298 97.4005 95.4699 71.0206 131.67 51.7906C155.81 38.9806 182.02 32.9305 209.78 29.4205Z" fill="#7C8C01"/>
<path d="M662.14 745.82C648.84 735.2 635.84 723.5 622.24 712.55C599.92 694.59 574.38 682.83 546.42 677.12C527.16 673.19 507.51 671.14 487.27 668.18C483.52 665.64 483.79 662.14 483.76 658.85C483.62 643.63 483.82 628.41 483.66 613.19C483.59 606.26 485.99 600.94 491.36 596.53C500.3 589.19 508.78 581.32 517.47 572.54C518.92 571.48 519.84 571.07 521.56 570.68C530.2 571.42 536.62 577.25 545.28 577.77C548.21 582.39 547.08 587.05 547.55 591.5C547.64 592.33 547.57 593.6 548.58 593.61C549.52 593.62 549.57 592.36 549.68 591.53C550.32 586.76 549.28 581.84 551.31 576.59C552.91 574.59 554.71 574.1 556.36 573.32C577.36 563.35 582.72 537.49 567.51 519.65C556.47 506.7 537.35 504.58 523.73 514.82C521.54 516.47 519.7 518.58 516.34 519.71C514.65 519.78 513.82 519.37 512.77 518.02C511.76 504.33 514.53 491.41 513.52 478.23C512.21 461.03 503.79 449.84 488.29 443.32C458.46 430.77 428.46 418.64 398.4 406.66C394.73 405.2 390.84 404.09 387.81 400.29C403.67 383.51 423.27 375.43 445.95 374.23C463.08 373.33 479.75 375.07 496.45 381.62C498.48 382.56 498.99 383.96 499.48 385.41C505.83 403.78 513.78 408.06 532.52 403.21C533.7 402.9 534.87 402.66 536.68 403.13C544.17 414.52 551.06 425.56 557.95 436.61C558.11 436.87 558.41 437.11 558.43 437.38C560.49 457.85 573.4 460.51 590.92 458.97C607.62 457.51 619.12 469.44 618.16 486.4C617.41 499.72 622.87 508.13 638.59 506.46C651.91 505.04 664.94 507.19 671.48 520.38C675.06 527.59 676.24 536.55 676.42 544.77C676.71 558.45 680 562.35 693.5 565.26C710.94 569.02 727.72 575.15 735.42 593.31C746.14 618.62 739.05 645.25 710.8 657.94C703.16 661.37 700.79 665.65 702.22 674.06C703.7 682.74 704.33 692.01 702.94 700.64C701 712.66 691.27 718.05 680.25 721C677.91 721.63 675.46 721.85 673.15 722.56C660.31 726.48 657.49 732.33 662.14 745.82Z" fill="#111F22"/>
<path d="M322.5 1091.16C327.04 1091.84 330.89 1093 334.74 1093.01C423.03 1093.1 511.32 1093.09 599.61 1093C602.9 1093 606.18 1092.16 610.2 1091.5C614.06 1093.53 617.75 1091.79 621.54 1093.05C636.1 1096.19 641.19 1101.93 644.24 1116.34C648.75 1137.59 653.84 1158.72 658.55 1180.62C652.05 1180.2 645.73 1180.3 638.96 1182.41C635.34 1182.79 632.25 1182.87 628.38 1182.81C625.09 1181.28 622.31 1181.48 619.57 1181.47C582.38 1181.24 545.19 1180.2 507.99 1180.47C452.55 1180.88 397.12 1180.5 341.68 1180.48C326.14 1180.47 310.63 1181.34 294.33 1182.36C289.22 1182.82 284.9 1182.92 279.76 1182.92C278.64 1182.65 278.32 1182.49 277.66 1181.9C282.77 1157.38 287.76 1133.16 293.91 1109.25C296.34 1099.82 304.28 1094.75 314.76 1093.3C317.3 1091.74 319.38 1090.91 322.5 1091.16Z" fill="#3E6D77"/>
<path d="M162.65 850.15C133.07 850.29 106.49 860.17 81.5099 877C77.1499 849.35 73.7899 821.63 69.5999 794.04C67.3499 779.21 59.2699 768.05 45.4399 761.08C34.4099 755.52 23.6499 749.37 13.1299 742.9C9.41987 740.62 6.08986 737.06 3.75986 733.36C-1.87014 724.37 0.169865 719.07 8.38986 712.4C14.2399 707.66 19.7399 701.86 23.6099 695.46C30.4399 684.17 33.1499 682.83 48.8399 688.3C50.7299 696.31 54.3199 702.82 61.1999 707.09C64.8499 709.35 65.7499 712.27 65.2699 716.34C64.1999 725.26 67.3599 733.1 72.2299 740.35C72.9699 741.46 73.6399 743.49 75.3699 742.74C76.0099 742.46 74.7899 740.65 74.1599 739.69C69.3399 732.34 66.7399 724.39 67.5199 715.51C67.9698 710.38 65.6399 707.02 61.3199 704.31C56.2899 701.15 51.3099 697.05 54.3099 690.26C57.3699 683.34 64.0999 682.5 70.7099 683.46C76.7999 684.34 82.2999 687.08 87.2599 690.79C88.2199 691.51 90.0899 692.73 90.3099 692.26C91.0699 690.66 89.2898 689.81 88.2999 688.9C84.8699 685.72 80.6999 683.97 76.2199 682.75C72.4199 681.72 68.3599 681.6 64.4699 679.04C57.0499 655.45 49.9999 632.39 42.9799 609.32C42.5399 607.86 41.6399 606.19 41.9899 604.91C43.1199 600.82 44.7299 596.87 46.1599 592.87C49.9599 594.75 55.3699 595.64 57.2699 598.71C63.2799 608.4 68.5799 618.65 73.0699 629.15C95.1199 680.73 117.15 732.32 138.5 784.2C147.34 805.64 154.43 827.79 162.65 850.15Z" fill="#E28E69"/>
<path d="M523.48 571.521C522.24 572.311 521.51 572.511 520.21 572.841C512.82 572.461 507.7 575.131 503.02 580.221C496.53 587.271 489.99 594.411 481.21 598.991C477.1 601.131 474.47 604.931 472.72 610.031C458.96 617.371 444.14 619.721 429.96 624.011C423.02 626.111 416.08 628.561 408.05 629.281C354.72 631.591 322.76 585.611 319.55 540.171C323.57 536.821 326.7 539.621 329.75 541.171C335.8 544.241 341.77 544.971 348.22 542.601C351.59 541.361 355.88 539.701 358.03 543.821C360.11 547.801 356 549.631 353.29 551.361C345.48 556.351 347.43 564.051 347.78 571.161C348.1 577.601 352.71 580.771 358.33 582.211C370.25 585.281 382.31 590.701 394.1 581.771C395.44 580.761 398.07 580.191 397.57 578.321C397.14 576.711 394.23 577.531 392.45 575.701C391.14 568.741 399.37 564.521 396.15 556.881C395.92 542.871 398.38 540.901 410.18 545.951C427.94 553.561 445.55 549.081 461.92 543.201C477.39 537.651 492.65 537.591 507.84 539.641C519.08 541.161 528.94 539.471 538.89 535.491C543.93 533.481 548.84 532.421 553.93 534.711C556.53 535.881 558.61 537.851 558.49 540.981C558.37 544.071 555.67 544.581 553.36 545.341C552.78 545.531 552.19 545.711 551.58 545.781C536.23 547.441 527.68 556.531 523.48 571.521Z" fill="#E28E69"/>
<path d="M523.63 572.28C523.46 554.63 531.67 546.63 550.9 543.04C553.01 542.65 555 541.55 557.04 540.78C554.76 539.11 552.65 536.42 550.16 536.01C547.12 535.5 543.56 536.38 540.58 537.56C530.27 541.64 520.57 544.13 508.64 542.32C494.05 540.1 479.03 539.72 463.76 545.28C449.88 550.34 434.1 550.36 419.09 551.99C416.2 552.3 412.99 549.78 409.95 548.52C398.28 543.68 398.29 543.68 398.22 556.97C391 556.26 384.64 551.5 376.63 552.74C371.22 553.58 366.04 554.02 365.98 561.09C365.91 567.72 369.28 571.93 375.81 573.32C380.93 574.4 386.04 572.88 391.79 573.17C392.77 573.88 393.06 574.72 393.48 574.8C396.72 575.38 399.98 575.81 403.24 576.29C400.63 578.71 398.24 581.44 395.37 583.5C385.12 590.85 357.19 588.75 348.51 580.16C341.5 573.23 344.61 553.62 353.45 548.46C354.84 547.65 355.85 546.18 357.04 545.02C355.53 544.46 353.45 542.96 352.61 543.48C340.91 550.69 331.03 544.48 320.29 539.48C319.57 535.43 319.48 531.47 319.5 526.65C328.22 524.89 336.55 529.74 345.95 526.87C349 526.21 351.36 526.11 354.39 526.78C362.72 532.87 363.31 532.96 367.3 524.61C372.47 513.78 379.31 503.74 383.11 491.53C383.79 489.09 384.61 487.47 386.57 485.77C388.08 485.07 389.01 485.02 390.58 485.56C392.37 487.6 392.19 489.45 391.79 492.01C387.15 518.94 411.97 540.36 433.7 537.62C446.21 536.6 454.97 530.38 462.39 520.75C470.88 507.26 472.02 506.73 486.17 512.69C496.55 517.06 506.78 521.8 517.43 525.5C519.01 526.05 521.11 527.53 522.2 525.95C522.77 525.12 520.14 524.23 518.86 523.52C517.52 522.78 516.2 522.05 515.33 520.04C531.77 496.88 568.98 502.93 577.36 532.13C582.98 551.73 572.11 573.4 553.02 576.32C548.41 572.18 550.7 566.7 549.56 561.86C549.36 560.99 549.11 559.73 548.29 559.69C546.56 559.6 546.94 561.21 546.96 562.21C547.06 567.25 548.43 572.38 545.12 577.51C536.15 582.31 530.89 574.87 523.63 572.28Z" fill="#E28C67"/>
<path d="M386.89 399.86C421.6 413.43 455.85 426.86 489.76 441.13C512.42 450.66 516.61 465.95 516.43 489.06C516.36 498.12 514.38 507.17 513.32 517.04C509.97 520.01 506.88 518.19 503.82 516.99C498.99 515.1 494.32 512.8 489.43 511.05C478.75 507.23 471.66 502.14 469.09 488.84C464.39 464.58 437.76 454.5 414.42 465.75C406.7 469.47 400.58 475.89 391.54 478.66C389.34 478.99 387.89 478.84 385.83 478.01C382.51 473.6 380.51 469.3 380.48 463.67C384.86 458.77 383.51 455.82 378.48 453.76C373.8 451.84 369.09 450.01 363.26 449.82C358.17 448.52 353.35 448.84 348.85 445.79C361.07 430.16 373.68 415.12 386.89 399.86Z" fill="#E08B68"/>
<path d="M514.72 361.83C511.63 352.82 507.97 344.37 506.77 335.57C504.25 317.15 520.93 301.97 540.71 303.74C554.26 304.95 564.18 310.69 567.42 325.08C567.61 325.95 571.51 326.83 573.34 326.37C594 321.1 606.84 326.91 615.92 345.99C623.8 362.52 614.8 384 596.82 388.68C587.74 391.04 577.82 390.9 568.32 390.67C561.13 390.5 553.98 388.4 546.09 387.12C544.24 386.44 543.61 385.45 543.27 384.23C538.26 366.28 533.73 362.73 514.72 361.83Z" fill="#111F22"/>
<path d="M621.57 1093.03C619.79 1094.08 617.55 1095.26 615.3 1095.28C613.88 1095.29 612.45 1093.56 610.98 1091.95C623.09 1074.47 632.17 1056.21 635.74 1035.66C637.99 1022.73 637.34 1010.05 632.07 997.47C619.42 967.3 610.58 935.94 607.38 903.31C604.5 873.94 602.4 844.49 600.57 815.03C600.3 810.72 603.41 806.21 604.96 801.79C605.77 806.16 607.42 810.56 607.26 814.9C605.79 855.32 610.32 895.28 619.04 934.52C627.54 972.79 641.17 1009.32 661.82 1043.25C667.69 1052.89 669.28 1066.34 669.38 1078.06C669.64 1109.84 695.78 1152.8 729.8 1161.47C731.64 1161.94 732.72 1165.37 733.95 1167.98C711.5 1164.11 694.95 1151.26 682.09 1133.21C665.91 1110.49 661.69 1084.35 658.99 1057.28C658 1047.33 650.65 1038.02 646.2 1028.42C645.21 1029.52 643.71 1030.46 643.33 1031.73C639.87 1043.24 637.27 1055.05 633.05 1066.27C630.16 1073.96 625 1080.79 621.09 1088.14C620.46 1089.32 621.07 1091.15 621.57 1093.03Z" fill="#3E6D77"/>
<path d="M407.35 630.06C417.19 625.9 426.99 622.38 436.95 619.39C448.14 616.03 459.46 613.14 471.14 609.49C472.25 608.35 472.86 607.62 473.63 607.16C476.7 605.32 480.24 604.24 482.62 607.53C484.99 610.82 481.56 613.01 479.66 615.18C470.86 625.23 461.4 634.67 452.48 644.64C439.75 658.88 426.26 672.46 411.61 685.8C411.1 686.23 411.06 686.15 411.1 686.17C410.69 686.57 410.23 686.94 409.34 687.46C408.93 687.63 408.32 687.83 408 687.85C407.59 668.9 407.49 649.91 407.35 630.06Z" fill="#A21D3D"/>
<path d="M323.14 1090.58C321.1 1091.94 319.01 1092.66 316.21 1093.36C309.62 1084.03 303.74 1074.74 297.91 1065.41C297.46 1064.69 297.41 1063.71 296.89 1062.3C286.02 1037.93 281.03 1013.02 285.93 987.301C291.02 960.621 298 934.301 304.04 907.801C310.49 879.541 316.77 851.231 323.21 822.971C324.68 816.491 326.29 810.031 328.31 803.711C328.8 802.191 331.2 801.291 332.71 800.101C333.23 801.681 334.39 803.371 334.15 804.831C332.88 812.581 331.49 820.331 329.7 827.971C321.37 863.571 312.91 899.141 304.49 934.711C300.8 950.291 296.91 965.821 293.47 981.451C284.41 1022.75 296.73 1058.28 323.14 1090.58Z" fill="#3E6D77"/>
<path d="M513.65 361.811C531.64 357.181 544.55 367.261 545.23 386.311C542.79 392.121 540.22 397.171 537.45 402.841C532.11 404.811 527 407.101 521.81 407.311C507.33 407.891 498.84 399.111 497.22 382.381C500.24 373.351 503.99 365.561 513.65 361.811Z" fill="#E1FF01"/>
<path d="M294.42 1182.92C295.82 1181.72 298.05 1179.89 300.32 1179.83C329.54 1179.03 358.76 1178.27 387.99 1177.94C415.32 1177.64 442.65 1177.88 469.97 1177.88C494.84 1177.88 519.71 1177.64 544.58 1177.95C570.45 1178.27 596.32 1179.08 622.18 1179.78C623.85 1179.82 625.49 1180.81 627.39 1182.02C625.82 1182.84 624.01 1183.13 622.19 1183.13C513.22 1183.14 404.24 1183.13 294.42 1182.92Z" fill="#3E6D77"/>
<path d="M381.12 461.881C382.67 466.841 384.06 471.201 385.44 476.261C385.25 480.861 382.7 479.721 379.88 479.001C373.97 472.951 371.16 465.001 363.37 461.421C356.93 458.461 350.53 455.711 342.63 456.001C333.74 453.021 315.9 461.761 313.44 469.721C312.54 472.631 314.27 473.571 316.38 474.281C320.67 475.711 325.13 476.771 328.99 480.471C329.94 482.941 329.32 484.541 327.57 486.411C322.64 488.401 318.7 486.351 314.64 485.211C307.96 483.331 306.46 484.471 307.16 491.511C308.05 500.501 312.61 507.521 320.05 513.511C324.6 517.731 330.03 518.531 335.57 520.741C339.77 523.621 346.58 520.351 347.32 528.011C337.88 532.221 329.33 530.521 320.33 525.901C313.38 518.461 305.55 511.971 301.22 503.661C287.81 477.951 311.57 442.651 347.68 445.221C353.05 445.981 357.65 446.781 362.96 447.701C371.46 449.731 376.47 455.181 381.12 461.881Z" fill="#7C8C01"/>
<path d="M63.4899 678.74C74.9199 679.23 85.2799 681.27 92.8599 689.89C94.1899 691.4 94.2099 694.06 94.8299 696.19C92.7499 695.7 90.5899 695.43 88.6099 694.69C80.6599 691.69 72.9199 687.87 64.7399 685.87C62.2799 685.27 56.2599 689.38 56.0599 691.69C55.7799 695 58.5299 700.58 61.4099 701.78C69.1999 705.03 69.5099 710.42 70.2499 717.58C71.0499 725.35 74.8899 732.79 77.2999 740.4C77.9499 742.45 78.2099 744.61 78.6499 746.72C76.3999 745.84 72.7599 745.52 72.1499 743.99C68.6299 735.19 64.8099 726.27 63.2499 717.02C62.5599 712.92 62.0899 710.78 58.7599 708.14C53.0499 703.62 46.1799 698.96 49.3999 689.03C53.9999 685.26 58.4299 682.1 63.4899 678.74Z" fill="#A21D3D"/>
<path d="M181.14 892.71C171.22 894.21 161.28 894.75 151.52 896.35C134.21 899.19 120.54 909.02 107.73 920.34C105.75 922.09 102.86 922.8 100.38 924C101.35 921.27 101.56 917.78 103.41 915.93C123.95 895.39 148.27 884.79 178.65 888.84C180.05 890.06 180.63 891.14 181.14 892.71Z" fill="#3E6D77"/>
<path d="M639.28 1182.91C644.33 1178.25 650.38 1175.41 657.85 1181.06C652.32 1181.94 646.21 1182.52 639.28 1182.91Z" fill="#3E6D77"/>
<path d="M277.28 1181.97C277.85 1181.58 278.27 1181.82 278.8 1182.5C278.4 1182.71 277.8 1182.59 277.28 1181.97Z" fill="#3E6D77"/>
<path d="M411.86 686.321C418.27 678.171 425.3 670.001 432.62 662.101C447.24 646.311 462.04 630.701 476.69 614.941C478.59 612.891 479.99 610.371 481.63 608.071C478.74 608.321 475.84 608.561 472.26 608.871C474.08 605.041 475.97 600.501 479.23 597.391C487 589.991 495.49 583.351 503.54 576.231C508.01 572.281 512.38 568.681 519.23 572.371C510.01 582.201 500.2 591.291 490.82 600.821C488.6 603.081 486.67 606.751 486.6 609.811C486.22 628.651 486.42 647.501 486.47 667.231C461.87 674.221 437.24 680.321 411.86 686.321Z" fill="#E28C67"/>
<path d="M237.46 955.271C227.48 946.511 217.9 938.281 208.44 929.911C206.39 928.091 204.79 925.771 202.97 923.681C206.23 924.001 210.17 923.241 212.64 924.801C236.2 939.731 253.13 960.501 264.62 985.781C267.59 992.321 270.34 998.991 272.62 1005.79C273.26 1007.72 271.88 1010.32 271.42 1012.62C269.94 1011.11 267.76 1009.86 267.07 1008.05C259.95 989.151 251.3 971.141 237.46 955.271Z" fill="#3E6D77"/>
<path d="M409.44 687.63C409.35 687.16 409.77 686.69 410.66 686.21C410.75 686.67 410.35 687.16 409.44 687.63Z" fill="#E28C67"/>
<path d="M756.601 97.5714C773.761 90.9514 783.721 98.1914 786.591 107.081C791.161 121.251 785.531 132.601 771.931 136.231C762.981 138.621 752.621 133.781 748.331 125.211C743.491 115.551 746.161 106.211 756.601 97.5714Z" fill="#3E6D77"/>
<path d="M694.31 97.8702C711.47 91.2502 721.43 98.4902 724.3 107.38C728.87 121.55 723.24 132.9 709.64 136.53C700.69 138.92 690.33 134.08 686.04 125.51C681.2 115.85 683.87 106.51 694.31 97.8702Z" fill="#3E6D77"/>
<path d="M643.418 95C657.478 95.88 664.068 103.31 663.778 117.09C663.538 128.61 655.878 136.44 644.348 136.96C633.948 137.43 623.918 129.2 623.118 119.54C621.968 105.79 629.268 96.63 643.418 95Z" fill="#3E6D77"/>
<path d="M270.83 110.73C277.9 118.44 279.71 126.57 274.96 135.34C270.83 142.97 263.63 147.14 255.37 146.39C246.93 145.62 239.82 140.97 237.34 131.91C235.03 123.49 237.66 116.24 244.01 110.6C249.39 105.83 260.78 103.49 270.83 110.73Z" fill="#D4D4D4"/>
<path d="M159.284 180.048C145.604 188.698 133.504 186.128 127.794 173.938C123.834 165.488 126.604 155.418 134.394 149.948C142.864 143.998 153.894 144.848 161.024 151.998C166.744 157.728 167.444 168.738 162.524 176.148C161.714 177.358 160.704 178.438 159.284 180.048Z" fill="#D4D4D4"/>
<path d="M218.284 160.048C204.604 168.698 192.504 166.128 186.794 153.938C182.834 145.488 185.604 135.418 193.394 129.948C201.864 123.998 212.894 124.848 220.024 131.998C225.744 137.728 226.444 148.738 221.524 156.148C220.714 157.358 219.704 158.438 218.284 160.048Z" fill="#D4D4D4"/>
<path d="M390.48 477.89C400.64 472.02 409.87 465.24 420.2 461.47C445.62 452.18 471.17 469.06 473.32 495.99C473.71 500.83 475.52 502.74 479.41 504.28C490.33 508.61 501.18 513.09 512.72 517.68C513.67 518.34 514.05 518.74 514.9 519.22C518.19 520.82 521.21 522.07 523.97 523.73C525.51 524.66 526.62 526.3 527.92 527.62C525.85 528.31 523.36 530.12 521.78 529.52C510.41 525.25 499.23 520.48 487.99 515.89C483.6 514.1 478.83 510.44 474.89 511.17C471.3 511.83 468.6 517.29 464.94 520.95C462.63 519.94 462.25 517.98 461.92 515.26C461.78 511.19 462.22 507.88 463.53 504.81C466.25 498.42 465.43 492.47 461.31 486.22C450.91 470.48 437.26 465.27 420.97 470.92C405.04 477.07 397.91 487.32 398.81 502.16C399.6 515.17 410.3 526.58 424.91 530C428.16 530.76 431.48 531.28 435.02 533.31C436.26 535.12 436.33 536.51 435.38 538.51C422.84 541.73 412.59 537.86 403.67 529.89C392.77 520.15 387.34 508.19 389.74 492.49C392.98 488.93 391.91 486.07 389.87 482.6C389.4 480.76 389.49 479.53 390.48 477.89Z" fill="#7C8C01"/>
<path d="M544.66 578.7C544.3 572.24 543.66 566.61 543.9 561.02C544 558.7 546 556.47 547.14 554.2C548.66 555.96 551.23 557.58 551.48 559.5C552.15 564.53 551.8 569.69 552.09 575.65C552.28 581.9 552.67 587.35 552 592.68C551.7 595.09 549.29 597.23 547.83 599.5C546.82 597.35 545.18 595.27 544.94 593.04C544.48 588.58 544.77 584.04 544.66 578.7Z" fill="#E1FF01"/>
<path d="M392.83 572.95C385.99 574.22 379.5 575.97 373.12 575.63C366.81 575.29 362.6 566.69 363.35 558.69C364.03 551.34 369.3 550.56 374.96 550.4C383.07 550.18 391.38 549.48 397.63 557.5C402.09 564.54 396.13 568.01 392.83 572.95Z" fill="#111F22"/>
<path d="M384.64 490.94C378.81 504.91 373.07 518.81 365.87 531.9C362.05 538.84 358.17 534.82 355.86 528.74C361.97 515.56 368.57 503.25 375.05 490.16C376.22 489.13 377.04 488.79 378.59 488.63C381.02 488.89 382.65 489.5 384.64 490.94Z" fill="#111F22"/>
<path d="M376.8 489.07C370.22 502.25 363.41 514.69 356.18 527.6C353.32 528.19 350.87 528.31 347.69 528.54C342.98 527.11 339.01 525.57 334.52 523.55C337.51 519.4 342.49 520.38 346.77 519.16C352.85 517.42 358.27 515.19 360.73 508C361.83 502.13 363.5 497.16 365.79 491.59C369.04 487.72 371.98 484.7 376.8 489.07Z" fill="#7C8C01"/>
<path d="M435.65 539.201C434.9 537.651 434.88 536.211 434.81 534.041C434.92 532.001 435.63 530.951 436.86 530.641C447.62 527.941 454.69 519.801 463.44 513.221C464.17 515.401 464.25 517.541 464.35 520.481C457.82 531.611 448.61 537.811 435.65 539.201Z" fill="#7C8C01"/>
<path d="M385.26 490.781C383.56 491.081 381.97 490.821 380.01 490.061C376.92 486.031 377.06 482.241 379.18 477.681C381.43 477.311 383.11 477.581 385.11 477.411C386.78 477.111 388.14 477.251 390.21 477.411C390.91 478.701 390.91 479.971 390.69 482.351C389.78 484.271 388.81 484.711 387.65 485.761C386.63 487.491 386 488.851 385.26 490.781Z" fill="#3E6D77"/>
<path d="M390.9 482.511C390.93 485.441 390.95 488.381 390.38 491.491C390.18 490.241 390.58 488.821 390.9 486.811C390.17 485.491 389.92 484.641 390.48 483.091C390.88 482.531 390.89 482.521 390.9 482.511Z" fill="#3E6D77"/>
<path d="M390.3 482.601C390.88 483.351 390.87 484.181 390.85 485.621C390.04 486.221 389.25 486.201 387.86 486.151C388.09 484.971 388.9 483.821 390.3 482.601Z" fill="#3E6D77"/>
<path d="M382.03 462.441C375.64 457.921 370.01 453.351 364.03 448.311C370.7 450.141 378.11 451.651 384.6 454.971C390.02 457.741 388.48 461.121 382.03 462.441Z" fill="#111F22"/>
<path d="M379.24 476.65C379.76 480.7 379.79 484.35 379.73 488.79C379.64 489.57 378.76 489.67 378.76 489.67C378.76 489.67 377.88 489.66 377.45 489.74C374.1 490.35 371.18 490.87 367.69 491.68C363.35 492.18 363.04 488.87 361.93 486.61C359.62 481.9 356.48 478.4 350.83 478.68C345.43 478.96 341.95 482.18 339.76 486.95C339 488.61 338.13 490.25 337.71 492.02C337.13 494.51 335.14 498.15 338.27 499.09C340.32 499.7 340.51 495.39 341.27 493.19C342.07 490.89 342.63 488.5 344 486.46C346.07 483.37 349.03 482.18 352.67 482.71C356.83 483.31 357.93 486.36 358.21 489.94C358.68 495.89 357.31 502.28 362.77 507.59C359.85 518.69 351.65 523.13 334.77 523.05C329.16 521.02 324.34 518.96 319.12 516.36C317.53 505.49 320.66 496.2 326 486.72C327.19 484.77 327.92 483.4 328.65 481.45C329.73 470.56 335.7 462.5 341.67 454.03C357.7 452.35 373.52 462.06 379.24 476.65Z" fill="#DD8866"/>
<path d="M342.67 453.45C338.18 462.66 333.96 471.39 329.21 480.49C325.86 479.74 323.03 478.66 320.23 477.5C316.38 475.9 312.55 474.24 308.71 472.61C311.62 468.9 313.94 464.44 317.55 461.64C324.87 455.95 332.48 449.95 342.67 453.45Z" fill="#FEFEFE"/>
<path d="M325.81 485.99C324.08 495.55 321.67 504.98 319 515.11C308.88 508.27 304.46 498.33 304.58 485.9C304.64 480.06 307.48 480.04 311.45 481.23C316.06 482.59 320.57 484.3 325.81 485.99Z" fill="#FEFEFE"/>
<path d="M464.11 512.56C456.63 522.57 448.75 531.25 435.3 532.95C417.82 533.49 404.82 526.9 398.15 510.76C391.43 494.49 400.81 473.6 419.31 469.46C434.18 472.53 448.06 476.54 461.54 483.83C470.99 492.83 467.64 502.34 464.11 512.56Z" fill="#DD8866"/>
<path d="M461.97 483.62C448.48 479.55 434.81 474.9 420.57 469.82C434.15 461.64 453.14 467.83 461.97 483.62Z" fill="#111F22"/>
<path d="M363.32 507.34C358.03 507.5 355.78 504.7 356.22 499.42C356.5 496.09 356.73 492.64 356.14 489.39C355.79 487.48 353.61 484.3 352.59 484.43C350.03 484.75 346.47 486.01 345.45 487.99C343.41 491.96 342.97 496.72 341.49 501.03C341 502.45 339.44 504.37 338.26 504.45C336.98 504.54 334.26 502.41 334.41 501.83C336.24 494.68 337.21 486.78 341.15 480.91C343.29 477.72 350.74 476.7 355.63 477.06C363.51 477.65 363.76 485.53 366.56 491.59C365.89 496.86 364.64 501.75 363.32 507.34Z" fill="#111F22"/>
<path d="M431.95 484.38C437.4 490.45 442.38 496.29 446.59 502.64C447.51 504.02 445.64 507.24 445.06 509.62C443.16 508.41 440.73 507.59 439.48 505.89C437.56 503.28 436.98 499.57 434.83 497.25C432.62 494.86 428.66 491.63 426.47 492.26C423.39 493.15 420.87 497.02 418.86 500.1C417.86 501.64 418.97 504.4 418.33 506.36C417.37 509.33 415.71 512.07 414.35 514.92C413.19 511.86 411.09 508.8 411.1 505.74C411.12 501.05 411.93 496.11 413.6 491.73C416.73 483.55 423.98 483.62 431.95 484.38Z" fill="#111F22"/>
</svg>
