<svg width="397" height="486" viewBox="0 0 397 486" fill="none" xmlns="http://www.w3.org/2000/svg">
<path d="M187.742 428.12C183.349 427.932 179.758 427.858 176.181 428.061C175.335 428.11 174.118 428.872 173.782 429.629C169.809 438.484 165.975 447.399 161.909 456.576C159.524 457.951 157.179 458.065 154.79 458.065C131.588 458.06 108.391 458.08 85.1898 458.035C82.7113 458.03 80.0745 458.386 77.7989 455.962C65.8715 448.007 62.5273 436.505 62.4729 423.51C62.3888 404.077 62.4086 384.65 62.369 364.778C63.4722 363.729 64.5606 364.085 65.5302 364.61C75.543 370.002 86.2089 371.006 97.3249 369.71C102.579 369.097 103.954 370.23 105.745 375.291C108.149 382.078 111.35 388.361 117.009 393.09C120.903 396.345 125.315 398.131 130.47 398.151C133.107 398.161 135.966 397.894 135.991 402.153C136.006 404.449 138.44 404.132 140.152 404.186C145.113 404.355 149.764 402.435 154.676 402.059C159.885 401.663 164.362 401.96 167.42 407.095C169.305 410.256 172.461 410.232 175.864 409.371C182.573 407.674 188.786 404.176 195.905 403.949C198.685 403.86 201.559 403.781 203.469 405.913C206.981 409.826 210.781 408.634 214.728 407.169C220.18 405.141 225.464 402.588 231.375 402.039C234.304 401.767 237.183 401.945 239.444 404.008C242.452 406.749 245.578 406.289 249.135 405.28C255.774 403.395 262.349 399.457 269.225 400.649C277.18 402.024 284.759 401.52 292.57 400.521C296.498 400.021 300.491 401.149 303.721 403.781C308.292 407.496 307.857 412.398 302.796 415.372C298.606 417.835 293.941 418.741 289.231 419.354C272.441 421.541 255.552 422.822 238.732 424.697C232.756 425.36 226.715 425.033 220.101 426.156C222.02 426.869 223.356 426.705 224.613 426.532C240.76 424.286 257.065 423.594 273.227 421.481C279.5 420.66 285.778 419.854 292.056 419.072C296.063 418.572 299.739 417.286 303.177 415.263C308.638 412.052 308.698 406.027 303.212 402.791C297.676 399.526 291.561 399.848 285.669 401.164C281.657 402.059 278.125 402.232 274.123 400.882C268.305 398.923 262.527 401.114 256.971 402.826C253.973 403.751 250.852 404.27 247.933 405.596C245.756 406.586 243.08 406.67 241.235 404.755C236.797 400.159 231.519 401.579 226.567 402.856C222.49 403.904 218.478 405.458 214.56 407.159C210.89 408.752 207.461 408.931 204.087 405.774C199.724 401.693 194.376 403.914 189.627 404.928C185.2 405.873 180.861 407.555 176.557 409.094C172.486 410.548 169.31 409.702 167.088 406.135C164.763 402.395 161.493 401.376 157.357 401.762C152.628 402.203 147.968 403.019 143.303 403.899C137.802 404.933 137.04 404.216 136.451 398.69C134.947 397.518 133.127 397.918 131.45 397.943C123.089 398.067 116.881 394.228 112.201 387.614C109.074 383.191 106.63 378.412 105.25 373.119C104.711 371.041 104.741 369.037 107.076 368.459C115.659 366.331 124.034 363.363 133.231 362.245C140.191 366.035 145.974 371.006 153.162 373.811C168.602 379.842 184.546 383.424 201.03 384.873C209.524 385.62 217.959 387.307 226.537 386.703C239.805 385.773 253.019 384.586 265.446 379.194C275.142 374.989 283.166 368.874 288.633 359.683C289.612 358.03 290.611 356.427 292.932 355.582C300.421 354.83 307.52 355.22 315.07 355.215C324.919 354.958 334.319 355.146 343.718 355.126C345.44 355.121 347.176 355.136 349.11 356.279C371.882 361.152 385.659 375.078 393.604 396.098C405.012 426.3 386.139 463.165 359.9 474.667C346.513 480.534 332.562 484.358 318.122 484.616C285.649 485.189 253.157 484.799 220.16 484.799C219.616 481.593 219.072 478.392 218.394 474.811C216.875 473.054 217.044 471.259 216.925 469.537C216.104 457.234 214.842 444.96 214.204 432.647C214.006 428.833 212.512 427.507 208.693 427.413C202.485 427.264 196.395 428.536 189.8 428.427C189.108 428.392 188.831 428.368 187.742 428.12Z" fill="#122023"/>
<path d="M292.951 356.17C290.582 359.391 288.593 362.379 286.362 365.169C275.548 378.704 260.622 384.057 244.109 386.1C238.024 386.852 231.91 387.945 225.82 387.906C209.91 387.807 194.06 386.525 178.6 382.479C169.686 380.144 160.638 377.947 152.163 374.455C145.722 371.798 140.087 367.187 133.79 363.314C119.805 354.216 109.886 342.511 107.417 325.85C104.528 306.324 104.988 286.748 107.214 267.153C109.005 251.392 112.236 235.912 115.377 220.398C115.852 218.058 116.48 215.768 117.316 213.542C117.949 211.855 118.874 210.138 121.076 210.86C123.129 211.533 123.312 213.413 122.896 215.219C121.482 221.378 120.349 227.596 119.102 233.508C126.176 225.306 133.562 217.123 144.767 213.923C152.712 211.652 160.821 212.097 168.785 213.393C174.158 214.269 179.882 214.605 184.7 218.583C189.093 229.308 193.516 239.627 197.32 250.17C200.501 258.99 203.227 268.004 205.631 277.072C206.868 281.732 206.962 286.694 207.6 291.774C211.82 292.131 216.208 292.274 220.522 292.907C245.232 296.548 267.83 304.83 285.496 323.411C288.034 326.077 289.771 329.506 292.165 332.746C297.706 340.394 296.405 348.087 292.951 356.17Z" fill="#79AEB9"/>
<path d="M184.938 218.523C173.574 214.66 161.815 212.77 149.764 214.031C142.853 214.754 136.65 217.925 131.564 222.669C126.35 227.532 121.531 232.815 116.713 237.743C118.286 230.545 120.027 222.931 121.541 215.273C121.774 214.101 120.977 212.72 120.656 211.439C119.904 212.384 118.672 213.235 118.474 214.284C114.615 234.492 109.658 254.592 107.482 274.984C105.562 292.962 105.592 311.355 109.129 329.337C110.92 338.44 116.109 345.964 122.649 352.47C126.122 355.928 129.763 359.218 133.409 362.878C127.131 364.763 120.774 366.366 114.413 367.939C111.39 368.686 108.352 369.374 103.855 370.438C108.387 377.809 111.914 385.081 116.871 391.185C122.377 397.968 131.307 396.741 139.618 397.488C138.544 399.605 137.842 400.995 136.709 403.232C139.469 403.068 141.438 403.083 143.368 402.811C148.359 402.109 153.316 401.124 158.323 400.545C162.349 400.075 165.837 401.277 167.816 405.196C169.844 409.208 172.723 409.45 176.76 408.099C183.271 405.923 189.924 404.013 196.662 402.771C199.235 402.297 203.301 403.083 204.761 404.869C207.927 408.738 211.019 407.407 214.393 406.373C220.354 404.552 226.236 402.47 232.227 400.763C235.769 399.754 238.831 400.525 241.572 403.543C242.709 404.79 245.638 405.28 247.469 404.864C252.623 403.692 257.541 401.238 262.725 400.486C267.504 399.793 272.501 400.718 277.408 400.807C279.545 400.847 281.722 400.788 283.815 400.397C290.528 399.14 297.182 398.225 303.637 401.441C309.915 404.567 310.697 411.567 304.751 415.367C301.149 417.667 296.87 419.671 292.695 420.19C269.666 423.04 246.578 425.409 223.5 427.878C221.224 428.12 218.904 427.912 216.604 427.912C216.485 427.497 216.366 427.076 216.248 426.661C217.296 426.151 218.306 425.281 219.389 425.182C230.718 424.143 242.071 423.336 253.395 422.248C262.671 421.358 271.932 420.249 281.178 419.077C286.318 418.424 291.433 417.509 296.529 416.564C298.176 416.257 300.071 415.861 301.253 414.823C303.064 413.225 305.76 410.825 305.512 409.143C305.196 406.972 302.683 404.602 300.521 403.326C295.762 400.516 290.533 401.535 285.264 402.208C281.262 402.722 277.052 401.441 272.995 401.742C267.277 402.163 261.583 403.138 255.938 404.196C253.054 404.74 250.368 406.378 247.478 406.823C244.204 407.328 241.359 407.1 237.98 404.716C235.126 402.697 229.639 403.494 225.573 404.315C220.116 405.413 214.956 407.916 209.559 409.415C208.021 409.841 205.211 409.475 204.493 408.431C200.674 402.885 195.302 404.998 190.681 405.661C185.947 406.343 181.48 408.733 176.8 410.009C170.008 411.859 168.612 411.36 165.229 406.526C164.036 404.825 161.192 403.306 159.149 403.36C152.406 403.548 145.693 404.686 138.945 405.082C134.537 405.339 133.498 403.588 135.264 399.472C114.981 400.877 108.461 386.629 102.767 370.833C89.1875 371.773 75.2813 373.035 62.696 364.422C55.028 355.517 47.6619 346.751 43.3035 335.858C37.4759 321.279 37.0405 306.324 39.9939 291.225C42.1607 280.149 44.7382 269.117 47.8499 258.268C52.6188 241.626 61.1327 226.874 71.9321 213.354C80.0305 203.217 89.8899 195.208 100.798 188.401C103.005 187.025 105.666 186.377 108.481 185.393C125.425 192.185 143.185 194.599 160.326 199.314C161.231 199.561 162.241 199.497 163.111 199.848C168.083 201.886 172.62 201.5 176.953 197.582C179.857 204.434 182.395 211.301 184.938 218.523Z" fill="#F7EFD7"/>
<path d="M116.871 391.185C111.914 385.081 108.387 377.809 103.855 370.438L102.767 370.833C108.461 386.629 114.981 400.877 135.264 399.472C133.498 403.588 134.537 405.339 138.945 405.082C145.693 404.686 152.406 403.548 159.149 403.36C161.192 403.306 164.036 404.825 165.229 406.526C168.612 411.36 170.007 411.859 176.8 410.009C181.48 408.733 185.947 406.343 190.681 405.661C195.302 404.998 200.674 402.885 204.493 408.431C205.211 409.475 208.021 409.841 209.559 409.415C214.956 407.916 220.116 405.413 225.573 404.315C229.639 403.494 235.126 402.697 237.98 404.716C241.359 407.1 244.203 407.328 247.478 406.823C250.367 406.378 253.054 404.74 255.938 404.196C261.582 403.138 267.276 402.163 272.995 401.743C277.052 401.441 281.262 402.722 285.264 402.208C290.533 401.535 295.762 400.516 300.521 403.326C302.683 404.602 305.196 406.972 305.512 409.143C305.76 410.825 303.063 413.225 301.253 414.823C300.07 415.861 298.176 416.257 296.528 416.564C291.433 417.509 286.318 418.424 281.178 419.077C271.932 420.249 262.671 421.358 253.395 422.248C242.071 423.336 230.718 424.143 219.389 425.182C218.306 425.281 217.296 426.151 216.248 426.661C216.366 427.076 216.485 427.497 216.604 427.912C218.904 427.912 221.224 428.12 223.5 427.878C246.578 425.409 269.666 423.04 292.694 420.19C296.87 419.671 301.149 417.667 304.75 415.367C310.697 411.567 309.915 404.567 303.637 401.441C297.181 398.225 290.528 399.14 283.814 400.397C281.722 400.788 279.545 400.847 277.408 400.808C272.501 400.718 267.504 399.793 262.725 400.486C257.541 401.238 252.623 403.692 247.468 404.864C245.638 405.28 242.709 404.79 241.572 403.543C238.831 400.526 235.769 399.754 232.227 400.763C226.236 402.47 220.354 404.552 214.392 406.373C211.019 407.407 207.927 408.738 204.76 404.869C203.301 403.083 199.235 402.297 196.662 402.771C189.924 404.013 183.27 405.923 176.76 408.099C172.723 409.45 169.844 409.208 167.816 405.196C165.837 401.277 162.349 400.075 158.322 400.545C153.316 401.124 148.359 402.109 143.368 402.811C141.438 403.083 139.469 403.068 136.709 403.232C137.842 400.995 138.544 399.605 139.618 397.488C131.307 396.741 122.377 397.968 116.871 391.185Z" fill="#E1FF01"/>
<path d="M77.3983 455.923C79.5553 455.873 81.5341 456.472 83.5228 456.477C109.272 456.586 135.027 456.605 161.246 456.749C158.075 465.104 154.563 473.42 150.679 481.558C149.991 482.998 147.75 484.601 146.222 484.606C114.061 484.784 81.9051 484.863 49.7443 484.685C38.9498 484.625 27.9822 477.18 26.8889 463.022C26.0578 452.232 23.3765 441.591 21.7885 430.846C19.6266 416.208 17.7814 401.52 15.6789 386.877C14.175 376.433 12.399 366.03 10.8604 355.591C8.61447 340.33 6.49712 325.053 4.28084 309.787C2.90061 300.278 1.22851 290.81 0.125319 281.272C-0.220975 278.313 0.130266 274.826 1.43134 272.214C4.08791 266.876 8.79751 265.797 14.17 268.761C19.2358 271.551 22.1991 275.959 23.3666 281.668C25.662 292.887 28.1652 304.068 30.4211 315.298C32.6126 326.211 34.542 337.178 36.7038 348.097C38.742 358.406 40.9732 368.681 43.0361 378.986C45.4107 390.834 47.6319 402.712 50.0312 414.555C52.2722 425.632 54.4836 436.723 57.0363 447.73C58.3967 453.583 62.0674 456.205 68.2265 456.467C71.2096 456.59 74.2223 456.363 77.3983 455.923Z" fill="#6D4F2C"/>
<path d="M310.103 313.289C311.28 306.319 312.754 299.591 314.308 292.878C317.197 280.376 320.076 267.875 323.069 255.399C325.335 245.95 327.888 236.57 330.119 227.116C332.924 215.224 335.466 203.267 338.252 191.369C340.072 183.602 341.769 175.776 344.218 168.197C345.707 163.586 349.966 161.691 354.765 161.672C364.253 161.632 373.742 161.706 383.577 161.929C380.663 177.616 377.022 193.026 373.465 208.451C367.884 232.677 362.502 256.947 356.907 281.168C354.874 289.964 352.811 298.755 350.797 307.555C349.556 312.982 348.175 314.135 342.654 314.199C333.309 314.308 323.96 314.249 314.61 314.219C313.185 314.214 311.75 314.204 310.103 313.289Z" fill="#E0DBC7"/>
<path d="M162.043 53.0888C165.199 54.3601 168.024 55.6365 171.235 57.0761C176.276 52.7474 180.317 52.6138 184.399 57.2542C190.677 52.4951 193.511 52.9255 199.868 59.5249C204.484 55.7651 208.931 51.7976 213.735 48.3247C218.776 44.6837 222.031 45.5346 225.256 50.7587C226.315 52.4704 227.196 54.2958 228.363 56.4527C231.208 55.8591 234.117 54.6619 236.961 54.8054C240.32 54.9686 244.199 55.4683 246.801 57.3086C250.214 59.7178 249.185 63.7991 247.484 67.2373C245.44 71.378 243.274 75.4593 241.048 79.788C241.701 80.0502 242.507 80.4955 243.373 80.7032C249.631 82.2071 251.293 84.7351 248.631 90.4489C245.836 96.4546 240.934 100.383 234.028 100.67C227.592 100.937 222.061 99.0073 218.806 92.4525C216.134 90.3154 216.787 86.5457 213.606 84.3937C209.342 86.9563 204.509 88.5789 199.156 87.174C197.825 86.8227 197.315 87.9556 196.653 88.8758C192.176 95.0893 188.065 96.2469 180.342 93.2143C177.977 99.5119 172.649 101.214 166.159 101.506C147.142 101.832 139.405 121.615 153.039 135.62C151.555 141.834 145.238 143.937 139.044 140.276C131.732 137.218 129.897 132.227 133.612 125.583C125.257 119.557 124.416 114.694 130.416 107.041C124.45 100.007 124.218 96.3211 128.749 91.6164C128.324 87.2531 127.705 83.4934 127.76 79.7435C127.775 78.7343 129.833 77.7548 131.262 76.4438C131.426 75.7215 131.431 75.306 131.678 74.5985C132.306 72.872 132.786 71.4077 134.958 71.1801C136.091 71.0466 136.917 70.9971 138.015 70.8289C138.678 70.7398 139.252 71.1752 139.371 70.824C139.524 70.3688 138.955 69.9236 138.797 69.0826C138.752 68.3158 138.841 67.8903 139.247 67.2472C141.161 66.1292 143.813 67.0493 144.258 63.7843C144.476 62.1814 147.024 62.8097 148.364 61.939C149.176 60.8062 148.023 59.5348 148.696 58.0655C149.596 57.1058 150.487 56.9771 151.768 57.0414C152.545 57.1899 152.975 57.3185 153.712 57.5559C155.013 57.9072 155.839 57.7984 156.275 56.71C157.259 54.2711 159.367 53.4895 162.043 53.0888Z" fill="#122023"/>
<path d="M130.747 71.0614C129.234 70.1066 128.031 69.1964 127.66 68.9144C125.38 71.5809 123.732 75.2021 121.422 75.6919C119.443 76.1124 115.867 73.4657 114.481 71.2494C111.82 66.985 108.664 66.8713 104.483 67.8755C101.139 68.6769 97.6565 69.1914 94.2182 69.2607C90.033 69.3398 87.6832 66.3963 88.826 62.4189C89.8154 58.9659 91.5666 55.7354 93.1695 51.9658C91.3044 50.3827 88.4154 48.6315 86.5404 46.1184C84.7397 43.7042 82.558 40.1819 83.1072 37.7183C84.0372 33.5627 88.2076 31.7175 92.556 31.2722C94.4211 31.0793 96.2911 30.921 98.2748 30.738C98.6557 26.2757 99.1554 22.0856 99.3236 17.8855C99.4819 13.913 101.56 12.9088 104.943 13.8833C107.605 14.6501 110.232 15.6198 112.765 16.7477C117.316 18.776 120.349 17.7717 122.209 13.3194C122.877 11.7264 123.431 10.084 123.955 8.44158C125.296 4.25637 127.002 3.48957 131.069 5.50302C134.255 7.08113 137.362 8.81755 140.453 10.455C143.748 6.11645 145.049 -0.774798 151.906 0.0711488C159.376 0.991301 162.285 7.2147 164.462 14.1455C166.638 14.1455 168.973 14.007 171.288 14.1802C174.786 14.4374 176.339 16.8268 174.925 19.993C173.149 23.9654 171.056 27.7945 169.651 30.5895C170.556 33.9783 172.392 36.9465 171.758 39.237C170.363 44.3028 166.564 47.6421 160.632 48.5375C158.668 49.6258 161.607 52.3517 160.954 54.4443C160.568 54.7856 156.299 53.4845 155.784 53.5934C154.731 53.4548 154.018 53.0343 152.935 53.6032C155.24 53.816 156.269 55.1467 156.571 57.0365C156.769 58.2881 155.864 58.5454 154.523 58.4514C153.81 58.2535 153.449 58.0606 152.871 57.6351C151.649 57.3581 150.659 57.5263 149.472 57.1404C149.056 57.081 148.893 57.0711 148.512 57.0711C147.963 57.1355 147.785 57.3284 147.77 57.9171C147.815 58.3524 147.839 58.5355 147.884 59.0104C147.854 61.4443 146.989 62.6267 144.332 62.0182C143.016 62.0479 141.097 59.703 141.349 63.2649C142.022 66.2084 140.102 66.3122 138.084 66.6734C136.966 67.0246 136.644 67.7222 136.253 68.7511C135.986 69.1964 135.853 69.3547 135.427 69.6367C133.646 69.8296 132.365 70.5172 130.747 71.0614Z" fill="#122023"/>
<path d="M187.664 427.462C196.895 426.799 205.814 426.24 215.239 425.647C216.327 442.175 217.361 457.877 218.33 473.999C217.445 474.9 216.456 475.211 215.832 475.869C208.07 484.101 198.448 485.872 187.585 484.962C179.57 484.289 171.452 484.828 162.597 484.828C166.035 476.992 169.325 469.557 172.565 462.097C177.403 450.951 182.207 439.785 186.981 428.264C186.936 427.893 186.941 427.977 186.897 427.982C187.025 427.848 187.189 427.71 187.664 427.462Z" fill="#82ACB0"/>
<path d="M309.703 313.433C321.185 313.037 332.593 312.928 344 313.096C347.122 313.146 348.641 312.072 349.284 309.099C352.544 294.05 355.819 279.006 359.208 263.992C362.008 251.584 365.025 239.227 367.86 226.829C370.729 214.274 373.381 201.669 376.334 189.138C378.447 180.198 380.906 171.338 383.562 162.29C392.947 163.809 392.971 169.884 391.101 178.279C386.837 197.414 382.424 216.515 377.987 235.61C374.4 251.04 370.655 266.44 367.054 281.865C366.485 284.309 366.282 286.837 365.812 289.706C365.02 296.998 363.987 303.86 362.102 310.553C360.919 314.758 360.42 319.384 355.547 321.734C352.371 322.53 349.605 324.029 346.786 324.128C337.827 324.445 328.848 324.375 319.884 324.202C312.997 324.069 309.653 320.492 309.703 313.433Z" fill="#6D4F2C"/>
<path d="M112.255 174.267C106.492 163.205 108.352 155.364 117.766 150.313C122.782 147.627 127.991 148.433 133.166 149.913C134.66 150.338 136.134 150.823 137.989 151.342C141.655 150.897 144.48 152.49 147.404 153.489C155.69 156.319 164.194 158.535 172.451 162.438C174.538 163.497 176.428 164.18 178.209 165.085C183.161 167.593 186.011 171.675 185.922 177.23C185.823 183.34 182.968 187.906 176.69 190.29C164.827 187.777 153.286 185.106 141.784 182.276C134.413 180.466 127.012 178.744 119.626 176.993C117.177 176.409 114.61 176.147 112.255 174.267Z" fill="#122023"/>
<path d="M172.733 162.275C165.55 160.509 158.392 158.342 151.258 156.082C147.092 154.761 142.976 153.286 138.603 151.644C138.485 147.86 138.608 144.312 138.816 140.345C144.278 142.24 148.903 141.211 152.836 136.486C154.216 135.536 155.458 136.11 156.497 136.699C165.307 141.686 178.773 133.285 179.941 121.155C180.119 119.285 179.857 117.361 180.861 115.244C185.437 112.528 190.087 113.804 195.015 113.938C197.379 114.729 197.552 116.609 198.067 118.232C199.012 121.205 200.684 123.624 203.212 125.459C206.14 127.586 208.837 126.721 211.558 124.945C216.688 121.601 216.707 121.63 220.17 127.25C220.982 132.682 220.759 132.84 213.314 132.375C212.527 136.313 211.864 140.291 210.914 144.199C209.579 149.675 205.339 153 199.764 153.034C190.943 153.089 182.127 153.049 172.768 153.049C172.768 155.889 172.768 158.862 172.733 162.275Z" fill="#6D4F2C"/>
<path d="M111.781 174.208C121.343 176.117 130.674 178.264 139.994 180.441C149.779 182.726 159.574 184.972 169.325 187.391C171.561 187.945 173.634 189.148 176.078 190.241C176.706 192.556 177.037 194.688 177.349 197.192C173.911 203.158 169.335 202.95 163.547 201.387C149.339 197.548 134.888 194.599 120.631 190.919C116.688 189.9 113.077 187.574 109.08 185.61C107.957 181.292 107.729 177.374 111.781 174.208Z" fill="#E1FF01"/>
<path d="M355.21 322.09C356.956 318.459 359.41 315.441 360.405 312.003C362.428 304.993 363.665 297.76 365.47 290.35C365.797 305.859 366.089 321.635 365.876 337.406C365.752 346.617 358.737 354.196 349.6 356.249C338.296 356.556 327.126 356.526 315.5 356.418C315.104 353.044 316.386 349.863 316.173 346.217C324.766 345.915 333.161 345.959 341.556 345.895C351.089 345.821 355.324 341.507 355.314 332.014C355.314 328.848 355.279 325.681 355.21 322.09Z" fill="#6D4F2C"/>
<path d="M166.138 101.595C166.95 100.759 167.865 99.8632 168.829 99.8088C175.359 99.4427 177.947 97.454 179.782 91.0772C188.054 96.2271 192.531 94.6886 197.384 84.834C203.518 88.2525 208.965 86.7832 214.595 81.2771C216 85.0616 217.202 88.297 218.478 91.9083C217.86 95.8116 217.172 99.3339 216.554 103.242C215.292 107.635 213.096 106.398 210.578 104.306C207.555 96.4102 205.695 94.9557 198.17 94.7133C195.524 94.6292 192.867 95.0794 192.273 98.1911C191.675 101.342 194.089 102.144 196.558 102.658C197.794 102.916 199.001 103.282 200.283 104.325C200.674 107.427 199.269 109.584 197.166 111.795C191.66 113.097 186.466 112.592 180.9 112.3C175.869 108.649 171.55 104.617 166.138 101.595Z" fill="#6D4F2C"/>
<path d="M316.178 345.658C317.681 349.358 317.993 352.692 315.198 356.032C307.876 356.398 300.708 356.452 293.114 356.502C293.258 353.622 294.396 350.733 294.287 347.894C294.109 343.14 293.144 338.41 292.476 333.295C302.271 331.108 311.537 336.021 316.178 345.658Z" fill="#8C3C4A"/>
<path d="M210.464 103.42C212.527 104.508 214.155 107.076 216.455 103.915C225.236 101.847 227.24 102.881 231.747 111.711C232.751 113.359 232.964 114.754 232.048 116.624C230.109 122.491 226.899 126.414 220.551 127.517C218.736 126.003 217.277 124.401 215.773 122.753C215.674 122.798 215.337 122.862 215.129 123.06C207.417 130.53 199.972 128.521 197.048 118.167C196.835 117.41 196.667 116.644 196.385 115.531C195.559 113.903 195.856 112.77 196.999 111.42C198.324 109.159 199.428 107.195 200.664 104.914C203.395 100.645 206.749 101.614 210.464 103.42Z" fill="#82ACB0"/>
<path d="M232.241 116.98C231.771 115.62 231.727 114.239 231.761 112.444C234.507 112.087 237.223 111.865 239.82 112.31C240.978 112.508 241.908 114.051 242.937 114.981C241.868 115.639 240.849 116.723 239.716 116.866C237.396 117.163 235.017 116.955 232.241 116.98Z" fill="#E1FF01"/>
<path d="M153.469 57.8874C154.169 57.7327 154.194 57.6575 154.464 57.6639C154.706 57.6697 154.938 57.555 155.048 57.3398C155.174 57.0934 155.106 56.7956 154.905 56.606C154.072 55.8224 153.846 55.1251 152.826 54.3156C151.654 52.6534 152.46 51.4166 155.557 52.8315C156.749 53.4548 156.903 53.3905 157.244 53.2075C157.298 53.158 158.729 52.2181 158.728 51.7234C158.723 49.3142 157.986 48.577 159.925 48.577C160.895 49.8534 161.587 51.105 162.324 52.7276C160.351 54.8252 156.531 54.6471 156.512 58.5948C156.512 58.7333 155.047 58.862 153.969 58.8817C153.538 58.5651 153.4 58.3722 153.469 57.8874Z" fill="#6D4F2C"/>
<path d="M130.347 71.0713C131.96 70.4579 134.983 68.7907 138.693 69.2854C139.598 70.0176 140.469 70.0225 139.682 71.0713C135.23 71.7589 133.617 73.5795 132.717 74.5194C131.114 74.3413 130.787 73.1342 130.382 71.6155C130.283 71.3236 130.258 71.1208 130.347 71.0713Z" fill="#6D4F2C"/>
<path d="M187.683 427.309C187.752 427.551 187.524 427.734 187.069 427.942C187.04 427.749 187.218 427.507 187.683 427.309Z" fill="#FEFEFE"/>
<path d="M188.717 295.49C179.209 305.938 169.958 316.158 159.757 327.433C160.182 325.053 159.979 323.173 160.806 322.055C171.293 307.808 181.915 293.649 197.963 284.962C198.379 284.74 198.725 284.191 199.121 284.176C200.362 284.121 201.614 284.25 202.861 284.304C202.277 285.279 201.926 286.58 201.075 287.179C197.117 289.974 193.021 292.581 188.717 295.49Z" fill="#0E1140"/>
<path d="M208.812 302.356C205.8 313.433 202.975 324.192 197.365 333.79C196.653 333.528 195.94 333.265 195.228 333.008C195.915 330.732 196.593 328.452 197.291 326.181C200.17 316.876 202.97 307.551 206.017 298.3C206.532 296.741 208.14 295.544 209.243 294.184C209.317 295.861 209.47 297.543 209.426 299.22C209.401 300.14 209.04 301.05 208.812 302.356Z" fill="#0E1140"/>
<path d="M165.605 101.169C170.324 104.306 174.638 107.353 179.046 110.682C177.458 112.978 175.246 112.444 172.738 112.122C171.294 111.617 170.581 110.742 169.75 110.024C163.086 104.256 154.028 106.67 151.035 115.001C148.592 121.803 151.283 129.318 157.16 132.123C163.012 134.913 169.033 133.043 172.758 127.309C174.173 125.128 174.796 122.709 175.133 120.176C175.36 118.464 175.138 116.678 176.32 114.823C178.19 113.834 179.649 113.908 181.049 115.679C181.222 128.111 176.453 135.472 166.911 138.465C162.028 139.994 157.709 138.801 153.217 136.244C140.582 126.924 143.382 108.54 155.166 103.005C158.149 101.6 161.84 101.679 165.605 101.169Z" fill="#82ACB0"/>
<path d="M136.372 66.7179C137.98 65.6493 139.499 64.9369 140.899 63.8981C140.523 64.0316 140.919 63.4776 140.899 63.8981C141.414 63.4034 140.404 60.6627 140.671 60.1334C140.874 59.7475 143.783 61.8549 144.134 61.6175C146.113 61.1228 146.9 61.1228 146.9 58.3029C147.201 57.6252 147.558 57.452 148.483 57.7142C149.092 58.7656 149.558 59.7306 149.98 60.7183C150.53 62.0054 149.547 63.4132 148.147 63.4132C146.965 63.4132 145.809 63.4132 144.545 63.4132C144.72 64.4692 144.877 65.4164 145.041 66.4066C145.142 67.0154 144.672 67.5684 144.055 67.5694C142.666 67.5718 141.345 67.5827 139.796 67.6331C137.703 68.296 140.424 70.0275 137.703 71.0169C136.862 70.7844 134.735 67.5688 136.372 66.7179Z" fill="#6D4F2C"/>
<path d="M148.701 56.3637C150.002 56.3785 154.241 57.6054 155.661 57.8528C156.082 58.016 156.166 58.2189 156.007 58.6492C153.534 59.3913 150.679 57.9666 149.349 58.0012C148.988 58.021 148.938 57.9666 148.908 57.9369C148.562 57.5461 148.419 57.1256 148.701 56.3637Z" fill="#6D4F2C"/>
<path d="M149.719 56.5136C149.037 57.5723 148.209 58.0905 147.171 59.1501C146.925 58.7566 146.78 58.1052 146.662 57.3773C146.574 56.8331 146.957 56.3144 147.506 56.2695C148.205 56.2124 148.927 56.2388 149.719 56.5136Z" fill="#6D4F2C"/>
<path d="M171.848 110.801C174.287 110.959 176.325 111.004 178.749 111.009C184.878 111.039 190.617 111.103 196.791 111.142C196.989 112.246 196.751 113.374 196.4 114.843C191.438 115.263 186.59 115.347 181.48 115.733C179.971 115.817 178.719 115.605 177.156 115.343C173.752 116.654 170.473 116.856 166.762 116.767C165.837 116.431 165.392 116.094 164.833 115.283C165.15 110.663 168.281 110.648 171.848 110.801Z" fill="#E1FF01"/>
<path d="M210.746 103.301C207.605 103.89 204.478 104.093 201.075 104.449C199.106 104.276 197.236 104.301 195.757 103.549C193.916 102.609 191.562 101.347 190.924 99.6604C189.781 96.6328 191.898 94.4956 194.881 93.9069C201.08 92.69 211.112 94.5253 210.746 103.301Z" fill="#122023"/>
<path d="M210.385 107.62C213.937 111.286 215.797 115.13 212.74 119.582C211.483 121.408 209.514 124.109 207.971 124.044C205.858 123.955 203.251 122.714 201.772 120.24C201.52 119.745 200.852 115.926 201.025 115.54C199.61 115.813 202.44 115.268 201.025 115.54C200.956 115.822 201.099 115.258 201.025 115.54C199.279 114.932 202.747 116.144 201.025 115.54C200.466 109.02 204.498 105.716 210.385 107.62Z" fill="#6D4F2C"/>
<path d="M226.656 116.728C224.212 123.495 221.714 124.549 216.589 121.254C217.162 120.042 217.751 118.805 218.419 117.237C220.996 114.952 223.643 115.234 226.656 116.728Z" fill="#E0DBC7"/>
<path d="M227.215 116.837C224.42 116.995 221.878 116.916 218.919 116.871C218.449 115.56 218.395 114.21 218.38 112.453C220.918 110.163 223.525 110.539 226.587 111.84C227.156 113.547 227.314 115.07 227.215 116.837Z" fill="#E1FF01"/>
<path d="M226.869 111.711C224.425 112.077 221.843 112.137 218.84 112.122C218.454 110.574 218.494 109.089 218.528 107.61C220.428 107.793 222.456 107.63 224.173 108.283C225.266 108.694 225.9 110.321 226.869 111.711Z" fill="#E0DBC7"/>
<path d="M165.822 116.085C169.414 115.684 172.699 115.402 176.409 115.204C177.171 120.948 176.241 126.167 172.05 130.431C167.074 135.502 160.826 136.372 155.023 132.667C149.744 129.293 147.449 121.457 149.492 115.13C153.059 104.078 166.168 102.208 172.11 110.608C169.898 112.008 167.554 113.102 165.134 114.526C163.957 115.61 162.933 114.858 161.894 114.645C159.287 114.111 157.066 114.798 155.735 117.099C154.197 119.755 154.958 122.362 156.794 124.584C158.535 126.691 160.692 127.586 163.606 126.107C162.221 125.009 160.87 125.771 159.717 125.316C157.066 124.267 155.404 122.348 155.948 119.503C156.467 116.792 158.684 115.812 161.365 115.996C162.755 116.094 164.091 117.054 165.822 116.085Z" fill="#6D4F2C"/>
<path d="M165.975 115.758C166.069 118.271 165.951 119.904 162.938 117.851C161.775 117.059 159.381 117.282 157.991 117.955C157.234 118.321 156.714 121.279 157.303 121.878C158.52 123.119 160.499 123.698 162.255 124.292C163.373 124.668 164.645 124.574 165.847 124.687C164.758 125.82 163.373 128.081 162.631 127.888C159.95 127.191 156.813 126.256 155.102 124.307C152.801 121.695 152.915 117.935 155.537 115.239C158.105 112.597 161.261 112.013 164.724 114.774C165.317 115.09 165.57 115.323 165.975 115.758Z" fill="#122023"/>
</svg>
