<svg width="556" height="273" viewBox="0 0 556 273" fill="none" xmlns="http://www.w3.org/2000/svg">
<path d="M117.769 237.035C118.488 236.578 119.05 236.101 119.635 236.07C124.206 235.828 125.33 232.79 126.011 228.929C127.55 220.247 129.316 211.606 131.109 202.969C132.725 195.194 134.361 187.415 136.235 179.697C138.459 170.53 140.844 161.397 143.361 152.311C144.765 147.239 146.639 142.286 149.502 137.821C154.766 129.615 163.678 129.5 169.296 137.506C169.873 138.329 170.331 139.233 170.885 140.382C172.039 142.27 170.993 143.632 170.296 144.904C157.802 167.884 151.434 193.145 143.115 217.678C141.464 222.546 141.864 226.964 146.405 230.621C146.882 231.121 147.101 231.444 147.351 232.075C147.17 234.359 145.612 235.643 144.665 237.266C142.341 241.262 141.314 245.457 142.58 250.014C143.076 251.794 144 253.278 145.974 253.759C148.025 254.255 149.394 253.136 150.53 251.698C152.022 249.81 153.027 247.822 156.317 249.314C158.383 250.252 158.295 247.633 158.26 246.28C158.179 243.269 157.063 240.289 158.141 236.997C163.912 235.051 166.537 230.398 169.161 225.722C171.339 221.842 173.113 217.739 175.552 214.002C176.291 212.871 176.676 211.333 178.688 211.606C179.743 213.41 179.366 215.044 179.062 216.67C178.315 220.685 177.934 224.715 177.965 228.814C178.007 234.521 180.308 238.839 185.095 241.931C186.784 243.023 188.747 243.823 189.916 246.034C190.717 252.405 190.455 258.435 189.424 264.438C188.993 266.937 188.793 269.444 188.781 272.324C188.785 278.535 187.719 284.318 187.081 290.098C185.518 304.233 184.152 318.396 183.113 332.558C181.913 348.866 180.759 365.267 182.979 381.971C182.794 387.043 182.432 391.75 180.301 396.434C177.384 398.095 174.49 397.372 171.366 397.441C169.638 397.256 168.222 396.553 166.544 397.499C164.978 398.183 163.535 398.406 161.992 399.152C158.779 399.617 156.817 401.748 154.347 403.513C149.525 406.093 146.824 410.204 144.281 414.518C137.939 425.27 133.268 436.844 127.511 448.184C127.338 448.592 127.265 448.754 127.08 449.15C126.211 450.726 125.557 452.122 124.749 453.726C124.071 454.814 123.579 455.706 123.175 456.936C121.32 460.966 119.642 464.789 117.457 468.638C115.983 468.949 114.725 469.219 113.467 469.222C97.4286 469.257 81.3906 469.196 65.3565 469.307C62.7168 469.326 61.6086 468.788 62.2051 465.923C63.5133 459.636 64.6523 453.31 65.8336 447C67.7114 436.96 69.4237 426.889 71.4939 416.887C72.7213 410.954 73.8141 405.001 74.8723 399.041C76.7231 388.612 78.6586 378.199 80.6326 367.793C81.9486 360.852 83.3954 353.935 84.9538 346.755C86.9277 345.582 87.0778 344.325 85.8042 342.537C85.9619 341.372 86.2082 340.46 86.4929 339.268C87.0047 337.476 86.9316 335.892 87.2548 334.108C87.8358 331.012 88.313 328.151 88.8401 324.952C89.2673 323.76 90.0561 322.991 89.2865 321.718C90.9834 314.896 91.576 308.09 92.9189 301.084C94.2003 299.638 94.485 298.288 94.0233 296.493C95.7971 284.295 98.1559 272.447 100.145 260.546C100.826 256.478 101.9 252.452 102.108 248.249C102.4 242.307 105.309 239.77 112.408 238.251C113.136 238.093 113.84 237.824 114.852 237.601C116.122 238.408 116.968 238.478 117.769 237.035Z" fill="#5E5C54"/>
<path d="M189.744 246.468C187.889 244.403 185.538 243.626 183.618 242.226C179.25 239.042 177.134 234.893 176.88 229.421C176.607 223.557 178.2 217.946 178.473 211.844C176.811 208.345 178.569 205.295 178.996 202.288C181.251 186.411 183.498 170.529 185.873 154.344C185.942 153.813 185.973 153.602 186.08 153.083C186.253 152.368 186.35 151.96 186.484 151.237C188.297 139.32 190.49 127.803 193.83 116.525C194.55 114.095 195.438 111.745 196.689 109.203C199.425 103.851 201.672 98.5671 204.585 93.6835C210.01 84.5931 216.686 76.7101 227.245 73.1647C228.603 72.7071 229.919 72.3918 231.647 72.4417C234.56 70.6152 237.2 71.5035 239.551 72.7301C244.799 75.4642 250.278 77.2292 256.458 77.8214C258.382 78.8943 260.156 79.6826 261.603 81.413C264.204 83.6664 266.851 85.4891 268.148 88.8038C266.998 90.415 265.809 89.3921 264.647 89.1537C262.315 88.6769 260.206 87.2656 256.928 87.4156C263.542 97.0136 266.347 107.781 270.191 118.452C276.24 140.312 280.965 162.181 285.491 184.092C285.775 185.476 285.895 186.864 285.156 188.487C283.182 190.018 281.112 189.614 279.13 189.66C273.67 189.795 273.1 190.318 272.873 196.016C272.943 202.154 272.873 207.979 272.904 213.801C272.912 215.447 272.904 217.097 273.354 218.7C274.324 222.126 276.875 224.153 279.903 223.914C282.97 223.672 285.352 221.35 285.783 217.927C286.195 214.655 285.933 211.352 285.96 208.064C285.991 204.395 285.968 200.723 285.979 196.728C285.998 194.221 285.941 192.04 285.691 189.537C286.849 184.78 288.661 180.57 289.769 176.12C292.828 163.831 292.555 151.449 291.02 139.04C290.25 132.829 291.37 131.51 298.369 131.88C301.44 144.508 300.759 157.055 300.016 169.952C299.647 179.074 297.531 187.514 293.109 194.978C289.592 200.919 289.904 206.518 291.178 212.798C293.017 221.857 295.226 230.905 295.168 240.546C292.902 243.764 289.631 245.01 286.51 246.383C275.551 251.209 264 253.197 252.083 253.951C235.333 255.008 218.868 253.232 202.492 250.074C198.263 249.263 193.988 248.463 189.744 246.468Z" fill="#111F22"/>
<path d="M189.482 246.61C192.314 244.995 194.715 247.049 197.108 247.71C211.076 251.559 225.39 252.851 239.708 253.167C257.424 253.555 274.963 251.79 290.939 242.919C292.143 242.25 293.255 241.415 294.614 240.465C295.095 240.1 295.399 240.042 295.933 240.189C300.22 250.113 301.34 260.519 302.398 270.952C303.952 286.314 303.348 301.649 301.459 316.911C300.736 322.745 299.427 328.609 296.876 334.027C295.518 336.911 293.698 339.441 289.896 340.026C287.657 341.214 285.583 341.152 283.155 340.526C280.642 337.684 282.089 334.712 282.631 332.035C283.486 327.821 284.621 323.621 286.087 319.545C291.228 305.271 291.558 290.417 291.278 275.512C291.204 271.682 289.334 270.698 285.598 272.57C278.287 276.235 270.738 279.204 262.849 281.357C261.118 281.83 259.394 282.215 257.289 282.23C255.731 281.953 255.077 281.007 254.569 279.988C252.756 276.362 250.667 272.932 247.946 269.894C247.454 269.344 246.527 268.579 248.012 267.698C253.13 267.664 257.932 267.706 262.73 267.648C255.781 267.71 248.758 268.437 241.909 268.052C232.667 267.529 223.428 268.244 216.586 267.675C222.316 267.679 230.419 267.671 238.846 267.691C240.797 268.417 240.378 269.798 240.101 270.975C238.254 278.754 236.915 286.648 234.702 294.67C232.82 305.106 230.312 315.085 228.018 325.098C225.613 335.615 223.389 346.171 220.873 356.661C219.095 364.067 217.375 371.485 215.809 378.937C215.52 380.306 215.009 381.617 213.796 382.909C211.342 384.024 209.106 383.901 206.555 383.244C205.185 382.256 205.281 381.102 205.466 379.956C207.09 369.92 208.232 359.814 209.937 349.789C212.43 335.111 215.443 320.534 218.46 305.956C219.26 302.091 220.284 298.284 221.081 294.42C222.412 287.963 221.2 285.66 214.797 283.591C206.789 281.003 198.913 278.077 191.182 274.755C190.136 274.305 188.989 274.036 187.996 272.874C187.927 264.053 189.701 255.559 189.482 246.61Z" fill="#5F6B00"/>
<path d="M269.706 118.54C267.067 114.06 266.32 109.157 264.492 104.658C261.968 98.4327 259.502 92.1455 254.85 86.6159C259.89 85.3931 263.534 88.1579 267.832 89.1385C268.125 89.0808 268.086 89.1269 268.056 89.1269C268.286 89.5961 268.779 89.8422 269.264 90.4536C272.211 96.0717 276.74 95.7756 281.877 94.9411C298.454 92.2532 309.678 82.636 317.836 68.5196C321.949 61.4057 326.266 54.3879 331.119 47.7277C333.905 43.9055 337.479 41.7174 342.639 41.8328C346.175 40.7061 348.488 42.525 350.989 44.5015C352.486 51.0578 350.339 56.8605 348.492 62.6516C344.648 74.7068 338.587 85.6776 329.822 94.7258C319.167 105.72 306.204 113.114 290.977 116.187C285.61 117.271 280.169 117.867 274.809 118.955C273.185 119.286 271.534 119.563 269.706 118.54Z" fill="#579AA8"/>
<path d="M269.468 118.675C285.752 116.541 301.748 114.137 315.981 104.774C330.353 95.3181 339.738 82.29 345.964 66.6432C348.638 59.9216 350.874 53.0653 350.604 45.3245C352.186 43.9902 352.994 45.1246 353.975 46.382C359.462 52.227 359.505 58.6872 357.392 65.6281C354.218 76.0452 350.085 86.0277 344.317 95.2797C334.001 111.83 320.252 124.285 301.528 130.73C300.697 131.018 299.943 131.53 298.889 132.018C296.238 131.811 294.429 133.726 292.063 133.76C290.65 133.779 291.385 135.025 291.539 135.829C293.775 147.223 293.867 158.732 292.247 170.134C291.335 176.559 289.615 182.989 286.437 189.137C285.76 189.676 285.352 189.41 284.909 188.757C284.274 181.45 282.408 174.629 280.954 167.738C278.776 157.417 276.429 147.127 274.028 136.852C272.635 130.865 271.003 124.935 269.468 118.675Z" fill="#3E6D77"/>
<path d="M196.612 109.027C196.608 113.791 194.461 118.163 193.241 122.755C190.744 132.13 189.197 141.651 187.577 151.503C187.469 152.06 187.339 152.264 187.031 152.568C186.908 152.702 186.911 152.687 186.915 152.683C186.43 154.494 185.907 156.325 185.107 158.005C177.088 174.817 171.731 192.61 165.675 210.148C162.847 218.347 158.425 225.541 151.049 230.571C149.76 231.448 148.598 232.455 146.639 231.575C141.064 227.995 139.682 224.184 142.053 217.362C148.302 199.401 153.212 180.981 160.384 163.35C163.458 155.798 167.337 148.569 170.893 140.932C175.268 135.037 178.442 128.627 182.917 123.074C186.992 118.01 191.194 113.114 196.612 109.027Z" fill="#579AA8"/>
<path d="M257.347 78.4333C250.652 78.8179 244.784 76.7837 239.235 73.6958C237.13 72.523 234.921 72.3654 232.293 72.4461C231.978 66.7127 231.989 60.9946 232.02 55.2766C232.051 49.3086 234.864 46.4553 240.778 46.4245C245.484 46.3976 250.19 46.3976 254.896 46.4399C256.231 46.4514 257.185 46.3169 257.939 44.871C260.117 40.6911 262.953 39.2683 265.797 40.5911C268.567 41.8832 270.653 47.3128 269.245 50.4929C267.998 53.3116 266.116 55.7342 262.203 55.6995C259.236 55.5457 258.055 56.7032 258.247 59.4526C258.393 61.5253 258.078 63.4903 255.704 64.4093C254.757 64.7785 254.215 65.7398 255.284 66.432C260.24 69.6121 258.109 74.0765 257.347 78.4333Z" fill="#3B3A35"/>
<path d="M296.314 240.119C295.849 240.304 295.553 240.311 295.037 240.296C293.509 232.178 292.232 224.076 290.877 215.989C290.254 212.263 289.531 208.552 288.738 204.857C288.438 203.465 288.111 202.219 288.961 200.862C294.76 191.614 297.65 181.335 299.774 170.51C302.39 180.262 303.568 190.422 304.649 200.593C305.222 205.999 306.346 211.317 306.284 216.835C306.184 225.98 303.048 233.632 296.314 240.119Z" fill="#3E6D77"/>
<path d="M354.298 46.4358C353.106 46.0935 352.105 45.5552 350.862 44.9976C348.573 43.2172 346.014 42.6404 343.243 41.8444C345.579 32.7424 348.28 23.7212 352.086 15.0768C352.494 14.1539 353.079 13.3079 353.436 12.3697C353.929 11.0699 354.752 10.4662 356.061 11.02C357.142 11.4737 357.388 12.4312 357.184 13.5733C356.942 14.9384 357.092 16.4458 356.565 17.6724C354.398 22.7099 354.445 26.4129 360.378 29.2008C363.81 30.812 363.741 34.2921 361.294 37.6722C359.158 40.6177 356.769 43.3864 354.298 46.4358Z" fill="#DBB385"/>
<path d="M257.208 78.8442C257.155 76.3255 257.208 74.0606 257.224 71.7918C257.235 69.8384 257.778 67.5966 254.446 67.7888C253.237 67.858 252.972 66.4852 252.995 65.5085C253.018 64.5318 253.307 63.2551 254.596 63.3436C257.639 63.5435 257.301 61.5439 257.247 59.6405C257.224 58.883 257.212 58.1254 257.251 57.3717C257.416 53.9763 258.29 53.5725 261.68 55.5721C261.891 64.1165 261.872 72.5109 261.826 81.2591C260.133 81.0746 258.605 80.2824 257.208 78.8442Z" fill="#DBB385"/>
<path d="M117.665 236.8C117.884 237.858 118.561 239.161 117.018 239.6C115.887 239.919 115.121 239.45 115.137 237.865C115.691 236.7 116.572 236.777 117.665 236.8Z" fill="#CCC7B5"/>
<path d="M269.433 90.4073C268.975 90.2996 268.533 89.9382 268.056 89.3498C268.868 88.9614 269.299 89.3614 269.433 90.4073Z" fill="#CCC7B5"/>
<path d="M187.742 272.978C196.181 275.712 204.569 278.776 212.962 281.833C213.673 282.095 214.385 282.356 215.113 282.556C221.939 284.402 223.666 287.451 222.208 294.215C218.803 309.989 215.263 325.74 212.327 341.598C210.056 353.861 208.629 366.278 206.805 378.625C206.639 379.744 206.305 380.844 206.043 382.251C205.554 383.209 204.85 383.609 204.096 383.628C197.02 383.816 189.932 384.539 182.556 383.032C180.435 375.38 180.331 367.777 180.566 360.194C181.113 342.421 182.494 324.705 184.356 307.009C185.542 295.792 186.457 284.529 187.742 272.978Z" fill="#7C8C01"/>
<path d="M146.47 231.594C151.026 230.552 153.981 227.199 156.902 223.953C161.381 218.969 163.962 212.859 165.971 206.603C171.835 188.357 177.78 170.153 186.703 152.837C185.926 160.405 184.987 168.141 183.929 175.855C182.679 184.946 181.359 194.028 180.004 203.107C179.616 205.718 179.012 208.295 178.488 211.202C175.075 215.562 173.317 220.561 170.615 225.014C169.049 227.591 167.499 230.179 165.921 232.747C164.363 235.282 162.142 236.724 158.799 236.781C154.085 237.366 151.122 234.136 147.328 232.394C146.916 232.074 146.72 231.936 146.47 231.594Z" fill="#3E6D77"/>
<path d="M147.036 232.397C151.065 232.92 154.224 235.489 158.225 236.743C158.772 240.342 159.099 243.876 159.318 247.417C159.407 248.836 159.207 250.328 157.733 251.017C156.475 251.605 155.605 250.786 154.843 249.813C153.785 248.463 152.981 249.298 152.665 250.351C152.265 251.678 151.292 252.493 150.418 253.351C147.428 256.304 143.349 255.462 141.964 251.463C139.428 244.149 142.122 238.081 147.036 232.397Z" fill="#DBB385"/>
<path d="M128.308 264.972C128.404 262.253 131.163 260.434 133.484 261.407C134.242 261.722 134.799 262.253 134.73 263.095C134.646 264.129 133.753 264.368 133.091 263.949C131.182 262.749 130.221 265.287 128.308 264.972Z" fill="#CCC7B5"/>
<path d="M127.327 255.497C126.738 253.632 129.405 250.398 131.017 250.694C131.432 250.771 131.863 251.186 132.133 251.555C132.471 252.02 132.26 252.567 131.821 252.859C130.428 253.801 128.997 254.685 127.327 255.497Z" fill="#CCC7B5"/>
<path d="M121.101 253.274C119.227 252.201 119.315 251.059 120.854 250.101C121.763 249.536 123.032 249.567 123.494 250.582C124.395 252.559 122.359 252.589 121.101 253.274Z" fill="#CCC7B5"/>
<path d="M114.644 252.478C113.097 252.701 112.001 252.428 112.378 250.794C112.558 249.998 113.405 249.598 114.213 249.867C115.579 250.325 116.118 251.136 114.644 252.478Z" fill="#CCC7B5"/>
<path d="M128.019 264.995C127.877 266.217 128.042 267.663 126.269 267.859C125.491 267.944 125.133 267.398 125.103 266.694C125.033 264.979 126.272 265.048 127.735 265.025C128.035 265.006 128.023 264.998 128.019 264.995Z" fill="#CCC7B5"/>
<path d="M123.813 268.009C123.475 269.04 123.452 270.42 121.982 269.759C121.343 269.471 120.497 268.763 120.885 268.075C121.555 266.89 122.709 267.209 123.813 268.009Z" fill="#CCC7B5"/>
<path d="M123.933 241.957C122.913 242.9 121.966 243.119 121.378 241.892C121.047 241.2 121.12 240.292 122.059 240.066C123.313 239.769 123.906 240.508 123.933 241.957Z" fill="#CCC7B5"/>
<path d="M117.049 264.576C116.033 265.841 115.19 265.741 114.571 264.583C114.167 263.83 114.325 263.061 115.279 262.845C116.422 262.591 117.303 262.857 117.049 264.576Z" fill="#CCC7B5"/>
<path d="M116.576 270.505C115.779 268.84 116.856 268.921 117.718 268.982C118.446 269.032 118.854 269.582 118.588 270.286C118.226 271.251 117.476 271.039 116.576 270.505Z" fill="#CCC7B5"/>
<path d="M197.928 210.833C197.585 200.777 197.462 190.987 197.443 181.197C197.416 165.93 197.462 150.66 197.539 135.01C197.862 134.652 198.186 134.648 198.324 134.821C203.704 141.501 211.284 143.727 219.507 145.304C221.365 147.111 221.731 149.553 223.332 151.214C227.31 155.344 233.502 154.514 237.042 149.43C238.058 147.969 238.392 146.146 239.835 144.623C243.475 143.75 246.804 142.539 250.59 143.554C251.998 146.504 251.529 149.276 251.163 152.033C249.116 167.461 249.347 182.819 252.422 198.108C253.199 201.977 253.599 205.865 252.145 210.025C250.19 211.406 248.247 211.206 246.357 211.21C236.838 211.24 227.314 211.329 217.795 211.179C212.95 211.102 208.198 212.19 203.361 211.982C201.606 211.906 199.79 212.152 197.928 210.833Z" fill="#E7FF34"/>
<path d="M219.891 145.442C211.08 144.893 202.984 143.181 197.835 134.818C196.908 127.015 197.2 119.848 204.25 114.683C207.182 112.534 210.41 112.157 213.996 111.484C215.297 110.63 216.444 110.288 218.079 110.33C225.929 110.127 233.413 110.254 241.259 110.288C242.836 110.353 244.072 110.296 245.43 111.265C248.25 112.192 250.909 112.526 253.357 114.168C254.434 115.998 254.761 117.76 254.515 119.544C253.51 126.823 253.326 134.191 251.967 141.774C251.656 142.535 251.352 142.881 250.601 143.185C247.073 144.408 243.71 144.7 240.074 145.258C238.508 144.404 238.304 142.943 237.726 141.705C235.818 137.59 233.432 136.06 229.199 136.091C225.013 136.117 222.843 138.678 221.281 142.093C220.815 143.12 220.769 144.308 219.891 145.442Z" fill="#F1EEE5"/>
<path d="M197.616 210.891C215.509 210.387 233.359 210.206 251.564 209.968C254.769 208.214 257.713 208.545 260.956 209.783C261.741 219.658 252.476 227.456 243.922 226.937C234.402 226.361 224.798 226.391 215.27 226.91C204.912 227.476 197.97 219.693 197.616 210.891Z" fill="#F1EEE5"/>
<path d="M261.395 209.779C258.355 210.037 255.484 210.029 252.264 209.968C252.549 202.262 250.344 194.909 249.559 187.407C248.327 175.686 248.193 163.95 249.944 152.276C250.363 149.476 250.232 146.738 250.29 143.597C250.371 142.985 250.559 142.835 250.99 142.708C254.472 139.944 257.774 137.244 261.137 134.252C261.499 134.699 261.68 135.195 261.68 135.691C261.656 160.297 261.61 184.907 261.395 209.779Z" fill="#A0B501"/>
<path d="M286.868 196.017C287.207 202.969 287.318 209.706 287.237 216.443C287.172 221.715 283.751 225.364 279.268 225.253C274.939 225.145 271.834 221.6 271.773 216.409C271.696 209.925 271.78 203.438 271.842 196.601C276.721 194.129 281.631 194.748 286.868 196.017Z" fill="#E1FF01"/>
<path d="M261.476 133.868C259.005 137.979 255.669 140.682 251.433 142.651C251.486 133.433 253.499 124.362 253.484 114.764C261.06 118.733 262.003 125.839 261.476 133.868Z" fill="#CCC7B5"/>
<path d="M245.722 111.153C244.626 111.526 243.541 111.553 242.14 111.492C240.451 108.985 240.878 106.204 240.301 103.62C238.954 97.6024 235.079 95.3374 229.323 97.4947C225.017 99.1097 222.15 102.148 220.526 106.443C219.945 107.981 219.526 109.6 218.456 111.234C217.167 111.499 216.055 111.542 214.616 111.503C215.805 103.32 219.299 96.4026 227.379 93.2955C234.967 90.3808 242.883 92.2727 244.587 101.44C245.168 104.551 245.88 107.62 245.722 111.153Z" fill="#E1FF01"/>
<path d="M287.241 195.905C282.316 196.24 277.452 196.251 272.242 196.255C271.55 189.249 272.173 188.595 279.157 188.58C280.808 188.576 282.462 188.568 284.475 188.534C285.194 188.749 285.556 188.995 286.121 189.31C287.63 191.299 287.322 193.463 287.241 195.905Z" fill="#F1EEE5"/>
<path d="M187.077 152.614C186.923 152.437 187.034 152.214 187.388 151.93C187.446 152.057 187.35 152.291 187.077 152.614Z" fill="#122A7F"/>
<path d="M282.504 339.464C275.401 339.814 268.302 339.849 260.86 339.891C258.848 338.588 259.232 336.696 259.167 334.969C258.886 327.348 260.129 319.784 259.983 312.147C259.81 303.226 259.444 294.389 256.62 285.829C256.258 284.733 256.085 283.607 256.523 282.149C263.904 280.046 271.034 278.038 277.837 275.031C280.6 273.812 283.278 272.405 285.994 271.086C289.954 269.159 292.251 270.651 292.447 275.085C292.925 285.768 292.055 296.4 290.747 306.963C290.15 311.785 288.245 316.454 286.679 321.133C284.729 326.971 283.182 332.977 282.504 339.464Z" fill="#7C8C01"/>
<path d="M256.539 281.614C261.78 296.307 261.656 311.208 260.568 326.22C260.256 330.523 260.425 334.865 260.444 339.541C260.367 343.782 260.225 347.67 259.917 351.842C257.331 339.71 253.872 327.555 250.248 315.461C248.72 310.366 246.53 305.425 243.791 300.803C241.659 297.207 238.023 295.85 234.017 294.615C235.706 285.967 237.673 277.38 239.643 268.498C242.028 267.117 244.522 267.902 247.242 268.002C251.825 271.716 253.761 276.777 256.539 281.614Z" fill="#FEFEFE"/>
<path d="M247.854 268.171C245.13 268.19 242.74 268.136 239.997 268.14C230.385 268.198 221.119 268.198 211.857 268.198C211.857 267.948 211.861 267.702 211.861 267.452C229.865 267.452 247.87 267.452 265.874 267.452C265.878 267.667 265.878 267.878 265.882 268.094C259.983 268.098 254.084 268.098 247.854 268.171Z" fill="#5E5C54"/>
<path d="M219.719 145.9C220.111 139.682 223.547 135.356 227.999 135.11C234.872 134.729 237.954 137.256 239.697 144.958C238.908 148.5 237.553 151.403 234.644 153.341C229.119 157.025 221.385 153.945 219.719 145.9Z" fill="#5E5C54"/>
<path d="M218.629 111.518C218.883 103.801 223.786 97.802 231.054 95.8217C235.576 94.5873 240.362 97.4213 241.082 102.032C241.528 104.893 242.217 107.773 241.84 111.065C234.21 111.465 226.595 111.526 218.629 111.518Z" fill="#111F22"/>
</svg>
