<svg width="619" height="285" viewBox="0 0 619 285" fill="none" xmlns="http://www.w3.org/2000/svg">
<path d="M378.024 264.928C377.879 265.008 377.775 265.127 377.623 265.727C376.943 270.926 376.37 275.682 375.751 280.435C375.395 283.151 375.048 285.871 374.524 288.557C374.284 289.791 373.634 290.941 373.023 291.869C372.473 289.676 371.8 287.754 371.72 285.81C371.487 280.091 371.942 274.315 371.3 268.653C370.123 258.265 372.351 248.252 373.718 238.125C374.177 234.717 374.669 231.313 375.052 227.898C375.113 227.352 374.669 226.752 374.456 226.175C374.047 226.66 373.577 227.111 373.256 227.649C373.088 227.928 373.202 228.368 373.153 228.727C372.488 233.655 371.758 238.576 371.159 243.515C370.364 250.017 368.981 256.543 369.077 263.041C369.271 276.301 370.28 289.55 370.968 302.803C371.143 306.203 371.781 306.008 367.801 306.306C361.73 306.764 355.64 306.978 349.574 307.46C348.164 307.57 346.808 308.35 345.429 308.82C346.884 309.034 348.348 309.496 349.788 309.423C357.325 309.045 364.855 308.533 372.435 308.377C372.671 310.13 372.95 311.57 373.034 313.022C373.818 326.607 374.563 340.192 375.334 353.773C375.858 362.992 376.278 372.222 377.042 381.421C377.244 383.877 376.969 384.515 374.387 384.477C365.757 384.34 357.127 384.496 348.153 384.496C347.366 384.489 346.919 384.523 346.178 384.47C341.379 384.481 336.875 384.58 332.039 384.626C331.271 384.634 330.835 384.695 330.174 384.638C329.445 384.481 328.937 384.443 328.451 384.359C328.474 384.317 328.39 384.271 328.417 384.03C328.398 383.472 328.352 383.155 328.344 382.575C328.314 381.967 328.241 381.623 328.211 381.073C328.092 380.496 327.932 380.122 327.798 379.423C327.615 376.191 327.5 373.28 327.175 370.388C326.449 363.855 325.559 357.345 324.853 350.813C324.077 343.642 323.477 336.448 322.713 329.274C322.006 322.645 321.239 316.021 320.356 309.412C320.196 308.216 319.351 307.108 318.878 305.676C319.393 303.731 320.394 302.023 320.238 300.43C319.103 288.851 317.732 277.291 316.463 265.547C316.406 265.123 316.245 264.951 316.024 264.516C314.775 251.469 313.51 238.755 312.272 225.743C311.55 219.069 310.809 212.689 310.099 206.004C310.06 204.498 309.896 203.295 309.95 202.103C309.995 201.083 309.965 199.807 310.534 199.108C312.417 196.789 314.561 194.676 316.65 192.793C316.96 196.247 317.086 199.414 317.544 202.535C317.739 203.86 318.423 205.236 319.244 206.317C320.845 208.422 323.164 207.704 325.33 207.467C333.307 206.592 341.28 205.694 349.264 204.892C358.819 203.933 368.377 203.024 377.947 202.202C379.426 202.076 380.95 202.527 382.516 203.039C382.593 209.285 382.551 215.203 382.654 221.117C382.685 222.767 383.147 224.41 383.391 226.381C382.833 231.244 382.383 235.794 381.737 240.318C380.553 248.524 379.265 256.722 378.024 264.928ZM346.281 235.439C343.847 239.286 341.417 243.137 338.976 246.984C335.183 252.955 334.04 251.423 330.988 246.988C327.252 241.559 323.997 235.798 320.536 230.179C318.962 227.627 317.434 225.044 315.791 222.534C315.558 222.175 314.798 222.16 314.282 221.988C314.244 222.519 314.011 223.142 314.205 223.566C314.702 224.639 315.382 225.629 316.005 226.645C320.559 234.094 325.009 241.605 329.701 248.967C332.879 253.952 336.55 253.922 339.679 249.059C344.027 242.308 348.29 235.504 352.554 228.704C353.627 226.992 354.609 225.224 355.545 223.432C355.725 223.092 355.469 222.523 355.411 222.06C354.964 222.293 354.326 222.408 354.097 222.779C351.553 226.824 349.073 230.912 346.281 235.439Z" fill="#79AEB9"/>
<path d="M383.403 226.048C383.139 224.402 382.677 222.759 382.646 221.109C382.543 215.195 382.585 209.277 382.642 202.786C383.422 200.467 384.782 198.702 384.732 196.979C384.427 186.157 384.178 175.311 383.177 164.545C382.406 156.251 380.557 148.06 379.177 139.824C378.62 136.489 378.184 133.127 377.458 129.83C375.697 121.868 374.41 113.697 368.989 107.103C367.235 104.967 365.329 102.962 363.491 100.895C364.206 99.0228 364.924 97.1547 365.634 95.2827C368.79 86.9812 374.291 81.2775 382.998 78.6147C396.716 74.4238 409.606 80.4141 416.001 92.0469C418.775 97.0898 419.871 102.58 419.894 108.1C420.062 145.669 419.982 183.238 419.978 220.807C419.978 224.589 419.959 224.608 416.204 224.612C406.691 224.623 397.175 224.593 387.662 224.646C386.532 224.654 385.401 225.07 384.025 225.655C383.655 226.021 383.529 226.037 383.403 226.048Z" fill="#254147"/>
<path d="M328.169 381.272C328.241 381.616 328.314 381.96 328.191 382.678C328.127 383.457 328.26 383.862 328.39 384.263C328.39 384.263 328.474 384.309 328.47 384.515C328.467 384.722 328.535 385.05 328.489 385.237C328.424 385.551 328.402 385.677 328.042 385.776C315.275 385.707 302.84 385.661 290.393 385.283C290.37 375.931 290.355 366.911 290.397 357.609C290.351 356.562 290.256 355.802 290.137 354.763C288.445 347.084 288.082 346.412 284.556 341.392C281.484 337.017 277.477 333.812 272.682 331.253C272.423 330.935 272.216 330.844 271.708 330.783C268.262 329.583 265.172 328.334 261.619 328.487C260.159 328.548 258.57 326.653 257.176 326.813C255.583 327.001 254.394 329.167 252.289 328.192C252.587 327.444 252.863 326.569 253.172 326.557C255.758 326.462 256.018 324.85 255.965 322.794C255.884 319.501 255.804 316.2 255.988 312.915C256.125 310.405 254.853 309.106 252.71 308.938C247.27 308.514 241.81 308.205 236.359 308.166C232.126 308.14 227.893 308.732 223.66 308.781C220.894 308.816 218.121 308.147 215.355 308.185C209.655 308.262 203.963 308.713 198.263 308.804C191.069 308.919 183.868 308.892 176.674 308.801C173.904 308.766 171.123 308.09 168.372 308.22C162.825 308.483 157.297 309.267 151.746 309.496C148.625 309.626 145.481 308.908 142.341 308.865C134.658 308.762 126.972 308.82 119.285 308.85C118.464 308.854 117.612 309.041 116.825 309.301C114.789 309.977 112.825 310.89 110.758 311.433C106.396 312.575 105.769 313.148 105.849 317.774C105.907 320.915 106.415 324.044 106.518 327.184C106.64 330.962 106.533 334.744 106.552 338.526C106.571 342.549 107.232 343.229 111.198 343.241C118.028 343.264 124.859 343.286 131.69 343.225C133.833 343.206 135.369 343.607 134.742 346.186C124.894 346.182 115.385 346.205 105.727 346.014C104.741 345.689 103.901 345.575 102.995 345.124C102.896 340.375 102.862 335.967 102.846 331.249C102.846 330.118 102.827 329.297 102.827 328.143C102.843 322.256 102.839 316.697 102.869 310.833C102.885 309.694 102.869 308.862 102.881 307.75C102.957 306.718 103.007 305.97 103.229 305.389C103.798 306.913 104.203 308.262 105.865 306.581C118.514 306.608 131.163 306.634 143.808 306.646C144.385 306.646 144.962 306.524 145.538 306.455C145.084 306.165 144.446 305.977 144.205 305.561C143.647 304.587 142.895 303.506 142.891 302.466C142.857 291.762 142.964 281.057 143.017 270.353C143.04 265.845 143.269 265.597 147.659 265.597C169.095 265.589 190.53 265.578 212.6 265.6C214.056 265.612 214.87 265.593 215.997 265.627C216.57 266.502 217.055 267.323 217.059 268.145C217.108 279.59 217.108 291.036 217.059 302.478C217.055 303.498 216.524 304.507 216.417 305.538C216.375 305.924 216.772 306.65 217.081 306.718C217.75 306.864 218.487 306.684 219.271 306.654C219.343 306.669 219.423 306.799 219.477 306.818C219.53 306.837 219.74 306.902 220.073 306.829C228.038 306.604 235.671 306.321 243.3 306.325C260.232 306.336 277.164 306.493 294.313 306.615C294.867 306.856 295.203 307.07 295.352 307.528C285.018 308.369 274.875 309.003 264.725 309.545C261.195 309.733 260.4 310.371 260.354 313.82C260.316 316.869 260.415 319.918 260.324 322.966C260.259 325.121 260.939 325.912 263.265 326.55C272.648 329.109 281.778 332.162 287.154 341.487C288.151 343.214 289.45 347.214 293.377 344.849C293.602 344.711 294.305 345.051 294.561 345.357C294.928 345.789 294.726 346.981 295.772 345.739C297.579 343.588 300.055 343.733 302.507 344.245C304.75 344.715 306.954 345.659 309.204 345.751C313.166 345.911 317.151 345.583 321.151 345.701C321.647 346.27 322.117 346.599 322.637 347.046C322.755 347.206 322.832 347.244 322.908 347.283C322.805 347.16 322.705 347.038 322.576 346.675C322.079 346.106 321.605 345.781 321.162 345.151C321.414 341.606 321.708 338.366 321.838 335.119C321.926 332.941 322.488 330.378 321.578 328.651C320.199 326.038 320.436 323.505 320.429 320.899C320.417 317.859 320.241 314.951 319.065 312.025C318.35 310.248 317.758 308.93 315.756 308.823C310.931 308.56 306.102 308.392 301.285 308.075C300.051 307.994 298.84 307.509 297.671 307.039C297.923 306.589 298.122 306.31 298.672 306C305.621 305.966 312.226 305.962 318.828 305.958C319.355 307.104 320.199 308.212 320.36 309.408C321.242 316.013 322.01 322.638 322.717 329.27C323.481 336.444 324.081 343.638 324.856 350.809C325.563 357.341 326.453 363.855 327.179 370.384C327.5 373.272 327.615 376.187 327.786 379.629C327.882 380.531 328.023 380.901 328.169 381.272ZM206.858 303.788C208.001 304.732 210.228 303.72 210.713 305.909C210.721 305.951 211.271 305.874 211.569 305.855C211.37 304.812 215.313 303.876 211.638 302.673C211.229 302.539 211.11 301.53 210.847 300.935C210.511 300.178 210.113 298.772 209.834 298.795C208.879 298.872 207.619 299.189 207.103 299.884C205.151 302.505 203.966 302.57 200.956 301.576C197.693 300.503 194.205 298.803 190.71 301.458C189.953 302.031 188.521 302.31 187.646 302.008C185.98 301.439 184.559 301.336 183.249 302.543C183.046 302.726 183.207 303.727 183.298 303.742C184.811 303.998 186.339 304.239 187.871 304.308C189.751 304.388 191.638 304.289 193.522 304.3C194.614 304.304 195.714 304.461 196.803 304.396C199.94 304.212 203.072 303.949 206.858 303.788ZM165.568 304.369C167.349 304.144 169.129 303.941 170.902 303.67C171.314 303.605 171.685 303.292 172.074 303.093C171.765 302.818 171.501 302.428 171.138 302.291C169.274 301.584 167.379 300.957 165.503 300.277C163.96 299.716 162.027 300.51 161.664 302.023C161.167 304.102 163.005 303.486 163.964 303.88C164.304 304.018 164.636 304.163 165.568 304.369ZM157.721 302.344C156.151 302.337 154.581 302.298 153.011 302.348C152.782 302.356 152.522 302.753 152.373 303.02C152.327 303.101 152.61 303.521 152.732 303.517C154.581 303.452 156.633 304.663 157.721 302.344ZM146.096 295.426C145.917 294.891 145.737 294.36 145.558 293.829C145.256 294.234 144.881 294.608 144.675 295.055C144.538 295.357 144.557 295.792 144.652 296.125C144.858 296.831 145.16 297.512 145.424 298.203C145.649 297.473 145.875 296.747 146.096 295.426ZM178.817 303.54C178.531 303.502 178.244 303.46 177.961 303.422C177.958 303.624 177.958 303.83 177.954 304.033C178.24 304.002 178.527 303.972 178.817 303.54ZM301.705 345.911L301.782 345.777C301.782 345.777 301.629 345.796 301.705 345.911ZM303.172 345.911L303.249 345.777C303.245 345.777 303.096 345.796 303.172 345.911Z" fill="#E0DBC7"/>
<path d="M363.254 100.822C365.329 102.962 367.235 104.971 368.989 107.107C374.41 113.7 375.697 121.872 377.458 129.834C378.188 133.131 378.623 136.492 379.177 139.828C380.553 148.064 382.405 156.255 383.177 164.549C384.182 175.318 384.43 186.164 384.732 196.983C384.782 198.706 383.418 200.467 382.574 202.458C380.938 202.519 379.41 202.068 377.936 202.194C368.37 203.016 358.807 203.925 349.253 204.884C341.268 205.686 333.295 206.58 325.319 207.459C323.152 207.695 320.834 208.414 319.233 206.309C318.411 205.227 317.728 203.852 317.533 202.527C317.074 199.405 316.948 196.238 316.753 192.548C322.889 184.67 329.124 177.458 334.984 169.951C339.778 163.808 343.553 157.042 343.87 148.958C344.004 145.604 343.763 142.238 343.74 138.567C343.24 134.185 343.221 129.952 342.036 126.074C339.446 117.609 334.839 110.361 327.324 105.235C325.804 104.199 324.543 102.786 323.16 101.548C325.299 100.329 327.458 99.1451 329.555 97.8576C330.033 97.5634 330.529 96.9369 330.598 96.4097C330.755 95.2254 330.648 94.0067 330.805 92.3487C331.11 91.6649 331.255 91.4395 331.656 91.1071C332.493 90.8512 333.07 90.6181 333.658 90.5608C339.354 90.026 345.054 89.5217 350.754 89.0098C352.863 91.6993 352.34 94.5836 349.551 95.6724C349.004 95.8863 348.466 96.127 347.923 96.3562C347.614 96.4861 347.301 96.6084 346.991 96.7344C347.285 96.9102 347.564 97.1929 347.881 97.2464C348.531 97.3571 349.375 97.6246 349.833 97.3419C353.856 94.8396 357.012 97.0057 360.217 99.1069C361.126 99.6952 362.085 100.203 363.254 100.822Z" fill="#E1FF01"/>
<path d="M223.744 225.434C223.736 205.572 223.79 185.707 223.702 165.845C223.656 155.102 231.175 147.144 240.068 144.497C248.79 141.899 255.949 144.18 262.761 149.318C263.101 149.574 263.514 149.731 263.892 149.929C263.934 149.57 264.006 149.207 264.006 148.848C264.018 145.75 263.884 142.644 264.041 139.553C264.438 131.63 264.041 123.432 267.899 116.234C270.077 112.169 273.225 108.376 276.694 105.327C279.975 102.443 284.151 100.487 288.128 98.5193C290.347 97.4191 292.953 96.6245 295.406 96.5672C301.805 96.4258 308.311 95.6847 314.542 97.9387C316.452 98.6301 318.266 99.589 320.089 100.861C317.678 101.683 315.202 101.763 312.945 102.504C302.897 105.797 295.982 112.376 292.517 122.48C290.252 129.086 289.713 135.958 289.721 142.82C289.729 149.532 289.603 156.122 286.52 162.456C286.206 162.991 286.088 163.411 285.763 163.954C283.054 167.002 280.625 169.994 278.031 172.832C274.94 176.213 271.578 179.35 268.572 182.803C266.035 185.718 262.826 188.404 262.948 193.007C262.547 194.631 261.794 196.533 262.429 197.634C263.819 200.036 265.913 202.035 267.613 204.415C265.363 206.122 263.407 208.113 261.038 208.98C258.146 210.038 254.906 210.118 251.827 210.68C241.841 212.495 238.834 216.395 238.139 224.712C237.788 224.945 237.673 225.147 237.306 225.495C234.54 225.56 232.095 225.526 229.494 225.247C227.943 225.151 226.544 225.3 224.921 225.526C224.374 225.545 224.057 225.491 223.744 225.434Z" fill="#254147"/>
<path d="M348.497 384.534C357.127 384.492 365.761 384.331 374.391 384.469C376.973 384.511 377.248 383.869 377.046 381.413C376.286 372.213 375.865 362.984 375.338 353.765C374.566 340.18 373.821 326.595 373.038 313.014C372.954 311.562 372.675 310.122 372.438 308.147C372.633 307.276 372.87 306.936 373.451 306.619C380.11 306.645 386.425 306.649 392.74 306.668C394.035 306.672 395.177 306.649 395.139 304.827C395.017 298.909 394.921 292.988 394.894 287.066C394.879 284.014 395.07 280.965 395.093 277.913C395.12 274.093 395.074 270.272 395.059 266.452C402.126 266.414 409.194 266.383 416.261 266.337C418.431 266.322 419.841 266.738 419.776 269.535C419.612 277.03 419.753 284.53 419.753 292.029C419.757 304.605 419.742 317.182 419.742 329.758C419.742 334.094 419.772 338.427 419.768 342.763C419.765 346.079 419.745 346.06 416.391 346.178C415.73 346.201 415.077 346.434 414.42 346.572C415.123 346.678 415.849 346.954 416.525 346.858C418.863 346.529 419.711 347.401 419.696 349.8C419.627 361.96 419.688 374.124 419.68 386.287C419.68 386.608 419.394 386.929 418.886 387.243C418.351 387.292 418.171 387.346 417.992 387.403C418.16 387.586 418.328 387.766 418.496 387.949C418.508 388.27 418.519 388.595 418.187 389.118C416.674 389.099 415.512 388.736 414.34 388.683C407.86 388.389 401.374 388.194 394.894 387.896C393.97 387.854 393.061 387.434 392.266 386.971C393.011 386.318 393.725 385.585 392.381 385.512C389.76 385.371 387.12 385.554 384.492 385.688C381.894 385.818 379.3 386.051 376.664 385.963C375.491 385.455 374.36 385.031 373.225 385.019C366.15 384.95 359.075 384.992 352 384.947C350.835 384.943 349.666 384.679 348.497 384.534ZM406.623 346.22C406.137 346.38 405.656 346.541 405.171 346.698C405.515 346.755 405.862 346.85 406.206 346.858C407.165 346.881 408.124 346.892 409.083 346.862C409.423 346.85 409.759 346.709 410.095 346.625C409.744 346.48 409.404 346.251 409.045 346.212C408.453 346.151 407.849 346.216 406.623 346.22ZM411.387 346.499C411.979 346.491 412.567 346.484 413.159 346.476C412.708 346.392 412.265 346.308 411.387 346.499Z" fill="#E0DBC7"/>
<path d="M229.647 225.49C232.092 225.529 234.537 225.563 237.486 225.563C238.116 225.517 238.242 225.513 238.464 225.765C238.743 227.083 238.728 228.237 239.159 229.192C239.778 230.571 240.424 232.229 241.57 233.028C246.712 236.596 252.37 235.179 254.49 229.318C254.861 228.295 256.087 227.091 257.103 226.892C259.793 226.354 262.589 226.369 265.332 226.067C267.101 225.872 268.851 225.513 270.944 225.28C275.227 225.578 279.177 225.991 283.127 226.029C292.831 226.125 302.534 226.048 312.238 226.037C313.503 238.751 314.763 251.465 315.672 264.534C301.576 264.889 287.834 264.924 274.092 264.828C272.801 264.821 271.269 264.259 270.28 263.438C268.751 262.169 268.213 262.88 267.636 264.16C267.659 264.152 267.689 264.114 267.391 264.183C264.24 264.477 261.39 264.87 258.532 264.901C247.178 265.019 235.82 265.023 224.134 265.012C221.093 265.161 218.388 265.371 215.68 265.581C214.862 265.6 214.048 265.619 212.925 265.608C210.553 265.355 208.49 265.034 206.415 264.943C202.561 264.771 201.697 264.03 201.686 260.229C201.659 250.238 201.667 240.248 201.713 230.254C201.728 226.881 202.966 225.712 206.32 225.701C211.905 225.678 217.494 225.678 223.408 225.552C224.05 225.494 224.367 225.552 225.227 225.601C227.072 225.559 228.359 225.525 229.647 225.49Z" fill="#7B786D"/>
<path d="M286.714 162.341C289.606 156.121 289.732 149.531 289.721 142.819C289.709 135.958 290.248 129.089 292.517 122.48C295.986 112.375 302.897 105.792 312.945 102.503C315.202 101.762 317.678 101.682 320.222 101.078C321.154 101.082 321.919 101.3 322.923 101.533C324.547 102.786 325.808 104.196 327.328 105.231C334.843 110.354 339.45 117.605 342.04 126.071C343.228 129.948 343.247 134.181 343.507 138.613C340.466 142.437 337.761 145.944 334.946 149.355C331.133 153.978 327.236 158.528 323.145 163.009C319.294 158.769 317.449 158.375 312.288 160.835C310.014 161.92 307.753 163.074 305.613 164.4C302.867 166.104 299.998 166.524 296.96 165.626C293.526 164.61 290.13 163.445 286.714 162.341Z" fill="#CBE0E4"/>
<path d="M383.384 226.373C383.529 226.033 383.655 226.022 383.957 225.926C394.948 225.835 405.767 225.869 416.586 225.781C418.836 225.762 419.757 225.816 419.677 228.799C419.36 240.211 419.531 251.641 419.673 263.06C419.7 265.043 418.744 264.871 417.446 264.867C406.619 264.848 395.788 264.859 384.961 264.867C382.891 264.871 380.82 264.92 378.387 264.936C379.265 256.718 380.553 248.52 381.729 240.306C382.375 235.787 382.826 231.237 383.384 226.373Z" fill="#E0DBC7"/>
<path d="M105.93 386.395C105.07 386.949 104.314 388.828 103.053 386.158C102.877 381.073 102.789 376.439 102.919 371.813C102.969 370.01 102.388 369.57 100.661 369.589C93.0131 369.673 85.361 369.681 77.7128 369.585C75.7491 369.559 74.9392 369.994 75.0233 372.157C75.2028 376.886 75.1111 381.627 75.1302 386.364C74.2057 386.502 73.2812 386.643 72.2153 386.555C72.0969 356.184 72.1198 326.042 72.1313 295.895C72.1389 275.881 72.1389 255.866 72.1389 235.848C72.1389 235.237 72.1657 234.625 72.1351 234.018C72.0702 232.814 72.2001 231.603 73.7817 232.039C74.3509 232.196 75.0233 233.307 75.0271 233.987C75.1035 244.848 75.0615 255.713 75.0844 266.575C75.092 270.456 74.5343 269.99 78.6335 270.009C85.5902 270.04 92.547 270.013 99.5038 270.02C103.435 270.024 102.873 270.181 102.881 266.762C102.9 256.386 102.896 246.014 102.904 235.638C102.904 234.904 102.717 234.102 102.961 233.46C103.187 232.864 103.874 232.444 104.359 231.951C104.852 232.44 105.742 232.906 105.773 233.422C105.93 236.1 105.884 238.789 105.884 241.475C105.872 262.957 105.853 284.438 105.849 306.256C104.203 308.277 103.802 306.928 103.16 305.06C102.912 301.152 102.85 297.752 102.927 294.356C102.961 292.793 102.789 291.938 100.822 291.964C92.9329 292.083 85.0439 292.052 77.155 291.991C75.6001 291.98 75.0194 292.427 75.0615 294.035C75.1761 298.764 75.157 303.498 75.3786 308.43C82.5034 308.69 89.4373 308.774 96.375 308.785C97.8 308.789 99.2249 308.514 100.929 308.342C101.758 308.227 102.308 308.136 102.862 308.044C102.877 308.873 102.889 309.706 102.541 310.81C94.014 311.096 85.8462 311.173 77.686 311.07C75.6116 311.043 74.966 311.65 75.05 313.717C75.2028 317.61 75.2678 321.526 75.0347 325.415C74.8896 327.845 75.7911 328.494 78.0184 328.479C86.2855 328.422 94.5527 328.475 102.816 328.49C102.835 329.312 102.854 330.133 102.522 331.229C94.014 331.482 85.8615 331.489 77.7089 331.417C75.7759 331.398 74.9354 331.944 75.0385 334.091C75.2219 337.862 75.1111 341.647 75.0576 345.426C75.0385 346.79 75.115 347.687 76.9372 347.668C84.9828 347.584 93.0284 347.569 101.07 347.691C102.919 347.718 102.931 346.686 103.068 345.475C103.909 345.59 104.753 345.701 105.716 346.366C105.861 360.069 105.895 373.23 105.93 386.395ZM101.624 366.678C102.041 366.231 102.812 365.788 102.82 365.333C102.912 360.948 102.82 356.558 102.9 352.172C102.931 350.526 101.964 350.446 100.807 350.449C92.8947 350.472 84.979 350.541 77.0671 350.503C75.4282 350.495 75.0118 351.091 75.0462 352.635C75.1379 356.531 75.1914 360.44 75.0271 364.332C74.943 366.334 75.6689 366.758 77.5141 366.739C85.319 366.644 93.1201 366.693 101.624 366.678ZM91.5385 272.951C86.7975 272.951 82.0565 273.023 77.3193 272.916C75.5734 272.878 75.0003 273.386 75.0538 275.166C75.1723 279.174 75.1111 283.189 75.0576 287.2C75.0424 288.484 75.2525 289.145 76.8265 289.137C84.9561 289.088 93.0857 289.145 101.215 289.225C102.495 289.237 102.912 288.786 102.9 287.556C102.862 283.304 102.839 279.048 102.915 274.796C102.942 273.359 102.426 272.905 101.024 272.939C98.1056 273.016 95.1869 272.954 91.5385 272.951Z" fill="#485F61"/>
<path d="M321.964 50.341C321.598 50.0735 321.216 49.8252 320.864 49.5387C320.203 48.9924 319.561 48.427 318.908 47.8654C319.726 47.7049 320.727 47.7852 321.315 47.3306C322.117 46.7117 322.782 45.7642 323.187 44.8244C324.31 42.2075 324.895 39.285 326.362 36.8973C330.95 29.4477 339.851 26.0591 347.606 27.2204C357.394 28.6836 363.323 34.3415 365.929 43.7968C366.849 47.1395 367.464 50.3944 366.586 53.8518C366.272 55.082 366.536 56.4535 366.521 57.7638C366.502 59.4027 365.352 58.1955 364.248 58.4477C359.358 57.7027 355.002 56.9577 350.647 56.2051C346.659 55.5175 342.671 54.826 338.415 54.081C337.593 54.0352 337.047 54.0428 336.294 53.8709C335.519 53.5271 334.954 53.3399 334.377 53.2062C330.243 52.2473 326.102 51.296 321.964 50.341Z" fill="#DBB385"/>
<path d="M394.791 266.303C395.074 270.276 395.12 274.096 395.093 277.917C395.07 280.969 394.879 284.018 394.894 287.07C394.921 292.992 395.017 298.909 395.139 304.831C395.177 306.657 394.031 306.676 392.74 306.672C386.425 306.653 380.106 306.649 373.436 306.325C373.111 301.381 373.141 296.755 373.172 292.132C373.634 290.944 374.284 289.79 374.524 288.56C375.048 285.874 375.395 283.154 375.751 280.438C376.37 275.686 376.943 270.929 377.607 265.848C382.398 265.55 387.112 265.554 391.823 265.634C392.728 265.65 393.622 265.971 394.791 266.303Z" fill="#7B786D"/>
<path d="M338.69 54.1348C342.678 54.8262 346.666 55.5177 350.655 56.2054C355.01 56.9542 359.365 57.6991 364.037 58.5014C364.351 61.3322 364.332 64.1058 364.355 66.8832C364.439 77.3852 359.667 81.7862 350.487 83.3067C344.928 83.0202 340.42 81.7442 337.494 77.2935C335.962 74.9593 336.096 74.7645 338.946 74.4779C342.609 74.1074 345.135 71.8725 345.299 68.8544C345.57 63.8384 342.17 61.317 336.6 62.1154C337.269 59.2463 337.979 56.6906 338.69 54.1348Z" fill="#3B3A35"/>
<path d="M336.627 62.4251C342.162 61.3172 345.562 63.8348 345.291 68.8508C345.127 71.8651 342.602 74.1038 338.938 74.4743C336.088 74.7609 335.954 74.9595 337.486 77.2899C340.409 81.7406 344.917 83.0166 350.2 83.3566C350.571 85.0643 350.621 86.7299 350.716 88.705C345.058 89.5264 339.358 90.0307 333.662 90.5655C333.07 90.6228 332.497 90.8559 331.676 90.7947C331.125 88.1587 330.816 85.7366 330.549 83.0242C332.604 75.9605 334.617 69.1947 336.627 62.4251Z" fill="#DBB385"/>
<path d="M330.507 83.3141C330.816 85.7362 331.129 88.1583 331.424 90.8936C331.263 91.4399 331.114 91.6653 330.812 92.0283C328.478 92.1276 326.301 92.1429 324.123 92.0588C314.859 91.6997 313.361 85.8814 314.947 78.8596C315.68 75.6086 316.788 72.4339 317.407 69.1675C317.957 66.2602 319.531 67.2956 321.437 68.1972C321.498 74.1225 324.111 78.363 327.966 82.2444C327.981 83.3561 328.077 84.2119 328.172 85.0638C328.753 84.5939 329.326 84.1126 329.915 83.6541C330.09 83.509 330.308 83.4249 330.507 83.3141Z" fill="#3B3A35"/>
<path d="M328.05 81.9767C324.115 78.355 321.502 74.1183 321.708 68.2198C321.64 63.8722 322.052 59.8991 323.687 55.7617C325.853 55.9948 327.779 56.3309 329.51 57.1026C331.198 57.8552 332.692 59.0472 334.151 60.2697C332.356 62.0232 333.047 64.0289 332.913 65.8817C332.489 71.6084 331.141 77.06 328.05 81.9767Z" fill="#DBB385"/>
<path d="M213.395 49.6191C213.892 50.2189 214.167 50.7691 214.197 51.3345C214.293 53.023 213.674 55.2274 214.518 56.2512C215.263 57.1528 217.639 56.5874 219.225 56.958C219.928 57.1222 220.463 58.0009 221.074 58.551C220.482 58.9865 219.889 59.4297 219.286 59.8499C219.206 59.9072 219.049 59.8499 218.927 59.8614C217.402 60.0066 215.45 59.6551 214.499 60.4688C213.758 61.103 214.434 63.2309 214.163 64.6291C213.991 65.5116 213.361 66.8296 212.707 66.9863C211.003 67.3912 211.34 65.8325 211.236 64.8163C211.214 64.5757 211.236 64.3312 211.229 64.0867C211.145 59.9149 211.145 59.9149 207.049 59.8576C206.324 59.8461 205.487 60.0257 204.902 59.7239C204.432 59.4832 204.066 58.6695 204.024 58.0811C204.001 57.7182 204.757 56.9236 205.025 56.9809C210.831 58.2148 212.027 55.2121 211.366 50.3068C211.343 50.1425 212.47 49.8254 213.395 49.6191Z" fill="#7B786D"/>
<path d="M107.305 189.321C107.381 190.853 107.263 192.06 105.674 191.582C105.085 191.406 104.6 190.413 104.359 189.695C104.138 189.042 104.31 188.259 104.306 187.529C104.291 181.435 104.291 181.435 98.3729 181.416C97.7655 181.416 97.1504 181.34 96.5583 181.428C94.9767 181.661 94.8201 180.74 94.736 179.499C94.6481 178.192 95.1715 177.81 96.3826 177.833C98.8046 177.883 101.238 177.703 103.649 177.883C106.636 178.104 107.255 178.926 107.293 182.062C107.324 184.369 107.305 186.673 107.305 189.321Z" fill="#7B786D"/>
<path d="M334.266 60.048C332.688 59.0471 331.194 57.8552 329.506 57.1026C327.771 56.3347 325.846 55.9947 323.741 55.4751C322.939 53.9623 322.4 52.4456 321.911 50.6348C326.098 51.2957 330.239 52.2469 334.373 53.2097C334.95 53.3434 335.519 53.5306 336.294 54.1533C335.756 56.4225 335.011 58.2334 334.266 60.048Z" fill="#3B3A35"/>
<path d="M323.382 163.113C327.24 158.533 331.137 153.983 334.95 149.36C337.765 145.948 340.466 142.441 343.461 138.927C343.771 142.239 344.012 145.605 343.878 148.959C343.561 157.043 339.786 163.805 334.992 169.952C329.131 177.458 322.9 184.671 316.712 192.247C314.553 194.673 312.414 196.785 310.53 199.104C309.961 199.803 309.992 201.079 309.946 202.099C309.892 203.291 310.06 204.495 309.888 206.111C306.909 209.595 304.292 212.773 301.411 215.696C297.958 219.195 293.778 219.822 289.477 217.545C286.397 215.914 283.479 213.973 280.312 211.967C275.999 209.243 271.865 206.722 267.731 204.201C265.924 202.038 263.827 200.04 262.436 197.637C261.802 196.537 262.555 194.635 263.223 193.099C267.12 194.44 270.425 195.662 274.088 196.3C280.915 197.492 287.1 196.094 292.922 193.003C296.281 191.219 299.188 188.553 302.194 186.153C309.453 180.373 315.558 173.485 321.361 166.001C322.178 164.966 322.778 164.038 323.382 163.113Z" fill="#8EBBC5"/>
<path d="M318.874 305.664C312.219 305.954 305.614 305.954 298.424 305.87C296.2 304.663 296.162 303.001 296.242 301.259C296.368 298.497 296.46 295.731 296.506 292.965C296.647 284.732 296.812 276.496 296.838 268.259C296.846 266.463 297.683 266.337 299.062 266.349C303.436 266.391 307.814 266.414 312.188 266.33C313.606 266.303 315.019 265.925 316.433 265.707C317.728 277.271 319.095 288.831 320.234 300.411C320.391 302.011 319.393 303.723 318.874 305.664Z" fill="#7B786D"/>
<path d="M280.483 212.165C283.475 213.969 286.39 215.906 289.469 217.537C293.77 219.814 297.95 219.187 301.403 215.688C304.284 212.765 306.901 209.587 309.846 206.408C310.798 212.674 311.543 219.053 312.265 225.728C302.538 226.033 292.831 226.11 283.131 226.018C279.181 225.98 275.23 225.563 270.944 225.017C271.257 223.882 271.907 223.053 272.556 222.224C275.2 218.878 277.844 215.523 280.483 212.165Z" fill="#254147"/>
<path d="M373.019 291.865C373.138 296.751 373.111 301.378 373.092 306.298C372.866 306.936 372.629 307.276 372.385 307.842C364.847 308.529 357.318 309.041 349.78 309.419C348.34 309.492 346.873 309.03 345.421 308.816C346.8 308.346 348.157 307.566 349.566 307.456C355.633 306.974 361.722 306.76 367.793 306.302C371.774 306 371.136 306.199 370.96 302.799C370.272 289.546 369.264 276.297 369.069 263.037C368.973 256.539 370.36 250.013 371.151 243.511C371.755 238.575 372.48 233.655 373.145 228.723C373.195 228.36 373.08 227.924 373.248 227.646C373.569 227.107 374.039 226.656 374.448 226.171C374.658 226.748 375.105 227.348 375.044 227.894C374.662 231.309 374.169 234.713 373.711 238.121C372.343 248.248 370.119 258.265 371.292 268.649C371.934 274.311 371.479 280.091 371.713 285.806C371.797 287.754 372.469 289.672 373.019 291.865Z" fill="#485F61"/>
<path d="M346.426 235.217C349.069 230.915 351.553 226.824 354.093 222.774C354.326 222.404 354.96 222.289 355.407 222.056C355.465 222.518 355.717 223.087 355.541 223.427C354.609 225.219 353.623 226.988 352.55 228.699C348.286 235.5 344.023 242.304 339.675 249.054C336.543 253.917 332.875 253.948 329.697 248.962C325.005 241.605 320.551 234.09 316.001 226.64C315.382 225.624 314.698 224.635 314.201 223.561C314.007 223.137 314.24 222.514 314.278 221.983C314.794 222.155 315.554 222.171 315.787 222.53C317.43 225.04 318.962 227.618 320.532 230.174C323.993 235.794 327.248 241.551 330.984 246.984C334.037 251.423 335.179 252.955 338.972 246.98C341.417 243.14 343.847 239.289 346.426 235.217Z" fill="#485F61"/>
<path d="M316.459 265.536C315.019 265.929 313.609 266.307 312.188 266.334C307.814 266.418 303.436 266.395 299.062 266.353C297.682 266.342 296.846 266.468 296.838 268.263C296.811 276.5 296.647 284.733 296.506 292.969C296.46 295.735 296.368 298.497 296.242 301.263C296.162 303.005 296.2 304.667 298.08 305.909C298.122 306.306 297.919 306.589 297.411 307.074C296.582 307.284 296.059 307.284 295.539 307.284C295.203 307.07 294.867 306.856 294.408 306.34C294.687 305.32 295.436 304.602 295.44 303.88C295.509 292.201 295.425 280.519 295.535 268.84C295.558 266.617 294.729 266.281 292.808 266.323C287.704 266.433 282.596 266.391 277.488 266.323C274.489 266.281 271.231 267.266 268.824 264.386C268.621 264.145 268.033 264.229 267.624 264.164C268.22 262.873 268.763 262.162 270.291 263.431C271.28 264.252 272.812 264.81 274.104 264.821C287.845 264.917 301.587 264.882 315.672 264.859C316.242 264.94 316.402 265.112 316.459 265.536Z" fill="white"/>
<path d="M267.64 264.156C268.029 264.233 268.618 264.149 268.82 264.389C271.223 267.274 274.482 266.284 277.485 266.326C282.592 266.395 287.7 266.437 292.804 266.326C294.729 266.284 295.555 266.62 295.532 268.844C295.421 280.522 295.505 292.205 295.436 303.884C295.432 304.606 294.684 305.32 294.187 306.317C277.16 306.497 260.228 306.34 243.297 306.329C235.667 306.325 228.034 306.608 219.981 306.833C219.557 306.909 219.42 306.799 219.42 306.799C219.42 306.799 219.339 306.669 219.087 306.401C218.644 305.568 218.293 305.003 218.293 304.438C218.304 293.63 218.354 282.822 218.415 272.011C218.426 270.097 217.804 267.449 218.793 266.46C219.909 265.344 222.518 265.719 224.81 265.512C231.354 265.593 237.562 265.619 243.774 265.623C250.964 265.623 258.154 265.635 265.344 265.551C266.249 265.539 268.106 266.502 267.697 264.11C267.693 264.11 267.663 264.145 267.64 264.156Z" fill="#7B786D"/>
<path d="M224.47 265.447C222.51 265.719 219.905 265.344 218.785 266.46C217.796 267.449 218.419 270.097 218.407 272.011C218.346 282.818 218.3 293.626 218.285 304.437C218.285 305.003 218.636 305.568 219.007 306.386C218.476 306.684 217.739 306.863 217.074 306.718C216.768 306.653 216.371 305.924 216.409 305.538C216.52 304.506 217.047 303.498 217.051 302.478C217.101 291.032 217.101 279.59 217.051 268.144C217.047 267.319 216.558 266.498 215.989 265.627C218.388 265.367 221.093 265.157 224.138 265.104C224.478 265.256 224.47 265.447 224.47 265.447Z" fill="#D4D4D4"/>
<path d="M321.143 166.115C315.558 173.485 309.453 180.373 302.194 186.153C299.184 188.548 296.28 191.218 292.922 193.002C287.1 196.093 280.915 197.491 274.088 196.299C270.425 195.661 267.124 194.439 263.502 193.014C262.834 188.407 266.043 185.721 268.579 182.806C271.586 179.356 274.948 176.216 278.038 172.835C280.632 169.997 283.062 167.005 286.011 164.056C289.561 165.336 292.567 167.059 295.799 167.827C298.882 168.56 302.183 168.946 305.308 167.086C308.406 165.244 311.627 163.521 314.977 162.215C318.855 160.702 320.459 161.894 321.143 166.115Z" fill="#CBE0E4"/>
<path d="M280.308 211.963C277.844 215.52 275.2 218.874 272.56 222.232C271.907 223.061 271.261 223.89 270.612 224.967C268.854 225.502 267.105 225.865 265.336 226.056C262.593 226.358 259.796 226.342 257.107 226.881C256.091 227.084 254.864 228.287 254.494 229.307C252.37 235.167 246.716 236.585 241.574 233.017C240.424 232.218 239.782 230.56 239.163 229.181C238.735 228.226 238.746 227.072 238.468 225.536C238.349 224.921 238.33 224.776 238.307 224.631C238.838 216.387 241.845 212.486 251.831 210.672C254.91 210.114 258.154 210.03 261.042 208.972C263.41 208.104 265.366 206.114 267.617 204.406C271.861 206.718 275.995 209.239 280.308 211.963Z" fill="#DBB385"/>
<path d="M321.357 166C320.459 161.894 318.855 160.702 314.973 162.215C311.623 163.521 308.402 165.24 305.304 167.085C302.175 168.946 298.878 168.56 295.795 167.827C292.563 167.059 289.557 165.332 286.21 163.93C286.088 163.41 286.21 162.99 286.523 162.455C290.13 163.441 293.526 164.61 296.968 165.626C300.001 166.524 302.874 166.104 305.621 164.4C307.76 163.074 310.018 161.92 312.295 160.835C317.456 158.375 319.302 158.769 323.152 163.009C322.778 164.037 322.178 164.965 321.357 166Z" fill="#FDFDFD"/>
<path d="M229.494 225.246C228.359 225.525 227.068 225.559 225.463 225.521C226.545 225.3 227.943 225.151 229.494 225.246Z" fill="#FDFDFD"/>
<path d="M238.139 224.712C238.322 224.785 238.345 224.926 238.368 225.289C238.242 225.51 238.116 225.514 237.807 225.457C237.673 225.147 237.788 224.945 238.139 224.712Z" fill="#FDFDFD"/>
<path d="M224.806 265.512C224.47 265.447 224.478 265.256 224.474 265.164C235.824 265.023 247.182 265.015 258.536 264.897C261.39 264.866 264.243 264.473 267.395 264.179C268.102 266.501 266.245 265.539 265.34 265.55C258.15 265.634 250.96 265.623 243.77 265.623C237.558 265.619 231.35 265.592 224.806 265.512Z" fill="white"/>
<path d="M91.9053 272.95C95.1869 272.954 98.1057 273.015 101.024 272.939C102.426 272.901 102.938 273.355 102.915 274.796C102.843 279.048 102.862 283.303 102.9 287.555C102.912 288.786 102.495 289.24 101.215 289.225C93.0858 289.145 84.9562 289.087 76.8265 289.137C75.2564 289.145 75.0424 288.484 75.0577 287.2C75.1074 283.189 75.1723 279.174 75.0539 275.166C75.0004 273.39 75.5773 272.878 77.3193 272.916C82.0565 273.019 86.7975 272.95 91.9053 272.95Z" fill="#FDFDFD"/>
<path d="M334.147 60.2702C335.011 58.2339 335.756 56.4193 336.497 54.3296C337.047 54.0469 337.593 54.0392 338.415 54.0813C337.975 56.6867 337.265 59.2425 336.589 62.1115C334.614 69.1906 332.6 75.9602 330.545 83.0201C330.304 83.4213 330.087 83.5091 329.911 83.6467C329.322 84.1051 328.749 84.5865 328.169 85.0564C328.073 84.2044 327.978 83.3487 327.962 82.237C331.137 77.0566 332.486 71.605 332.906 65.8822C333.047 64.0332 332.356 62.0237 334.147 60.2702Z" fill="#485F61"/>
</svg>
