<svg width="433" height="285" viewBox="0 0 433 285" fill="none" xmlns="http://www.w3.org/2000/svg">
<g clip-path="url(#clip0_111_24778)">
<path d="M291.809 213.109C293.204 225.67 290.486 278.541 280.796 287.099C275.138 292.096 268.074 293.999 261.122 295.974C253.105 298.252 244.994 300.324 236.803 301.837C227.787 303.503 218.664 304.8 209.53 305.586C198.624 306.521 187.646 307.366 176.724 307.106C164.075 306.803 151.441 305.402 138.827 304.212C122.101 302.633 105.976 298.398 90.1021 292.976C77.6451 288.723 69.0679 277.515 68.8765 263.956C68.699 251.415 68.8173 214.532 68.88 201.623C69.9134 200.336 70.9747 200.778 71.9455 201.143C89.6568 207.845 108.193 212.084 125.803 219.081C132.501 221.741 139.053 224.707 145.793 228.039C146.458 228.362 146.823 228.571 147.446 228.971C147.885 229.267 148.055 229.392 148.469 229.726C157.37 235.297 164.653 233.976 172.889 239.877C182.74 246.937 193.683 248.366 205.298 245.18C212.832 243.115 219.617 239.307 226.604 235.979C244.176 218.523 262.555 213.401 282.114 213.001C285.27 212.935 288.409 211.314 291.809 213.109Z" fill="#30555C"/>
<path d="M264.405 232.42C240.249 232.827 217.578 238.538 196.368 250.076C190.142 253.464 183.423 255.721 176.284 255.924C167.216 256.185 159.178 253.124 152.071 247.495C145.622 242.39 133.613 228.635 122.856 225.113C125.023 222.309 134.348 227.109 130.712 225.113C126.669 222.891 122.687 220.523 118.234 219.026C113.721 217.51 108.979 216.792 104.596 214.885C98.8045 212.364 92.7147 210.67 86.8315 208.407C83.4147 207.091 80.0233 205.753 76.3523 205.222C75.1508 205.048 73.2692 204.822 73.6443 202.975C73.9876 201.291 75.7071 200.963 77.2136 201.157C80.1282 201.529 82.7917 202.854 85.6396 203.56C102.234 207.66 118.256 213.629 134.6 218.556C141.363 220.593 148.082 223.288 155.606 222.217C159.544 221.658 163.186 220.418 166.911 219.353C176.526 216.604 186.07 213.464 195.771 211.188C203.771 209.313 211.453 206.599 219.18 204.084C229.939 200.585 241.063 198.506 251.784 194.931C256.609 193.322 258.261 194.492 258.878 199.485C259.145 201.653 259.844 203.217 262.218 203.605C262.946 203.725 263.56 204.173 264.021 205.156C264.106 214.036 264.043 222.605 264.23 231.498C264.383 231.949 264.415 232.083 264.405 232.42Z" fill="#111F22"/>
<path d="M265.29 211.578C260.698 212.291 259.835 209.679 259.877 205.981C259.906 203.347 258.538 202.767 255.237 203.731C249.453 205.418 243.692 207.198 237.877 208.782C235.706 209.374 233.416 209.524 231.179 209.872C230.647 209.954 230.078 209.928 229.582 210.112C223.082 212.531 216.704 215.344 210.077 217.339C199.378 220.559 188.547 223.357 177.712 226.104C173.152 227.262 168.455 227.932 163.789 228.617C162.465 228.812 160.975 228.461 159.659 228.048C151.772 225.573 143.913 223.009 136.043 220.471C127.946 217.859 119.875 215.174 111.747 212.661C107.775 211.433 103.712 210.491 99.6668 209.512C98.8854 209.323 97.9851 209.495 97.1698 209.651C96.8386 209.716 96.5894 210.188 96.3035 210.474C96.6121 210.706 96.8895 211.051 97.2378 211.153C103.409 212.93 109.626 214.554 115.75 216.481C118.683 217.404 121.384 219.034 124.285 220.078C127.923 221.388 131.731 222.237 135.332 223.626C140.717 225.706 146.319 227.4 150.189 232.264C152.284 234.899 151.126 235.544 148.394 235.971C148.142 235.988 148.165 235.974 148.165 235.982C147.899 235.617 147.817 235.063 147.05 235.119C140.102 232.307 133.424 229.104 126.494 226.58C118.632 223.716 110.518 221.543 102.566 218.909C96.5611 216.923 74.7169 209.49 68.517 207.339C68.2197 206.782 68.0499 206.23 68.1178 205.715C68.5453 202.569 67.2855 201.4 64.0695 200.574C56.488 198.624 65.0235 201.123 57.544 198.763C56.5333 198.443 55.4603 198.333 54.1382 198.061C53.9429 197.139 54.4497 196.53 55.2112 196.321C59.387 195.164 63.39 193.285 68.1178 193.325C75.119 194.702 81.5454 197.11 88.0907 199.125C112.316 206.575 136.476 214.24 160.757 221.504C165.573 222.944 170.459 221.939 175.224 220.553C200.601 213.168 226.049 206.023 251.455 198.735C272.053 192.824 292.547 186.562 313.188 180.812C314.445 180.461 315.714 180.125 316.871 179.502C318.516 178.619 319.623 177.326 319.521 175.363C319.419 173.371 318.151 172.211 316.37 171.628C312.749 170.442 309.018 169.641 305.324 168.736C288.841 164.701 272.416 160.44 255.919 156.464C254.753 156.184 253.609 155.833 252.344 155.112C249.196 152.497 246.011 150.593 241.98 150.689C238.288 150.777 235.344 148.406 231.904 147.608C230.202 147.212 228.807 146.652 227.471 148.567C226.74 148.833 226.29 148.632 225.684 148.146C223.017 144.187 218.782 144.201 215.102 143.768C210.92 143.276 207.198 142.603 203.755 139.83C201.097 137.688 197.547 136.969 194.098 136.298C191.488 135.792 188.425 135.735 187.213 132.379C188.184 131.477 189.161 131.556 190.132 131.763C198.838 133.633 207.534 135.529 216.18 137.688C223.971 139.634 231.663 141.938 239.562 143.533C249.878 145.619 259.843 149.263 270.168 151.303C278.265 152.902 286.223 155.075 294.15 157.2C300.732 158.963 307.404 160.491 313.955 162.474C320.229 164.373 325.752 167.355 331.069 170.96C332.422 171.877 333.747 172.827 334.792 174.463C336.309 182.233 331.318 186.556 324.204 188.362C317.664 190.022 311.17 191.862 304.647 193.588C297.19 195.563 289.725 197.501 282.262 199.456C276.883 200.865 271.507 202.274 265.938 203.85C265.129 206.428 265.661 208.898 265.29 211.578Z" fill="#111F22"/>
<path d="M335.013 174.415C330.882 172.064 327.038 168.934 322.658 167.002C316.99 164.498 310.946 162.794 304.981 161.031C297.872 158.932 290.701 157.036 283.513 155.234C276.824 153.556 270.063 152.158 263.357 150.551C260.007 149.75 256.726 148.669 253.38 147.863C246.152 146.12 238.877 144.581 231.669 142.761C222.145 140.359 212.698 137.662 203.163 135.305C198.147 134.066 193.02 133.277 187.672 132.286C184.436 133.364 181.962 131.37 179.292 130.821C174.174 129.765 169.457 129.615 164.361 131.548C158.812 133.653 152.859 134.745 147.129 136.429C137.951 139.125 128.818 141.977 119.606 144.549C105.385 148.519 91.2671 152.848 76.8827 156.244C69.7088 157.936 62.6737 160.236 55.7038 162.681C50.8712 164.376 45.9112 165.59 40.8494 166.368C38.6921 166.699 36.5519 167.118 34.5107 167.882C30.216 169.489 29.7914 171.144 32.8121 174.936C32.6168 180.762 36.0848 182.408 40.8635 183.605C47.3296 185.227 53.8126 187.006 60.0041 190.175C59.1718 192.493 56.9013 192.269 55.231 192.881C52.499 193.882 49.7614 195.407 46.4152 194.505C39.3036 191.981 32.4299 189.533 25.4826 187.335C22.6261 186.429 20.9076 184.624 20.1461 181.95C18.9599 177.788 18.8863 173.561 21.018 169.661C22.7903 166.425 26.3206 165.839 29.4856 164.911C36.7189 162.789 43.972 160.734 51.2449 158.759C58.4131 156.81 65.6265 155.041 72.7947 153.095C77.5848 151.793 82.3211 150.302 87.0942 148.932C97.3849 145.978 107.687 143.055 117.978 140.101C125.205 138.027 132.41 135.866 139.655 133.848C149.337 131.152 158.963 128.135 168.792 126.129C172.608 125.351 176.957 126.752 180.991 127.536C185.812 128.472 190.557 129.799 195.33 130.973C199.426 131.984 203.52 132.999 207.605 134.046C213.703 135.608 219.79 137.215 225.888 138.78C232.317 140.43 238.752 142.065 245.193 143.678C256.084 146.406 266.992 149.074 277.871 151.844C285.94 153.898 293.957 156.162 302.034 158.182C309.658 160.086 317.313 161.883 324.991 163.553C329.407 164.509 333.926 169.064 335.013 174.415Z" fill="#111F22"/>
<path d="M24.2113 323.664C20.7716 328.386 15.9589 328.822 13.6686 324.643C12.9608 323.35 12.9382 321.533 13.0231 319.983C13.6346 308.633 14.4075 297.295 15.0246 285.946C15.7013 273.519 16.2618 261.086 16.8931 248.656C16.9865 246.82 17.1819 244.989 17.3432 242.898C18.47 241.78 19.4495 242.601 20.3555 243.003C22.6797 244.035 25.2163 243.979 27.8463 244.743C28.6051 245.493 28.7296 246.223 28.7523 247.267C28.724 247.736 28.7013 247.923 28.6249 248.387C27.9256 251.234 28.3163 253.848 28.2852 256.729C27.3736 268.845 27.1895 280.72 26.1534 292.836C25.3918 295.173 25.6495 297.293 25.675 299.684C25.6693 302.901 25.8193 305.832 25.4994 309.041C24.7039 311.505 25.0634 313.78 24.8823 316.284C24.0245 318.808 24.7832 321.174 24.2113 323.664Z" fill="#79AEB9"/>
<path d="M46.0442 194.494C49.5207 193.447 52.8415 192.567 56.1566 191.684C57.3004 191.378 58.4384 191.062 59.752 190.589C61.5129 188.354 64.0778 188.518 66.2294 187.782C67.727 187.27 69.3124 186.97 71.062 186.367C71.4725 186.268 71.6395 186.234 72.0528 186.169C76.0616 184.947 79.9118 184.061 83.8865 182.723C86.0692 182.293 87.9349 181.651 90.0497 180.983C91.4227 180.64 92.5155 180.241 93.8715 179.817C108.632 175.561 123.158 171.405 137.891 167.056C139.573 166.623 141.039 166.351 142.667 165.737C144.179 165.344 145.456 165.033 146.894 164.379C150.707 163.745 153.957 161.714 157.929 162.133C159.212 163.898 158.631 165.474 157.929 167.291C156.935 168.773 155.622 169.229 154.237 169.614C130.624 176.209 107.118 183.176 83.3373 190.116C78.3122 191.206 73.944 193.786 68.7037 194.021C63.7155 195.286 58.9565 196.449 54.0334 197.804C47.9212 199.559 41.9732 201.118 36.0252 202.68C35.1901 202.9 34.3662 203.163 33.5283 203.361C30.4311 204.094 28.5655 205.806 28.6447 209.207C28.6957 211.377 28.6249 213.553 28.6023 216.026C27.1301 217.634 25.5278 217.467 23.6536 216.539C23.5064 214.266 23.5461 212.221 23.6621 210.178C24.1406 201.831 27.1075 200.348 34.2105 198.169C38.0947 196.975 41.9902 195.826 46.0442 194.494Z" fill="#CCC7B5"/>
<path d="M23.1752 216.343C24.9616 216.329 26.4932 216.349 28.3079 216.346C32.5261 217.829 35.7903 220.152 37.8031 223.952C40.2605 228.589 40.1925 236.605 34.2106 241.71C32.8347 243.521 31.1247 244.31 28.993 244.814C28.6306 244.887 28.4834 244.904 28.1182 244.862C24.2595 245.428 20.9444 244.525 17.6009 242.641C12.2786 238.509 9.56933 233.518 11.4605 226.795C13.1109 220.93 17.0517 217.608 23.1752 216.343Z" fill="#E1FF01"/>
<path d="M28.4976 244.677C30.3292 243.689 32.0165 242.9 33.8737 242C33.5594 268.858 33.0895 295.826 32.5827 322.791C32.5063 326.838 29.4318 329.064 26.3177 327.285C25.3296 326.721 24.7974 325.366 24.0472 324.121C23.9736 321.671 23.9113 319.472 23.9538 317.036C24.8314 314.608 24.1519 312.339 24.5681 309.872C24.7096 306.57 24.7125 303.517 24.721 300.161C25.4259 297.866 24.8484 295.798 25.2221 293.534C26.0147 281.327 26.6687 269.364 27.3283 257.104C28.0955 254.17 27.4274 251.473 27.8379 248.564C27.9795 248.313 27.9738 248.004 27.9738 247.849C28.6419 246.824 28.1522 245.803 28.4976 244.677Z" fill="#4F8C99"/>
<path d="M265.149 212.13C265.228 209.351 265.31 206.875 265.576 204.207C265.771 214.45 265.783 224.882 265.746 235.618C265.517 234.242 265.194 232.567 265.177 230.889C265.112 224.738 265.151 218.587 265.149 212.13Z" fill="#111F22"/>
<path d="M147.064 235.299C147.115 234.9 147.335 234.586 147.553 234.271C147.763 234.699 147.972 235.126 148.173 235.771C147.854 235.791 147.542 235.587 147.064 235.299Z" fill="#111F22"/>
<path d="M147.069 164.783C145.796 165.386 144.663 165.796 143.287 166.218C142.319 166.588 142.141 166.085 141.92 165.561C141.637 164.891 142.466 163.564 140.923 163.646C139.7 163.713 138.896 164.373 138.959 165.745C138.984 166.288 138.978 166.832 138.582 167.522C123.813 171.995 109.145 176.265 94.2199 180.49C92.4732 179.185 91.2785 178.871 90.834 181.554C88.7192 182.21 86.7403 182.691 84.4953 183.172C82.4513 183.492 81.1689 181.788 79.3429 182.057C76.3561 182.499 73.5959 183.127 72.5626 186.754C72.2823 186.952 72.1606 186.981 71.852 186.983C70.9319 186.601 69.992 186.652 69.3352 185.654C68.2056 181.916 69.3635 179.986 73.5336 178.608C77.7688 177.21 82.1286 176.243 86.4629 175.21C87.2046 175.034 88.0454 175.046 88.6683 174.652C92.9771 171.936 98.0248 172.14 102.736 171.039C109.626 169.429 116.285 167.038 123.082 165.108C130.075 163.122 136.674 159.902 143.845 158.459C145.362 158.153 146.795 157.435 147.876 156.391C152.293 152.132 157.7 150.299 163.639 149.583C165.389 149.373 166.881 148.341 168.526 147.775C171.062 146.903 173.46 146.912 175.524 148.884C177.359 150.638 179.68 149.905 181.747 149.931C183.649 149.954 185.546 149.15 187.488 148.861C189.175 148.609 190.163 145.452 189.073 143.307C187.618 140.443 186.208 137.591 182.868 136.083C179.773 134.685 177.26 131.395 173.44 132.594C168.016 134.298 162.122 134.688 157.318 138.214C154.342 140.398 150.634 140.511 147.222 141.349C145.682 141.728 144.001 141.638 142.588 142.543C138.939 144.883 134.548 144.951 130.621 146.504C122.844 149.583 114.654 151.346 106.549 153.304C98.1947 155.324 90.1574 158.405 81.8172 160.397C76.6845 161.622 71.8492 164.299 66.3343 163.79C65.887 163.747 65.4029 163.762 65.1113 164.095C62.5039 167.081 58.4782 167.123 55.2565 168.838C52.5755 170.267 49.7105 170.654 46.7295 169.593C45.7471 169.245 44.493 168.79 43.7852 170.001C43.1058 171.161 44.0541 172.038 44.7421 172.864C45.5772 173.866 46.4888 174.8 47.4712 175.665C48.0346 176.163 48.7197 176.692 48.3969 177.575C48.0261 178.588 47.0749 178.619 46.2057 178.554C45.3338 178.489 44.476 178.435 43.3747 178.69C41.1127 178.877 39.2131 178.444 37.1946 177.502C36.4047 177.069 35.9489 176.497 35.009 176.441C34.0946 176.418 33.4605 176.217 32.8291 175.518C31.575 173.9 29.2422 171.885 29.6074 171.073C30.3803 169.344 32.3535 167.567 34.1965 167.013C39.1282 165.53 44.2608 164.712 49.2972 163.566C51.3893 163.091 53.4531 162.48 55.5141 161.877C66.8467 158.569 78.1708 155.228 89.5063 151.934C96.9547 149.77 104.417 147.659 111.883 145.548C120.296 143.171 128.722 140.831 137.135 138.457C145.75 136.029 154.64 134.272 162.898 130.953C171.433 127.521 179.04 129.513 187.157 132.255C189.829 133.37 192.173 134.767 194.707 135.475C198.832 136.626 202.872 137.512 206.232 140.625C207.707 141.991 210.36 142.229 212.543 142.67C215.756 143.324 219.094 143.454 222.245 144.311C223.649 144.693 224.722 146.298 225.95 147.588C224.795 149.023 223.533 148.267 222.315 147.998C215.761 146.541 209.273 144.829 202.756 143.236C201.289 142.88 199.826 142.376 198.042 143.007C197.08 143.115 196.57 142.885 196.213 142.203C195.876 141.558 196.508 140.279 195.35 140.339C194.959 140.359 195.273 141.717 195.378 142.452C195.905 146.216 198.736 149.563 202.852 149.976C208.355 150.528 213.327 152.834 218.641 153.915C228.866 155.995 239.035 158.408 249.003 161.405C257.632 163.996 266.564 165.366 275.046 168.566C279.471 170.236 284.377 170.62 288.98 171.936C290.891 172.482 293.564 172.508 293.603 175.182C293.643 177.833 291.429 179.151 289.085 179.621C275.42 182.366 262.408 187.397 249.006 191.069C241.504 193.126 234.143 195.803 226.604 197.84C221.166 199.312 215.784 200.981 210.187 201.83C206.195 202.435 202.575 204.374 198.642 205.302C189.127 207.546 179.83 210.63 170.321 212.913C170.009 212.987 169.74 213.207 169.225 213.505C167.911 214.003 166.833 214.048 165.502 213.567C164.327 210.771 164.775 209.47 167.175 209.187C181.427 207.506 194.713 202.053 208.545 198.791C228.577 194.069 248.01 187.255 267.932 182.168C269.854 181.675 271.575 180.761 273.322 179.876C275.151 178.948 275.326 177.572 274.182 176.158C272.413 173.968 270.598 171.945 267.229 172.049C264.548 172.134 261.783 171.356 259.294 170.459C253.723 168.45 247.789 168.198 242.203 166.452C235.698 164.418 228.844 163.784 222.46 161.164C219.83 160.086 216.883 159.305 213.91 159.297C210.34 159.285 208.766 160.578 207.917 164.028C204.335 178.6 194.922 185.939 179.864 185.996C172.679 186.024 165.545 186.234 158.663 183.356C154.6 181.658 150.498 183.2 146.602 184.672C141.62 186.553 136.745 188.707 131.538 189.997C129.316 190.549 127.145 191.16 124.835 191.284C122.884 191.389 120.914 191.666 119.059 192.289C117.78 192.719 115.792 192.668 115.526 194.119C115.288 195.432 117.168 195.894 118.168 196.66C119.495 197.676 120.619 198.681 118.694 200.421C117.794 200.76 117.134 200.718 116.296 200.305C115.147 199.009 114.456 197.269 112.197 198.576C110.872 198.947 109.791 198.904 108.573 198.194C108.03 198.069 108.132 197.02 107.265 197.736C102.92 196.881 98.6448 196.496 94.9446 193.771C94.8088 192.959 94.8937 192.345 95.3835 192.071C99.0695 190.011 102.543 187.368 106.685 186.403C111.226 185.348 115.968 184.768 120.339 183.359C127.408 181.078 135.14 180.753 141.563 176.494C142.291 176.013 143.182 175.863 144.049 175.759C149.767 175.06 155.302 174.952 160.885 177.289C172.529 182.162 184.037 180.934 195.109 175.193C200.635 172.329 201.683 164.562 196.918 161.017C192.853 157.166 188.187 155.265 182.687 154.648C181.888 154.368 181.305 154.257 180.464 154.438C178.65 154.713 177.056 154.696 175.23 154.52C174.397 154.382 173.803 154.229 172.956 154.353C172.263 154.461 171.796 154.478 171.088 154.435C165.63 153.804 160.545 153.847 156.129 157.327C155.367 157.927 154.535 158.501 153.603 158.759C150.464 159.628 148.335 161.546 147.069 164.783Z" fill="#111F22"/>
<path d="M197.634 142.946C198.393 140.394 199.857 141.647 201.088 141.947C209.205 143.928 217.318 145.917 225.69 147.867C226.264 147.98 226.582 148.127 227.074 148.28C229.945 147.465 232.329 148.888 234.82 149.403C239.582 150.385 244.264 151.718 248.998 152.841C249.96 153.067 250.835 153.475 251.863 154.191C258.759 156.115 265.423 157.937 272.119 159.637C279.961 161.627 287.825 163.514 295.684 165.438C302.074 167.003 308.466 168.559 314.859 170.112C317.732 170.811 320.447 171.875 320.574 175.333C320.691 178.459 318.774 180.126 315.779 180.961C305.607 183.79 295.46 186.713 285.325 189.676C276.544 192.245 267.798 194.941 259.022 197.533C253.782 199.081 248.511 200.521 243.259 202.038C236.176 204.083 229.107 206.189 222.018 208.212C216.874 209.677 211.696 211.019 206.552 212.479C199.559 214.462 192.64 216.723 185.588 218.469C178.327 220.268 171.32 223.845 163.577 222.792C159.594 222.252 155.698 220.913 151.823 219.745C142.497 216.93 133.2 214.015 123.9 211.112C116.438 208.78 109.003 206.361 101.53 204.061C93.4498 201.574 85.3417 199.183 77.2478 196.738C74.4876 195.903 71.7387 195.032 68.7236 194.149C73.0098 192.63 77.5564 191.136 82.3465 189.642C86.9951 189.91 90.9811 191.571 95.0607 193.569C99.2024 194.93 103.222 196.059 107.486 197.233C107.837 197.267 107.947 197.259 108.194 197.341C109.439 197.726 110.546 198.02 111.9 198.362C113.491 198.042 114.677 198.473 115.99 199.302C116.616 199.698 117.066 199.93 117.715 200.179C122.612 199.723 126.765 201.908 131.085 203.087C141.741 205.996 152.25 209.437 163.059 211.785C163.705 211.927 164.299 212.17 164.978 212.818C166.303 213.076 167.422 213.166 168.817 213.22C172.333 211.91 175.841 211.851 179.156 210.911C192.023 207.272 204.89 203.636 217.803 200.199C244.471 193.099 270.791 184.789 297.49 177.814C300.752 176.963 303.917 175.768 307.226 175.081C307.535 175.016 307.857 174.982 308.118 174.77C307.784 174.617 307.438 174.804 307.09 174.713C295.39 171.734 283.78 168.42 272.113 165.319C253.196 160.291 234.271 155.297 215.374 150.195C210.439 148.865 205.445 147.762 200.562 146.251C199.056 145.784 197.201 145.501 197.634 142.946Z" fill="#579AA8"/>
<path d="M252.049 154.116C248.117 153.493 244.134 152.712 240.19 151.767C236.017 150.766 231.884 149.606 227.49 148.4C227.201 146.383 228.379 145.616 229.967 146.052C232.561 146.765 235.058 147.823 237.591 148.745C238.594 149.11 239.814 150.07 240.541 149.781C244.411 148.242 246.937 151.847 250.308 152.104C250.923 152.152 251.452 153.264 252.049 154.116Z" fill="#111F22"/>
<path d="M36.3224 176.398C38.4089 177.001 40.3453 177.496 42.5365 178C51.9129 179.55 60.6805 182.366 69.5898 185.575C70.3485 186.041 70.9034 186.347 71.563 186.808C67.928 188.09 64.1853 189.219 60.1823 190.388C52.5555 188.07 45.1977 185.685 37.82 183.362C32.4665 181.675 32.4552 181.712 32.6421 175.663C33.3498 175.595 34.0151 175.818 34.8927 176.07C35.4844 176.036 35.844 176.076 36.3224 176.398Z" fill="#579AA8"/>
<path d="M95.239 193.554C91.1029 192.547 87.0177 191.291 82.7627 189.839C86.5251 188.351 90.4319 186.967 94.3982 185.79C102.67 183.337 110.971 180.983 119.266 178.612C126.219 176.625 133.195 174.715 140.139 172.695C145.747 171.062 151.324 169.317 157.137 167.511C157.663 167.203 158 167.121 158.612 167.262C163.186 172.545 169.333 173.176 175.405 173.688C180.082 174.081 184.733 173.493 189.238 172.013C195.095 170.089 196.335 168.405 196.267 162.362C196.261 161.818 196.25 161.275 196.516 160.528C199.409 160.347 200.349 161.883 200.508 164.472C200.983 172.353 199.367 174.135 192.117 177.471C186.2 180.196 180.178 181.268 173.905 181.096C168.288 180.943 162.835 179.61 157.779 176.925C156.842 176.427 155.574 176.413 154.458 176.416C151.05 176.419 147.638 176.504 144.233 176.639C143.395 176.673 142.387 176.795 141.773 177.279C137.062 180.971 131.233 181.172 125.777 182.511C119.229 184.118 112.545 185.292 106.161 187.383C102.297 188.645 98.8967 191.285 95.239 193.554Z" fill="#111F22"/>
<path d="M158.894 167.655C158.354 167.536 158.068 167.508 157.57 167.443C157.57 165.878 157.779 164.353 158.144 162.347C163.611 159.311 169.406 158.266 175.003 156.614C176.815 156.082 178.216 157.075 178.765 158.866C179.36 160.813 178.669 162.369 176.69 162.995C170.909 164.825 165.188 166.879 158.894 167.655Z" fill="#CCC7B5"/>
<path d="M147.197 164.971C146.851 161.751 148.502 159.852 151.426 158.675C153.394 157.883 155.288 156.83 157.074 155.679C161.377 152.906 166.023 152.928 171.054 153.814C170.989 155.144 169.902 155.087 168.99 155.302C164.698 156.318 160.811 157.976 158.144 162.056C157.966 162.218 157.946 162.263 157.957 162.283C154.47 163.191 150.968 164.08 147.197 164.971Z" fill="#111F22"/>
<path d="M72.6587 186.961C72.1887 184.825 72.5879 182.957 74.8782 182.284C77.9046 181.392 81.0527 179.853 84.0224 183.065C81.9813 184.021 79.7391 184.918 77.4601 185.705C75.9682 186.217 74.4253 186.57 72.6587 186.961Z" fill="#111F22"/>
<path d="M138.729 167.68C138.483 166.347 137.985 164.613 138.639 163.704C139.227 162.887 141.082 162.977 142.376 162.666C142.483 163.767 142.588 164.87 142.868 166.098C141.69 166.695 140.334 167.165 138.729 167.68Z" fill="#111F22"/>
<path d="M90.9272 181.736C90.9159 180.604 91.131 179.478 91.3433 178.352C92.2011 178.903 93.0589 179.455 93.9422 180.225C93.0278 180.875 92.0907 181.308 90.9272 181.736Z" fill="#111F22"/>
<path d="M165.191 212.733C156.686 210.831 148.162 208.743 139.68 206.493C132.538 204.598 125.443 202.518 118.122 200.365C119.439 199.397 119.993 198.588 118.068 197.527C117.049 196.964 116.132 196.208 115.181 195.526C114.527 195.059 113.893 194.564 113.25 194.08C114.122 193.489 114.92 192.586 115.88 192.357C121.737 190.954 127.671 189.864 133.495 188.345C137.348 187.34 141.164 186.025 144.81 184.432C150.716 181.851 156.347 181.096 162.671 183.591C170.004 186.483 177.919 185.493 185.537 184.624C194.24 183.631 200.748 178.764 204.927 171.099C206.023 169.09 206.47 166.674 206.934 164.385C207.993 159.173 212.35 157.011 217.418 158.677C223.357 160.63 229.489 161.988 235.545 163.592C238.121 164.274 240.706 164.922 243.282 165.598C248.743 167.03 254.167 168.632 259.676 169.846C262.728 170.519 265.913 170.66 269.047 170.839C271.145 170.958 276.478 176.322 276.133 178.478C276.017 179.206 275.086 180.128 274.33 180.383C267.688 182.621 261.015 184.78 254.323 186.857C246.787 189.194 239.256 191.559 231.655 193.67C222.703 196.154 213.652 198.285 204.689 200.735C195.627 203.214 186.647 205.993 177.577 208.435C174.578 209.241 171.422 209.552 168.316 209.821C166.465 209.977 165.029 210.161 165.191 212.733Z" fill="#111F22"/>
<path d="M69.7908 185.487C66.3681 184.867 62.9228 184.069 59.5199 183.116C54.0447 181.585 48.5978 179.955 42.9669 178.187C43.216 177.906 43.6322 177.771 44.0596 177.717C45.3336 177.558 46.6132 177.431 47.89 177.292C46.9303 176.33 45.9678 175.368 45.008 174.406C44.8552 174.253 44.7164 174.084 44.5579 173.934C43.1226 172.567 41.24 170.966 42.8763 169.067C43.5727 168.258 45.9649 168.948 47.5814 168.869C49.784 168.761 52.3234 169.223 54.107 168.283C57.6514 166.416 62.5236 166.931 64.7601 162.627C64.8592 162.437 65.3942 162.307 65.649 162.389C71.614 164.262 76.557 160.465 81.9671 159.37C86.927 158.369 91.7171 156.549 96.5921 155.126C102.237 153.479 107.879 151.821 113.547 150.268C119.025 148.765 124.594 147.568 130.015 145.899C134.715 144.453 139.256 142.498 143.893 140.848C144.72 140.554 145.702 140.727 146.585 140.548C147.766 140.313 148.921 139.954 150.082 139.634C150.164 139.612 150.234 139.383 150.271 139.391C155.288 140.681 157.711 135.359 162.108 134.79C164.893 134.428 167.614 133.22 170.25 132.122C172.863 131.035 178.205 131.598 180.402 133.443C181.226 134.134 182.066 135.034 183.04 135.274C187.244 136.315 188.309 140.158 190.064 143.202C190.777 144.442 190.121 146.504 189.982 148.185C189.758 150.944 187.57 149.591 186.2 149.877C184.241 150.285 182.253 150.834 180.277 150.831C177.959 150.828 175.62 151.167 173.63 148.74C172.871 147.814 169.658 148.726 167.606 149.065C165.111 149.478 162.411 149.696 160.259 150.853C157.136 152.534 153.323 152.373 150.611 155.375C148.363 157.865 145.209 159.268 141.509 159.851C137.333 160.505 133.395 162.579 129.302 163.866C120.95 166.495 112.602 169.141 104.171 171.5C101.031 172.378 97.6056 172.205 94.4321 172.994C91.4368 173.739 88.6483 175.269 85.6842 176.18C81.8765 177.349 77.9838 178.24 74.1308 179.262C70.5864 180.193 69.1029 182.238 69.7908 185.487Z" fill="#111F22"/>
<path d="M197.552 142.671C198.586 146.507 202.201 145.661 204.553 146.406C212.39 148.881 220.376 150.902 228.334 152.979C233.939 154.441 239.624 155.599 245.215 157.098C252.647 159.09 260.005 161.362 267.433 163.36C273.025 164.865 278.709 166.028 284.303 167.525C289.974 169.042 295.577 170.81 301.222 172.409C303.28 172.992 305.392 173.377 307.461 173.928C308.274 174.146 309.03 174.576 309.811 174.907C309.01 175.292 308.243 175.807 307.399 176.042C301.935 177.573 296.448 179.019 290.985 180.541C282.738 182.836 274.502 185.178 266.256 187.485C256.565 190.195 246.857 192.846 237.181 195.602C227.179 198.452 217.219 201.46 207.209 204.281C200.188 206.258 193.142 208.154 186.05 209.869C180.637 211.176 175.139 212.144 169.389 213.222C169.384 212.763 169.59 212.062 169.958 211.966C180.184 209.263 190.441 206.674 200.661 203.952C206.28 202.456 211.826 200.687 217.44 199.165C222.236 197.866 227.108 196.845 231.893 195.509C236.029 194.357 240.077 192.889 244.191 191.65C251.529 189.44 258.892 187.309 266.239 185.122C270.264 183.925 274.267 182.638 278.302 181.463C281.082 180.654 283.893 179.958 286.693 179.231C287.63 178.987 288.768 179.064 289.495 178.546C290.829 177.601 291.927 176.322 293.125 175.185C291.941 174.418 290.857 173.309 289.561 172.941C281.495 170.643 273.398 168.442 265.279 166.348C255.585 163.847 245.869 161.439 236.139 159.082C229.35 157.438 222.471 156.136 215.727 154.328C209.845 152.752 204.03 150.865 198.311 148.768C194.158 147.246 194.583 143.089 194.031 139.651C193.965 139.25 195.016 138.217 195.273 138.302C195.973 138.534 196.808 139.1 197.068 139.742C197.416 140.602 197.272 141.658 197.552 142.671Z" fill="#111F22"/>
<path d="M158.224 162.234C160.064 155.972 165.59 155.296 171.105 154.099C171.742 153.91 172.183 153.901 172.832 153.816C173.296 153.567 173.579 153.483 174.097 153.599C176.303 153.72 178.301 153.751 180.594 153.734C181.158 153.542 181.444 153.488 181.948 153.61C184.708 154.371 187.395 154.736 189.79 155.777C192.159 156.807 194.231 158.513 196.542 160.121C198.552 167.109 196.258 170.714 189.467 172.834C182.687 174.953 175.816 175.191 169.058 173.815C165.259 173.043 160.808 172.304 158.665 167.794C164.384 165.825 170.097 163.943 175.903 162.415C178.041 161.852 178.683 160.763 178.14 158.983C177.534 157.002 176.073 157.028 174.222 157.619C169.016 159.283 163.733 160.723 158.224 162.234Z" fill="#E1FF01"/>
<path d="M116.152 199.241C114.949 199.215 113.726 198.96 112.327 198.559C113.921 195.69 115.025 197.365 116.152 199.241Z" fill="#111F22"/>
<path d="M83.8667 180.785C83.9431 180.494 84.1272 180.313 84.3225 180.149C84.3282 180.143 84.4612 180.293 84.5348 180.369C84.348 180.545 84.1611 180.723 83.8667 180.785Z" fill="#111F22"/>
<path d="M36.4442 176.316C36.1017 176.469 35.728 176.432 35.2297 176.248C35.544 176.11 35.9771 176.118 36.4442 176.316Z" fill="#111F22"/>
<path d="M182.058 153.579C181.871 153.729 181.591 153.749 181.101 153.729C181.251 153.61 181.605 153.531 182.058 153.579Z" fill="#111F22"/>
<path d="M174.207 153.562C174.029 153.724 173.746 153.761 173.253 153.769C173.395 153.642 173.752 153.537 174.207 153.562Z" fill="#111F22"/>
<path d="M108.293 197.339C108.335 197.438 108.021 197.413 107.877 197.348C107.902 197.073 108.075 197.062 108.293 197.339Z" fill="#111F22"/>
<path d="M331.004 207.166C330.999 215.385 330.962 223.359 330.922 231.33C330.874 240.772 326.237 247.189 317.291 250.115C316.376 250.415 315.369 250.423 314.213 250.675C313.568 251.623 312.722 251.745 311.934 251.719C306.581 251.55 301.196 251.66 295.75 250.157C289.932 247.085 288.154 241.861 287.302 236.083C286.13 228.152 283.848 220.547 280.544 213.246C278.676 209.118 273.58 207.152 269.393 208.883C268.328 209.325 268.297 210.188 268.232 211.079C268.141 212.321 268.255 213.606 267.213 214.791C266.123 219.536 265.118 224.137 264.297 228.772C263.272 234.547 262.389 240.347 261.454 246.14C260.945 249.303 260.178 252.461 260.025 255.644C259.767 261.011 254.255 266.017 249.434 265.544C247.393 265.343 245.318 265.488 243.008 265.505C239.862 266.15 237.159 265.075 234.175 264.514C227.443 262.242 224.204 257.695 223.655 250.845C222.774 239.881 221.127 228.984 220.141 218.037C219.419 210.038 218.239 201.999 218.887 193.924C219.284 189.003 216.696 186.043 212.917 183.672C209.55 181.561 205.714 180.48 202.164 178.777C199.022 177.272 195.746 175.987 192.884 173.557C192.409 171.556 193.974 171.743 194.934 171.406C198.201 170.269 201.669 169.74 204.794 168.181C208.582 166.293 211.999 163.939 214.38 160.326C214.774 159.729 215.28 159.222 216.138 158.849C220.778 159.944 225.316 160.742 229.419 163.087C234.042 165.733 238.903 167.951 243.557 170.379C244.483 169.898 244.163 169.012 244.635 168.265C246.283 167.176 247.441 168.268 248.695 168.851C258.27 173.299 263.431 181.38 266.907 191.083C267.224 193.624 270.662 189.628 271.316 191.849C272.862 192.146 271.188 197.308 272.691 197.223C274.375 197.347 275.109 198.626 276.179 199.396C279.211 201.575 280.884 200.847 281.308 197.132C281.391 196.419 281.408 195.701 281.855 194.869C284.958 192.178 285.858 188.689 286.031 185.078C286.413 177.099 286.317 169.137 283.149 161.571C282.806 160.75 282.608 159.859 282.965 158.761C287.893 157.004 292.783 155.666 297.468 153.804C308.067 149.599 314.751 153.476 320.578 162.128C325.671 169.689 328.06 178.356 329.294 187.266C330.186 193.771 330.432 200.364 331.004 207.166Z" fill="#9F9B8D"/>
<path d="M245.074 168.019C244.899 169.383 244.842 170.591 244.777 171.969C235.525 167.082 226.775 161.706 216.515 159.219C216.546 157.589 216.102 156.407 214.859 155.232C211.374 151.95 208.911 147.927 207.011 143.538C203.371 135.132 201.018 126.369 199.735 117.317C199.362 114.674 199.826 111.986 199.557 109.14C199.835 104.304 200.29 99.7116 202.346 95.2353C203.187 93.5348 203.942 92.0436 205.415 91.0278C209.392 88.2775 212.815 88.4643 216.532 91.888C220.147 95.2183 222.384 99.4966 224.326 103.922C224.968 105.388 225.625 106.85 226.293 108.526C226.421 108.831 226.466 108.956 226.565 109.27C226.783 110.342 227.012 111.202 227.576 112.147C229.175 115.956 230.449 119.685 231.995 123.514C232.185 124.71 232.708 125.528 233.436 126.453C235.092 129.572 236.445 132.65 238.605 135.48C239.217 136.467 239.695 137.319 240.508 138.168C243.965 142.259 247.965 145.383 252.486 147.856C253.114 148.201 253.734 148.555 254.32 148.976C255.518 149.837 255.776 150.75 254.527 151.783C253.477 152.652 252.786 153.821 251.804 155C249.089 157.954 247.407 161.245 246.391 164.909C246.099 165.934 245.861 166.992 245.074 168.019Z" fill="#7C8C01"/>
<path d="M193.555 207.386C193.991 203.867 191.477 201.461 190.311 198.578C188.406 193.87 186.628 189.111 184.694 184.216C184.428 182.702 184.264 181.349 184.097 179.773C185.677 175.704 188.61 173.526 192.785 172.787C198.094 175.441 203.235 177.974 208.364 180.532C210.343 181.519 212.433 182.368 214.233 183.621C217.608 185.967 219.657 188.805 219.757 193.46C219.966 203.519 220.846 213.575 221.73 223.608C222.605 233.543 223.794 243.449 224.898 253.361C225.518 258.915 229.028 261.957 234.186 263.745C233.447 264.741 232.36 264.701 231.31 264.71C227.87 264.738 224.464 264.384 220.875 263.575C217.104 262.981 215.224 261.382 214.281 258.123C211.028 246.881 207.962 235.58 204.387 224.44C202.759 219.369 200.098 214.633 197.924 209.735C197.114 207.913 195.829 206.99 193.555 207.386Z" fill="#7B786D"/>
<path d="M244.163 87.126C251.385 92.5219 257.525 98.8939 263.077 105.914C272.261 117.526 278.865 130.469 283.709 144.373C284.822 147.565 285.717 150.833 286.506 154.104C284.842 154.132 283.508 154.856 281.861 154.884C277.164 155.663 273.274 157.567 270.132 161.206C268.702 162.867 268.487 164.929 267.527 166.712C265.152 166.126 264.147 164.222 263.049 162.595C261.995 161.036 260.939 160.246 258.912 161.163C256.967 160.826 256.036 159.632 255.461 157.855C255.747 154.712 255.481 151.789 254.83 148.979C253.941 145.137 253.565 141.221 252.945 137.35C250.482 121.929 248.673 106.387 243.563 91.5032C243.081 90.1055 242.626 88.5521 244.163 87.126Z" fill="#7C8C01"/>
<path d="M244.154 86.9615C244.607 89.6467 244.358 92.4734 245.21 94.9153C248.432 104.148 250.133 113.664 251.387 123.312C252.107 128.847 253.208 134.333 254.102 139.845C254.983 145.272 255.844 150.702 256.639 156.143C256.701 156.582 256.166 157.105 255.716 157.612C253.553 157.742 252.449 156.474 251.402 154.876C252.602 153.203 253.828 151.724 255.144 150.133C249.661 147.004 244.177 143.832 240.061 138.595C240.338 137.168 241.615 137.42 242.558 137.101C245.097 136.238 247.891 135.98 249.91 133.773C246.153 134.424 242.606 136.073 238.571 136.045C236.624 133.029 234.851 130.086 233.082 126.948C233.844 125.635 235.044 125.641 236.196 125.542C237.793 125.403 239.358 125.174 241.029 123.912C239.305 123.293 238.019 123.952 236.731 124.178C235.084 124.47 233.456 125.2 231.644 124.192C230.093 120.279 228.674 116.496 227.228 112.521C228.187 111.236 229.518 111.539 230.73 111.536C235.021 111.525 239.022 110.257 242.985 108.814C243.684 108.559 244.545 108.322 244.678 106.949C238.668 109.063 232.768 111.1 226.231 109.796C226.055 109.567 226.058 109.45 226.033 109.165C224.252 105.104 224.365 100.829 223.519 96.7544C222.757 93.0789 221.86 89.4713 220.541 85.9627C220.32 85.3713 220.175 84.7686 220.535 83.9565C221.557 83.2548 222.443 82.737 223.499 82.1768C224.6 82.2899 224.538 83.1586 224.773 83.7698C225.937 86.8002 228.25 88.3168 231.361 88.331C234.198 88.3451 236.227 86.8172 237.348 83.9311C237.564 83.5179 237.745 83.3284 238.161 83.1416C239.149 85.9683 241.813 86.0673 244.154 86.9615Z" fill="#F1EEE5"/>
<path d="M193.085 172.775C189.263 173.918 186.738 176.507 184.238 179.433C182.327 179.713 181.625 178.969 182.059 177.203C184.057 169.049 185.773 160.812 188.108 152.756C190.753 143.631 194.246 134.746 196.785 125.596C198.243 120.333 198.541 114.747 199.495 109.128C200.907 116.482 201.694 124.141 203.586 131.518C206.043 141.087 209.536 150.346 217.8 157.009C217.333 157.612 216.872 158.209 216.365 158.987C212.718 164.091 208.285 167.962 202.405 169.909C199.37 170.913 196.276 171.745 193.085 172.775Z" fill="#CCC7B5"/>
<path d="M224.026 72.2536C221.115 72.8252 219.303 71.8801 218.363 69.0874C218.086 68.264 216.985 67.5142 216.087 67.1435C213.33 66.0004 211.776 64.2461 212.053 61.0884C212.308 58.1626 210.369 55.2511 212.042 52.2744C212.585 51.3039 212.798 50.1466 213.225 48.8648C213.52 46.2362 215.238 44.68 216.719 43.0558C219.204 40.3282 221.948 37.8891 225.883 36.9582C228.892 35.7924 231.771 34.7682 234.503 33.4439C237.054 32.2074 239.222 32.4253 241.411 34.1853C241.954 34.621 243.056 34.9408 243.613 34.6861C248.398 32.4847 249.544 34.1542 250.917 37.244C254.136 36.6866 255.909 38.8738 255.492 42.705C254.929 47.8802 253.208 52.3763 248.372 55.319C246.26 54.8719 246.393 52.5432 244.981 51.6943C244.372 51.6349 244.015 51.9377 243.817 52.3366C242.572 54.8606 240.638 56.3348 237.767 56.5979C236.083 56.7535 235.46 58.1428 234.942 59.5067C234.41 60.9129 233.589 62.0193 232.136 62.5597C229.959 63.3718 228.269 62.571 227.559 60.3612C227.394 59.8519 227.312 59.3142 227.035 58.8474C226.087 57.2374 224.105 56.646 222.636 57.526C221.186 58.3946 220.744 61.1082 222.304 62.4975C225.486 65.3383 224.781 68.68 224.026 72.2536Z" fill="#111F22"/>
<path d="M223.892 72.6413C223.887 70.8615 223.844 69.3364 223.929 67.817C224.031 65.9806 223.907 64.5489 221.965 63.3746C220.079 62.2371 220.048 59.7613 220.968 58.0608C221.497 57.0874 223.663 56.2216 224.75 56.5243C226.086 56.8978 227.581 58.3607 228.054 59.6906C228.521 61.0035 228.847 62.339 230.208 62.1466C231.536 61.957 233.575 61.1251 233.841 60.1688C234.715 57.0252 236.505 55.6727 239.624 55.3275C240.584 55.2228 241.581 54.2211 242.291 53.3949C243.141 52.4102 243.701 51.1737 244.647 49.626C245.901 51.6151 246.965 53.3044 248.103 55.169C250.028 60.7771 250.586 66.19 248.245 71.6594C246.133 76.5913 244.194 77.5081 238.676 75.8188C236.765 76.8573 235.234 75.6208 233.626 75.4057C232.125 75.2048 230.746 74.5427 229.099 74.1296C228.702 73.9344 228.501 73.7901 228.193 73.5071C227.774 73.5071 228.034 72.8252 227.777 73.1591C228.065 73.3996 228.218 73.5609 228.493 73.8495C230.579 77.2817 233.818 79.3671 236.4 82.0806C236.887 82.5927 237.575 82.9238 237.869 83.8405C237.405 87.6236 233.64 89.2591 230.913 89.0836C227.015 88.8318 224.433 86.4041 223.748 82.3267C223.745 79.0558 223.827 75.9773 223.892 72.6413Z" fill="#A95138"/>
<path d="M213.256 48.1149C210.179 48.8138 207.235 49.7759 204.279 49.8042C200.101 49.8438 197.703 47.6339 199.866 42.8209C196.214 41.0892 195.922 39.5868 198.863 36.7346C200.783 34.8728 202.926 33.4354 202.544 30.0739C202.306 27.9829 205.018 26.5229 207.495 26.919C209.955 27.3123 212.274 27.7282 214.729 26.3899C215.64 25.8919 217.528 26.4748 218.613 27.1425C221.67 29.0298 223.895 31.6754 224.49 35.5971C224.345 36.0357 224.173 36.2706 223.915 36.3356C217.82 37.8749 214.409 41.8362 213.256 48.1149Z" fill="#111F22"/>
<path d="M269.523 161.257C272.125 159.16 274.593 157.143 277.237 155.391C278.288 154.695 279.734 154.596 281.207 154.223C282.339 154.936 282.798 155.858 282.619 157.236C282.636 157.757 282.71 158.085 282.939 158.498C286.407 167.173 287.613 176.089 286.806 185.226C286.481 188.898 285.966 192.704 282.336 195.188C280.524 194.011 280.929 192.028 280.465 190.375C278.823 184.535 276.269 179.227 271.924 174.889C271.544 174.51 271.247 174.063 271.012 173.356C271.103 171.29 270.953 169.369 271.819 167.626C272.665 165.92 272.345 164.556 270.871 163.362C270.251 162.858 269.645 162.287 269.523 161.257Z" fill="#A94F36"/>
<path d="M220.507 83.6567C221.412 86.2061 222.355 88.5942 222.862 91.0729C224.043 96.8791 225.014 102.731 226.036 108.78C223.859 104.839 221.721 100.676 219.561 96.5254C219.315 96.0557 218.938 95.6539 218.632 95.2125C213.681 88.0962 207.832 87.9746 202.586 94.972C203.158 89.9043 208.172 84.3952 213.174 83.2295C214.468 82.9295 215.745 82.5617 217.041 82.2731C218.4 81.9732 219.677 81.9817 220.507 83.6567Z" fill="#CCC7B5"/>
<path d="M238.014 83.8658C234.679 80.6911 231.415 77.3636 228.128 73.8465C228.105 73.6569 228.15 73.4164 228.272 73.3994C231.607 74.1606 234.823 74.9443 238.257 75.7649C238.407 78.0823 238.339 80.36 238.314 82.8783C238.266 83.3141 238.175 83.515 238.014 83.8658Z" fill="#111F22"/>
<path d="M213.149 48.3748C213.231 41.7141 218.066 36.2277 224.266 35.8457C224.971 36.0777 225.458 36.3522 226.007 36.7851C220.852 39.6514 216.328 43.1091 213.429 48.5672C213.29 48.6549 213.169 48.4795 213.149 48.3748Z" fill="#D8A525"/>
<path d="M282.727 157.362C282.203 156.485 281.849 155.537 281.453 154.408C282.945 154.103 284.479 153.984 286.155 154.007C285.167 155.195 284.032 156.245 282.727 157.362Z" fill="#1A204A"/>
<path d="M240.998 280.886C247.285 284.199 252.146 288.803 256.149 294.297C257.972 296.799 257.299 298.661 254.286 299.459C252.526 299.925 250.476 300.129 248.735 299.71C238.597 297.285 228.295 296.589 217.936 296.052C214.655 295.882 211.289 294.878 208.228 293.613C205.38 292.438 204.981 290.214 206.731 287.744C208.931 284.637 211.252 281.599 213.732 278.715C214.428 277.906 215.875 277.742 217.189 277.269C217.95 276.885 218.562 276.78 219.193 276.95C225.351 278.608 231.593 279.697 237.977 279.966C238.945 280.008 239.933 280.235 240.998 280.886Z" fill="#CDE801"/>
<path d="M314.63 263.735C320.881 266.041 325.945 269.739 330.469 274.162C333.071 276.706 332.426 278.74 328.847 279.603C326.693 280.124 324.445 280.37 322.228 280.486C314.899 280.874 307.561 281.473 300.237 281.352C295.132 281.267 289.983 280.424 284.975 279.363C282.011 278.734 281.691 276.174 283.537 273.622C285.292 271.191 286.894 268.644 288.46 266.087C289.363 264.612 290.158 263.141 292.406 263.186C293.329 262.762 294.116 262.453 294.92 262.62C301.366 263.942 307.903 263.478 314.63 263.735Z" fill="#CDE801"/>
<path d="M267.202 215.002C267.182 213.961 267.386 212.999 267.448 212.031C267.703 208.149 267.686 208.146 271.689 208.138C279.471 208.118 280.108 208.276 282.43 215.727C284.924 223.734 287.002 231.889 288.887 240.063C289.819 244.107 291.959 246.874 295.387 249.118C294.793 250.043 294 250.035 292.933 249.61C288.191 248.937 286.532 245.239 284.641 241.939C280.938 235.485 277.572 228.83 273.71 222.472C272.045 219.733 269.503 217.526 267.202 215.002Z" fill="#7B786D"/>
<path d="M241.17 280.811C233.277 280.585 225.421 279.77 217.613 277.291C218.485 272.787 219.572 268.316 220.659 263.636C225.031 263.599 229.399 263.769 234.03 263.927C236.977 264.42 239.658 264.923 242.549 265.481C242.283 268.211 242.09 270.979 241.255 273.536C240.457 275.978 239.902 278.228 241.17 280.811Z" fill="#994437"/>
<path d="M292.715 249.73C293.468 249.444 294.226 249.402 295.209 249.328C296.876 249.665 298.303 250.276 299.761 250.361C304.356 250.624 308.962 250.692 313.794 250.811C314.095 253.171 314.106 255.559 314.25 257.938C314.361 259.78 314.632 261.611 314.839 263.657C308.829 263.81 302.81 263.776 296.794 263.682C295.56 263.662 294.328 263.419 292.851 263.227C292.644 258.77 292.681 254.37 292.715 249.73Z" fill="#994437"/>
<path d="M271.213 172.916C277.456 179.034 280.765 186.41 282.113 195.026C282.141 195.878 282.266 196.546 282.07 197.1C281.575 198.504 281.269 200.561 280.267 201.033C279.214 201.526 277.354 200.663 276.003 200.046C274.936 199.559 274.107 198.546 272.991 197.711C270.211 196.226 268.637 193.742 266.514 191.557C264.201 187.188 262.358 182.729 259.787 178.734C256.398 173.471 250.963 170.61 245.156 168.174C245.782 163.186 247.537 158.624 251.215 154.773C252.676 155.611 253.975 156.542 255.396 157.552C256.526 158.647 257.531 159.657 258.726 160.704C263.541 164.182 267.417 168.4 271.213 172.916Z" fill="#994435"/>
<path d="M234.667 221.404C235.214 212.916 235.757 204.673 236.304 196.428C236.338 195.896 236.241 195.248 236.51 194.869C236.878 194.354 237.538 194.045 238.07 193.646C238.373 194.139 238.948 194.64 238.934 195.123C238.871 197.161 238.591 199.19 238.467 201.227C238.076 207.613 237.779 214.008 237.323 220.388C237.122 223.215 236.669 226.025 236.216 228.826C236.148 229.245 235.463 229.564 235.064 229.929C234.755 229.471 234.172 229.001 234.186 228.554C234.26 226.251 234.489 223.951 234.667 221.404Z" fill="#CDE801"/>
<path d="M300.899 193.844C299.846 191.006 298.751 188.397 297.884 185.718C297.675 185.07 298.238 184.175 298.448 183.395C299.025 183.799 299.911 184.079 300.135 184.628C303.345 192.486 306.499 200.372 309.559 208.291C309.843 209.024 309.392 210.037 309.285 210.92C308.597 210.281 307.617 209.768 307.266 208.979C305.078 204.036 303.031 199.03 300.899 193.844Z" fill="#CDE801"/>
<path d="M318.562 186.423C318.457 187.419 318.265 188.222 318.075 189.026C317.404 188.417 316.436 187.934 316.113 187.175C314.97 184.498 314.194 181.66 313.002 179.006C311.513 175.69 309.678 172.53 308.158 169.225C307.753 168.348 307.951 167.193 307.875 166.166C308.727 166.777 309.984 167.202 310.369 168.031C313.172 174.052 315.799 180.155 318.562 186.423Z" fill="#CDE801"/>
<path d="M255.668 234.44C255.249 236.93 254.932 239.213 254.357 241.428C254.221 241.955 253.228 242.258 252.63 242.665C252.463 242.045 252.064 241.386 252.163 240.814C252.95 236.282 253.825 231.76 254.691 227.241C254.79 226.721 254.878 226.098 255.206 225.744C255.623 225.297 256.282 225.077 256.837 224.76C257.1 225.345 257.675 225.993 257.57 226.506C257.038 229.092 256.325 231.644 255.668 234.44Z" fill="#CDE801"/>
<path d="M322.022 205.073C321.903 204.309 321.733 203.743 321.855 203.251C322.041 202.49 322.426 201.78 322.729 201.047C323.315 201.785 324.383 202.507 324.414 203.268C324.581 207.456 324.558 211.658 324.442 215.848C324.419 216.629 323.672 217.39 323.262 218.16C322.874 218.095 322.489 218.03 322.101 217.965C322.098 213.743 322.098 209.524 322.022 205.073Z" fill="#CDE801"/>
<path d="M253.352 197.152C254.213 198.225 255.518 199.419 255.515 200.613C255.507 203.615 254.983 206.626 254.482 209.602C254.391 210.143 253.42 210.533 252.857 210.994C252.574 210.505 252.033 210.007 252.053 209.531C252.208 205.652 252.463 201.776 252.721 197.899C252.729 197.684 253.032 197.483 253.352 197.152Z" fill="#CDE801"/>
<path d="M314.816 231.505C314.627 233.07 314.55 234.417 314.191 235.682C314.063 236.131 313.251 236.389 312.753 236.737C312.492 236.194 312.002 235.648 312.008 235.104C312.028 232.201 312.11 229.295 312.322 226.401C312.368 225.801 313.07 225.249 313.466 224.672C313.916 225.173 314.703 225.64 314.757 226.18C314.927 227.858 314.819 229.561 314.816 231.505Z" fill="#CDE801"/>
<path d="M226.058 109.872C232.819 109.827 239.333 108.661 245.474 105.591C246.493 107.583 245.717 108.386 244.177 109.082C238.925 111.454 233.447 112.551 227.446 112.305C226.82 111.572 226.441 110.814 226.058 109.872Z" fill="#254147"/>
<path d="M238.43 136.145C241.938 134.894 245.462 133.748 249.035 132.792C249.689 132.616 250.55 133.213 251.314 133.454C250.898 134.045 250.598 134.979 250.046 135.168C246.793 136.272 243.483 137.2 240.046 138.337C239.424 137.763 238.942 137.039 238.43 136.145Z" fill="#254147"/>
<path d="M231.508 124.244C234.37 123.618 237.227 123.123 240.1 122.775C240.746 122.696 241.453 123.134 242.13 123.333C241.663 123.952 241.303 124.957 240.712 125.121C238.348 125.772 235.913 126.159 233.294 126.697C232.558 125.978 232.035 125.203 231.508 124.244Z" fill="#254147"/>
<path d="M271.391 172.939C267.151 169.093 263.057 165.087 258.938 160.908C259.713 160.364 260.515 159.994 261.438 159.566C263.272 161.844 265.129 164.15 266.984 166.451C267.799 164.572 268.521 162.911 269.415 161.159C269.82 161.332 270.01 161.643 270.284 161.844C272.83 163.7 273.976 165.774 272.085 168.89C271.462 169.917 271.697 171.465 271.391 172.939Z" fill="#9F9B8D"/>
<path d="M227.723 73.1283C227.918 73.0038 228.08 73.0802 228.317 73.2669C228.394 73.3801 228.249 73.5187 228.179 73.5867C227.966 73.547 227.828 73.4367 227.723 73.1283Z" fill="#1A204A"/>
<path d="M227.655 73.0291C227.561 72.9471 227.505 72.8339 227.448 72.7207C227.522 72.732 227.598 72.7405 227.714 72.8395C227.757 72.9273 227.689 72.998 227.655 73.0291Z" fill="#1A204A"/>
<ellipse cx="1.17571" cy="1.37103" rx="1.17571" ry="1.37103" transform="matrix(0.965856 0.259081 -0.259338 0.965787 240.633 56.4219)" fill="#111F22"/>
<ellipse cx="1.17571" cy="1.37103" rx="1.17571" ry="1.37103" transform="matrix(0.965856 0.259081 -0.259338 0.965787 245.302 56.2842)" fill="#111F22"/>
<path d="M246.374 64.5728C246.167 65.1907 245.686 65.6804 245.12 65.5718C244.553 65.4633 244.197 64.8401 244.324 64.1798C244.45 63.5196 246.029 62.928 246.595 63.0365C247.161 63.145 246.582 63.955 246.374 64.5728Z" fill="#111F22"/>
</g>
<defs>
<clipPath id="clip0_111_24778">
<rect width="370" height="420" fill="white" transform="translate(17 -19)"/>
</clipPath>
</defs>
</svg>
