<svg width="246" height="165" viewBox="0 0 246 165" fill="none" xmlns="http://www.w3.org/2000/svg">
<path d="M123.657 242.032C127.426 239.901 130.677 237.565 133.468 234.569C136.898 230.891 139.381 226.587 141.268 222.038C143.407 216.886 144.921 211.471 146.709 206.177C146.791 205.937 146.936 205.714 147.052 205.483C147.292 205.676 147.571 205.834 147.764 206.07C152.091 211.343 156.336 216.676 160.744 221.88C164.633 226.471 168.852 230.711 174.319 233.51C177.814 235.302 181.493 236.193 185.661 236.391C192.118 238.221 203.203 230.891 202.667 224.345C202.933 221.348 203.344 218.575 203.696 215.797C204.236 211.532 202.663 207.703 200.639 204.201C195.176 194.753 188.924 185.806 182.509 176.98C178.997 172.149 175.576 167.253 172.034 162.448C167.043 155.683 160.392 150.903 153.055 147.041C144.968 142.784 136.8 138.669 128.666 134.506C127.842 134.086 126.98 133.739 125.913 133.229C125.162 133.696 125.068 134.425 125.184 135.149C125.818 139.11 125.544 143.007 124.519 147.122C125.261 149.626 127.01 151.195 128.352 153.021C129.716 154.882 130.942 156.785 131.766 159.19C132.456 159.936 133.151 160.279 133.995 160.806C138.369 163.451 143.064 165.153 146.533 168.826C147.545 169.898 148.48 171 149.411 172.419C151.808 175.505 151.46 179.008 151.362 182.261C151.22 186.934 151.563 191.692 150.195 196.275C150.105 196.571 149.968 196.854 149.917 197.162C149.929 196.871 150.067 196.609 150.127 196.331C151.52 190.153 151.482 183.907 151.169 177.627C151.087 175.985 150.778 174.537 149.771 172.98C146.13 166.893 140.161 164.214 134.287 161.037C133.558 160.39 132.773 160.236 132.074 159.541C127.988 160.815 124.974 159.306 122.319 156.506C120.801 154.907 119.451 153.141 117.517 151.628C107.925 151.817 100.344 147.273 92.9255 142.368C88.2817 139.299 87.75 139.243 84.0624 143.462C81.6997 146.162 79.7401 149.18 78.1236 152.374C76.0353 156.502 72.9394 158.448 68.1755 158.873C62.1253 159.408 56.0364 159.61 49.8446 160.673C53.1763 164.896 57.8845 167.198 62.464 169.658C64.7195 170.867 67.065 171.904 69.4019 173.242C73.3982 175.531 77.6948 176.839 81.8498 179.068C87.467 182.047 93.2771 184.023 98.7014 186.835C103.319 189.232 104.584 192.185 103.388 197.201C101.879 203.554 99.7562 209.74 98.2683 216.088C96.1329 225.189 96.1715 233.917 103.988 241.063C110.463 244.368 116.869 244.784 123.657 242.032Z" fill="#37484A"/>
<path d="M125.102 148.332C125.218 147.474 125.059 146.763 125.308 146.24C127.251 142.112 126.573 137.928 125.694 133.409C122.585 127.446 118.297 122.74 113.834 117.917C113.371 117.231 113.049 116.695 112.624 116.009C112.243 115.624 111.904 115.478 111.57 115.058C111.621 114.646 110.978 114.856 111.325 114.668C111.651 115.233 112.033 115.508 112.534 115.924C112.852 116.382 113.096 116.657 113.636 116.824C117.611 118.29 121.419 118.573 125.501 117.964C131.17 117.12 136.367 115.161 141.345 112.516C144.673 110.745 147.605 108.417 149.604 105.104C150.907 102.943 151.73 100.705 151.816 98.0948C151.975 93.195 150.856 88.531 149.621 83.8884C148.339 79.0787 146.997 74.2689 145.359 69.5706C143.326 63.7534 141.354 57.8505 136.517 53.5251C134.347 51.5875 132.105 50.0571 128.751 50.4986C125.081 49.5427 121.483 50.9916 119.318 54.0609C118.396 55.3641 118.109 56.9288 117.23 58.5063C116.046 63.8005 117.204 68.7989 117.637 73.8145C117.727 74.8605 118.027 75.8936 117.847 76.9524C117.517 78.89 116.406 79.6659 114.464 79.2072C110.172 78.1913 101.502 68.6746 100.991 64.4178C100.914 63.7748 100.906 63.1061 101.206 62.5574C103.465 58.3863 101.797 55.5442 97.9854 53.1865C95.3698 51.7847 93.2515 50.0142 90.563 48.7968C86.6052 47.1678 85.2631 48.0337 84.294 51.4074C84.1783 51.8104 84.0153 52.1962 83.8266 52.8306C84.7957 56.4187 88.076 57.4046 90.4215 59.3508C91.3606 60.131 92.4969 60.7183 93.5774 61.3356C92.4368 60.8083 91.4377 60.041 90.3658 59.398C87.9302 57.9405 85.902 55.9429 83.4236 54.1981C78.2695 54.8626 74.9849 58.082 72.1506 61.7815C66.602 69.0218 62.1211 76.9438 58.1247 85.1145C54.2227 93.1007 50.3335 101.108 46.916 109.305C43.8973 116.554 41.4532 124.047 38.9233 131.489C37.1867 136.595 35.6431 141.769 34.2023 146.964C33.4819 149.562 32.9974 152.258 32.7444 154.942C32.4914 157.651 33.6234 159.049 36.342 159.435C40.5871 160.035 44.8707 160.378 49.4159 160.836C54.4157 160.622 59.141 160.433 63.862 160.163C66.3704 160.018 68.9218 159.949 71.3659 159.443C73.6042 158.98 75.701 157.943 77.0088 155.838C79.097 152.486 81.0909 149.069 83.325 145.82C84.4998 144.114 86.0778 142.677 87.5314 141.173C88.2947 140.384 88.8521 140.56 89.8726 141.28C95.73 145.4 101.759 149.288 108.714 151.362C111.411 152.168 114.181 152.661 117.251 151.984C120.879 152.794 122.92 150.621 125.102 148.332Z" fill="#B2D1D7"/>
<path d="M44.9392 173.649C43.2412 173.482 41.7575 173.319 40.2953 173.431C33.0058 173.992 25.5448 167.36 23.671 161.835C22.5604 158.56 21.7586 155.259 21.2354 151.855C20.9224 149.797 20.4207 147.765 19.9534 145.738C19.3187 142.994 18.5941 140.272 17.9852 137.52C17.625 135.891 17.4192 134.228 17.2434 132.204C17.2091 131.523 16.9904 131.296 16.4587 131.068C14.2761 130.846 12.3251 130.545 10.164 130.893C9.98391 131.776 9.87669 132.539 10.0353 133.238C11.1759 138.223 12.428 143.187 13.5343 148.181C14.5034 152.562 15.078 157.042 16.3129 161.342C17.0976 164.068 18.414 166.82 20.1335 169.067C23.5595 173.546 27.7531 177.203 33.4775 178.626C34.8711 178.973 36.7707 179.252 37.3838 180.225C38.0056 181.207 37.3195 183.011 37.2037 184.456C36.775 189.913 36.3719 195.375 35.9045 200.827C35.3128 207.751 34.5838 214.661 34.0607 221.588C33.5075 228.936 33.1473 236.301 32.6542 243.657C32.5127 245.757 32.1697 247.845 31.9982 249.945C31.578 254.982 31.1963 260.019 30.8276 265.056C30.7933 265.524 30.9862 266.004 31.072 266.48C31.5394 266.261 32.1054 266.145 32.4527 265.802C33.0316 265.236 33.5762 264.585 33.9535 263.873C35.2742 261.383 36.1704 258.763 36.5263 255.925C37.1223 251.141 38.0227 246.392 38.5759 241.603C39.262 235.653 39.7251 229.673 40.2911 223.706C40.4583 221.927 40.677 220.157 40.8399 218.378C41.5088 211.154 42.152 203.922 42.8338 196.699C42.9839 195.13 43.3098 193.574 43.4641 192.005C43.7128 189.493 43.8329 186.972 44.1073 184.465C44.2574 183.119 44.6133 181.798 45.0893 180.328C47.3147 177.387 47.2847 176.007 44.9392 173.649Z" fill="#6D4F2C"/>
<path d="M89.8254 19.1705C89.7654 11.2014 85.3703 4.42397 77.7935 1.53039C76.1683 0.908801 74.2817 0.69018 72.5322 0.745909C65.3284 0.964535 59.797 4.03388 56.5725 10.687C53.2279 17.5973 54.7758 24.8334 59.7584 30.059C64.0678 34.5815 69.625 36.2748 75.7481 35.2631C78.3595 34.8302 80.8722 33.5956 83.1105 31.6794C87.6815 28.7301 89.5038 24.409 89.8254 19.1705Z" fill="#37484A"/>
<path d="M16.8105 131.441C17.1407 131.656 17.235 131.746 17.3293 131.84C19.4433 135.355 21.5744 136.534 24.6274 135.865C28.2722 135.068 30.5276 131.861 30.0259 127.892C29.7129 125.41 29.3141 122.898 28.5809 120.514C26.2054 112.794 23.8427 105.06 21.1156 97.4641C19.4133 92.7144 17.0635 88.1961 15.0053 83.5749C13.6632 80.557 10.9403 79.3181 8.05452 78.5337C5.83337 77.9292 4.02386 79.1853 2.35156 80.8357C1.3439 82.799 1.21525 84.6723 1.80699 86.5285C6.2836 100.533 10.7688 114.538 15.1339 128.578C15.4426 129.572 15.6828 130.618 16.8105 131.441Z" fill="#1A2223"/>
<path d="M89.9585 19.0547C89.0151 21.0052 88.3162 23.02 87.703 25.0605C86.944 27.6026 84.9073 29.2187 83.3465 31.4349C82.8276 36.5491 85.3447 39.8585 89.028 42.5334C90.0185 43.2536 91.0991 43.8495 92.2697 44.6854C96.4075 42.8764 97.0765 40.2014 94.3836 36.9649C93.5689 35.9875 92.6556 34.9973 93.526 33.6126C94.478 32.108 95.7129 32.8925 97.115 33.3126C97.4967 33.3426 97.651 33.334 98.0284 33.2568C98.5215 33.0168 98.8731 32.811 98.8988 32.5324C99.2076 29.4759 100.674 27.2768 103.526 26.0207C103.894 25.8578 104.074 25.3991 104.315 24.7861C104.778 21.9869 102.925 20.8766 101.073 20.3193C97.5739 19.269 93.972 18.4331 89.9585 19.0547Z" fill="#37484A"/>
<path d="M16.7202 131.635C16.0084 127.802 14.379 124.231 13.5643 120.36C12.8439 116.952 11.416 113.694 10.3355 110.359C8.90329 105.944 7.49686 101.516 6.08613 97.0917C5.4901 95.2269 5.11277 93.2593 4.26804 91.5146C3.40617 89.7355 3.59911 87.7122 2.43279 85.9417C1.75101 84.9086 2.29557 83.0696 2.28699 81.312C0.438889 82.7352 0.00154114 85.0158 0.220226 87.2964C0.460352 89.7741 1.15928 92.209 1.66526 94.6611C2.29559 97.7218 2.92592 100.778 3.56911 103.835C3.9979 105.871 4.40953 107.912 4.89836 109.935C6.05182 114.689 7.26102 119.43 8.41448 124.188C8.92903 126.315 9.35781 128.458 9.89809 130.82C12.115 131.257 14.2675 131.472 16.7202 131.635Z" fill="#6D4F2C"/>
<path d="M117.526 58.9778C118.113 58.4162 118.615 57.8332 118.786 57.1645C119.507 54.3223 121.046 52.2989 123.992 51.553C125.3 51.2187 126.616 50.9015 128.207 50.5285C129.553 51.9517 127.212 48.9896 128.207 50.5285C128.82 52.5004 126.852 49.0967 128.207 50.5285C127.671 48.8009 126.076 45.6246 123.641 45.3203C121.334 45.6503 118.4 42.6624 117.526 44.2486C114.619 42.7482 110.884 41.3805 109.143 40.4331C108.615 40.0087 108.216 39.8073 107.56 39.6058C107.174 39.5715 107.016 39.5886 106.638 39.6872C102.831 42.9323 102.921 44.1112 107.17 47.1891C109.919 48.4365 112.161 50.4856 115.476 49.8555C115.862 49.684 116.029 49.5683 116.183 49.4354C116.338 49.3025 116.488 49.1696 116.642 49.0367C116.779 49.2896 116.767 49.3668 116.621 49.2596C116.462 49.1439 116.325 49.1996 116.025 49.5854C113.336 51.9689 113.096 53.4307 114.97 56.0585C115.677 57.0487 116.213 58.2104 117.526 58.9778Z" fill="#298393"/>
<path d="M107.539 47.0048C107.162 46.4003 106.887 45.9459 106.493 45.6759C103.761 43.7983 103.71 43.5282 105.79 41.0761C106.051 40.7675 106.368 40.4974 106.664 39.8158C106.587 39.3143 106.506 39.2028 106.261 38.967C105.978 38.7656 105.858 38.697 105.545 38.5341C103.796 37.6467 102.248 36.8408 100.648 35.7091C100.395 35.4819 100.292 35.3919 100.027 35.1904C99.5335 34.8817 99.1862 34.7103 98.7273 34.3759C98.5087 34.1573 98.4229 34.063 98.2128 33.8272C97.9169 33.4971 97.7368 33.3213 97.4195 33.0127C96.2189 32.3611 95.3699 31.1222 93.9377 31.7952C92.334 32.5497 91.7166 34.4059 92.5956 35.9706C92.9901 36.6736 93.5089 37.3424 94.0964 37.8911C96.1246 39.7773 96.1589 39.7644 94.7095 41.9549C94.0878 42.898 93.3974 43.794 92.5656 44.7928C91.7423 46.036 91.0948 47.1977 90.3787 48.5866C92.1882 50.6485 94.285 52.1618 96.965 53.152C99.9323 51.0387 103.05 49.6412 106.33 48.5695C106.952 48.3594 107.398 47.8921 107.539 47.0048Z" fill="#B97A5C"/>
<path d="M104.567 24.6875C103.032 25.2576 102.14 26.8009 100.288 26.668C99.9493 26.6423 99.3447 27.4996 99.2117 28.0398C98.8301 29.553 98.6286 31.1091 98.144 32.7638C97.6809 33.1153 97.5866 33.3983 97.7881 33.9341C97.9211 34.1313 97.9125 34.1313 97.9082 34.1227C98.3198 34.6757 99.0488 34.7315 99.7006 35.2802C99.8378 35.4216 99.8206 35.4045 99.812 35.3959C101.759 36.5405 103.59 37.938 106.09 38.5167C109.113 37.3935 109.417 39.2541 108.306 37.3079C108.019 36.9864 107.745 36.8492 107.762 36.6306C107.792 36.2105 107.59 36.6949 108.169 36.6906C108.714 36.6992 109.005 36.4934 109.31 36.0261C107.38 33.6684 107.097 30.1617 106.39 29.0643C105.875 28.91 105.596 29.3172 105.266 29.0429C105.451 29.0086 105.614 28.9271 105.892 28.6914C105.596 27.3153 105.172 26.0636 104.567 24.6875Z" fill="#B97A5C"/>
<path d="M98.3757 33.8828C97.3165 34.8388 96.4932 35.8547 95.5585 37.0422C95.3784 37.3594 99.9579 40.9301 99.9836 41.2859C101.497 42.6319 102.775 44.0251 104.975 43.9823C105.669 42.3533 106.111 40.8143 107.595 39.6441C106.21 38.761 100.087 34.6373 98.3757 33.8828Z" fill="#30555C"/>
<path d="M83.2391 53.988C85.5803 56.1099 87.9215 58.1376 90.3656 60.0324C91.5062 60.9154 92.8312 61.5542 94.1004 62.2572C94.2248 62.3258 94.5892 62.12 94.7265 61.9485C94.8122 61.8414 94.7565 61.477 94.6407 61.3698C94.3448 61.1126 93.9804 60.9283 93.6416 60.7268C90.1727 58.6434 86.8066 56.4229 83.878 53.2764C83.6035 53.3278 83.4449 53.5807 83.2391 53.988Z" fill="#373C53"/>
<path d="M106.068 28.6658C105.361 28.7515 104.679 28.893 104.04 29.1416C103.89 29.2016 103.886 29.6217 103.813 29.8789C104.074 29.8704 104.349 29.9047 104.597 29.8446C105.086 29.7246 105.562 29.5531 106.12 29.1802C106.188 28.9659 106.111 28.7644 106.068 28.6658Z" fill="#37484A"/>
<path d="M112.633 115.945C112.809 116.395 113.092 116.991 113.568 117.655C113.769 117.578 113.774 117.432 113.799 117.059C113.461 116.583 113.1 116.335 112.633 115.945Z" fill="#F0EDE7"/>
<path d="M125.385 148.169C123.271 149.266 121.363 150.454 119.421 151.581C119.009 151.821 118.465 151.83 117.731 151.975C119.759 154.475 121.873 157.128 124.365 159.366C126.663 161.436 129.502 161.321 131.942 159.623C132.293 157.741 131.607 156.099 130.552 154.646C128.961 152.464 127.242 150.372 125.385 148.169Z" fill="#B97A5C"/>
<path d="M149.458 172.029C148.343 168.582 145.384 166.837 142.679 165.016C140.153 163.314 137.263 162.156 134.218 160.866C134.639 162.568 136.427 162.551 137.657 163.395C140.119 165.084 142.747 166.537 145.131 168.321C146.525 169.362 147.571 170.863 148.978 172.205C149.179 172.247 149.359 172.097 149.458 172.029Z" fill="#DEE7F9"/>
<path d="M134.017 160.815C133.554 160.433 133.048 160.099 132.345 159.692C132.152 159.619 132.13 159.559 132.16 159.572C132.628 160.043 133.061 160.498 133.7 160.965C133.897 160.969 133.974 160.862 134.017 160.815Z" fill="#DEE7F9"/>
<path d="M107.715 46.7815C106.45 48.7363 104.207 48.3805 102.573 49.0749C100.49 49.9623 98.6929 50.914 97.2993 52.9631C97.8996 53.8633 98.5385 54.652 99.3275 55.2522C101.733 57.0784 102.466 58.3087 100.953 60.7693C99.3018 63.4442 100.065 65.712 101.3 67.7953C104.049 72.4294 107.612 76.4161 112.307 79.2239C113.846 80.1456 115.587 81.1315 117.307 80.0941C119.232 78.9367 118.936 76.7933 118.666 74.9286C117.933 69.823 117.324 64.7174 117.74 59.2904C117.135 57.9657 116.586 56.8383 115.866 55.8352C113.782 52.9245 113.795 52.4658 116.282 49.5893C112.963 50.0309 110.588 47.9389 107.715 46.7815Z" fill="#FCFCFC"/>
<path d="M104.657 107.311C104.422 105.009 104.023 102.763 103.487 100.551C102.342 95.8141 101.068 91.1072 99.9622 86.3575C99.3533 83.7339 98.9888 81.0504 98.4957 78.4012C98.4185 77.9982 98.2684 77.6039 98.0926 77.2352C98.0155 77.0723 97.7882 76.978 97.6295 76.8494C97.5009 77.0637 97.2436 77.2866 97.2608 77.4881C97.3765 78.727 97.4709 79.9787 97.7196 81.1919C98.8302 86.5761 99.9536 91.956 101.141 97.3231C101.789 100.255 102.544 103.166 103.337 106.064C103.478 106.565 104.061 106.943 104.657 107.311Z" fill="#373C53"/>
<path d="M49.2102 143.144C48.8757 144.07 48.6055 144.765 48.3354 145.463C49.0129 144.928 49.9391 144.538 50.3379 143.839C54.1413 137.194 57.8632 130.503 61.5637 123.798C61.7567 123.447 61.5251 122.864 61.4908 122.388C61.1392 122.658 60.6632 122.851 60.4574 123.206C57.9361 127.6 55.462 132.02 52.9664 136.427C51.74 138.6 50.5008 140.757 49.2102 143.144Z" fill="#373C53"/>
<path d="M105.073 107.242C104.88 107.242 104.885 107.29 104.872 107.302C105.163 107.804 105.464 108.288 105.952 108.829C105.845 108.336 105.554 107.791 105.073 107.242Z" fill="#F0EDE7"/>
<path d="M106.171 108.855C106.497 109.391 106.81 109.939 107.256 110.651C107.11 110.201 106.831 109.583 106.343 108.928C106.137 108.885 106.158 108.863 106.171 108.855Z" fill="#F0EDE7"/>
<path d="M112.492 115.837C112.148 115.516 111.814 115.182 111.368 114.693C111.531 114.993 111.81 115.447 112.307 115.85C112.526 115.799 112.5 115.82 112.492 115.837Z" fill="#F0EDE7"/>
<path d="M109.121 112.623C109.177 112.361 109.048 112.027 108.825 111.534C108.8 111.761 108.868 112.156 109.121 112.623Z" fill="#F0EDE7"/>
<path d="M108.692 111.401C108.379 111.165 108.075 110.916 107.577 110.741C107.385 110.814 107.406 110.788 107.415 110.775C107.715 110.985 108.011 111.208 108.512 111.397C108.727 111.367 108.701 111.388 108.692 111.401Z" fill="#F0EDE7"/>
<path d="M109.331 112.657C109.46 112.802 109.576 112.961 109.696 113.12C109.674 112.987 109.653 112.854 109.464 112.708C109.297 112.687 109.323 112.67 109.331 112.657Z" fill="#F0EDE7"/>
<path d="M111.218 114.577C111.059 114.449 110.914 114.307 110.763 114.166C110.806 114.307 110.845 114.444 111.068 114.564C111.252 114.539 111.231 114.564 111.218 114.577Z" fill="#F0EDE7"/>
<path d="M97.7196 34.08C97.9169 33.8528 97.9169 33.5742 97.9211 33.0855C97.8182 32.8711 97.7153 32.8668 97.4495 32.8625C97.368 33.2569 97.4452 33.647 97.7196 34.08Z" fill="#5C405B"/>
<path d="M108.621 39.1373C107.83 39.0173 107.247 38.769 106.415 38.5567C106.167 38.5854 106.006 38.3228 105.942 38.1821C106.868 38.0504 107.854 38.0621 109.098 37.9587C109.181 38.2361 109.003 38.6239 108.621 39.1373Z" fill="#37484A"/>
<path d="M116.376 49.4353C116.771 49.3282 117.101 49.1438 117.436 48.9638C117.088 48.9295 116.737 48.8995 116.291 49.0452C116.192 49.2253 116.316 49.3668 116.376 49.4353Z" fill="#FCFCFC"/>
<path d="M105.939 39.2071C106.171 38.9371 106.162 38.6627 106.111 38.1912C104.709 37.3167 103.354 36.6308 101.982 35.9835C101.437 35.7263 100.854 35.5634 100.044 35.3748C99.8635 35.6877 99.8335 36.1635 100.009 36.2578C101.887 37.2738 103.8 38.2298 105.939 39.2071Z" fill="#111F22"/>
<path d="M99.6018 35.4263C99.932 34.3375 99.246 34.1102 98.1397 34.106C97.861 35.1476 98.4956 35.4263 99.6018 35.4263Z" fill="#111F22"/>
<path d="M95.2627 35.5202C95.1126 35.0315 94.7867 34.6928 94.4651 34.3499C94.4308 34.6585 94.3923 34.9714 94.5338 35.3444C94.8339 35.4987 94.9625 35.5845 95.2627 35.5202Z" fill="#5C405B"/>
<path d="M95.6055 35.4519C95.3182 35.3833 95.1982 35.3919 94.8937 35.4091C94.958 35.6363 95.2067 35.8635 95.4511 36.0864C95.5583 35.8978 95.6655 35.7134 95.6055 35.4519Z" fill="#373C53"/>
<path d="M106.638 39.7944C106.711 39.6186 106.613 39.4214 106.338 39.1985C106.261 39.3742 106.364 39.5714 106.638 39.7944Z" fill="#5C405B"/>
<path d="M105.957 32.9268C106.188 32.9782 106.454 32.8925 106.591 32.8582C106.446 32.4166 106.201 31.9665 105.849 31.6364C105.781 31.5721 105.288 31.9494 104.992 32.1251C105.236 32.3738 105.481 32.6267 105.957 32.9268Z" fill="#111F22"/>
<path d="M121.043 47.7772C121.602 47.403 123.607 46.218 124.54 45.6723C123.374 45.1265 120.81 43.2399 118.012 42.8656C114.515 42.3979 112.417 41.9301 109.853 40.0591C107.289 38.188 106.123 40.2929 104.724 41.9301C103.326 43.5673 105.89 46.6078 107.522 47.7772C108.827 48.7128 114.282 49.8822 116.847 50.35C118.012 49.6483 120.483 48.1514 121.043 47.7772Z" fill="#B97A5C"/>
</svg>
