<svg width="536" height="178" viewBox="0 0 536 178" fill="none" xmlns="http://www.w3.org/2000/svg">
<path fill-rule="evenodd" clip-rule="evenodd" d="M1.28648 253.582C1.4326 254.068 1.94502 254.344 2.43102 254.197C22.3762 248.195 38.3347 234.926 52.5834 220.26C59.2927 213.355 62.3831 208.365 66.0508 200.241C66.0651 200.257 66.0798 200.273 66.0949 200.289C66.2624 200.473 66.4485 200.705 66.6561 200.978C66.7882 201.151 66.9323 201.346 67.0833 201.55C67.3815 201.953 67.707 202.393 68.0216 202.779C68.4899 203.354 69.0616 203.976 69.696 204.314C77.0642 208.235 82.8707 209.083 91.3656 208.484C108.044 207.309 124.344 199.472 137.678 190.005C141.501 187.29 145.879 183.969 150.28 180.187C152.888 184.535 156.767 187.892 161.22 190.339C167.752 193.928 175.57 195.594 182.622 195.593C195.862 195.591 206.793 190.847 216.758 184.235C223.492 179.767 229.847 174.396 236.174 169.05C239.163 166.525 242.146 164.004 245.159 161.587C247.043 160.075 248.945 158.584 250.852 157.09L250.862 157.082C252.771 155.586 254.684 154.086 256.581 152.563C257.22 152.051 257.971 151.267 258.706 150.484C258.841 150.339 258.977 150.194 259.112 150.049C259.732 149.385 260.346 148.727 260.926 148.166C261.579 147.534 262.083 147.135 262.418 146.965C264.117 154.634 270.487 158.115 277.641 159.481C284.808 160.85 293.036 160.17 299.004 159.322C327.969 155.206 346.764 134.632 363.392 113.017C363.701 112.615 363.626 112.038 363.224 111.729C362.822 111.42 362.245 111.495 361.935 111.897C345.317 133.499 326.917 153.499 298.746 157.502C292.83 158.343 284.847 158.987 277.987 157.676C271.125 156.365 265.661 153.171 264.206 146.538C264.102 146.065 263.875 145.541 263.364 145.248C262.842 144.948 262.293 145.043 261.905 145.186C261.167 145.46 260.365 146.153 259.649 146.845C259.032 147.442 258.377 148.143 257.757 148.808C257.624 148.95 257.494 149.09 257.365 149.227C256.613 150.03 255.951 150.713 255.431 151.13C253.544 152.645 251.639 154.138 249.728 155.636L249.717 155.645C247.812 157.138 245.902 158.635 244.009 160.154C240.915 162.636 237.891 165.192 234.882 167.735C228.602 173.043 222.388 178.294 215.742 182.704C205.963 189.193 195.384 193.753 182.622 193.755C175.831 193.756 168.326 192.147 162.105 188.728C157.781 186.352 154.103 183.119 151.69 178.96C155.111 175.944 158.512 172.659 161.642 169.174C169.209 160.748 175.302 151.035 176.139 141.034C176.354 138.466 175.919 136.523 174.901 135.182C173.867 133.82 172.352 133.236 170.764 133.146C167.662 132.969 163.977 134.635 161.601 136.601C151.539 144.919 144.357 160.153 147.519 173.405C147.957 175.239 148.586 176.949 149.377 178.54C144.935 182.377 140.494 185.752 136.614 188.507C123.432 197.866 107.455 205.509 91.2369 206.651C83.0096 207.231 77.5622 206.418 70.5597 202.691C70.2796 202.542 69.9067 202.183 69.4463 201.618C69.156 201.262 68.882 200.891 68.6026 200.513C68.4442 200.299 68.2841 200.082 68.1183 199.864C67.9001 199.578 67.6757 199.295 67.4537 199.051C67.239 198.816 66.9872 198.572 66.7086 198.399C66.4385 198.232 65.9916 198.04 65.4807 198.2C64.9741 198.359 64.6965 198.772 64.5441 199.112C60.873 207.299 57.9042 212.147 51.2655 218.98C37.0855 233.575 21.3939 246.572 1.90185 252.438C1.41586 252.584 1.14036 253.096 1.28648 253.582ZM150.812 177.284C150.178 175.937 149.67 174.502 149.307 172.978C146.349 160.58 153.099 146.014 162.771 138.017C164.927 136.235 168.17 134.839 170.659 134.98C171.866 135.049 172.812 135.469 173.437 136.293C174.079 137.138 174.502 138.563 174.308 140.881C173.521 150.281 167.752 159.621 160.275 167.946C157.3 171.258 154.072 174.392 150.812 177.284ZM262.356 146.762C262.356 146.762 262.357 146.763 262.359 146.766C262.357 146.763 262.356 146.762 262.356 146.762ZM262.614 146.888C262.617 146.888 262.619 146.888 262.619 146.887C262.619 146.887 262.617 146.888 262.614 146.888ZM65.7208 199.95C65.7209 199.95 65.7225 199.951 65.7256 199.953C65.7223 199.951 65.7208 199.95 65.7208 199.95ZM66.2442 199.817C66.2469 199.813 66.2481 199.811 66.2481 199.811C66.2481 199.811 66.2467 199.813 66.2442 199.817Z" fill="#525252"/>
<path d="M507.83 73.1513C503.188 63.3844 496.336 55.7042 488.445 48.8633C486.213 46.9262 483.93 45.0527 481.625 43.2063C480.341 42.1766 480.032 41.0379 480.432 39.4139C481.235 36.1613 480.132 35.1769 476.842 35.9208C474.587 36.4335 472.323 36.8871 469.804 37.3725C464.232 37.3044 459.445 39.4411 454.354 41.1967C448.745 43.6373 443.999 47.0487 439.293 50.4692C437.737 51.6033 436.675 53.4133 435.3 55.1145C435.164 58.4986 435.895 59.1474 438.867 58.1856C444.847 56.2531 450.76 55.3594 456.845 57.8998C464.441 61.0708 468.311 67.0725 468.679 75.2925C469.328 89.8317 464.246 102.611 457.394 114.964C451.531 125.529 444.062 134.729 434.624 142.332C432.01 144.437 428.798 145.634 426.356 148.306C426.338 149.449 426.933 149.967 427.622 150.352C435.509 154.78 443.663 158.527 452.956 159.96C454.621 159.425 455.951 159.879 457.562 160.292C475.095 164.47 492.701 166.085 510.625 167.486C511.111 167.364 511.297 167.291 511.737 167.055C514.763 161.984 515.185 156.726 514.21 151.024C513.584 150.216 512.926 150.171 512.245 150.148C505.325 149.889 501.64 145.979 501.237 138.998C500.855 132.365 501.872 125.869 502.893 119.4C503.846 113.362 504.821 107.311 506.214 101.336C507.058 97.7206 508.138 94.2502 510.348 90.9114C510.997 86.5655 509.096 82.8729 508.515 78.9625C508.338 77.7785 507.698 76.6625 508.043 75.1473C508.138 74.3761 508.03 73.8726 507.83 73.1513Z" fill="#79AEB9"/>
<path d="M453.582 159.443C444.457 157.524 436.149 154.195 428.249 149.799C427.772 149.531 427.259 149.327 426.642 148.901C426.393 148.583 426.266 148.456 425.88 148.266C412.04 152.108 401.055 159.221 395.791 173.025C393.672 178.583 394.135 184.416 395.124 190.441C396.907 195.608 398.468 200.593 401.064 205.429C404.367 211.739 407.784 217.696 411.759 223.575C413.556 223.702 413.724 225.235 414.386 226.111C418.96 232.149 423.475 238.232 427.872 244.397C428.807 245.708 429.36 244.402 430.309 244.479C433.018 244.383 434.783 242.732 436.761 241.589C439.538 239.983 442.352 238.463 445.36 236.776C446.476 235.542 446.871 234.353 446.163 232.77C445.632 231.994 445.015 231.563 444.752 230.638C444.648 230.316 444.602 230.189 444.471 229.876C444.253 229.463 444.108 229.241 443.854 228.864C443.563 228.365 443.404 228.016 443.223 227.463C443.109 227.154 443.055 227.032 442.905 226.737C442.429 226.002 442.12 225.412 441.852 224.559C441.721 224.228 441.657 224.092 441.494 223.765C439.538 219.22 436.897 215.237 435.35 210.501C435.237 210.147 435.182 210.011 435.023 209.684C434.479 208.949 434.084 208.382 433.857 207.484C433.73 207.153 433.667 207.026 433.49 206.717C433.004 206.096 432.759 205.588 432.537 204.835C432.41 204.504 432.355 204.377 432.183 204.073C431.729 203.465 431.448 203.007 431.257 202.267C431.153 201.936 431.103 201.805 430.962 201.478C430.726 201.038 430.586 200.793 430.345 200.348C429.646 198.271 427.958 196.483 429.878 194.192C430.885 192.723 432.119 192.405 433.494 192.886C438.005 194.478 442.755 194.723 447.679 195.571C450.465 195.93 452.992 195.73 455.81 195.816C466.015 195.839 475.808 194.31 485.65 193.489C488.3 193.267 491.013 193.512 493.858 192.605C495.705 191.207 497.257 189.851 499.417 189.012C499.753 188.862 499.88 188.794 500.188 188.613C500.678 188.227 500.951 187.919 501.386 187.501C501.627 187.279 501.722 187.193 501.949 186.957C502.344 186.526 502.602 186.236 503.029 185.823C503.256 185.564 503.342 185.451 503.528 185.147C504.027 183.954 504.599 183.069 505.516 182.144C505.779 181.876 505.879 181.763 506.11 181.468C506.836 180.279 507.235 179.159 508.197 178.12C508.442 177.839 508.533 177.716 508.724 177.394C509.132 176.337 509.214 175.412 509.749 174.382C509.999 173.869 510.126 173.565 510.321 173.007C510.507 170.984 511.601 169.247 510.362 167.273C492.683 165.962 475.34 164.084 458.002 160.092C456.491 159.579 455.202 159.294 453.582 159.443Z" fill="#E0DBC7"/>
<path d="M425.612 148.47C425.948 148.565 426.061 148.606 426.347 148.678C427.994 147.794 429.469 146.882 430.939 145.956C437.973 141.543 443.64 135.659 448.881 129.317C454.422 122.612 458.732 115.1 462.521 107.342C464.804 102.674 466.605 97.6707 467.83 92.6262C468.747 88.8428 470.077 85.0005 469.546 80.9132C469.287 78.9398 469.437 76.903 469.514 74.8979C469.823 66.5463 463.806 59.3016 456.709 56.8247C451.767 55.1009 446.835 54.7198 441.821 56.5344C440.409 57.0425 438.93 57.0697 437.501 57.9044C435.976 58.7981 435.767 56.861 435.25 55.5772C431.18 59.5285 428.852 64.7453 426.601 69.9985C426.089 71.1961 425.698 72.4482 425.245 73.9225C424.196 75.1383 423.525 76.3223 423.139 77.9509C420.571 87.8766 418.615 97.6798 416.328 107.406C415.707 110.046 414.254 112.042 412.181 113.657C404.635 119.536 396.567 124.662 388.281 129.92C386.307 131.417 384.492 132.715 383.163 134.525C382.037 136.062 380.994 137.673 382.187 139.937C382.518 140.395 382.709 140.622 382.918 140.998C382.831 142.89 383.489 144.337 384.823 145.77C385.917 146.923 386.847 147.893 387.841 149.1C389.325 151.305 391.544 151.409 393.89 151.799C395.215 151.582 396.304 151.414 397.638 151.3C398.019 151.228 398.169 151.187 398.536 151.069C400.968 150.062 403.273 149.4 405.778 148.619C406.141 148.515 406.282 148.465 406.627 148.32C408.333 147.286 409.989 146.682 411.84 145.988C412.181 145.861 412.312 145.807 412.635 145.653C413.519 145.081 414.259 144.723 415.289 144.505C415.616 144.391 415.743 144.332 416.042 144.169C416.855 143.529 417.562 143.112 418.479 142.627C419.627 141.461 421.052 141.134 422.313 140.136C423.121 139.292 424.106 139.351 425.018 138.757C426.229 137.6 427.5 136.924 428.961 136.149C429.546 135.6 429.95 135.178 430.531 134.611C433.585 132.32 436.267 129.97 438.449 126.795C438.976 126.155 439.402 125.733 439.992 125.157C441.163 123.873 441.48 122.299 442.715 121.047C443.645 118.588 444.593 116.361 445.197 114.015C445.278 113.702 445.337 113.38 445.487 113.09C445.578 113.453 445.319 113.725 445.238 114.043C444.675 116.284 443.722 118.398 442.892 120.784C441.685 122.054 441.322 123.587 440.223 124.916C439.647 125.502 439.234 125.928 438.663 126.522C436.571 129.675 434.048 132.079 430.953 134.23C430.359 134.792 429.95 135.214 429.369 135.781C428.081 136.816 426.733 137.364 425.44 138.381C424.705 139.279 423.738 139.224 422.808 139.746C421.587 140.98 420.067 141.343 418.729 142.404C418.207 142.849 417.821 143.108 417.744 143.815C420.376 145.426 422.486 147.608 425.612 148.47Z" fill="#FAFAFA"/>
<path d="M425.622 148.624C423.353 146.991 420.862 145.462 418.116 143.933C417.408 143.502 416.887 143.412 416.061 143.747C415.82 143.892 415.857 143.933 415.852 143.906C415.049 144.768 413.806 144.478 412.676 145.126C412.481 145.253 412.517 145.272 412.512 145.249C410.756 146.356 408.855 147.131 406.645 147.798C406.441 147.925 406.482 147.948 406.477 147.925C404.05 149.1 401.554 150.048 398.623 150.479C398.4 150.602 398.441 150.629 398.432 150.606C397.316 151.355 396.05 151.305 394.58 151.264C392.365 150.615 390.36 149.985 388.132 149.345C385.268 150.643 382.664 152.017 379.986 153.228C366.419 159.375 356.427 168.924 351.372 183.187C349.144 189.47 347.089 195.816 344.697 202.036C342.973 206.518 340.845 210.841 338.866 215.219C337.827 217.514 336.67 219.755 335.667 222.064C334.751 224.169 335.295 225.19 337.895 226.773C343 230.162 348.078 233.301 353.355 236.535C355.928 237.565 357.707 236.667 359.308 234.979C362.362 231.768 365.461 228.597 368.506 225.376C368.765 225.104 368.76 224.586 368.878 223.938C366.564 215.663 365.407 207.538 365.457 199.11C365.498 191.675 370.249 185.578 376.561 184.185C377.604 184.171 378.353 183.84 379.338 183.799C379.719 183.786 379.9 183.781 380.082 183.79C380.268 183.799 380.209 183.813 379.71 183.818C378.593 183.795 377.731 184.18 376.551 184.208C370.117 185.659 365.457 191.815 365.48 199.201C365.507 206.822 366.228 214.243 368.32 221.552C368.515 222.227 368.806 222.781 369.518 223.434C370.889 222.314 372.037 221.007 373.411 219.669C374.364 217.169 383.521 209.122 385.59 206.286C387.66 203.451 387.759 205.084 388.263 204.091C390.509 199.69 393.749 195.88 395.737 191.076C395.537 188.508 395.192 186.199 395.151 183.881C395.02 176.264 397.012 169.374 402.067 163.454C407.044 157.629 413.37 153.786 420.208 150.661C421.883 149.903 423.666 149.368 425.622 148.624Z" fill="#9F9B8D"/>
<path d="M495.655 191.144C493.713 191.602 491.876 191.974 490.024 192.178C486.952 192.518 483.867 192.732 480.786 193.026C479.365 193.163 477.954 193.38 476.534 193.53C472.699 193.934 468.865 194.392 465.022 194.696C462.258 194.914 459.477 194.909 456.409 195.068C455.96 195.254 455.801 195.372 455.443 195.703C453.759 197.948 452.884 200.307 452.652 202.721C451.677 212.792 450.37 222.835 449.734 232.938C449.53 236.168 448.977 239.348 448.464 242.832C448.586 248.28 448.074 253.379 447.148 258.741C447.221 263.355 446.735 267.623 446.163 271.888C446.045 272.763 445.891 273.643 446.054 274.523C446.331 276.02 446.966 277.345 448.641 277.563C450.86 277.853 451.663 276.161 452.552 274.256C453.737 266.616 455.007 259.276 454.921 251.533C454.984 248.616 455.093 245.957 455.366 243.317C456.015 236.925 456.731 230.543 457.448 224.16C457.557 223.176 457.898 222.214 458.011 221.229C458.302 218.698 458.583 216.162 458.755 213.622C458.851 212.27 459.332 211.517 460.77 211.58C461.328 211.603 461.886 211.585 462.444 211.585C479.529 211.58 496.613 211.576 513.697 211.571C514.591 211.571 515.508 211.462 516.37 211.635C516.878 211.735 517.609 212.211 517.708 212.642C518.684 216.825 519.555 221.034 520.445 225.235C520.921 227.494 521.338 229.771 521.856 232.022C522.523 234.925 523.326 237.792 523.952 240.704C525.064 245.867 526.053 251.056 527.165 256.219C527.859 259.449 528.721 262.638 529.452 265.863C530.06 268.549 530.736 271.234 531.085 273.961C531.258 275.308 531.739 276.333 532.692 277.109C533.218 277.536 534.239 277.962 534.675 277.726C535.201 277.44 535.668 276.415 535.6 275.771C535.346 273.475 534.888 271.203 534.452 268.93C533.831 265.677 533.136 262.443 532.519 259.19C531.839 255.616 531.19 252.036 530.564 248.453C529.842 244.32 529.198 240.174 528.444 236.05C527.827 232.688 527.06 229.354 526.425 225.993C525.731 222.309 525.141 218.607 524.451 214.924C523.721 211.018 523.063 207.089 522.092 203.242C521.67 201.569 521.865 199.854 520.844 198.153C518.861 194.855 516.656 192.074 512.921 190.731C512.222 190.482 511.505 190.237 512.771 189.288C518.92 184.684 521.584 178.301 521.797 170.739C521.987 163.948 522.269 157.161 522.496 150.375C522.713 143.811 522.899 137.242 523.135 130.678C523.276 126.79 523.494 122.902 523.598 118.733C521.348 117.382 520.694 118.965 520.286 120.484C519.537 123.261 518.416 126.042 518.375 128.89C518.294 134.361 516.951 139.637 516.429 145.312C516.719 146.791 516.982 147.993 516.751 149.227C515.267 156.994 514.541 164.837 514.037 172.726C513.597 179.658 509.232 183.695 502.816 186.181C502.389 186.331 502.23 186.408 501.845 186.644C501.622 186.802 501.672 186.821 501.672 186.793C501.318 187.147 500.81 187.379 500.424 188.005C500.284 188.141 500.338 188.159 500.329 188.132C500.048 188.44 499.662 188.612 499.118 188.903C498.836 189.084 498.732 189.166 498.342 189.506C497.765 190.005 497.439 190.173 496.894 190.318C496.341 190.522 496.028 190.717 495.655 191.144Z" fill="#2D3300"/>
<path d="M517.141 146.269C517.631 142.908 518.153 139.8 518.684 136.697C518.811 135.949 519.156 135.178 519.061 134.461C518.38 129.403 520.572 124.776 521.202 119.917C521.235 119.663 521.49 119.438 521.839 119.223C522.737 118.669 523.525 118.011 523.622 116.96C523.675 116.394 523.538 115.746 523.47 115.182C523.395 114.553 523.492 113.981 523.585 113.317C523.748 111.969 523.798 110.822 523.83 109.384C523.838 105.752 524.204 102.021 523.527 98.453C523.386 97.7084 523.192 96.9892 522.913 96.3051C522.346 94.9125 520.349 94.0868 518.956 93.0571C518.53 92.7441 517.981 92.5989 517.282 92.2405C516.945 92.0563 516.808 92.0011 516.541 91.7885C516.536 91.7844 516.517 91.7638 516.513 91.7589C516.46 91.6984 516.35 91.5887 516.285 91.5407C515.013 90.5928 513.499 90.1904 511.782 89.7917C511.505 89.7275 511.219 89.6921 510.94 89.7465C510.565 89.8197 510.298 89.9712 509.963 90.2898C507.403 93.3247 506.155 96.5909 505.579 100.247C505.035 103.722 503.973 107.115 503.356 110.586C502.661 114.492 502.208 118.443 501.659 122.376C501.6 122.816 501.704 123.297 501.568 123.705C499.757 129.231 500.32 134.933 500.343 140.581C500.361 145.226 504.69 150.334 509.259 151.16C510.493 151.382 511.855 150.915 513.407 150.783C516.388 150.647 516.941 148.714 517.141 146.269Z" fill="#CDE801"/>
<path d="M382.029 140.15C381.693 136.267 384.465 134.23 386.843 131.993C387.238 131.621 387.732 131.358 388.268 130.855C387.179 129.262 385.527 129.516 384.002 129.494C379.537 129.426 375.072 129.507 370.607 129.453C367.036 129.412 366.691 129.126 366.682 125.674C366.637 112.5 366.61 99.3266 366.696 86.1528C366.728 81.7116 368.429 79.9924 372.912 79.4434C374.355 79.2665 375.812 79.3119 377.264 79.3119C390.995 79.3073 404.73 79.321 418.461 79.2983C420.122 79.2983 421.824 79.4979 423.643 78.4863C424.347 77.089 424.796 75.8824 425.245 74.4307C405.847 74.1948 386.453 74.2084 367.054 74.222C366.274 74.222 365.489 74.1721 364.713 74.2356C362.349 74.4216 360.919 75.9141 360.919 78.3411C360.901 97.7389 360.901 117.132 360.924 136.53C360.924 138.834 361.99 139.864 364.345 139.905C370.135 140 375.93 140.055 382.029 140.15Z" fill="#A3A3A3"/>
<path d="M466.229 31.6068C469.069 30.0599 469.446 27.1157 470.83 24.8339C471.052 24.471 471.08 23.9947 471.261 23.6C472.364 21.2229 472.368 21.2274 474.483 22.6156C479.864 26.1495 485.237 24.3167 488.463 18.492C490.455 14.89 489.375 8.72957 487.066 6.15288C483.24 1.8841 475.785 2.03382 472.273 6.74263C470.771 8.7568 470.73 8.71143 468.407 7.6862C467.209 7.15544 466.034 6.53849 464.781 6.18011C463.107 5.69925 462.013 4.81918 461.237 3.18153C460.325 1.25808 458.292 1.04034 456.387 0.904247C455.956 0.872492 455.506 1.02219 455.071 1.11292C451.005 1.94309 450.138 3.47639 451.522 7.64083C451.69 8.86566 452.366 9.50531 453.079 9.99978C455.72 11.8416 457.04 14.0599 455.774 17.3579C455.348 18.4648 455.656 19.6079 456.868 20.1795C457.948 20.6876 458.792 20.1931 459.49 19.3584C459.99 18.7596 460.498 18.1472 461.21 17.8115C461.95 17.4622 462.735 17.4758 463.425 17.9612C464.169 18.4829 464.219 19.245 464.005 20.048C463.747 21.0278 463.257 21.8898 462.689 22.7199C460.393 26.095 461.845 30.0145 466.229 31.6068Z" fill="#9F9B8D"/>
<path d="M466.406 31.7473C464.268 31.1984 464.132 28.8984 462.826 27.7099C462.453 27.3742 462.404 26.7028 462.072 26.2945C461.464 25.5505 461.392 25.1604 462.308 24.4754C463.611 23.5001 464.173 21.9214 464.913 20.4743C465.689 18.9636 465.457 17.9702 464.2 17.0493C463.243 16.3507 461.033 16.3416 460.212 17.1355C459.617 17.7071 459.291 18.5508 458.701 19.127C458.324 19.4944 457.544 19.8982 457.199 19.7348C456.741 19.5216 456.255 18.7595 456.282 18.2605C456.337 17.3079 456.595 16.2962 457.031 15.4434C457.934 13.6878 457.231 12.4947 455.933 11.406C454.603 10.29 453.274 9.1695 451.74 7.98096C448.645 11.0929 443.468 18.9863 440.528 22.375C441.09 23.7995 442.111 24.6705 443.268 25.732C444.684 26.0768 445.886 25.9543 447.325 25.9815C448.246 26.0087 448.868 25.7048 449.53 25.6685C450.274 25.6231 451.019 25.6685 451.758 25.5868C451.041 25.7592 450.315 25.6231 449.349 25.7184C447.438 26.2219 445.723 25.8772 443.79 26.0813C441.843 27.1791 443.119 24.2259 441.521 25.732C441.167 27.8142 440.85 29.6878 440.759 31.5749C440.655 33.7842 441.217 34.5281 443.268 35.2948C444.811 35.8709 446.526 36.134 447.915 36.9551C449.984 38.18 451.835 39.7722 453.982 41.3146C457.535 40.616 460.888 39.804 464.241 39.001C465.916 38.6018 467.595 38.2162 469.41 37.6038C468.484 35.5715 467.422 33.766 466.406 31.7473Z" fill="#DBB385"/>
<path d="M510.874 90.0633C512.662 90.7437 514.287 91.2065 516.183 91.651C516.365 88.5254 514.414 86.1347 513.225 83.4628C511.659 79.938 509.822 76.5402 507.889 73.0154C507.68 73.4418 507.68 73.9408 507.666 74.6893C508.111 80.0196 509.681 84.8781 510.874 90.0633Z" fill="#579AA8"/>
<path d="M442.967 33.2978C444.945 32.4513 445.384 30.6895 445.625 28.6505C446.452 27.3111 443.166 29.2179 444.955 27.3035C444.628 25.6594 443.487 25.3645 441.997 25.3209C441.226 26.0598 440.635 26.7075 440.14 27.427C438.608 29.6651 438.82 30.8402 441.035 32.3032C441.577 32.6576 442.209 32.8745 442.967 33.2978Z" fill="#E1FF01"/>
<path d="M384.696 145.952C384.456 144.437 383.92 142.908 383.163 141.27C380.699 141.143 378.829 141.983 377.155 143.774C376.769 144.124 376.683 144.369 376.855 144.827C378.071 145.934 379.365 146.07 380.735 146.002C381.946 145.938 383.172 145.956 384.696 145.952Z" fill="#DBB385"/>
<path d="M376.683 145.058C376.987 144.759 376.991 144.523 377 144.115C372.653 143.924 368.302 143.906 363.95 143.901C363.515 143.901 363.07 143.956 362.648 144.06C362.516 144.092 362.344 144.364 362.357 144.509C362.376 144.682 362.557 144.958 362.698 144.976C363.347 145.076 364.009 145.144 364.667 145.144C368.574 145.149 372.481 145.131 376.683 145.058Z" fill="#263471"/>
<path d="M516.556 91.6282C516.447 91.8323 516.57 92.0047 516.923 92.1136C517.028 91.8913 516.905 91.7416 516.556 91.6282Z" fill="#5579C3"/>
<path d="M476.257 43.4016C477.11 43.3789 477.682 43.4288 478.213 43.3108C478.417 43.2655 478.594 42.8527 478.671 42.5759C478.698 42.4716 478.417 42.1586 478.263 42.1495C477.487 42.0951 476.67 41.9545 475.935 42.1314C472.268 43.0251 468.57 43.5558 464.786 43.4288C464.423 43.4152 464.046 43.7463 463.674 43.9142C464.055 44.1864 464.423 44.6718 464.818 44.6945C468.607 44.9394 472.3 44.2726 476.257 43.4016Z" fill="#254147"/>
<path d="M510.834 90.3263C510.448 87.0919 509.908 83.8892 509.25 80.7137C508.878 78.9218 508.307 77.1707 507.735 75.1701C507.299 75.1021 506.632 75.338 506.65 75.4197C506.945 76.6944 507.435 77.9328 507.662 79.2166C508.288 82.7823 509.69 86.1982 509.768 90.1903C510.09 90.4579 510.362 90.4171 510.834 90.3263Z" fill="#254147"/>
<path d="M423.893 78.5497C407.04 78.2776 390.196 78.2231 373.348 78.3184C371.546 78.3275 369.668 79.0488 367.971 79.7746C366.605 80.3598 365.974 81.7888 365.761 83.2676C365.652 84.0343 365.72 84.8282 365.72 85.6084C365.715 99.5534 365.706 113.498 365.706 127.448C365.706 130.637 365.275 130.61 368.679 130.605C375.04 130.596 381.398 130.601 388.059 130.632C390.055 129.693 391.811 128.809 393.436 127.734C398.895 124.118 404.385 120.53 409.717 116.728C412.535 114.719 415.648 112.809 416.773 109.189C417.454 106.998 418.007 104.757 418.52 102.52C419.355 98.8911 420.108 95.2438 420.898 91.6056C421.456 89.038 421.987 86.4658 422.581 83.9027C422.971 82.1925 423.457 80.5049 423.893 78.5497Z" fill="#E5E5E5"/>
<path d="M452.975 82.805C452.258 84.7193 451.609 86.4568 451.173 88.2487C450.502 90.9977 449.948 93.7786 449.413 96.5594C449.331 96.9858 449.617 97.4848 449.73 97.9475C450.021 97.4939 450.443 97.0765 450.579 96.5775C451.073 94.7947 451.695 93.0074 451.854 91.1837C452.04 89.0698 452.612 87.1191 453.338 85.1639C453.524 84.6694 453.415 84.0661 453.456 83.2314C453.36 82.8503 453.247 82.7551 452.975 82.805Z" fill="#254147"/>
<path d="M438.694 126.758C435.981 129.022 433.313 131.549 430.635 134.316C431.416 134.243 432.405 134.139 432.968 133.595C435.055 131.562 437.755 130.034 438.694 126.758Z" fill="#254147"/>
<path d="M442.669 120.857C444.997 118.879 445.265 115.767 446.041 112.859C446.1 112.627 445.855 112.314 445.75 112.042C445.564 112.296 445.306 112.528 445.206 112.809C444.321 115.372 443.463 117.944 442.669 120.857Z" fill="#5E5C54"/>
<path d="M398.5 150.389C401.377 151.033 403.913 149.876 406.409 148.138C403.845 148.66 401.223 149.418 398.5 150.389Z" fill="#254147"/>
<path d="M406.532 147.717C408.814 148.207 410.661 147.095 412.449 145.458C410.543 145.988 408.583 146.746 406.532 147.717Z" fill="#254147"/>
<path d="M429.251 136.122C427.445 135.745 426.334 136.902 425.249 138.331C426.583 137.836 427.908 137.097 429.251 136.122Z" fill="#254147"/>
<path d="M422.595 140.159C421.211 140.631 419.863 141.361 418.538 142.345C419.918 141.874 421.274 141.143 422.595 140.159Z" fill="#254147"/>
<path d="M442.624 121.083C440.727 121.532 440.759 123.392 439.992 124.917C442.025 124.862 441.862 122.889 442.719 121.442C442.738 121.201 442.66 121.124 442.624 121.083Z" fill="#5E5C54"/>
<path d="M394.507 151.028C395.764 152.925 396.989 151.518 398.346 150.806C397.166 150.661 395.904 150.738 394.507 151.028Z" fill="#202844"/>
<path d="M412.585 145.045C413.642 145.235 414.908 145.594 415.784 144.115C414.794 144.201 413.742 144.518 412.585 145.045Z" fill="#254147"/>
<path d="M422.581 139.918C423.539 139.864 424.659 140.322 425.24 138.816C425.258 138.571 425.254 138.567 425.254 138.562C424.41 138.861 423.566 139.165 422.645 139.682C422.563 139.9 422.572 139.914 422.581 139.918Z" fill="#254147"/>
<path d="M415.838 143.648C416.332 143.906 416.841 143.915 417.608 143.933C418.061 143.62 418.266 143.298 418.515 142.79C418.56 142.604 418.551 142.591 418.547 142.582C417.58 142.65 416.45 142.155 415.838 143.648Z" fill="#254147"/>
<path d="M452.851 82.7369C452.811 82.9547 453.142 82.9456 453.305 82.9501C453.9 82.4375 454.326 81.9249 454.712 81.1401C453.36 80.6456 453.464 81.9431 452.851 82.7369Z" fill="#373C53"/>
<path d="M439.997 125.157C439.556 125.443 439.121 125.742 438.662 126.264C438.644 126.491 438.662 126.509 438.676 126.522C439.125 126.237 439.565 125.937 440.015 125.407C440.015 125.171 439.997 125.166 439.997 125.157Z" fill="#254147"/>
<path d="M456.083 79.8154C455.607 79.8472 455.148 80.1284 454.676 80.632C454.667 80.8543 454.726 80.9132 454.758 80.9405C455.225 80.6728 455.661 80.3689 456.083 79.8154Z" fill="#373C53"/>
<path d="M430.613 134.547C430.15 134.838 429.692 135.124 429.247 135.645C429.265 135.877 429.274 135.886 429.274 135.89C429.737 135.6 430.195 135.309 430.631 134.783C430.617 134.552 430.613 134.547 430.613 134.547Z" fill="#254147"/>
<path d="M456.096 79.6022C456.491 79.4933 456.872 79.3754 457.258 79.2574C456.908 79.2257 456.554 79.1939 456.137 79.3709C456.069 79.5705 456.087 79.5931 456.096 79.6022Z" fill="#373C53"/>
<path d="M445.331 27.0043C444.841 27.17 444.635 27.2415 444.444 27.3416C443.737 27.7124 443.032 28.0875 442.326 28.4626C443.226 28.4953 444.122 28.5294 445.274 28.4985C447.312 27.7559 449.097 27.0725 450.977 26.1641C450.789 25.4176 450.346 25.7061 449.757 25.6421C448.25 26.0177 446.937 26.4696 445.331 27.0043Z" fill="#254147"/>
<path d="M449.848 25.476C449.922 25.7003 450.282 25.839 450.855 25.952C452.069 25.5056 453.068 25.0908 454.051 24.6432C454.225 24.5635 454.326 24.3311 454.459 24.1745C454.249 24.1514 454.013 24.0656 453.831 24.1239C452.597 24.5246 451.366 24.9625 449.848 25.476Z" fill="#254147"/>
<path d="M461.446 21.0051C461.641 21.1865 461.954 21.1411 462.009 21.0005C462.249 20.3518 462.431 19.6804 462.59 19.0045C462.599 18.9682 462.249 18.8412 462.068 18.7595C461.859 19.4218 461.655 20.0796 461.446 21.0051Z" fill="#254147"/>
<path d="M461.451 21.2818C461.287 21.377 461.124 21.4723 460.961 21.5676C461.101 21.5721 461.242 21.5721 461.414 21.4269C461.446 21.2772 461.446 21.2772 461.451 21.2818Z" fill="#254147"/>
<path fill-rule="evenodd" clip-rule="evenodd" d="M457.485 79.3802C457.485 79.0044 457.18 78.6997 456.804 78.6997C455.527 78.6997 453.062 79.6622 452.067 83.0441C451.492 84.9982 450.238 90.4719 448.966 96.0418C448.924 96.2252 448.882 96.4088 448.84 96.5924C447.602 102.008 446.365 107.426 445.711 109.822C445.527 110.498 445.347 111.186 445.166 111.881C443.989 116.392 442.73 121.218 439.486 125.224C435.708 129.889 426.267 137.095 417.69 141.608C417.504 141.706 417.316 141.805 417.127 141.904C412.959 144.098 408.391 146.502 404.397 148.309C402.31 149.254 400.397 150.028 398.791 150.522C397.154 151.027 395.948 151.204 395.218 151.067C392.357 150.531 388.941 149.498 387.593 149.049C387.237 148.93 386.851 149.123 386.733 149.48C386.614 149.836 386.806 150.221 387.163 150.34C388.538 150.799 392.02 151.853 394.967 152.405C396.052 152.608 397.54 152.332 399.192 151.823C400.877 151.304 402.849 150.504 404.959 149.549C408.991 147.724 413.591 145.303 417.748 143.115C417.941 143.014 418.133 142.912 418.324 142.812C426.991 138.252 436.608 130.941 440.544 126.08C443.988 121.827 445.324 116.688 446.493 112.191C446.672 111.504 446.846 110.832 447.024 110.18C447.686 107.756 448.928 102.32 450.158 96.9331C450.203 96.7369 450.248 96.5407 450.293 96.3448C451.572 90.7438 452.814 85.33 453.373 83.4281C454.193 80.6406 456.115 80.0606 456.804 80.0606C457.18 80.0606 457.485 79.756 457.485 79.3802Z" fill="#254147"/>
</svg>
