<svg width="1280" height="1280" viewBox="0 0 1280 1280" fill="none" xmlns="http://www.w3.org/2000/svg">
<path d="M1053.79 754.736C1058.72 799.129 1049.12 953.877 1014.89 984.124C994.905 1001.79 969.954 1008.51 945.397 1015.49C917.078 1023.54 888.428 1030.86 859.495 1036.21C827.649 1042.1 795.422 1046.68 763.158 1049.46C724.638 1052.77 685.86 1055.75 647.278 1054.83C602.6 1053.76 557.972 1048.81 513.417 1044.6C454.334 1039.03 397.377 1024.06 341.306 1004.89C297.304 989.863 267.006 950.251 266.33 902.331C265.703 858.012 266.121 727.66 266.343 682.038C269.993 677.49 273.742 679.051 277.171 680.341C339.732 704.025 405.207 719.007 467.411 743.735C491.072 753.138 514.216 763.621 538.023 775.396C540.371 776.539 541.661 777.276 543.862 778.689C545.41 779.734 546.012 780.177 547.475 781.356C578.916 801.046 604.641 796.376 633.733 817.233C668.529 842.183 707.185 847.234 748.212 835.976C774.822 828.675 798.79 815.217 823.47 803.456C885.54 773.872 950.461 755.769 1019.55 754.355C1030.7 754.122 1041.78 748.394 1053.79 754.736Z" fill="#30555C"/>
<path d="M956.995 790.878C871.669 792.316 791.587 812.501 716.669 853.277C694.675 865.251 670.941 873.227 645.726 873.946C613.695 874.867 585.302 864.049 560.198 844.156C537.419 826.116 495 777.5 457 765.053C464.657 755.146 497.596 772.108 484.753 765.053C470.472 757.201 456.404 748.833 440.675 743.542C424.733 738.184 407.982 735.645 392.5 728.906C372.045 719.998 350.534 714.011 329.752 706.013C317.683 701.362 305.704 696.633 292.737 694.757C288.493 694.14 281.847 693.342 283.172 686.816C284.384 680.862 290.458 679.705 295.78 680.39C306.075 681.705 315.483 686.389 325.542 688.882C384.159 703.373 440.754 724.469 498.483 741.88C522.374 749.08 546.108 758.606 572.683 754.82C586.593 752.843 599.459 748.462 612.617 744.699C646.579 734.983 680.294 723.884 714.558 715.842C742.817 709.214 769.952 699.621 797.245 690.736C835.249 678.368 874.543 671.022 912.412 658.385C929.455 652.701 935.293 656.835 937.471 674.482C938.414 682.143 940.884 687.669 949.27 689.04C951.841 689.467 954.008 691.05 955.636 694.521C955.939 725.906 955.715 756.19 956.377 787.62C956.916 789.215 957.028 789.687 956.995 790.878Z" fill="#111F22"/>
<path d="M960.12 717.22C943.9 719.74 940.85 710.51 941 697.44C941.1 688.13 936.27 686.08 924.61 689.49C904.18 695.45 883.83 701.74 863.29 707.34C855.62 709.43 847.53 709.96 839.63 711.19C837.75 711.48 835.74 711.39 833.99 712.04C811.03 720.59 788.5 730.53 765.09 737.58C727.3 748.96 689.04 758.85 650.77 768.56C634.66 772.65 618.07 775.02 601.59 777.44C596.91 778.13 591.65 776.89 587 775.43C559.14 766.68 531.38 757.62 503.58 748.65C474.98 739.42 446.47 729.93 417.76 721.05C403.73 716.71 389.38 713.38 375.09 709.92C372.33 709.25 369.15 709.86 366.27 710.41C365.1 710.64 364.22 712.31 363.21 713.32C364.3 714.14 365.28 715.36 366.51 715.72C388.31 722 410.27 727.74 431.9 734.55C442.26 737.81 451.8 743.57 462.05 747.26C474.9 751.89 488.35 754.89 501.07 759.8C520.09 767.15 539.88 773.14 553.55 790.33C560.95 799.64 556.86 801.92 547.21 803.43C546.32 803.49 546.4 803.44 546.4 803.47C545.46 802.18 545.17 800.22 542.46 800.42C517.92 790.48 494.33 779.16 469.85 770.24C442.08 760.12 413.42 752.44 385.33 743.13C364.12 736.11 286.96 709.84 265.06 702.24C264.01 700.27 263.41 698.32 263.65 696.5C265.16 685.38 260.71 681.25 249.35 678.33C222.57 671.44 252.72 680.27 226.3 671.93C222.73 670.8 218.94 670.41 214.27 669.45C213.58 666.19 215.37 664.04 218.06 663.3C232.81 659.21 246.95 652.57 263.65 652.71C288.38 657.58 311.08 666.09 334.2 673.21C419.77 699.54 505.11 726.63 590.88 752.3C607.89 757.39 625.15 753.84 641.98 748.94C731.62 722.84 821.51 697.59 911.25 671.83C984.01 650.94 1056.4 628.81 1129.31 608.49C1133.75 607.25 1138.23 606.06 1142.32 603.86C1148.13 600.74 1152.04 596.17 1151.68 589.23C1151.32 582.19 1146.84 578.09 1140.55 576.03C1127.76 571.84 1114.58 569.01 1101.53 565.81C1043.31 551.55 985.29 536.49 927.02 522.44C922.9 521.45 918.86 520.21 914.39 517.66C903.27 508.42 892.02 501.69 877.78 502.03C864.74 502.34 854.34 493.96 842.19 491.14C836.18 489.74 831.25 487.76 826.53 494.53C823.95 495.47 822.36 494.76 820.22 493.04C810.8 479.05 795.84 479.1 782.84 477.57C768.07 475.83 754.92 473.45 742.76 463.65C733.37 456.08 720.83 453.54 708.65 451.17C699.43 449.38 688.61 449.18 684.33 437.32C687.76 434.13 691.21 434.41 694.64 435.14C725.39 441.75 756.11 448.45 786.65 456.08C814.17 462.96 841.34 471.1 869.24 476.74C905.68 484.11 940.88 496.99 977.35 504.2C1005.95 509.85 1034.06 517.53 1062.06 525.04C1085.31 531.27 1108.88 536.67 1132.02 543.68C1154.18 550.39 1173.69 560.93 1192.47 573.67C1197.25 576.91 1201.93 580.27 1205.62 586.05C1210.98 613.51 1193.35 628.79 1168.22 635.17C1145.12 641.04 1122.18 647.54 1099.14 653.64C1072.8 660.62 1046.43 667.47 1020.07 674.38C1001.07 679.36 982.08 684.34 962.41 689.91C959.55 699.02 961.43 707.75 960.12 717.22Z" fill="#111F22"/>
<path d="M1206.4 585.88C1191.81 577.57 1178.23 566.51 1162.76 559.68C1142.74 550.83 1121.39 544.81 1100.32 538.58C1075.21 531.16 1049.88 524.46 1024.49 518.09C1000.86 512.16 976.98 507.22 953.29 501.54C941.46 498.71 929.87 494.89 918.05 492.04C892.52 485.88 866.82 480.44 841.36 474.01C807.72 465.52 774.35 455.99 740.67 447.66C722.95 443.28 704.84 440.49 685.95 436.99C674.52 440.8 665.78 433.75 656.35 431.81C638.27 428.08 621.61 427.55 603.61 434.38C584.01 441.82 562.98 445.68 542.74 451.63C510.32 461.16 478.06 471.24 445.52 480.33C395.29 494.36 345.42 509.66 294.61 521.66C269.27 527.64 244.42 535.77 219.8 544.41C202.73 550.4 185.21 554.69 167.33 557.44C159.71 558.61 152.15 560.09 144.94 562.79C129.77 568.47 128.27 574.32 138.94 587.72C138.25 608.31 150.5 614.13 167.38 618.36C190.22 624.09 213.12 630.38 234.99 641.58C232.05 649.77 224.03 648.98 218.13 651.14C208.48 654.68 198.81 660.07 186.99 656.88C161.87 647.96 137.59 639.31 113.05 631.54C102.96 628.34 96.89 621.96 94.2 612.51C90.01 597.8 89.75 582.86 97.28 569.08C103.54 557.64 116.01 555.57 127.19 552.29C152.74 544.79 178.36 537.53 204.05 530.55C229.37 523.66 254.85 517.41 280.17 510.53C297.09 505.93 313.82 500.66 330.68 495.82C367.03 485.38 403.42 475.05 439.77 464.61C465.3 457.28 490.75 449.64 516.34 442.51C550.54 432.98 584.54 422.32 619.26 415.23C632.74 412.48 648.1 417.43 662.35 420.2C679.38 423.51 696.14 428.2 713 432.35C727.47 435.92 741.93 439.51 756.36 443.21C777.9 448.73 799.4 454.41 820.94 459.94C843.65 465.77 866.38 471.55 889.13 477.25C927.6 486.89 966.13 496.32 1004.56 506.11C1033.06 513.37 1061.38 521.37 1089.91 528.51C1116.84 535.24 1143.88 541.59 1171 547.49C1186.6 550.87 1202.56 566.97 1206.4 585.88Z" fill="#111F22"/>
<path d="M108.56 1113.35C96.4099 1130.04 79.4099 1131.58 71.3199 1116.81C68.8199 1112.24 68.7399 1105.82 69.0399 1100.34C71.1999 1060.23 73.9299 1020.16 76.1099 980.05C78.4999 936.13 80.4799 892.19 82.7099 848.26C83.0399 841.77 83.7299 835.3 84.2999 827.91C88.2799 823.96 91.7399 826.86 94.9399 828.28C103.15 831.93 112.11 831.73 121.4 834.43C124.08 837.08 124.52 839.66 124.6 843.35C124.5 845.01 124.42 845.67 124.15 847.31C121.68 857.37 123.06 866.61 122.95 876.79C119.73 919.61 119.08 961.58 115.42 1004.4C112.73 1012.66 113.64 1020.15 113.73 1028.6C113.71 1039.97 114.24 1050.33 113.11 1061.67C110.3 1070.38 111.57 1078.42 110.93 1087.27C107.9 1096.19 110.58 1104.55 108.56 1113.35Z" fill="#79AEB9"/>
<path d="M185.68 656.84C197.96 653.14 209.69 650.03 221.4 646.91C225.44 645.83 229.46 644.71 234.1 643.04C240.32 635.14 249.38 635.72 256.98 633.12C262.27 631.31 267.87 630.25 274.05 628.12C275.5 627.77 276.09 627.65 277.55 627.42C291.71 623.1 305.31 619.97 319.35 615.24C327.06 613.72 333.65 611.45 341.12 609.09C345.97 607.88 349.83 606.47 354.62 604.97C406.76 589.93 458.07 575.24 510.11 559.87C516.05 558.34 521.23 557.38 526.98 555.21C532.32 553.82 536.83 552.72 541.91 550.41C555.38 548.17 566.86 540.99 580.89 542.47C585.42 548.71 583.37 554.28 580.89 560.7C577.38 565.94 572.74 567.55 567.85 568.91C484.44 592.22 401.41 616.84 317.41 641.37C299.66 645.22 284.23 654.34 265.72 655.17C248.1 659.64 231.29 663.75 213.9 668.54C192.31 674.74 171.3 680.25 150.29 685.77C147.34 686.55 144.43 687.48 141.47 688.18C130.53 690.77 123.94 696.82 124.22 708.84C124.4 716.51 124.15 724.2 124.07 732.94C118.87 738.62 113.21 738.03 106.59 734.75C106.07 726.72 106.21 719.49 106.62 712.27C108.31 682.77 118.79 677.53 143.88 669.83C157.6 665.61 171.36 661.55 185.68 656.84Z" fill="#CCC7B5"/>
<path d="M104.9 734.06C111.21 734.01 116.62 734.08 123.03 734.07C137.93 739.31 149.46 747.52 156.57 760.95C165.25 777.34 165.01 805.67 143.88 823.71C139.02 830.11 132.98 832.9 125.45 834.68C124.17 834.94 123.65 835 122.36 834.85C108.73 836.85 97.0199 833.66 85.2099 827C66.4099 812.4 56.8399 794.76 63.5199 771C69.3499 750.27 83.2699 738.53 104.9 734.06Z" fill="#E1FF01"/>
<path d="M123.7 834.2C130.17 830.71 136.13 827.92 142.69 824.74C141.58 919.66 139.92 1014.97 138.13 1110.27C137.86 1124.57 127 1132.44 116 1126.15C112.51 1124.16 110.63 1119.37 107.98 1114.97C107.72 1106.31 107.5 1098.54 107.65 1089.93C110.75 1081.35 108.35 1073.33 109.82 1064.61C110.32 1052.94 110.33 1042.15 110.36 1030.29C112.85 1022.18 110.81 1014.87 112.13 1006.87C114.93 963.73 117.24 921.45 119.57 878.12C122.28 867.75 119.92 858.22 121.37 847.94C121.87 847.05 121.85 845.96 121.85 845.41C124.21 841.79 122.48 838.18 123.7 834.2Z" fill="#4F8C99"/>
<path d="M959.62 719.17C959.9 709.35 960.19 700.6 961.13 691.17C961.82 727.37 961.86 764.24 961.73 802.18C960.92 797.32 959.78 791.4 959.72 785.47C959.49 763.73 959.63 741.99 959.62 719.17Z" fill="#111F22"/>
<path d="M542.51 801.05C542.69 799.64 543.47 798.53 544.24 797.42C544.98 798.93 545.72 800.44 546.43 802.72C545.3 802.79 544.2 802.07 542.51 801.05Z" fill="#111F22"/>
<path d="M542.53 551.84C538.03 553.97 534.03 555.42 529.17 556.91C525.75 558.22 525.12 556.44 524.34 554.59C523.34 552.22 526.27 547.53 520.82 547.82C516.5 548.06 513.66 550.39 513.88 555.24C513.97 557.16 513.95 559.08 512.55 561.52C460.38 577.33 408.57 592.42 355.85 607.35C349.68 602.74 345.46 601.63 343.89 611.11C336.42 613.43 329.43 615.13 321.5 616.83C314.28 617.96 309.75 611.94 303.3 612.89C292.75 614.45 283 616.67 279.35 629.49C278.36 630.19 277.93 630.29 276.84 630.3C273.59 628.95 270.27 629.13 267.95 625.6C263.96 612.39 268.05 605.57 282.78 600.7C297.74 595.76 313.14 592.34 328.45 588.69C331.07 588.07 334.04 588.11 336.24 586.72C351.46 577.12 369.29 577.84 385.93 573.95C410.27 568.26 433.79 559.81 457.8 552.99C482.5 545.97 505.81 534.59 531.14 529.49C536.5 528.41 541.56 525.87 545.38 522.18C560.98 507.13 580.08 500.65 601.06 498.12C607.24 497.38 612.51 493.73 618.32 491.73C627.28 488.65 635.75 488.68 643.04 495.65C649.52 501.85 657.72 499.26 665.02 499.35C671.74 499.43 678.44 496.59 685.3 495.57C691.26 494.68 694.75 483.52 690.9 475.94C685.76 465.82 680.78 455.74 668.98 450.41C658.05 445.47 649.17 433.84 635.68 438.08C616.52 444.1 595.7 445.48 578.73 457.94C568.22 465.66 555.12 466.06 543.07 469.02C537.63 470.36 531.69 470.04 526.7 473.24C513.81 481.51 498.3 481.75 484.43 487.24C456.96 498.12 428.03 504.35 399.4 511.27C369.89 518.41 341.5 529.3 312.04 536.34C293.91 540.67 276.83 550.13 257.35 548.33C255.77 548.18 254.06 548.23 253.03 549.41C243.82 559.96 229.6 560.11 218.22 566.17C208.75 571.22 198.63 572.59 188.1 568.84C184.63 567.61 180.2 566 177.7 570.28C175.3 574.38 178.65 577.48 181.08 580.4C184.03 583.94 187.25 587.24 190.72 590.3C192.71 592.06 195.13 593.93 193.99 597.05C192.68 600.63 189.32 600.74 186.25 600.51C183.17 600.28 180.14 600.09 176.25 600.99C168.26 601.65 161.55 600.12 154.42 596.79C151.63 595.26 150.02 593.24 146.7 593.04C143.47 592.96 141.23 592.25 139 589.78C134.57 584.06 126.33 576.94 127.62 574.07C130.35 567.96 137.32 561.68 143.83 559.72C161.25 554.48 179.38 551.59 197.17 547.54C204.56 545.86 211.85 543.7 219.13 541.57C259.16 529.88 299.16 518.07 339.2 506.43C365.51 498.78 391.87 491.32 418.24 483.86C447.96 475.46 477.72 467.19 507.44 458.8C537.87 450.22 569.27 444.01 598.44 432.28C628.59 420.15 655.46 427.19 684.13 436.88C693.57 440.82 701.85 445.76 710.8 448.26C725.37 452.33 739.64 455.46 751.51 466.46C756.72 471.29 766.09 472.13 773.8 473.69C785.15 476 796.94 476.46 808.07 479.49C813.03 480.84 816.82 486.51 821.16 491.07C817.08 496.14 812.62 493.47 808.32 492.52C785.17 487.37 762.25 481.32 739.23 475.69C734.05 474.43 728.88 472.65 722.58 474.88C719.18 475.26 717.38 474.45 716.12 472.04C714.93 469.76 717.16 465.24 713.07 465.45C711.69 465.52 712.8 470.32 713.17 472.92C715.03 486.22 725.03 498.05 739.57 499.51C759.01 501.46 776.57 509.61 795.34 513.43C831.46 520.78 867.38 529.31 902.59 539.9C933.07 549.06 964.62 553.9 994.58 565.21C1010.21 571.11 1027.54 572.47 1043.8 577.12C1050.55 579.05 1059.99 579.14 1060.13 588.59C1060.27 597.96 1052.45 602.62 1044.17 604.28C995.9 613.98 949.94 631.76 902.6 644.74C876.1 652.01 850.1 661.47 823.47 668.67C804.26 673.87 785.25 679.77 765.48 682.77C751.38 684.91 738.59 691.76 724.7 695.04C691.09 702.97 658.25 713.87 624.66 721.94C623.56 722.2 622.61 722.98 620.79 724.03C616.15 725.79 612.34 725.95 607.64 724.25C603.49 714.37 605.07 709.77 613.55 708.77C663.89 702.83 710.82 683.56 759.68 672.03C830.44 655.34 899.08 631.26 969.45 613.28C976.24 611.54 982.32 608.31 988.49 605.18C994.95 601.9 995.57 597.04 991.53 592.04C985.28 584.3 978.87 577.15 966.97 577.52C957.5 577.82 947.73 575.07 938.94 571.9C919.26 564.8 898.3 563.91 878.57 557.74C855.59 550.55 831.38 548.31 808.83 539.05C799.54 535.24 789.13 532.48 778.63 532.45C766.02 532.41 760.46 536.98 757.46 549.17C744.81 600.67 711.56 626.61 658.37 626.81C632.99 626.91 607.79 627.65 583.48 617.48C569.13 611.48 554.64 616.93 540.88 622.13C523.28 628.78 506.06 636.39 487.67 640.95C479.82 642.9 472.15 645.06 463.99 645.5C457.1 645.87 450.14 646.85 443.59 649.05C439.07 650.57 432.05 650.39 431.11 655.52C430.27 660.16 436.91 661.79 440.44 664.5C445.13 668.09 449.1 671.64 442.3 677.79C439.12 678.99 436.79 678.84 433.83 677.38C429.77 672.8 427.33 666.65 419.35 671.27C414.67 672.58 410.85 672.43 406.55 669.92C404.63 669.48 404.99 665.77 401.93 668.3C386.58 665.28 371.48 663.92 358.41 654.29C357.93 651.42 358.23 649.25 359.96 648.28C372.98 641 385.25 631.66 399.88 628.25C415.92 624.52 432.67 622.47 448.11 617.49C473.08 609.43 500.39 608.28 523.08 593.23C525.65 591.53 528.8 591 531.86 590.63C552.06 588.16 571.61 587.78 591.33 596.04C632.46 613.26 673.11 608.92 712.22 588.63C731.74 578.51 735.44 551.06 718.61 538.53C704.25 524.92 687.77 518.2 668.34 516.02C665.52 515.03 663.46 514.64 660.49 515.28C654.08 516.25 648.45 516.19 642 515.57C639.06 515.08 636.96 514.54 633.97 514.98C631.52 515.36 629.87 515.42 627.37 515.27C608.09 513.04 590.13 513.19 574.53 525.49C571.84 527.61 568.9 529.64 565.61 530.55C554.52 533.62 547 540.4 542.53 551.84Z" fill="#111F22"/>
<path d="M721.14 474.66C723.82 465.64 728.99 470.07 733.34 471.13C762.01 478.13 790.67 485.16 820.24 492.05C822.27 492.45 823.39 492.97 825.13 493.51C835.27 490.63 843.69 495.66 852.49 497.48C869.31 500.95 885.85 505.66 902.57 509.63C905.97 510.43 909.06 511.87 912.69 514.4C937.05 521.2 960.59 527.64 984.24 533.65C1011.94 540.68 1039.72 547.35 1067.48 554.15C1090.05 559.68 1112.63 565.18 1135.21 570.67C1145.36 573.14 1154.95 576.9 1155.4 589.12C1155.81 600.17 1149.04 606.06 1138.46 609.01C1102.53 619.01 1066.69 629.34 1030.89 639.81C999.87 648.89 968.98 658.42 937.98 667.58C919.47 673.05 900.85 678.14 882.3 683.5C857.28 690.73 832.31 698.17 807.27 705.32C789.1 710.5 770.81 715.24 752.64 720.4C727.94 727.41 703.5 735.4 678.59 741.57C652.94 747.93 628.19 760.57 600.84 756.85C586.77 754.94 573.01 750.21 559.32 746.08C526.38 736.13 493.54 725.83 460.69 715.57C434.33 707.33 408.07 698.78 381.67 690.65C353.13 681.86 324.49 673.41 295.9 664.77C286.15 661.82 276.44 658.74 265.79 655.62C280.93 650.25 296.99 644.97 313.91 639.69C330.33 640.64 344.41 646.51 358.82 653.57C373.45 658.38 387.65 662.37 402.71 666.52C403.95 666.64 404.34 666.61 405.21 666.9C409.61 668.26 413.52 669.3 418.3 670.51C423.92 669.38 428.11 670.9 432.75 673.83C434.96 675.23 436.55 676.05 438.84 676.93C456.14 675.32 470.81 683.04 486.07 687.21C523.71 697.49 560.83 709.65 599.01 717.95C601.29 718.45 603.39 719.31 605.79 721.6C610.47 722.51 614.42 722.83 619.35 723.02C631.77 718.39 644.16 718.18 655.87 714.86C701.32 702 746.77 689.15 792.38 677C886.58 651.91 979.55 622.54 1073.86 597.89C1085.38 594.88 1096.56 590.66 1108.25 588.23C1109.34 588 1110.48 587.88 1111.4 587.13C1110.22 586.59 1109 587.25 1107.77 586.93C1066.44 576.4 1025.43 564.69 984.22 553.73C917.4 535.96 850.55 518.31 783.8 500.28C766.37 495.58 748.73 491.68 731.48 486.34C726.16 484.69 719.61 483.69 721.14 474.66Z" fill="#579AA8"/>
<path d="M913.35 514.14C899.46 511.94 885.39 509.18 871.46 505.84C856.72 502.3 842.12 498.2 826.6 493.94C825.58 486.81 829.74 484.1 835.35 485.64C844.51 488.16 853.33 491.9 862.28 495.16C865.82 496.45 870.13 499.84 872.7 498.82C886.37 493.38 895.29 506.12 907.2 507.03C909.37 507.2 911.24 511.13 913.35 514.14Z" fill="#111F22"/>
<path d="M151.34 592.89C158.71 595.02 165.55 596.77 173.29 598.55C206.41 604.03 237.38 613.98 268.85 625.32C271.53 626.97 273.49 628.05 275.82 629.68C262.98 634.21 249.76 638.2 235.62 642.33C208.68 634.14 182.69 625.71 156.63 617.5C137.72 611.54 137.68 611.67 138.34 590.29C140.84 590.05 143.19 590.84 146.29 591.73C148.38 591.61 149.65 591.75 151.34 592.89Z" fill="#579AA8"/>
<path d="M359.45 653.52C344.84 649.96 330.41 645.52 315.38 640.39C328.67 635.13 342.47 630.24 356.48 626.08C385.7 617.41 415.02 609.09 444.32 600.71C468.88 593.69 493.52 586.94 518.05 579.8C537.86 574.03 557.56 567.86 578.09 561.48C579.95 560.39 581.14 560.1 583.3 560.6C599.46 579.27 621.17 581.5 642.62 583.31C659.14 584.7 675.57 582.62 691.48 577.39C712.17 570.59 716.55 564.64 716.31 543.28C716.29 541.36 716.25 539.44 717.19 536.8C727.41 536.16 730.73 541.59 731.29 550.74C732.97 578.59 727.26 584.89 701.65 596.68C680.75 606.31 659.48 610.1 637.32 609.49C617.48 608.95 598.22 604.24 580.36 594.75C577.05 592.99 572.57 592.94 568.63 592.95C556.59 592.96 544.54 593.26 532.51 593.74C529.55 593.86 525.99 594.29 523.82 596C507.18 609.05 486.59 609.76 467.32 614.49C444.19 620.17 420.58 624.32 398.03 631.71C384.38 636.17 372.37 645.5 359.45 653.52Z" fill="#111F22"/>
<path d="M584.3 561.99C582.39 561.57 581.38 561.47 579.62 561.24C579.62 555.71 580.36 550.32 581.65 543.23C600.96 532.5 621.43 528.81 641.2 522.97C647.6 521.09 652.55 524.6 654.49 530.93C656.59 537.81 654.15 543.31 647.16 545.52C626.74 551.99 606.53 559.25 584.3 561.99Z" fill="#CCC7B5"/>
<path d="M542.98 552.5C541.76 541.12 547.59 534.41 557.92 530.25C564.87 527.45 571.56 523.73 577.87 519.66C593.07 509.86 609.48 509.94 627.25 513.07C627.02 517.77 623.18 517.57 619.96 518.33C604.8 521.92 591.07 527.78 581.65 542.2C581.02 542.77 580.95 542.93 580.99 543C568.67 546.21 556.3 549.35 542.98 552.5Z" fill="#111F22"/>
<path d="M279.69 630.22C278.03 622.67 279.44 616.07 287.53 613.69C298.22 610.54 309.34 605.1 319.83 616.45C312.62 619.83 304.7 623 296.65 625.78C291.38 627.59 285.93 628.84 279.69 630.22Z" fill="#111F22"/>
<path d="M513.07 562.08C512.2 557.37 510.44 551.24 512.75 548.03C514.83 545.14 521.38 545.46 525.95 544.36C526.33 548.25 526.7 552.15 527.69 556.49C523.53 558.6 518.74 560.26 513.07 562.08Z" fill="#111F22"/>
<path d="M344.22 611.75C344.18 607.75 344.94 603.77 345.69 599.79C348.72 601.74 351.75 603.69 354.87 606.41C351.64 608.71 348.33 610.24 344.22 611.75Z" fill="#111F22"/>
<path d="M606.54 721.3C576.5 714.58 546.39 707.2 516.43 699.25C491.2 692.55 466.14 685.2 440.28 677.59C444.93 674.17 446.89 671.31 440.09 667.56C436.49 665.57 433.25 662.9 429.89 660.49C427.58 658.84 425.34 657.09 423.07 655.38C426.15 653.29 428.97 650.1 432.36 649.29C453.05 644.33 474.01 640.48 494.58 635.11C508.19 631.56 521.67 626.91 534.55 621.28C555.41 612.16 575.3 609.49 597.64 618.31C623.54 628.53 651.5 625.03 678.41 621.96C709.15 618.45 732.14 601.25 746.9 574.16C750.77 567.06 752.35 558.52 753.99 550.43C757.73 532.01 773.12 524.37 791.02 530.26C812 537.16 833.66 541.96 855.05 547.63C864.15 550.04 873.28 552.33 882.38 554.72C901.67 559.78 920.83 565.44 940.29 569.73C951.07 572.11 962.32 572.61 973.39 573.24C980.8 573.66 999.64 592.62 998.42 600.24C998.01 602.81 994.72 606.07 992.05 606.97C968.59 614.88 945.02 622.51 921.38 629.85C894.76 638.11 868.16 646.47 841.31 653.93C809.69 662.71 777.72 670.24 746.06 678.9C714.05 687.66 682.33 697.48 650.29 706.11C639.7 708.96 628.55 710.06 617.58 711.01C611.04 711.56 605.97 712.21 606.54 721.3Z" fill="#111F22"/>
<path d="M269.56 625.01C257.47 622.82 245.3 620 233.28 616.63C213.94 611.22 194.7 605.46 174.81 599.21C175.69 598.22 177.16 597.74 178.67 597.55C183.17 596.99 187.69 596.54 192.2 596.05C188.81 592.65 185.41 589.25 182.02 585.85C181.48 585.31 180.99 584.71 180.43 584.18C175.36 579.35 168.71 573.69 174.49 566.98C176.95 564.12 185.4 566.56 191.11 566.28C198.89 565.9 207.86 567.53 214.16 564.21C226.68 557.61 243.89 559.43 251.79 544.22C252.14 543.55 254.03 543.09 254.93 543.38C276 550 293.46 536.58 312.57 532.71C330.09 529.17 347.01 522.74 364.23 517.71C384.17 511.89 404.1 506.03 424.12 500.54C443.47 495.23 463.14 491 482.29 485.1C498.89 479.99 514.93 473.08 531.31 467.25C534.23 466.21 537.7 466.82 540.82 466.19C544.99 465.36 549.07 464.09 553.17 462.96C553.46 462.88 553.71 462.07 553.84 462.1C571.56 466.66 580.12 447.85 595.65 445.84C605.49 444.56 615.1 440.29 624.41 436.41C633.64 432.57 652.51 434.56 660.27 441.08C663.18 443.52 666.15 446.7 669.59 447.55C684.44 451.23 688.2 464.81 694.4 475.57C696.92 479.95 694.6 487.24 694.11 493.18C693.32 502.93 685.59 498.15 680.75 499.16C673.83 500.6 666.81 502.54 659.83 502.53C651.64 502.52 643.38 503.72 636.35 495.14C633.67 491.87 622.32 495.09 615.07 496.29C606.26 497.75 596.72 498.52 589.12 502.61C578.09 508.55 564.62 507.98 555.04 518.59C547.1 527.39 535.96 532.35 522.89 534.41C508.14 536.72 494.23 544.05 479.77 548.6C450.27 557.89 420.78 567.24 391 575.58C379.91 578.68 367.81 578.07 356.6 580.86C346.02 583.49 336.17 588.9 325.7 592.12C312.25 596.25 298.5 599.4 284.89 603.01C272.37 606.3 267.13 613.53 269.56 625.01Z" fill="#111F22"/>
<path d="M720.85 473.69C724.5 487.25 737.27 484.26 745.58 486.89C773.26 495.64 801.47 502.78 829.58 510.12C849.38 515.29 869.46 519.38 889.21 524.68C915.46 531.72 941.45 539.75 967.69 546.81C987.44 552.13 1007.52 556.24 1027.28 561.53C1047.31 566.89 1067.1 573.14 1087.04 578.79C1094.31 580.85 1101.77 582.21 1109.08 584.16C1111.95 584.93 1114.62 586.45 1117.38 587.62C1114.55 588.98 1111.84 590.8 1108.86 591.63C1089.56 597.04 1070.18 602.15 1050.88 607.53C1021.75 615.64 992.66 623.92 963.53 632.07C929.3 641.65 895.01 651.02 860.83 660.76C825.5 670.83 790.32 681.46 754.96 691.43C730.16 698.42 705.27 705.12 680.22 711.18C661.1 715.8 641.68 719.22 621.37 723.03C621.35 721.41 622.08 718.93 623.38 718.59C659.5 709.04 695.73 699.89 731.83 690.27C751.68 684.98 771.27 678.73 791.1 673.35C808.04 668.76 825.25 665.15 842.15 660.43C856.76 656.36 871.06 651.17 885.59 646.79C911.51 638.98 937.52 631.45 963.47 623.72C977.69 619.49 991.83 614.94 1006.08 610.79C1015.9 607.93 1025.83 605.47 1035.72 602.9C1039.03 602.04 1043.05 602.31 1045.62 600.48C1050.33 597.14 1054.21 592.62 1058.44 588.6C1054.26 585.89 1050.43 581.97 1045.85 580.67C1017.36 572.55 988.76 564.77 960.08 557.37C925.84 548.53 891.52 540.02 857.15 531.69C833.17 525.88 808.87 521.28 785.05 514.89C764.27 509.32 743.73 502.65 723.53 495.24C708.86 489.86 710.36 475.17 708.41 463.02C708.18 461.6 711.89 457.95 712.8 458.25C715.27 459.07 718.22 461.07 719.14 463.34C720.37 466.38 719.86 470.11 720.85 473.69Z" fill="#111F22"/>
<path d="M581.93 542.83C588.43 520.7 607.95 518.31 627.43 514.08C629.68 513.41 631.24 513.38 633.53 513.08C635.17 512.2 636.17 511.9 638 512.31C645.79 512.74 652.85 512.85 660.95 512.79C662.94 512.11 663.95 511.92 665.73 512.35C675.48 515.04 684.97 516.33 693.43 520.01C701.8 523.65 709.12 529.68 717.28 535.36C724.38 560.06 716.28 572.8 692.29 580.29C668.34 587.78 644.07 588.62 620.2 583.76C606.78 581.03 591.06 578.42 583.49 562.48C603.69 555.52 623.87 548.87 644.38 543.47C651.93 541.48 654.2 537.63 652.28 531.34C650.14 524.34 644.98 524.43 638.44 526.52C620.05 532.4 601.39 537.49 581.93 542.83Z" fill="#E1FF01"/>
<path d="M433.32 673.62C429.07 673.53 424.75 672.63 419.81 671.21C425.44 661.07 429.34 666.99 433.32 673.62Z" fill="#111F22"/>
<path d="M319.28 608.39C319.55 607.36 320.2 606.72 320.89 606.14C320.91 606.12 321.38 606.65 321.64 606.92C320.98 607.54 320.32 608.17 319.28 608.39Z" fill="#111F22"/>
<path d="M151.77 592.6C150.56 593.14 149.24 593.01 147.48 592.36C148.59 591.87 150.12 591.9 151.77 592.6Z" fill="#111F22"/>
<path d="M666.12 512.24C665.46 512.77 664.47 512.84 662.74 512.77C663.27 512.35 664.52 512.07 666.12 512.24Z" fill="#111F22"/>
<path d="M638.39 512.18C637.76 512.75 636.76 512.88 635.02 512.91C635.52 512.46 636.78 512.09 638.39 512.18Z" fill="#111F22"/>
<path d="M405.56 666.9C405.71 667.25 404.6 667.16 404.09 666.93C404.18 665.96 404.79 665.92 405.56 666.9Z" fill="#111F22"/>
<path d="M1138.81 666.55C1138.79 695.6 1138.66 723.78 1138.52 751.95C1138.35 785.32 1121.97 808 1090.37 818.34C1087.14 819.4 1083.58 819.43 1079.5 820.32C1077.22 823.67 1074.23 824.1 1071.45 824.01C1052.54 823.41 1033.52 823.8 1014.28 818.49C993.729 807.63 987.449 789.17 984.439 768.75C980.298 740.72 972.239 713.84 960.569 688.04C953.969 673.45 935.969 666.5 921.178 672.62C917.418 674.18 917.309 677.23 917.079 680.38C916.759 684.77 917.159 689.31 913.479 693.5C909.629 710.27 906.078 726.53 903.178 742.91C899.559 763.32 896.439 783.82 893.139 804.29C891.339 815.47 888.629 826.63 888.089 837.88C887.179 856.85 867.708 874.54 850.678 872.87C843.468 872.16 836.139 872.67 827.979 872.73C816.869 875.01 807.319 871.21 796.779 869.23C772.999 861.2 761.559 845.13 759.618 820.92C756.508 782.17 750.689 743.66 747.209 704.97C744.659 676.7 740.489 648.29 742.779 619.75C744.179 602.36 735.039 591.9 721.689 583.52C709.799 576.06 696.249 572.24 683.709 566.22C672.609 560.9 661.039 556.36 650.929 547.77C649.249 540.7 654.779 541.36 658.169 540.17C669.709 536.15 681.959 534.28 692.999 528.77C706.379 522.1 718.449 513.78 726.859 501.01C728.249 498.9 730.039 497.11 733.069 495.79C749.459 499.66 765.489 502.48 779.979 510.77C796.309 520.12 813.479 527.96 829.919 536.54C833.189 534.84 832.059 531.71 833.729 529.07C839.549 525.22 843.639 529.08 848.069 531.14C881.889 546.86 900.119 575.42 912.399 609.71C913.519 618.69 915.919 626.62 918.229 634.47C923.689 635.52 927.519 631.71 932.829 631.41C938.779 631.85 941.369 636.37 945.149 639.09C955.859 646.79 961.769 644.22 963.269 631.09C963.559 628.57 963.619 626.03 965.199 623.09C976.159 613.58 979.339 601.25 979.949 588.49C981.299 560.29 980.959 532.15 969.769 505.41C968.559 502.51 967.858 499.36 969.118 495.48C986.529 489.27 1003.8 484.54 1020.35 477.96C1057.79 463.1 1081.4 476.8 1101.98 507.38C1119.97 534.1 1128.41 564.73 1132.77 596.22C1135.92 619.21 1136.79 642.51 1138.81 666.55Z" fill="#9F9B8D"/>
<path d="M835.279 528.2C834.659 533.02 834.459 537.29 834.229 542.16C801.549 524.89 770.639 505.89 734.399 497.1C734.509 491.34 732.939 487.16 728.549 483.01C716.239 471.41 707.539 457.19 700.829 441.68C687.969 411.97 679.659 381 675.129 349.01C673.809 339.67 675.449 330.17 674.499 320.11C675.479 303.02 677.089 286.79 684.349 270.97C687.319 264.96 689.989 259.69 695.189 256.1C709.239 246.38 721.329 247.04 734.459 259.14C747.229 270.91 755.129 286.03 761.989 301.67C764.259 306.85 766.579 312.02 768.939 317.94C769.389 319.02 769.549 319.46 769.899 320.57C770.669 324.36 771.479 327.4 773.469 330.74C779.119 344.2 783.619 357.38 789.079 370.91C789.749 375.14 791.599 378.03 794.169 381.3C800.019 392.32 804.799 403.2 812.429 413.2C814.589 416.69 816.279 419.7 819.149 422.7C831.359 437.16 845.489 448.2 861.459 456.94C863.679 458.16 865.869 459.41 867.939 460.9C872.169 463.94 873.079 467.17 868.669 470.82C864.959 473.89 862.519 478.02 859.049 482.19C849.459 492.63 843.519 504.26 839.929 517.21C838.899 520.83 838.059 524.57 835.279 528.2Z" fill="#7C8C01"/>
<path d="M653.298 667.33C654.838 654.89 645.958 646.39 641.838 636.2C635.108 619.56 628.828 602.74 621.998 585.44C621.058 580.09 620.478 575.31 619.888 569.74C625.468 555.36 635.828 547.66 650.578 545.05C669.328 554.43 687.488 563.38 705.608 572.42C712.598 575.91 719.978 578.91 726.338 583.34C738.258 591.63 745.498 601.66 745.848 618.11C746.588 653.66 749.698 689.2 752.818 724.66C755.908 759.77 760.108 794.78 764.008 829.81C766.198 849.44 778.598 860.19 796.818 866.51C794.208 870.03 790.368 869.89 786.658 869.92C774.508 870.02 762.478 868.77 749.798 865.91C736.478 863.81 729.838 858.16 726.508 846.64C715.018 806.91 704.188 766.97 691.558 727.6C685.808 709.68 676.408 692.94 668.728 675.63C665.868 669.19 661.328 665.93 653.298 667.33Z" fill="#7B786D"/>
<path d="M832.058 242.31C857.568 261.38 879.258 283.9 898.868 308.71C931.308 349.75 954.639 395.49 971.749 444.63C975.678 455.91 978.839 467.46 981.629 479.02C975.749 479.12 971.039 481.68 965.219 481.78C948.629 484.53 934.889 491.26 923.789 504.12C918.739 509.99 917.979 517.28 914.589 523.58C906.199 521.51 902.649 514.78 898.769 509.03C895.049 503.52 891.319 500.73 884.159 503.97C877.289 502.78 873.999 498.56 871.969 492.28C872.979 481.17 872.038 470.84 869.738 460.91C866.598 447.33 865.269 433.49 863.079 419.81C854.379 365.31 847.989 310.38 829.939 257.78C828.239 252.84 826.628 247.35 832.058 242.31Z" fill="#7C8C01"/>
<path d="M832.029 241.73C833.629 251.22 832.749 261.21 835.759 269.84C847.139 302.47 853.149 336.1 857.579 370.2C860.119 389.76 864.009 409.15 867.169 428.63C870.279 447.81 873.319 467 876.129 486.23C876.349 487.78 874.459 489.63 872.869 491.42C865.229 491.88 861.329 487.4 857.629 481.75C861.869 475.84 866.199 470.61 870.849 464.99C851.479 453.93 832.109 442.72 817.569 424.21C818.549 419.17 823.059 420.06 826.389 418.93C835.359 415.88 845.229 414.97 852.359 407.17C839.089 409.47 826.559 415.3 812.309 415.2C805.429 404.54 799.169 394.14 792.919 383.05C795.609 378.41 799.849 378.43 803.919 378.08C809.559 377.59 815.089 376.78 820.989 372.32C814.899 370.13 810.359 372.46 805.809 373.26C799.989 374.29 794.239 376.87 787.839 373.31C782.359 359.48 777.349 346.11 772.239 332.06C775.629 327.52 780.329 328.59 784.609 328.58C799.769 328.54 813.899 324.06 827.899 318.96C830.369 318.06 833.409 317.22 833.879 312.37C812.649 319.84 791.809 327.04 768.719 322.43C768.099 321.62 768.109 321.21 768.019 320.2C761.729 305.85 762.129 290.74 759.139 276.34C756.449 263.35 753.279 250.6 748.619 238.2C747.839 236.11 747.329 233.98 748.599 231.11C752.209 228.63 755.339 226.8 759.069 224.82C762.959 225.22 762.739 228.29 763.569 230.45C767.679 241.16 775.849 246.52 786.839 246.57C796.859 246.62 804.029 241.22 807.989 231.02C808.749 229.56 809.389 228.89 810.859 228.23C814.349 238.22 823.759 238.57 832.029 241.73Z" fill="#F1EEE5"/>
<path d="M651.638 545.01C638.138 549.05 629.218 558.2 620.388 568.54C613.638 569.53 611.158 566.9 612.688 560.66C619.748 531.84 625.809 502.73 634.059 474.26C643.399 442.01 655.738 410.61 664.708 378.27C669.858 359.67 670.909 339.93 674.279 320.07C679.269 346.06 682.049 373.13 688.729 399.2C697.409 433.02 709.748 465.74 738.938 489.29C737.288 491.42 735.658 493.53 733.868 496.28C720.988 514.32 705.328 528 684.558 534.88C673.838 538.43 662.908 541.37 651.638 545.01Z" fill="#CCC7B5"/>
<path d="M760.929 189.75C750.649 191.77 744.249 188.43 740.929 178.56C739.949 175.65 736.059 173 732.889 171.69C723.149 167.65 717.659 161.45 718.639 150.29C719.539 139.95 712.689 129.66 718.599 119.14C720.519 115.71 721.269 111.62 722.779 107.09C723.819 97.7998 729.889 92.2998 735.119 86.5598C743.899 76.9198 753.589 68.2998 767.489 65.0098C778.119 60.8898 788.289 57.2698 797.939 52.5898C806.949 48.2198 814.609 48.9898 822.339 55.2098C824.259 56.7498 828.149 57.8798 830.119 56.9798C847.019 49.1998 851.069 55.0998 855.919 66.0198C867.289 64.0498 873.549 71.7798 872.079 85.3198C870.089 103.61 864.009 119.5 846.929 129.9C839.469 128.32 839.939 120.09 834.949 117.09C832.799 116.88 831.539 117.95 830.839 119.36C826.439 128.28 819.609 133.49 809.469 134.42C803.519 134.97 801.319 139.88 799.489 144.7C797.609 149.67 794.709 153.58 789.579 155.49C781.889 158.36 775.919 155.53 773.409 147.72C772.829 145.92 772.539 144.02 771.559 142.37C768.209 136.68 761.209 134.59 756.019 137.7C750.899 140.77 749.339 150.36 754.849 155.27C766.089 165.31 763.599 177.12 760.929 189.75Z" fill="#111F22"/>
<path d="M760.459 191.12C760.439 184.83 760.289 179.44 760.589 174.07C760.949 167.58 760.509 162.52 753.649 158.37C746.989 154.35 746.879 145.6 750.129 139.59C751.999 136.15 759.649 133.09 763.489 134.16C768.209 135.48 773.489 140.65 775.159 145.35C776.809 149.99 777.959 154.71 782.769 154.03C787.459 153.36 794.659 150.42 795.599 147.04C798.689 135.93 805.009 131.15 816.029 129.93C819.419 129.56 822.939 126.02 825.449 123.1C828.449 119.62 830.429 115.25 833.769 109.78C838.199 116.81 841.959 122.78 845.979 129.37C852.779 149.19 854.749 168.32 846.479 187.65C839.019 205.08 832.169 208.32 812.679 202.35C805.929 206.02 800.519 201.65 794.839 200.89C789.539 200.18 784.669 197.84 778.849 196.38C777.449 195.69 776.739 195.18 775.649 194.18C774.169 194.18 775.089 191.77 774.179 192.95C775.199 193.8 775.739 194.37 776.709 195.39C784.079 207.52 795.519 214.89 804.639 224.48C806.359 226.29 808.789 227.46 809.829 230.7C808.189 244.07 794.889 249.85 785.259 249.23C771.489 248.34 762.369 239.76 759.949 225.35C759.939 213.79 760.229 202.91 760.459 191.12Z" fill="#A95138"/>
<path d="M722.889 104.44C712.019 106.91 701.619 110.31 691.179 110.41C676.419 110.55 667.949 102.74 675.589 85.73C662.689 79.61 661.659 74.3 672.049 64.22C678.829 57.64 686.399 52.56 685.049 40.68C684.209 33.29 693.789 28.13 702.539 29.53C711.229 30.92 719.419 32.39 728.089 27.66C731.309 25.9 737.979 27.96 741.809 30.32C752.609 36.99 760.469 46.34 762.569 60.2C762.059 61.75 761.449 62.58 760.539 62.81C739.009 68.25 726.959 82.25 722.889 104.44Z" fill="#111F22"/>
<path d="M921.638 504.3C930.828 496.89 939.548 489.76 948.888 483.57C952.598 481.11 957.708 480.76 962.908 479.44C966.908 481.96 968.528 485.22 967.898 490.09C967.958 491.93 968.218 493.09 969.028 494.55C981.278 525.21 985.538 556.72 982.688 589.01C981.538 601.99 979.718 615.44 966.898 624.22C960.498 620.06 961.928 613.05 960.288 607.21C954.488 586.57 945.468 567.81 930.118 552.48C928.778 551.14 927.728 549.56 926.898 547.06C927.218 539.76 926.688 532.97 929.748 526.81C932.738 520.78 931.608 515.96 926.398 511.74C924.208 509.96 922.068 507.94 921.638 504.3Z" fill="#A94F36"/>
<path d="M748.498 230.05C751.698 239.06 755.028 247.5 756.818 256.26C760.988 276.78 764.419 297.46 768.029 318.84C760.339 304.91 752.789 290.2 745.159 275.53C744.289 273.87 742.958 272.45 741.878 270.89C724.388 245.74 703.728 245.31 685.198 270.04C687.218 252.13 704.929 232.66 722.599 228.54C727.169 227.48 731.678 226.18 736.258 225.16C741.058 224.1 745.568 224.13 748.498 230.05Z" fill="#CCC7B5"/>
<path d="M810.339 230.79C798.559 219.57 787.029 207.81 775.419 195.38C775.339 194.71 775.498 193.86 775.928 193.8C787.708 196.49 799.069 199.26 811.199 202.16C811.729 210.35 811.489 218.4 811.399 227.3C811.229 228.84 810.909 229.55 810.339 230.79Z" fill="#111F22"/>
<path d="M722.509 105.36C722.799 81.8201 739.879 62.4301 761.779 61.0801C764.269 61.9001 765.989 62.8701 767.929 64.4001C749.719 74.5301 733.739 86.7501 723.499 106.04C723.009 106.35 722.579 105.73 722.509 105.36Z" fill="#D8A525"/>
<path d="M968.279 490.54C966.429 487.44 965.179 484.09 963.779 480.1C969.049 479.02 974.469 478.6 980.389 478.68C976.899 482.88 972.889 486.59 968.279 490.54Z" fill="#1A204A"/>
<path d="M820.879 927.09C843.089 938.8 860.259 955.07 874.399 974.49C880.839 983.33 878.459 989.91 867.819 992.73C861.599 994.38 854.359 995.1 848.209 993.62C812.399 985.05 776.009 982.59 739.419 980.69C727.829 980.09 715.939 976.54 705.129 972.07C695.069 967.92 693.659 960.06 699.839 951.33C707.609 940.35 715.809 929.61 724.569 919.42C727.029 916.56 732.139 915.98 736.779 914.31C739.469 912.95 741.629 912.58 743.859 913.18C765.609 919.04 787.659 922.89 810.209 923.84C813.629 923.99 817.119 924.79 820.879 927.09Z" fill="#CDE801"/>
<path d="M1080.97 866.48C1103.05 874.63 1120.94 887.7 1136.92 903.33C1146.11 912.32 1143.83 919.51 1131.19 922.56C1123.58 924.4 1115.64 925.27 1107.81 925.68C1081.92 927.05 1056 929.17 1030.13 928.74C1012.1 928.44 993.909 925.46 976.219 921.71C965.749 919.49 964.619 910.44 971.139 901.42C977.339 892.83 982.999 883.83 988.529 874.79C991.719 869.58 994.529 864.38 1002.47 864.54C1005.73 863.04 1008.51 861.95 1011.35 862.54C1034.12 867.21 1057.21 865.57 1080.97 866.48Z" fill="#CDE801"/>
<path d="M913.439 694.25C913.369 690.57 914.089 687.17 914.309 683.75C915.209 670.03 915.149 670.02 929.289 669.99C956.779 669.92 959.029 670.48 967.229 696.81C976.039 725.11 983.379 753.93 990.039 782.82C993.329 797.11 1000.89 806.89 1013 814.82C1010.9 818.09 1008.1 818.06 1004.33 816.56C987.579 814.18 981.719 801.11 975.039 789.45C961.959 766.64 950.069 743.12 936.429 720.65C930.549 710.97 921.569 703.17 913.439 694.25Z" fill="#7B786D"/>
<path d="M821.489 926.83C793.609 926.03 765.859 923.15 738.279 914.39C741.359 898.47 745.199 882.67 749.039 866.13C764.479 866 779.909 866.6 796.269 867.16C806.679 868.9 816.149 870.68 826.359 872.65C825.419 882.3 824.739 892.08 821.789 901.12C818.969 909.75 817.009 917.7 821.489 926.83Z" fill="#994437"/>
<path d="M1003.56 816.98C1006.22 815.97 1008.9 815.82 1012.37 815.56C1018.26 816.75 1023.3 818.91 1028.45 819.21C1044.68 820.14 1060.95 820.38 1078.02 820.8C1079.08 829.14 1079.12 837.58 1079.63 845.99C1080.02 852.5 1080.98 858.97 1081.71 866.2C1060.48 866.74 1039.22 866.62 1017.97 866.29C1013.61 866.22 1009.26 865.36 1004.04 864.68C1003.31 848.93 1003.44 833.38 1003.56 816.98Z" fill="#994437"/>
<path d="M927.609 545.51C949.659 567.13 961.349 593.2 966.109 623.65C966.209 626.66 966.649 629.02 965.959 630.98C964.209 635.94 963.129 643.21 959.589 644.88C955.869 646.62 949.299 643.57 944.529 641.39C940.759 639.67 937.829 636.09 933.889 633.14C924.069 627.89 918.509 619.11 911.009 611.39C902.839 595.95 896.329 580.19 887.249 566.07C875.279 547.47 856.079 537.36 835.569 528.75C837.779 511.12 843.979 495 856.969 481.39C862.129 484.35 866.719 487.64 871.739 491.21C875.729 495.08 879.279 498.65 883.499 502.35C900.509 514.64 914.199 529.55 927.609 545.51Z" fill="#994435"/>
<path d="M798.519 716.87C800.449 686.87 802.369 657.74 804.299 628.6C804.419 626.72 804.079 624.43 805.029 623.09C806.329 621.27 808.659 620.18 810.539 618.77C811.609 620.51 813.639 622.28 813.589 623.99C813.369 631.19 812.379 638.36 811.939 645.56C810.559 668.13 809.509 690.73 807.899 713.28C807.189 723.27 805.589 733.2 803.989 743.1C803.749 744.58 801.329 745.71 799.919 747C798.829 745.38 796.769 743.72 796.819 742.14C797.079 734 797.889 725.87 798.519 716.87Z" fill="#CDE801"/>
<path d="M1032.47 619.47C1028.75 609.44 1024.88 600.22 1021.82 590.75C1021.08 588.46 1023.07 585.3 1023.81 582.54C1025.85 583.97 1028.98 584.96 1029.77 586.9C1041.11 614.67 1052.25 642.54 1063.06 670.53C1064.06 673.12 1062.47 676.7 1062.09 679.82C1059.66 677.56 1056.2 675.75 1054.96 672.96C1047.23 655.49 1040 637.8 1032.47 619.47Z" fill="#CDE801"/>
<path d="M1094.86 593.24C1094.49 596.76 1093.81 599.6 1093.14 602.44C1090.77 600.29 1087.35 598.58 1086.21 595.9C1082.17 586.44 1079.43 576.41 1075.22 567.03C1069.96 555.31 1063.48 544.14 1058.11 532.46C1056.68 529.36 1057.38 525.28 1057.11 521.65C1060.12 523.81 1064.56 525.31 1065.92 528.24C1075.82 549.52 1085.1 571.09 1094.86 593.24Z" fill="#CDE801"/>
<path d="M872.698 762.94C871.218 771.74 870.098 779.81 868.068 787.64C867.588 789.5 864.079 790.57 861.969 792.01C861.379 789.82 859.968 787.49 860.318 785.47C863.098 769.45 866.188 753.47 869.248 737.5C869.598 735.66 869.908 733.46 871.068 732.21C872.538 730.63 874.869 729.85 876.829 728.73C877.759 730.8 879.789 733.09 879.419 734.9C877.539 744.04 875.018 753.06 872.698 762.94Z" fill="#CDE801"/>
<path d="M1107.08 659.16C1106.66 656.46 1106.06 654.46 1106.49 652.72C1107.15 650.03 1108.51 647.52 1109.58 644.93C1111.65 647.54 1115.42 650.09 1115.53 652.78C1116.12 667.58 1116.04 682.43 1115.63 697.24C1115.55 700 1112.91 702.69 1111.46 705.41C1110.09 705.18 1108.73 704.95 1107.36 704.72C1107.35 689.8 1107.35 674.89 1107.08 659.16Z" fill="#CDE801"/>
<path d="M864.518 631.16C867.558 634.95 872.168 639.17 872.158 643.39C872.128 654 870.278 664.64 868.508 675.16C868.188 677.07 864.758 678.45 862.768 680.08C861.768 678.35 859.858 676.59 859.928 674.91C860.478 661.2 861.378 647.5 862.288 633.8C862.318 633.04 863.388 632.33 864.518 631.16Z" fill="#CDE801"/>
<path d="M1081.63 752.57C1080.96 758.1 1080.69 762.86 1079.42 767.33C1078.97 768.92 1076.1 769.83 1074.34 771.06C1073.42 769.14 1071.69 767.21 1071.71 765.29C1071.78 755.03 1072.07 744.76 1072.82 734.53C1072.98 732.41 1075.46 730.46 1076.86 728.42C1078.45 730.19 1081.23 731.84 1081.42 733.75C1082.02 739.68 1081.64 745.7 1081.63 752.57Z" fill="#CDE801"/>
<path d="M910.529 611.72C915.189 614.9 920.039 618.68 924.569 622.81C927.569 625.54 930.109 628.77 933.059 632.35C927.559 635.08 921.869 637.24 915.849 639.51C913.969 629.87 912.279 621.17 910.529 611.72Z" fill="#E6E0DC"/>
<path d="M768.109 322.7C791.989 322.54 814.999 318.42 836.689 307.57C840.289 314.61 837.549 317.45 832.109 319.91C813.559 328.29 794.209 332.17 773.009 331.3C770.799 328.71 769.459 326.03 768.109 322.7Z" fill="#254147"/>
<path d="M811.809 415.55C824.199 411.13 836.649 407.08 849.269 403.7C851.579 403.08 854.619 405.19 857.319 406.04C855.849 408.13 854.789 411.43 852.839 412.1C841.349 416 829.659 419.28 817.519 423.3C815.319 421.27 813.619 418.71 811.809 415.55Z" fill="#254147"/>
<path d="M787.359 373.49C797.469 371.28 807.559 369.53 817.709 368.3C819.989 368.02 822.489 369.57 824.879 370.27C823.229 372.46 821.959 376.01 819.869 376.59C811.519 378.89 802.919 380.26 793.669 382.16C791.069 379.62 789.219 376.88 787.359 373.49Z" fill="#254147"/>
<path d="M928.239 545.59C913.259 532 898.799 517.84 884.249 503.07C886.989 501.15 889.819 499.84 893.079 498.33C899.559 506.38 906.119 514.53 912.669 522.66C915.549 516.02 918.099 510.15 921.259 503.96C922.689 504.57 923.359 505.67 924.329 506.38C933.319 512.94 937.369 520.27 930.689 531.28C928.489 534.91 929.319 540.38 928.239 545.59Z" fill="#D8A525"/>
<path d="M773.989 192.84C774.679 192.4 775.249 192.67 776.089 193.33C776.359 193.73 775.849 194.22 775.599 194.46C774.849 194.32 774.359 193.93 773.989 192.84Z" fill="#1A204A"/>
<path d="M773.749 192.49C773.419 192.2 773.219 191.8 773.019 191.4C773.279 191.44 773.549 191.47 773.959 191.82C774.109 192.13 773.869 192.38 773.749 192.49Z" fill="#1A204A"/>
<ellipse cx="822.346" cy="139.554" rx="4.15311" ry="4.84529" transform="rotate(15.0232 822.346 139.554)" fill="#111F22"/>
<ellipse cx="838.84" cy="139.066" rx="4.15311" ry="4.84529" transform="rotate(15.0232 838.84 139.066)" fill="#111F22"/>
<path d="M839.87 162.606C839.137 164.79 837.438 166.521 835.438 166.137C833.438 165.754 832.179 163.551 832.627 161.218C833.074 158.884 838.649 156.793 840.649 157.177C842.649 157.56 840.603 160.423 839.87 162.606Z" fill="#111F22"/>
</svg>
