<svg width="926" height="1195" viewBox="0 0 926 1195" fill="none" xmlns="http://www.w3.org/2000/svg">
<path d="M145.36 588.99C147.23 587.8 148.69 586.56 150.21 586.48C162.09 585.85 165.01 577.95 166.78 567.91C170.78 545.33 175.37 522.86 180.03 500.4C184.23 480.18 188.48 459.95 193.35 439.88C199.13 416.04 205.33 392.29 211.87 368.66C215.52 355.47 220.39 342.59 227.83 330.98C241.51 309.64 264.67 309.34 279.27 330.16C280.77 332.3 281.96 334.65 283.4 337.64C286.4 342.55 283.68 346.09 281.87 349.4C249.4 409.16 232.85 474.85 211.23 538.65C206.94 551.31 207.98 562.8 219.78 572.31C221.02 573.61 221.59 574.45 222.24 576.09C221.77 582.03 217.72 585.37 215.26 589.59C209.22 599.98 206.55 610.89 209.84 622.74C211.13 627.37 213.53 631.23 218.66 632.48C223.99 633.77 227.55 630.86 230.5 627.12C234.38 622.21 236.99 617.04 245.54 620.92C250.91 623.36 250.68 616.55 250.59 613.03C250.38 605.2 247.48 597.45 250.28 588.89C265.28 583.83 272.1 571.73 278.92 559.57C284.58 549.48 289.19 538.81 295.53 529.09C297.45 526.15 298.45 522.15 303.68 522.86C306.42 527.55 305.44 531.8 304.65 536.03C302.71 546.47 301.72 556.95 301.8 567.61C301.91 582.45 307.89 593.68 320.33 601.72C324.72 604.56 329.82 606.64 332.86 612.39C334.94 628.96 334.26 644.64 331.58 660.25C330.46 666.75 329.94 673.27 329.91 680.76C329.92 696.91 327.15 711.95 325.49 726.98C321.43 763.74 317.88 800.57 315.18 837.4C312.06 879.81 309.06 922.46 314.83 965.9C314.35 979.09 313.41 991.33 307.87 1003.51C300.29 1007.83 292.77 1005.95 284.65 1006.13C280.16 1005.65 276.48 1003.82 272.12 1006.28C268.05 1008.06 264.3 1008.64 260.29 1010.58C251.94 1011.79 246.84 1017.33 240.42 1021.92C227.89 1028.63 220.87 1039.32 214.26 1050.54C197.78 1078.5 185.64 1108.6 170.68 1138.09C170.23 1139.15 170.04 1139.57 169.56 1140.6C167.3 1144.7 165.6 1148.33 163.5 1152.5C161.74 1155.33 160.46 1157.65 159.41 1160.85C154.59 1171.33 150.23 1181.27 144.55 1191.28C140.72 1192.09 137.45 1192.79 134.18 1192.8C92.5 1192.89 50.82 1192.73 9.15002 1193.02C2.29002 1193.07 -0.589971 1191.67 0.960029 1184.22C4.36003 1167.87 7.32002 1151.42 10.39 1135.01C15.27 1108.9 19.72 1082.71 25.1 1056.7C28.29 1041.27 31.13 1025.79 33.88 1010.29C38.69 983.17 43.72 956.09 48.85 929.03C52.27 910.98 56.03 892.99 60.08 874.32C65.21 871.27 65.6 868 62.29 863.35C62.7 860.32 63.34 857.95 64.08 854.85C65.41 850.19 65.22 846.07 66.06 841.43C67.57 833.38 68.81 825.94 70.18 817.62C71.29 814.52 73.34 812.52 71.34 809.21C75.75 791.47 77.29 773.77 80.78 755.55C84.11 751.79 84.85 748.28 83.65 743.61C88.26 711.89 94.39 681.08 99.56 650.13C101.33 639.55 104.12 629.08 104.66 618.15C105.42 602.7 112.98 596.1 131.43 592.15C133.32 591.74 135.15 591.04 137.78 590.46C141.08 592.56 143.28 592.74 145.36 588.99Z" fill="#5E5C54"/>
<path d="M640.9 982.45C652.01 952.34 664.33 923.38 676.84 894.49C683.28 879.63 689.52 864.64 698.95 851.32C718 824.4 744.91 814.44 776.42 819.03C805.21 823.23 826.06 840.47 837.27 867.22C849.48 896.35 857.79 926.87 865.79 957.44C872.9 984.62 880.79 1011.6 887.96 1038.76C894.05 1061.81 899.53 1085.01 905.42 1108.11C909.94 1125.85 914.65 1143.54 919.31 1161.25C921.22 1168.52 923.43 1175.73 925.09 1183.06C926.57 1189.61 925.21 1193.71 916.8 1192.97C908.26 1192.22 899.6 1192.77 890.99 1192.77C773.13 1192.74 655.28 1192.72 536.51 1192.47C532.96 1188.19 535.32 1184.44 536.75 1180.97C544.21 1162.86 548.98 1143.96 552.79 1124.87C555.8 1109.76 563.56 1100.55 579.09 1098.29C584.65 1097.48 589.95 1095.44 595.44 1094.22C607.59 1091.5 613.22 1084.41 613.25 1071.98C613.25 1070 612.87 1067.95 613.45 1066.06C621.48 1039.97 624.59 1012.42 636.82 987.58C637.68 985.8 638.51 984.02 640.9 982.45Z" fill="#5E5C54"/>
<path d="M641.01 981.66C635.74 998.66 628.06 1014.87 624.66 1031.93C622.28 1043.9 617.58 1055.19 615.97 1066.98C615.03 1073.9 615.23 1080.3 612.06 1087.16C609.93 1091.75 607.85 1093.9 603.66 1094.99C593.55 1097.62 583.51 1100.64 573.26 1102.59C561.43 1104.84 557.76 1113.82 555.81 1123.37C551.1 1146.47 544.94 1169.05 535.63 1191.51C439.55 1192.3 343.53 1192.42 247.5 1192.22C238.47 1192.2 229.18 1196.75 219.99 1190.6C219.47 1189.27 219.48 1188.63 219.56 1187.99C219.84 1185.63 222.25 1181.81 218.7 1181.39C214.21 1180.86 215.88 1185.17 215.91 1188.5C210.35 1196.43 203.51 1193.61 196.33 1191.14C195.7 1190.31 195.47 1190.06 195.36 1189.76C194.54 1187.44 198.51 1183.29 193.62 1182.86C190.22 1182.56 191.29 1186.75 190.24 1189.64C181.84 1196.45 172.41 1193.5 163.55 1193.85C157.44 1194.09 151.17 1195.08 144.57 1192.37C145.77 1180.35 153.22 1171.36 157.52 1160.45C161.03 1158.78 167.82 1160.22 162.67 1152.8C162.69 1147.99 164.69 1144.45 167.44 1140.67C169.65 1150.13 181.07 1146.9 185.26 1153.35C185.87 1154.29 187.86 1153.5 188.25 1152.02C188.88 1149.61 187.35 1147.95 185.29 1147.79C179.14 1147.33 174.57 1143.09 168.43 1141C172.76 1125.08 180.96 1111.1 188.1 1096.69C198.1 1076.5 206.57 1055.41 220.08 1037.12C224.93 1030.55 230.07 1024.03 238.87 1021.16C248.57 1022.69 253.38 1016.78 258.46 1010.09C262.09 1007.17 265.56 1005.4 270.46 1005.64C273.56 1008.17 271.56 1010.54 271.13 1012.94C270.77 1014.93 270.58 1017.13 273.17 1017.44C275.74 1017.75 276.24 1015.49 276.34 1013.54C276.53 1009.87 277.19 1006.5 281.09 1003.93C289.48 1003.48 297.3 1003.39 306.01 1003.33C311.28 1007.71 308.91 1012.64 307.94 1017.34C307.08 1021.55 306.24 1025.76 305.25 1030.72C302.37 1036.99 297.33 1037.85 291.93 1038.37C289.22 1038.63 286.29 1039.92 287.9 1043.38C289.32 1046.43 291.92 1044.91 293.57 1043.3C298.71 1038.29 303.34 1043.32 308.93 1044.01C311.56 1044.79 313.44 1045.62 315.41 1045.68C347.72 1046.63 380.03 1046.67 412.33 1045.63C417.68 1045.46 422.59 1043.15 426.33 1039.03C430.65 1034.27 432.27 1028.8 430.12 1022.58C427.94 1016.27 423.27 1013.1 416.74 1012.57C409.5 1011.98 402.22 1012.66 394.98 1012.14C386.09 1011.5 384.2 1009.42 385.91 1001.04C387.16 994.91 387.09 988.55 389.63 981.87C412.42 959.52 436.66 940.86 467.68 933.27C479.89 930.28 492.13 927.3 504.83 927.29C509.49 927.28 514.08 926.82 519.43 925.37C539.97 924.37 559.65 924.92 579.34 924.91C582.3 924.91 585.25 925.2 588.63 927.32C605.64 934.81 614.48 949.42 624.65 962.48C629.69 968.94 634.64 975.42 641.01 981.66Z" fill="#CCC7B5"/>
<path d="M332.41 613.52C327.59 608.15 321.48 606.13 316.49 602.49C305.14 594.21 299.64 583.42 298.98 569.19C298.27 553.94 302.41 539.35 303.12 523.48C298.8 514.38 303.37 506.45 304.48 498.63C310.34 457.34 316.18 416.04 322.35 373.95C322.53 372.57 322.61 372.02 322.89 370.67C323.34 368.81 323.59 367.75 323.94 365.87C328.65 334.88 334.35 304.93 343.03 275.6C344.9 269.28 347.21 263.17 350.46 256.56C357.57 242.64 363.41 228.9 370.98 216.2C385.08 192.56 402.43 172.06 429.87 162.84C433.4 161.65 436.82 160.83 441.31 160.96C448.88 156.21 455.74 158.52 461.85 161.71C475.49 168.82 489.73 173.41 505.79 174.95C510.79 177.74 515.4 179.79 519.16 184.29C525.92 190.15 532.8 194.89 536.17 203.51C533.18 207.7 530.09 205.04 527.07 204.42C521.01 203.18 515.53 199.51 507.01 199.9C524.2 224.86 531.49 252.86 541.48 280.61C557.2 337.46 569.48 394.33 581.24 451.31C581.98 454.91 582.29 458.52 580.37 462.74C575.24 466.72 569.86 465.67 564.71 465.79C550.52 466.14 549.04 467.5 548.45 482.32C548.63 498.28 548.45 513.43 548.53 528.57C548.55 532.85 548.53 537.14 549.7 541.31C552.22 550.22 558.85 555.49 566.72 554.87C574.69 554.24 580.88 548.2 582 539.3C583.07 530.79 582.39 522.2 582.46 513.65C582.54 504.11 582.48 494.56 582.51 484.17C582.56 477.65 582.41 471.98 581.76 465.47C584.77 453.1 589.48 442.15 592.36 430.58C600.31 398.62 599.6 366.42 595.61 334.15C593.61 318 596.52 314.57 614.71 315.53C622.69 348.37 620.92 381 618.99 414.54C618.03 438.26 612.53 460.21 601.04 479.62C591.9 495.07 592.71 509.63 596.02 525.96C600.8 549.52 606.54 573.05 606.39 598.12C600.5 606.49 592 609.73 583.89 613.3C555.41 625.85 525.39 631.02 494.42 632.98C450.89 635.73 408.1 631.11 365.54 622.9C354.55 620.79 343.44 618.71 332.41 613.52Z" fill="#111F22"/>
<path d="M331.73 613.89C339.09 609.69 345.33 615.03 351.55 616.75C387.85 626.76 425.05 630.12 462.26 630.94C508.3 631.95 553.88 627.36 595.4 604.29C598.53 602.55 601.42 600.38 604.95 597.91C606.2 596.96 606.99 596.81 608.38 597.19C619.52 623 622.43 650.06 625.18 677.19C629.22 717.14 627.65 757.02 622.74 796.71C620.86 811.88 617.46 827.13 610.83 841.22C607.3 848.72 602.57 855.3 592.69 856.82C586.87 859.91 581.48 859.75 575.17 858.12C568.64 850.73 572.4 843 573.81 836.04C576.03 825.08 578.98 814.16 582.79 803.56C596.15 766.44 597.01 727.81 596.28 689.05C596.09 679.09 591.23 676.53 581.52 681.4C562.52 690.93 542.9 698.65 522.4 704.25C517.9 705.48 513.42 706.48 507.95 706.52C503.9 705.8 502.2 703.34 500.88 700.69C496.17 691.26 490.74 682.34 483.67 674.44C482.39 673.01 479.98 671.02 483.84 668.73C497.14 668.64 509.62 668.75 522.09 668.6C504.03 668.76 485.78 670.65 467.98 669.65C443.96 668.29 419.95 670.15 402.17 668.67C417.06 668.68 438.12 668.66 460.02 668.71C465.09 670.6 464 674.19 463.28 677.25C458.48 697.48 455 718.01 449.25 738.87C444.36 766.01 437.84 791.96 431.88 818C425.63 845.35 419.85 872.8 413.31 900.08C408.69 919.34 404.22 938.63 400.15 958.01C399.4 961.57 398.07 964.98 394.92 968.34C388.54 971.24 382.73 970.92 376.1 969.21C372.54 966.64 372.79 963.64 373.27 960.66C377.49 934.56 380.46 908.28 384.89 882.21C391.37 844.04 399.2 806.13 407.04 768.22C409.12 758.17 411.78 748.27 413.85 738.22C417.31 721.43 414.16 715.44 397.52 710.06C376.71 703.33 356.24 695.72 336.15 687.08C333.43 685.91 330.45 685.21 327.87 682.19C327.69 659.25 332.3 637.16 331.73 613.89Z" fill="#5F6B00"/>
<path d="M540.22 280.84C533.36 269.19 531.42 256.44 526.67 244.74C520.11 228.55 513.7 212.2 501.61 197.82C514.71 194.64 524.18 201.83 535.35 204.38C536.11 204.23 536.01 204.35 535.93 204.35C536.53 205.57 537.81 206.21 539.07 207.8C546.73 222.41 558.5 221.64 571.85 219.47C614.93 212.48 644.1 187.47 665.3 150.76C675.99 132.26 687.21 114.01 699.82 96.69C707.06 86.75 716.35 81.06 729.76 81.36C738.95 78.43 744.96 83.16 751.46 88.3C755.35 105.35 749.77 120.44 744.97 135.5C734.98 166.85 719.23 195.38 696.45 218.91C668.76 247.5 635.07 266.73 595.5 274.72C581.55 277.54 567.41 279.09 553.48 281.92C549.26 282.78 544.97 283.5 540.22 280.84Z" fill="#579AA8"/>
<path d="M539.6 281.19C581.92 275.64 623.49 269.39 660.48 245.04C697.83 220.45 722.22 186.57 738.4 145.88C745.35 128.4 751.16 110.57 750.46 90.44C754.57 86.97 756.67 89.92 759.22 93.19C773.48 108.39 773.59 125.19 768.1 143.24C759.85 170.33 749.11 196.29 734.12 220.35C707.31 263.39 671.58 295.78 622.92 312.54C620.76 313.29 618.8 314.62 616.06 315.89C609.17 315.35 604.47 320.33 598.32 320.42C594.65 320.47 596.56 323.71 596.96 325.8C602.77 355.43 603.01 385.36 598.8 415.01C596.43 431.72 591.96 448.44 583.7 464.43C581.94 465.83 580.88 465.14 579.73 463.44C578.08 444.44 573.23 426.7 569.45 408.78C563.79 381.94 557.69 355.18 551.45 328.46C547.83 312.89 543.59 297.47 539.6 281.19Z" fill="#3E6D77"/>
<path d="M350.26 256.1C350.25 268.49 344.67 279.86 341.5 291.8C335.01 316.18 330.99 340.94 326.78 366.56C326.5 368.01 326.16 368.54 325.36 369.33C325.04 369.68 325.05 369.64 325.06 369.63C323.8 374.34 322.44 379.1 320.36 383.47C299.52 427.19 285.6 473.46 269.86 519.07C262.51 540.39 251.02 559.1 231.85 572.18C228.5 574.46 225.48 577.08 220.39 574.79C205.9 565.48 202.31 555.57 208.47 537.83C224.71 491.12 237.47 443.22 256.11 397.37C264.1 377.73 274.18 358.93 283.42 339.07C294.79 323.74 303.04 307.07 314.67 292.63C325.26 279.46 336.18 266.73 350.26 256.1Z" fill="#579AA8"/>
<path d="M572.67 855.6C579.01 856.35 584.55 856.54 591.03 856.86C591.76 865.59 591.7 874.19 591.27 882.77C591.06 887.04 592.43 888.66 596.86 888.43C603.79 888.07 610.75 888.02 617.68 888.31C629.3 888.79 636.27 895.49 637.07 906.43C637.82 916.76 630.98 925.4 619.86 926.6C610.37 927.63 600.73 927.37 590.24 927.82C566.11 927.99 542.89 928.02 518.75 928C511.97 926.9 511.39 922.45 511.02 917.69C510.28 908.22 512.14 898.89 512.26 888.57C514.65 877.51 510.69 866.85 515.39 856.12C534.64 851.75 553.25 852.31 572.67 855.6Z" fill="#1A2223"/>
<path d="M508.1 176.54C490.7 177.54 475.45 172.25 461.03 164.22C455.56 161.17 449.82 160.76 442.99 160.97C442.17 146.06 442.2 131.19 442.28 116.32C442.36 100.8 449.67 93.3801 465.04 93.3001C477.27 93.2301 489.5 93.2301 501.73 93.3401C505.2 93.3701 507.68 93.0201 509.64 89.2601C515.3 78.3901 522.67 74.6901 530.06 78.1301C537.26 81.4901 542.68 95.6101 539.02 103.88C535.78 111.21 530.89 117.51 520.72 117.42C513.01 117.02 509.94 120.03 510.44 127.18C510.82 132.57 510 137.68 503.83 140.07C501.37 141.03 499.96 143.53 502.74 145.33C515.62 153.6 510.08 165.21 508.1 176.54Z" fill="#3B3A35"/>
<path d="M609.37 597.01C608.16 597.49 607.39 597.51 606.05 597.47C602.08 576.36 598.76 555.29 595.24 534.26C593.62 524.57 591.74 514.92 589.68 505.31C588.9 501.69 588.05 498.45 590.26 494.92C605.33 470.87 612.84 444.14 618.36 415.99C625.16 441.35 628.22 467.77 631.03 494.22C632.52 508.28 635.44 522.11 635.28 536.46C635.02 560.24 626.87 580.14 609.37 597.01Z" fill="#3E6D77"/>
<path d="M760.06 93.33C756.96 92.44 754.36 91.04 751.13 89.59C745.18 84.96 738.53 83.46 731.33 81.39C737.4 57.72 744.42 34.26 754.31 11.78C755.37 9.37996 756.89 7.17996 757.82 4.73996C759.1 1.35996 761.24 -0.210041 764.64 1.22996C767.45 2.40996 768.09 4.89996 767.56 7.86996C766.93 11.42 767.32 15.34 765.95 18.53C760.32 31.63 760.44 41.26 775.86 48.51C784.78 52.7 784.6 61.75 778.24 70.54C772.69 78.2 766.48 85.4 760.06 93.33Z" fill="#DBB385"/>
<path d="M507.74 177.61C507.6 171.06 507.74 165.17 507.78 159.27C507.81 154.19 509.22 148.36 500.56 148.86C497.42 149.04 496.73 145.47 496.79 142.93C496.85 140.39 497.6 137.07 500.95 137.3C508.86 137.82 507.98 132.62 507.84 127.67C507.78 125.7 507.75 123.73 507.85 121.77C508.28 112.94 510.55 111.89 519.36 117.09C519.91 139.31 519.86 161.14 519.74 183.89C515.34 183.41 511.37 181.35 507.74 177.61Z" fill="#DBB385"/>
<path d="M216.48 1189.33C213.38 1186.31 209.57 1183.86 214.63 1179.73C217.4 1177.47 220.24 1176.67 222.17 1179.42C224.29 1182.45 226.19 1186.57 220.08 1189.31C218.8 1189.77 217.96 1189.63 216.48 1189.33Z" fill="#5E5C54"/>
<path d="M190.66 1190.37C188.4 1186.86 185.55 1183.37 190.06 1180.19C192.88 1178.2 195.89 1178.87 198.02 1181.21C200.94 1184.4 199.61 1187.16 196.05 1189.9C194.38 1190.55 192.89 1190.53 190.66 1190.37Z" fill="#5E5C54"/>
<path d="M61.54 862.93C65.26 864.36 68.79 865.99 68.05 870.38C67.52 873.52 64.84 874.06 61.3 873.71C60.27 870.14 56.39 866.5 61.54 862.93Z" fill="#CCC7B5"/>
<path d="M83.16 743.08C88.06 747.47 89.94 751.67 81.63 754.65C78.67 750.49 77.73 746.47 83.16 743.08Z" fill="#CCC7B5"/>
<path d="M65.9 841.22C65.4 845.01 71.5901 849.71 64.8801 853.85C56.5201 849.18 62.43 845.55 65.9 841.22Z" fill="#CCC7B5"/>
<path d="M70.58 808.56C73.46 808.86 76 809.06 76.02 812.14C76.04 814.86 74 815.97 70.98 816.61C67.06 814.12 67.4 811.37 70.58 808.56Z" fill="#CCC7B5"/>
<path d="M145.09 588.38C145.66 591.13 147.42 594.52 143.41 595.66C140.47 596.49 138.48 595.27 138.52 591.15C139.96 588.12 142.25 588.32 145.09 588.38Z" fill="#CCC7B5"/>
<path d="M539.51 207.68C538.32 207.4 537.17 206.46 535.93 204.93C538.04 203.92 539.16 204.96 539.51 207.68Z" fill="#CCC7B5"/>
<path d="M327.21 682.46C349.14 689.57 370.94 697.54 392.75 705.49C394.6 706.17 396.45 706.85 398.34 707.37C416.08 712.17 420.57 720.1 416.78 737.69C407.93 778.71 398.73 819.67 391.1 860.91C385.2 892.8 381.49 925.09 376.75 957.2C376.32 960.11 375.45 962.97 374.77 966.63C373.5 969.12 371.67 970.16 369.71 970.21C351.32 970.7 332.9 972.58 313.73 968.66C308.22 948.76 307.95 928.99 308.56 909.27C309.98 863.05 313.57 816.98 318.41 770.96C321.49 741.79 323.87 712.5 327.21 682.46Z" fill="#7C8C01"/>
<path d="M312.84 968.93C332.9 968.04 352.91 967.92 373.84 967.61C380.72 967.58 386.69 967.74 393.54 967.86C398.57 972.23 395.57 976.1 393.03 980.73C390.79 989.67 388.89 997.9 387.29 1006.18C386.53 1010.09 389.85 1009.21 391.85 1009.24C399.78 1009.35 407.7 1009.19 415.63 1009.29C425.31 1009.4 432.67 1014.78 434.12 1023.4C435.69 1032.7 432.24 1040.22 424.11 1045.12C419.84 1047.7 415 1048.7 409.91 1048.69C379.19 1048.63 348.48 1048.67 317.76 1048.71C314.07 1048.72 310.5 1048.4 306.95 1045.41C304.25 1041.6 304.6 1037.7 303.24 1033.6C302.26 1023.32 307.77 1014.63 307.01 1004.21C308.87 992.14 310.83 980.93 312.84 968.93Z" fill="#1A2223"/>
<path d="M219.95 574.84C231.79 572.13 239.47 563.41 247.06 554.97C258.7 542.01 265.41 526.12 270.63 509.85C285.87 462.4 301.32 415.06 324.51 370.03C322.49 389.71 320.05 409.83 317.3 429.89C314.05 453.53 310.62 477.15 307.1 500.76C306.09 507.55 304.52 514.25 303.16 521.81C294.29 533.15 289.72 546.15 282.7 557.73C278.63 564.43 274.6 571.16 270.5 577.84C266.45 584.43 260.68 588.18 251.99 588.33C239.74 589.85 232.04 581.45 222.18 576.92C221.11 576.09 220.6 575.73 219.95 574.84Z" fill="#3E6D77"/>
<path d="M221.42 576.93C231.89 578.29 240.1 584.97 250.5 588.23C251.92 597.59 252.77 606.78 253.34 615.99C253.57 619.68 253.05 623.56 249.22 625.35C245.95 626.88 243.69 624.75 241.71 622.22C238.96 618.71 236.87 620.88 236.05 623.62C235.01 627.07 232.48 629.19 230.21 631.42C222.44 639.1 211.84 636.91 208.24 626.51C201.65 607.49 208.65 591.71 221.42 576.93Z" fill="#DBB385"/>
<path d="M280.96 1003.29C281.59 1007.02 277.15 1009.09 279.09 1013.42C280.46 1016.47 278.59 1019.23 275.64 1020.76C272.71 1022.28 270.57 1020.63 268.77 1018.52C266.35 1015.69 267.31 1013.12 269.43 1010.56C270.23 1009.6 270.65 1008.33 271.22 1006.47C272.56 999.36 276.47 1001.37 280.96 1003.29Z" fill="#5E5C54"/>
<path d="M258.09 1009.51C259.1 1018.65 247.28 1026.9 239.58 1022.15C244.27 1015.57 248.92 1009.71 258.09 1009.51Z" fill="#5E5C54"/>
<path d="M172.75 661.64C173 654.57 180.17 649.84 186.2 652.37C188.17 653.19 189.62 654.57 189.44 656.76C189.22 659.45 186.9 660.07 185.18 658.98C180.22 655.86 177.72 662.46 172.75 661.64Z" fill="#CCC7B5"/>
<path d="M170.2 637C168.67 632.15 175.6 623.74 179.79 624.51C180.87 624.71 181.99 625.79 182.69 626.75C183.57 627.96 183.02 629.38 181.88 630.14C178.26 632.59 174.54 634.89 170.2 637Z" fill="#CCC7B5"/>
<path d="M127.41 773.04C125.55 776.8 124.18 779.94 124.02 783.74C123.9 786.77 121.21 787.29 118.88 786.41C116.08 785.36 117.02 782.77 118.58 781.86C122.56 779.53 116.44 768.07 127.41 773.04Z" fill="#CCC7B5"/>
<path d="M154.02 631.22C149.15 628.43 149.38 625.46 153.38 622.97C155.74 621.5 159.04 621.58 160.24 624.22C162.58 629.36 157.29 629.44 154.02 631.22Z" fill="#CCC7B5"/>
<path d="M161.83 1152.54C168.1 1151.67 169.61 1155 168.03 1159.42C166.42 1163.93 162.95 1163.63 158.86 1160.48C157.93 1157.17 158.39 1154.52 161.83 1152.54Z" fill="#5E5C54"/>
<path d="M84.05 875.86C81.5 878.85 78.95 881.49 75.82 877.73C74.04 875.58 74.89 873.08 77.05 871.8C80.77 869.6 83.24 871.01 84.05 875.86Z" fill="#CCC7B5"/>
<path d="M94.54 909.84C90.91 911.99 87.92 912.36 87.35 908.07C87.02 905.54 88.53 902.29 91.66 902.57C95.57 902.9 97.57 905.35 94.54 909.84Z" fill="#CCC7B5"/>
<path d="M137.24 629.15C133.22 629.73 130.37 629.02 131.35 624.77C131.82 622.7 134.02 621.66 136.12 622.36C139.67 623.55 141.07 625.66 137.24 629.15Z" fill="#CCC7B5"/>
<path d="M71.21 898.7C76.05 898.33 76.98 900.58 75.76 903.97C75.15 905.65 73.25 906.11 71.73 905.55C67.88 904.11 68.41 901.58 71.21 898.7Z" fill="#CCC7B5"/>
<path d="M172 661.7C171.63 664.88 172.06 668.64 167.45 669.15C165.43 669.37 164.5 667.95 164.42 666.12C164.24 661.66 167.46 661.84 171.26 661.78C172.04 661.73 172.01 661.71 172 661.7Z" fill="#CCC7B5"/>
<path d="M161.07 669.54C160.19 672.22 160.13 675.81 156.31 674.09C154.65 673.34 152.45 671.5 153.46 669.71C155.2 666.63 158.2 667.46 161.07 669.54Z" fill="#CCC7B5"/>
<path d="M134.67 707.94C138.53 707.72 140.67 708.72 139.16 712.34C138.36 714.25 136.46 715.65 134.46 714.55C131.47 712.91 132.07 710.43 134.67 707.94Z" fill="#CCC7B5"/>
<path d="M101.44 891.2C104.01 893.67 105.48 895.94 101.72 897.52C99.94 898.27 97.67 898.1 97.09 895.61C96.42 892.72 96.87 890.32 101.44 891.2Z" fill="#CCC7B5"/>
<path d="M161.38 601.79C158.73 604.24 156.27 604.81 154.74 601.62C153.88 599.82 154.07 597.46 156.51 596.87C159.77 596.1 161.31 598.02 161.38 601.79Z" fill="#CCC7B5"/>
<path d="M149.41 755.17C150.25 757.6 154.16 760.55 149.47 762.52C147.95 763.16 145.81 763.03 145.09 761.35C143.69 758.03 144.44 755.49 149.41 755.17Z" fill="#CCC7B5"/>
<path d="M143.49 660.61C140.85 663.9 138.66 663.64 137.05 660.63C136 658.67 136.41 656.67 138.89 656.11C141.86 655.45 144.15 656.14 143.49 660.61Z" fill="#CCC7B5"/>
<path d="M122.41 702.74C120.23 700.13 119.49 697.68 122.7 696.16C124.31 695.4 126.08 696.34 126.75 697.93C128.2 701.39 125.99 702.51 122.41 702.74Z" fill="#CCC7B5"/>
<path d="M157.44 702.23C153.54 702.25 151.97 700.46 153 697.29C153.58 695.5 155.7 695.37 157.22 695.93C160.94 697.3 160.01 699.59 157.44 702.23Z" fill="#CCC7B5"/>
<path d="M177.94 723.02C180.25 726.97 178.19 728.32 175.24 728.73C173.25 729.01 172.35 727.49 172.36 725.65C172.39 722 174.18 721.04 177.94 723.02Z" fill="#CCC7B5"/>
<path d="M105.67 865.02C101.73 865.17 100.17 863.33 101.36 860.25C102.2 858.06 104.84 858.19 106.41 859.13C109.11 860.73 108.06 862.87 105.67 865.02Z" fill="#CCC7B5"/>
<path d="M121.97 823.12C120.28 827.63 117.63 827.37 115.17 824.91C114 823.74 114.62 821.73 115.96 820.54C118.89 817.93 120.56 819.75 121.97 823.12Z" fill="#CCC7B5"/>
<path d="M183.59 689.89C182.37 694.38 180.07 693.74 177.73 691.79C176.3 690.59 176.15 688.86 177.53 687.53C180.33 684.84 182.12 686.5 183.59 689.89Z" fill="#CCC7B5"/>
<path d="M90.26 811.01C95.5 812 93.4 814.57 92.12 816.66C91.07 818.39 89.37 818.29 88.17 816.8C86.24 814.42 85.86 812.16 90.26 811.01Z" fill="#CCC7B5"/>
<path d="M102.82 874.79C107.26 876.19 106.54 878.51 104.4 880.7C103.09 882.05 101.38 881.82 100.23 880.19C98.37 877.56 99.8 876.01 102.82 874.79Z" fill="#CCC7B5"/>
<path d="M115.61 718.35C118.31 720.55 118.27 722.38 115.87 724.01C114.19 725.15 112.58 724.35 111.85 722.96C110.16 719.73 112.01 718.4 115.61 718.35Z" fill="#CCC7B5"/>
<path d="M142.26 676.03C140.19 671.7 142.99 671.91 145.23 672.07C147.12 672.2 148.18 673.63 147.49 675.46C146.55 677.97 144.6 677.42 142.26 676.03Z" fill="#CCC7B5"/>
<path d="M154.09 687.94C151.96 683.56 154.84 683.77 157.08 683.9C158.98 684.02 160.07 685.48 159.39 687.34C158.46 689.92 156.48 689.32 154.09 687.94Z" fill="#CCC7B5"/>
<path d="M130.49 727.87C135.07 728.63 134.47 730.85 132.7 733.26C131.89 734.37 130.39 734.93 129.47 733.9C127.81 732.03 127.87 729.89 130.49 727.87Z" fill="#CCC7B5"/>
<path d="M108.04 738.17C108.2 740.99 107.84 742.97 105.06 742.71C102.91 742.51 102.28 740.75 102.94 739.11C103.8 736.94 105.15 734.64 108.04 738.17Z" fill="#CCC7B5"/>
<path d="M150.16 755.1C150.47 752.74 149.77 749.66 153.62 749.68C154.28 749.68 155.37 750.64 155.53 751.32C156.26 754.58 153.95 754.86 150.86 755.02C150.14 755.07 150.15 755.09 150.16 755.1Z" fill="#CCC7B5"/>
<path d="M670.94 971.23C671.93 974.03 674.87 974.18 675.31 976.94C675.58 978.62 676.01 980.09 674.97 981.56C673.91 983.05 672.56 983.79 670.78 982.86C665.85 980.28 665.29 974.81 662.97 970.56C661.96 968.71 663.74 966.57 665.83 966.13C669.05 965.47 670.74 967.23 670.94 971.23Z" fill="#CCC7B5"/>
<path d="M737.83 936.6C739.25 933.5 742.84 933.15 742.58 929.15C742.37 925.88 745.72 925.29 748.49 926.37C750.74 927.25 751.13 930.68 750.19 931.28C746.08 933.9 747.2 940.54 742.04 941.77C739 942.51 736.99 940.86 737.83 936.6Z" fill="#CCC7B5"/>
<path d="M680.88 953.72C676.93 951.31 673.51 948.92 675.1 944.21C676.22 940.89 679.27 941.75 681.79 941.94C684.54 942.14 685.72 944.42 686.3 946.52C687.36 950.33 685.2 952.61 680.88 953.72Z" fill="#CCC7B5"/>
<path d="M662.87 1004.14C665.63 1000.02 668.67 999.06 671.7 1002.74C673.5 1004.92 672.6 1007.73 670.49 1008.67C666.99 1010.24 663.2 1010.53 662.87 1004.14Z" fill="#CCC7B5"/>
<path d="M714.85 899.38C719.46 900.31 720.55 903.01 718.5 906.41C716.53 909.68 713.77 907.83 712.02 906.14C708.56 902.82 712.01 901.33 714.85 899.38Z" fill="#CCC7B5"/>
<path d="M650.1 1114.69C648.42 1117.32 647.42 1121.5 643.63 1118.13C642.35 1116.99 640.89 1115.08 642.7 1112.95C645.76 1109.36 647.82 1112.11 650.1 1114.69Z" fill="#CCC7B5"/>
<path d="M592.15 1131.58C589.89 1129.28 586.28 1127.61 590.46 1124.61C592.15 1123.39 593.93 1122.62 595.43 1124.73C598.02 1128.38 596.12 1130.45 592.15 1131.58Z" fill="#CCC7B5"/>
<path d="M556.14 1175.2C559.06 1172.69 561.79 1171.05 563.3 1175.36C564.14 1177.78 564.2 1181.09 560.91 1181.67C556.84 1182.4 555.06 1179.95 556.14 1175.2Z" fill="#CCC7B5"/>
<path d="M720.51 995.42C723.66 997.01 728.08 997.8 724.44 1002.19C722.99 1003.94 721.05 1005.56 718.77 1003.27C715.83 1000.31 716.34 997.66 720.51 995.42Z" fill="#CCC7B5"/>
<path d="M699.64 1000.99C700.67 996.74 703 994.89 706.67 997.21C709.87 999.23 708.33 1002.09 706.58 1003.93C703.1 1007.6 701.75 1003.6 699.64 1000.99Z" fill="#CCC7B5"/>
<path d="M745.56 890.88C740.7 892.31 737.97 890.91 738.55 886.1C738.85 883.59 741.13 881.9 743.43 882.46C747.86 883.53 746.76 887.11 745.56 890.88Z" fill="#CCC7B5"/>
<path d="M698.86 973.34C704.1 973.89 704.92 976.38 702.76 980.07C701.49 982.24 699.33 982.12 697.79 980.78C695.08 978.43 693.13 975.68 698.86 973.34Z" fill="#CCC7B5"/>
<path d="M696.38 895.33C690.82 892.66 692.71 889.51 695.44 886.93C697.32 885.15 698.97 887.16 700.1 888.63C703.2 892.66 700.4 894.2 696.38 895.33Z" fill="#CCC7B5"/>
<path d="M730.39 894.65C735.12 896.5 735.5 899.48 733.36 902.74C732.12 904.64 729.36 904.87 728.08 903.45C725.19 900.26 725.29 896.92 730.39 894.65Z" fill="#CCC7B5"/>
<path d="M746.72 915.12C741.86 916.32 739.74 914.57 741.1 910.27C741.56 908.82 743.13 906.03 745.41 907.52C747.75 909.04 752.23 910.92 746.72 915.12Z" fill="#CCC7B5"/>
<path d="M728.33 961.66C724.93 959.68 722.84 957.19 725.98 954.47C727.95 952.76 731.34 952.61 732.79 955.52C734.48 958.9 732.81 961.14 728.33 961.66Z" fill="#CCC7B5"/>
<path d="M596.25 1181.71C589.99 1182.6 590.83 1178.8 591.46 1175.62C591.93 1173.26 593.87 1172.6 595.95 1173.87C599.27 1175.9 600.96 1178.31 596.25 1181.71Z" fill="#CCC7B5"/>
<path d="M661.09 1018.34C665.38 1018.8 668.08 1020.49 666.32 1024.65C665.39 1026.85 662.76 1028.39 660.67 1026.95C657.42 1024.7 657.97 1021.52 661.09 1018.34Z" fill="#CCC7B5"/>
<path d="M634.97 1029.57C629.03 1027.53 631.02 1024.51 633.47 1022.19C635.1 1020.65 637.75 1020.26 639.08 1023.08C640.71 1026.56 640.68 1029.45 634.97 1029.57Z" fill="#CCC7B5"/>
<path d="M669.32 1077.29C671.06 1074.51 672.52 1071.81 675.08 1075.83C676.25 1077.67 676.9 1079.52 674.62 1080.78C671.59 1082.48 669.76 1081.22 669.32 1077.29Z" fill="#CCC7B5"/>
<path d="M648.91 1074.54C651.35 1076.33 653.95 1077.89 651.32 1080.92C650.13 1082.29 648.73 1082.89 647.16 1081.52C643.8 1078.59 645.68 1076.48 648.91 1074.54Z" fill="#CCC7B5"/>
<path d="M641.67 1102.16C642.92 1105.9 643.01 1108.64 638.4 1108.32C636.45 1108.18 635.58 1107.23 635.46 1105.31C635.17 1100.61 638.02 1100.93 641.67 1102.16Z" fill="#CCC7B5"/>
<path d="M697.47 919.06C693.04 921.03 690.46 920.51 690.64 915.64C690.72 913.39 691.73 911.8 694.06 911.86C698.62 911.99 699.35 914.69 697.47 919.06Z" fill="#CCC7B5"/>
<path d="M652.36 1052.62C655.85 1051.04 657.97 1051.88 658.29 1055.21C658.51 1057.49 656.94 1058.79 654.72 1058.64C650.96 1058.38 651.1 1055.86 652.36 1052.62Z" fill="#CCC7B5"/>
<path d="M679.6 1021.44C678.93 1018.04 677.22 1013.68 683.07 1013.39C685.41 1013.27 686.58 1014.49 686.78 1016.91C687.23 1022.19 683.76 1021.72 679.6 1021.44Z" fill="#CCC7B5"/>
<path d="M704.67 955.54C701.29 958.53 698.26 959.18 696.74 954.75C696.09 952.85 697.08 950.75 699.35 950.13C703.27 949.05 704.77 951.13 704.67 955.54Z" fill="#CCC7B5"/>
<path d="M711.56 853.5C713.06 858.44 711.24 860.33 707.05 859.21C704.55 858.54 703.57 856.22 704.98 853.85C706.49 851.3 708.37 848.42 711.56 853.5Z" fill="#CCC7B5"/>
<path d="M565.22 1138.8C562.62 1134.55 563.83 1132.66 567.94 1132.49C570.39 1132.39 571.59 1133.69 571.5 1136.08C571.35 1140.21 569.48 1141.43 565.22 1138.8Z" fill="#CCC7B5"/>
<path d="M596.49 1149.49C597.84 1153.39 597.43 1156.1 593.19 1156.09C591.33 1156.08 590.23 1154.33 590.09 1152.78C589.67 1148.14 592.85 1148.47 596.49 1149.49Z" fill="#CCC7B5"/>
<path d="M624.83 1163.89C621.33 1163.84 618.55 1163.5 620.46 1159.57C621.35 1157.74 623.2 1156.12 625.11 1157.24C627.85 1158.86 627.25 1161.43 624.83 1163.89Z" fill="#CCC7B5"/>
<path d="M724.51 918.23C726.75 921.34 728.55 924.52 723.87 926.05C722.23 926.58 719.48 926.65 718.87 924.54C717.77 920.73 719.67 918.42 724.51 918.23Z" fill="#CCC7B5"/>
<path d="M678.72 1021.3C678.35 1024.09 680.98 1028.05 676.09 1029.17C673.57 1029.74 671.51 1028.1 671.06 1025.68C670.05 1020.28 674.11 1021.27 678.04 1021.32C678.85 1021.42 678.77 1021.34 678.72 1021.3Z" fill="#CCC7B5"/>
<path d="M628.93 1142C632.18 1140.7 634.71 1140.32 634.66 1144.45C634.64 1146.09 634.57 1147.92 632.38 1147.93C628.76 1147.94 626.79 1146.46 628.93 1142Z" fill="#CCC7B5"/>
<path d="M624.36 1127.45C620.07 1127.98 619.07 1125.76 619.76 1122.77C620.35 1120.16 622.88 1120.38 624.55 1121.11C628 1122.61 627.11 1124.92 624.36 1127.45Z" fill="#CCC7B5"/>
<path d="M393.23 981.3C393.2 977.41 393.84 973.38 394.45 968.59C403.14 932.25 411.1 896.51 418.83 860.71C425.8 828.43 433.96 796.41 441.47 764.24C443.33 756.29 444.74 748.23 446.55 739.39C460.23 736.2 468.54 744.16 474.9 754.02C483.9 767.95 489.71 783.49 494.19 799.41C502.31 828.2 512.43 856.55 514.54 887.5C516.88 897.64 512.53 906.82 513.66 916.17C514.12 919.94 512.79 924.1 517.34 927.33C505.42 931.67 492.41 930.85 479.71 933.22C454.88 937.85 433.48 948.39 414.01 963.69C407.04 969.18 400.58 975.33 393.23 981.3Z" fill="#5E5C54"/>
<path d="M209.59 1124.42C210.5 1119.32 213.14 1117.07 217.36 1119.06C221.2 1120.87 219.38 1124.54 219.33 1127.77C219.18 1137.16 210.62 1139.22 205.36 1143.88C201.86 1146.98 200.15 1140.75 196.54 1139.97C189.36 1138.41 181.38 1125.25 182.47 1118.28C182.87 1115.77 183.6 1112.39 187.95 1112.64C193.08 1112.93 194.59 1116.73 193.39 1119.99C190.06 1129.03 199.29 1128.56 202.56 1131.97C204.21 1133.69 209.24 1129.79 209.59 1124.42Z" fill="#5E5C54"/>
<path d="M167.93 1140.51C172.05 1140.7 176.73 1139.31 179.18 1144.4C180.49 1147.13 182.03 1145.56 183.9 1145C187.88 1143.8 191.38 1144.63 191.76 1149.56C191.96 1152.2 193.12 1155.36 188.94 1156.91C184.43 1158.58 181.39 1156.71 180.39 1153.07C179.3 1149.07 179.51 1149.47 175.47 1151.06C167.06 1154.37 167.88 1147.37 168.07 1141.23C168.08 1140.39 167.96 1140.45 167.93 1140.51Z" fill="#5E5C54"/>
<path d="M302.4 1033.06C309.38 1034.51 306.98 1039.26 306.67 1043.96C301.31 1045.18 295.04 1040.3 291.37 1048.34C290.54 1050.17 287.9 1048.8 286.41 1047.24C284.61 1045.36 282.38 1043.76 283.9 1040.58C285.5 1037.22 289.16 1034.77 291.64 1035.75C296.22 1037.57 298.62 1035.01 302.4 1033.06Z" fill="#5E5C54"/>
<path d="M259.54 1025.29C264.71 1026.42 266.31 1029.25 264.1 1033.18C262.48 1036.06 261.1 1038.69 260.85 1042.13C260.65 1044.92 258.27 1046.66 255.27 1046.8C253.07 1046.9 251.47 1045.66 250.43 1043.88C249.11 1041.61 249.22 1038.49 251.42 1037.76C257.87 1035.64 250.84 1026.09 259.54 1025.29Z" fill="#5E5C54"/>
<path d="M251.52 1144.58C251.32 1152.05 242.67 1150.4 240.81 1156.1C240.39 1157.38 234.55 1157.13 232.43 1153.73C230.2 1150.15 232.5 1148.28 235.47 1147.12C237.65 1146.27 238.61 1144.92 239.94 1142.92C243.67 1137.31 248.24 1135.71 251.52 1144.58Z" fill="#5E5C54"/>
<path d="M204.6 1090.49C206.94 1082.52 216.9 1084.24 219.25 1077.07C219.43 1076.5 222.83 1076.88 223.86 1079.25C224.76 1081.33 226.98 1084.34 224.79 1085.34C218.91 1088.02 215.4 1096.45 206.33 1092.69C205.26 1091.97 204.81 1091.63 204.6 1090.49Z" fill="#5E5C54"/>
<path d="M239.72 1162.2C242.86 1159.51 248 1158.74 248.44 1161.46C249.27 1166.57 255.47 1169.88 252.97 1175.54C252.15 1177.4 250.71 1179.75 247.92 1179.47C245.52 1179.23 242.5 1177.91 243.07 1175.64C244.35 1170.49 238.86 1167.68 239.72 1162.2Z" fill="#5E5C54"/>
<path d="M274.08 1165.71C275.71 1169.83 276.42 1173.37 272.45 1175.62C270.33 1176.82 268.09 1176.61 266.16 1174.97C264.05 1173.19 262.59 1170.93 263.77 1168.19C265.74 1163.58 269.5 1163.76 274.08 1165.71Z" fill="#5E5C54"/>
<path d="M230.59 1100.65C226.66 1104.28 223.42 1103.45 220.61 1100.48C218.89 1098.66 218.97 1095.73 220.28 1094.14C222.14 1091.88 225.04 1091.62 228.18 1092.48C233.06 1093.81 231.61 1097.1 230.59 1100.65Z" fill="#5E5C54"/>
<path d="M231.39 1124.59C226.79 1124.82 224.04 1123.39 223.76 1119.34C223.52 1115.9 225.95 1113.93 228.86 1112.94C231.28 1112.12 233.68 1113.32 234.7 1115.46C236.36 1118.94 236.57 1122.48 231.39 1124.59Z" fill="#5E5C54"/>
<path d="M245.98 1098.27C244.99 1093 246.67 1089.74 251.41 1089.27C254.51 1088.96 256.03 1091.85 256.54 1094.35C256.88 1096.01 256.28 1098.75 255.08 1099.66C252.31 1101.78 249.06 1101.61 245.98 1098.27Z" fill="#5E5C54"/>
<path d="M204.23 1090.13C205.07 1090.1 205.29 1090.51 205.62 1091.61C205.66 1093.94 205.87 1095.63 205.5 1097.19C204.72 1100.49 202.42 1102.33 199.02 1101.91C196.65 1101.61 194.63 1100.17 194.21 1097.55C193.65 1094.05 195.46 1091.86 198.73 1090.99C200.28 1090.58 201.97 1090.7 204.23 1090.13Z" fill="#5E5C54"/>
<path d="M262.35 1128.4C258.21 1124.03 256.49 1119.67 262.77 1116.87C265.76 1115.54 268.97 1117.46 269.38 1120.88C269.87 1125.1 268.39 1128.63 262.35 1128.4Z" fill="#5E5C54"/>
<path d="M208.57 1168.1C205.02 1167.81 200.87 1170.53 199.94 1165.54C199.42 1162.73 199.49 1159.83 202.87 1158.07C205.39 1156.76 206.99 1157.58 208.96 1159C212.95 1161.89 212.26 1164.77 208.57 1168.1Z" fill="#5E5C54"/>
<path d="M219.94 1154.34C225.97 1156.06 227.46 1159.45 224.07 1163.89C221.93 1166.69 218.46 1166.33 216.29 1163.89C212.45 1159.56 213.84 1156.22 219.94 1154.34Z" fill="#5E5C54"/>
<path d="M267.29 1157.1C261.95 1159.8 258.42 1158.68 257.44 1153.1C256.76 1149.25 259.62 1147.32 262.7 1147.56C268.11 1147.98 270.15 1151.18 267.29 1157.1Z" fill="#5E5C54"/>
<path d="M275.42 1100.8C280.33 1101.23 281.87 1103.93 280.82 1107.48C280.16 1109.7 278.75 1112.37 275.54 1112.35C272.4 1112.33 270.75 1109.97 270.16 1107.58C269.33 1104.18 270.45 1101.26 275.42 1100.8Z" fill="#5E5C54"/>
<path d="M268.32 1077.43C274.09 1076.34 277.63 1078.03 276.55 1083.65C275.95 1086.79 273.12 1090.17 269.43 1088.23C265.2 1085.99 264.05 1081.99 268.32 1077.43Z" fill="#5E5C54"/>
<path d="M221.53 1047.46C223.84 1043.01 225.94 1038.5 231.09 1043.28C234 1045.98 233.87 1050.05 231.21 1051.95C227.15 1054.85 223.13 1053.71 221.53 1047.46Z" fill="#5E5C54"/>
<path d="M246.81 1064.7C240.65 1065.94 237.98 1063.87 239.04 1058.18C239.69 1054.69 242.36 1052.67 245.36 1054.21C249.53 1056.35 251.57 1059.99 246.81 1064.7Z" fill="#5E5C54"/>
<path d="M265.21 1061.07C268.36 1056.17 272.02 1054.88 275.28 1059.39C277.29 1062.15 276.8 1065.91 273.26 1067.74C267.01 1070.97 266.59 1065.46 265.21 1061.07Z" fill="#5E5C54"/>
<path d="M242.96 1075.64C238.56 1077.79 234.17 1079.42 231.9 1074.12C230.15 1070.02 233.76 1067.74 236.78 1067.25C242.39 1066.31 244.28 1069.72 242.96 1075.64Z" fill="#5E5C54"/>
<path d="M160.28 1181.3C159.96 1177.5 158.28 1173.75 162.69 1172.51C165.18 1171.81 167.78 1172.14 169.45 1174.86C171.11 1177.55 170.2 1179.62 168.54 1181.89C165.88 1185.55 163.29 1184.7 160.28 1181.3Z" fill="#5E5C54"/>
<path d="M277.51 1041.1C274.63 1046.08 270.65 1046.93 267.92 1043.18C266.12 1040.7 265.8 1035.71 270.29 1034.03C275.84 1031.97 276.51 1036.73 277.51 1041.1Z" fill="#5E5C54"/>
<path d="M353.68 520.85C352.79 494.7 352.47 469.24 352.42 443.78C352.35 404.08 352.47 364.37 352.67 323.67C353.51 322.74 354.35 322.73 354.71 323.18C368.69 340.55 388.39 346.34 409.76 350.44C414.59 355.14 415.54 361.49 419.7 365.81C430.04 376.55 446.13 374.39 455.33 361.17C457.97 357.37 458.84 352.63 462.59 348.67C472.05 346.4 480.7 343.25 490.54 345.89C494.2 353.56 492.98 360.77 492.03 367.94C486.71 408.06 487.31 448 495.3 487.76C497.32 497.82 498.36 507.93 494.58 518.75C489.5 522.34 484.45 521.82 479.54 521.83C454.8 521.91 430.05 522.14 405.31 521.75C392.72 521.55 380.37 524.38 367.8 523.84C363.24 523.64 358.52 524.28 353.68 520.85Z" fill="#E7FF34"/>
<path d="M410.76 350.8C387.86 349.37 366.82 344.92 353.44 323.17C351.03 302.88 351.79 284.24 370.11 270.81C377.73 265.22 386.12 264.24 395.44 262.49C398.82 260.27 401.8 259.38 406.05 259.49C426.45 258.96 445.9 259.29 466.29 259.38C470.39 259.55 473.6 259.4 477.13 261.92C484.46 264.33 491.37 265.2 497.73 269.47C500.53 274.23 501.38 278.81 500.74 283.45C498.13 302.38 497.65 321.54 494.12 341.26C493.31 343.24 492.52 344.14 490.57 344.93C481.4 348.11 472.66 348.87 463.21 350.32C459.14 348.1 458.61 344.3 457.11 341.08C452.15 330.38 445.95 326.4 434.95 326.48C424.07 326.55 418.43 333.21 414.37 342.09C413.16 344.76 413.04 347.85 410.76 350.8Z" fill="#F1EEE5"/>
<path d="M352.87 521C399.37 519.69 445.76 519.22 493.07 518.6C501.4 514.04 509.05 514.9 517.48 518.12C519.52 543.8 495.44 564.08 473.21 562.73C448.47 561.23 423.51 561.31 398.75 562.66C371.83 564.13 353.79 543.89 352.87 521Z" fill="#F1EEE5"/>
<path d="M518.62 518.11C510.72 518.78 503.26 518.76 494.89 518.6C495.63 498.56 489.9 479.44 487.86 459.93C484.66 429.45 484.31 398.93 488.86 368.57C489.95 361.29 489.61 354.17 489.76 346C489.97 344.41 490.46 344.02 491.58 343.69C500.63 336.5 509.21 329.48 517.95 321.7C518.89 322.86 519.36 324.15 519.36 325.44C519.3 389.43 519.18 453.43 518.62 518.11Z" fill="#A0B501"/>
<path d="M584.82 482.32C585.7 500.4 585.99 517.92 585.78 535.44C585.61 549.15 576.72 558.64 565.07 558.35C553.82 558.07 545.75 548.85 545.59 535.35C545.39 518.49 545.61 501.62 545.77 483.84C558.45 477.41 571.21 479.02 584.82 482.32Z" fill="#E1FF01"/>
<path d="M518.83 320.7C512.41 331.39 503.74 338.42 492.73 343.54C492.87 319.57 498.1 295.98 498.06 271.02C517.75 281.34 520.2 299.82 518.83 320.7Z" fill="#CCC7B5"/>
<path d="M477.89 261.63C475.04 262.6 472.22 262.67 468.58 262.51C464.19 255.99 465.3 248.76 463.8 242.04C460.3 226.39 450.23 220.5 435.27 226.11C424.08 230.31 416.63 238.21 412.41 249.38C410.9 253.38 409.81 257.59 407.03 261.84C403.68 262.53 400.79 262.64 397.05 262.54C400.14 241.26 409.22 223.27 430.22 215.19C449.94 207.61 470.51 212.53 474.94 236.37C476.45 244.46 478.3 252.44 477.89 261.63Z" fill="#E1FF01"/>
<path d="M585.79 482.03C572.99 482.9 560.35 482.93 546.81 482.94C545.01 464.72 546.63 463.02 564.78 462.98C569.07 462.97 573.37 462.95 578.6 462.86C580.47 463.42 581.41 464.06 582.88 464.88C586.8 470.05 586 475.68 585.79 482.03Z" fill="#F1EEE5"/>
<path d="M325.48 369.45C325.08 368.99 325.37 368.41 326.29 367.67C326.44 368 326.19 368.61 325.48 369.45Z" fill="#122A7F"/>
<path d="M573.48 855.36C555.02 856.27 536.57 856.36 517.23 856.47C512 853.08 513 848.16 512.83 843.67C512.1 823.85 515.33 804.18 514.95 784.32C514.5 761.12 513.55 738.14 506.21 715.88C505.27 713.03 504.82 710.1 505.96 706.31C525.14 700.84 543.67 695.62 561.35 687.8C568.53 684.63 575.49 680.97 582.55 677.54C592.84 672.53 598.81 676.41 599.32 687.94C600.56 715.72 598.3 743.37 594.9 770.84C593.35 783.38 588.4 795.52 584.33 807.69C579.26 822.87 575.24 838.49 573.48 855.36Z" fill="#7C8C01"/>
<path d="M506 704.92C519.62 743.13 519.3 781.88 516.47 820.92C515.66 832.11 516.1 843.4 516.15 855.56C515.95 866.59 515.58 876.7 514.78 887.55C508.06 856 499.07 824.39 489.65 792.94C485.68 779.69 479.99 766.84 472.87 754.82C467.33 745.47 457.88 741.94 447.47 738.73C451.86 716.24 456.97 693.91 462.09 670.81C468.29 667.22 474.77 669.26 481.84 669.52C493.75 679.18 498.78 692.34 506 704.92Z" fill="#FEFEFE"/>
<path d="M483.43 669.96C476.35 670.01 470.14 669.87 463.01 669.88C438.03 670.03 413.95 670.03 389.88 670.03C389.88 669.38 389.89 668.74 389.89 668.09C436.68 668.09 483.47 668.09 530.26 668.09C530.27 668.65 530.27 669.2 530.28 669.76C514.95 669.77 499.62 669.77 483.43 669.96Z" fill="#5E5C54"/>
<path d="M410.31 351.99C411.33 335.82 420.26 324.57 431.83 323.93C449.69 322.94 457.7 329.51 462.23 349.54C460.18 358.75 456.66 366.3 449.1 371.34C434.74 380.92 414.64 372.91 410.31 351.99Z" fill="#5E5C54"/>
<path d="M407.48 262.58C408.14 242.51 420.88 226.91 439.77 221.76C451.52 218.55 463.96 225.92 465.83 237.91C466.99 245.35 468.78 252.84 467.8 261.4C447.97 262.44 428.18 262.6 407.48 262.58Z" fill="#111F22"/>
</svg>
