<svg width="357" height="96" viewBox="0 0 357 96" fill="none" xmlns="http://www.w3.org/2000/svg">
<path fill-rule="evenodd" clip-rule="evenodd" d="M0.109833 0.483953C-0.130463 0.930893 0.0371399 1.48796 0.484222 1.72819C18.8318 11.5874 39.4991 13.4888 59.9443 13.1943C69.5714 13.0556 75.2849 11.7126 83.6228 8.5616C83.6221 8.58243 83.6213 8.60405 83.6202 8.62648C83.6086 8.87496 83.5761 9.17066 83.5302 9.51024C83.5009 9.72637 83.4651 9.96589 83.4275 10.217C83.3533 10.713 83.2723 11.2542 83.2218 11.7497C83.1466 12.4872 83.1108 13.3314 83.3207 14.0188C85.7582 22.0015 89.2645 26.7068 95.6944 32.2904C108.319 43.2531 125.386 49.2372 141.509 51.9713C146.132 52.7553 151.576 53.5025 157.362 53.9402C156.132 58.8593 156.501 63.9755 157.92 68.8541C160 76.0112 164.351 82.717 169.338 87.7026C178.702 97.0638 189.785 101.439 201.507 103.81C209.428 105.412 217.72 106.108 225.974 106.802C229.873 107.129 233.764 107.456 237.604 107.877C240.005 108.141 242.405 108.432 244.81 108.723L244.822 108.724C247.23 109.016 249.644 109.308 252.062 109.573C252.876 109.663 253.961 109.64 255.034 109.605C255.232 109.599 255.431 109.592 255.629 109.585C256.537 109.554 257.437 109.523 258.244 109.536C259.152 109.552 259.791 109.625 260.147 109.742C255.926 116.366 257.969 123.331 262.062 129.357C266.161 135.392 272.461 140.73 277.28 144.35C300.672 161.921 328.51 160.663 355.551 157.137C356.055 157.071 356.409 156.61 356.344 156.107C356.278 155.604 355.817 155.249 355.314 155.315C328.288 158.839 301.135 159.97 278.384 142.881C273.607 139.292 267.506 134.102 263.582 128.325C259.657 122.546 258.052 116.424 261.714 110.704C261.975 110.297 262.185 109.765 262.031 109.197C261.873 108.616 261.419 108.294 261.043 108.122C260.327 107.794 259.27 107.716 258.274 107.699C257.416 107.685 256.457 107.718 255.548 107.749C255.354 107.756 255.163 107.763 254.975 107.769C253.876 107.804 252.924 107.82 252.262 107.747C249.856 107.483 247.453 107.192 245.043 106.9L245.029 106.898C242.626 106.607 240.217 106.316 237.804 106.051C233.861 105.618 229.915 105.287 225.99 104.958C217.796 104.27 209.689 103.59 201.872 102.009C190.368 99.6819 179.663 95.4258 170.638 86.4033C165.835 81.6019 161.666 75.1575 159.685 68.3413C158.307 63.6038 157.993 58.716 159.227 54.0696C163.779 54.3561 168.506 54.4379 173.184 54.1868C184.493 53.5797 195.669 51.0194 203.333 44.54C205.301 42.8763 206.367 41.1945 206.596 39.5261C206.828 37.8316 206.169 36.348 205.11 35.1609C203.042 32.843 199.258 31.4157 196.187 31.1246C183.191 29.8925 167.341 35.5861 160.206 47.1921C159.218 48.7983 158.454 50.4525 157.889 52.1368C152.034 51.7093 146.508 50.9553 141.816 50.1596C125.877 47.4568 109.176 41.5633 96.8997 30.9032C90.6723 25.4954 87.3951 21.0688 85.0786 13.4823C84.9859 13.1788 84.9764 12.6611 85.0503 11.936C85.0969 11.4788 85.1654 11.0229 85.2353 10.5578C85.2748 10.2944 85.3148 10.028 85.3515 9.75675C85.3999 9.39977 85.4409 9.04139 85.4562 8.7121C85.4711 8.39357 85.4655 8.04304 85.3906 7.72397C85.318 7.41472 85.1372 6.96335 84.663 6.71512C84.1927 6.469 83.7043 6.56478 83.3561 6.69741C74.9709 9.89092 69.4436 11.2198 59.9178 11.357C39.5712 11.6501 19.2851 9.74486 1.35437 0.109671C0.907318 -0.130559 0.350128 0.0370124 0.109833 0.483953ZM159.791 52.2632C160.296 50.8624 160.951 49.489 161.772 48.1543C168.447 37.2962 183.519 31.7694 196.014 32.9539C198.798 33.2179 202.079 34.5242 203.738 36.3841C204.543 37.2859 204.915 38.2523 204.775 39.277C204.631 40.3279 203.923 41.6346 202.146 43.1369C194.943 49.2271 184.259 51.7521 173.085 52.3519C168.64 52.5906 164.142 52.5233 159.791 52.2632ZM260.247 109.555C260.247 109.555 260.247 109.556 260.246 109.559C260.247 109.556 260.248 109.554 260.247 109.555ZM260.34 109.826C260.343 109.828 260.344 109.829 260.344 109.829C260.344 109.829 260.343 109.828 260.34 109.826ZM83.5953 8.12241C83.5953 8.12254 83.5958 8.12425 83.597 8.12744C83.5959 8.12386 83.5953 8.12227 83.5953 8.12241ZM84.0597 8.39819C84.0641 8.3975 84.0665 8.3969 84.0667 8.39676C84.0668 8.39662 84.0645 8.39697 84.0597 8.39819Z" fill="#525252"/>
</svg>
