<svg width="101" height="32" viewBox="0 0 101 32" fill="none" xmlns="http://www.w3.org/2000/svg">
<g clip-path="url(#clip0_542_2588)">
<path d="M57.6326 20.3673C57.6326 27.4286 52.4082 32 45.9592 32C39.551 32 34.6939 27.4286 34.6939 20.3673C34.6939 13.3061 39.7551 8.77551 46.1633 8.77551C52.5714 8.77551 57.6326 13.3061 57.6326 20.3673ZM39.4286 20.3673C39.4286 25.4694 42.449 27.9592 45.9592 27.9592C49.4286 27.9592 52.8571 25.4694 52.8571 20.3673C52.8571 15.2653 49.551 12.8163 46.0816 12.8163C42.5714 12.8163 39.4286 15.2653 39.4286 20.3673Z" fill="#133034"/>
<path d="M60.1916 31.6327V1.42857H64.8447V31.6327H60.1916Z" fill="#133034"/>
<path d="M68.9129 31.6327V9.14286H73.566V31.6327H68.9129ZM71.2803 6.16326C69.6068 6.16326 68.3007 4.85714 68.3007 3.18367C68.3007 1.5102 69.6068 0.20408 71.2803 0.20408C72.9129 0.20408 74.2191 1.5102 74.2191 3.18367C74.2191 4.85714 72.9129 6.16326 71.2803 6.16326Z" fill="#133034"/>
<path d="M82.2873 12.4898C83.7567 10.449 86.573 8.77551 90.124 8.77551C96.0832 8.77551 100.695 13.3469 100.695 20.2857C100.695 27.2245 96.0424 32 90.124 32C86.4098 32 83.7567 30.3265 82.2873 28.3673V31.6327H77.6342V1.42857H82.2873V12.4898ZM95.9608 20.2857C95.9608 15.4286 92.6138 12.8163 89.1036 12.8163C85.6342 12.8163 82.2873 15.551 82.2873 20.3673C82.2873 25.2245 85.6342 27.9592 89.1036 27.9592C92.6138 27.9592 95.9608 25.1429 95.9608 20.2857Z" fill="#133034"/>
<path d="M1 9.18367H5.59184V31.6327H1V9.18367Z" fill="#133034"/>
<path d="M20.1327 0C14.3562 0 9.67347 4.68274 9.67347 10.4592V31.6327H14.2653V10.9694C14.2653 7.72894 16.8922 5.10204 20.1327 5.10204C23.3731 5.10204 26 7.72894 26 10.9694V31.6327H30.5918V10.4592C30.5918 4.68274 25.9091 0 20.1327 0Z" fill="#133034"/>
</g>
<path d="M0.695435 9.18367H5.28727V31.6327H0.695435V9.18367Z" fill="#3E6D77"/>
<path d="M19.8281 0C14.0516 0 9.3689 4.68274 9.3689 10.4592V31.6327H13.9607V10.9694C13.9607 7.72894 16.5876 5.10204 19.8281 5.10204C23.0685 5.10204 25.6954 7.72894 25.6954 10.9694V31.6327H30.2873V10.4592C30.2873 4.68274 25.6045 0 19.8281 0Z" fill="#3E6D77"/>
<defs>
<clipPath id="clip0_542_2588">
<rect width="69" height="32" fill="white" transform="translate(32)"/>
</clipPath>
</defs>
</svg>
