<svg width="196" height="63" viewBox="0 0 196 63" fill="none" xmlns="http://www.w3.org/2000/svg">
<path d="M111 39.92C111 53.76 100.76 62.72 88.12 62.72C75.56 62.72 66.04 53.76 66.04 39.92C66.04 26.08 75.96 17.2 88.52 17.2C101.08 17.2 111 26.08 111 39.92ZM75.32 39.92C75.32 49.92 81.24 54.8 88.12 54.8C94.92 54.8 101.64 49.92 101.64 39.92C101.64 29.92 95.16 25.12 88.36 25.12C81.48 25.12 75.32 29.92 75.32 39.92Z" fill="#133034"/>
<path d="M116.016 62V2.8H125.136V62H116.016Z" fill="#133034"/>
<path d="M133.109 62V17.92H142.229V62H133.109ZM137.749 12.08C134.469 12.08 131.909 9.52 131.909 6.24C131.909 2.96 134.469 0.399997 137.749 0.399997C140.949 0.399997 143.509 2.96 143.509 6.24C143.509 9.52 140.949 12.08 137.749 12.08Z" fill="#133034"/>
<path d="M159.323 24.48C162.203 20.48 167.723 17.2 174.683 17.2C186.363 17.2 195.403 26.16 195.403 39.76C195.403 53.36 186.283 62.72 174.683 62.72C167.403 62.72 162.203 59.44 159.323 55.6V62H150.203V2.8H159.323V24.48ZM186.123 39.76C186.123 30.24 179.563 25.12 172.683 25.12C165.883 25.12 159.323 30.48 159.323 39.92C159.323 49.44 165.883 54.8 172.683 54.8C179.563 54.8 186.123 49.28 186.123 39.76Z" fill="#133034"/>
<path d="M0 18H9V62H0V18Z" fill="#82ACB0"/>
<path d="M37.5 0C26.1782 0 17 9.17816 17 20.5V62H26V21.5C26 15.1487 31.1487 10 37.5 10C43.8513 10 49 15.1487 49 21.5V62H58V20.5C58 9.17816 48.8218 0 37.5 0Z" fill="#82ACB0"/>
</svg>
