<svg width="319" height="187" viewBox="0 0 319 187" fill="none" xmlns="http://www.w3.org/2000/svg">
<path d="M173 101.92C173 115.76 162.76 124.72 150.12 124.72C137.56 124.72 128.04 115.76 128.04 101.92C128.04 88.08 137.96 79.2 150.52 79.2C163.08 79.2 173 88.08 173 101.92ZM137.32 101.92C137.32 111.92 143.24 116.8 150.12 116.8C156.92 116.8 163.64 111.92 163.64 101.92C163.64 91.92 157.16 87.12 150.36 87.12C143.48 87.12 137.32 91.92 137.32 101.92Z" fill="white"/>
<path d="M178.016 124V64.8H187.136V124H178.016Z" fill="white"/>
<path d="M195.109 124V79.92H204.229V124H195.109ZM199.749 74.08C196.469 74.08 193.909 71.52 193.909 68.24C193.909 64.96 196.469 62.4 199.749 62.4C202.949 62.4 205.509 64.96 205.509 68.24C205.509 71.52 202.949 74.08 199.749 74.08Z" fill="white"/>
<path d="M221.323 86.48C224.203 82.48 229.723 79.2 236.683 79.2C248.363 79.2 257.403 88.16 257.403 101.76C257.403 115.36 248.283 124.72 236.683 124.72C229.403 124.72 224.203 121.44 221.323 117.6V124H212.203V64.8H221.323V86.48ZM248.123 101.76C248.123 92.24 241.563 87.12 234.683 87.12C227.883 87.12 221.323 92.48 221.323 101.92C221.323 111.44 227.883 116.8 234.683 116.8C241.563 116.8 248.123 111.28 248.123 101.76Z" fill="white"/>
<path d="M62 80H71V124H62V80Z" fill="#E1FF01"/>
<path d="M99.5 62C88.1782 62 79 71.1782 79 82.5V124H88V83.5C88 77.1487 93.1487 72 99.5 72C105.851 72 111 77.1487 111 83.5V124H120V82.5C120 71.1782 110.822 62 99.5 62Z" fill="#E1FF01"/>
</svg>
