<svg width="100" height="32" viewBox="0 0 100 32" fill="none" xmlns="http://www.w3.org/2000/svg">
<path d="M56.6327 20.3673C56.6327 27.4286 51.4082 32 44.9592 32C38.551 32 33.6939 27.4286 33.6939 20.3673C33.6939 13.3061 38.7551 8.77551 45.1633 8.77551C51.5714 8.77551 56.6327 13.3061 56.6327 20.3673ZM38.4286 20.3673C38.4286 25.4694 41.449 27.9592 44.9592 27.9592C48.4286 27.9592 51.8571 25.4694 51.8571 20.3673C51.8571 15.2653 48.551 12.8163 45.0816 12.8163C41.5714 12.8163 38.4286 15.2653 38.4286 20.3673Z" fill="white"/>
<path d="M59.1916 31.6327V1.42857H63.8447V31.6327H59.1916Z" fill="white"/>
<path d="M67.9129 31.6327V9.14286H72.566V31.6327H67.9129ZM70.2803 6.16326C68.6068 6.16326 67.3007 4.85714 67.3007 3.18367C67.3007 1.5102 68.6068 0.20408 70.2803 0.20408C71.9129 0.20408 73.2191 1.5102 73.2191 3.18367C73.2191 4.85714 71.9129 6.16326 70.2803 6.16326Z" fill="white"/>
<path d="M81.2873 12.4898C82.7567 10.449 85.573 8.77551 89.124 8.77551C95.0832 8.77551 99.6955 13.3469 99.6955 20.2857C99.6955 27.2245 95.0424 32 89.124 32C85.4098 32 82.7567 30.3265 81.2873 28.3673V31.6327H76.6342V1.42857H81.2873V12.4898ZM94.9608 20.2857C94.9608 15.4286 91.6138 12.8163 88.1036 12.8163C84.6342 12.8163 81.2873 15.551 81.2873 20.3673C81.2873 25.2245 84.6342 27.9592 88.1036 27.9592C91.6138 27.9592 94.9608 25.1429 94.9608 20.2857Z" fill="white"/>
<path d="M0 9.18367H4.59184V31.6327H0V9.18367Z" fill="#E1FF01"/>
<path d="M19.1327 0C13.3562 0 8.67347 4.68274 8.67347 10.4592V31.6327H13.2653V10.9694C13.2653 7.72894 15.8922 5.10204 19.1327 5.10204C22.3731 5.10204 25 7.72894 25 10.9694V31.6327H29.5918V10.4592C29.5918 4.68274 24.9091 0 19.1327 0Z" fill="#E1FF01"/>
</svg>
